<?xml version="1.0" encoding="utf-8"?>
<!-- Generator: Adobe Illustrator 16.0.0, SVG Export Plug-In . SVG Version: 6.00 Build 0)  -->
<!DOCTYPE svg PUBLIC "-//W3C//DTD SVG 1.1//EN" "http://www.w3.org/Graphics/SVG/1.1/DTD/svg11.dtd">
<svg version="1.1" id="Layer_3" xmlns="http://www.w3.org/2000/svg" xmlns:xlink="http://www.w3.org/1999/xlink" x="0px" y="0px"
	 width="130px" height="135px" viewBox="0 0 130 135" enable-background="new 0 0 130 135" xml:space="preserve">
<g>
	<g>
		<line fill-rule="evenodd" clip-rule="evenodd" fill="none" x1="114.95" y1="14.9" x2="114.95" y2="115.6"/>
		<g>
			<path fill-rule="evenodd" clip-rule="evenodd" fill="none" stroke="#FFFFFF" stroke-width="0.75" stroke-miterlimit="10" d="
				M120.45,2.9c0.3,0.1,0.45,0.23,0.45,0.4c0,0.33-0.45,0.65-1.35,0.95c-0.07,0-0.1,0.03-0.1,0.1c-1.77,0.77-7.48,1.43-17.15,2
				c-10,0.47-22.95,0.7-38.85,0.7c-15.83,0-29.35-0.37-40.55-1.1C16.17,5.48,11.47,5.03,8.8,4.6c3.43,3.57,5.18,7.25,5.25,11.05
				v99.25c-0.1,2.57,0.53,4.83,1.9,6.8c1.3,2,4.78,3.8,10.45,5.4c26.43,5.27,52.65,5.23,78.65-0.1c4.6-0.97,7.78-2.53,9.55-4.7
				c1.8-2.2,2.77-4.72,2.9-7.55V10.45c0-0.17,0.02-0.33,0.05-0.5c0.3-1.47,0.93-3.17,1.9-5.1 M8.8,4.6C6.97,4.2,6.05,3.77,6.05,3.3
				c0-0.17,0.12-0.3,0.35-0.4"/>
		</g>
		<g>
			<linearGradient id="SVGID_1_" gradientUnits="userSpaceOnUse" x1="-30.1123" y1="67.5498" x2="41.0127" y2="67.5498">
				<stop  offset="0" style="stop-color:#FFFFFF;stop-opacity:0.6706"/>
				<stop  offset="1" style="stop-color:#FFFFFF;stop-opacity:0"/>
			</linearGradient>
			<path fill-rule="evenodd" clip-rule="evenodd" fill="url(#SVGID_1_)" d="M61.25,8.35c-0.27,2.9-0.38,6.25-0.35,10.05l-0.05,110.9
				c-19.5-0.97-31.87-2.58-37.1-4.85c-5.27-2.33-7.9-5.27-7.9-8.8L16,13.55c-0.4-2.17-1.62-4.75-3.65-7.75
				C30.42,8.07,46.72,8.92,61.25,8.35z"/>
		</g>
		<g>
			
				<linearGradient id="SVGID_2_" gradientUnits="userSpaceOnUse" x1="-41.3389" y1="-38.8657" x2="78.9499" y2="-38.8657" gradientTransform="matrix(0.2305 0.9731 -0.9935 0.1443 4.720837e-004 -2.722144e-004)">
				<stop  offset="0" style="stop-color:#FFFFFF;stop-opacity:0.6706"/>
				<stop  offset="1" style="stop-color:#FFFFFF;stop-opacity:0"/>
			</linearGradient>
			<path fill-rule="evenodd" clip-rule="evenodd" fill="url(#SVGID_2_)" d="M63.05,12.4l-0.1,105.9c-9.03,0.17-14.37-1.02-16-3.55
				l-1.2-103.1C51.32,12.28,57.08,12.53,63.05,12.4z"/>
		</g>
		<g>
			<path fill-rule="evenodd" clip-rule="evenodd" fill="none" d="M14.9,115.6c2.17,9.2,18.83,14.02,50,14.45"/>
			<path fill-rule="evenodd" clip-rule="evenodd" fill="none" d="M88.75,128.35c15.97-0.73,24.83-3.62,26.6-8.65"/>
		</g>
		<g>
			
				<linearGradient id="SVGID_3_" gradientUnits="userSpaceOnUse" x1="-132.3267" y1="-70.1221" x2="-101.6942" y2="-70.1221" gradientTransform="matrix(-0.9981 0.0612 -5.370237e-003 -1.0015 3.135819e-004 2.887808e-004)">
				<stop  offset="0" style="stop-color:#FFFFFF;stop-opacity:0.6706"/>
				<stop  offset="1" style="stop-color:#FFFFFF;stop-opacity:0"/>
			</linearGradient>
			<path fill-rule="evenodd" clip-rule="evenodd" fill="url(#SVGID_3_)" d="M114.95,7.65V112c-12.5,9.6-22.08,10.37-28.75,2.3V10.05
				C96.27,9.75,105.85,8.95,114.95,7.65z"/>
		</g>
		<g>
			
				<linearGradient id="SVGID_4_" gradientUnits="userSpaceOnUse" x1="-156.2656" y1="64.4688" x2="-119.2865" y2="64.4688" gradientTransform="matrix(-0.0149 -0.9999 1.0002 3.937674e-003 1.435922e-004 5.278923e-005)">
				<stop  offset="0" style="stop-color:#FFFFFF"/>
				<stop  offset="1" style="stop-color:#FFFFFF;stop-opacity:0"/>
			</linearGradient>
			<path fill-rule="evenodd" clip-rule="evenodd" fill="url(#SVGID_4_)" d="M28.35,126.25c-5.27-1.5-9.38-4.08-12.35-7.75
				c37.5,4.77,68.4,0.3,92.7-13.4c2.4,1.1,4.3,2.23,5.7,3.4l2.05,8.2c-1.2,4.93-4.1,7.97-8.7,9.1c-3.9,1.37-10.88,2.57-20.95,3.6
				c-14.2,1.63-28.37,1.63-42.5,0C38.07,128.6,32.75,127.55,28.35,126.25z"/>
		</g>
		<g>
			<line fill-rule="evenodd" clip-rule="evenodd" fill="none" x1="58.7" y1="12.35" x2="59.2" y2="12.35"/>
			<path fill-rule="evenodd" clip-rule="evenodd" fill="none" d="M11.15,4.9c1.83,1.77,3.43,5.07,4.8,9.9"/>
			<path fill-rule="evenodd" clip-rule="evenodd" fill="none" d="M20.1,7.75C36.07,8.98,51.27,9.63,65.7,9.7
				c18,0.1,34.67-0.82,50-2.75"/>
		</g>
		<g>
			<line fill-rule="evenodd" clip-rule="evenodd" fill="none" x1="65.75" y1="26.3" x2="65.75" y2="120.45"/>
		</g>
	</g>
	<g>
		
			<path fill-rule="evenodd" clip-rule="evenodd" fill="none" stroke="#000000" stroke-width="0.75" stroke-linecap="round" stroke-linejoin="round" stroke-miterlimit="3" d="
			M59,28.25h12.75 M59,49.35h12.75 M59,70.45h12.75 M59,91.55h12.75 M59,112.75h12.75"/>
	</g>
	<g>
		<path fill-rule="evenodd" clip-rule="evenodd" d="M79.45,116h-1.4v-5.15c-0.5,0.47-1.08,0.8-1.75,1v-1.25
			c0.37-0.1,0.75-0.32,1.15-0.65c0.43-0.33,0.72-0.72,0.85-1.15h1.15V116z M84.25,110.1c-0.13-0.1-0.28-0.15-0.45-0.15
			c-0.17,0-0.32,0.05-0.45,0.15c-0.13,0.1-0.23,0.3-0.3,0.6c-0.1,0.33-0.15,0.92-0.15,1.75c0,0.87,0.05,1.45,0.15,1.75
			c0.07,0.3,0.17,0.52,0.3,0.65c0.13,0.1,0.28,0.15,0.45,0.15c0.17,0,0.32-0.05,0.45-0.15c0.13-0.13,0.23-0.33,0.3-0.6
			c0.1-0.33,0.15-0.93,0.15-1.8c0-0.83-0.05-1.4-0.15-1.7C84.48,110.42,84.38,110.2,84.25,110.1z M85.4,109.55
			c0.47,0.6,0.7,1.57,0.7,2.9c0,1.37-0.23,2.35-0.7,2.95c-0.37,0.47-0.9,0.7-1.6,0.7s-1.27-0.27-1.7-0.8
			c-0.43-0.53-0.65-1.48-0.65-2.85c0-1.33,0.23-2.3,0.7-2.9c0.4-0.5,0.95-0.75,1.65-0.75S85.03,109.05,85.4,109.55z M88.9,110.1
			c-0.13,0.1-0.23,0.3-0.3,0.6c-0.1,0.33-0.15,0.92-0.15,1.75c0,0.87,0.05,1.45,0.15,1.75c0.07,0.3,0.17,0.52,0.3,0.65
			c0.13,0.1,0.28,0.15,0.45,0.15c0.17,0,0.32-0.05,0.45-0.15c0.13-0.13,0.23-0.33,0.3-0.6c0.1-0.33,0.15-0.93,0.15-1.8
			c0-0.83-0.05-1.4-0.15-1.7c-0.07-0.33-0.17-0.55-0.3-0.65c-0.13-0.1-0.28-0.15-0.45-0.15C89.18,109.95,89.03,110,88.9,110.1z
			 M90.95,109.55c0.47,0.6,0.7,1.57,0.7,2.9c0,1.37-0.23,2.35-0.7,2.95c-0.37,0.47-0.9,0.7-1.6,0.7c-0.7,0-1.27-0.27-1.7-0.8
			c-0.43-0.53-0.65-1.48-0.65-2.85c0-1.33,0.23-2.3,0.7-2.9c0.4-0.5,0.95-0.75,1.65-0.75C90.05,108.8,90.58,109.05,90.95,109.55z"/>
	</g>
	<g>
		<path fill-rule="evenodd" clip-rule="evenodd" d="M90.95,89.05c0.47,0.6,0.7,1.57,0.7,2.9c0,1.37-0.23,2.35-0.7,2.95
			c-0.37,0.47-0.9,0.7-1.6,0.7c-0.7,0-1.27-0.27-1.7-0.8C87.22,94.27,87,93.32,87,91.95c0-1.33,0.23-2.3,0.7-2.9
			c0.4-0.5,0.95-0.75,1.65-0.75C90.05,88.3,90.58,88.55,90.95,89.05z M88.9,89.6c-0.13,0.1-0.23,0.3-0.3,0.6
			c-0.1,0.33-0.15,0.92-0.15,1.75c0,0.87,0.05,1.45,0.15,1.75c0.07,0.3,0.17,0.52,0.3,0.65c0.13,0.1,0.28,0.15,0.45,0.15
			c0.17,0,0.32-0.05,0.45-0.15c0.13-0.13,0.23-0.33,0.3-0.6c0.1-0.33,0.15-0.93,0.15-1.8c0-0.83-0.05-1.4-0.15-1.7
			c-0.07-0.33-0.17-0.55-0.3-0.65c-0.13-0.1-0.28-0.15-0.45-0.15C89.18,89.45,89.03,89.5,88.9,89.6z M83.8,89.45
			c-0.17,0-0.32,0.05-0.45,0.15c-0.13,0.1-0.23,0.3-0.3,0.6c-0.1,0.33-0.15,0.92-0.15,1.75c0,0.87,0.05,1.45,0.15,1.75
			c0.07,0.3,0.17,0.52,0.3,0.65c0.13,0.1,0.28,0.15,0.45,0.15c0.17,0,0.32-0.05,0.45-0.15c0.13-0.13,0.23-0.33,0.3-0.6
			c0.1-0.33,0.15-0.93,0.15-1.8c0-0.83-0.05-1.4-0.15-1.7c-0.07-0.33-0.17-0.55-0.3-0.65C84.12,89.5,83.97,89.45,83.8,89.45z
			 M85.4,89.05c0.47,0.6,0.7,1.57,0.7,2.9c0,1.37-0.23,2.35-0.7,2.95c-0.37,0.47-0.9,0.7-1.6,0.7s-1.27-0.27-1.7-0.8
			c-0.43-0.53-0.65-1.48-0.65-2.85c0-1.33,0.23-2.3,0.7-2.9c0.4-0.5,0.95-0.75,1.65-0.75S85.03,88.55,85.4,89.05z M77.55,89.7
			c-0.17,0.17-0.25,0.45-0.25,0.85l-1.4-0.1c0.1-0.77,0.37-1.32,0.8-1.65c0.4-0.33,0.93-0.5,1.6-0.5c0.7,0,1.25,0.2,1.65,0.6
			c0.4,0.37,0.6,0.83,0.6,1.4c0,0.33-0.05,0.65-0.15,0.95c-0.13,0.27-0.32,0.57-0.55,0.9c-0.17,0.2-0.47,0.5-0.9,0.9
			c-0.43,0.4-0.72,0.67-0.85,0.8c-0.1,0.13-0.18,0.27-0.25,0.4h2.7v1.25h-4.8c0.07-0.47,0.22-0.92,0.45-1.35
			c0.27-0.43,0.78-1.02,1.55-1.75c0.63-0.57,1.02-0.95,1.15-1.15c0.2-0.3,0.3-0.58,0.3-0.85c0-0.3-0.08-0.53-0.25-0.7
			c-0.17-0.17-0.4-0.25-0.7-0.25S77.72,89.53,77.55,89.7z"/>
	</g>
	<g>
		<path fill-rule="evenodd" clip-rule="evenodd" d="M89.35,67.05c0.7,0,1.23,0.25,1.6,0.75c0.47,0.6,0.7,1.57,0.7,2.9
			c0,1.37-0.23,2.35-0.7,2.95c-0.37,0.47-0.9,0.7-1.6,0.7c-0.7,0-1.27-0.27-1.7-0.8C87.22,73.02,87,72.07,87,70.7
			c0-1.33,0.23-2.3,0.7-2.9C88.1,67.3,88.65,67.05,89.35,67.05z M83.8,67.05c0.7,0,1.23,0.25,1.6,0.75c0.47,0.6,0.7,1.57,0.7,2.9
			c0,1.37-0.23,2.35-0.7,2.95c-0.37,0.47-0.9,0.7-1.6,0.7s-1.27-0.27-1.7-0.8c-0.43-0.53-0.65-1.48-0.65-2.85
			c0-1.33,0.23-2.3,0.7-2.9C82.55,67.3,83.1,67.05,83.8,67.05z M84.55,69c-0.07-0.33-0.17-0.55-0.3-0.65
			c-0.13-0.1-0.28-0.15-0.45-0.15c-0.17,0-0.32,0.05-0.45,0.15c-0.13,0.1-0.23,0.3-0.3,0.6c-0.1,0.33-0.15,0.92-0.15,1.75
			c0,0.87,0.05,1.45,0.15,1.75c0.07,0.3,0.17,0.52,0.3,0.65c0.13,0.1,0.28,0.15,0.45,0.15c0.17,0,0.32-0.05,0.45-0.15
			c0.13-0.13,0.23-0.33,0.3-0.6c0.1-0.33,0.15-0.93,0.15-1.8C84.7,69.87,84.65,69.3,84.55,69z M88.9,68.35
			c-0.13,0.1-0.23,0.3-0.3,0.6c-0.1,0.33-0.15,0.92-0.15,1.75c0,0.87,0.05,1.45,0.15,1.75c0.07,0.3,0.17,0.52,0.3,0.65
			c0.13,0.1,0.28,0.15,0.45,0.15c0.17,0,0.32-0.05,0.45-0.15c0.13-0.13,0.23-0.33,0.3-0.6c0.1-0.33,0.15-0.93,0.15-1.8
			c0-0.83-0.05-1.4-0.15-1.7c-0.07-0.33-0.17-0.55-0.3-0.65c-0.13-0.1-0.28-0.15-0.45-0.15C89.18,68.2,89.03,68.25,88.9,68.35z
			 M78.2,67.05c0.67,0,1.2,0.22,1.6,0.65c0.33,0.37,0.5,0.77,0.5,1.2c0,0.63-0.33,1.13-1,1.5c0.4,0.1,0.72,0.3,0.95,0.6
			c0.27,0.3,0.4,0.67,0.4,1.1c0,0.63-0.23,1.17-0.7,1.6s-1.03,0.65-1.7,0.65s-1.22-0.18-1.65-0.55c-0.4-0.37-0.63-0.85-0.7-1.45
			l1.3-0.15c0.03,0.33,0.15,0.58,0.35,0.75c0.17,0.2,0.38,0.3,0.65,0.3c0.3,0,0.55-0.12,0.75-0.35c0.2-0.2,0.3-0.48,0.3-0.85
			c0-0.33-0.1-0.62-0.3-0.85c-0.2-0.2-0.43-0.3-0.7-0.3c-0.17,0-0.37,0.03-0.6,0.1l0.15-1.1c0.37,0,0.65-0.08,0.85-0.25
			c0.2-0.17,0.3-0.38,0.3-0.65s-0.08-0.47-0.25-0.6c-0.13-0.13-0.32-0.2-0.55-0.2s-0.43,0.08-0.6,0.25c-0.17,0.17-0.27,0.4-0.3,0.7
			L76,68.95c0.07-0.43,0.2-0.78,0.4-1.05c0.17-0.27,0.4-0.47,0.7-0.6C77.43,67.13,77.8,67.05,78.2,67.05z"/>
	</g>
	<g>
		<path fill-rule="evenodd" clip-rule="evenodd" d="M83.8,45.95c-0.17,0-0.32,0.05-0.45,0.15c-0.13,0.1-0.23,0.3-0.3,0.6
			c-0.1,0.33-0.15,0.92-0.15,1.75c0,0.87,0.05,1.45,0.15,1.75c0.07,0.3,0.17,0.52,0.3,0.65c0.13,0.1,0.28,0.15,0.45,0.15
			c0.17,0,0.32-0.05,0.45-0.15c0.13-0.13,0.23-0.33,0.3-0.6c0.1-0.33,0.15-0.93,0.15-1.8c0-0.83-0.05-1.4-0.15-1.7
			c-0.07-0.33-0.17-0.55-0.3-0.65S83.97,45.95,83.8,45.95z M85.4,45.55c0.47,0.6,0.7,1.57,0.7,2.9c0,1.37-0.23,2.35-0.7,2.95
			c-0.37,0.47-0.9,0.7-1.6,0.7s-1.27-0.27-1.7-0.8c-0.43-0.53-0.65-1.48-0.65-2.85c0-1.33,0.23-2.3,0.7-2.9
			c0.4-0.5,0.95-0.75,1.65-0.75S85.03,45.05,85.4,45.55z M89.35,45.95c-0.17,0-0.32,0.05-0.45,0.15c-0.13,0.1-0.23,0.3-0.3,0.6
			c-0.1,0.33-0.15,0.92-0.15,1.75c0,0.87,0.05,1.45,0.15,1.75c0.07,0.3,0.17,0.52,0.3,0.65c0.13,0.1,0.28,0.15,0.45,0.15
			c0.17,0,0.32-0.05,0.45-0.15c0.13-0.13,0.23-0.33,0.3-0.6c0.1-0.33,0.15-0.93,0.15-1.8c0-0.83-0.05-1.4-0.15-1.7
			c-0.07-0.33-0.17-0.55-0.3-0.65C89.67,46,89.52,45.95,89.35,45.95z M90.95,45.55c0.47,0.6,0.7,1.57,0.7,2.9
			c0,1.37-0.23,2.35-0.7,2.95c-0.37,0.47-0.9,0.7-1.6,0.7c-0.7,0-1.27-0.27-1.7-0.8C87.22,50.77,87,49.82,87,48.45
			c0-1.33,0.23-2.3,0.7-2.9c0.4-0.5,0.95-0.75,1.65-0.75C90.05,44.8,90.58,45.05,90.95,45.55z M78.8,44.8h1.15v4.55h0.9v1.2h-0.9V52
			H78.6v-1.45h-2.9v-1.2L78.8,44.8z M76.95,49.35h1.65V46.9L76.95,49.35z"/>
	</g>
	<g>
		<path fill-rule="evenodd" clip-rule="evenodd" d="M88.6,26.7c-0.1,0.33-0.15,0.92-0.15,1.75c0,0.87,0.05,1.45,0.15,1.75
			c0.07,0.3,0.17,0.52,0.3,0.65c0.13,0.1,0.28,0.15,0.45,0.15c0.17,0,0.32-0.05,0.45-0.15c0.13-0.13,0.23-0.33,0.3-0.6
			c0.1-0.33,0.15-0.93,0.15-1.8c0-0.83-0.05-1.4-0.15-1.7c-0.07-0.33-0.17-0.55-0.3-0.65c-0.13-0.1-0.28-0.15-0.45-0.15
			c-0.17,0-0.32,0.05-0.45,0.15C88.77,26.2,88.67,26.4,88.6,26.7z M90.95,25.55c0.47,0.6,0.7,1.57,0.7,2.9
			c0,1.37-0.23,2.35-0.7,2.95c-0.37,0.47-0.9,0.7-1.6,0.7c-0.7,0-1.27-0.27-1.7-0.8C87.22,30.77,87,29.82,87,28.45
			c0-1.33,0.23-2.3,0.7-2.9c0.4-0.5,0.95-0.75,1.65-0.75C90.05,24.8,90.58,25.05,90.95,25.55z M83.8,25.95
			c-0.17,0-0.32,0.05-0.45,0.15c-0.13,0.1-0.23,0.3-0.3,0.6c-0.1,0.33-0.15,0.92-0.15,1.75c0,0.87,0.05,1.45,0.15,1.75
			c0.07,0.3,0.17,0.52,0.3,0.65c0.13,0.1,0.28,0.15,0.45,0.15c0.17,0,0.32-0.05,0.45-0.15c0.13-0.13,0.23-0.33,0.3-0.6
			c0.1-0.33,0.15-0.93,0.15-1.8c0-0.83-0.05-1.4-0.15-1.7c-0.07-0.33-0.17-0.55-0.3-0.65S83.97,25.95,83.8,25.95z M85.4,25.55
			c0.47,0.6,0.7,1.57,0.7,2.9c0,1.37-0.23,2.35-0.7,2.95c-0.37,0.47-0.9,0.7-1.6,0.7s-1.27-0.27-1.7-0.8
			c-0.43-0.53-0.65-1.48-0.65-2.85c0-1.33,0.23-2.3,0.7-2.9c0.4-0.5,0.95-0.75,1.65-0.75S85.03,25.05,85.4,25.55z M80.45,26.2h-2.6
			l-0.2,1.25c0.3-0.17,0.62-0.25,0.95-0.25c0.6,0,1.1,0.22,1.5,0.65c0.43,0.47,0.65,1.05,0.65,1.75c0,0.6-0.17,1.12-0.5,1.55
			c-0.47,0.63-1.12,0.95-1.95,0.95c-0.67,0-1.2-0.17-1.6-0.5c-0.43-0.37-0.68-0.85-0.75-1.45L77.3,30c0.03,0.33,0.15,0.58,0.35,0.75
			c0.2,0.17,0.42,0.25,0.65,0.25c0.3,0,0.55-0.1,0.75-0.3c0.2-0.23,0.3-0.6,0.3-1.1c0-0.43-0.1-0.75-0.3-0.95
			c-0.2-0.23-0.45-0.35-0.75-0.35c-0.4,0-0.77,0.18-1.1,0.55l-1.1-0.2l0.7-3.7h3.65V26.2z"/>
	</g>
</g>
</svg>
