<?xml version="1.0" encoding="utf-8"?>
<!-- Generator: Adobe Illustrator 16.0.0, SVG Export Plug-In . SVG Version: 6.00 Build 0)  -->
<!DOCTYPE svg PUBLIC "-//W3C//DTD SVG 1.1//EN" "http://www.w3.org/Graphics/SVG/1.1/DTD/svg11.dtd">
<svg version="1.1" id="Layer_1" xmlns="http://www.w3.org/2000/svg" xmlns:xlink="http://www.w3.org/1999/xlink" x="0px" y="0px"
	 width="700px" height="700px" viewBox="0 0 700 700" enable-background="new 0 0 700 700" xml:space="preserve">
<g id="Layer_6">
	<g>
		<g>
			<g>
				<path fill="#481D0D" d="M271.7,521.55v17.05c-3.93,8.5-21.82,10.62-53.65,6.35l-67.3-12.85c-15.93-3.07-30.48-1.58-43.65,4.45
					c-5.57,2.53-12.07,5.6-19.5,9.2c-10.17,4.93-22.07,10.8-35.7,17.6c-4.27,2.07-8.3,3.8-12.1,5.2
					c-17.03,6.93-33.85,7.12-50.45,0.55c-6.47-2.7-10.78-6.4-12.95-11.1v-19.95c-0.03-0.1-0.03-0.2,0-0.3c0-1.73,0.87-3.62,2.6-5.65
					c0.57-0.67,1.23-1.37,2-2.1c24.37-21.83,64.98-35.67,121.85-41.5l40.7-0.8v-0.25c11.13,0.37,22.05,1.2,32.75,2.5
					c12.7,1.47,25.08,3.57,37.15,6.3c14.63,3.23,28.85,7.43,42.65,12.6c0.97,0.4,1.93,0.77,2.9,1.1c1.03,0.4,3.05,1.32,6.05,2.75
					c3.07,1.93,5.08,4.03,6.05,6.3c0.33,0.73,0.53,1.43,0.6,2.1C271.7,521.23,271.7,521.38,271.7,521.55z"/>
				<path fill="#481D0D" d="M271.7,521.55v17.05c-3.93,8.5-21.82,10.62-53.65,6.35l-67.3-12.85c-15.93-3.07-30.48-1.58-43.65,4.45
					c-5.57,2.53-12.07,5.6-19.5,9.2c-10.17,4.93-22.07,10.8-35.7,17.6c-4.27,2.07-8.3,3.8-12.1,5.2
					c-17.03,6.93-33.85,7.12-50.45,0.55c-6.47-2.7-10.78-6.4-12.95-11.1v-19.95c-0.03-0.1-0.03-0.2,0-0.3c0-1.73,0.87-3.62,2.6-5.65
					c0.57-0.67,1.23-1.37,2-2.1c24.37-21.83,64.98-35.67,121.85-41.5l40.7-0.8v-0.25c11.13,0.37,22.05,1.2,32.75,2.5
					c12.7,1.47,25.08,3.57,37.15,6.3c14.63,3.23,28.85,7.43,42.65,12.6c0.97,0.4,1.93,0.77,2.9,1.1c1.03,0.4,3.05,1.32,6.05,2.75
					c3.07,1.93,5.08,4.03,6.05,6.3c0.33,0.73,0.53,1.43,0.6,2.1C271.7,521.23,271.7,521.38,271.7,521.55z"/>
			</g>
			<g>
				
					<radialGradient id="SVGID_1_" cx="280.0298" cy="-747.1912" r="121.2783" gradientTransform="matrix(0.9833 0.182 0.0285 -0.1539 -47.473 331.0641)" gradientUnits="userSpaceOnUse">
					<stop  offset="0" style="stop-color:#AAACB3"/>
					<stop  offset="0.4431" style="stop-color:#ADAFB6"/>
					<stop  offset="0.5686" style="stop-color:#B7B7C1"/>
					<stop  offset="0.9412" style="stop-color:#B7B7C1"/>
					<stop  offset="1" style="stop-color:#BBBCC4"/>
				</radialGradient>
				<path fill="url(#SVGID_1_)" d="M144.95,491.3v-5.8l2.35-0.35l-2.35,0.1V485c11.13,0.47,22.03,1.37,32.7,2.7
					c12.73,1.6,25.12,3.82,37.15,6.65c14.63,3.43,28.85,7.78,42.65,13.05c0.97,0.4,1.93,0.77,2.9,1.1c-4.7,4.9-21.37,4.53-50-1.1
					c-9.6-1.87-20.5-4.33-32.7-7.4c-9.53-2.4-19.9-5.13-31.1-8.2C146.05,491.63,145.52,491.47,144.95,491.3z"/>
				
					<radialGradient id="SVGID_2_" cx="280.0298" cy="-747.1912" r="121.2783" gradientTransform="matrix(0.9833 0.182 0.0285 -0.1539 -47.473 331.0641)" gradientUnits="userSpaceOnUse">
					<stop  offset="0" style="stop-color:#AAACB3"/>
					<stop  offset="0.4431" style="stop-color:#ADAFB6"/>
					<stop  offset="0.5686" style="stop-color:#B7B7C1"/>
					<stop  offset="0.9412" style="stop-color:#B7B7C1"/>
					<stop  offset="1" style="stop-color:#BBBCC4"/>
				</radialGradient>
				<path fill="url(#SVGID_2_)" d="M144.95,491.3v-5.8l2.35-0.35l-2.35,0.1V485c11.13,0.47,22.03,1.37,32.7,2.7
					c12.73,1.6,25.12,3.82,37.15,6.65c14.63,3.43,28.85,7.78,42.65,13.05c0.97,0.4,1.93,0.77,2.9,1.1c-4.7,4.9-21.37,4.53-50-1.1
					c-9.6-1.87-20.5-4.33-32.7-7.4c-9.53-2.4-19.9-5.13-31.1-8.2C146.05,491.63,145.52,491.47,144.95,491.3z"/>
				<path fill="#B7B7C1" d="M92.95,529.45c6.3-7.6,10.08-20.23,11.35-37.9h0.1c0.73,0.7,2.83,1.75,6.3,3.15
					c1.7,0.7,3.72,1.23,6.05,1.6c2.27,0.4,4.78,0.7,7.55,0.9c5.63,0.27,10.02-0.37,13.15-1.9c3.07-1.6,5.1-2.62,6.1-3.05
					c0.47-0.23,0.85-0.47,1.15-0.7c0.1-0.1,0.18-0.18,0.25-0.25c0.57,0.17,1.1,0.33,1.6,0.5c11.2,3.07,21.57,5.8,31.1,8.2
					c12.2,3.07,23.1,5.53,32.7,7.4c28.63,5.63,45.3,6,50,1.1c1.03,0.4,3.05,1.33,6.05,2.8c3.07,1.93,5.08,4.07,6.05,6.4
					c0.37,0.73,0.57,1.45,0.6,2.15c0,0.1,0,0.23,0,0.4c-0.03,1.1-0.48,2.1-1.35,3c-2.03,1.37-5.73,2.85-11.1,4.45
					c-11.87,3.4-34.15,3.1-66.85-0.9c-5.17-0.77-10.53-1.62-16.1-2.55c-6.53-1.17-13.38-2.47-20.55-3.9c-1.8-0.33-3.62-0.7-5.45-1.1
					c-15.73-3-31.68-1.15-47.85,5.55L92.95,529.45z"/>
				<path fill="#B7B7C1" d="M92.95,529.45c6.3-7.6,10.08-20.23,11.35-37.9h0.1c0.73,0.7,2.83,1.75,6.3,3.15
					c1.7,0.7,3.72,1.23,6.05,1.6c2.27,0.4,4.78,0.7,7.55,0.9c5.63,0.27,10.02-0.37,13.15-1.9c3.07-1.6,5.1-2.62,6.1-3.05
					c0.47-0.23,0.85-0.47,1.15-0.7c0.1-0.1,0.18-0.18,0.25-0.25c0.57,0.17,1.1,0.33,1.6,0.5c11.2,3.07,21.57,5.8,31.1,8.2
					c12.2,3.07,23.1,5.53,32.7,7.4c28.63,5.63,45.3,6,50,1.1c1.03,0.4,3.05,1.33,6.05,2.8c3.07,1.93,5.08,4.07,6.05,6.4
					c0.37,0.73,0.57,1.45,0.6,2.15c0,0.1,0,0.23,0,0.4c-0.03,1.1-0.48,2.1-1.35,3c-2.03,1.37-5.73,2.85-11.1,4.45
					c-11.87,3.4-34.15,3.1-66.85-0.9c-5.17-0.77-10.53-1.62-16.1-2.55c-6.53-1.17-13.38-2.47-20.55-3.9c-1.8-0.33-3.62-0.7-5.45-1.1
					c-15.73-3-31.68-1.15-47.85,5.55L92.95,529.45z"/>
				
					<linearGradient id="SVGID_3_" gradientUnits="userSpaceOnUse" x1="24.1504" y1="80.8801" x2="319.4004" y2="80.8801" gradientTransform="matrix(1 0 0 -1 -46.3506 624.9233)">
					<stop  offset="0" style="stop-color:#5A4C43"/>
					<stop  offset="0.1451" style="stop-color:#8D8D8F"/>
					<stop  offset="0.302" style="stop-color:#A8A9B1"/>
					<stop  offset="0.5412" style="stop-color:#A9AAB4"/>
					<stop  offset="0.6" style="stop-color:#A7A8AA"/>
					<stop  offset="0.7373" style="stop-color:#9F9DA0"/>
					<stop  offset="1" style="stop-color:#8F8B8A"/>
				</linearGradient>
				<path fill="url(#SVGID_3_)" d="M-22.2,534.05c0.73,3.53,4.02,7.12,9.85,10.75c5.8,3.57,14.98,5.98,27.55,7.25
					c12.53,1.2,23.97-0.13,34.3-4l43.45-18.6l10.85-4.65c16.17-6.7,32.12-8.55,47.85-5.55c1.83,0.4,3.65,0.77,5.45,1.1
					c7.17,1.43,14.02,2.73,20.55,3.9c5.57,0.93,10.93,1.78,16.1,2.55c32.7,4,54.98,4.3,66.85,0.9c5.37-1.6,9.07-3.08,11.1-4.45
					c0.87-0.9,1.32-1.9,1.35-3v17.05c-3.9,8.47-21.78,10.43-53.65,5.9l-67.3-13.5c-15.9-3.23-30.45-1.9-43.65,4
					c-5.57,2.5-12.07,5.52-19.5,9.05c-10.17,4.83-22.07,10.6-35.7,17.3c-4.23,2-8.27,3.7-12.1,5.1c-17.03,6.77-33.83,6.77-50.4,0
					c-6.5-2.73-10.82-6.45-12.95-11.15V534.05L-22.2,534.05z"/>
				
					<linearGradient id="SVGID_4_" gradientUnits="userSpaceOnUse" x1="24.1504" y1="80.8801" x2="319.4004" y2="80.8801" gradientTransform="matrix(1 0 0 -1 -46.3506 624.9233)">
					<stop  offset="0" style="stop-color:#5A4C43"/>
					<stop  offset="0.1451" style="stop-color:#8D8D8F"/>
					<stop  offset="0.302" style="stop-color:#A8A9B1"/>
					<stop  offset="0.5412" style="stop-color:#A9AAB4"/>
					<stop  offset="0.6" style="stop-color:#A7A8AA"/>
					<stop  offset="0.7373" style="stop-color:#9F9DA0"/>
					<stop  offset="1" style="stop-color:#8F8B8A"/>
				</linearGradient>
				<path fill="url(#SVGID_4_)" d="M-22.2,534.05c0.73,3.53,4.02,7.12,9.85,10.75c5.8,3.57,14.98,5.98,27.55,7.25
					c12.53,1.2,23.97-0.13,34.3-4l43.45-18.6l10.85-4.65c16.17-6.7,32.12-8.55,47.85-5.55c1.83,0.4,3.65,0.77,5.45,1.1
					c7.17,1.43,14.02,2.73,20.55,3.9c5.57,0.93,10.93,1.78,16.1,2.55c32.7,4,54.98,4.3,66.85,0.9c5.37-1.6,9.07-3.08,11.1-4.45
					c0.87-0.9,1.32-1.9,1.35-3v17.05c-3.9,8.47-21.78,10.43-53.65,5.9l-67.3-13.5c-15.9-3.23-30.45-1.9-43.65,4
					c-5.57,2.5-12.07,5.52-19.5,9.05c-10.17,4.83-22.07,10.6-35.7,17.3c-4.23,2-8.27,3.7-12.1,5.1c-17.03,6.77-33.83,6.77-50.4,0
					c-6.5-2.73-10.82-6.45-12.95-11.15V534.05L-22.2,534.05z"/>
				
					<radialGradient id="SVGID_5_" cx="304.5825" cy="214.7937" r="34.9058" gradientTransform="matrix(0.259 0.9659 4.2837 -1.1488 -970.5967 462.5146)" gradientUnits="userSpaceOnUse">
					<stop  offset="0" style="stop-color:#A3A3AC"/>
					<stop  offset="0.302" style="stop-color:#AAABB3"/>
					<stop  offset="0.4863" style="stop-color:#B7B7C1"/>
					<stop  offset="1" style="stop-color:#B7B7C1"/>
				</radialGradient>
				<path fill="url(#SVGID_5_)" d="M92.95,529.45l-43.45,18.6c-10.33,3.87-21.77,5.2-34.3,4c-12.57-1.27-21.75-3.68-27.55-7.25
					c-5.83-3.63-9.12-7.22-9.85-10.75c-0.07-0.1-0.07-0.22,0-0.35c0-1.7,0.85-3.57,2.55-5.6c0.57-0.67,1.25-1.38,2.05-2.15
					c24.37-21.57,64.97-35.02,121.8-40.35l40.75-0.35l2.35-0.1l-2.35,0.35v5.8c-0.07,0.07-0.15,0.15-0.25,0.25
					c-0.3,0.23-0.68,0.47-1.15,0.7c-1,0.43-3.03,1.45-6.1,3.05c-3.13,1.53-7.52,2.17-13.15,1.9c-2.77-0.2-5.28-0.5-7.55-0.9
					c-2.33-0.37-4.35-0.9-6.05-1.6c-3.47-1.4-5.57-2.45-6.3-3.15h-0.1C103.03,509.22,99.25,521.85,92.95,529.45z"/>
				
					<radialGradient id="SVGID_6_" cx="304.5825" cy="214.7937" r="34.9058" gradientTransform="matrix(0.259 0.9659 4.2837 -1.1488 -970.5967 462.5146)" gradientUnits="userSpaceOnUse">
					<stop  offset="0" style="stop-color:#A3A3AC"/>
					<stop  offset="0.302" style="stop-color:#AAABB3"/>
					<stop  offset="0.4863" style="stop-color:#B7B7C1"/>
					<stop  offset="1" style="stop-color:#B7B7C1"/>
				</radialGradient>
				<path fill="url(#SVGID_6_)" d="M92.95,529.45l-43.45,18.6c-10.33,3.87-21.77,5.2-34.3,4c-12.57-1.27-21.75-3.68-27.55-7.25
					c-5.83-3.63-9.12-7.22-9.85-10.75c-0.07-0.1-0.07-0.22,0-0.35c0-1.7,0.85-3.57,2.55-5.6c0.57-0.67,1.25-1.38,2.05-2.15
					c24.37-21.57,64.97-35.02,121.8-40.35l40.75-0.35l2.35-0.1l-2.35,0.35v5.8c-0.07,0.07-0.15,0.15-0.25,0.25
					c-0.3,0.23-0.68,0.47-1.15,0.7c-1,0.43-3.03,1.45-6.1,3.05c-3.13,1.53-7.52,2.17-13.15,1.9c-2.77-0.2-5.28-0.5-7.55-0.9
					c-2.33-0.37-4.35-0.9-6.05-1.6c-3.47-1.4-5.57-2.45-6.3-3.15h-0.1C103.03,509.22,99.25,521.85,92.95,529.45z"/>
				<g>
					
						<radialGradient id="SVGID_7_" cx="262.1504" cy="100.0745" r="71.7125" gradientTransform="matrix(1 0 0 -1 -46.3506 624.9233)" gradientUnits="userSpaceOnUse">
						<stop  offset="0" style="stop-color:#FFFFFF;stop-opacity:0.6314"/>
						<stop  offset="1" style="stop-color:#F3F3F3;stop-opacity:0"/>
					</radialGradient>
					<path fill="url(#SVGID_7_)" d="M177.55,524.35h-0.05c-6.53-1.2-13.38-2.5-20.55-3.9c-1.83-0.37-3.65-0.73-5.45-1.1
						c-1.67-0.37-3.32-0.63-4.95-0.8c-5.07-0.67-10.12-0.8-15.15-0.4c-8.7,0.67-17.45,2.77-26.25,6.3v-1.8
						c8.73-3.53,17.45-5.6,26.15-6.2c5.1-0.4,10.27-0.27,15.5,0.4c1.7,0.17,3.38,0.42,5.05,0.75c1.8,0.4,3.62,0.78,5.45,1.15
						c7.13,1.4,13.97,2.7,20.5,3.9c5.57,0.9,10.93,1.75,16.1,2.55c32.5,3.97,54.52,4.65,66.05,2.05c4.2-0.97,7.32-1.78,9.35-2.45
						c-2.13,0.9-4.93,1.88-8.4,2.95c-11.93,3.4-34.35,3.12-67.25-0.85C188.48,526.1,183.12,525.25,177.55,524.35z"/>
					
						<radialGradient id="SVGID_8_" cx="262.1504" cy="100.0745" r="71.7125" gradientTransform="matrix(1 0 0 -1 -46.3506 624.9233)" gradientUnits="userSpaceOnUse">
						<stop  offset="0" style="stop-color:#FFFFFF;stop-opacity:0.6314"/>
						<stop  offset="1" style="stop-color:#F3F3F3;stop-opacity:0"/>
					</radialGradient>
					<path fill="url(#SVGID_8_)" d="M177.55,524.35h-0.05c-6.53-1.2-13.38-2.5-20.55-3.9c-1.83-0.37-3.65-0.73-5.45-1.1
						c-1.67-0.37-3.32-0.63-4.95-0.8c-5.07-0.67-10.12-0.8-15.15-0.4c-8.7,0.67-17.45,2.77-26.25,6.3v-1.8
						c8.73-3.53,17.45-5.6,26.15-6.2c5.1-0.4,10.27-0.27,15.5,0.4c1.7,0.17,3.38,0.42,5.05,0.75c1.8,0.4,3.62,0.78,5.45,1.15
						c7.13,1.4,13.97,2.7,20.5,3.9c5.57,0.9,10.93,1.75,16.1,2.55c32.5,3.97,54.52,4.65,66.05,2.05c4.2-0.97,7.32-1.78,9.35-2.45
						c-2.13,0.9-4.93,1.88-8.4,2.95c-11.93,3.4-34.35,3.12-67.25-0.85C188.48,526.1,183.12,525.25,177.55,524.35z"/>
					
						<radialGradient id="SVGID_9_" cx="87.3506" cy="70.0066" r="65.8379" gradientTransform="matrix(1 0 0 -0.9339 -46.3506 610.6137)" gradientUnits="userSpaceOnUse">
						<stop  offset="0" style="stop-color:#FFFFFF;stop-opacity:0.498"/>
						<stop  offset="1" style="stop-color:#F3F3F3;stop-opacity:0"/>
					</radialGradient>
					<path fill="url(#SVGID_9_)" d="M49.85,547.95v0.1c-10.5,3.87-22.08,5.2-34.75,4c-12.73-1.27-22.02-3.72-27.85-7.35
						c-0.63-0.4-1.23-0.77-1.8-1.1c8.3,3.3,18.23,5.55,29.8,6.75c12.47,1.2,23.8-0.12,34-3.95H49.2l47.6-18.45L49.85,547.95z"/>
					
						<radialGradient id="SVGID_10_" cx="87.3506" cy="70.0066" r="65.8379" gradientTransform="matrix(1 0 0 -0.9339 -46.3506 610.6137)" gradientUnits="userSpaceOnUse">
						<stop  offset="0" style="stop-color:#FFFFFF;stop-opacity:0.498"/>
						<stop  offset="1" style="stop-color:#F3F3F3;stop-opacity:0"/>
					</radialGradient>
					<path fill="url(#SVGID_10_)" d="M49.85,547.95v0.1c-10.5,3.87-22.08,5.2-34.75,4c-12.73-1.27-22.02-3.72-27.85-7.35
						c-0.63-0.4-1.23-0.77-1.8-1.1c8.3,3.3,18.23,5.55,29.8,6.75c12.47,1.2,23.8-0.12,34-3.95H49.2l47.6-18.45L49.85,547.95z"/>
				</g>
			</g>
			<g>
				
					<path fill="none" stroke="#D2D3D7" stroke-width="0.2" stroke-linecap="round" stroke-linejoin="round" stroke-miterlimit="3" d="
					M27.55,529.1c3.87,1.83,5.8,4,5.8,6.5s-1.93,4.63-5.8,6.4c-3.8,1.8-8.43,2.7-13.9,2.7c-5.47,0-10.12-0.9-13.95-2.7
					c-3.83-1.77-5.75-3.9-5.75-6.4s1.92-4.67,5.75-6.5c3.83-1.73,8.48-2.6,13.95-2.6C19.12,526.5,23.75,527.37,27.55,529.1z"/>
				
					<path fill="none" stroke="#D2D3D7" stroke-width="0.2" stroke-linecap="round" stroke-linejoin="round" stroke-miterlimit="3" d="
					M27.55,529.1c3.87,1.83,5.8,4,5.8,6.5s-1.93,4.63-5.8,6.4c-3.8,1.8-8.43,2.7-13.9,2.7c-5.47,0-10.12-0.9-13.95-2.7
					c-3.83-1.77-5.75-3.9-5.75-6.4s1.92-4.67,5.75-6.5c3.83-1.73,8.48-2.6,13.95-2.6C19.12,526.5,23.75,527.37,27.55,529.1z"/>
			</g>
			<g>
				
					<path fill="none" stroke="#A9AAB1" stroke-width="0.2" stroke-linecap="round" stroke-linejoin="round" stroke-miterlimit="3" d="
					M27.55,529.45c3.87,1.77,5.8,3.87,5.8,6.3c0,2.4-1.93,4.45-5.8,6.15c-3.8,1.77-8.43,2.65-13.9,2.65
					c-5.47,0-10.12-0.88-13.95-2.65c-3.83-1.7-5.75-3.75-5.75-6.15c0-2.43,1.92-4.53,5.75-6.3c3.83-1.7,8.48-2.55,13.95-2.55
					C19.12,526.9,23.75,527.75,27.55,529.45z"/>
				
					<path fill="none" stroke="#A9AAB1" stroke-width="0.2" stroke-linecap="round" stroke-linejoin="round" stroke-miterlimit="3" d="
					M27.55,529.45c3.87,1.77,5.8,3.87,5.8,6.3c0,2.4-1.93,4.45-5.8,6.15c-3.8,1.77-8.43,2.65-13.9,2.65
					c-5.47,0-10.12-0.88-13.95-2.65c-3.83-1.7-5.75-3.75-5.75-6.15c0-2.43,1.92-4.53,5.75-6.3c3.83-1.7,8.48-2.55,13.95-2.55
					C19.12,526.9,23.75,527.75,27.55,529.45z"/>
			</g>
			<g>
				
					<path fill="none" stroke="#D2D3D7" stroke-width="0.2" stroke-linecap="round" stroke-linejoin="round" stroke-miterlimit="3" d="
					M231.85,512.15c0.33-1.87,2.08-3.17,5.25-3.9c3.2-0.8,6.9-0.8,11.1,0c4.2,0.8,7.67,2.13,10.4,4c2.67,1.87,3.82,3.75,3.45,5.65
					c-0.33,1.8-2.12,3.07-5.35,3.8c-3.17,0.8-6.85,0.8-11.05,0c-4.23-0.8-7.7-2.13-10.4-4
					C232.62,515.83,231.48,513.98,231.85,512.15z"/>
				
					<path fill="none" stroke="#D2D3D7" stroke-width="0.2" stroke-linecap="round" stroke-linejoin="round" stroke-miterlimit="3" d="
					M231.85,512.15c0.33-1.87,2.08-3.17,5.25-3.9c3.2-0.8,6.9-0.8,11.1,0c4.2,0.8,7.67,2.13,10.4,4c2.67,1.87,3.82,3.75,3.45,5.65
					c-0.33,1.8-2.12,3.07-5.35,3.8c-3.17,0.8-6.85,0.8-11.05,0c-4.23-0.8-7.7-2.13-10.4-4
					C232.62,515.83,231.48,513.98,231.85,512.15z"/>
			</g>
			<g>
				
					<path fill="none" stroke="#A9AAB1" stroke-width="0.2" stroke-linecap="round" stroke-linejoin="round" stroke-miterlimit="3" d="
					M232,512.35c0.33-1.83,2.07-3.12,5.2-3.85c3.17-0.73,6.85-0.7,11.05,0.1s7.67,2.1,10.4,3.9c2.73,1.87,3.93,3.72,3.6,5.55
					c-0.33,1.77-2.13,2.98-5.4,3.65c-3.17,0.73-6.85,0.72-11.05-0.05c-4.2-0.8-7.67-2.12-10.4-3.95
					C232.8,515.9,231.67,514.12,232,512.35z"/>
				
					<path fill="none" stroke="#A9AAB1" stroke-width="0.2" stroke-linecap="round" stroke-linejoin="round" stroke-miterlimit="3" d="
					M232,512.35c0.33-1.83,2.07-3.12,5.2-3.85c3.17-0.73,6.85-0.7,11.05,0.1s7.67,2.1,10.4,3.9c2.73,1.87,3.93,3.72,3.6,5.55
					c-0.33,1.77-2.13,2.98-5.4,3.65c-3.17,0.73-6.85,0.72-11.05-0.05c-4.2-0.8-7.67-2.12-10.4-3.95
					C232.8,515.9,231.67,514.12,232,512.35z"/>
			</g>
			<g>
				
					<path fill="none" stroke="#D2D3D7" stroke-width="0.2" stroke-linecap="round" stroke-linejoin="round" stroke-miterlimit="3" d="
					M237.3,513.35c0.27-1.23,1.52-2.13,3.75-2.7c2.13-0.47,4.63-0.45,7.5,0.05c2.87,0.57,5.22,1.45,7.05,2.65
					c1.8,1.37,2.57,2.68,2.3,3.95c-0.23,1.23-1.43,2.08-3.6,2.55c-2.13,0.57-4.65,0.57-7.55,0c-2.83-0.53-5.17-1.45-7-2.75
					C237.88,515.87,237.07,514.62,237.3,513.35z"/>
				
					<path fill="none" stroke="#D2D3D7" stroke-width="0.2" stroke-linecap="round" stroke-linejoin="round" stroke-miterlimit="3" d="
					M237.3,513.35c0.27-1.23,1.52-2.13,3.75-2.7c2.13-0.47,4.63-0.45,7.5,0.05c2.87,0.57,5.22,1.45,7.05,2.65
					c1.8,1.37,2.57,2.68,2.3,3.95c-0.23,1.23-1.43,2.08-3.6,2.55c-2.13,0.57-4.65,0.57-7.55,0c-2.83-0.53-5.17-1.45-7-2.75
					C237.88,515.87,237.07,514.62,237.3,513.35z"/>
			</g>
			<g>
				
					<path fill="none" stroke="#A9AAB1" stroke-width="0.2" stroke-linecap="round" stroke-linejoin="round" stroke-miterlimit="3" d="
					M237.1,513.55c0.23-1.27,1.45-2.12,3.65-2.55c2.17-0.47,4.67-0.45,7.5,0.05c2.9,0.57,5.27,1.45,7.1,2.65
					c1.8,1.27,2.6,2.52,2.4,3.75c-0.23,1.2-1.43,2.02-3.6,2.45c-2.17,0.6-4.7,0.6-7.6,0c-2.83-0.5-5.15-1.4-6.95-2.7
					C237.7,515.93,236.87,514.72,237.1,513.55z"/>
				
					<path fill="none" stroke="#A9AAB1" stroke-width="0.2" stroke-linecap="round" stroke-linejoin="round" stroke-miterlimit="3" d="
					M237.1,513.55c0.23-1.27,1.45-2.12,3.65-2.55c2.17-0.47,4.67-0.45,7.5,0.05c2.9,0.57,5.27,1.45,7.1,2.65
					c1.8,1.27,2.6,2.52,2.4,3.75c-0.23,1.2-1.43,2.02-3.6,2.45c-2.17,0.6-4.7,0.6-7.6,0c-2.83-0.5-5.15-1.4-6.95-2.7
					C237.7,515.93,236.87,514.72,237.1,513.55z"/>
			</g>
			<g>
				
					<path fill="none" stroke="#D2D3D7" stroke-width="0.2" stroke-linecap="round" stroke-linejoin="round" stroke-miterlimit="3" d="
					M3.15,534.4c-0.1,1.27,0.85,2.4,2.85,3.4c1.93,1.13,4.33,1.82,7.2,2.05c2.9,0.23,5.4-0.08,7.5-0.95
					c2.1-0.73,3.22-1.72,3.35-2.95c0.07-1.3-0.9-2.5-2.9-3.6c-1.93-1-4.35-1.62-7.25-1.85c-2.9-0.23-5.4,0.02-7.5,0.75
					C4.3,532.05,3.22,533.1,3.15,534.4z"/>
				
					<path fill="none" stroke="#D2D3D7" stroke-width="0.2" stroke-linecap="round" stroke-linejoin="round" stroke-miterlimit="3" d="
					M3.15,534.4c-0.1,1.27,0.85,2.4,2.85,3.4c1.93,1.13,4.33,1.82,7.2,2.05c2.9,0.23,5.4-0.08,7.5-0.95
					c2.1-0.73,3.22-1.72,3.35-2.95c0.07-1.3-0.9-2.5-2.9-3.6c-1.93-1-4.35-1.62-7.25-1.85c-2.9-0.23-5.4,0.02-7.5,0.75
					C4.3,532.05,3.22,533.1,3.15,534.4z"/>
			</g>
			<g>
				
					<path fill="none" stroke="#A9AAB1" stroke-width="0.2" stroke-linecap="round" stroke-linejoin="round" stroke-miterlimit="3" d="
					M3.15,534.65c-0.03,1.2,0.93,2.32,2.9,3.35c1.93,1.07,4.38,1.72,7.35,1.95c2.83,0.23,5.3-0.05,7.4-0.85
					c2.17-0.7,3.28-1.67,3.35-2.9c0.1-1.27-0.85-2.43-2.85-3.5c-1.97-0.9-4.37-1.5-7.2-1.8c-3.03-0.17-5.53,0.07-7.5,0.7
					C4.5,532.33,3.35,533.35,3.15,534.65z"/>
				
					<path fill="none" stroke="#A9AAB1" stroke-width="0.2" stroke-linecap="round" stroke-linejoin="round" stroke-miterlimit="3" d="
					M3.15,534.65c-0.03,1.2,0.93,2.32,2.9,3.35c1.93,1.07,4.38,1.72,7.35,1.95c2.83,0.23,5.3-0.05,7.4-0.85
					c2.17-0.7,3.28-1.67,3.35-2.9c0.1-1.27-0.85-2.43-2.85-3.5c-1.97-0.9-4.37-1.5-7.2-1.8c-3.03-0.17-5.53,0.07-7.5,0.7
					C4.5,532.33,3.35,533.35,3.15,534.65z"/>
			</g>
		</g>
		<g>
			<path fill="none" stroke="#FFFFFF" stroke-width="0.75" stroke-miterlimit="10" d="M264.9,381.3c1.4-0.8,6.9-1.53,16.5-2.2
				c11.2-0.67,24.7-1,40.5-1c15.83,0,29.35,0.33,40.55,1c9.57,0.67,15.07,1.4,16.5,2.2"/>
			<path fill="none" stroke="#FFFFFF" stroke-width="0.75" stroke-miterlimit="10" d="M358.85,494.6c4.77,0.37,8.07,0.77,9.9,1.2
				c0.9,0.17,1.43,0.4,1.6,0.7"/>
			<path fill="none" stroke="#FFFFFF" stroke-width="0.75" stroke-miterlimit="10" d="M276.3,496.25c1.87-2.1,47.45-4.5,83.33-1.63"
				/>
		</g>
		<g>
			<polygon fill="#ADB1BD" points="132.15,288.1 132.15,283.7 138.45,283.7 138.45,287.35 			"/>
			<path fill="#B2B2B6" d="M270.95,312.05l0.9-0.75c0.17,0.1,0.37,0.18,0.6,0.25c0.7,0.17,1.7,0.17,3,0
				c-0.33,0.1-0.87,0.35-1.6,0.75c-0.47,0.23-0.9,0.4-1.3,0.5L270.95,312.05z"/>
			<line fill="none" x1="132.15" y1="283.7" x2="132.15" y2="288.1"/>
			<g>
				
					<linearGradient id="SVGID_11_" gradientUnits="userSpaceOnUse" x1="150.3008" y1="131.8733" x2="191.3008" y2="131.8733" gradientTransform="matrix(1 0 0 -1 -46.3506 624.9233)">
					<stop  offset="0" style="stop-color:#0D0D0E"/>
					<stop  offset="0.2863" style="stop-color:#646468;stop-opacity:0.5765"/>
					<stop  offset="0.502" style="stop-color:#47484B"/>
					<stop  offset="0.8235" style="stop-color:#1A1A1B;stop-opacity:0.6314"/>
					<stop  offset="1" style="stop-color:#000000"/>
					<stop  offset="1" style="stop-color:#ABADB4"/>
					<stop  offset="1" style="stop-color:#292B2C"/>
				</linearGradient>
				<path fill="url(#SVGID_11_)" d="M109.9,489.6c4.03-0.97,8.87-1.45,14.5-1.45c5.73,0,10.58,0.48,14.55,1.45c4,0.9,6,2.03,6,3.4
					c0,1.37-2,2.5-6,3.4c-3.97,1.03-8.82,1.55-14.55,1.55c-5.63,0-10.47-0.52-14.5-1.55c-3.97-0.9-5.95-2.03-5.95-3.4
					C103.95,491.63,105.93,490.5,109.9,489.6z"/>
			</g>
			<g>
				
					<linearGradient id="SVGID_12_" gradientUnits="userSpaceOnUse" x1="135.1006" y1="481.5916" x2="175.8506" y2="481.5916" gradientTransform="matrix(1 0 0 1 -30.9004 -91.0508)">
					<stop  offset="0" style="stop-color:#B1AFB0"/>
					<stop  offset="0.4" style="stop-color:#C8C8C8"/>
					<stop  offset="0.7742" style="stop-color:#B6B4B5"/>
					<stop  offset="0.9247" style="stop-color:#E2E2E2"/>
				</linearGradient>
				<path fill="url(#SVGID_12_)" d="M108.05,287.5c0.63,0.17,1.33,0.35,2.1,0.55c4.03,0.83,8.9,1.25,14.6,1.25
					c5.67,0,10.48-0.42,14.45-1.25c0.7-0.13,1.33-0.28,1.9-0.45c1.93-0.5,3.22-1.03,3.85-1.6v3.8v0.6v171.5v9.2v11.5v8.8
					c-0.23,1.17-1.8,2.1-4.7,2.8c-1.27,0.27-2.55,0.52-3.85,0.75c-3.07,0.47-6.1,0.75-9.1,0.85c-1.77,0.07-3.53,0.07-5.3,0
					c-3-0.1-5.98-0.38-8.95-0.85c-5.73-0.8-8.68-2.17-8.85-4.1V285.23C104.22,286.08,105.5,286.84,108.05,287.5z"/>
				
					<radialGradient id="SVGID_13_" cx="171.0005" cy="-7.1565" r="40.1867" gradientTransform="matrix(1 0 0 -0.4896 -46.3506 486.2085)" gradientUnits="userSpaceOnUse">
					<stop  offset="0" style="stop-color:#FFFFFF;stop-opacity:0"/>
					<stop  offset="0.4431" style="stop-color:#FFFFFF;stop-opacity:0.1608"/>
					<stop  offset="1" style="stop-color:#FFFFFF;stop-opacity:0"/>
				</radialGradient>
				<path fill="url(#SVGID_13_)" d="M144.75,515.4h-40.7v-19.75c0-0.17,0-0.6,0-1.3c3.47,2,7.47,3.2,12,3.6
					c5.57,0.83,11.38,0.83,17.45,0c4.97-0.57,8.72-1.65,11.25-3.25v9.2V515.4z"/>
			</g>
			<g>
				
					<linearGradient id="SVGID_14_" gradientUnits="userSpaceOnUse" x1="173.2412" y1="344.4187" x2="167.322" y2="331.7148" gradientTransform="matrix(1 0 0 -1 -46.3506 624.9233)">
					<stop  offset="0" style="stop-color:#676A6D"/>
					<stop  offset="1" style="stop-color:#ADB0B5"/>
					<stop  offset="1" style="stop-color:#939B9F"/>
				</linearGradient>
				<path fill="url(#SVGID_14_)" d="M110,282.5c4.03-0.8,8.88-1.2,14.55-1.2c5.7,0,10.53,0.4,14.5,1.2
					c4.03,0.83,6.05,1.82,6.05,2.95c0,0.3-0.12,0.6-0.35,0.9c-0.63,0.57-1.9,1.1-3.8,1.6c-0.57,0.17-1.2,0.3-1.9,0.4
					c-3.97,0.87-8.8,1.3-14.5,1.3c-5.67,0-10.52-0.43-14.55-1.3c-0.8-0.17-1.52-0.33-2.15-0.5c-2.53-0.67-3.8-1.43-3.8-2.3v-0.1
					C104.05,284.32,106.03,283.33,110,282.5z"/>
			</g>
			<g>
				<path fill="#B8B8BC" d="M104.65,286.85c0.97,0.33,2.13,0.67,3.5,1c4.53,1.13,9.95,1.7,16.25,1.7c6.3,0,11.7-0.57,16.2-1.7
					c1.53-0.33,2.63-0.65,3.3-0.95c0.63-0.33,0.8-0.33,0.5,0c-0.33,0.37-2.15,1.05-5.45,2.05c-3.27,0.97-8.12,1.45-14.55,1.45
					c-6.43,0-11-0.37-13.7-1.1C107.97,288.57,105.95,287.75,104.65,286.85z M133.45,289.65c-0.17-0.07-0.37-0.1-0.6-0.1
					c-2.4,0.57-4.9,0.68-7.5,0.35c2.77,0.57,5.48,0.48,8.15-0.25H133.45z M138.3,288.7c-1.2,0.33-2.4,0.57-3.6,0.7
					C136.47,289.57,137.67,289.33,138.3,288.7z M109,288.45c-0.3-0.23-0.62-0.37-0.95-0.4h-0.1
					C108.12,288.38,108.47,288.52,109,288.45z"/>
				<path fill="#E9E9EB" d="M109,288.45c-0.53,0.07-0.88-0.07-1.05-0.4h0.1C108.38,288.08,108.7,288.22,109,288.45z M138.3,288.7
					c-0.63,0.63-1.83,0.87-3.6,0.7C135.9,289.27,137.1,289.03,138.3,288.7z M133.45,289.65h0.05c-2.67,0.73-5.38,0.82-8.15,0.25
					c2.6,0.33,5.1,0.22,7.5-0.35C133.08,289.55,133.28,289.58,133.45,289.65z"/>
				<path fill="#84848C" d="M124.05,336.75c6.27,0,11.63-0.57,16.1-1.7c1.77-0.47,3.22-0.92,4.35-1.35c0.07,0,0.13,0,0.2,0v0.85
					c-1.17,0.47-2.57,0.92-4.2,1.35c-4.53,1.13-10.02,1.7-16.45,1.7c-6.4,0-11.88-0.57-16.45-1.7c-1.23-0.27-2.28-0.55-3.15-0.85
					v-0.85c0.07,0,0.13,0,0.2,0c0.9,0.3,1.95,0.58,3.15,0.85C112.33,336.18,117.75,336.75,124.05,336.75z"/>
				<path fill="#FFFFFF" d="M124.4,337.95c6.3,0,11.7-0.57,16.2-1.7c1.53-0.33,2.83-0.73,3.9-1.2c0.07,0,0.13,0,0.2,0v0.85
					c-1.03,0.47-2.32,0.87-3.85,1.2c-4.53,1.13-10.02,1.7-16.45,1.7c-6.43,0-11.92-0.57-16.45-1.7c-1.37-0.33-2.53-0.67-3.5-1v-0.85
					c0.07,0,0.13,0,0.2,0c0.97,0.33,2.13,0.67,3.5,1C112.68,337.38,118.1,337.95,124.4,337.95z"/>
			</g>
			<g>
				<polygon fill="#ACAEBA" points="330.5,308.05 340.85,307.05 340.85,308.75 330.5,308.75 				"/>
				
					<linearGradient id="SVGID_15_" gradientUnits="userSpaceOnUse" x1="646.209" y1="830.3796" x2="648.7892" y2="830.3796" gradientTransform="matrix(0.2811 0.9597 1.013 -0.0992 -689.4268 -232.3418)">
					<stop  offset="0" style="stop-color:#B4B5B8"/>
					<stop  offset="0.3176" style="stop-color:#B2B3B8"/>
					<stop  offset="0.4784" style="stop-color:#C7C8C9"/>
					<stop  offset="0.6667" style="stop-color:#B0B2B8"/>
					<stop  offset="1" style="stop-color:#ACAEBA"/>
					<stop  offset="1" style="stop-color:#939B9F"/>
				</linearGradient>
				<path fill="url(#SVGID_15_)" d="M326.4,306.6l11.9-1.35c0.63,0.17,1.23,0.3,1.8,0.4c0.07,0,0.13,0,0.2,0
					c0.17,0.07,0.35,0.13,0.55,0.2v1.2l-10.35,1v-1.1c-0.4-0.07-0.8-0.1-1.2-0.1c-0.13-0.07-0.28-0.1-0.45-0.1
					C328.05,306.72,327.23,306.67,326.4,306.6z"/>
				
					<radialGradient id="SVGID_16_" cx="340.9004" cy="-759.2258" r="54.5211" fx="342.6109" fy="-759.2258" gradientTransform="matrix(1 0 0 -0.1126 -46.3506 222.3232)" gradientUnits="userSpaceOnUse">
					<stop  offset="0" style="stop-color:#B2B2B4"/>
					<stop  offset="0.8549" style="stop-color:#B2B3B7"/>
					<stop  offset="0.9412" style="stop-color:#C2C2C5"/>
					<stop  offset="1" style="stop-color:#B4B9BA"/>
					<stop  offset="1" style="stop-color:#E3E6E8"/>
				</radialGradient>
				<path fill="url(#SVGID_16_)" d="M291.1,302.35c-0.03,0.07-0.03,0.15,0,0.25c0,0.27,0.87,0.55,2.6,0.85c0.03,0,0.08,0,0.15,0
					c0.73,0.1,1.53,0.22,2.4,0.35c1.7,0.17,3.65,0.28,5.85,0.35c1.5,0.03,2.92,0.05,4.25,0.05c1.73-0.03,3.33-0.13,4.8-0.3
					c0.43,0,0.85-0.03,1.25-0.1c0.63-0.07,1.18-0.15,1.65-0.25c0.83-0.13,1.33-0.32,1.5-0.55h0.1c0.63,0.07,1.23,0.1,1.8,0.1
					c1.7,0.13,3.37,0.25,5,0.35c1.43,0.1,2.83,0.22,4.2,0.35c1.43,0.1,2.82,0.23,4.15,0.4c2.5,0.3,4.72,0.62,6.65,0.95
					c0.3,0,0.58,0.03,0.85,0.1l-11.9,1.35c-1.27-0.07-2.58-0.1-3.95-0.1c-0.2,0-0.42,0-0.65,0c-1.53,0-2.98,0.03-4.35,0.1
					c-1.93,0.07-3.67,0.18-5.2,0.35c-2.6,0.27-3.9,0.63-3.9,1.1c0,0.17,0.17,0.32,0.5,0.45l0.1,0.05c-0.2,0.13-0.35,0.28-0.45,0.45
					c0,0.03-0.03,0.08-0.1,0.15l-1.1,0.2c-0.9,0.6-1.87,0.93-2.9,1v0.1c-0.17,0.1-0.33,0.22-0.5,0.35c-0.73-0.2-1.7-0.35-2.9-0.45
					c-3.07-0.33-6.82-0.5-11.25-0.5c-4.37,0-8.6,0.02-12.7,0.05c-2.2,0-3.73,0.15-4.6,0.45c-0.73,0.23-0.93,0.55-0.6,0.95
					c0.7,0.9,0.82,1.5,0.35,1.8l-0.15,0.4c-2.17-0.1-3.98-0.22-5.45-0.35c-2-0.17-3.93-0.33-5.8-0.5c-1.13-0.17-2.25-0.32-3.35-0.45
					c-9-1-13.97-2.22-14.9-3.65c-0.1-0.1-0.15-0.22-0.15-0.35v-0.15c0-1.3,3.43-2.47,10.3-3.5c0.33,0,0.7-0.03,1.1-0.1h0.1
					c1.07-0.17,2.25-0.33,3.55-0.5c0.47-0.03,0.95-0.08,1.45-0.15c1.77-0.17,3.62-0.32,5.55-0.45c0.97-0.03,1.93-0.08,2.9-0.15
					c1.63-0.17,3.33-0.28,5.1-0.35c2.67-0.17,5.45-0.28,8.35-0.35c0.7-0.03,1.38-0.05,2.05-0.05c1.47,0,3.03,0,4.7,0
					C288.68,302.38,289.87,302.35,291.1,302.35z M279.9,307.3c0-0.4-1.28-0.77-3.85-1.1c-1.1-0.13-2.3-0.23-3.6-0.3
					c-1.7-0.1-3.57-0.15-5.6-0.15c-0.8,0-1.6,0.03-2.4,0.1c-0.63,0-1.25,0.02-1.85,0.05c-1.83,0-3.48,0.1-4.95,0.3
					c-2.57,0.33-3.85,0.7-3.85,1.1c0,0.1,0.08,0.2,0.25,0.3c0.53,0.3,1.73,0.57,3.6,0.8c1.4,0.17,2.97,0.3,4.7,0.4
					c0.67,0,1.37,0.03,2.1,0.1c0.8,0,1.6,0,2.4,0c2.03,0,3.9-0.05,5.6-0.15c0.47,0,0.93-0.03,1.4-0.1h0.05
					c0.73-0.07,1.45-0.15,2.15-0.25C278.62,308.1,279.9,307.73,279.9,307.3z"/>
				<path fill="#D8D8D8" d="M205.5,194.75l22.3,47.95l0.3,0.7c1.23,2.53,1.65,4.72,1.25,6.55c-0.27,1.03-0.78,1.95-1.55,2.75
					c-0.2,0.2-0.38,0.42-0.55,0.65c-1.77,2-2.15,4.42-1.15,7.25l2.65,6.05l8.35,19.25l1.55,3.5c0.23,0.57,0.45,1.1,0.65,1.6
					c0.13,0.47,0.28,0.92,0.45,1.35c0.17,0.87,0.32,1.67,0.45,2.4h-6c-0.1-0.97-0.32-1.93-0.65-2.9L221,262.4
					c-1.8-5.23-1.15-9.53,1.95-12.9c1.6-1.63,1.72-3.78,0.35-6.45l-1.95-4.2l-28.1-59.45c-2.33-3-5.47-4.27-9.4-3.8l3.95-0.95
					c3.23-0.87,6.03-0.17,8.4,2.1c0,0.07,0,0.13,0,0.2l0.1-0.1c0.57,0.57,1.1,1.22,1.6,1.95l0.1,0.1c0.3,0.47,0.58,0.98,0.85,1.55
					l1.95,4.25L205.5,194.75z M280.2,292.7l-5-2.1l-0.1-0.2L263,265.55l-1.35-2.75c-2.43-4.13-5.5-7-9.2-8.6
					c-0.07-0.07-0.13-0.1-0.2-0.1c-0.27-0.1-0.55-0.23-0.85-0.4c-2.6-1.37-4.75-3.42-6.45-6.15c-0.4-0.6-0.77-1.25-1.1-1.95
					c-0.13-0.23-0.25-0.47-0.35-0.7l-29.05-62.25l-1-2.3l-10.75-0.85h-0.25l-0.35-0.1l-1.1-2.1l14.8,1.45l31.85,66.75
					c0.3,0.47,0.62,0.93,0.95,1.4l0.35,0.4c0.57,0.7,1.2,1.33,1.9,1.9c0.73,0.6,1.55,1.17,2.45,1.7c0.47,0.23,0.92,0.45,1.35,0.65
					c0.33,0.17,0.68,0.35,1.05,0.55c0.9,0.43,1.77,0.97,2.6,1.6c0.7,0.57,1.38,1.18,2.05,1.85c0.37,0.37,0.72,0.75,1.05,1.15
					c0.8,1,1.58,2.18,2.35,3.55c0.13,0.23,0.37,0.63,0.7,1.2c0.13,0.17,0.25,0.4,0.35,0.7l15.35,30.5L280.2,292.7z"/>
				<path fill="#B1AFB0" d="M221.35,238.85l-24.6,5.65l-0.2-0.25l-0.25-0.45l-1.8-3.05l-1-1.8c-8.07,1.7-15.62,3.52-22.65,5.45
					c-11.03,3.07-20.82,6.5-29.35,10.3l-16.25,7.85c-2.1,1.03-4.83,0.83-8.2-0.6c-2.67-1.77-4.73-4.32-6.2-7.65
					c-0.73-1.7-1.35-3.68-1.85-5.95c-1.5-9.6-1.5-18.58,0-26.95c0.67-6.2,3.53-11.08,8.6-14.65c21.33-12.73,42.93-23.03,64.8-30.9
					c0.53-0.13,1.02-0.22,1.45-0.25c3.93-0.47,7.07,0.8,9.4,3.8L221.35,238.85z M202.1,179.4l0.15,0.25l-2.1,1.4l-1.3-2.6l2.15-1.15
					L202.1,179.4z M121,230.25c-0.7-1.53-1.53-2.3-2.5-2.3s-1.82,0.77-2.55,2.3c-0.6,1.6-0.88,3.52-0.85,5.75
					c0,2.2,0.37,4.07,1.1,5.6c0.77,1.6,1.63,2.4,2.6,2.4c0.97,0,1.78-0.8,2.45-2.4c0.63-1.53,0.95-3.4,0.95-5.6
					C122.13,233.77,121.73,231.85,121,230.25z"/>
				<path fill="#C6C4C5" d="M196.3,176.85l-0.1,0.1c0-0.07,0-0.13,0-0.2L196.3,176.85z"/>
				<path fill="#706F6D" d="M194.5,240.75c-8.27,1.63-16.15,3.57-23.65,5.8c-10.17,2.93-19.57,6.4-28.2,10.4
					c-0.47,0.17-0.93,0.37-1.4,0.6c-2.53,1.13-5,2.35-7.4,3.65c-1.7,0.83-3.37,1.73-5,2.7c-1.33,0.47-2.58,0.75-3.75,0.85
					c-2.57-0.27-4.85-0.93-6.85-2c-0.43-0.23-0.83-0.5-1.2-0.8c3.37,1.43,6.1,1.63,8.2,0.6l16.25-7.85
					c8.53-3.8,18.32-7.23,29.35-10.3c7.03-1.93,14.58-3.75,22.65-5.45L194.5,240.75z M214.45,182.65l-10.55-0.85l-3.5-0.25
					l-0.25-0.5l2.1-1.4l0.2-0.15h0.25l10.75,0.85L214.45,182.65z"/>
				<path fill="#5C5D55" d="M205.5,194.75l-4.7-10.05l3.1-2.9l10.55,0.85l29.05,62.25c0.1,0.23,0.22,0.47,0.35,0.7l-15.6,9.95
					l-1-2.2c0.17-0.23,0.35-0.45,0.55-0.65c0.77-0.8,1.28-1.72,1.55-2.75l11.15-6.55h1.2l-21.95-46.6L205.5,194.75z M275.1,290.4
					l-4.4-1.85l-8.05-3.5c0.17-0.47,0.37-0.92,0.6-1.35c0.23-0.7,0.43-1.35,0.6-1.95c0.3-1.03,0.5-2,0.6-2.9
					c0.17-1.37,0.17-2.62,0-3.75c-0.33-2.63-1.42-4.97-3.25-7c-0.27-0.33-0.57-0.62-0.9-0.85l2.7-1.7L275.1,290.4z"/>
				<polygon fill="#C4C9DC" points="227.8,242.7 205.5,194.75 219.75,196.8 241.7,243.4 240.5,243.4 				"/>
				
					<radialGradient id="SVGID_17_" cx="163.6006" cy="459.9011" r="5.9625" gradientTransform="matrix(1 0 0 -1.9497 -46.3506 1128.2217)" gradientUnits="userSpaceOnUse">
					<stop  offset="0" style="stop-color:#A9ABAC"/>
					<stop  offset="0.7451" style="stop-color:#717576"/>
					<stop  offset="0.9451" style="stop-color:#474949"/>
				</radialGradient>
				<path fill="url(#SVGID_17_)" d="M121,230.25c0.73,1.6,1.13,3.52,1.2,5.75c0,2.2-0.32,4.07-0.95,5.6c-0.67,1.6-1.48,2.4-2.45,2.4
					c-0.97,0-1.83-0.8-2.6-2.4c-0.73-1.53-1.1-3.4-1.1-5.6c-0.03-2.23,0.25-4.15,0.85-5.75c0.73-1.53,1.58-2.3,2.55-2.3
					S120.3,228.72,121,230.25z"/>
				
					<linearGradient id="SVGID_18_" gradientUnits="userSpaceOnUse" x1="165.1929" y1="365.45" x2="160.5196" y2="357.361" gradientTransform="matrix(1 0 0 -1 -46.3506 624.9233)">
					<stop  offset="0" style="stop-color:#555555"/>
					<stop  offset="1" style="stop-color:#8B8B89"/>
					<stop  offset="1" style="stop-color:#939B9F"/>
				</linearGradient>
				<path fill="url(#SVGID_18_)" d="M117.05,261.95c0.37,0.3,0.77,0.57,1.2,0.8c2,1.07,4.28,1.73,6.85,2v2.9
					c-7.57-1.23-12.32-4.98-14.25-11.25v-2.1C112.32,257.63,114.38,260.18,117.05,261.95z"/>
				<path fill="#7D7475" d="M140.15,263.15c0.23-0.1,0.47-0.22,0.7-0.35c4.43-1.8,9.03-3.58,13.8-5.35c-0.87,2.37-2.17,4.1-3.9,5.2
					c-1.77,1.03-3.65,1.63-5.65,1.8c-1.6,0.1-3.22,0.07-4.85-0.1c-0.17,0-0.33,0-0.5,0c-0.23-0.07-0.5-0.12-0.8-0.15
					c0.07-0.13,0.15-0.23,0.25-0.3C139.43,263.63,139.75,263.38,140.15,263.15z"/>
				<path fill="#4B4851" d="M133.85,261.2c2.4-1.3,4.87-2.52,7.4-3.65c0,1.97-0.48,3.3-1.45,4c-0.33,0.23-0.75,0.43-1.25,0.6
					c-0.57,0.17-0.92,0.55-1.05,1.15c-0.17,0.6-0.25,1.52-0.25,2.75v5.55l-5.1,0.35l-3.3,0.25v-0.95l5-0.45V261.2L133.85,261.2z"/>
				<path fill="#1A181D" d="M128.85,263.9c1.63-0.97,3.3-1.87,5-2.7v9.6l-5,0.45V263.9z"/>
				<path fill="#ADB1BD" d="M132.15,271.95l5.1-0.35v-5.55c0-1.23,0.08-2.15,0.25-2.75c0.13-0.6,0.48-0.98,1.05-1.15
					c0.5-0.17,0.92-0.37,1.25-0.6c0.97-0.7,1.45-2.03,1.45-4c0.47-0.23,0.93-0.43,1.4-0.6c-0.07,2.83-0.55,4.57-1.45,5.2
					c-0.37,0.2-0.77,0.4-1.2,0.6h-0.1c-0.57,0.17-0.9,0.55-1,1.15c-0.07,0.2-0.1,0.38-0.1,0.55v0.05l-0.1,0.1
					c-0.1,0.23-0.15,0.48-0.15,0.75c-0.13,0.4-0.17,0.8-0.1,1.2v17.15h-6.3V271.95L132.15,271.95z"/>
				<path fill="#353334" d="M142.65,256.95c8.63-4,18.03-7.47,28.2-10.4c7.5-2.23,15.38-4.17,23.65-5.8l1.8,3.05
					c-8.97,2.4-17.45,4.9-25.45,7.5c-5.7,1.83-11.13,3.72-16.3,5.65c-4.6,1.7-9.05,3.43-13.35,5.2c-0.47,0.33-0.82,0.67-1.05,1
					c-0.4,0.23-0.72,0.48-0.95,0.75c-0.1,0.07-0.18,0.17-0.25,0.3c-0.03,0.1-0.08,0.2-0.15,0.3v-0.05c0-0.17,0.03-0.35,0.1-0.55
					c0.1-0.6,0.43-0.98,1-1.15h0.1c0.43-0.2,0.83-0.4,1.2-0.6C142.1,261.52,142.58,259.78,142.65,256.95z M229.35,249.95
					c0.4-1.83-0.02-4.02-1.25-6.55l-0.3-0.7l12.7,0.7L229.35,249.95z"/>
				<path fill="#4D4A4B" d="M141.2,262.15c4.3-1.77,8.75-3.5,13.35-5.2c5.17-1.93,10.6-3.82,16.3-5.65c8-2.6,16.48-5.1,25.45-7.5
					l0.25,0.45c-1.6,0.43-3.18,0.88-4.75,1.35c-0.7,0.17-1.38,0.37-2.05,0.6c-6.6,1.83-12.9,3.73-18.9,5.7
					c-5.63,1.77-11.03,3.62-16.2,5.55c-4.77,1.77-9.37,3.55-13.8,5.35c-0.23,0.13-0.47,0.25-0.7,0.35
					C140.38,262.82,140.73,262.48,141.2,262.15z"/>
				
					<linearGradient id="SVGID_19_" gradientUnits="userSpaceOnUse" x1="282.7617" y1="375.7595" x2="290.5645" y2="362.2612" gradientTransform="matrix(1 0 0 -1 -46.3506 624.9233)">
					<stop  offset="0" style="stop-color:#5C5D55"/>
					<stop  offset="0.298" style="stop-color:#5C5D55"/>
					<stop  offset="0.5176" style="stop-color:#72716B"/>
					<stop  offset="1" style="stop-color:#52534C"/>
				</linearGradient>
				<path fill="url(#SVGID_19_)" d="M252.25,254.1l-19.05,11.8h-0.1l-4.85-10.35l15.6-9.95c0.33,0.7,0.7,1.35,1.1,1.95
					c1.7,2.73,3.85,4.78,6.45,6.15C251.7,253.87,251.98,254,252.25,254.1z"/>
				
					<linearGradient id="SVGID_20_" gradientUnits="userSpaceOnUse" x1="290.7026" y1="365.7429" x2="299.0418" y2="351.2863" gradientTransform="matrix(1 0 0 -1 -46.3506 624.9233)">
					<stop  offset="0" style="stop-color:#5D5E57"/>
					<stop  offset="0.4471" style="stop-color:#42423D"/>
					<stop  offset="0.8314" style="stop-color:#5C5D55"/>
					<stop  offset="1" style="stop-color:#5C5D55"/>
				</linearGradient>
				<path fill="url(#SVGID_20_)" d="M233.1,265.9h0.1l19.05-11.8c0.07,0,0.13,0.03,0.2,0.1c3.7,1.6,6.77,4.47,9.2,8.6l1.35,2.75
					l-2.7,1.7c-0.7-0.4-1.42-0.6-2.15-0.6h-11v0.1v1.95c-0.03,0.23-0.12,0.4-0.25,0.5h-5.85l-2.4-2.55h-5.2L233.1,265.9z"/>
				<path fill="#545351" d="M275.2,290.6l-4.5-2.05l4.4,1.85L275.2,290.6z M247.15,269.2h-0.25c0.13-0.1,0.22-0.27,0.25-0.5V269.2z"
					/>
				
					<linearGradient id="SVGID_21_" gradientUnits="userSpaceOnUse" x1="283.8926" y1="356.4119" x2="303.2057" y2="342.4557" gradientTransform="matrix(1 0 0 -1 -46.3506 624.9233)">
					<stop  offset="0" style="stop-color:#CFD1D1"/>
					<stop  offset="1" style="stop-color:#888888"/>
					<stop  offset="1" style="stop-color:#939B9F"/>
				</linearGradient>
				<path fill="url(#SVGID_21_)" d="M262.65,285.05l-25.55,0.85l-8.35-19.25h4.7h5.2l2.4,2.55h5.85h0.25h2.8l-2.8-2.45v-0.1h11
					c0.73,0,1.45,0.2,2.15,0.6c0.33,0.23,0.63,0.52,0.9,0.85c1.83,2.03,2.92,4.37,3.25,7c0.17,1.13,0.17,2.38,0,3.75
					c-0.1,0.9-0.3,1.87-0.6,2.9c-0.17,0.6-0.37,1.25-0.6,1.95C263.02,284.13,262.82,284.58,262.65,285.05z"/>
				<polygon fill="#676767" points="247.15,269.2 247.15,268.7 247.15,266.75 249.95,269.2 				"/>
				
					<linearGradient id="SVGID_22_" gradientUnits="userSpaceOnUse" x1="314.1201" y1="319.5935" x2="327.552" y2="354.5006" gradientTransform="matrix(1 0 0 -1 -46.3506 624.9233)">
					<stop  offset="7.843138e-003" style="stop-color:#D9D9D9"/>
					<stop  offset="0.0824" style="stop-color:#9E9E9E"/>
					<stop  offset="1" style="stop-color:#A7A49F"/>
					<stop  offset="1" style="stop-color:#939B9F"/>
					<stop  offset="1" style="stop-color:#302F2E"/>
				</linearGradient>
				<path fill="url(#SVGID_22_)" d="M237.1,285.9l25.55-0.85l8.05,3.5l4.5,2.05l5,2.1c0.87,0.37,1.7,0.72,2.5,1.05
					c12.03,4.37,19.75,7.72,23.15,10.05c0.17,0.1,0.33,0.23,0.5,0.4c-1.33,0-2.75-0.02-4.25-0.05c-2.2-0.07-4.15-0.18-5.85-0.35
					c-0.87-0.13-1.67-0.25-2.4-0.35c-0.07,0-0.12,0-0.15,0v-1.1c-0.87,0-1.73,0-2.6,0c-1.23,0-2.42,0.03-3.55,0.1
					c-1.67,0-3.23,0-4.7,0c-0.67,0-1.35,0.02-2.05,0.05c-2.9,0.07-5.68,0.18-8.35,0.35c-1.77,0.07-3.47,0.18-5.1,0.35l-27.6-10.85
					c-0.17-0.43-0.32-0.88-0.45-1.35c-0.2-0.5-0.42-1.03-0.65-1.6L237.1,285.9z"/>
				
					<linearGradient id="SVGID_23_" gradientUnits="userSpaceOnUse" x1="255.105" y1="375.697" x2="258.2007" y2="363.9322" gradientTransform="matrix(1 0 0 -1 -46.3506 624.9233)">
					<stop  offset="0" style="stop-color:#B1AFB0"/>
					<stop  offset="0.1608" style="stop-color:#E6E6E6"/>
					<stop  offset="1" style="stop-color:#B1AFB0"/>
					<stop  offset="1" style="stop-color:#939B9F"/>
				</linearGradient>
				<path fill="url(#SVGID_23_)" d="M234.2,294.75c0.17,1.6-0.05,3.13-0.65,4.6l-0.2,0.35c-0.73,1.53-1.63,2.9-2.7,4.1
					c-1.9,2.03-4.32,3.65-7.25,4.85c-0.97,0.27-1.85,0.4-2.65,0.4c-0.17,0-0.33,0-0.5,0c-0.4-0.03-0.8-0.08-1.2-0.15
					c-0.4-0.1-0.77-0.23-1.1-0.4c-1.67-0.87-3.12-2.43-4.35-4.7c-0.23-0.33-0.43-0.7-0.6-1.1L197.5,268
					c-1.77-3.87-1.57-7.47,0.6-10.8c2.17-3.37,3.02-5.33,2.55-5.9l-3.9-6.8l24.6-5.65l1.95,4.2c1.37,2.67,1.25,4.82-0.35,6.45
					c-3.1,3.37-3.75,7.67-1.95,12.9l12.55,29.45C233.88,292.82,234.1,293.78,234.2,294.75z"/>
				
					<linearGradient id="SVGID_24_" gradientUnits="userSpaceOnUse" x1="298.5347" y1="328.137" x2="288.9203" y2="304.032" gradientTransform="matrix(1 0 0 -1 -46.3506 624.9233)">
					<stop  offset="0.0196" style="stop-color:#B3B3B3"/>
					<stop  offset="0.0706" style="stop-color:#A5A5A5"/>
					<stop  offset="1" style="stop-color:#4B4845"/>
					<stop  offset="1" style="stop-color:#939B9F"/>
				</linearGradient>
				<path fill="url(#SVGID_24_)" d="M239.75,292.35l27.6,10.85c-0.97,0.07-1.93,0.12-2.9,0.15c-1.93,0.13-3.78,0.28-5.55,0.45
					c-0.5,0.07-0.98,0.12-1.45,0.15c-1.3,0.17-2.48,0.33-3.55,0.5h-0.1c-0.4,0.07-0.77,0.1-1.1,0.1c-6.87,1.03-10.3,2.2-10.3,3.5
					v0.15c0,0.13,0.05,0.25,0.15,0.35h-0.05l-0.1,9.65l-13.55-7.35c3.3-1.37,6.05-3.72,8.25-7.05c1.03-1.67,1.95-3.55,2.75-5.65
					c0.27-1,0.38-2.13,0.35-3.4C240.07,294.02,239.92,293.22,239.75,292.35z"/>
				
					<linearGradient id="SVGID_25_" gradientUnits="userSpaceOnUse" x1="273.3135" y1="316.6335" x2="281.2349" y2="330.3624" gradientTransform="matrix(1 0 0 -1 -46.3506 624.9233)">
					<stop  offset="0" style="stop-color:#312F2D"/>
					<stop  offset="1" style="stop-color:#CBCFD8"/>
					<stop  offset="1" style="stop-color:#939B9F"/>
				</linearGradient>
				<path fill="url(#SVGID_25_)" d="M240.2,294.75c0.03,1.27-0.08,2.4-0.35,3.4c-0.8,2.1-1.72,3.98-2.75,5.65
					c-2.2,3.33-4.95,5.68-8.25,7.05c-2.33,0.63-3.98,0.67-4.95,0.1l-4.85-2.05c0.4,0.07,0.8,0.12,1.2,0.15c0.17,0,0.33,0,0.5,0
					c0.8,0,1.68-0.13,2.65-0.4c2.93-1.2,5.35-2.82,7.25-4.85c1.07-1.2,1.97-2.57,2.7-4.1l0.2-0.35c0.6-1.47,0.82-3,0.65-4.6H240.2z"
					/>
				
					<linearGradient id="SVGID_26_" gradientUnits="userSpaceOnUse" x1="288.688" y1="299.7986" x2="317.913" y2="299.7986" gradientTransform="matrix(1 0 0 -1 -46.3506 624.9233)">
					<stop  offset="0" style="stop-color:#949293"/>
					<stop  offset="1" style="stop-color:#C1C2C6"/>
					<stop  offset="1" style="stop-color:#939B9F"/>
				</linearGradient>
				<path fill="url(#SVGID_26_)" d="M242.4,318.2l0.1-9.65h0.05c0.93,1.43,5.9,2.65,14.9,3.65c1.1,0.13,2.22,0.28,3.35,0.45
					c1.87,0.17,3.8,0.33,5.8,0.5c1.47,0.13,3.28,0.25,5.45,0.35l-0.5,28.2c-1.83-0.23-3.48-0.43-4.95-0.6
					c-2-0.27-3.93-0.58-5.8-0.95c-1.13-0.2-2.25-0.42-3.35-0.65c-3.67-0.73-6.67-1.5-9-2.3c-4.03-1.5-6.05-3.15-6.05-4.95V318.2
					L242.4,318.2z"/>
				<path fill="#838182" d="M293.7,303.45c-1.73-0.3-2.6-0.58-2.6-0.85c-0.03-0.1-0.03-0.18,0-0.25c0.87,0,1.73,0,2.6,0V303.45z"/>
				
					<linearGradient id="SVGID_27_" gradientUnits="userSpaceOnUse" x1="300.1504" y1="317.5984" x2="326.2505" y2="317.5984" gradientTransform="matrix(1 0 0 -1 -46.3506 624.9233)">
					<stop  offset="0" style="stop-color:#9B9B9B"/>
					<stop  offset="0.4784" style="stop-color:#555555"/>
					<stop  offset="1" style="stop-color:#9D9D9D"/>
					<stop  offset="1" style="stop-color:#939B9F"/>
				</linearGradient>
				<path fill="url(#SVGID_27_)" d="M279.9,307.3c0,0.43-1.28,0.8-3.85,1.1c-0.7,0.1-1.42,0.18-2.15,0.25h-0.05
					c-0.47,0.07-0.93,0.1-1.4,0.1c-1.7,0.1-3.57,0.15-5.6,0.15c-0.8,0-1.6,0-2.4,0c-0.73-0.07-1.43-0.1-2.1-0.1
					c-1.73-0.1-3.3-0.23-4.7-0.4c-1.87-0.23-3.07-0.5-3.6-0.8c-0.17-0.1-0.25-0.2-0.25-0.3c0-0.4,1.28-0.77,3.85-1.1
					c1.47-0.2,3.12-0.3,4.95-0.3c0.6-0.03,1.22-0.05,1.85-0.05c0.8-0.07,1.6-0.1,2.4-0.1c2.03,0,3.9,0.05,5.6,0.15
					c1.3,0.07,2.5,0.17,3.6,0.3C278.62,306.53,279.9,306.9,279.9,307.3z"/>
				<line fill="none" x1="132.15" y1="283.7" x2="132.15" y2="271.95"/>
				<line fill="none" x1="312.5" y1="300.7" x2="312.1" y2="299.95"/>
				<g>
					
						<radialGradient id="SVGID_28_" cx="255.9507" cy="412.0242" r="29.3" gradientTransform="matrix(1 0 0 -1 -46.3506 624.9233)" gradientUnits="userSpaceOnUse">
						<stop  offset="7.843138e-003" style="stop-color:#FFFFFF"/>
						<stop  offset="1" style="stop-color:#FFFFFF;stop-opacity:0"/>
						<stop  offset="1" style="stop-color:#302F2E"/>
						<stop  offset="1" style="stop-color:#FDFDFD;stop-opacity:0"/>
					</radialGradient>
					<path fill="url(#SVGID_28_)" d="M196.9,186.75c0-0.17,0.05-0.25,0.15-0.25h0.1c9.5,18.6,17.42,35.52,23.75,50.75h-0.3
						L196.9,187C196.83,186.87,196.83,186.78,196.9,186.75z"/>
					
						<radialGradient id="SVGID_29_" cx="236.7007" cy="446.3757" r="5.4488" gradientTransform="matrix(1 0 0 -1 -46.3506 624.9233)" gradientUnits="userSpaceOnUse">
						<stop  offset="7.843138e-003" style="stop-color:#FFFFFF"/>
						<stop  offset="1" style="stop-color:#FFFFFF;stop-opacity:0"/>
						<stop  offset="1" style="stop-color:#302F2E"/>
						<stop  offset="1" style="stop-color:#FDFDFD;stop-opacity:0"/>
					</radialGradient>
					<path fill="url(#SVGID_29_)" d="M184.8,175.4c0.67-0.07,2.17,0.05,4.5,0.35c2.27,0.27,4.03,2.37,5.3,6.3
						c-0.33-0.5-0.73-1.18-1.2-2.05c-1.07-2.03-2.6-3.28-4.6-3.75C186.77,175.75,185.43,175.47,184.8,175.4z"/>
					
						<radialGradient id="SVGID_30_" cx="273.8506" cy="358.1238" r="29.2266" gradientTransform="matrix(1 0 0 -1 -46.3506 624.9233)" gradientUnits="userSpaceOnUse">
						<stop  offset="7.843138e-003" style="stop-color:#FFFFFF"/>
						<stop  offset="1" style="stop-color:#FFFFFF;stop-opacity:0"/>
						<stop  offset="1" style="stop-color:#302F2E"/>
					</radialGradient>
					<path fill="url(#SVGID_30_)" d="M221.8,239.8h0.15l2.15,3.1c1.4,2.83,1.25,5.15-0.45,6.95c-3,3.23-3.62,7.38-1.85,12.45v-0.1
						l12.5,29.5v0.1c0.23,0.57,0.4,1.15,0.5,1.75c0.07,1.43-0.15,2.75-0.65,3.95c0.2-2.57,0-4.38-0.6-5.45L221,262.55
						c-1.93-5.43-1.25-9.87,2.05-13.3c1.43-1.53,1.52-3.52,0.25-5.95v-0.1L221.8,239.8z"/>
				</g>
				<g>
					
						<linearGradient id="SVGID_31_" gradientUnits="userSpaceOnUse" x1="172.8008" y1="348.4485" x2="171.6008" y2="348.4485" gradientTransform="matrix(1 0 0 -1 -46.3506 624.9233)">
						<stop  offset="7.843138e-003" style="stop-color:#ADB1BD"/>
						<stop  offset="0.8471" style="stop-color:#8F908F"/>
						<stop  offset="1" style="stop-color:#8B8B89"/>
						<stop  offset="1" style="stop-color:#302F2E"/>
						<stop  offset="1" style="stop-color:#FDFDFD;stop-opacity:0"/>
					</linearGradient>
					<path fill="url(#SVGID_31_)" d="M132.15,271.95v16.15c-0.27,0.07-0.55,0.13-0.85,0.2c-0.07-0.07-0.12-0.07-0.15,0
						c-2.87,0.27-4.88,0.52-6.05,0.75c0.9-0.5,0.9-0.9,0-1.2v-23.1c1.17-0.1,2.42-0.38,3.75-0.85v8.3L132.15,271.95z"/>
				</g>
				<g>
					
						<linearGradient id="SVGID_32_" gradientUnits="userSpaceOnUse" x1="159.7441" y1="341.2219" x2="165.3228" y2="354.0435" gradientTransform="matrix(1 0 0 -1 -46.3506 624.9233)">
						<stop  offset="7.843138e-003" style="stop-color:#94979B"/>
						<stop  offset="0.0549" style="stop-color:#959595"/>
						<stop  offset="0.1176" style="stop-color:#8B8B89"/>
						<stop  offset="1" style="stop-color:#8B8B89"/>
						<stop  offset="1" style="stop-color:#302F2E"/>
						<stop  offset="1" style="stop-color:#FDFDFD;stop-opacity:0"/>
					</linearGradient>
					<path fill="url(#SVGID_32_)" d="M110.85,256.4c1.93,6.27,6.68,10.02,14.25,11.25v19.95c0.97,0.47,0.93,0.92-0.1,1.35h-0.1
						l-14.05-6.65V256.4z"/>
				</g>
				<g>
					<path fill="#2C272B" d="M298.35,334.1c-3.07-0.43-6.82-0.65-11.25-0.65c-4.37,0-8.17,0.22-11.4,0.65h-0.35v-22.45
						c-2.33,0.27-3.55,0.03-3.65-0.7c-0.1-0.8,0.27-1.33,1.1-1.6c0.8-0.37,1.77-0.65,2.9-0.85c9.43-1.27,18.98-1.27,28.65,0
						c2.1,0.43,2.35,1.28,0.75,2.55l-5.7,3.15v20.1C299.03,334.23,298.68,334.17,298.35,334.1z"/>
				</g>
				<g>
					<path fill="#838182" d="M328.85,306.75c0.57,0.07,1.12,0.13,1.65,0.2v1.8c-2.47,0.57-5.37,0.85-8.7,0.85
						c-3.6,0-6.7-0.15-9.3-0.45c-0.07-0.07-0.15-0.1-0.25-0.1c-1.63-0.17-2.77-0.35-3.4-0.55c-0.33-0.13-0.5-0.28-0.5-0.45
						c0-0.47,1.3-0.83,3.9-1.1c2.67-0.3,5.85-0.45,9.55-0.45c1.63,0,3.17,0.03,4.6,0.1C327.23,306.67,328.05,306.72,328.85,306.75z"
						/>
				</g>
			</g>
		</g>
	</g>
</g>
</svg>
