<?xml version="1.0" encoding="utf-8"?>
<!-- Generator: Adobe Illustrator 16.0.0, SVG Export Plug-In . SVG Version: 6.00 Build 0)  -->
<!DOCTYPE svg PUBLIC "-//W3C//DTD SVG 1.1//EN" "http://www.w3.org/Graphics/SVG/1.1/DTD/svg11.dtd">
<svg version="1.1" id="Layer_1" xmlns="http://www.w3.org/2000/svg" xmlns:xlink="http://www.w3.org/1999/xlink" x="0px" y="0px"
	 width="700px" height="700px" viewBox="0 0 700 700" enable-background="new 0 0 700 700" xml:space="preserve">
<symbol  id="screw" viewBox="-2.23 -2.525 4.46 5.052">
	<g id="Layer_2_1_">
		<path fill="#333333" d="M1.58,1.275C2,0.845,2.23,0.305,2.23-0.325s-0.22-1.149-0.65-1.55c-0.4-0.43-0.92-0.65-1.55-0.65
			c-0.63,0-1.17,0.222-1.6,0.65C-2-1.475-2.23-0.954-2.23-0.324s0.22,1.17,0.65,1.601C-1.3,1.546-1,1.726-0.63,1.826
			c0.03,0,0.07,0,0.1,0c0.2,0.068,0.38,0.1,0.55,0.1C0.66,1.926,1.18,1.706,1.58,1.275z"/>
	</g>
	<g id="Layer_1_1_">
		<linearGradient id="SVGID_1_" gradientUnits="userSpaceOnUse" x1="-2.1997" y1="0.3008" x2="2.2505" y2="0.3008">
			<stop  offset="0.0039" style="stop-color:#ABA298"/>
			<stop  offset="1" style="stop-color:#796F63"/>
		</linearGradient>
		<path fill="url(#SVGID_1_)" d="M-0.02,2.226c0.2,0.07,0.37,0.08,0.5,0.051c-0.1,0.029-0.2,0.069-0.3,0.101
			c-0.14,0.03-0.27,0.05-0.41,0.05c-0.27-0.029-0.54-0.149-0.84-0.35c-0.29-0.19-0.45-0.42-0.5-0.7c0.11,0.2,0.33,0.37,0.65,0.5
			C-0.52,2.076-0.23,2.196-0.02,2.226z M0.23,0.525v1.301h-0.55V0.525h-1.1v-0.5h1.1v-1.301h0.55v1.301h1.1v0.5H0.23z M1.58,1.876
			C2,1.446,2.23,0.906,2.23,0.275S2-0.874,1.58-1.275c-0.4-0.43-0.92-0.648-1.55-0.648c-0.63,0-1.17,0.22-1.6,0.648
			c-0.43,0.4-0.66,0.92-0.66,1.551S-2,1.446-1.57,1.876C-1.3,2.146-1,2.326-0.63,2.426c0.03,0,0.07,0,0.1,0
			c0.2,0.07,0.38,0.101,0.55,0.101C0.66,2.525,1.18,2.306,1.58,1.876z M0.77-1.624c0.2,0.1,0.37,0.2,0.5,0.3
			c0.17,0.17,0.27,0.351,0.3,0.55c-0.4-0.528-0.9-0.818-1.5-0.85c-0.1,0-0.2,0-0.3,0v-0.05c0-0.03,0-0.07,0-0.102
			C0.1-1.804,0.45-1.754,0.77-1.624z"/>
		<path fill="#AFA9A0" d="M-0.02,2.226c-0.2-0.028-0.5-0.148-0.9-0.35c-0.32-0.13-0.54-0.3-0.65-0.5c0.05,0.28,0.21,0.51,0.5,0.7
			c0.3,0.199,0.58,0.318,0.85,0.35c0.13,0,0.27-0.02,0.4-0.05c0.1-0.03,0.2-0.07,0.3-0.101C0.35,2.306,0.18,2.296-0.02,2.226z
			 M0.77-1.624c-0.33-0.13-0.67-0.18-1-0.15c0,0.03,0,0.07,0,0.102v0.05c0.1,0,0.2,0,0.3,0c0.6,0.03,1.1,0.32,1.5,0.85
			c-0.03-0.199-0.13-0.38-0.3-0.55C1.15-1.424,0.98-1.524,0.77-1.624z"/>
		<radialGradient id="SVGID_2_" cx="-0.625" cy="0.3809" r="2.2884" gradientUnits="userSpaceOnUse">
			<stop  offset="0" style="stop-color:#1C1A17"/>
			<stop  offset="1" style="stop-color:#9E948A"/>
		</radialGradient>
		<polygon fill="url(#SVGID_2_)" points="0.23,0.525 1.33,0.525 1.33,0.025 0.23,0.025 0.23,-1.274 -0.32,-1.274 -0.32,0.025 
			-1.42,0.025 -1.42,0.525 -0.32,0.525 -0.32,1.826 0.23,1.826 		"/>
	</g>
</symbol>
<g id="Layer_6">
	<g>
		<g>
			<g>
				<g>
					<g>
						
							<use xlink:href="#screw"  width="4.46" height="5.052" x="-2.23" y="-2.525" transform="matrix(-0.5328 0 0 -0.381 411.3389 633.876)" overflow="visible"/>
						<g>
							
								<linearGradient id="SVGID_3_" gradientUnits="userSpaceOnUse" x1="205.3481" y1="-181.2275" x2="237.0802" y2="-181.2275" gradientTransform="matrix(0.5909 -0.8068 -0.616 -0.8513 191.5778 597.3115)">
								<stop  offset="0.0039" style="stop-color:#000000"/>
								<stop  offset="1" style="stop-color:#000000;stop-opacity:0"/>
							</linearGradient>
							<polygon fill="url(#SVGID_3_)" points="251.35,642.85 266.65,600.95 499.85,600.95 529.75,642.85 							"/>
						</g>
					</g>
					<g>
						<path fill="#AE6320" fill-opacity="0.5216" d="M262.9,640.65h10.15L272.3,642h-8.2L262.9,640.65z M457,640.65h10.2l-0.75,1.35
							h-8.2L457,640.65z"/>
						<path fill="#7A310E" d="M458.2,633.551l12.95-0.801l1.912,0.781v7.094l-5.862,0.025H457H273.05H262.9h-10.2v-6.9
							l201.148-0.199C455.25,633.551,456.7,633.551,458.2,633.551z"/>
						
							<linearGradient id="SVGID_4_" gradientUnits="userSpaceOnUse" x1="-336.4512" y1="1231.835" x2="-236.2726" y2="1231.835" gradientTransform="matrix(-0.9546 -0.2979 -0.8398 0.7855 1120.0544 -434.4807)">
							<stop  offset="0.0039" style="stop-color:#AE6320"/>
							<stop  offset="1" style="stop-color:#DD9145"/>
						</linearGradient>
						<path fill="url(#SVGID_4_)" d="M473,633.5l-14.8,0.051c-1.5,0-2.95,0-4.352,0L252.7,633.75l10.15-32.8H458.2
							c3.398,7.771,6.35,14.38,8.85,19.851c0.07,0.17,0.15,0.33,0.25,0.5C469.63,626.4,471.53,630.47,473,633.5z"/>
						<line fill="none" x1="458.2" y1="633.551" x2="473" y2="633.5"/>
					</g>
				</g>
				<g display="none">
					
						<linearGradient id="SVGID_5_" gradientUnits="userSpaceOnUse" x1="1310.6025" y1="-300.0117" x2="1411.5018" y2="-300.0117" gradientTransform="matrix(0.9524 0.3048 0.849 -0.7783 -681.7769 -29.6357)">
						<stop  offset="0.0039" style="stop-color:#804917"/>
						<stop  offset="1" style="stop-color:#804917;stop-opacity:0"/>
					</linearGradient>
					<path display="inline" fill="url(#SVGID_5_)" d="M252.8,633.75l10.1-32.8h195.35c3.43,7.771,6.4,14.38,8.9,19.851
						c0.028,0.17,0.118,0.33,0.25,0.5c2.328,5.101,4.229,9.17,5.698,12.199L252.8,633.75z"/>
				</g>
			</g>
			<g>
				<g>
					
						<radialGradient id="SVGID_6_" cx="341.6895" cy="-438.8477" r="30.9004" fx="342.4166" fy="-438.8477" gradientTransform="matrix(-1 0 0 -0.1497 754.1895 557.6411)" gradientUnits="userSpaceOnUse">
						<stop  offset="0" style="stop-color:#000000;stop-opacity:0.5098"/>
						<stop  offset="1" style="stop-color:#000000;stop-opacity:0"/>
					</radialGradient>
					<path fill="url(#SVGID_6_)" d="M419.5,620.1c4.5,0.7,6.75,1.53,6.75,2.5c0,0.83-2.25,1.62-6.75,2.351
						c-4.47,0.7-9.88,1.05-16.25,1.05s-11.8-0.35-16.3-1.05c-4.53-0.729-6.8-1.521-6.8-2.351c0-0.97,2.27-1.8,6.8-2.5
						c4.5-0.67,9.93-1,16.3-1S415.03,619.43,419.5,620.1z"/>
				</g>
				<g>
					
						<linearGradient id="SVGID_7_" gradientUnits="userSpaceOnUse" x1="325.1895" y1="871.4609" x2="343.2895" y2="871.4609" gradientTransform="matrix(-1 0 0 1 754.1895 -693.0469)">
						<stop  offset="0" style="stop-color:#9BADAF"/>
						<stop  offset="0.5098" style="stop-color:#FBF6FC"/>
						<stop  offset="0.7451" style="stop-color:#A3A9A9"/>
						<stop  offset="0.9176" style="stop-color:#E4E7E6"/>
					</linearGradient>
					<path fill="url(#SVGID_7_)" d="M414.9,177c3.3,0.2,6.528,0.2,9.698,0h0.802c1.17,0,2.35-0.02,3.55-0.05v2.55
						c-1.771,0.101-3.5,0.181-5.2,0.25c-2.43,0.17-4.87,0.17-7.3,0v0.101c-1.87-0.07-3.75-0.181-5.65-0.351v-2.55
						C412.17,176.98,413.53,177,414.9,177z"/>
					
						<linearGradient id="SVGID_8_" gradientUnits="userSpaceOnUse" x1="330.4268" y1="896.9092" x2="337.7518" y2="896.9092" gradientTransform="matrix(-1 0 0 1 754.1895 -693.0469)">
						<stop  offset="0" style="stop-color:#56422A"/>
						<stop  offset="0.2078" style="stop-color:#422515"/>
						<stop  offset="0.4078" style="stop-color:#584131"/>
						<stop  offset="0.5882" style="stop-color:#FBF6FC"/>
						<stop  offset="0.7294" style="stop-color:#726151"/>
						<stop  offset="1" style="stop-color:#F0D8AC"/>
					</linearGradient>
					<path fill="url(#SVGID_8_)" d="M423.75,227.9c-2.37,0.1-4.8,0.1-7.3,0v-48.05v-0.101c2.43,0.17,4.87,0.17,7.3,0V227.9z"/>
					
						<linearGradient id="SVGID_9_" gradientUnits="userSpaceOnUse" x1="327.8145" y1="868.1221" x2="339.6645" y2="868.1221" gradientTransform="matrix(-1 0 0 1 754.1895 -693.0469)">
						<stop  offset="0" style="stop-color:#56422A"/>
						<stop  offset="0.3608" style="stop-color:#FBF6FC"/>
						<stop  offset="0.7529" style="stop-color:#726151"/>
						<stop  offset="0.8784" style="stop-color:#9F958A"/>
						<stop  offset="1" style="stop-color:#363636"/>
					</linearGradient>
					<path fill="url(#SVGID_9_)" d="M425.4,177H424.6c-3.17,0.2-6.398,0.2-9.698,0v-4c3.229,0.2,6.729,0.2,10.5,0L425.4,177
						L425.4,177z"/>
					
						<linearGradient id="SVGID_10_" gradientUnits="userSpaceOnUse" x1="325.1895" y1="926.0723" x2="343.2895" y2="926.0723" gradientTransform="matrix(-1 0 0 1 754.1895 -693.0469)">
						<stop  offset="0" style="stop-color:#9BADAF"/>
						<stop  offset="0.5098" style="stop-color:#FBF6FC"/>
						<stop  offset="0.7451" style="stop-color:#A3A9A9"/>
						<stop  offset="0.9176" style="stop-color:#E4E7E6"/>
					</linearGradient>
					<path fill="url(#SVGID_10_)" d="M425.9,238.3V238H425.8c-2.83,0.3-5.47,0.4-7.898,0.3c-2.472-0.069-3.882-0.1-4.25-0.1v0.15
						c-0.932-0.101-1.882-0.181-2.852-0.25v-7.75V230v-2.3c0.931,0.07,1.88,0.1,2.852,0.1c0.368,0.07,0.778,0.101,1.25,0.101
						c0.5,0,1.02,0,1.55,0c2.5,0.1,4.93,0.1,7.3,0c0.3,0,0.58,0,0.85,0h0.802c0.17,0,0.329,0,0.5,0c1.028-0.07,2.05-0.13,3.05-0.2
						v2.3v0.351v7.35c0.528,0.03,1.1,0.12,1.7,0.25c-0.57,0-1.132,0-1.7,0v0.15C427.75,238.17,426.73,238.23,425.9,238.3z"/>
					
						<linearGradient id="SVGID_11_" gradientUnits="userSpaceOnUse" x1="328.2891" y1="947.4473" x2="340.5891" y2="947.4473" gradientTransform="matrix(-1 0 0 1 754.1895 -693.0469)">
						<stop  offset="0" style="stop-color:#56422A"/>
						<stop  offset="0.2078" style="stop-color:#422515"/>
						<stop  offset="0.4078" style="stop-color:#584131"/>
						<stop  offset="0.5882" style="stop-color:#FBF6FC"/>
						<stop  offset="0.7294" style="stop-color:#726151"/>
						<stop  offset="1" style="stop-color:#F0D8AC"/>
					</linearGradient>
					<path fill="url(#SVGID_11_)" d="M425.9,270.8h-12.25v-15.55v-16.9v-0.15c0.368,0,1.778,0.03,4.25,0.1
						c2.43,0.101,5.068,0,7.898-0.3h0.102v0.3v16.95V270.8z"/>
					
						<linearGradient id="SVGID_12_" gradientUnits="userSpaceOnUse" x1="328.2891" y1="1140.709" x2="340.5891" y2="1140.709" gradientTransform="matrix(-1 0 0 1 754.1895 -693.0469)">
						<stop  offset="0" style="stop-color:#56422A"/>
						<stop  offset="0.2078" style="stop-color:#422515"/>
						<stop  offset="0.4078" style="stop-color:#584131"/>
						<stop  offset="0.5882" style="stop-color:#FBF6FC"/>
						<stop  offset="0.7294" style="stop-color:#726151"/>
						<stop  offset="1" style="stop-color:#F0D8AC"/>
					</linearGradient>
					<path fill="url(#SVGID_12_)" d="M413.65,270.8h12.25V623c-3.972,2.03-8.052,2.03-12.25,0V270.8z"/>
				</g>
				<g>
					<line fill="none" x1="423.5" y1="235.15" x2="423.5" y2="619.1"/>
				</g>
			</g>
		</g>
		<g>
			<g>
				
					<linearGradient id="SVGID_13_" gradientUnits="userSpaceOnUse" x1="825.8613" y1="-268.2402" x2="847.3036" y2="-268.2402" gradientTransform="matrix(0.9176 0.3976 0.3007 -0.9596 -408.5259 5.0694)">
					<stop  offset="0" style="stop-color:#020202;stop-opacity:0"/>
					<stop  offset="1" style="stop-color:#000000"/>
				</linearGradient>
				<polygon fill="url(#SVGID_13_)" points="264.95,605.7 392.6,605.95 394.95,624.9 258.15,624.9 				"/>
			</g>
			<g>
				
					<linearGradient id="SVGID_14_" gradientUnits="userSpaceOnUse" x1="578.6104" y1="-266.5474" x2="705.5605" y2="-266.5474" gradientTransform="matrix(1 0 0 -1 -312.8105 235.9531)">
					<stop  offset="0" style="stop-color:#A09D94"/>
					<stop  offset="0.9922" style="stop-color:#848074"/>
				</linearGradient>
				<polygon fill="url(#SVGID_14_)" points="392.75,509.45 265.8,509.45 274.25,495.551 382.6,495.551 				"/>
				
					<linearGradient id="SVGID_15_" gradientUnits="userSpaceOnUse" x1="582.6104" y1="-301.272" x2="701.5605" y2="-301.272" gradientTransform="matrix(1 0 0 -1 -312.8105 235.9531)">
					<stop  offset="0" style="stop-color:#A0A4A5"/>
					<stop  offset="0.3529" style="stop-color:#B0B5B9"/>
					<stop  offset="0.5529" style="stop-color:#C8CECE"/>
					<stop  offset="0.7098" style="stop-color:#A79CA0"/>
					<stop  offset="0.8235" style="stop-color:#969194"/>
					<stop  offset="0.9137" style="stop-color:#BBBBBB"/>
					<stop  offset="1" style="stop-color:#7A7E7F"/>
				</linearGradient>
				<polygon fill="url(#SVGID_15_)" points="269.8,535.25 388.75,535.25 387.45,539.2 384.05,539.2 272.2,539.2 270.25,539.2 				
					"/>
				<polygon fill="#B8B7B3" points="271.45,534.25 384,534.25 384.75,534.75 387.9,534.75 388.75,535.25 269.8,535.25 				"/>
				<polygon fill="#2E2828" points="272.55,533.65 382.7,533.65 384,534.25 271.45,534.25 				"/>
				<polygon fill="#A3A2A0" points="382.7,533.65 272.55,533.65 270.25,533.65 270.25,532.95 386.9,532.95 386.9,533.65 				"/>
				
					<linearGradient id="SVGID_16_" gradientUnits="userSpaceOnUse" x1="641.3857" y1="-293.9219" x2="641.3857" y2="-295.6719" gradientTransform="matrix(1 0 0 -1 -312.8105 235.9531)">
					<stop  offset="0" style="stop-color:#413F3F"/>
					<stop  offset="0.0941" style="stop-color:#86827F"/>
					<stop  offset="0.9922" style="stop-color:#85817E"/>
				</linearGradient>
				<polygon fill="url(#SVGID_16_)" points="273.55,528.6 383.45,528.6 386.9,532.95 270.25,532.95 				"/>
				
					<linearGradient id="SVGID_17_" gradientUnits="userSpaceOnUse" x1="642.0859" y1="-292.3965" x2="642.0859" y2="-273.1965" gradientTransform="matrix(1 0 0 -1 -312.8105 235.9531)">
					<stop  offset="0" style="stop-color:#535548"/>
					<stop  offset="0.8235" style="stop-color:#959492"/>
					<stop  offset="0.898" style="stop-color:#FFFEFD"/>
					<stop  offset="0.9451" style="stop-color:#484848"/>
					<stop  offset="0.9882" style="stop-color:#89857A"/>
				</linearGradient>
				<polygon fill="url(#SVGID_17_)" points="383.45,528.6 273.55,528.6 265.8,528.6 265.8,509.45 392.75,509.45 392.75,528.6 				
					"/>
				<path fill="#EBEFF0" d="M353.05,604.2h-86.3h-0.85h-0.95l0.55-6.851h84.9l-2.2-40.899h-6.65c0-0.029,0-0.08,0-0.149
					c0-0.801-0.28-1.479-0.85-2.051c-0.5-0.5-1.15-0.75-1.95-0.75c-0.73,0-1.38,0.25-1.95,0.75c-0.57,0.57-0.85,1.25-0.85,2.051
					v0.149h-12.7c-0.07-0.67-0.33-1.229-0.8-1.7c-0.57-0.5-1.222-0.75-1.95-0.75c-0.73,0-1.352,0.25-1.852,0.75
					c-0.528,0.471-0.8,1.03-0.8,1.7h-0.05h-49.7l0.7-11.55h80.75l0.2,1.949h21.6L371.2,544.9h17.05l1.25,10.399H374v0.05l4.1,41.4
					h16.45l0.95,7.449h-2h-16.95l-4.648-48.851H349.8L353.05,604.2z"/>
				
					<linearGradient id="SVGID_18_" gradientUnits="userSpaceOnUse" x1="578.2227" y1="-340.9468" x2="663.123" y2="-340.9468" gradientTransform="matrix(1 0 0 -1 -312.8105 235.9531)">
					<stop  offset="0" style="stop-color:#459AD0"/>
					<stop  offset="1" style="stop-color:#72AFDB"/>
				</linearGradient>
				<path fill="url(#SVGID_18_)" d="M335.95,556.45c0.03,0.7,0.319,1.3,0.85,1.8c0.57,0.57,1.222,0.851,1.95,0.851
					c0.8,0,1.45-0.279,1.95-0.851c0.5-0.5,0.78-1.1,0.85-1.8h6.65l2.2,40.899h-84.9l2.6-40.899h49.7v0.2
					c0,0.8,0.28,1.449,0.852,1.949c0.5,0.5,1.12,0.75,1.85,0.75c0.73,0,1.38-0.25,1.95-0.75c0.53-0.5,0.8-1.149,0.8-1.949
					c0-0.07,0-0.131,0-0.2H335.95z"/>
				<path fill="#7B7273" d="M318.7,556.45c0-0.431,0.18-0.851,0.55-1.25c0.4-0.33,0.85-0.5,1.35-0.5s0.95,0.17,1.352,0.5
					c0.33,0.399,0.5,0.819,0.5,1.25v0.101c0,0.5-0.17,0.949-0.5,1.351c-0.4,0.399-0.852,0.6-1.352,0.6s-0.948-0.199-1.35-0.6
					c-0.37-0.4-0.55-0.851-0.55-1.351V556.45z"/>
				
					<linearGradient id="SVGID_19_" gradientUnits="userSpaceOnUse" x1="641.3359" y1="-302.834" x2="641.3359" y2="-309.3591" gradientTransform="matrix(1 0 0 -1 -312.8105 235.9531)">
					<stop  offset="0" style="stop-color:#2C2929"/>
					<stop  offset="0.1255" style="stop-color:#151618"/>
					<stop  offset="0.2588" style="stop-color:#86827F"/>
					<stop  offset="0.6941" style="stop-color:#86827F"/>
					<stop  offset="0.7843" style="stop-color:#B3BBBE"/>
					<stop  offset="0.9922" style="stop-color:#919AA1"/>
				</linearGradient>
				<polygon fill="url(#SVGID_19_)" points="272.2,539.2 384.05,539.2 388.25,544.9 371.2,544.9 349.55,544.9 268.8,544.9 				"/>
				<polygon fill="#6A7885" points="266.75,604.2 353.05,604.2 376.55,604.2 393.5,604.2 395.5,604.2 393.85,624.2 267.1,624.2 
					265.9,604.2 				"/>
				<path fill="#3F97C9" d="M349.55,544.9h21.65l0.148,1.949h-21.6L349.55,544.9z M376.55,604.2h-23.5l-3.25-48.851H371.9
					L376.55,604.2z"/>
				<path fill="#F9FFCA" d="M338.75,554.25c0.5,0,0.95,0.171,1.35,0.5c0.33,0.4,0.5,0.87,0.5,1.4c0,0.1,0,0.199,0,0.3
					c-0.028,0.399-0.198,0.75-0.5,1.05c-0.398,0.4-0.85,0.601-1.35,0.601c-0.57,0-1.02-0.199-1.35-0.601
					c-0.302-0.3-0.48-0.649-0.552-1.05c-0.028-0.101-0.05-0.2-0.05-0.3c0-0.53,0.2-1,0.602-1.4
					C337.73,554.421,338.18,554.25,338.75,554.25z"/>
				<polygon fill="#3991C3" points="394.55,596.75 378.1,596.75 374,555.35 374,555.301 389.5,555.301 				"/>
				<path fill="none" d="M376.55,604.2h16.95 M376.55,604.2h-23.5h-86.3"/>
			</g>
			<g>
				<path fill="#DEE7E4" d="M371.87,579.77c-0.18,0.181-0.392,0.261-0.65,0.261c-0.25,0-0.47-0.09-0.648-0.261
					c-0.182-0.17-0.262-0.39-0.262-0.649s0.092-0.47,0.262-0.649c0.17-0.17,0.39-0.26,0.648-0.26c0.262,0,0.472,0.09,0.65,0.26
					c0.17,0.181,0.26,0.391,0.26,0.649C372.13,579.381,372.04,579.591,371.87,579.77z"/>
				<g>
					<path fill="#EFF3F4" d="M352.2,563.35c2.8-2.83,6.18-4.25,10.148-4.25c3.972,0,7.37,1.42,10.2,4.25
						c2.83,2.801,4.25,6.181,4.25,10.149c0,3.971-1.42,7.381-4.25,10.25c-2.83,2.83-6.229,4.25-10.2,4.25
						c-3.97,0-7.35-1.42-10.148-4.25c-2.83-2.869-4.25-6.279-4.25-10.25C347.95,569.53,349.37,566.15,352.2,563.35z M353.25,564.5
						c-2.47,2.5-3.7,5.5-3.7,9c0,3.53,1.23,6.551,3.7,9.051c2.5,2.5,5.5,3.75,9,3.75c3.53,0,6.52-1.25,8.95-3.75
						c2.5-2.5,3.75-5.521,3.75-9.051c0-3.5-1.25-6.5-3.75-9c-2.431-2.47-5.42-3.699-8.95-3.699
						C358.75,560.801,355.75,562.03,353.25,564.5z"/>
					<path fill="#63A2CD" d="M353.25,564.5c2.5-2.47,5.5-3.699,9-3.699c3.53,0,6.52,1.229,8.95,3.699c2.5,2.5,3.75,5.5,3.75,9
						c0,3.53-1.25,6.551-3.75,9.051c-2.431,2.5-5.42,3.75-8.95,3.75c-3.5,0-6.5-1.25-9-3.75c-2.47-2.5-3.7-5.521-3.7-9.051
						C349.55,570,350.78,567,353.25,564.5z"/>
				</g>
				<path fill="#DEE7E4" d="M352.1,574.24c-0.068,0.069-0.158,0.109-0.27,0.109s-0.19-0.04-0.271-0.109
					c-0.078-0.069-0.108-0.16-0.108-0.271c0-0.109,0.04-0.189,0.108-0.271c0.07-0.08,0.16-0.109,0.271-0.109
					c0.1,0,0.189,0.04,0.27,0.109s0.11,0.16,0.11,0.271S352.17,574.16,352.1,574.24z"/>
				<path fill="#DEE7E4" d="M352.36,571.33c-0.092,0.091-0.2,0.131-0.33,0.131s-0.24-0.04-0.33-0.131
					c-0.09-0.09-0.13-0.199-0.13-0.33c0-0.13,0.04-0.239,0.13-0.329c0.09-0.091,0.2-0.131,0.33-0.131s0.238,0.04,0.33,0.131
					c0.09,0.09,0.13,0.199,0.13,0.329C352.49,571.131,352.45,571.24,352.36,571.33z"/>
				
					<linearGradient id="SVGID_20_" gradientUnits="userSpaceOnUse" x1="661.5322" y1="-432.9863" x2="699.0273" y2="-432.9863" gradientTransform="matrix(0.4699 0 0 -0.4699 42.8474 370.0212)">
					<stop  offset="0" style="stop-color:#191923"/>
					<stop  offset="0.4588" style="stop-color:#2A3342"/>
					<stop  offset="0.9922" style="stop-color:#0D0E10"/>
				</linearGradient>
				<path fill="url(#SVGID_20_)" d="M368.74,579.711c-1.722,1.72-3.8,2.58-6.23,2.58c-2.43,0-4.5-0.86-6.229-2.58
					c-1.722-1.721-2.58-3.801-2.58-6.229c0-2.43,0.858-4.5,2.58-6.229c1.72-1.721,3.8-2.58,6.229-2.58c2.432,0,4.5,0.859,6.23,2.58
					c1.72,1.72,2.58,3.8,2.58,6.229C371.32,575.91,370.46,577.99,368.74,579.711z"/>
				<path fill="#DEE7E4" d="M370.27,566.37c-0.18,0.181-0.39,0.261-0.648,0.261s-0.47-0.091-0.65-0.261
					c-0.18-0.17-0.26-0.39-0.26-0.649c0-0.259,0.09-0.471,0.26-0.649c0.17-0.18,0.392-0.261,0.65-0.261s0.47,0.091,0.648,0.261
					c0.182,0.17,0.262,0.391,0.262,0.649C370.531,565.98,370.44,566.19,370.27,566.37z"/>
				<path fill="#DEE7E4" d="M367.27,564.421c-0.18,0.18-0.39,0.26-0.648,0.26s-0.47-0.09-0.65-0.26
					c-0.18-0.171-0.26-0.391-0.26-0.649c0-0.26,0.09-0.471,0.26-0.65s0.392-0.26,0.65-0.26s0.47,0.09,0.648,0.26
					c0.182,0.17,0.262,0.391,0.262,0.65C367.531,564.03,367.44,564.24,367.27,564.421z"/>
				<path fill="#DEE7E4" d="M363.77,563.32c-0.18,0.18-0.39,0.26-0.648,0.26s-0.47-0.09-0.65-0.26c-0.18-0.17-0.26-0.391-0.26-0.649
					c0-0.261,0.09-0.471,0.26-0.649c0.182-0.171,0.392-0.261,0.65-0.261s0.47,0.09,0.648,0.261c0.182,0.18,0.262,0.39,0.262,0.649
					C364.03,562.93,363.94,563.14,363.77,563.32z"/>
				<path fill="#DEE7E4" d="M355.46,565.9c-0.12,0.119-0.27,0.18-0.45,0.18c-0.18,0-0.33-0.061-0.45-0.18
					c-0.118-0.12-0.18-0.271-0.18-0.45c0-0.181,0.062-0.33,0.18-0.45c0.12-0.119,0.271-0.189,0.45-0.189
					c0.182,0,0.33,0.061,0.45,0.189c0.12,0.12,0.18,0.271,0.18,0.45C355.64,565.62,355.58,565.78,355.46,565.9z"/>
				<path fill="#DEE7E4" d="M353.36,568.68c-0.102,0.101-0.23,0.16-0.382,0.16c-0.148,0-0.278-0.051-0.38-0.16
					c-0.1-0.109-0.158-0.229-0.158-0.38c0-0.149,0.05-0.28,0.158-0.38c0.102-0.101,0.23-0.16,0.38-0.16c0.15,0,0.28,0.05,0.382,0.16
					c0.1,0.1,0.148,0.229,0.148,0.38C353.51,568.45,353.46,568.58,353.36,568.68z"/>
				<path fill="#DEE7E4" d="M359.42,563.671c-0.148,0.149-0.33,0.22-0.55,0.22c-0.21,0-0.4-0.069-0.54-0.22
					c-0.15-0.149-0.22-0.33-0.22-0.54s0.068-0.399,0.22-0.54c0.15-0.149,0.33-0.221,0.54-0.221c0.22,0,0.399,0.07,0.55,0.221
					c0.15,0.149,0.22,0.33,0.22,0.54S359.57,563.52,359.42,563.671z"/>
				<path fill="#141517" d="M368.58,576.43c-1.63,1.62-3.58,2.439-5.87,2.439s-4.25-0.811-5.87-2.439
					c-1.63-1.62-2.438-3.58-2.438-5.87s0.81-4.25,2.438-5.869c1.62-1.62,3.58-2.44,5.87-2.44s4.25,0.811,5.87,2.44
					c1.62,1.619,2.438,3.579,2.438,5.869S370.21,574.81,368.58,576.43z"/>
				
					<linearGradient id="SVGID_21_" gradientUnits="userSpaceOnUse" x1="1503.2783" y1="530.5957" x2="1528.9783" y2="530.5957" gradientTransform="matrix(-3.896036e-004 0.4005 0.4005 -1.555390e-005 150.8148 -33.4552)">
					<stop  offset="0" style="stop-color:#262A29"/>
					<stop  offset="1" style="stop-color:#070A0A"/>
				</linearGradient>
				<path fill="url(#SVGID_21_)" d="M371.04,570.6c0,2.301-0.81,4.25-2.44,5.87c-1.63,1.63-3.578,2.439-5.868,2.439
					c-2.302,0-4.25-0.811-5.87-2.439c-1.63-1.62-2.44-3.569-2.44-5.87c0-0.699,0.08-1.369,0.23-2h6.38v2h3.2v-2h6.579
					C370.96,569.23,371.04,569.9,371.04,570.6z"/>
				<polyline fill="none" points="361.2,569.73 361.2,570.37 364.41,570.37 364.41,569.73 				"/>
				<path fill="none" d="M370.86,572.91c-0.392,1.24-1.08,2.359-2.08,3.37c-1.63,1.63-3.58,2.439-5.87,2.439
					c-2.3,0-4.25-0.811-5.87-2.439c-1.6-1.591-2.42-3.511-2.44-5.771c0-0.03,0-0.061,0-0.101c0-0.21,0.012-0.431,0.021-0.641"/>
				<path fill="#DEE7E4" d="M373.32,576.12c-0.182,0.181-0.392,0.261-0.65,0.261c-0.25,0-0.47-0.091-0.648-0.261
					c-0.182-0.18-0.262-0.39-0.262-0.649c0-0.259,0.09-0.471,0.262-0.649c0.17-0.181,0.39-0.261,0.648-0.261s0.47,0.091,0.65,0.261
					c0.17,0.18,0.26,0.391,0.26,0.649C373.58,575.73,373.49,575.94,373.32,576.12z"/>
				<path fill="#DEE7E4" d="M373.52,572.421c-0.18,0.18-0.39,0.26-0.648,0.26s-0.47-0.09-0.65-0.26
					c-0.18-0.171-0.26-0.391-0.26-0.649c0-0.26,0.09-0.471,0.26-0.65s0.392-0.26,0.65-0.26s0.47,0.09,0.648,0.26
					c0.182,0.17,0.262,0.391,0.262,0.65C373.781,572.03,373.69,572.24,373.52,572.421z"/>
				<path fill="#DEE7E4" d="M372.47,569.22c-0.18,0.181-0.39,0.261-0.648,0.261c-0.262,0-0.472-0.091-0.65-0.261
					s-0.26-0.391-0.26-0.649c0-0.26,0.09-0.471,0.26-0.65c0.18-0.17,0.39-0.26,0.65-0.26c0.26,0,0.47,0.09,0.648,0.26
					c0.182,0.181,0.262,0.391,0.262,0.65C372.731,568.829,372.64,569.04,372.47,569.22z"/>
				<path fill="#DEE7E4" d="M352.58,576.91c-0.05,0.051-0.11,0.08-0.19,0.08s-0.14-0.029-0.188-0.08
					c-0.05-0.05-0.08-0.109-0.08-0.189s0.03-0.141,0.08-0.189s0.108-0.08,0.188-0.08s0.142,0.029,0.19,0.08
					c0.049,0.05,0.08,0.109,0.08,0.189S352.63,576.86,352.58,576.91z"/>
				
					<radialGradient id="SVGID_22_" cx="953.1973" cy="-1468.1528" r="3.0005" gradientTransform="matrix(0.5351 0.2167 0.0727 -0.1794 -44.1054 107.9758)" gradientUnits="userSpaceOnUse">
					<stop  offset="0" style="stop-color:#FFFFFF"/>
					<stop  offset="0.2902" style="stop-color:#FEFEFE"/>
					<stop  offset="0.4941" style="stop-color:#FAFAFA;stop-opacity:0.502"/>
					<stop  offset="0.7255" style="stop-color:#F6F6F6;stop-opacity:0.1216"/>
					<stop  offset="1" style="stop-color:#F2F2F2;stop-opacity:0"/>
					<stop  offset="1" style="stop-color:#F2F2F2;stop-opacity:0"/>
				</radialGradient>
				<path fill="url(#SVGID_22_)" d="M360.15,578.74c-0.352-0.01-0.73-0.109-1.16-0.279c-0.432-0.171-0.78-0.381-1.062-0.62
					c-0.26-0.221-0.358-0.41-0.31-0.551c0.06-0.14,0.26-0.21,0.608-0.189c0.36,0.03,0.762,0.13,1.182,0.301
					c0.43,0.17,0.77,0.369,1.04,0.6c0.278,0.24,0.39,0.431,0.33,0.57S360.51,578.77,360.15,578.74z"/>
			</g>
			<g>
				<path fill="#DEE7E4" d="M304.67,579.77c-0.18,0.181-0.39,0.261-0.65,0.261c-0.26,0-0.47-0.09-0.65-0.261
					c-0.18-0.17-0.26-0.39-0.26-0.649s0.09-0.47,0.26-0.649c0.18-0.17,0.39-0.26,0.65-0.26c0.26,0,0.47,0.09,0.65,0.26
					c0.18,0.181,0.26,0.391,0.26,0.649C304.93,579.381,304.84,579.591,304.67,579.77z"/>
				<g>
					<path fill="#EFF3F4" d="M295.05,559.1c4.03,0,7.43,1.42,10.2,4.25c2.83,2.801,4.25,6.181,4.25,10.149
						c0,3.971-1.42,7.381-4.25,10.25c-2.77,2.83-6.17,4.25-10.2,4.25c-3.97,0-7.35-1.42-10.15-4.25
						c-2.83-2.869-4.25-6.279-4.25-10.25c0-3.97,1.42-7.35,4.25-10.149C287.7,560.52,291.08,559.1,295.05,559.1z M294.95,560.801
						c-3.53,0-6.55,1.229-9.05,3.699c-2.43,2.5-3.65,5.5-3.65,9c0,3.53,1.22,6.551,3.65,9.051c2.5,2.5,5.52,3.75,9.05,3.75
						c3.53,0,6.55-1.25,9.05-3.75s3.75-5.521,3.75-9.051c0-3.5-1.25-6.5-3.75-9C301.5,562.03,298.48,560.801,294.95,560.801z"/>
					<path fill="#63A2CD" d="M294.95,560.801c3.53,0,6.55,1.229,9.05,3.699c2.5,2.5,3.75,5.5,3.75,9c0,3.53-1.25,6.551-3.75,9.051
						s-5.52,3.75-9.05,3.75c-3.53,0-6.55-1.25-9.05-3.75c-2.43-2.5-3.65-5.521-3.65-9.051c0-3.5,1.22-6.5,3.65-9
						C288.4,562.03,291.42,560.801,294.95,560.801z"/>
				</g>
				<path fill="#DEE7E4" d="M284.8,574.24c-0.07,0.069-0.16,0.109-0.27,0.109c-0.1,0-0.19-0.04-0.27-0.109
					c-0.08-0.069-0.11-0.16-0.11-0.271c0-0.109,0.04-0.189,0.11-0.271c0.07-0.08,0.16-0.109,0.27-0.109c0.11,0,0.19,0.04,0.27,0.109
					c0.07,0.069,0.11,0.16,0.11,0.271S284.87,574.16,284.8,574.24z"/>
				<path fill="#DEE7E4" d="M285.06,571.33c-0.09,0.091-0.2,0.131-0.33,0.131s-0.24-0.04-0.33-0.131
					c-0.09-0.09-0.13-0.199-0.13-0.33c0-0.13,0.04-0.239,0.13-0.329c0.09-0.091,0.2-0.131,0.33-0.131s0.24,0.04,0.33,0.131
					c0.09,0.09,0.13,0.199,0.13,0.329C285.19,571.131,285.15,571.24,285.06,571.33z"/>
				
					<linearGradient id="SVGID_23_" gradientUnits="userSpaceOnUse" x1="661.5283" y1="-432.9863" x2="699.0254" y2="-432.9863" gradientTransform="matrix(0.4699 0 0 -0.4699 -24.4524 370.0212)">
					<stop  offset="0" style="stop-color:#191923"/>
					<stop  offset="0.4588" style="stop-color:#2A3342"/>
					<stop  offset="0.9922" style="stop-color:#0D0E10"/>
				</linearGradient>
				<path fill="url(#SVGID_23_)" d="M301.44,579.711c-1.72,1.72-3.8,2.58-6.23,2.58s-4.5-0.86-6.23-2.58
					c-1.72-1.721-2.58-3.801-2.58-6.229c0-2.43,0.86-4.5,2.58-6.229c1.72-1.721,3.8-2.58,6.23-2.58s4.5,0.859,6.23,2.58
					c1.72,1.72,2.58,3.8,2.58,6.229C304.02,575.91,303.16,577.99,301.44,579.711z"/>
				<path fill="#DEE7E4" d="M303.07,566.37c-0.18,0.181-0.39,0.261-0.65,0.261c-0.26,0-0.47-0.091-0.65-0.261s-0.26-0.39-0.26-0.649
					c0-0.259,0.09-0.471,0.26-0.649c0.17-0.18,0.39-0.261,0.65-0.261c0.26,0,0.47,0.091,0.65,0.261c0.18,0.17,0.26,0.391,0.26,0.649
					C303.33,565.98,303.24,566.19,303.07,566.37z"/>
				<path fill="#DEE7E4" d="M299.97,564.421c-0.18,0.18-0.39,0.26-0.65,0.26c-0.26,0-0.47-0.09-0.65-0.26
					c-0.18-0.171-0.26-0.391-0.26-0.649c0-0.26,0.09-0.471,0.26-0.65s0.39-0.26,0.65-0.26c0.26,0,0.47,0.09,0.65,0.26
					c0.18,0.17,0.26,0.391,0.26,0.65C300.23,564.03,300.14,564.24,299.97,564.421z"/>
				<path fill="#DEE7E4" d="M296.47,563.32c-0.18,0.18-0.39,0.26-0.65,0.26c-0.26,0-0.47-0.09-0.65-0.26
					c-0.18-0.17-0.26-0.391-0.26-0.649c0-0.261,0.09-0.471,0.26-0.649c0.18-0.171,0.39-0.261,0.65-0.261
					c0.26,0,0.47,0.09,0.65,0.261c0.18,0.18,0.26,0.39,0.26,0.649C296.73,562.93,296.64,563.14,296.47,563.32z"/>
				<path fill="#DEE7E4" d="M288.26,565.9c-0.12,0.119-0.27,0.18-0.45,0.18s-0.33-0.061-0.45-0.18c-0.12-0.12-0.18-0.271-0.18-0.45
					c0-0.181,0.06-0.33,0.18-0.45c0.12-0.119,0.27-0.189,0.45-0.189s0.33,0.061,0.45,0.189c0.12,0.131,0.18,0.271,0.18,0.45
					C288.44,565.62,288.38,565.78,288.26,565.9z"/>
				<path fill="#DEE7E4" d="M286.11,568.68c-0.1,0.101-0.23,0.16-0.38,0.16s-0.28-0.051-0.38-0.16s-0.16-0.229-0.16-0.38
					c0-0.149,0.05-0.28,0.16-0.38c0.1-0.101,0.23-0.16,0.38-0.16s0.28,0.05,0.38,0.16c0.1,0.1,0.16,0.229,0.16,0.38
					S286.22,568.58,286.11,568.68z"/>
				<path fill="#DEE7E4" d="M292.12,563.671c-0.15,0.149-0.33,0.22-0.55,0.22c-0.22,0-0.4-0.069-0.54-0.22
					c-0.15-0.149-0.22-0.33-0.22-0.54s0.07-0.399,0.22-0.54c0.15-0.149,0.33-0.221,0.54-0.221c0.21,0,0.4,0.07,0.55,0.221
					c0.15,0.149,0.22,0.33,0.22,0.54S292.27,563.52,292.12,563.671z"/>
				<path fill="#141517" d="M301.38,576.43c-1.62,1.62-3.58,2.439-5.87,2.439c-2.29,0-4.25-0.811-5.87-2.439
					c-1.62-1.62-2.44-3.58-2.44-5.87s0.81-4.25,2.44-5.869c1.62-1.62,3.58-2.44,5.87-2.44c2.29,0,4.25,0.811,5.87,2.44
					c1.62,1.619,2.44,3.579,2.44,5.869S303,574.81,301.38,576.43z"/>
				
					<linearGradient id="SVGID_24_" gradientUnits="userSpaceOnUse" x1="1503.2783" y1="530.5938" x2="1528.9792" y2="530.5938" gradientTransform="matrix(-3.896036e-004 0.4005 0.4005 -1.555390e-005 83.515 -33.4552)">
					<stop  offset="0" style="stop-color:#262A29"/>
					<stop  offset="1" style="stop-color:#070A0A"/>
				</linearGradient>
				<path fill="url(#SVGID_24_)" d="M303.74,570.6c0,2.301-0.81,4.25-2.44,5.87c-1.63,1.63-3.58,2.439-5.87,2.439
					c-2.3,0-4.25-0.811-5.87-2.439c-1.63-1.62-2.44-3.569-2.44-5.87c0-0.699,0.08-1.369,0.23-2h6.38v2h3.2v-2h6.58
					C303.66,569.23,303.74,569.9,303.74,570.6z"/>
				<polyline fill="none" points="293.9,569.73 293.9,570.37 297.11,570.37 297.11,569.73 				"/>
				<path fill="none" d="M303.56,572.91c-0.39,1.24-1.08,2.359-2.08,3.37c-1.63,1.63-3.58,2.439-5.87,2.439
					c-2.3,0-4.25-0.811-5.87-2.439c-1.6-1.591-2.42-3.511-2.44-5.771c0-0.03,0-0.061,0-0.101c0-0.21,0.01-0.431,0.02-0.641"/>
				<path fill="#DEE7E4" d="M306.02,576.12c-0.18,0.181-0.39,0.261-0.649,0.261c-0.26,0-0.47-0.091-0.65-0.261
					c-0.18-0.17-0.26-0.39-0.26-0.649c0-0.259,0.09-0.471,0.26-0.649c0.17-0.181,0.39-0.261,0.65-0.261
					c0.26,0,0.47,0.091,0.649,0.261c0.181,0.17,0.261,0.391,0.261,0.649C306.28,575.73,306.19,575.94,306.02,576.12z"/>
				<path fill="#DEE7E4" d="M306.22,572.421c-0.18,0.18-0.39,0.26-0.65,0.26c-0.26,0-0.47-0.09-0.65-0.26
					c-0.18-0.171-0.26-0.391-0.26-0.649c0-0.26,0.09-0.471,0.26-0.65s0.39-0.26,0.65-0.26c0.26,0,0.47,0.09,0.65,0.26
					c0.181,0.17,0.261,0.391,0.261,0.65C306.48,572.03,306.39,572.24,306.22,572.421z"/>
				<path fill="#DEE7E4" d="M305.27,569.22c-0.18,0.181-0.39,0.261-0.65,0.261c-0.26,0-0.47-0.091-0.65-0.261
					c-0.18-0.17-0.26-0.391-0.26-0.649c0-0.26,0.09-0.471,0.26-0.65c0.18-0.17,0.39-0.26,0.65-0.26c0.26,0,0.47,0.09,0.65,0.26
					c0.18,0.181,0.26,0.391,0.26,0.65C305.53,568.829,305.44,569.04,305.27,569.22z"/>
				<path fill="#DEE7E4" d="M285.28,576.91c-0.05,0.051-0.11,0.08-0.19,0.08s-0.14-0.029-0.19-0.08
					c-0.05-0.05-0.08-0.109-0.08-0.189s0.03-0.141,0.08-0.189c0.05-0.051,0.11-0.08,0.19-0.08s0.14,0.029,0.19,0.08
					c0.05,0.05,0.08,0.109,0.08,0.189S285.33,576.86,285.28,576.91z"/>
				
					<radialGradient id="SVGID_25_" cx="953.1963" cy="-1468.1519" r="3.0005" gradientTransform="matrix(0.5351 0.2167 0.0727 -0.1794 -111.4062 107.9758)" gradientUnits="userSpaceOnUse">
					<stop  offset="0" style="stop-color:#FFFFFF"/>
					<stop  offset="0.2902" style="stop-color:#FEFEFE"/>
					<stop  offset="0.4941" style="stop-color:#FAFAFA;stop-opacity:0.502"/>
					<stop  offset="0.7255" style="stop-color:#F6F6F6;stop-opacity:0.1216"/>
					<stop  offset="1" style="stop-color:#F2F2F2;stop-opacity:0"/>
					<stop  offset="1" style="stop-color:#F2F2F2;stop-opacity:0"/>
				</radialGradient>
				<path fill="url(#SVGID_25_)" d="M292.85,578.74c-0.35-0.01-0.73-0.109-1.16-0.279c-0.43-0.171-0.78-0.381-1.06-0.62
					c-0.26-0.221-0.36-0.41-0.31-0.551c0.05-0.14,0.26-0.21,0.61-0.189c0.36,0.03,0.76,0.13,1.19,0.301
					c0.43,0.17,0.77,0.369,1.03,0.6c0.28,0.24,0.39,0.431,0.33,0.57S293.21,578.77,292.85,578.74z"/>
			</g>
			<g>
				
					<linearGradient id="SVGID_26_" gradientUnits="userSpaceOnUse" x1="437.8379" y1="-526.1558" x2="437.3272" y2="-562.7592" gradientTransform="matrix(0.4005 0 0 -0.4005 155.3728 365.738)">
					<stop  offset="0" style="stop-color:#595C65"/>
					<stop  offset="0.9725" style="stop-color:#5F5E5C"/>
					<stop  offset="1" style="stop-color:#808080"/>
				</linearGradient>
				<path fill="url(#SVGID_26_)" d="M334.43,576.06c0.53,0,0.801,0.271,0.801,0.801l0.319,13.859c0,0.529-0.27,0.8-0.8,0.8h-8.41
					c-0.53,0-0.8-0.271-0.8-0.8l0.16-13.859c0-0.53,0.27-0.801,0.8-0.801H334.43z"/>
				<path fill="none" stroke="#202334" stroke-linecap="round" stroke-linejoin="round" stroke-miterlimit="3" d="M334.43,576.06
					h-7.93c-0.53,0-0.8,0.271-0.8,0.801l-0.16,13.859c0,0.529,0.27,0.8,0.8,0.8h8.41c0.53,0,0.8-0.271,0.8-0.8l-0.319-13.859
					C335.23,576.33,334.96,576.06,334.43,576.06z"/>
				<path d="M333.3,578.35c0.562,0,0.84,0.271,0.84,0.801l0.33,6.59l-0.33,2.779c0,0.53-0.278,0.801-0.84,0.801h-5.27
					c-0.562,0-0.84-0.271-0.84-0.801l-0.33-2.539l0.33-6.83c0-0.54,0.278-0.801,0.84-0.801H333.3L333.3,578.35z"/>
				
					<linearGradient id="SVGID_27_" gradientUnits="userSpaceOnUse" x1="483.5264" y1="-545.2539" x2="483.5983" y2="-570.3549" gradientTransform="matrix(0.4005 0 0 -0.4005 136.9724 360.4382)">
					<stop  offset="0" style="stop-color:#FB4A42"/>
					<stop  offset="0.6784" style="stop-color:#FA170E"/>
					<stop  offset="0.7373" style="stop-color:#FF6458"/>
					<stop  offset="0.7882" style="stop-color:#EA1A1A"/>
					<stop  offset="1" style="stop-color:#AF0B0A"/>
				</linearGradient>
				<path fill="url(#SVGID_27_)" d="M333.17,578.35c0.53,0,0.8,0.271,0.8,0.801l0.32,6.59l-0.32,2.779c0,0.53-0.27,0.801-0.8,0.801
					h-5.05c-0.53,0-0.8-0.271-0.8-0.801L327,585.98l0.32-6.83c0-0.54,0.27-0.801,0.8-0.801H333.17L333.17,578.35z"/>
			</g>
			
				<linearGradient id="SVGID_28_" gradientUnits="userSpaceOnUse" x1="1001.3691" y1="-326.7344" x2="995.6219" y2="-399.181" gradientTransform="matrix(0.4005 0 0 -0.4005 -68.178 357.3884)">
				<stop  offset="0" style="stop-color:#6C6760"/>
				<stop  offset="1" style="stop-color:#A29A91"/>
			</linearGradient>
			<path fill="url(#SVGID_28_)" d="M355.95,505.47c-6.69,0.75-14.771,1.12-24.23,1.12c-9.47,0-17.55-0.37-24.25-1.12
				c-6.69-0.75-10.03-1.66-10.03-2.721c0-1.069,3.34-1.979,10.03-2.72c6.7-0.75,14.79-1.12,24.25-1.12
				c9.472,0,17.54,0.37,24.23,1.12c6.7,0.75,10.05,1.66,10.05,2.72C366,503.82,362.65,504.73,355.95,505.47z"/>
			<path fill="none" d="M355.95,505.47c-6.69,0.75-14.771,1.12-24.23,1.12c-9.47,0-17.55-0.37-24.25-1.12
				c-6.69-0.75-10.03-1.66-10.03-2.721c0-1.069,3.34-1.979,10.03-2.72c6.7-0.75,14.79-1.12,24.25-1.12
				c9.472,0,17.54,0.37,24.23,1.12c6.7,0.75,10.05,1.66,10.05,2.72C366,503.82,362.65,504.73,355.95,505.47z"/>
			<g>
				<path fill="none" d="M298.95,503.051c0-1.029,3.15-1.88,9.45-2.551c6.27-0.67,13.85-1,22.75-1c8.869,0,16.448,0.33,22.75,1
					c6.27,0.671,9.398,1.521,9.398,2.551s-3.13,1.88-9.398,2.55c-6.302,0.7-13.881,1.051-22.75,1.051
					c-8.9,0-16.48-0.351-22.75-1.051C302.1,504.93,298.95,504.08,298.95,503.051z"/>
			</g>
			<g>
				<path fill="#EBEFF0" d="M332.2,571.45c0.03,0.17,0.05,0.45,0.05,0.851c0,0.399-0.05,0.75-0.15,1.05
					c-0.1,0.229-0.3,0.431-0.6,0.601c-0.27,0.101-0.6,0.149-1,0.149c-0.53,0-0.93-0.119-1.2-0.351c-0.33-0.27-0.5-0.75-0.5-1.449
					c0-0.431,0.05-0.771,0.15-1c0.1-0.301,0.3-0.529,0.6-0.7c0.23-0.101,0.55-0.149,0.95-0.149c0.27,0,0.52,0.03,0.75,0.101
					c0.23,0.101,0.43,0.199,0.6,0.3C331.95,571.02,332.07,571.22,332.2,571.45z M329.8,571.051c-0.229,0.229-0.35,0.649-0.35,1.25
					c0,0.569,0.08,0.971,0.25,1.199c0.229,0.171,0.5,0.25,0.8,0.25c0.33,0,0.58-0.079,0.75-0.25c0.229-0.229,0.35-0.63,0.35-1.199
					c0-0.601-0.119-1-0.35-1.2c-0.17-0.199-0.42-0.3-0.75-0.3C330.2,570.801,329.97,570.881,329.8,571.051z M330.55,593.35v2.801
					H329.9v-2.801H330.55z"/>
			</g>
			<g>
				<path fill="#C06D77" d="M282.6,547.25v3.15h-0.4V547.8l-0.95,2.601h-0.35l-0.95-2.7v2.7h-0.4v-3.15h0.65l0.7,2.25
					c0.07,0.23,0.12,0.37,0.15,0.4c0.07-0.03,0.13-0.17,0.2-0.4l0.75-2.25H282.6z M278.6,549.4c0-0.229-0.05-0.431-0.15-0.601
					c-0.13-0.101-0.32-0.149-0.55-0.149c-0.1,0-0.18,0.021-0.25,0.05c-0.1,0.069-0.18,0.149-0.25,0.25l-0.35-0.05l0.25-1.65h1.65
					v0.45h-1.3l-0.15,0.75c0.17-0.101,0.37-0.149,0.6-0.149c0.27,0,0.48,0.12,0.65,0.351c0.17,0.17,0.25,0.38,0.25,0.649
					c0,0.3-0.08,0.569-0.25,0.8c-0.17,0.271-0.42,0.399-0.75,0.399c-0.27,0-0.52-0.079-0.75-0.25c-0.17-0.17-0.25-0.399-0.25-0.699
					h0.3c0.07,0.199,0.17,0.351,0.3,0.449c0.1,0.101,0.23,0.15,0.4,0.15s0.32-0.08,0.45-0.25
					C278.55,549.801,278.6,549.631,278.6,549.4z M283.2,547.25h0.4V550h1.55v0.4h-1.95V547.25L283.2,547.25z M288.15,547.25v3.15
					h-0.45v-1.5h-1.6v1.5h-0.45v-3.15h0.45v1.301h1.6v-1.301H288.15z"/>
				<path fill="#72AFDC" d="M323.05,547.25v3.15h-0.3v-3.15H323.05z M321.2,550.4h-0.45V547.6h-1.1v-0.35h2.55v0.35h-1V550.4
					L321.2,550.4z M319.25,550c-0.13,0.101-0.28,0.221-0.45,0.351c-0.17,0.101-0.37,0.149-0.6,0.149c-0.271,0-0.521-0.05-0.75-0.149
					c-0.17-0.13-0.32-0.25-0.45-0.351c-0.1-0.17-0.15-0.369-0.15-0.6h0.45c0,0.1,0.021,0.22,0.05,0.35
					c0.07,0.101,0.182,0.181,0.352,0.25c0.1,0.07,0.25,0.101,0.45,0.101c0.17,0,0.3-0.029,0.398-0.101
					c0.17-0.069,0.28-0.119,0.352-0.149c0.068-0.069,0.1-0.17,0.1-0.3c0-0.101-0.03-0.181-0.1-0.25
					c-0.07-0.101-0.182-0.149-0.352-0.149c-0.069-0.07-0.229-0.13-0.5-0.2c-0.3-0.101-0.5-0.149-0.6-0.149
					c-0.17-0.101-0.28-0.221-0.352-0.351c-0.1-0.101-0.148-0.229-0.148-0.399s0.05-0.319,0.148-0.45
					c0.07-0.101,0.222-0.22,0.45-0.351c0.17-0.029,0.33-0.05,0.5-0.05c0.271,0,0.48,0.05,0.65,0.149c0.2,0.07,0.35,0.149,0.45,0.25
					c0.068,0.171,0.1,0.33,0.1,0.5h-0.35c-0.07-0.17-0.15-0.3-0.25-0.399c-0.132-0.101-0.302-0.149-0.5-0.149
					c-0.302,0-0.5,0.05-0.602,0.149c-0.13,0.101-0.2,0.22-0.2,0.351c0,0.101,0.07,0.181,0.2,0.25c0.03,0.101,0.23,0.181,0.602,0.25
					c0.328,0.069,0.55,0.119,0.648,0.149c0.17,0.13,0.32,0.25,0.45,0.351c0.03,0.13,0.05,0.279,0.05,0.449S319.28,549.83,319.25,550
					z M323.85,547.25h1.352c0.27,0,0.5,0.03,0.7,0.101c0.17,0.07,0.27,0.149,0.3,0.25c0.13,0.171,0.2,0.33,0.2,0.5
					c0,0.229-0.08,0.431-0.25,0.601c-0.17,0.13-0.4,0.22-0.7,0.25c0.1,0.07,0.18,0.13,0.25,0.2c0.13,0.1,0.25,0.229,0.35,0.399
					l0.602,0.851h-0.5l-0.45-0.65c-0.102-0.17-0.22-0.319-0.352-0.449c-0.028-0.101-0.078-0.149-0.148-0.149
					c-0.07-0.07-0.15-0.101-0.25-0.101c-0.07-0.069-0.13-0.101-0.2-0.101h-0.5v1.45h-0.4v-3.151H323.85z M314.7,547.45
					c0.229,0.17,0.38,0.38,0.45,0.649l-0.352,0.101c-0.1-0.229-0.22-0.399-0.35-0.5c-0.102-0.101-0.271-0.149-0.5-0.149
					c-0.23,0-0.431,0.05-0.602,0.149c-0.17,0.101-0.278,0.271-0.35,0.5c-0.1,0.17-0.15,0.37-0.15,0.601
					c0,0.3,0.052,0.529,0.15,0.699c0.07,0.23,0.18,0.37,0.35,0.4c0.171,0.13,0.33,0.199,0.5,0.199c0.302,0,0.5-0.069,0.602-0.199
					c0.17-0.101,0.279-0.301,0.35-0.601l0.45,0.101c-0.07,0.33-0.22,0.58-0.45,0.75c-0.229,0.229-0.52,0.35-0.85,0.35
					s-0.62-0.079-0.852-0.25c-0.229-0.1-0.398-0.3-0.5-0.6c-0.068-0.271-0.1-0.551-0.1-0.851c0-0.33,0.07-0.62,0.2-0.851
					c0.1-0.229,0.27-0.43,0.5-0.601c0.229-0.1,0.479-0.149,0.75-0.149C314.28,547.2,314.53,547.28,314.7,547.45z M311.8,547.25v3.15
					h-0.3v-3.15H311.8z M309.45,550.4V547.6h-1.05v-0.35h2.55v0.35h-1.102v2.801H309.45z M305,547.25v3.15h-0.4l-1.65-2.45v2.45
					h-0.4v-3.15h0.4l1.7,2.5v-2.5H305z M306.1,548.551h1.801v0.399H306.1V550h1.95v0.4h-2.3v-3.15H308v0.351h-1.9V548.551z
					 M301.15,547.25c0.23,0.131,0.42,0.25,0.55,0.351c0.03,0.131,0.08,0.301,0.15,0.5l-0.35,0.101c-0.03-0.101-0.08-0.22-0.15-0.351
					c-0.07-0.101-0.18-0.18-0.35-0.25c-0.1-0.029-0.23-0.05-0.4-0.05c-0.2,0-0.38,0.021-0.55,0.05c-0.1,0.07-0.2,0.149-0.3,0.25
					c-0.07,0.131-0.13,0.25-0.2,0.351c-0.07,0.17-0.1,0.37-0.1,0.601c0,0.3,0.03,0.529,0.1,0.699c0.13,0.229,0.3,0.37,0.5,0.4
					c0.17,0.13,0.35,0.199,0.55,0.199c0.2,0,0.37-0.029,0.5-0.101c0.23-0.1,0.37-0.18,0.4-0.25v-0.6h-0.9V548.8h1.35v1.2
					c-0.23,0.1-0.43,0.22-0.6,0.35c-0.23,0.101-0.47,0.15-0.7,0.15c-0.33,0-0.62-0.08-0.85-0.25c-0.27-0.101-0.47-0.301-0.6-0.601
					c-0.1-0.229-0.15-0.521-0.15-0.851c0-0.271,0.05-0.55,0.15-0.851c0.13-0.229,0.32-0.399,0.55-0.5c0.27-0.17,0.55-0.25,0.85-0.25
					C300.8,547.2,300.98,547.22,301.15,547.25z M297.5,547.25l1.3,3.15h-0.5l-0.35-0.9h-1.3l-0.35,0.9h-0.5l1.3-3.15H297.5z
					 M295.55,547.25v3.15h-0.4V547.8l-0.95,2.601h-0.35l-0.95-2.7v2.7h-0.4v-3.15h0.65l0.7,2.25c0.1,0.23,0.15,0.37,0.15,0.4
					c0.07-0.03,0.13-0.17,0.2-0.4l0.75-2.25H295.55z M297.25,547.6c-0.07,0.17-0.12,0.37-0.15,0.601l-0.35,0.95h1.1l-0.35-0.95
					C297.4,547.97,297.32,547.77,297.25,547.6z M335.15,547.35c0.17,0.07,0.318,0.149,0.448,0.25c0.07,0.17,0.102,0.33,0.102,0.5
					c0,0.229-0.102,0.431-0.3,0.601c-0.102,0.13-0.28,0.22-0.552,0.25c0.03,0.069,0.08,0.13,0.15,0.2c0.17,0.1,0.3,0.229,0.4,0.399
					l0.55,0.851h-0.55l-0.4-0.65c-0.1-0.17-0.22-0.319-0.35-0.449c-0.07-0.101-0.12-0.149-0.15-0.149
					c-0.07-0.07-0.13-0.101-0.2-0.101c-0.029-0.07-0.12-0.101-0.25-0.101h-0.5v1.45h-0.45v-3.15h1.45
					C334.85,547.25,335.05,547.28,335.15,547.35z M335.15,548.4c0.068-0.07,0.1-0.17,0.1-0.301c0-0.17-0.05-0.271-0.15-0.3
					c-0.13-0.13-0.318-0.2-0.55-0.2h-1v1.051h0.95c0.17,0,0.3-0.03,0.4-0.101C335.03,548.551,335.12,548.5,335.15,548.4z
					 M330.65,550h1.948v0.4H330.2v-3.15h2.3v0.351h-1.85v0.95h1.698v0.399h-1.698V550z M329.55,548.1c0,0.229-0.08,0.431-0.25,0.601
					c-0.13,0.13-0.33,0.22-0.6,0.25c0.1,0.069,0.148,0.13,0.148,0.2c0.17,0.1,0.32,0.229,0.45,0.399l0.5,0.851h-0.5l-0.45-0.65
					c-0.1-0.17-0.22-0.319-0.35-0.449c-0.03-0.101-0.08-0.149-0.15-0.149c-0.068-0.07-0.12-0.101-0.148-0.101
					c-0.07-0.07-0.17-0.101-0.3-0.101h-0.5v1.45H327v-3.15h1.45c0.27,0,0.47,0.03,0.6,0.101c0.17,0.069,0.3,0.149,0.4,0.25
					C329.52,547.77,329.55,547.93,329.55,548.1z M325.8,547.801c-0.13-0.13-0.3-0.2-0.5-0.2h-1.05v1.051h0.95
					c0.17,0,0.3-0.03,0.398-0.101c0.132,0,0.23-0.051,0.302-0.149c0.028-0.07,0.05-0.17,0.05-0.301
					C325.95,547.93,325.9,547.83,325.8,547.801z M328.8,548.551c0.102,0,0.181-0.051,0.25-0.149c0.03-0.07,0.05-0.17,0.05-0.301
					c0-0.17-0.05-0.271-0.148-0.3c-0.102-0.13-0.271-0.2-0.5-0.2h-1.05v1.051h0.948C328.52,548.65,328.67,548.62,328.8,548.551z"/>
			</g>
			<g>
				<path fill="#FFFFFF" d="M290.95,590.95h0.25v0.95h1.2v-0.95h0.35v2.3h-0.35v-1.1h-1.2v1.1h-0.25V590.95z M293.5,591.9h1.3v0.25
					h-1.3v0.8h1.45v0.3h-1.7v-2.3h1.6v0.3h-1.35V591.9z M295.8,592.35h0.75l-0.25-0.699c-0.03-0.17-0.08-0.301-0.15-0.4
					c-0.07,0.101-0.1,0.229-0.1,0.4L295.8,592.35z M296,590.95h0.3l0.95,2.3h-0.35l-0.25-0.75h-0.95l-0.25,0.75h-0.3L296,590.95z
					 M297.1,590.95h1.85v0.3h-0.75v2h-0.35v-2h-0.75V590.95z"/>
			</g>
			<g>
				<path fill="#FFFFFF" d="M366.25,591.65h-5.1l0.5,7.1h5.1L366.25,591.65z M363.7,593.2c0-0.069,0.03-0.101,0.1-0.101
					c0.07,0,0.12,0.03,0.15,0.101c0.069,0,0.1,0.021,0.1,0.05l0.102,0.9c0.5,0,0.948,0.1,1.35,0.3c0.47,0.3,0.7,0.62,0.7,0.95
					c0,0.399-0.23,0.72-0.7,0.949c-0.13,0.07-0.22,0.12-0.25,0.15c0,0.069,0,0.13,0,0.199l-0.1,0.051c-0.07,0.069-0.12,0.069-0.15,0
					l-0.25-0.051h-0.1l-0.102-0.101c-0.068,0-0.1-0.029-0.1-0.1c0-0.03,0-0.08,0-0.15l0.2-0.5l0.1-0.1c0.03-0.07,0.08-0.07,0.15,0
					c0.068,0,0.119,0.029,0.148,0.1c0,0.03,0,0.08,0,0.15L365,596.15c0.1-0.029,0.18-0.08,0.25-0.149h0.05
					c0.3-0.17,0.45-0.37,0.45-0.601c0-0.229-0.17-0.431-0.5-0.601h0.05c-0.33-0.17-0.72-0.25-1.148-0.25l0.25,2.8
					c0,0.07-0.03,0.131-0.102,0.2c-0.068,0.03-0.12,0.05-0.148,0.05c-0.07,0-0.102-0.02-0.102-0.05l-0.1-0.1l-0.25-2.9
					c-0.4,0-0.73,0.08-1,0.25c-0.3,0.17-0.45,0.37-0.45,0.601c0,0.229,0.15,0.431,0.45,0.601c0.2,0.1,0.42,0.18,0.648,0.25
					c0.07,0,0.132,0.029,0.2,0.1c0.03,0.07,0.03,0.12,0,0.15c0,0.069-0.029,0.1-0.1,0.1l-0.102,0.101
					c-0.329-0.069-0.619-0.18-0.85-0.351c-0.43-0.229-0.65-0.55-0.65-0.949c0-0.33,0.222-0.649,0.65-0.95
					c0.33-0.17,0.729-0.271,1.2-0.3l-0.102-0.801C363.6,593.28,363.63,593.23,363.7,593.2z M360.7,591.4l0.1-0.101
					c0.07,0,0.13,0,0.2,0l5.45-0.05c0.03,0,0.05,0.021,0.05,0.05c0.07,0.069,0.1,0.13,0.1,0.2l0.602,7.399V599l-0.102,0.05h-5.6
					c-0.07,0-0.13,0-0.2,0c-0.028-0.03-0.05-0.08-0.05-0.149l-0.55-7.4V591.4L360.7,591.4z"/>
			</g>
			<g>
				
					<radialGradient id="SVGID_29_" cx="643.3105" cy="-1898.918" r="58.5854" gradientTransform="matrix(1 0 0 -0.1229 -312.8105 270.4281)" gradientUnits="userSpaceOnUse">
					<stop  offset="0" style="stop-color:#FFFFFF;stop-opacity:0"/>
					<stop  offset="0.2706" style="stop-color:#FFFFFF;stop-opacity:0"/>
					<stop  offset="0.6588" style="stop-color:#000000;stop-opacity:0.2118"/>
					<stop  offset="0.7451" style="stop-color:#FFFFFF;stop-opacity:0.1608"/>
					<stop  offset="0.8235" style="stop-color:#FFFFFF;stop-opacity:0.1451"/>
					<stop  offset="0.8784" style="stop-color:#FEFEFE;stop-opacity:0.0824"/>
					<stop  offset="1" style="stop-color:#FDFDFD;stop-opacity:0"/>
				</radialGradient>
				<path fill="url(#SVGID_29_)" d="M274.25,503.5c0-1.699,5.28-3.149,15.85-4.35c10.5-1.2,23.22-1.801,38.15-1.801
					s27.67,0.601,38.2,1.801c10.569,1.199,15.85,2.649,15.85,4.35s-5.278,3.15-15.85,4.351c-10.53,1.171-23.271,1.75-38.2,1.75
					s-27.65-0.579-38.15-1.75C279.53,506.65,274.25,505.2,274.25,503.5z"/>
			</g>
		</g>
		<g>
			<path fill="#B2B2B6" d="M270.95,312.05l0.9-0.75c0.17,0.101,0.37,0.181,0.6,0.25c0.7,0.171,1.7,0.171,3,0
				c-0.33,0.101-0.87,0.351-1.6,0.75c-0.47,0.23-0.9,0.4-1.3,0.5L270.95,312.05z"/>
			<line fill="none" x1="132.15" y1="283.7" x2="132.15" y2="288.1"/>
			<g>
				
					<path fill="none" stroke="#FF0000" stroke-width="0.1" stroke-linecap="round" stroke-linejoin="round" stroke-miterlimit="3" d="
					M279.2,289.75c0.97-0.63,1.98-1.18,3.05-1.649c0.23-0.03,0.5-0.08,0.8-0.15c0.57-0.229,1.15-0.38,1.75-0.45
					c0.17-0.029,0.37-0.08,0.6-0.149c0.13,0,0.28,0,0.45,0c0.73-0.101,1.5-0.15,2.3-0.15c1.7,0,3.32,0.22,4.85,0.65
					c0.33,0.069,0.65,0.149,0.95,0.25c1.13,0.399,2.15,0.95,3.05,1.649c0.33,0.271,0.7,0.521,1.1,0.75
					c1.37,1.3,2.22,2.75,2.55,4.351c0.07,0.33,0.1,0.67,0.1,1c0,0.13,0,0.22,0,0.25c0,0.399,0,0.779,0,1.149
					c-0.33,1.73-1.3,3.271-2.9,4.601c-0.27,0.199-0.55,0.399-0.85,0.6c-2.43,1.73-5.38,2.6-8.85,2.6c-0.8,0-1.57-0.02-2.3-0.05
					c-0.17,0-0.32-0.029-0.45-0.1c-2.33-0.33-4.4-1.15-6.2-2.45c-0.4-0.3-0.8-0.62-1.2-0.95c-1.63-1.529-2.45-3.33-2.45-5.399
					c0-1.971,0.82-3.75,2.45-5.351C278.4,290.42,278.8,290.08,279.2,289.75z"/>
				<g>
					
						<radialGradient id="SVGID_30_" cx="577.7529" cy="165.9639" r="26.0373" fx="577.5487" fy="165.9639" gradientTransform="matrix(0.9995 -0.0306 -0.2053 -6.6968 -271.5407 1394.5442)" gradientUnits="userSpaceOnUse">
						<stop  offset="0.0078" style="stop-color:#4E504F"/>
						<stop  offset="0.6" style="stop-color:#656766"/>
						<stop  offset="0.8078" style="stop-color:#808080"/>
						<stop  offset="1" style="stop-color:#5C5D5F"/>
						<stop  offset="1" style="stop-color:#302F2E"/>
					</radialGradient>
					<path fill="url(#SVGID_30_)" d="M281.75,217.85c3.97,1.729,8.65,1.729,14.05,0c0.07,1.069,0.15,2.13,0.25,3.199
						c0.13,1.03,0.3,2.12,0.5,3.25l4.55,31.551c1.07,5.77,1.8,11.63,2.2,17.6c0.4,5.9,0.63,11.43,0.7,16.601
						c0.03,5.47-0.03,10.369-0.2,14.699c0,0.03,0,0.12,0,0.25c-0.1,2.03-0.15,4.38-0.15,7.05c0,0.101,0,0.221,0,0.351l0.5,0.7
						c0.13,0.37-0.1,0.779-0.7,1.25v0.35c-2.67,1.37-7.43,1.97-14.3,1.8c-6.07,0.03-11.17-0.569-15.3-1.8
						c-0.23-0.229-0.42-0.58-0.55-1.05c-0.1-0.37,0.17-0.58,0.8-0.65c0-0.399-0.03-0.75-0.1-1.05c-0.1-2.53-0.15-3.88-0.15-4.05
						c0-0.2,0-0.38,0-0.55c0-0.2,0-0.4,0-0.601c-0.07-0.6-0.13-1.18-0.2-1.75v-0.1c-0.17-5.23-0.2-10.18-0.1-14.85
						c0-5.171,0.2-10.551,0.6-16.15c0.37-5.63,0.77-10.03,1.2-13.2l5.55-36.399c0.23-1.131,0.4-2.221,0.5-3.25
						C281.53,219.98,281.65,218.92,281.75,217.85z"/>
					
						<linearGradient id="SVGID_31_" gradientUnits="userSpaceOnUse" x1="608.3867" y1="21.3306" x2="596.0367" y2="21.3306" gradientTransform="matrix(1 0 0 -1 -312.8105 235.9531)">
						<stop  offset="0.0078" style="stop-color:#5B5C5E"/>
						<stop  offset="0.3059" style="stop-color:#818282"/>
						<stop  offset="1" style="stop-color:#4E504F"/>
						<stop  offset="1" style="stop-color:#302F2E"/>
						<stop  offset="1" style="stop-color:#FDFDFD;stop-opacity:0"/>
					</linearGradient>
					<path fill="url(#SVGID_31_)" d="M295.8,217.85c-5.4,1.729-10.08,1.729-14.05,0c0.17-2.73,0.05-5.32-0.35-7.75
						c0.17,0.17,0.72,0.3,1.65,0.399c0.1,0.07,0.2,0.101,0.3,0.101c1.5,0.229,3.27,0.35,5.3,0.35c0.17,0,0.33,0,0.5,0
						c1.83,0,3.4-0.12,4.7-0.35c1.07-0.13,1.75-0.28,2.05-0.45l0.1,0.35C295.7,212.77,295.63,215.22,295.8,217.85z"/>
					
						<radialGradient id="SVGID_32_" cx="574.7715" cy="149.1353" r="30.075" gradientTransform="matrix(0.9993 -0.0361 -0.1858 -5.1477 -276.6053 1060.886)" gradientUnits="userSpaceOnUse">
						<stop  offset="0.0078" style="stop-color:#383C3F"/>
						<stop  offset="0.5961" style="stop-color:#555960"/>
						<stop  offset="0.7569" style="stop-color:#7A828E"/>
						<stop  offset="1" style="stop-color:#383C3F"/>
						<stop  offset="1" style="stop-color:#302F2E"/>
					</radialGradient>
					<path fill="url(#SVGID_32_)" d="M303.65,312.4c0.33,0.1,0.53,0.3,0.6,0.6l-0.1,0.101L303.65,312.4z"/>
					
						<linearGradient id="SVGID_33_" gradientUnits="userSpaceOnUse" x1="599.584" y1="-90.7476" x2="619.134" y2="-90.7476" gradientTransform="matrix(1 0 0 -1 -312.8105 235.9531)">
						<stop  offset="0.0078" style="stop-color:#5B5C5E"/>
						<stop  offset="0.3059" style="stop-color:#818282"/>
						<stop  offset="1" style="stop-color:#4E504F"/>
						<stop  offset="1" style="stop-color:#302F2E"/>
						<stop  offset="1" style="stop-color:#FDFDFD;stop-opacity:0"/>
					</linearGradient>
					<path fill="url(#SVGID_33_)" d="M303.45,314.7l-1.4,21.3c-0.07,0.73-0.65,1.271-1.75,1.601l-1.45,0.25
						c-2.77,0.529-6,0.819-9.7,0.85c-0.4,0-0.77,0-1.1,0c-3.53,0-6.68-0.28-9.45-0.85c-0.67,0-1.4-0.13-2.2-0.4
						c-0.8-0.3-1.17-0.78-1.1-1.45l-1.05-21.05c-0.1-0.1-0.23-0.18-0.4-0.25c4.13,1.23,9.23,1.83,15.3,1.8
						C296.02,316.67,300.78,316.07,303.45,314.7z"/>
				</g>
				<g>
					<path fill="#2B2B2B" d="M276.15,255.65l0.15-0.95c8.4,2.63,16.6,2.63,24.6,0l0.1,0.95
						C292.93,258.38,284.65,258.38,276.15,255.65z"/>
				</g>
				<g>
					
						<linearGradient id="SVGID_34_" gradientUnits="userSpaceOnUse" x1="588.5732" y1="-244.2715" x2="614.5482" y2="-244.2715" gradientTransform="matrix(1 0 0 -1 -312.8105 235.9531)">
						<stop  offset="0" style="stop-color:#040404"/>
						<stop  offset="0.1804" style="stop-color:#2B2B2B"/>
						<stop  offset="0.4157" style="stop-color:#000000"/>
						<stop  offset="0.6902" style="stop-color:#2F2F2F"/>
						<stop  offset="0.8039" style="stop-color:#1A1A1A"/>
						<stop  offset="1" style="stop-color:#000000"/>
					</linearGradient>
					<path fill="url(#SVGID_34_)" d="M275.7,462.1h26.05v33.051c-3.67,2.13-8,3.199-13,3.199c-4.97,0-9.32-1.069-13.05-3.199V462.1z
						"/>
				</g>
				<g>
					<path fill="#3E3E3E" d="M275.7,462.1c0-0.529,1.3-0.97,3.9-1.3c2.5-0.33,5.55-0.5,9.15-0.5c3.57,0,6.63,0.17,9.2,0.5
						c2.53,0.33,3.8,0.771,3.8,1.3c0,0.431-1.27,0.851-3.8,1.25c-2.57,0.33-5.63,0.5-9.2,0.5c-3.6,0-6.65-0.17-9.15-0.5
						C277,462.95,275.7,462.53,275.7,462.1z"/>
				</g>
				<g>
					
						<linearGradient id="SVGID_35_" gradientUnits="userSpaceOnUse" x1="591.3965" y1="-164.2969" x2="611.72" y2="-164.2969" gradientTransform="matrix(1 0 0 -1 -312.8105 235.9531)">
						<stop  offset="0" style="stop-color:#040404"/>
						<stop  offset="0.1804" style="stop-color:#4A4A4A"/>
						<stop  offset="0.4157" style="stop-color:#2E2E2E"/>
						<stop  offset="0.6902" style="stop-color:#666666"/>
						<stop  offset="0.8039" style="stop-color:#202020"/>
						<stop  offset="1" style="stop-color:#000000"/>
					</linearGradient>
					<path fill="url(#SVGID_35_)" d="M288.05,338.7c4.13,0,7.73-0.28,10.8-0.85v34.199v50.501v5.8v3.75v29.2
						c0.23,0.17-0.47,0.431-2.1,0.8c-1.7,0.37-4.52,0.551-8.45,0.551c-3.87-0.03-6.53-0.221-8-0.551c-1.8-0.47-2.37-0.649-1.7-0.55
						V432.1v-3.75v-5.8v-50.5v-34.2C281.37,338.42,284.52,338.7,288.05,338.7z"/>
				</g>
				<g>
					<path fill="#2B2B2B" d="M304.15,313.1l0.1-0.101c0.07,0.63-0.2,1.05-0.8,1.25c-1.87,0.7-4.7,1.271-8.5,1.7
						c-3.87,0.53-6.97,0.73-9.3,0.6c-2.27-0.029-4.62-0.25-7.05-0.649c-0.47-0.13-0.9-0.22-1.3-0.25c-1.07-0.3-2.08-0.57-3.05-0.8
						c-0.63-0.23-0.95-0.63-0.95-1.2c0.47,0.2,0.78,0.35,0.95,0.45c0.97,0.229,1.98,0.479,3.05,0.75c0.4,0.069,0.83,0.149,1.3,0.25
						c2.43,0.399,4.78,0.63,7.05,0.7c2.33,0.1,5.43-0.101,9.3-0.601c3.8-0.47,6.63-1.03,8.5-1.7
						C303.68,313.4,303.92,313.27,304.15,313.1z"/>
				</g>
				<g>
					<path d="M204.4,192.55l-1.9-3.949c11.43,0.729,22.4-1.58,32.9-6.95c11.83-6.2,23.48-7.45,34.95-3.75
						c11.73,3.57,18.4,14.03,20,31.399c0,0.131,0,0.25,0,0.351c-1.3,0.57-2.58,0.57-3.85,0c-1.4-15.4-7.18-24.771-17.35-28.101
						c-10.5-3.3-21.12-2.13-31.85,3.5C226.17,190.78,215.2,193.28,204.4,192.55z"/>
					
						<path fill="none" stroke="#000000" stroke-width="3" stroke-linecap="round" stroke-linejoin="round" stroke-miterlimit="3" d="
						M-15.85,581.35c25.23,5,50.12,1.12,74.65-11.649c15.57-8.771,24.23-10.28,26-4.55c3.07,10.17,6.15,18.029,9.25,23.6
						c3.07,5.57,7.9,9.181,14.5,10.851c3.57,0.899,10.42,0.92,20.55,0.051"/>
				</g>
				<g>
					
						<linearGradient id="SVGID_36_" gradientUnits="userSpaceOnUse" x1="-910.7393" y1="26.0273" x2="1198.1606" y2="26.0273" gradientTransform="matrix(1 0 0 -1 -312.8105 235.9531)">
						<stop  offset="0" style="stop-color:#040404"/>
						<stop  offset="0.298" style="stop-color:#666666"/>
						<stop  offset="1" style="stop-color:#000000"/>
					</linearGradient>
					<path fill="url(#SVGID_36_)" d="M296,210c0,0.07-0.03,0.12-0.1,0.15c-0.3,0.13-0.82,0.25-1.55,0.35
						c-0.17,0.07-0.33,0.101-0.5,0.101c-1.37,0.229-3.1,0.35-5.2,0.35c-2.03,0-3.8-0.12-5.3-0.35c-0.1,0-0.2-0.03-0.3-0.101
						c-0.93-0.1-1.48-0.229-1.65-0.399l-0.15-0.2c0-0.33,0.7-0.58,2.1-0.75c1.5-0.17,3.27-0.25,5.3-0.25c2.1,0,3.83,0.08,5.2,0.25
						c1.47,0.17,2.2,0.42,2.2,0.75L296,210z"/>
				</g>
				<g>
					
						<linearGradient id="SVGID_37_" gradientUnits="userSpaceOnUse" x1="587.874" y1="5.5352" x2="609.4323" y2="-6.9732" gradientTransform="matrix(1 0 0 -1 -312.8105 235.9531)">
						<stop  offset="0" style="stop-color:#3C3C3C;stop-opacity:0.8"/>
						<stop  offset="1" style="stop-color:#000000;stop-opacity:0"/>
					</linearGradient>
					<path fill="url(#SVGID_37_)" d="M281.75,217.85c2.1,0.899,4.45,1.35,7.05,1.35c2.17-0.13,4.5-0.58,7-1.35
						c0.07,1.069,0.15,2.13,0.25,3.199c0.13,1.03,0.3,2.12,0.5,3.25l3.85,26.5c-0.63,1.771-0.38,3.421,0.75,4.95
						c-8.4,2.771-16.73,2.73-25-0.1l4.75-31.351c0.23-1.13,0.4-2.22,0.5-3.25C281.53,219.98,281.65,218.92,281.75,217.85z"/>
					
						<linearGradient id="SVGID_38_" gradientUnits="userSpaceOnUse" x1="588.1865" y1="21.3027" x2="602.3361" y2="21.3027" gradientTransform="matrix(1 0 0 -1 -312.8105 235.9531)">
						<stop  offset="0" style="stop-color:#000000;stop-opacity:0.4118"/>
						<stop  offset="1" style="stop-color:#000000;stop-opacity:0"/>
						<stop  offset="1" style="stop-color:#302F2E"/>
						<stop  offset="1" style="stop-color:#FDFDFD;stop-opacity:0"/>
					</linearGradient>
					<path fill="url(#SVGID_38_)" d="M281.75,217.85c0.17-2.73,0.05-5.32-0.35-7.75c0.17,0.17,0.72,0.3,1.65,0.399
						c0.1,0.07,0.2,0.101,0.3,0.101c1.5,0.229,3.27,0.35,5.3,0.35c0.17,0,0.33,0,0.5,0c1.83,0,3.4-0.12,4.7-0.35
						c1.07-0.13,1.75-0.28,2.05-0.45l0.1,0.35c-0.3,2.271-0.37,4.721-0.2,7.351c-2.5,0.77-4.83,1.22-7,1.35
						C286.2,219.2,283.85,218.75,281.75,217.85z"/>
					
						<linearGradient id="SVGID_39_" gradientUnits="userSpaceOnUse" x1="604.8711" y1="-49.1455" x2="574.1714" y2="-52.5489" gradientTransform="matrix(1 0 0 -1 -312.8105 235.9531)">
						<stop  offset="0" style="stop-color:#080808;stop-opacity:0"/>
						<stop  offset="1" style="stop-color:#000000;stop-opacity:0.498"/>
					</linearGradient>
					<path fill="url(#SVGID_39_)" d="M301.15,255.75c1.03,5.63,1.75,11.37,2.15,17.2c0.4,5.9,0.63,11.43,0.7,16.601
						c0.03,5.47-0.03,10.35-0.2,14.649c0,0.07,0,0.13,0,0.2c-0.1,2.1-0.15,4.479-0.15,7.149c0,0.101,0,0.221,0,0.351l0.5,0.649
						c0.13,0.4-0.1,0.83-0.7,1.301v0.35c-2.67,1.37-7.43,1.95-14.3,1.75c-6.07,0-11.17-0.58-15.3-1.75
						c-0.23-0.229-0.42-0.58-0.55-1.05c-0.1-0.4,0.17-0.62,0.8-0.65c0-0.399-0.03-0.75-0.1-1.05c-0.1-2.57-0.15-3.95-0.15-4.149
						c0-0.131,0-0.28,0-0.45c0-0.23,0-0.431,0-0.601c-0.07-0.63-0.13-1.25-0.2-1.85c-0.17-5.23-0.2-10.18-0.1-14.85
						c0-5.171,0.2-10.551,0.6-16.15c0.37-5.63,0.77-10.05,1.2-13.25l0.7-4.4l0.1-0.1C284.42,258.48,292.75,258.52,301.15,255.75z"/>
					
						<linearGradient id="SVGID_40_" gradientUnits="userSpaceOnUse" x1="606.1787" y1="-84.2109" x2="579.0776" y2="-111.3119" gradientTransform="matrix(1 0 0 -1 -312.8105 235.9531)">
						<stop  offset="0" style="stop-color:#080808;stop-opacity:0"/>
						<stop  offset="1" style="stop-color:#000000;stop-opacity:0.498"/>
					</linearGradient>
					<path fill="url(#SVGID_40_)" d="M289.15,316.5c6.87,0.17,11.63-0.43,14.3-1.8l-1.4,21.3c-0.07,0.73-0.65,1.271-1.75,1.601
						l-1.45,0.25c-2.77,0.529-6,0.819-9.7,0.85c-0.4,0-0.77,0-1.1,0c-3.53,0-6.68-0.28-9.45-0.85c-0.67,0-1.4-0.13-2.2-0.4
						c-0.8-0.3-1.17-0.78-1.1-1.45l-1.05-21.05c-0.1-0.1-0.23-0.18-0.4-0.25C277.98,315.93,283.08,316.53,289.15,316.5z"/>
				</g>
				<g>
					
						<linearGradient id="SVGID_41_" gradientUnits="userSpaceOnUse" x1="590.8867" y1="-61.6724" x2="612.5362" y2="-61.6724" gradientTransform="matrix(1 0 0 -1 -312.8105 235.9531)">
						<stop  offset="0" style="stop-color:#143172"/>
						<stop  offset="0.5098" style="stop-color:#2E53A7"/>
						<stop  offset="0.651" style="stop-color:#264895"/>
						<stop  offset="0.8078" style="stop-color:#1D3D84"/>
						<stop  offset="1" style="stop-color:#0F2B68"/>
					</linearGradient>
					<path fill="url(#SVGID_41_)" d="M296.65,290c2.23,2.101,3.35,4.62,3.35,7.55c0,3.03-1.12,5.601-3.35,7.7
						c-2.2,2.101-4.87,3.15-8,3.15c-3.07,0-5.7-1.05-7.9-3.15c-2.23-2.1-3.35-4.67-3.35-7.7c0-2.93,1.12-5.449,3.35-7.55
						c2.2-2.1,4.83-3.149,7.9-3.149C291.78,286.85,294.45,287.9,296.65,290z"/>
				</g>
				<g>
					
						<linearGradient id="SVGID_42_" gradientUnits="userSpaceOnUse" x1="595.373" y1="-62.5957" x2="614.1484" y2="-62.5957" gradientTransform="matrix(1 0 0 -1 -312.8105 235.9531)">
						<stop  offset="0" style="stop-color:#0A1C43"/>
						<stop  offset="0.5098" style="stop-color:#1A48B3"/>
						<stop  offset="1" style="stop-color:#13378B"/>
					</linearGradient>
					<path fill="url(#SVGID_42_)" d="M296.5,290.85c2.27,2.1,3.4,4.649,3.4,7.649s-1.13,5.57-3.4,7.7c-2.17,2.1-4.82,3.15-7.95,3.15
						c-3.1,0-5.77-1.051-8-3.15c-2.17-2.13-3.25-4.7-3.25-7.7s1.08-5.55,3.25-7.649c2.23-2.07,4.9-3.101,8-3.101
						C291.68,287.75,294.33,288.78,296.5,290.85z"/>
				</g>
				<g>
					
						<radialGradient id="SVGID_43_" cx="587.6602" cy="53.1538" r="12.2494" gradientTransform="matrix(1 0 0 -1 -312.8105 235.9531)" gradientUnits="userSpaceOnUse">
						<stop  offset="0" style="stop-color:#FFFFFF"/>
						<stop  offset="1" style="stop-color:#FDFDFD;stop-opacity:0"/>
					</radialGradient>
					<path fill="url(#SVGID_43_)" d="M263.35,177.9h0.85c10.97,1.399,18.23,7.43,21.8,18.1C282.3,186.13,274.75,180.1,263.35,177.9z
						"/>
					
						<radialGradient id="SVGID_44_" cx="540.9785" cy="178.7388" r="1.0078" gradientTransform="matrix(0.9923 -0.124 -0.5706 -4.1428 -147.0095 1011.5256)" gradientUnits="userSpaceOnUse">
						<stop  offset="0" style="stop-color:#FFFFFF"/>
						<stop  offset="1" style="stop-color:#FDFDFD;stop-opacity:0"/>
					</radialGradient>
					<path fill="url(#SVGID_44_)" d="M287.1,199.5c0.13,0.13,0.25,0.28,0.35,0.45c0.87,2.73,1.35,5.37,1.45,7.9
						c0,0.13-0.03,0.25-0.1,0.35h-1.1c-0.03-0.07-0.05-0.18-0.05-0.35c-0.13-2.37-0.62-4.88-1.45-7.551
						c-0.07-0.17-0.07-0.319,0-0.449c0.1-0.17,0.23-0.28,0.4-0.351C286.77,199.47,286.93,199.47,287.1,199.5z"/>
					
						<radialGradient id="SVGID_45_" cx="1567.6113" cy="880.8086" r="12.2359" gradientTransform="matrix(-0.6753 0.7376 0.8408 0.0521 380.2183 -634.494)" gradientUnits="userSpaceOnUse">
						<stop  offset="0" style="stop-color:#FFFFFF"/>
						<stop  offset="1" style="stop-color:#FDFDFD;stop-opacity:0"/>
					</radialGradient>
					<path fill="url(#SVGID_45_)" d="M69.05,564.2c-8.07,5.931-15.8,9.681-23.2,11.25C56.02,571.62,63.75,567.87,69.05,564.2z"/>
					
						<radialGradient id="SVGID_46_" cx="415.2451" cy="1278.3232" r="13.2426" gradientTransform="matrix(-0.8222 -0.5692 -0.2464 0.8175 749.4344 -223.8114)" gradientUnits="userSpaceOnUse">
						<stop  offset="0" style="stop-color:#FFFFFF"/>
						<stop  offset="1" style="stop-color:#FDFDFD;stop-opacity:0"/>
					</radialGradient>
					<path fill="url(#SVGID_46_)" d="M96.35,591.5c-6.47-7.729-9.98-15.319-10.55-22.75C88.93,578.78,92.45,586.37,96.35,591.5z"/>
				</g>
			</g>
			<g>
				
					<linearGradient id="SVGID_47_" gradientUnits="userSpaceOnUse" x1="584.3369" y1="-90.6221" x2="589.2863" y2="-90.6221" gradientTransform="matrix(1 0 0 -1 -312.8105 235.9531)">
					<stop  offset="0" style="stop-color:#C0C1C5"/>
					<stop  offset="0.1647" style="stop-color:#605953"/>
					<stop  offset="1" style="stop-color:#5D5650"/>
					<stop  offset="1" style="stop-color:#939B9F"/>
					<stop  offset="1" style="stop-color:#302F2E"/>
				</linearGradient>
				<path fill="url(#SVGID_47_)" d="M273.85,312.3c0.73-0.399,1.27-0.649,1.6-0.75c0.07-0.069,0.12-0.1,0.15-0.1v26.6l-4,3.65v-28.6
					c0.23-0.07,0.52-0.13,0.85-0.2c0-0.07,0.03-0.101,0.1-0.101C272.95,312.7,273.38,312.53,273.85,312.3z"/>
			</g>
			<g>
				<g>
					
						<linearGradient id="SVGID_48_" gradientUnits="userSpaceOnUse" x1="613.0303" y1="32.7881" x2="613.0303" y2="156.7882" gradientTransform="matrix(1 0 0 1 -297.3604 113.9775)">
						<stop  offset="0" style="stop-color:#FFFFFF"/>
						<stop  offset="1" style="stop-color:#FFFFFF;stop-opacity:0"/>
					</linearGradient>
					<rect x="313.67" y="97.57" fill="url(#SVGID_48_)" width="4" height="237.2"/>
					
						<path fill="none" stroke="#FFFFFF" stroke-width="0.75" stroke-linecap="round" stroke-linejoin="round" stroke-miterlimit="3" d="
						M329.22,95.67v242.35c-0.13,7.87-2.068,14.419-5.8,19.649v55.751c-2.229,1.771-4.479,1.771-6.75,0v-55.75
						c-3.63-5.229-5.52-11.779-5.648-19.649V95.67H329.22z"/>
				</g>
				<g>
					
						<linearGradient id="SVGID_49_" gradientUnits="userSpaceOnUse" x1="940.7324" y1="-287.0234" x2="1012.733" y2="-287.0234" gradientTransform="matrix(1.388889e-005 1 -1 -6.064282e-004 29.6334 -608.14)">
						<stop  offset="0" style="stop-color:#FFFFFF;stop-opacity:0.0078"/>
						<stop  offset="0.4275" style="stop-color:#FFFFFF"/>
						<stop  offset="1" style="stop-color:#FFFFFF;stop-opacity:0"/>
					</linearGradient>
					<path fill="url(#SVGID_49_)" d="M314.52,341.27c0.271,2.8,0.802,5.33,1.602,7.6c1,2.87,2.479,5.569,4.45,8.101v55.45h-1.602
						v-55.45c-1.97-2.529-3.45-5.229-4.45-8.101c-0.898-2.53-1.479-5.42-1.75-8.649v-10.25h1.552v10.199l0.1,0.301
						c0,0.17,0.021,0.329,0.05,0.5C314.47,341.07,314.48,341.17,314.52,341.27z"/>
				</g>
			</g>
			<g>
				
					<linearGradient id="SVGID_50_" gradientUnits="userSpaceOnUse" x1="612.4609" y1="-89.8955" x2="658.8105" y2="-89.8955" gradientTransform="matrix(1 0 0 -1 -312.8105 235.9531)">
					<stop  offset="0" style="stop-color:#C4C4C4"/>
					<stop  offset="1" style="stop-color:#939B9F"/>
					<stop  offset="1" style="stop-color:#B1AFB0"/>
				</linearGradient>
				<path fill="url(#SVGID_50_)" d="M299.65,314.2c1.4-0.07,2.82-0.1,4.25-0.1c0.5-0.07,1.02-0.101,1.55-0.101c0.569,0,1.13,0,1.7,0
					c0.1,0,0.22,0,0.35,0c0.6,0,1.18-0.02,1.75-0.05c2-0.07,3.92-0.13,5.75-0.2c4.7-0.229,9.1-0.55,13.2-0.95
					c0.83-0.1,1.7-0.199,2.6-0.3c2.8-0.3,5.2-0.62,7.2-0.95c1.07-0.17,2.021-0.329,2.85-0.5c0.53-0.13,1-0.25,1.4-0.35
					c2.1-0.57,3.32-1.17,3.65-1.8h0.1v24.05c0,1.33-1.25,2.6-3.75,3.8c-2.5,1.13-6.32,2.181-11.45,3.15
					c-0.898,0.229-1.77,0.43-2.6,0.6c-4.102,0.7-8.5,1.25-13.2,1.65c-2.4,0.17-4.9,0.3-7.5,0.399c-0.13,0-0.25,0-0.35,0
					c-0.57,0-1.131,0.03-1.7,0.101c-1.9,0.03-3.83,0.08-5.8,0.149V314.2z"/>
				
					<radialGradient id="SVGID_51_" cx="607.3623" cy="-1873.0078" r="54.5251" fx="609.0729" fy="-1873.0078" gradientTransform="matrix(1 0 0 -0.1126 -312.8105 96.9104)" gradientUnits="userSpaceOnUse">
					<stop  offset="0" style="stop-color:#B2B2B4"/>
					<stop  offset="0.8549" style="stop-color:#B2B3B7"/>
					<stop  offset="0.9412" style="stop-color:#C2C2C5"/>
					<stop  offset="1" style="stop-color:#B4B9BA"/>
					<stop  offset="1" style="stop-color:#E3E6E8"/>
				</radialGradient>
				<path fill="url(#SVGID_51_)" d="M345.9,308.9c-0.33,0.63-1.552,1.229-3.65,1.8c-0.4,0.1-0.87,0.22-1.4,0.35
					c-0.828,0.171-1.778,0.33-2.85,0.5c-2,0.33-4.4,0.65-7.2,0.95c-0.898,0.101-1.77,0.2-2.6,0.3c-4.102,0.4-8.5,0.721-13.2,0.95
					c-1.83,0.07-3.75,0.13-5.75,0.2c-0.57,0.03-1.15,0.05-1.75,0.05c-0.13,0-0.25,0-0.35,0c-0.57,0-1.131,0-1.7,0
					c-0.53,0-1.05,0.03-1.55,0.101c-1.43,0-2.85,0.029-4.25,0.1l6.2-4c0.57-0.3,1.05-0.58,1.45-0.85l1.102-0.2
					c0.068-0.07,0.1-0.12,0.1-0.15c0.1-0.17,0.25-0.319,0.45-0.45c0.03,0,0.08,0,0.148,0c0.102,0,0.23,0.03,0.4,0.101
					c0.13,0.07,0.25,0.1,0.35,0.1c0.07,0,0.132,0.021,0.2,0.05c0.17,0,0.38,0.03,0.65,0.101c0.47,0.07,0.979,0.12,1.55,0.149
					c0.1,0,0.18,0.03,0.25,0.101c2.6,0.3,5.7,0.45,9.3,0.45c3.33,0,6.23-0.28,8.7-0.851l15.5-0.1v0.1
					C345.93,308.78,345.9,308.83,345.9,308.9z M305.6,312.2c0-0.03,0-0.12,0-0.25c0-0.1,0-0.2,0-0.3c-0.07,0-0.1,0.18-0.1,0.55
					H305.6z"/>
				
					<radialGradient id="SVGID_52_" cx="607.3604" cy="-997.7354" r="54.3227" fx="609.0645" fy="-997.7354" gradientTransform="matrix(1 0 0 -0.1972 -312.8105 106.3945)" gradientUnits="userSpaceOnUse">
					<stop  offset="0" style="stop-color:#B2B2B4"/>
					<stop  offset="0.8549" style="stop-color:#B2B3B7"/>
					<stop  offset="0.9412" style="stop-color:#C2C2C5"/>
					<stop  offset="1" style="stop-color:#B4B9BA"/>
					<stop  offset="1" style="stop-color:#BBBFC4"/>
				</radialGradient>
				<path fill="url(#SVGID_52_)" d="M305.6,312.2h-0.1c0-0.37,0.03-0.55,0.1-0.55c0,0.1,0,0.2,0,0.3
					C305.6,312.08,305.6,312.17,305.6,312.2z"/>
			</g>
		</g>
		<g>
			<g>
				
					<radialGradient id="SVGID_53_" cx="346.3394" cy="-412.5166" r="14.9079" gradientTransform="matrix(-1 0 0 -0.2003 754.1895 181.3828)" gradientUnits="userSpaceOnUse">
					<stop  offset="0" style="stop-color:#503A22"/>
					<stop  offset="0.3294" style="stop-color:#503822;stop-opacity:0.8078"/>
					<stop  offset="1" style="stop-color:#4E2E1F;stop-opacity:0"/>
				</radialGradient>
				<rect x="398.05" y="261.1" fill="url(#SVGID_53_)" width="24.25" height="4.85"/>
			</g>
			<g>
				
					<linearGradient id="SVGID_54_" gradientUnits="userSpaceOnUse" x1="34.6895" y1="272.02" x2="44.7369" y2="272.02" gradientTransform="matrix(9.950250e-005 -1 -1 0.001 685.1367 304.489)">
					<stop  offset="0" style="stop-color:#9A6E47"/>
					<stop  offset="0.2392" style="stop-color:#976C45"/>
					<stop  offset="0.3176" style="stop-color:#423117"/>
					<stop  offset="0.4314" style="stop-color:#543A23"/>
					<stop  offset="0.6353" style="stop-color:#897341"/>
					<stop  offset="0.851" style="stop-color:#A59564"/>
					<stop  offset="0.9451" style="stop-color:#D6D09E"/>
					<stop  offset="1" style="stop-color:#CBC394"/>
				</linearGradient>
				<path fill="url(#SVGID_54_)" d="M408.6,269.8H397.2v-1.1v-6.55v-1.9h9.95h0.25h0.8H427.6c1.87,3.13,1.922,6.32,0.15,9.55H408.6z
					"/>
				<path fill="#E5C9A4" d="M408.2,257.98v2.27h-0.8h-0.25v-0.399h0.1v0.05c0.1,0.07,0.15,0.18,0.15,0.35
					c0.47-0.069,0.58-0.2,0.35-0.399h0.1c0.03-0.07,0.052-0.13,0.052-0.2c0.229-0.43,0.22-0.771-0.052-1
					c-0.13-0.07-0.25-0.13-0.35-0.2l-0.1,0.1c-0.07,0.07-0.15,0.15-0.25,0.25v-0.75c0.068,0.101,0.148,0.221,0.25,0.351
					c0,0.03,0,0.08,0,0.149c0.13-0.17,0.198-0.369,0.198-0.6c0.102,0.17,0.23,0.33,0.4,0.5C408.13,258.29,408.2,258.13,408.2,257.98
					z M407.58,257.88l-0.42-1.479c0.1,0.07,0.33,0.1,0.7,0.1c0,0.13,0,0.25,0,0.351v0.1c0-0.07-0.08-0.1-0.25-0.1
					C407.48,257.13,407.47,257.47,407.58,257.88z M407.15,255.65h0.1c0.63,0,0.95,0.35,0.95,1.05v0.55
					c-0.01-0.27-0.07-0.489-0.2-0.649l-0.1-0.101h0.1c0.17,0,0.17-0.08,0-0.25s-0.37-0.33-0.6-0.5
					c-0.102,0.101-0.182,0.181-0.25,0.25V255.65z M407.3,259.5c-0.03,0-0.08,0-0.148,0v-0.1C407.22,259.4,407.27,259.43,407.3,259.5
					z"/>
				<path fill="#FFEDE3" d="M407.85,256.5c-0.368,0-0.6-0.029-0.698-0.1l-0.102-0.05c-0.03-0.07,0-0.181,0.102-0.351
					c0.068-0.069,0.148-0.149,0.25-0.25c0.229,0.17,0.43,0.33,0.6,0.5s0.17,0.25,0,0.25h-0.1l-0.052-0.1V256.5z M407.9,259.65
					l-0.052-0.05c0-0.13-0.028-0.2-0.1-0.2s-0.1-0.03-0.1-0.101c-0.102,0.07-0.222,0.131-0.352,0.2c-0.03-0.069-0.08-0.1-0.148-0.1
					V258.8c0.1-0.1,0.18-0.18,0.25-0.25l0.1-0.1c0.1,0.07,0.22,0.13,0.35,0.2C408.12,258.88,408.13,259.22,407.9,259.65z"/>
				<path fill="#6D4A2E" d="M407.9,256.5l0.1,0.101c0.13,0.16,0.19,0.38,0.2,0.649v0.73c0,0.16-0.07,0.31-0.2,0.479
					c-0.17-0.17-0.3-0.33-0.4-0.5c-0.01-0.029-0.02-0.05-0.02-0.08c-0.11-0.399-0.1-0.739,0.02-1.02c0.172,0,0.25,0.03,0.25,0.1
					v-0.1c0-0.1,0-0.22,0-0.35v-0.101L407.9,256.5z M407.6,257.95c0,0.23-0.068,0.43-0.198,0.601c0-0.07,0-0.12,0-0.15
					c-0.102-0.13-0.182-0.25-0.25-0.35c-0.102-0.23-0.132-0.471-0.102-0.7C407.12,257.35,407.3,257.55,407.6,257.95z"/>
				<path fill="#5E3927" d="M397.2,260.25h-0.7v-0.5H407c0,0.07,0.05,0.101,0.15,0.101v0.399H397.2z M408.6,269.8v3.5
					c0,0.73-0.328,1.101-1,1.101H397c-0.67-0.17-1.03-0.57-1.1-1.2v-2.7c0.068-0.529,0.38-0.77,0.948-0.7h0.352L408.6,269.8
					L408.6,269.8z M406.75,259.4h-8.95v-3.05h9.25l0.102,0.05l0.42,1.479c0.01,0.021,0.02,0.051,0.02,0.08
					c-0.3-0.399-0.479-0.6-0.55-0.6c-0.03,0.229,0,0.47,0.1,0.7v0.75v0.6h-0.35L406.75,259.4L406.75,259.4z"/>
				<path fill="#48311F" d="M407.15,256c-0.102,0.17-0.132,0.28-0.102,0.351h-9.25v3.05h-1.3v-3.05h-0.15c0-0.07-0.028-0.13-0.1-0.2
					l-0.1-0.05c-0.172,0.029-0.302,0.12-0.4,0.25h-0.1c0.17-0.33,0.5-0.57,1-0.7h10.5L407.15,256L407.15,256z"/>
				<path fill="#A9754D" d="M406.8,259.4c0.13,0.07,0.25,0.1,0.352,0.1c0.068,0,0.118,0,0.148,0c0.13-0.069,0.25-0.13,0.352-0.2
					c0,0.07,0.028,0.101,0.1,0.101s0.1,0.07,0.1,0.2l0.052,0.05c0,0.07-0.021,0.13-0.052,0.2h-0.1l-0.1-0.101
					c-0.171,0-0.28,0.03-0.352,0.101h-0.05h-0.1c-0.102,0-0.15-0.03-0.15-0.101c-0.13-0.069-0.22-0.18-0.25-0.35H406.8z"/>
				<path fill="#A87850" d="M406.8,259.4h0.352v0.1C407.05,259.5,406.93,259.47,406.8,259.4z"/>
				<path fill="#F7D1AC" d="M407.75,259.85c0.23,0.2,0.12,0.33-0.35,0.399c0-0.17-0.052-0.279-0.15-0.35v-0.05h0.05
					c0.07-0.07,0.181-0.101,0.352-0.101L407.75,259.85z"/>
				<path fill="#AD8057" d="M397.8,259.4h8.95c0.03,0.17,0.12,0.28,0.25,0.35h-10.5v-0.35H397.8z"/>
				
					<linearGradient id="SVGID_55_" gradientUnits="userSpaceOnUse" x1="427.1514" y1="959.9746" x2="452.624" y2="959.9746" gradientTransform="matrix(-1 0 0 1 754.1895 -693.0469)">
					<stop  offset="0" style="stop-color:#26281A"/>
					<stop  offset="1" style="stop-color:#646743"/>
				</linearGradient>
				<path fill="url(#SVGID_55_)" d="M331.5,258.8v14.9c-0.4,0.23-0.93,0.43-1.6,0.6c-2.73,0.73-7.33,0.931-13.802,0.601
					c-3.868-0.17-6.479-0.57-7.85-1.2c-0.23-0.03-0.43-0.08-0.6-0.15c-0.87-0.3-1.4-0.979-1.602-2.05v-8.85
					c-0.13-1.87,0.37-3.15,1.5-3.851l0.102,0.101c0.5,0.27,2.63,0.52,6.398,0.75c4.2,0.229,7.32,0.3,9.352,0.2
					c1.77-0.07,3.93-0.33,6.5-0.8C330.4,259.02,330.93,258.93,331.5,258.8z"/>
				
					<linearGradient id="SVGID_56_" gradientUnits="userSpaceOnUse" x1="297.877" y1="958.7227" x2="431.502" y2="958.7227" gradientTransform="matrix(-1 0 0 1 754.1895 -693.0469)">
					<stop  offset="0" style="stop-color:#332B16"/>
					<stop  offset="0.3608" style="stop-color:#332B16"/>
					<stop  offset="1" style="stop-color:#572D17"/>
				</linearGradient>
				<polygon fill="url(#SVGID_56_)" points="333.55,263 336.8,263 336.8,268.35 333.55,268.35 332.85,268.35 332.85,263 				"/>
				
					<linearGradient id="SVGID_57_" gradientUnits="userSpaceOnUse" x1="398.002" y1="958.7227" x2="422.2769" y2="958.7227" gradientTransform="matrix(-1 0 0 1 754.1895 -693.0469)">
					<stop  offset="0" style="stop-color:#332B16"/>
					<stop  offset="0.3608" style="stop-color:#332B16"/>
					<stop  offset="1" style="stop-color:#572D17"/>
				</linearGradient>
				<rect x="331.85" y="263" fill="url(#SVGID_57_)" width="1" height="5.351"/>
				<path fill="#634125" d="M331.5,273.7v-14.899c1.27-0.271,1.95,0.279,2.05,1.649V263h-0.7h-1v5.351h1h0.7V272
					C333.38,273.03,332.7,273.6,331.5,273.7z"/>
				
					<linearGradient id="SVGID_58_" gradientUnits="userSpaceOnUse" x1="387.4893" y1="958.7227" x2="420.8893" y2="958.7227" gradientTransform="matrix(-1 0 0 1 754.1895 -693.0469)">
					<stop  offset="0" style="stop-color:#332B16"/>
					<stop  offset="0.3608" style="stop-color:#332B16"/>
					<stop  offset="1" style="stop-color:#572D17"/>
				</linearGradient>
				<rect x="336.8" y="263" fill="url(#SVGID_58_)" width="1.45" height="5.351"/>
				
					<linearGradient id="SVGID_59_" gradientUnits="userSpaceOnUse" x1="240.9019" y1="958.7227" x2="446.6768" y2="958.7227" gradientTransform="matrix(-1 0 0 1 754.1895 -693.0469)">
					<stop  offset="0" style="stop-color:#332B16"/>
					<stop  offset="0.3608" style="stop-color:#332B16"/>
					<stop  offset="1" style="stop-color:#572D17"/>
				</linearGradient>
				<rect x="338.25" y="263" fill="url(#SVGID_59_)" width="32.35" height="5.351"/>
				<path fill="#FCC79B" d="M396.35,256.35l0.052,0.05c0,0.3-0.132,0.45-0.4,0.45c-0.17-0.23-0.25-0.4-0.25-0.5
					c0.1-0.13,0.23-0.221,0.4-0.25l0.1,0.05C396.32,256.22,396.35,256.28,396.35,256.35z M396.5,259.4v0.35
					c-0.1,0.101-0.23,0.13-0.4,0.101c-0.068,0-0.1-0.03-0.1-0.101l-0.1-0.1c0-0.03-0.03-0.12-0.102-0.25c0-0.101,0-0.23,0-0.4h0.102
					c0.13,0,0.22,0,0.25,0c0.068,0,0.13,0,0.198,0c0.03,0.17,0.052,0.3,0.052,0.4H396.5z"/>
				<path fill="#B66E48" d="M395.55,259.4v-2.55c0-0.23,0.03-0.4,0.102-0.5h0.1c0,0.1,0.08,0.27,0.25,0.5c0.271,0,0.4-0.15,0.4-0.45
					l-0.052-0.05h0.15v3.05h-0.1c0-0.101-0.021-0.23-0.052-0.4c-0.068,0-0.13,0-0.198,0c-0.03,0-0.12,0-0.25,0H395.8
					c0,0.17,0,0.3,0,0.4H395.55z"/>
				<path fill="#775D38" d="M395.55,259.4h0.25c0.07,0.13,0.102,0.22,0.102,0.25l0.1,0.1c0,0.07,0.03,0.101,0.1,0.101
					c0.172,0.029,0.302,0,0.4-0.101v0.5c-0.4,0-0.68-0.12-0.85-0.35c-0.07-0.03-0.102-0.08-0.102-0.15c0-0.069,0-0.12,0-0.149V259.4
					z"/>
				<path fill="#F4D9C6" d="M393.2,262.15h-2.3v-0.2v-0.65h3.75l-0.602,0.851h-0.35c0.069-0.07,0.12-0.13,0.148-0.2l0.102-0.15
					c0-0.13-0.05-0.22-0.15-0.25l-0.1-0.1C393.47,261.68,393.3,261.92,393.2,262.15z"/>
				<path fill="#D3A47A" d="M394.05,268.7H390.9v-6.55h2.3c-0.37,0.77-0.352,1.62,0.05,2.55c-0.03-0.97,0.12-1.82,0.45-2.55h0.35
					c-1.03,2.37-0.819,4.55,0.65,6.55h-0.15l-1.35-1.899c0,0.399,0,0.869,0,1.399c0.17,0.271,0.55,0.43,1.148,0.5H394.05z"/>
				<path fill="#FFFDC7" d="M393.7,262.15c-0.33,0.729-0.48,1.58-0.45,2.55c-0.4-0.93-0.42-1.78-0.05-2.55
					c0.1-0.23,0.27-0.47,0.5-0.7l0.1,0.1c0.102,0.03,0.15,0.12,0.15,0.25l-0.102,0.15C393.82,262.02,393.77,262.08,393.7,262.15z
					 M388.9,260.85c0.068,0.229-0.182,0.43-0.75,0.6c-0.102-0.1-0.15-0.22-0.15-0.35l-0.1-0.1h0.1c0.23-0.2,0.52-0.279,0.85-0.25
					L388.9,260.85z M385.35,268.85v0.1c-0.97,0.33-1.42,0.22-1.35-0.35C384.5,268.67,384.95,268.75,385.35,268.85z M387.65,270.55
					v0.101c-0.73,0.1-1.132-0.15-1.2-0.75C386.85,270.23,387.25,270.45,387.65,270.55z M394.55,268.7c-0.069,0-0.13,0-0.2,0
					c-0.6-0.07-0.979-0.229-1.148-0.5c0-0.53,0-1,0-1.399L394.55,268.7z"/>
				
					<linearGradient id="SVGID_60_" gradientUnits="userSpaceOnUse" x1="363.2773" y1="958.5557" x2="404.2023" y2="958.5557" gradientTransform="matrix(-1 0 0 1 754.1895 -693.0469)">
					<stop  offset="0" style="stop-color:#332B16"/>
					<stop  offset="0.3608" style="stop-color:#332B16"/>
					<stop  offset="1" style="stop-color:#572D17"/>
				</linearGradient>
				<path fill="url(#SVGID_60_)" d="M390.9,262.15v6.55v0.4c-0.53,0.229-1.102,0.35-1.7,0.35c-0.53-0.07-1.12-0.2-1.75-0.4v-0.699
					h-3.8V263h3.55v-1.05c0.29-0.16,0.568-0.25,0.83-0.25h0.02c0.2-0.07,0.352-0.1,0.45-0.1c0.9-0.101,1.7,0.02,2.4,0.35V262.15
					L390.9,262.15z"/>
				
					<linearGradient id="SVGID_61_" gradientUnits="userSpaceOnUse" x1="363.2393" y1="954.3262" x2="369.8408" y2="954.3262" gradientTransform="matrix(-1 0 0 1 754.1895 -693.0469)">
					<stop  offset="0" style="stop-color:#734923"/>
					<stop  offset="1" style="stop-color:#FFFFF8"/>
				</linearGradient>
				<path fill="url(#SVGID_61_)" d="M388.03,261.7h-3.73l2-0.25c1.931-1.07,3.47-1.12,4.602-0.149v0.649
					c-0.7-0.33-1.5-0.45-2.4-0.35c-0.1,0-0.25,0.029-0.45,0.1H388.03z M388.9,260.85l-0.052-0.101
					c-0.329-0.029-0.618,0.05-0.85,0.25h-0.1l0.1,0.101c0,0.13,0.05,0.25,0.15,0.35C388.72,261.28,388.97,261.08,388.9,260.85z"/>
				<path fill="#D2A888" d="M386.9,261.95c-0.132,0.17-0.722,0.23-1.75,0.2c-1,0-1.5-0.07-1.5-0.2c1.068,0,2.118-0.02,3.148-0.05
					L386.9,261.95z"/>
				
					<linearGradient id="SVGID_62_" gradientUnits="userSpaceOnUse" x1="366.1143" y1="955.3975" x2="371.5643" y2="955.3975" gradientTransform="matrix(-1 0 0 1 754.1895 -693.0469)">
					<stop  offset="0" style="stop-color:#734923"/>
					<stop  offset="1" style="stop-color:#B27244"/>
				</linearGradient>
				<path fill="url(#SVGID_62_)" d="M382.8,263c-0.3-0.399-0.1-0.8,0.602-1.2l0.898-0.1h3.73c-0.262,0-0.54,0.09-0.83,0.25V263
					h-3.55H382.8z M386.9,261.95l-0.102-0.05c-1.03,0.03-2.08,0.05-3.148,0.05c0,0.13,0.5,0.2,1.5,0.2
					C386.18,262.18,386.77,262.12,386.9,261.95z"/>
				
					<linearGradient id="SVGID_63_" gradientUnits="userSpaceOnUse" x1="364.9268" y1="961.998" x2="371.7529" y2="961.998" gradientTransform="matrix(-1 0 0 1 754.1895 -693.0469)">
					<stop  offset="0" style="stop-color:#BBAF89"/>
					<stop  offset="1" style="stop-color:#FFFFF8"/>
				</linearGradient>
				<path fill="url(#SVGID_63_)" d="M385.45,269.45h-2.25c-0.8-0.07-1.021-0.43-0.65-1.1h1.102h3.8v0.7
					c0.63,0.199,1.22,0.329,1.75,0.399v0.101L385.45,269.45z M385.35,268.85c-0.398-0.101-0.85-0.181-1.35-0.25
					c-0.07,0.569,0.38,0.68,1.35,0.35V268.85z"/>
				
					<linearGradient id="SVGID_64_" gradientUnits="userSpaceOnUse" x1="363.127" y1="963.4043" x2="368.752" y2="963.4043" gradientTransform="matrix(-1 0 0 1 754.1895 -693.0469)">
					<stop  offset="0" style="stop-color:#734923"/>
					<stop  offset="1" style="stop-color:#FFFFF8"/>
				</linearGradient>
				<path fill="url(#SVGID_64_)" d="M385.45,269.45l3.75,0.101h1.85c-0.67,0.899-1.38,1.43-2.148,1.6c-1.4,0.33-2.42-0.07-3.052-1.2
					C385.68,269.78,385.55,269.62,385.45,269.45z M387.65,270.55c-0.4-0.1-0.802-0.319-1.2-0.649c0.068,0.6,0.47,0.85,1.2,0.75
					V270.55z"/>
				<path fill="#8E5B40" d="M390.9,268.7h3.148v0.75h-2.898l-0.102,0.101h-1.85v-0.101c0.6,0,1.17-0.12,1.7-0.35L390.9,268.7
					L390.9,268.7z"/>
				
					<linearGradient id="SVGID_65_" gradientUnits="userSpaceOnUse" x1="36.0537" y1="289.8105" x2="42.6074" y2="289.8105" gradientTransform="matrix(1.526718e-004 -1 -1 0.001 685.1093 304.489)">
					<stop  offset="0" style="stop-color:#9A6E47"/>
					<stop  offset="0.1647" style="stop-color:#976C45"/>
					<stop  offset="0.3176" style="stop-color:#423117"/>
					<stop  offset="0.4314" style="stop-color:#543A23"/>
					<stop  offset="0.8471" style="stop-color:#443120"/>
					<stop  offset="1" style="stop-color:#CBC394"/>
				</linearGradient>
				<path fill="url(#SVGID_65_)" d="M397.2,262.15v6.55h-2.5c-1.47-2-1.681-4.18-0.65-6.55H397.2z"/>
				
					<linearGradient id="SVGID_66_" gradientUnits="userSpaceOnUse" x1="360.3896" y1="958.7227" x2="393.7896" y2="958.7227" gradientTransform="matrix(-1 0 0 1 754.1895 -693.0469)">
					<stop  offset="0" style="stop-color:#332B16"/>
					<stop  offset="0.3608" style="stop-color:#332B16"/>
					<stop  offset="1" style="stop-color:#572D17"/>
				</linearGradient>
				<polygon fill="url(#SVGID_66_)" points="370.6,263 382.8,263 383.65,263 383.65,268.35 382.55,268.35 370.6,268.35 				"/>
			</g>
			<g>
				<path fill="#C8AD7E" d="M426.25,262.75c-0.07,0-0.13,0.021-0.2,0.05c0-0.029,0.03-0.079,0.102-0.149L426.25,262.75z
					 M420.25,263.15h0.1C420.58,263.65,420.55,263.65,420.25,263.15z"/>
				<path fill="#EACDBB" d="M427.1,260.7l0.15,0.15c-9.83,0-19.65,0-29.45,0l-0.1-0.101C407.53,260.72,417.33,260.7,427.1,260.7z"/>
				<path fill="#FFF0DE" d="M428.45,265.45c0.47,0.4,0.47,0.771,0,1.101V266.5C428.18,266.13,428.18,265.78,428.45,265.45z"/>
			</g>
			<g>
				<path fill="#EDC2A2" d="M332.45,271.1c-0.17,0-0.28-0.07-0.352-0.2c-0.1-0.101-0.148-0.23-0.148-0.4
					c0-0.13,0.05-0.25,0.148-0.35c0.07-0.13,0.182-0.2,0.352-0.2c0.03,0,0.08,0.07,0.148,0.2c0.132,0.1,0.2,0.22,0.2,0.35
					c0,0.17-0.068,0.3-0.2,0.4C332.53,271.03,332.48,271.1,332.45,271.1z M332.5,261.2c0.07,0.07,0.1,0.18,0.1,0.351
					c0,0.1-0.028,0.22-0.1,0.35c-0.1,0.03-0.18,0.05-0.25,0.05c-0.1,0-0.18-0.02-0.25-0.05c-0.1-0.13-0.15-0.25-0.15-0.35
					c0-0.171,0.052-0.28,0.15-0.351c0.07-0.17,0.15-0.25,0.25-0.25C332.32,260.95,332.4,261.03,332.5,261.2z"/>
			</g>
			<g>
				<path fill="#522C16" d="M332.2,261.1c0.03-0.101,0.08-0.15,0.148-0.15c0.102,0,0.182,0.05,0.25,0.15v0.1
					c0.07,0.07,0.102,0.15,0.102,0.25c0,0.101-0.03,0.18-0.102,0.25c-0.068,0.13-0.148,0.2-0.25,0.2c-0.068,0-0.118-0.07-0.148-0.2
					c-0.07-0.07-0.102-0.149-0.102-0.25c0-0.1,0-0.18,0-0.25L332.2,261.1z M332.8,269.95c0.03,0.13,0.05,0.28,0.05,0.45
					c0,0.1-0.02,0.18-0.05,0.25c-0.13,0.17-0.229,0.25-0.3,0.25c-0.1,0-0.18-0.08-0.25-0.25c-0.1-0.07-0.15-0.15-0.15-0.25
					c0-0.17,0.052-0.32,0.15-0.45c0.07-0.03,0.15-0.05,0.25-0.05C332.57,269.9,332.67,269.92,332.8,269.95z"/>
				<line fill="none" x1="333.55" y1="263.5" x2="332.25" y2="263.5"/>
				<line fill="none" x1="333.55" y1="267.85" x2="332.25" y2="267.85"/>
				<line fill="none" x1="331.75" y1="263.25" x2="331.75" y2="268.1"/>
				<line fill="none" x1="338.25" y1="267.85" x2="336.8" y2="267.85"/>
				<line fill="none" x1="338.25" y1="263.5" x2="336.8" y2="263.5"/>
				<line fill="none" x1="336.8" y1="267.85" x2="333.55" y2="267.85"/>
				<line fill="none" x1="336.8" y1="263.5" x2="333.55" y2="263.5"/>
				<line fill="none" x1="378.95" y1="267.85" x2="387.4" y2="267.85"/>
				<line fill="none" x1="378.95" y1="263.5" x2="386.8" y2="263.5"/>
				<line fill="none" x1="378.95" y1="263.5" x2="370.6" y2="263.5"/>
				<line fill="none" x1="378.95" y1="267.85" x2="370.6" y2="267.85"/>
				<line fill="none" x1="370.6" y1="263.5" x2="338.25" y2="263.5"/>
				<line fill="none" x1="370.6" y1="267.85" x2="338.25" y2="267.85"/>
				<line fill="none" x1="425.75" y1="263.15" x2="398.65" y2="263.15"/>
				<path fill="none" d="M315.05,260.25c-1.3,0.17-2.68,0.2-4.148,0.101c-1.03-0.07-2.12-0.23-3.25-0.5"/>
				<path fill="none" d="M315.4,273.65c-2.83,0.03-5.382-0.28-7.65-0.95"/>
				<line fill="none" x1="306.8" y1="261" x2="306.8" y2="271.25"/>
			</g>
			<g>
				<path fill="none" d="M333.3,271.15c0.07,1.03-0.479,1.6-1.648,1.7"/>
				<path fill="none" d="M332.2,259.25c0.2,0,0.398,0.05,0.6,0.15c0.4,0.399,0.53,1.13,0.4,2.2"/>
			</g>
			<g>
				<path fill="#452914" d="M371.8,264.25c-0.1,0.13-0.22,0.25-0.35,0.351c0.17-0.271,0.33-0.521,0.5-0.75
					c0.47-0.471,1.028-0.7,1.7-0.7h0.1v0.1h-0.1c-0.73,0-1.352,0.32-1.852,0.95L371.8,264.25L371.8,264.25z"/>
				<path fill="#9D6846" d="M373.75,263.25l0.2,0.05c0.03,0.07,0.08,0.131,0.148,0.2c-0.868,0.101-1.55,0.471-2.05,1.101
					c0-0.07-0.029-0.12-0.1-0.15c-0.03,0-0.08-0.03-0.15-0.1v-0.101v-0.05c0.5-0.63,1.12-0.95,1.852-0.95H373.75z"/>
				<path fill="#EBB579" d="M371.2,265.3c0.1-0.3,0.18-0.529,0.25-0.699c0.13-0.101,0.25-0.221,0.35-0.351v0.101
					c0.07,0.069,0.12,0.1,0.15,0.1c0.069,0.03,0.1,0.08,0.1,0.15h0.102c-0.07,0.069-0.13,0.1-0.2,0.1c-0.33,0.271-0.53,0.6-0.602,1
					C371.32,265.6,371.27,265.47,371.2,265.3z"/>
				
					<radialGradient id="SVGID_67_" cx="380.54" cy="515.0557" r="3.2128" gradientTransform="matrix(-1 0 0 -1.0623 754.1895 812.8322)" gradientUnits="userSpaceOnUse">
					<stop  offset="0" style="stop-color:#583320"/>
					<stop  offset="1" style="stop-color:#592D14"/>
				</radialGradient>
				<path fill="url(#SVGID_67_)" d="M372.05,264.6c0.5-0.63,1.181-1,2.05-1.101c-0.068-0.069-0.119-0.13-0.148-0.2l-0.2-0.05v-0.1
					c0.7,0.07,1.27,0.3,1.7,0.7c-0.17-0.07-0.3-0.05-0.4,0.05l-0.1,0.1c0,0.13,0,0.221,0,0.25c-0.17-0.17-0.37-0.25-0.602-0.25
					c-0.068,0-0.148,0-0.25,0H374c0.07,0.5,0.15,0.87,0.25,1.101c0.17,0.399,0.52,0.569,1.05,0.5v-0.05c0-0.23,0-0.431,0-0.601
					c0,0.101,0.04,0.19,0.102,0.25c0.479-0.16,0.63-0.399,0.42-0.729c0.22,0.329,0.33,0.739,0.33,1.229c0,0.73-0.23,1.37-0.7,1.9
					c-0.17,0.17-0.33,0.3-0.5,0.399c-0.4,0.23-0.83,0.351-1.3,0.351c-0.671,0-1.23-0.25-1.7-0.75c-0.33-0.3-0.53-0.65-0.602-1.05
					c-0.028-0.101-0.08-0.221-0.148-0.351c0-0.17,0-0.33,0-0.5c0-0.1,0-0.229,0-0.399c0.068,0.17,0.12,0.3,0.148,0.399
					c0.07-0.399,0.271-0.729,0.602-1c0.068,0,0.13-0.03,0.2-0.1h-0.102V264.6z M372.2,264.85c0.229,0.399,0.47,0.399,0.7,0
					c0.068,0,0.028-0.05-0.102-0.15c-0.17,0.03-0.38,0.05-0.648,0.05L372.2,264.85z M373,267.5c0,0.101,0,0.221,0,0.351
					c0.1,0.27,0.5,0.319,1.2,0.149c0.1,0,0.18-0.029,0.25-0.1c0,0.07,0.02,0.1,0.05,0.1c0.13,0,0.25-0.05,0.35-0.149
					c0.07-0.07,0.102-0.13,0.102-0.2l0.75-0.851c0-0.17-0.05-0.3-0.15-0.399c-0.1-0.17-0.18-0.25-0.25-0.25
					c-0.068,0-0.229,0.13-0.5,0.399c-0.2,0.171-0.38,0.32-0.55,0.45c-0.2-0.13-0.62-0.2-1.25-0.2c-1.27-0.43-1.33-0.229-0.2,0.601
					C372.93,267.4,373,267.43,373,267.5z M372.15,267.25c-0.07-0.17-0.182-0.33-0.352-0.5c-0.1-0.17-0.22-0.37-0.35-0.6h-0.102
					c0.07,0.17,0.13,0.33,0.2,0.5c0.102,0.1,0.18,0.22,0.25,0.35c0.271,0.431,0.67,0.721,1.2,0.851
					C372.7,267.68,372.42,267.48,372.15,267.25z"/>
				<path fill="#CFA984" d="M374.95,264.25c0.069,0.07,0.12,0.13,0.148,0.2c0.132,0.2,0.2,0.33,0.2,0.4v0.1c0,0.17,0,0.37,0,0.601
					v0.05c-0.529,0.069-0.88-0.101-1.05-0.5c-0.1-0.23-0.18-0.601-0.25-1.101h0.1c0.102,0,0.182,0,0.25,0
					C374.58,264,374.78,264.08,374.95,264.25z"/>
				<path fill="#E2DCC6" d="M372.2,264.85l-0.05-0.101c0.27,0,0.479-0.02,0.648-0.05c0.13,0.101,0.17,0.15,0.102,0.15
					C372.67,265.25,372.43,265.25,372.2,264.85z"/>
				<path fill="#E0B58A" d="M374.25,267c0.17-0.13,0.35-0.279,0.55-0.45c0.271-0.27,0.431-0.399,0.5-0.399
					c0.07,0,0.15,0.08,0.25,0.25c0.102,0.1,0.15,0.229,0.15,0.399l-0.75,0.851c0,0.07-0.03,0.13-0.102,0.2
					c-0.1,0.1-0.22,0.149-0.35,0.149c-0.03,0-0.05-0.029-0.05-0.1v-0.05c0-0.07-0.07-0.13-0.2-0.2c0-0.03,0-0.08,0-0.15
					c0-0.069,0-0.12,0-0.149C374.25,267.28,374.25,267.17,374.25,267z"/>
				<path fill="#D87742" d="M373,267.5c0-0.069-0.07-0.1-0.2-0.1c-1.13-0.83-1.069-1.03,0.2-0.601c0.63,0,1.05,0.07,1.25,0.2
					c0,0.17,0,0.28,0,0.351c0,0.029,0,0.08,0,0.149c-0.4,0.23-0.82,0.15-1.25-0.25C373,267.35,373,267.43,373,267.5z"/>
				<path fill="#9F6D38" d="M374.45,267.9c-0.07,0.07-0.15,0.1-0.25,0.1c-0.7,0.17-1.102,0.12-1.2-0.149c0-0.13,0-0.25,0-0.351
					c0-0.069,0-0.149,0-0.25c0.43,0.4,0.85,0.48,1.25,0.25c0,0.07,0,0.12,0,0.15c0.13,0.07,0.2,0.13,0.2,0.2V267.9z"/>
				<path fill="#FFF3A9" d="M372.15,267.25c0.27,0.23,0.55,0.431,0.85,0.601c-0.53-0.13-0.93-0.42-1.2-0.851
					c-0.069-0.13-0.148-0.25-0.25-0.35c-0.069-0.17-0.13-0.33-0.2-0.5h0.102c0.13,0.229,0.25,0.43,0.35,0.6
					C371.97,266.92,372.08,267.08,372.15,267.25z"/>
				<path fill="#FFF5E8" d="M375.45,263.85c0.069,0.029,0.1,0.08,0.1,0.149c0.102,0.13,0.15,0.25,0.15,0.351l0.13,0.13
					c0.2,0.32,0.06,0.56-0.42,0.729c-0.07-0.06-0.102-0.149-0.102-0.25v-0.1c0-0.07-0.068-0.2-0.198-0.4
					c-0.03-0.069-0.08-0.13-0.15-0.199c0-0.03,0-0.12,0-0.25l0.1-0.101C375.15,263.8,375.28,263.78,375.45,263.85z"/>
			</g>
			<g>
				<path fill="none" d="M427.6,261.55c1.07,2.2,1.07,4.301,0,6.301"/>
			</g>
		</g>
		<g>
			
				<use xlink:href="#screw"  width="4.46" height="5.052" x="-2.23" y="-2.525" transform="matrix(-0.3807 0 0.0455 -0.0491 172.0776 653.7178)" overflow="visible"/>
			<g>
				
					<linearGradient id="SVGID_68_" gradientUnits="userSpaceOnUse" x1="527.2607" y1="-415.7471" x2="550.2607" y2="-415.7471" gradientTransform="matrix(1 0 0 -1 -312.8105 235.9531)">
					<stop  offset="0.0039" style="stop-color:#000000"/>
					<stop  offset="1" style="stop-color:#000000;stop-opacity:0"/>
				</linearGradient>
				<polygon fill="url(#SVGID_68_)" points="58.85,654.4 62,649 240,649 241.5,654.4 				"/>
			</g>
			<g>
				<path fill="#E5E5E5" d="M143.55,577.6h89.35c1.9,4.931,3.17,10.631,3.8,17.101c0.57,6.37,0.47,12.819-0.3,19.351
					c-0.9,7.93-2.1,15.13-3.6,21.601c-1.8,7.899-3.8,13.67-6,17.3h-83.25h-0.85H60.8c-2.2-3.63-4.2-9.399-6-17.3
					c-1.5-6.471-2.7-13.671-3.6-21.601c-0.77-6.53-0.87-12.979-0.3-19.351c0.63-6.47,1.9-12.17,3.8-17.101h88H143.55z"/>
			</g>
			<g>
				
					<linearGradient id="SVGID_69_" gradientUnits="userSpaceOnUse" x1="456.6104" y1="-346.4971" x2="456.6104" y2="-412.9971" gradientTransform="matrix(1 0 0 -1 -312.8105 235.9531)">
					<stop  offset="0" style="stop-color:#BFBFBF"/>
					<stop  offset="0.549" style="stop-color:#A8A8A8"/>
					<stop  offset="0.5647" style="stop-color:#999999"/>
					<stop  offset="1" style="stop-color:#B7B7B7"/>
				</linearGradient>
				<path fill="url(#SVGID_69_)" d="M143.4,582.45h0.8h82.6c3.87,9.931,5.03,21.38,3.5,34.351c-1.53,13.569-4.73,24.279-9.6,32.149
					h-76.5h-0.8H66.9c-4.87-7.87-8.07-18.58-9.6-32.149c-1.53-12.971-0.37-24.42,3.5-34.351H143.4z"/>
			</g>
			<g>
				<path fill="#FFFFFF" d="M79.2,596h129.9c2.3,11.301,3.08,21.73,2.35,31.301c-0.77,9.529-1.6,16.75-2.5,21.649H79.45
					c-1-5.431-1.88-13.101-2.65-23C76.1,616.02,76.9,606.03,79.2,596z"/>
			</g>
			<g>
				<polygon points="201.55,644.051 201.55,603 84.05,603 84.05,600.25 204.6,600.25 204.6,644.051 				"/>
				<rect x="84.05" y="603" fill="#333333" width="117.5" height="41.051"/>
			</g>
			<rect x="175.3" y="624.41" fill="none" width="61.15" height="20.88"/>
			<g enable-background="new    ">
				<path fill="#FBCA04" d="M178.22,629.091h1.73v1.029c0.23-0.351,0.53-0.64,0.91-0.859c0.38-0.22,0.81-0.33,1.28-0.33
					c0.82,0,1.51,0.32,2.08,0.96c0.57,0.641,0.85,1.53,0.85,2.67c0,1.17-0.29,2.091-0.86,2.74s-1.27,0.979-2.09,0.979
					c-0.39,0-0.74-0.08-1.06-0.229s-0.65-0.42-1-0.79v3.54h-1.86v-9.71H178.22L178.22,629.091z M180.06,632.49
					c0,0.79,0.16,1.37,0.47,1.75c0.31,0.38,0.69,0.569,1.15,0.569c0.43,0,0.79-0.17,1.08-0.521c0.29-0.35,0.43-0.92,0.43-1.71
					c0-0.739-0.15-1.279-0.44-1.64c-0.3-0.36-0.66-0.54-1.1-0.54c-0.46,0-0.83,0.17-1.13,0.529
					C180.21,631.28,180.06,631.801,180.06,632.49z"/>
				<path fill="#FBCA04" d="M186.58,636.12v-9.71h1.96v3.82h3.84v-3.82h1.96v9.71h-1.96v-4.239h-3.84v4.239H186.58z"/>
			</g>
		</g>
	</g>
</g>
</svg>
