<?xml version="1.0" encoding="utf-8"?>
<!-- Generator: Adobe Illustrator 16.0.0, SVG Export Plug-In . SVG Version: 6.00 Build 0)  -->
<!DOCTYPE svg PUBLIC "-//W3C//DTD SVG 1.1//EN" "http://www.w3.org/Graphics/SVG/1.1/DTD/svg11.dtd">
<svg version="1.1" xmlns="http://www.w3.org/2000/svg" xmlns:xlink="http://www.w3.org/1999/xlink" x="0px" y="0px" width="92px"
	 height="108px" viewBox="0 0 92 108" enable-background="new 0 0 92 108" xml:space="preserve">
<g id="Layer_3">
	<path opacity="0.02" fill="#FFFFFF" d="M4.25,11C6.75,9.5,14,9.5,14,9.5l63.75,0.25c0,0,9.75,0.75,6.25,2.5
		C84.5,14,83.5,18,83.5,18v75c0,0,0.5,4.375-7.5,6.75c-24.5,6-49.875,2-58.25,0s-7.5-7-7.5-7.25c-0.5-4,0.75-65,0-73.75
		S1.75,12.5,4.25,11z"/>
</g>
<g id="Layer_1">
	<g id="Layer_1_1_">
		<g>
			<g>
				<path fill="#FFFFFF" d="M9.8,32.7h74.65V91.6c-0.07,2.07-0.75,3.9-2.05,5.5c-1.301,1.57-3.602,2.7-6.9,3.4
					c-18.8,3.87-37.73,3.88-56.8,0.05c-4.07-1.17-6.58-2.45-7.55-3.85c-0.97-1.47-1.42-3.12-1.35-4.95V32.7z"/>
			</g>
			<g>
				<g>
					<path fill="none" stroke="#FFFFFF" stroke-width="0.75" stroke-miterlimit="10" d="M85.9,12.25c-0.7,1.4-1.15,2.62-1.352,3.65
						c-0.068,0.13-0.1,0.27-0.1,0.4v75.3c-0.07,2.07-0.75,3.9-2.051,5.5c-1.301,1.57-3.601,2.7-6.899,3.4
						c-18.8,3.87-37.73,3.88-56.8,0.05c-4.07-1.17-6.58-2.45-7.55-3.85c-0.97-1.47-1.42-3.12-1.35-4.95v-71.7
						c-0.03-2.771-1.32-5.43-3.85-8C4.65,11.78,4,11.48,4,11.15c0-0.73,4.07-1.38,12.2-1.95c8.07-0.47,17.82-0.7,29.25-0.7
						c11.47,0,21.229,0.23,29.3,0.7c8.1,0.57,12.15,1.22,12.15,1.95c0,0.27-0.32,0.48-0.95,0.65c-0.03,0-0.05,0.02-0.05,0.05
						c-1.271,0.6-5.4,1.1-12.4,1.5c-7.2,0.33-16.529,0.5-28,0.5c-11.47,0-21.23-0.25-29.3-0.75c-4.9-0.37-8.32-0.72-10.25-1.05"/>
				</g>
				<g>
					
						<linearGradient id="SVGID_1_" gradientUnits="userSpaceOnUse" x1="8.7627" y1="740.6006" x2="60.1377" y2="740.6006" gradientTransform="matrix(1 0 0 1 -30.9004 -683.0508)">
						<stop  offset="0" style="stop-color:#FFFFFF;stop-opacity:0.6706"/>
						<stop  offset="1" style="stop-color:#FFFFFF;stop-opacity:0"/>
					</linearGradient>
					<path fill="url(#SVGID_1_)" d="M8.55,12.95c13.03,1.63,24.82,2.23,35.35,1.8c-0.23,2.1-0.32,4.53-0.25,7.3l-0.1,80.101
						c-14.07-0.729-23-1.92-26.8-3.551c-3.77-1.67-5.65-3.77-5.65-6.3l0.15-73.75C10.95,16.98,10.05,15.12,8.55,12.95z"/>
				</g>
				<g>
					
						<linearGradient id="SVGID_2_" gradientUnits="userSpaceOnUse" x1="186.5254" y1="-758.4082" x2="274.3635" y2="-758.4082" gradientTransform="matrix(0.228 0.9737 -1.0045 0.0962 -800.153 -133.9715)">
						<stop  offset="0" style="stop-color:#FFFFFF;stop-opacity:0.6706"/>
						<stop  offset="1" style="stop-color:#FFFFFF;stop-opacity:0"/>
					</linearGradient>
					<path fill="url(#SVGID_2_)" d="M28.75,18.05L28.7,94.5c-6.53-0.17-10.4-1.23-11.6-3.2l-0.85-74.4
						C20.28,17.53,24.45,17.92,28.75,18.05z"/>
				</g>
				<g>
					<path fill="none" d="M63.75,101.45c11.529-0.5,17.92-2.58,19.15-6.25"/>
					<path fill="none" d="M10.4,92.25c1.53,6.67,13.58,10.15,36.15,10.45"/>
				</g>
				<g>
					<line fill="none" x1="82.65" y1="19.55" x2="82.65" y2="92.25"/>
				</g>
				<g>
					<path fill="none" d="M72.1,92.75c3.57,0.23,6.03,0.52,7.4,0.85c0.63,0.131,1.02,0.301,1.15,0.5"/>
					<path fill="none" d="M12.7,93.9c1.4-1.53,14.93-2.17,40.6-1.9"/>
				</g>
				<g>
					
						<linearGradient id="SVGID_3_" gradientUnits="userSpaceOnUse" x1="-1612.1733" y1="-1176.1055" x2="-1590.0316" y2="-1176.1055" gradientTransform="matrix(-0.9981 0.061 -0.0037 -1.0016 -1518.2299 -1025.9915)">
						<stop  offset="0" style="stop-color:#FFFFFF;stop-opacity:0.6706"/>
						<stop  offset="1" style="stop-color:#FFFFFF;stop-opacity:0"/>
					</linearGradient>
					<path fill="url(#SVGID_3_)" d="M82.65,14.3V89.65c-9.07,6.93-15.98,7.5-20.75,1.699V16C69.17,15.83,76.08,15.27,82.65,14.3z"/>
				</g>
				<g>
					
						<linearGradient id="SVGID_4_" gradientUnits="userSpaceOnUse" x1="-1738.4893" y1="614.7246" x2="-1711.788" y2="614.7246" gradientTransform="matrix(-0.014 -0.9999 1.0002 0.0055 -591.293 -1619.939)">
						<stop  offset="0" style="stop-color:#FFFFFF"/>
						<stop  offset="1" style="stop-color:#FFFFFF;stop-opacity:0"/>
					</linearGradient>
					<path fill="url(#SVGID_4_)" d="M82.3,87.15L83.75,93c-0.87,3.57-2.971,5.779-6.3,6.65c-2.83,0.93-7.88,1.8-15.15,2.6
						c-10.2,1.13-20.42,1.13-30.65,0c-4.5-0.6-8.35-1.38-11.55-2.35c-3.8-1.07-6.75-2.93-8.85-5.602
						c27.03,3.471,49.33,0.25,66.9-9.648C79.88,85.45,81.27,86.279,82.3,87.15z"/>
				</g>
				<g>
					<path fill="none" d="M14.15,14.35c11.53,0.93,22.5,1.42,32.9,1.45c13,0.03,25.05-0.63,36.15-2"/>
					<path fill="none" d="M7.7,12.3c1.33,1.3,2.48,3.68,3.45,7.15"/>
					<line fill="none" x1="42" y1="17.65" x2="42.4" y2="17.65"/>
				</g>
				<g>
					<line fill="none" x1="47.1" y1="27.75" x2="47.1" y2="95.7"/>
				</g>
				<g>
					<path fill="none" d="M38.6,27.75c5.7,1.63,11.82,1.63,18.35,0"/>
					<path fill="none" d="M38.6,34.65c5.7,1.7,11.82,1.7,18.35,0"/>
					<path fill="none" d="M38.6,49.4c5.7,1.7,11.82,1.7,18.35,0"/>
					<path fill="none" d="M38.6,42.5c5.7,1.63,11.82,1.63,18.35,0"/>
					<path fill="none" d="M54.05,91.6c0.97-0.17,1.931-0.379,2.9-0.648 M38.6,90.95c0.87,0.271,1.75,0.479,2.65,0.649"/>
					<path fill="none" d="M38.6,62.85c5.7,1.631,11.82,1.631,18.35,0"/>
					<path fill="none" d="M38.6,70.6c5.7,1.67,11.82,1.67,18.35,0"/>
					<path fill="none" d="M38.6,77.55c5.7,1.63,11.82,1.63,18.35,0"/>
					<path fill="none" d="M38.6,84c5.7,1.67,11.82,1.67,18.35,0"/>
					<path fill="none" d="M38.6,55.85c5.7,1.67,11.82,1.67,18.35,0"/>
				</g>
				<g>
					<path fill="#CCCCCC" d="M82.9,40.45V70.8c-23.602,2.8-47.42,2.8-71.45,0V40.45C35.48,42.12,59.3,42.12,82.9,40.45z"/>
				</g>
				<g>
					<path d="M55.55,49.3c0,1.1,0,2.28,0,3.55c-0.03,0.47-0.021,0.85,0.05,1.15c0.07,0.2,0.2,0.42,0.4,0.65
						c0.2,0.07,0.5,0.119,0.9,0.148c0.3-0.068,0.58-0.148,0.85-0.25c0.13-0.3,0.23-0.52,0.3-0.65c0-0.23,0-0.58,0-1.05
						c0-1.3,0-2.52,0-3.65c0.47,0,0.921,0,1.351,0c0,1.1,0,2.25,0,3.45c-0.029,0.73-0.069,1.28-0.101,1.65
						c-0.069,0.271-0.2,0.53-0.399,0.801c-0.17,0.301-0.449,0.521-0.851,0.649C57.68,55.92,57.3,56,56.9,56
						c-0.631,0-1.131-0.08-1.5-0.25c-0.301-0.2-0.521-0.38-0.65-0.55c-0.2-0.3-0.32-0.521-0.35-0.65c-0.131-0.37-0.18-0.93-0.15-1.7
						c0-1.27,0-2.43,0-3.5C54.68,49.25,55.12,49.23,55.55,49.3z M47.5,49.35c0,2.13,0,4.35,0,6.65c-0.529,0-0.971,0-1.3,0
						c0-2.3,0-4.52,0-6.65C46.529,49.35,46.971,49.35,47.5,49.35z M50.05,52c0.87,0,1.729,0,2.601,0c0.101,0.3,0.101,0.67,0,1.1
						c-0.871-0.07-1.729-0.05-2.601,0.05c0,0.87,0,1.821,0,2.85c-0.5,0-0.95,0-1.35,0c0-2.3,0-4.52,0-6.65c1.43,0,2.92,0,4.45,0
						c0,0.3,0,0.67,0,1.1c-1.03,0-2.07,0-3.102,0C50.05,50.95,50.05,51.47,50.05,52z M63.75,48.95c0.67-0.07,1.32,0.08,1.95,0.45
						c0.399,0.3,0.68,0.78,0.85,1.45c-0.43,0-0.88,0.05-1.35,0.15c-0.171-0.37-0.33-0.6-0.5-0.7c-0.3-0.17-0.62-0.25-0.95-0.25
						c-0.7-0.03-1.17,0.18-1.4,0.65c-0.369,0.3-0.52,0.83-0.449,1.6c-0.069,0.7,0.08,1.28,0.449,1.75c0.23,0.33,0.7,0.479,1.4,0.45
						c0.2-0.03,0.471-0.08,0.8-0.15c0.101-0.2,0.33-0.35,0.7-0.45c0-0.33,0-0.6,0-0.8c-0.529,0.03-1.02,0.05-1.45,0.05
						c0-0.43,0-0.8,0-1.1c0.87-0.07,1.82-0.08,2.851-0.05c0,0.87,0,1.72,0,2.55c-0.399,0.171-0.801,0.4-1.199,0.7
						c-0.53,0.23-1.08,0.37-1.65,0.4c-0.729,0-1.318-0.102-1.75-0.301c-0.6-0.301-0.97-0.721-1.1-1.25
						c-0.301-0.53-0.432-1.1-0.4-1.7c-0.029-0.7,0.102-1.32,0.4-1.85c0.271-0.53,0.68-0.93,1.25-1.2
						C62.529,49.05,63.05,48.92,63.75,48.95z M75.15,49.75c0,1.4,0,2.82,0,4.25c0.229,0,0.55-0.03,0.949-0.1
						c0.301-0.07,0.58-0.08,0.851-0.05c0.17-0.07,0.329-0.15,0.5-0.25c0.03-0.13,0.13-0.35,0.3-0.65c-0.029-0.3,0-0.68,0.1-1.15
						c-0.1-0.57-0.129-0.95-0.1-1.15c-0.1-0.3-0.221-0.52-0.35-0.65c-0.131-0.17-0.352-0.25-0.65-0.25c-0.17-0.1-0.529-0.1-1.1,0
						C75.48,49.75,75.32,49.75,75.15,49.75z M69.05,51.4c1.13-0.13,2.229-0.2,3.3-0.2c0,0.3,0,0.67,0,1.1c-1.07,0-2.17,0.07-3.3,0.2
						c0,0.53,0,1.12,0,1.75c1.271-0.13,2.5-0.2,3.7-0.2c0,0.3,0,0.671,0,1.101c-1.73,0.07-3.37,0.149-4.9,0.25
						c0-2.129,0-4.279,0-6.449c1.602-0.07,3.18-0.15,4.75-0.25c0,0.3,0,0.67,0,1.1c-1.129,0-2.32,0.07-3.55,0.2
						C69.05,50.47,69.05,50.93,69.05,51.4z M73.85,48.7c0.73-0.03,1.521-0.07,2.352-0.1c0.529-0.07,0.949-0.03,1.25,0.1
						c0.328,0.03,0.648,0.23,0.949,0.6c0.229,0.23,0.449,0.57,0.649,1c0.101,0.43,0.181,0.95,0.25,1.55
						c-0.069,0.47-0.149,0.92-0.25,1.35c-0.2,0.47-0.43,0.85-0.7,1.15c-0.199,0.2-0.5,0.38-0.898,0.55
						c-0.301,0.029-0.682,0.07-1.15,0.1c-0.828,0.07-1.648,0.12-2.449,0.15C73.85,53.02,73.85,50.87,73.85,48.7z M58,62.15
						c-0.83,0.8-1.65,1.58-2.45,2.35c0.87,1.1,1.7,2.3,2.5,3.6c-0.5,0.03-1.03,0.07-1.6,0.102c-0.601-1.102-1.2-2.03-1.8-2.801
						c-0.33,0.229-0.68,0.551-1.051,0.949c0,0.602,0,1.271,0,2c-0.5,0.03-0.949,0.051-1.351,0.051c0-2.17,0-4.18,0-6.051
						c0.399,0,0.851,0,1.351,0c0,0.771,0,1.602,0,2.5c0.83-0.93,1.721-1.8,2.649-2.6C56.779,62.25,57.37,62.221,58,62.15z
						 M48.1,67.3c1.07,0,2.131,0,3.2,0c0,0.3,0,0.7,0,1.2c-1.6,0-3.1,0-4.5,0c0-2.23,0-4.23,0-6c0.431,0,0.87,0,1.3,0
						C48.1,63.971,48.1,65.57,48.1,67.3z M45.5,68.5c-0.43-0.1-0.87-0.1-1.3,0c0-2.2,0-4.23,0-6.1c0.43,0,0.87,0,1.3,0
						C45.5,64.27,45.5,66.3,45.5,68.5z M20,49.35c0.37,0.2,0.6,0.58,0.7,1.15c-0.43,0.1-0.87,0.18-1.3,0.25
						c-0.07-0.33-0.23-0.58-0.5-0.75c-0.13-0.23-0.42-0.37-0.85-0.4c-0.43,0-0.83,0.15-1.2,0.45c-0.17,0.3-0.32,0.87-0.45,1.7
						c0.03,0.77,0.18,1.33,0.45,1.7c0.3,0.4,0.68,0.6,1.15,0.6c0.4-0.1,0.7-0.18,0.9-0.25c0.27-0.27,0.43-0.62,0.5-1.05
						c0.43,0.17,0.87,0.32,1.3,0.45c-0.17,0.6-0.48,1.12-0.95,1.55c-0.43,0.33-1.02,0.48-1.75,0.45c-0.83-0.07-1.55-0.4-2.15-1
						c-0.5-0.7-0.75-1.5-0.75-2.4c0.1-1.17,0.38-2,0.85-2.5c0.53-0.67,1.25-0.88,2.15-0.65C18.97,48.48,19.6,48.72,20,49.35z
						 M23.1,54.25c1.2,0.03,2.4,0.07,3.6,0.1c0,0.3,0,0.669,0,1.1c-1.63-0.13-3.27-0.2-4.9-0.2c0-2.13,0-4.27,0-6.4
						c1.67,0,3.25,0.07,4.75,0.2c0,0.3,0,0.65,0,1.05c-1.17-0.03-2.32-0.07-3.45-0.1c0,0.47,0,0.93,0,1.4
						c1.23,0.03,2.32,0.08,3.25,0.15c0,0.3,0,0.67,0,1.1c-0.93-0.07-2.02-0.12-3.25-0.15C23.1,53.03,23.1,53.62,23.1,54.25z
						 M32.8,49.2c0,2.13,0,4.32,0,6.55c-0.33,0-0.77-0.029-1.3-0.1c-0.67-1.5-1.5-2.92-2.5-4.25c0,1.33,0,2.73,0,4.2
						c-0.33-0.029-0.73-0.08-1.2-0.148c0-2.13,0-4.27,0-6.4c0.43,0.03,0.85,0.07,1.25,0.1c0.97,1.37,1.83,2.83,2.6,4.4
						c0-1.5,0-2.95,0-4.35C32.05,49.2,32.43,49.2,32.8,49.2z M33.8,49.3c1.57-0.07,3.23-0.05,5,0.05c0,0.3,0,0.67,0,1.1
						c-0.7,0-1.32-0.02-1.85-0.05c0,1.73,0,3.55,0,5.45c-0.53,0-0.97-0.02-1.3-0.05c0-1.8,0-3.6,0-5.4c-0.6,0-1.22,0-1.85,0
						C33.8,49.97,33.8,49.6,33.8,49.3z M43.95,49.55c0.27,0.03,0.5,0.22,0.7,0.55c0.23,0.23,0.35,0.6,0.35,1.1
						c-0.07,0.43-0.2,0.85-0.4,1.25c-0.33,0.3-0.77,0.52-1.3,0.65c0.17,0.17,0.4,0.33,0.7,0.5c0.07,0.13,0.28,0.5,0.65,1.1
						c0.3,0.43,0.58,0.87,0.85,1.3c-0.6,0-1.12,0-1.55,0c-0.3-0.5-0.6-1-0.9-1.5c-0.4-0.57-0.63-0.88-0.7-0.95
						c-0.13-0.17-0.27-0.25-0.4-0.25c-0.13-0.1-0.35-0.13-0.65-0.1c-0.17,0-0.27,0-0.3,0c0,0.87,0,1.8,0,2.8c-0.43,0-0.87,0-1.3,0
						c0-2.3,0-4.52,0-6.65c0.87,0,1.78,0,2.75,0C43.05,49.25,43.55,49.32,43.95,49.55z M43,50.45c-0.13,0-0.47,0-1,0
						c-0.33,0-0.67,0-1,0c0,0.57,0,1.12,0,1.65c0.27,0,0.58,0,0.95,0c0.63-0.07,1.02-0.08,1.15-0.05c0.13-0.07,0.27-0.15,0.4-0.25
						c0.03-0.17,0.08-0.33,0.15-0.5c-0.07-0.27-0.12-0.47-0.15-0.6C43.23,50.53,43.07,50.45,43,50.45z M36.65,62.15
						c0.67,0.07,1.3,0.119,1.9,0.148c0.43,1.229,0.83,2.53,1.2,3.9c0.4-1.37,0.8-2.65,1.2-3.852c0.6,0.03,1.25,0.051,1.95,0.051
						c0,1.83,0,3.82,0,5.949c-0.47,0.102-0.87,0.08-1.2-0.05c0-1.8,0-3.37,0-4.7c-0.43,1.371-0.87,2.9-1.3,4.602
						c-0.47,0.1-0.87,0.1-1.2,0c-0.43-1.83-0.88-3.432-1.35-4.801c0,1.33,0,2.92,0,4.75c-0.4-0.17-0.8-0.18-1.2-0.051
						C36.65,65.93,36.65,63.95,36.65,62.15z"/>
				</g>
			</g>
		</g>
	</g>
	<g id="Layer_2">
	</g>
</g>
</svg>
