<?xml version="1.0" encoding="utf-8"?>
<!-- Generator: Adobe Illustrator 16.0.0, SVG Export Plug-In . SVG Version: 6.00 Build 0)  -->
<!DOCTYPE svg PUBLIC "-//W3C//DTD SVG 1.1//EN" "http://www.w3.org/Graphics/SVG/1.1/DTD/svg11.dtd">
<svg version="1.1" id="Layer_1" xmlns="http://www.w3.org/2000/svg" xmlns:xlink="http://www.w3.org/1999/xlink" x="0px" y="0px"
	 width="700px" height="700px" viewBox="0 0 700 700" enable-background="new 0 0 700 700" xml:space="preserve">
<g>
	<g>
		<path fill-rule="evenodd" clip-rule="evenodd" fill="#FFFFFF" d="M492.75,460.6c-0.07,2.07-0.75,3.9-2.05,5.5
			c-1.3,1.57-3.6,2.7-6.9,3.4c-18.8,3.87-37.73,3.88-56.8,0.05c-4.07-1.17-6.58-2.45-7.55-3.85c-0.97-1.47-1.42-3.12-1.35-4.95
			V430.4h74.65V460.6z"/>
	</g>
	<g>
		<g>
			<path fill-rule="evenodd" clip-rule="evenodd" fill="none" stroke="#FFFFFF" stroke-width="0.75" stroke-miterlimit="10" d="
				M494.2,381.25c-0.7,1.4-1.15,2.62-1.35,3.65c-0.07,0.13-0.1,0.27-0.1,0.4v75.3c-0.07,2.07-0.75,3.9-2.05,5.5
				c-1.3,1.57-3.6,2.7-6.9,3.4c-18.8,3.87-37.73,3.88-56.8,0.05c-4.07-1.17-6.58-2.45-7.55-3.85c-0.97-1.47-1.42-3.12-1.35-4.95
				v-71.7c-0.03-2.77-1.32-5.43-3.85-8c-1.3-0.27-1.95-0.57-1.95-0.9c0-0.73,4.07-1.38,12.2-1.95c8.07-0.47,17.82-0.7,29.25-0.7
				c11.47,0,21.23,0.23,29.3,0.7c8.1,0.57,12.15,1.22,12.15,1.95c0,0.27-0.32,0.48-0.95,0.65c-0.03,0-0.05,0.02-0.05,0.05
				c-1.27,0.6-5.4,1.1-12.4,1.5c-7.2,0.33-16.53,0.5-28,0.5s-21.23-0.25-29.3-0.75c-4.9-0.37-8.32-0.72-10.25-1.05"/>
		</g>
		<g>
			<linearGradient id="SVGID_1_" gradientUnits="userSpaceOnUse" x1="386.1621" y1="426.5508" x2="437.5371" y2="426.5508">
				<stop  offset="0" style="stop-color:#FFFFFF;stop-opacity:0.6706"/>
				<stop  offset="1" style="stop-color:#FFFFFF;stop-opacity:0"/>
			</linearGradient>
			<path fill-rule="evenodd" clip-rule="evenodd" fill="url(#SVGID_1_)" d="M419.55,387.55c-0.3-1.57-1.2-3.43-2.7-5.6
				c13.03,1.63,24.82,2.23,35.35,1.8c-0.23,2.1-0.32,4.53-0.25,7.3l-0.1,80.1c-14.07-0.73-23-1.92-26.8-3.55
				c-3.77-1.67-5.65-3.77-5.65-6.3L419.55,387.55z"/>
		</g>
		<g>
			
				<linearGradient id="SVGID_2_" gradientUnits="userSpaceOnUse" x1="384.9316" y1="-323.2822" x2="472.7697" y2="-323.2822" gradientTransform="matrix(0.228 0.9737 -1.0045 0.0962 1.657009e-005 2.656430e-004)">
				<stop  offset="0" style="stop-color:#FFFFFF;stop-opacity:0.6706"/>
				<stop  offset="1" style="stop-color:#FFFFFF;stop-opacity:0"/>
			</linearGradient>
			<path fill-rule="evenodd" clip-rule="evenodd" fill="url(#SVGID_2_)" d="M437.05,387.05L437,463.5c-6.53-0.17-10.4-1.23-11.6-3.2
				l-0.85-74.4C428.58,386.53,432.75,386.92,437.05,387.05z"/>
		</g>
		<g>
			<path fill-rule="evenodd" clip-rule="evenodd" fill="none" d="M418.7,461.25c1.53,6.67,13.58,10.15,36.15,10.45"/>
			<path fill-rule="evenodd" clip-rule="evenodd" fill="none" d="M472.05,470.45c11.53-0.5,17.92-2.58,19.15-6.25"/>
		</g>
		<g>
			<line fill-rule="evenodd" clip-rule="evenodd" fill="none" x1="490.95" y1="388.55" x2="490.95" y2="461.25"/>
		</g>
		<g>
			<path fill-rule="evenodd" clip-rule="evenodd" fill="none" d="M480.4,461.75c3.57,0.23,6.03,0.52,7.4,0.85
				c0.63,0.13,1.02,0.3,1.15,0.5"/>
			<path fill-rule="evenodd" clip-rule="evenodd" fill="none" d="M421,462.9c1.4-1.53,14.93-2.17,40.6-1.9"/>
		</g>
		<g>
			
				<linearGradient id="SVGID_3_" gradientUnits="userSpaceOnUse" x1="-502.8345" y1="-452.5693" x2="-480.6933" y2="-452.5693" gradientTransform="matrix(-0.9981 0.061 -3.723555e-003 -1.0016 4.124525e-005 -4.369318e-004)">
				<stop  offset="0" style="stop-color:#FFFFFF;stop-opacity:0.6706"/>
				<stop  offset="1" style="stop-color:#FFFFFF;stop-opacity:0"/>
			</linearGradient>
			<path fill-rule="evenodd" clip-rule="evenodd" fill="url(#SVGID_3_)" d="M490.95,383.3v75.35c-9.07,6.93-15.98,7.5-20.75,1.7V385
				C477.47,384.83,484.38,384.27,490.95,383.3z"/>
		</g>
		<g>
			
				<linearGradient id="SVGID_4_" gradientUnits="userSpaceOnUse" x1="-488.3618" y1="449.2578" x2="-461.6592" y2="449.2578" gradientTransform="matrix(-0.014 -0.9999 1.0002 5.455501e-003 -1.753345e-004 -1.063272e-004)">
				<stop  offset="0" style="stop-color:#FFFFFF"/>
				<stop  offset="1" style="stop-color:#FFFFFF;stop-opacity:0"/>
			</linearGradient>
			<path fill-rule="evenodd" clip-rule="evenodd" fill="url(#SVGID_4_)" d="M486.45,453.65c1.73,0.8,3.12,1.63,4.15,2.5l1.45,5.85
				c-0.87,3.57-2.97,5.78-6.3,6.65c-2.83,0.93-7.88,1.8-15.15,2.6c-10.2,1.13-20.42,1.13-30.65,0c-4.5-0.6-8.35-1.38-11.55-2.35
				c-3.8-1.07-6.75-2.93-8.85-5.6C446.58,466.77,468.88,463.55,486.45,453.65z"/>
		</g>
		<g>
			<path fill-rule="evenodd" clip-rule="evenodd" fill="none" d="M416,381.3c1.33,1.3,2.48,3.68,3.45,7.15"/>
			<line fill-rule="evenodd" clip-rule="evenodd" fill="none" x1="450.3" y1="386.65" x2="450.7" y2="386.65"/>
			<path fill-rule="evenodd" clip-rule="evenodd" fill="none" d="M422.45,383.35c11.53,0.93,22.5,1.42,32.9,1.45
				c13,0.03,25.05-0.63,36.15-2"/>
		</g>
		<g>
			<line fill-rule="evenodd" clip-rule="evenodd" fill="none" x1="455.4" y1="396.75" x2="455.4" y2="464.7"/>
		</g>
		<g>
			<path fill-rule="evenodd" clip-rule="evenodd" fill="none" d="M446.9,424.85c5.7,1.67,11.82,1.67,18.35,0"/>
			<path fill-rule="evenodd" clip-rule="evenodd" fill="none" d="M446.9,439.6c5.7,1.67,11.82,1.67,18.35,0"/>
			<path fill-rule="evenodd" clip-rule="evenodd" fill="none" d="M446.9,431.85c5.7,1.63,11.82,1.63,18.35,0"/>
			<path fill-rule="evenodd" clip-rule="evenodd" fill="none" d="M446.9,411.5c5.7,1.63,11.82,1.63,18.35,0"/>
			<path fill-rule="evenodd" clip-rule="evenodd" fill="none" d="M446.9,418.4c5.7,1.7,11.82,1.7,18.35,0"/>
			<path fill-rule="evenodd" clip-rule="evenodd" fill="none" d="M446.9,403.65c5.7,1.7,11.82,1.7,18.35,0"/>
			<path fill-rule="evenodd" clip-rule="evenodd" fill="none" d="M446.9,396.75c5.7,1.63,11.82,1.63,18.35,0"/>
			<path fill-rule="evenodd" clip-rule="evenodd" fill="none" d="M446.9,446.55c5.7,1.63,11.82,1.63,18.35,0"/>
			<path fill-rule="evenodd" clip-rule="evenodd" fill="none" d="M462.35,460.6c0.97-0.17,1.93-0.38,2.9-0.65 M446.9,459.95
				c0.87,0.27,1.75,0.48,2.65,0.65"/>
			<path fill-rule="evenodd" clip-rule="evenodd" fill="none" d="M446.9,453c5.7,1.67,11.82,1.67,18.35,0"/>
		</g>
		<g>
			<path fill-rule="evenodd" clip-rule="evenodd" fill="#CCCCCC" d="M491.2,439.8c-23.6,2.8-47.42,2.8-71.45,0v-30.35
				c24.03,1.67,47.85,1.67,71.45,0V439.8z"/>
		</g>
		<g>
			<path fill-rule="evenodd" clip-rule="evenodd" d="M487.35,422.2c-0.2,0.47-0.43,0.85-0.7,1.15c-0.2,0.2-0.5,0.38-0.9,0.55
				c-0.3,0.03-0.68,0.07-1.15,0.1c-0.83,0.07-1.65,0.12-2.45,0.15c0-2.13,0-4.28,0-6.45c0.73-0.03,1.52-0.07,2.35-0.1
				c0.53-0.07,0.95-0.03,1.25,0.1c0.33,0.03,0.65,0.23,0.95,0.6c0.23,0.23,0.45,0.57,0.65,1c0.1,0.43,0.18,0.95,0.25,1.55
				C487.53,421.32,487.45,421.77,487.35,422.2z M486.15,420.8c-0.1-0.57-0.13-0.95-0.1-1.15c-0.1-0.3-0.22-0.52-0.35-0.65
				c-0.13-0.17-0.35-0.25-0.65-0.25c-0.17-0.1-0.53-0.1-1.1,0c-0.17,0-0.33,0-0.5,0c0,1.4,0,2.82,0,4.25c0.23,0,0.55-0.03,0.95-0.1
				c0.3-0.07,0.58-0.08,0.85-0.05c0.17-0.07,0.33-0.15,0.5-0.25c0.03-0.13,0.13-0.35,0.3-0.65
				C486.02,421.65,486.05,421.27,486.15,420.8z M470.5,418.35c0.33-0.3,0.85-0.43,1.55-0.4c0.67-0.07,1.32,0.08,1.95,0.45
				c0.4,0.3,0.68,0.78,0.85,1.45c-0.43,0-0.88,0.05-1.35,0.15c-0.17-0.37-0.33-0.6-0.5-0.7c-0.3-0.17-0.62-0.25-0.95-0.25
				c-0.7-0.03-1.17,0.18-1.4,0.65c-0.37,0.3-0.52,0.83-0.45,1.6c-0.07,0.7,0.08,1.28,0.45,1.75c0.23,0.33,0.7,0.48,1.4,0.45
				c0.2-0.03,0.47-0.08,0.8-0.15c0.1-0.2,0.33-0.35,0.7-0.45c0-0.33,0-0.6,0-0.8c-0.53,0.03-1.02,0.05-1.45,0.05c0-0.43,0-0.8,0-1.1
				c0.87-0.07,1.82-0.08,2.85-0.05c0,0.87,0,1.72,0,2.55c-0.4,0.17-0.8,0.4-1.2,0.7c-0.53,0.23-1.08,0.37-1.65,0.4
				c-0.73,0-1.32-0.1-1.75-0.3c-0.6-0.3-0.97-0.72-1.1-1.25c-0.3-0.53-0.43-1.1-0.4-1.7c-0.03-0.7,0.1-1.32,0.4-1.85
				C469.52,419.02,469.93,418.62,470.5,418.35z M467.7,418.2c0,1.1,0,2.25,0,3.45c-0.03,0.73-0.07,1.28-0.1,1.65
				c-0.07,0.27-0.2,0.53-0.4,0.8c-0.17,0.3-0.45,0.52-0.85,0.65c-0.37,0.17-0.75,0.25-1.15,0.25c-0.63,0-1.13-0.08-1.5-0.25
				c-0.3-0.2-0.52-0.38-0.65-0.55c-0.2-0.3-0.32-0.52-0.35-0.65c-0.13-0.37-0.18-0.93-0.15-1.7c0-1.27,0-2.43,0-3.5
				c0.43-0.1,0.87-0.12,1.3-0.05c0,1.1,0,2.28,0,3.55c-0.03,0.47-0.02,0.85,0.05,1.15c0.07,0.2,0.2,0.42,0.4,0.65
				c0.2,0.07,0.5,0.12,0.9,0.15c0.3-0.07,0.58-0.15,0.85-0.25c0.13-0.3,0.23-0.52,0.3-0.65c0-0.23,0-0.58,0-1.05
				c0-1.3,0-2.52,0-3.65C466.82,418.2,467.27,418.2,467.7,418.2z M477.35,419c0,0.47,0,0.93,0,1.4c1.13-0.13,2.23-0.2,3.3-0.2
				c0,0.3,0,0.67,0,1.1c-1.07,0-2.17,0.07-3.3,0.2c0,0.53,0,1.12,0,1.75c1.27-0.13,2.5-0.2,3.7-0.2c0,0.3,0,0.67,0,1.1
				c-1.73,0.07-3.37,0.15-4.9,0.25c0-2.13,0-4.28,0-6.45c1.6-0.07,3.18-0.15,4.75-0.25c0,0.3,0,0.67,0,1.1
				C479.77,418.8,478.58,418.87,477.35,419z M447.1,419.45c-0.7,0-1.32-0.02-1.85-0.05c0,1.73,0,3.55,0,5.45
				c-0.53,0-0.97-0.02-1.3-0.05c0-1.8,0-3.6,0-5.4c-0.6,0-1.22,0-1.85,0c0-0.43,0-0.8,0-1.1c1.57-0.07,3.23-0.05,5,0.05
				C447.1,418.65,447.1,419.02,447.1,419.45z M449.3,419.45c0,0.57,0,1.12,0,1.65c0.27,0,0.58,0,0.95,0
				c0.63-0.07,1.02-0.08,1.15-0.05c0.13-0.07,0.27-0.15,0.4-0.25c0.03-0.17,0.08-0.33,0.15-0.5c-0.07-0.27-0.12-0.47-0.15-0.6
				c-0.27-0.17-0.43-0.25-0.5-0.25c-0.13,0-0.47,0-1,0C449.97,419.45,449.63,419.45,449.3,419.45z M453.3,420.2
				c-0.07,0.43-0.2,0.85-0.4,1.25c-0.33,0.3-0.77,0.52-1.3,0.65c0.17,0.17,0.4,0.33,0.7,0.5c0.07,0.13,0.28,0.5,0.65,1.1
				c0.3,0.43,0.58,0.87,0.85,1.3c-0.6,0-1.12,0-1.55,0c-0.3-0.5-0.6-1-0.9-1.5c-0.4-0.57-0.63-0.88-0.7-0.95
				c-0.13-0.17-0.27-0.25-0.4-0.25c-0.13-0.1-0.35-0.13-0.65-0.1c-0.17,0-0.27,0-0.3,0c0,0.87,0,1.8,0,2.8c-0.43,0-0.87,0-1.3,0
				c0-2.3,0-4.52,0-6.65c0.87,0,1.78,0,2.75,0c0.6-0.1,1.1-0.03,1.5,0.2c0.27,0.03,0.5,0.22,0.7,0.55
				C453.18,419.33,453.3,419.7,453.3,420.2z M461.45,419.45c-1.03,0-2.07,0-3.1,0c0,0.5,0,1.02,0,1.55c0.87,0,1.73,0,2.6,0
				c0.1,0.3,0.1,0.67,0,1.1c-0.87-0.07-1.73-0.05-2.6,0.05c0,0.87,0,1.82,0,2.85c-0.5,0-0.95,0-1.35,0c0-2.3,0-4.52,0-6.65
				c1.43,0,2.92,0,4.45,0C461.45,418.65,461.45,419.02,461.45,419.45z M455.8,418.35c0,2.13,0,4.35,0,6.65c-0.53,0-0.97,0-1.3,0
				c0-2.3,0-4.52,0-6.65C454.83,418.35,455.27,418.35,455.8,418.35z M461.9,431.35c0,0.77,0,1.6,0,2.5c0.83-0.93,1.72-1.8,2.65-2.6
				c0.53,0,1.12-0.03,1.75-0.1c-0.83,0.8-1.65,1.58-2.45,2.35c0.87,1.1,1.7,2.3,2.5,3.6c-0.5,0.03-1.03,0.07-1.6,0.1
				c-0.6-1.1-1.2-2.03-1.8-2.8c-0.33,0.23-0.68,0.55-1.05,0.95c0,0.6,0,1.27,0,2c-0.5,0.03-0.95,0.05-1.35,0.05
				c0-2.17,0-4.18,0-6.05C460.95,431.35,461.4,431.35,461.9,431.35z M453.8,431.4c0,1.87,0,3.9,0,6.1c-0.43-0.1-0.87-0.1-1.3,0
				c0-2.2,0-4.23,0-6.1C452.93,431.4,453.37,431.4,453.8,431.4z M451.2,431.4c0,1.83,0,3.82,0,5.95c-0.47,0.1-0.87,0.08-1.2-0.05
				c0-1.8,0-3.37,0-4.7c-0.43,1.37-0.87,2.9-1.3,4.6c-0.47,0.1-0.87,0.1-1.2,0c-0.43-1.83-0.88-3.43-1.35-4.8c0,1.33,0,2.92,0,4.75
				c-0.4-0.17-0.8-0.18-1.2-0.05c0-2.17,0-4.15,0-5.95c0.67,0.07,1.3,0.12,1.9,0.15c0.43,1.23,0.83,2.53,1.2,3.9
				c0.4-1.37,0.8-2.65,1.2-3.85C449.85,431.38,450.5,431.4,451.2,431.4z M459.6,437.5c-1.6,0-3.1,0-4.5,0c0-2.23,0-4.23,0-6
				c0.43,0,0.87,0,1.3,0c0,1.47,0,3.07,0,4.8c1.07,0,2.13,0,3.2,0C459.6,436.6,459.6,437,459.6,437.5z M427.2,419
				c-0.13-0.23-0.42-0.37-0.85-0.4c-0.43,0-0.83,0.15-1.2,0.45c-0.17,0.3-0.32,0.87-0.45,1.7c0.03,0.77,0.18,1.33,0.45,1.7
				c0.3,0.4,0.68,0.6,1.15,0.6c0.4-0.1,0.7-0.18,0.9-0.25c0.27-0.27,0.43-0.62,0.5-1.05c0.43,0.17,0.87,0.32,1.3,0.45
				c-0.17,0.6-0.48,1.12-0.95,1.55c-0.43,0.33-1.02,0.48-1.75,0.45c-0.83-0.07-1.55-0.4-2.15-1c-0.5-0.7-0.75-1.5-0.75-2.4
				c0.1-1.17,0.38-2,0.85-2.5c0.53-0.67,1.25-0.88,2.15-0.65c0.87-0.17,1.5,0.07,1.9,0.7c0.37,0.2,0.6,0.58,0.7,1.15
				c-0.43,0.1-0.87,0.18-1.3,0.25C427.63,419.42,427.47,419.17,427.2,419z M434.85,419.1c-1.17-0.03-2.32-0.07-3.45-0.1
				c0,0.47,0,0.93,0,1.4c1.23,0.03,2.32,0.08,3.25,0.15c0,0.3,0,0.67,0,1.1c-0.93-0.07-2.02-0.12-3.25-0.15c0,0.53,0,1.12,0,1.75
				c1.2,0.03,2.4,0.07,3.6,0.1c0,0.3,0,0.67,0,1.1c-1.63-0.13-3.27-0.2-4.9-0.2c0-2.13,0-4.27,0-6.4c1.67,0,3.25,0.07,4.75,0.2
				C434.85,418.35,434.85,418.7,434.85,419.1z M441.1,418.2c0,2.13,0,4.32,0,6.55c-0.33,0-0.77-0.03-1.3-0.1
				c-0.67-1.5-1.5-2.92-2.5-4.25c0,1.33,0,2.73,0,4.2c-0.33-0.03-0.73-0.08-1.2-0.15c0-2.13,0-4.27,0-6.4
				c0.43,0.03,0.85,0.07,1.25,0.1c0.97,1.37,1.83,2.83,2.6,4.4c0-1.5,0-2.95,0-4.35C440.35,418.2,440.73,418.2,441.1,418.2z"/>
		</g>
	</g>
</g>
</svg>
