<?xml version="1.0" encoding="utf-8"?>
<!-- Generator: Adobe Illustrator 16.0.0, SVG Export Plug-In . SVG Version: 6.00 Build 0)  -->
<!DOCTYPE svg PUBLIC "-//W3C//DTD SVG 1.1//EN" "http://www.w3.org/Graphics/SVG/1.1/DTD/svg11.dtd">
<svg version="1.1" id="Layer_1" xmlns="http://www.w3.org/2000/svg" xmlns:xlink="http://www.w3.org/1999/xlink" x="0px" y="0px"
	 width="700px" height="700px" viewBox="0 0 700 700" enable-background="new 0 0 700 700" xml:space="preserve">
<g>
	<g>
		<path fill-rule="evenodd" clip-rule="evenodd" fill="#FFFFFF" d="M526.1,552.8c-1.3,1.57-3.6,2.7-6.9,3.4
			c-18.8,3.87-37.73,3.88-56.8,0.05c-4.07-1.17-6.58-2.45-7.55-3.85c-0.97-1.47-1.42-3.12-1.35-4.95V517.1h74.65v30.2
			C528.08,549.37,527.4,551.2,526.1,552.8z"/>
	</g>
	<g>
		<g>
			<path fill-rule="evenodd" clip-rule="evenodd" fill="none" stroke="#FFFFFF" stroke-width="0.75" stroke-miterlimit="10" d="
				M529.6,467.95c-0.7,1.4-1.15,2.62-1.35,3.65c-0.07,0.13-0.1,0.27-0.1,0.4v75.3c-0.07,2.07-0.75,3.9-2.05,5.5
				c-1.3,1.57-3.6,2.7-6.9,3.4c-18.8,3.87-37.73,3.88-56.8,0.05c-4.07-1.17-6.58-2.45-7.55-3.85c-0.97-1.47-1.42-3.12-1.35-4.95
				v-71.7c-0.03-2.77-1.32-5.43-3.85-8c-1.3-0.27-1.95-0.57-1.95-0.9c0-0.73,4.07-1.38,12.2-1.95c8.07-0.47,17.82-0.7,29.25-0.7
				c11.47,0,21.23,0.23,29.3,0.7c8.1,0.57,12.15,1.22,12.15,1.95c0,0.27-0.32,0.48-0.95,0.65c-0.03,0-0.05,0.02-0.05,0.05
				c-1.27,0.6-5.4,1.1-12.4,1.5c-7.2,0.33-16.53,0.5-28,0.5s-21.23-0.25-29.3-0.75c-4.9-0.37-8.32-0.72-10.25-1.05"/>
		</g>
		<g>
			<linearGradient id="SVGID_1_" gradientUnits="userSpaceOnUse" x1="421.5625" y1="513.25" x2="472.9375" y2="513.25">
				<stop  offset="0" style="stop-color:#FFFFFF;stop-opacity:0.6706"/>
				<stop  offset="1" style="stop-color:#FFFFFF;stop-opacity:0"/>
			</linearGradient>
			<path fill-rule="evenodd" clip-rule="evenodd" fill="url(#SVGID_1_)" d="M487.6,470.45c-0.23,2.1-0.32,4.53-0.25,7.3l-0.1,80.1
				c-14.07-0.73-23-1.92-26.8-3.55c-3.77-1.67-5.65-3.77-5.65-6.3l0.15-73.75c-0.3-1.57-1.2-3.43-2.7-5.6
				C465.28,470.28,477.07,470.88,487.6,470.45z"/>
		</g>
		<g>
			
				<linearGradient id="SVGID_2_" gradientUnits="userSpaceOnUse" x1="475.4287" y1="-337.9844" x2="563.2668" y2="-337.9844" gradientTransform="matrix(0.228 0.9737 -1.0045 0.0962 1.657009e-005 2.656430e-004)">
				<stop  offset="0" style="stop-color:#FFFFFF;stop-opacity:0.6706"/>
				<stop  offset="1" style="stop-color:#FFFFFF;stop-opacity:0"/>
			</linearGradient>
			<path fill-rule="evenodd" clip-rule="evenodd" fill="url(#SVGID_2_)" d="M472.45,473.75l-0.05,76.45
				c-6.53-0.17-10.4-1.23-11.6-3.2l-0.85-74.4C463.98,473.23,468.15,473.62,472.45,473.75z"/>
		</g>
		<g>
			<path fill-rule="evenodd" clip-rule="evenodd" fill="none" d="M507.45,557.15c11.53-0.5,17.92-2.58,19.15-6.25"/>
			<path fill-rule="evenodd" clip-rule="evenodd" fill="none" d="M454.1,547.95c1.53,6.67,13.58,10.15,36.15,10.45"/>
		</g>
		<g>
			<line fill-rule="evenodd" clip-rule="evenodd" fill="none" x1="526.35" y1="475.25" x2="526.35" y2="547.95"/>
		</g>
		<g>
			<path fill-rule="evenodd" clip-rule="evenodd" fill="none" d="M515.8,548.45c3.57,0.23,6.03,0.52,7.4,0.85
				c0.63,0.13,1.02,0.3,1.15,0.5"/>
			<path fill-rule="evenodd" clip-rule="evenodd" fill="none" d="M456.4,549.6c1.4-1.53,14.93-2.17,40.6-1.9"/>
		</g>
		<g>
			
				<linearGradient id="SVGID_3_" gradientUnits="userSpaceOnUse" x1="-537.9692" y1="-541.2666" x2="-515.8281" y2="-541.2666" gradientTransform="matrix(-0.9981 0.061 -3.723555e-003 -1.0016 4.124525e-005 -4.369318e-004)">
				<stop  offset="0" style="stop-color:#FFFFFF;stop-opacity:0.6706"/>
				<stop  offset="1" style="stop-color:#FFFFFF;stop-opacity:0"/>
			</linearGradient>
			<path fill-rule="evenodd" clip-rule="evenodd" fill="url(#SVGID_3_)" d="M526.35,470v75.35c-9.07,6.93-15.98,7.5-20.75,1.7V471.7
				C512.87,471.53,519.78,470.97,526.35,470z"/>
		</g>
		<g>
			
				<linearGradient id="SVGID_4_" gradientUnits="userSpaceOnUse" x1="-574.8838" y1="483.4375" x2="-548.1812" y2="483.4375" gradientTransform="matrix(-0.014 -0.9999 1.0002 5.455501e-003 -1.753345e-004 -1.063272e-004)">
				<stop  offset="0" style="stop-color:#FFFFFF"/>
				<stop  offset="1" style="stop-color:#FFFFFF;stop-opacity:0"/>
			</linearGradient>
			<path fill-rule="evenodd" clip-rule="evenodd" fill="url(#SVGID_4_)" d="M521.85,540.35c1.73,0.8,3.12,1.63,4.15,2.5l1.45,5.85
				c-0.87,3.57-2.97,5.78-6.3,6.65c-2.83,0.93-7.88,1.8-15.15,2.6c-10.2,1.13-20.42,1.13-30.65,0c-4.5-0.6-8.35-1.38-11.55-2.35
				c-3.8-1.07-6.75-2.93-8.85-5.6C481.98,553.47,504.28,550.25,521.85,540.35z"/>
		</g>
		<g>
			<path fill-rule="evenodd" clip-rule="evenodd" fill="none" d="M457.85,470.05c11.53,0.93,22.5,1.42,32.9,1.45
				c13,0.03,25.05-0.63,36.15-2"/>
			<path fill-rule="evenodd" clip-rule="evenodd" fill="none" d="M451.4,468c1.33,1.3,2.48,3.68,3.45,7.15"/>
			<line fill-rule="evenodd" clip-rule="evenodd" fill="none" x1="485.7" y1="473.35" x2="486.1" y2="473.35"/>
		</g>
		<g>
			<line fill-rule="evenodd" clip-rule="evenodd" fill="none" x1="490.8" y1="483.45" x2="490.8" y2="551.4"/>
		</g>
		<g>
			<path fill-rule="evenodd" clip-rule="evenodd" fill="none" d="M497.75,547.3c0.97-0.17,1.93-0.38,2.9-0.65 M482.3,546.65
				c0.87,0.27,1.75,0.48,2.65,0.65"/>
			<path fill-rule="evenodd" clip-rule="evenodd" fill="none" d="M482.3,490.35c5.7,1.7,11.82,1.7,18.35,0"/>
			<path fill-rule="evenodd" clip-rule="evenodd" fill="none" d="M482.3,483.45c5.7,1.63,11.82,1.63,18.35,0"/>
			<path fill-rule="evenodd" clip-rule="evenodd" fill="none" d="M482.3,511.55c5.7,1.67,11.82,1.67,18.35,0"/>
			<path fill-rule="evenodd" clip-rule="evenodd" fill="none" d="M482.3,539.7c5.7,1.67,11.82,1.67,18.35,0"/>
			<path fill-rule="evenodd" clip-rule="evenodd" fill="none" d="M482.3,533.25c5.7,1.63,11.82,1.63,18.35,0"/>
			<path fill-rule="evenodd" clip-rule="evenodd" fill="none" d="M482.3,526.3c5.7,1.67,11.82,1.67,18.35,0"/>
			<path fill-rule="evenodd" clip-rule="evenodd" fill="none" d="M482.3,518.55c5.7,1.63,11.82,1.63,18.35,0"/>
			<path fill-rule="evenodd" clip-rule="evenodd" fill="none" d="M482.3,505.1c5.7,1.7,11.82,1.7,18.35,0"/>
			<path fill-rule="evenodd" clip-rule="evenodd" fill="none" d="M482.3,498.2c5.7,1.63,11.82,1.63,18.35,0"/>
		</g>
		<g>
			<path fill-rule="evenodd" clip-rule="evenodd" fill="#CCCCCC" d="M526.6,526.5c-23.6,2.8-47.42,2.8-71.45,0v-30.35
				c24.03,1.67,47.85,1.67,71.45,0V526.5z"/>
		</g>
		<g>
			<path fill-rule="evenodd" clip-rule="evenodd" d="M522.1,505c0.23,0.23,0.45,0.57,0.65,1c0.1,0.43,0.18,0.95,0.25,1.55
				c-0.07,0.47-0.15,0.92-0.25,1.35c-0.2,0.47-0.43,0.85-0.7,1.15c-0.2,0.2-0.5,0.38-0.9,0.55c-0.3,0.03-0.68,0.07-1.15,0.1
				c-0.83,0.07-1.65,0.12-2.45,0.15c0-2.13,0-4.28,0-6.45c0.73-0.03,1.52-0.07,2.35-0.1c0.53-0.07,0.95-0.03,1.25,0.1
				C521.48,504.43,521.8,504.63,522.1,505z M519.35,505.45c-0.17,0-0.33,0-0.5,0c0,1.4,0,2.82,0,4.25c0.23,0,0.55-0.03,0.95-0.1
				c0.3-0.07,0.58-0.08,0.85-0.05c0.17-0.07,0.33-0.15,0.5-0.25c0.03-0.13,0.13-0.35,0.3-0.65c-0.03-0.3,0-0.68,0.1-1.15
				c-0.1-0.57-0.13-0.95-0.1-1.15c-0.1-0.3-0.22-0.52-0.35-0.65c-0.13-0.17-0.35-0.25-0.65-0.25
				C520.28,505.35,519.92,505.35,519.35,505.45z M509.4,505.1c0.4,0.3,0.68,0.78,0.85,1.45c-0.43,0-0.88,0.05-1.35,0.15
				c-0.17-0.37-0.33-0.6-0.5-0.7c-0.3-0.17-0.62-0.25-0.95-0.25c-0.7-0.03-1.17,0.18-1.4,0.65c-0.37,0.3-0.52,0.83-0.45,1.6
				c-0.07,0.7,0.08,1.28,0.45,1.75c0.23,0.33,0.7,0.48,1.4,0.45c0.2-0.03,0.47-0.08,0.8-0.15c0.1-0.2,0.33-0.35,0.7-0.45
				c0-0.33,0-0.6,0-0.8c-0.53,0.03-1.02,0.05-1.45,0.05c0-0.43,0-0.8,0-1.1c0.87-0.07,1.82-0.08,2.85-0.05c0,0.87,0,1.72,0,2.55
				c-0.4,0.17-0.8,0.4-1.2,0.7c-0.53,0.23-1.08,0.37-1.65,0.4c-0.73,0-1.32-0.1-1.75-0.3c-0.6-0.3-0.97-0.72-1.1-1.25
				c-0.3-0.53-0.43-1.1-0.4-1.7c-0.03-0.7,0.1-1.32,0.4-1.85c0.27-0.53,0.68-0.93,1.25-1.2c0.33-0.3,0.85-0.43,1.55-0.4
				C508.12,504.58,508.77,504.73,509.4,505.1z M512.75,507.1c1.13-0.13,2.23-0.2,3.3-0.2c0,0.3,0,0.67,0,1.1
				c-1.07,0-2.17,0.07-3.3,0.2c0,0.53,0,1.12,0,1.75c1.27-0.13,2.5-0.2,3.7-0.2c0,0.3,0,0.67,0,1.1c-1.73,0.07-3.37,0.15-4.9,0.25
				c0-2.13,0-4.28,0-6.45c1.6-0.07,3.18-0.15,4.75-0.25c0,0.3,0,0.67,0,1.1c-1.13,0-2.32,0.07-3.55,0.2
				C512.75,506.17,512.75,506.63,512.75,507.1z M496.85,506.15c-1.03,0-2.07,0-3.1,0c0,0.5,0,1.02,0,1.55c0.87,0,1.73,0,2.6,0
				c0.1,0.3,0.1,0.67,0,1.1c-0.87-0.07-1.73-0.05-2.6,0.05c0,0.87,0,1.82,0,2.85c-0.5,0-0.95,0-1.35,0c0-2.3,0-4.52,0-6.65
				c1.43,0,2.92,0,4.45,0C496.85,505.35,496.85,505.72,496.85,506.15z M503.1,504.9c0,1.1,0,2.25,0,3.45
				c-0.03,0.73-0.07,1.28-0.1,1.65c-0.07,0.27-0.2,0.53-0.4,0.8c-0.17,0.3-0.45,0.52-0.85,0.65c-0.37,0.17-0.75,0.25-1.15,0.25
				c-0.63,0-1.13-0.08-1.5-0.25c-0.3-0.2-0.52-0.38-0.65-0.55c-0.2-0.3-0.32-0.52-0.35-0.65c-0.13-0.37-0.18-0.93-0.15-1.7
				c0-1.27,0-2.43,0-3.5c0.43-0.1,0.87-0.12,1.3-0.05c0,1.1,0,2.28,0,3.55c-0.03,0.47-0.02,0.85,0.05,1.15
				c0.07,0.2,0.2,0.42,0.4,0.65c0.2,0.07,0.5,0.12,0.9,0.15c0.3-0.07,0.58-0.15,0.85-0.25c0.13-0.3,0.23-0.52,0.3-0.65
				c0-0.23,0-0.58,0-1.05c0-1.3,0-2.52,0-3.65C502.22,504.9,502.67,504.9,503.1,504.9z M491.2,505.05c0,2.13,0,4.35,0,6.65
				c-0.53,0-0.97,0-1.3,0c0-2.3,0-4.52,0-6.65C490.23,505.05,490.67,505.05,491.2,505.05z M488.7,506.9
				c-0.07,0.43-0.2,0.85-0.4,1.25c-0.33,0.3-0.77,0.52-1.3,0.65c0.17,0.17,0.4,0.33,0.7,0.5c0.07,0.13,0.28,0.5,0.65,1.1
				c0.3,0.43,0.58,0.87,0.85,1.3c-0.6,0-1.12,0-1.55,0c-0.3-0.5-0.6-1-0.9-1.5c-0.4-0.57-0.63-0.88-0.7-0.95
				c-0.13-0.17-0.27-0.25-0.4-0.25c-0.13-0.1-0.35-0.13-0.65-0.1c-0.17,0-0.27,0-0.3,0c0,0.87,0,1.8,0,2.8c-0.43,0-0.87,0-1.3,0
				c0-2.3,0-4.52,0-6.65c0.87,0,1.78,0,2.75,0c0.6-0.1,1.1-0.03,1.5,0.2c0.27,0.03,0.5,0.22,0.7,0.55
				C488.58,506.03,488.7,506.4,488.7,506.9z M487.2,506.4c-0.27-0.17-0.43-0.25-0.5-0.25c-0.13,0-0.47,0-1,0c-0.33,0-0.67,0-1,0
				c0,0.57,0,1.12,0,1.65c0.27,0,0.58,0,0.95,0c0.63-0.07,1.02-0.08,1.15-0.05c0.13-0.07,0.27-0.15,0.4-0.25
				c0.03-0.17,0.08-0.33,0.15-0.5C487.28,506.73,487.23,506.53,487.2,506.4z M489.2,518.1c0,1.87,0,3.9,0,6.1
				c-0.43-0.1-0.87-0.1-1.3,0c0-2.2,0-4.23,0-6.1C488.33,518.1,488.77,518.1,489.2,518.1z M491.8,518.2c0,1.47,0,3.07,0,4.8
				c1.07,0,2.13,0,3.2,0c0,0.3,0,0.7,0,1.2c-1.6,0-3.1,0-4.5,0c0-2.23,0-4.23,0-6C490.93,518.2,491.37,518.2,491.8,518.2z
				 M501.7,517.85c-0.83,0.8-1.65,1.58-2.45,2.35c0.87,1.1,1.7,2.3,2.5,3.6c-0.5,0.03-1.03,0.07-1.6,0.1c-0.6-1.1-1.2-2.03-1.8-2.8
				c-0.33,0.23-0.68,0.55-1.05,0.95c0,0.6,0,1.27,0,2c-0.5,0.03-0.95,0.05-1.35,0.05c0-2.17,0-4.18,0-6.05c0.4,0,0.85,0,1.35,0
				c0,0.77,0,1.6,0,2.5c0.83-0.93,1.72-1.8,2.65-2.6C500.48,517.95,501.07,517.92,501.7,517.85z M486.6,524.05
				c-0.47,0.1-0.87,0.08-1.2-0.05c0-1.8,0-3.37,0-4.7c-0.43,1.37-0.87,2.9-1.3,4.6c-0.47,0.1-0.87,0.1-1.2,0
				c-0.43-1.83-0.88-3.43-1.35-4.8c0,1.33,0,2.92,0,4.75c-0.4-0.17-0.8-0.18-1.2-0.05c0-2.17,0-4.15,0-5.95
				c0.67,0.07,1.3,0.12,1.9,0.15c0.43,1.23,0.83,2.53,1.2,3.9c0.4-1.37,0.8-2.65,1.2-3.85c0.6,0.03,1.25,0.05,1.95,0.05
				C486.6,519.93,486.6,521.92,486.6,524.05z M482.5,505.05c0,0.3,0,0.67,0,1.1c-0.7,0-1.32-0.02-1.85-0.05c0,1.73,0,3.55,0,5.45
				c-0.53,0-0.97-0.02-1.3-0.05c0-1.8,0-3.6,0-5.4c-0.6,0-1.22,0-1.85,0c0-0.43,0-0.8,0-1.1
				C479.07,504.93,480.73,504.95,482.5,505.05z M470.05,507.25c0,0.3,0,0.67,0,1.1c-0.93-0.07-2.02-0.12-3.25-0.15
				c0,0.53,0,1.12,0,1.75c1.2,0.03,2.4,0.07,3.6,0.1c0,0.3,0,0.67,0,1.1c-1.63-0.13-3.27-0.2-4.9-0.2c0-2.13,0-4.27,0-6.4
				c1.67,0,3.25,0.07,4.75,0.2c0,0.3,0,0.65,0,1.05c-1.17-0.03-2.32-0.07-3.45-0.1c0,0.47,0,0.93,0,1.4
				C468.03,507.13,469.12,507.18,470.05,507.25z M472.75,504.85c0.97,1.37,1.83,2.83,2.6,4.4c0-1.5,0-2.95,0-4.35
				c0.4,0,0.78,0,1.15,0c0,2.13,0,4.32,0,6.55c-0.33,0-0.77-0.03-1.3-0.1c-0.67-1.5-1.5-2.92-2.5-4.25c0,1.33,0,2.73,0,4.2
				c-0.33-0.03-0.73-0.08-1.2-0.15c0-2.13,0-4.27,0-6.4C471.93,504.78,472.35,504.82,472.75,504.85z M462.6,505.7
				c-0.13-0.23-0.42-0.37-0.85-0.4c-0.43,0-0.83,0.15-1.2,0.45c-0.17,0.3-0.32,0.87-0.45,1.7c0.03,0.77,0.18,1.33,0.45,1.7
				c0.3,0.4,0.68,0.6,1.15,0.6c0.4-0.1,0.7-0.18,0.9-0.25c0.27-0.27,0.43-0.62,0.5-1.05c0.43,0.17,0.87,0.32,1.3,0.45
				c-0.17,0.6-0.48,1.12-0.95,1.55c-0.43,0.33-1.02,0.48-1.75,0.45c-0.83-0.07-1.55-0.4-2.15-1c-0.5-0.7-0.75-1.5-0.75-2.4
				c0.1-1.17,0.38-2,0.85-2.5c0.53-0.67,1.25-0.88,2.15-0.65c0.87-0.17,1.5,0.07,1.9,0.7c0.37,0.2,0.6,0.58,0.7,1.15
				c-0.43,0.1-0.87,0.18-1.3,0.25C463.03,506.12,462.87,505.87,462.6,505.7z"/>
		</g>
	</g>
</g>
</svg>
