<?xml version="1.0" encoding="utf-8"?>
<!-- Generator: Adobe Illustrator 16.0.0, SVG Export Plug-In . SVG Version: 6.00 Build 0)  -->
<!DOCTYPE svg PUBLIC "-//W3C//DTD SVG 1.1//EN" "http://www.w3.org/Graphics/SVG/1.1/DTD/svg11.dtd">
<svg version="1.1" id="Layer_1" xmlns="http://www.w3.org/2000/svg" xmlns:xlink="http://www.w3.org/1999/xlink" x="0px" y="0px"
	 width="700px" height="700px" viewBox="0 0 700 700" enable-background="new 0 0 700 700" xml:space="preserve">
<g>
	<g>
		<path fill-rule="evenodd" clip-rule="evenodd" fill="#FFFFFF" fill-opacity="0.3255" d="M513.15,378l23.7,57.95
			c1.37,4.97-1.47,9.83-8.5,14.6c-10.67,6.57-22,11.22-34,13.95c-9.6,1.93-15.33,0.45-17.2-4.45L443.5,378H513.15z"/>
	</g>
	<g>
		<polygon fill-rule="evenodd" clip-rule="evenodd" fill="#FFFFFF" points="443.6,378 443.2,377.3 512.75,377.3 513.1,378 		"/>
	</g>
	<g>
		<g>
			<linearGradient id="SVGID_1_" gradientUnits="userSpaceOnUse" x1="466.5732" y1="414.709" x2="513.6218" y2="395.402">
				<stop  offset="7.843138e-003" style="stop-color:#000000;stop-opacity:0"/>
				<stop  offset="0.2863" style="stop-color:#000000;stop-opacity:0.0431"/>
				<stop  offset="0.5647" style="stop-color:#000000;stop-opacity:0.0627"/>
				<stop  offset="0.8353" style="stop-color:#000000;stop-opacity:0"/>
				<stop  offset="1" style="stop-color:#000000;stop-opacity:0"/>
			</linearGradient>
			<path fill-rule="evenodd" clip-rule="evenodd" fill="url(#SVGID_1_)" d="M491.5,341.5l42.7,104.05
				c-14.07,11.63-29.75,18.07-47.05,19.3l-42.7-104.05L491.5,341.5z"/>
		</g>
		<g>
			<linearGradient id="SVGID_2_" gradientUnits="userSpaceOnUse" x1="486.9814" y1="405.0488" x2="491.9072" y2="403.0258">
				<stop  offset="0" style="stop-color:#FFFFFF;stop-opacity:0.1294"/>
				<stop  offset="0.5098" style="stop-color:#FFFFFF"/>
				<stop  offset="1" style="stop-color:#FFFFFF;stop-opacity:0.3922"/>
			</linearGradient>
			<path fill-rule="evenodd" clip-rule="evenodd" fill="url(#SVGID_2_)" d="M470.6,350.5l42.75,104.15
				c-1.37,1.7-3.12,2.42-5.25,2.15l-42.75-104.15L470.6,350.5z"/>
		</g>
		<g>
			<linearGradient id="SVGID_3_" gradientUnits="userSpaceOnUse" x1="445.6201" y1="355.4502" x2="484.4078" y2="339.4903">
				<stop  offset="0" style="stop-color:#BAC1D1;stop-opacity:0.8431"/>
				<stop  offset="0.2078" style="stop-color:#AFB8C8;stop-opacity:0.5922"/>
				<stop  offset="0.4745" style="stop-color:#A5B0C0;stop-opacity:0.3176"/>
				<stop  offset="0.8039" style="stop-color:#B2BACA;stop-opacity:0.6275"/>
				<stop  offset="0.8784" style="stop-color:#B5BCCC;stop-opacity:0.5922"/>
				<stop  offset="1" style="stop-color:#BAC1D1;stop-opacity:0.8"/>
			</linearGradient>
			<path fill-rule="evenodd" clip-rule="evenodd" fill="url(#SVGID_3_)" d="M478.1,340.45c4-1.17,6.08-1.53,6.25-1.1
				c0.13,0.27-0.47,0.85-1.8,1.75c-4.9,2.93-10.07,5.55-15.5,7.85c-2.77,1.2-5.48,2.3-8.15,3.3c-2.57,0.93-4.9,1.7-7,2.3
				c-1.5,0.43-2.7,0.75-3.6,0.95c-1.63,0.33-2.53,0.3-2.7-0.1c-0.13-0.33,0.5-0.95,1.9-1.85c0.77-0.5,1.83-1.12,3.2-1.85
				c3.63-1.97,8.13-4.05,13.5-6.25C469.57,343.25,474.2,341.58,478.1,340.45z"/>
		</g>
		<g>
			<linearGradient id="SVGID_4_" gradientUnits="userSpaceOnUse" x1="448.4209" y1="343.0063" x2="474.5441" y2="332.2771">
				<stop  offset="0" style="stop-color:#7E0127"/>
				<stop  offset="0.2392" style="stop-color:#98012A"/>
				<stop  offset="0.4941" style="stop-color:#A0002B"/>
				<stop  offset="0.7686" style="stop-color:#810328"/>
				<stop  offset="1" style="stop-color:#4A0218"/>
			</linearGradient>
			<path fill-rule="evenodd" clip-rule="evenodd" fill="url(#SVGID_4_)" d="M449.75,334.05c0.1-0.03,0.23-0.1,0.4-0.2l17.65-7.2
				c2.23-0.87,3.9-0.45,5,1.25l0.1,0.2l4,9.75c0.07,0.77-0.72,1.53-2.35,2.3c-6.8,3.57-13.82,6.43-21.05,8.6
				c-1.87,0.5-2.82,0.35-2.85-0.45l-3.85-9.5h-0.05C446.08,336.8,447.08,335.22,449.75,334.05z"/>
		</g>
		<g>
			<linearGradient id="SVGID_5_" gradientUnits="userSpaceOnUse" x1="450.8076" y1="351.0088" x2="478.4004" y2="339.7271">
				<stop  offset="0" style="stop-color:#C6B3B0"/>
				<stop  offset="0.4784" style="stop-color:#DBCFCD"/>
				<stop  offset="1" style="stop-color:#A28380"/>
			</linearGradient>
			<path fill-rule="evenodd" clip-rule="evenodd" fill="url(#SVGID_5_)" d="M478.5,341.75c-8.63,4.63-17.43,8.23-26.4,10.8
				c-0.23-0.2-0.6-0.63-1.1-1.3c-0.57-0.8-0.75-1.78-0.55-2.95c9.1-2.5,17.75-6.05,25.95-10.65c0.97,0.13,1.65,0.78,2.05,1.95
				C478.78,340.8,478.8,341.52,478.5,341.75z"/>
		</g>
		<g>
			<linearGradient id="SVGID_6_" gradientUnits="userSpaceOnUse" x1="451.835" y1="333.4458" x2="465.7928" y2="327.679">
				<stop  offset="0" style="stop-color:#A1002C"/>
				<stop  offset="1" style="stop-color:#4B0117"/>
			</linearGradient>
			<path fill-rule="evenodd" clip-rule="evenodd" fill="url(#SVGID_6_)" d="M466.5,328c-2,1-4.47,2.1-7.4,3.3
				c-2.93,1.2-5.47,2.15-7.6,2.85c-2.1,0.73-3.18,1.02-3.25,0.85c0-0.03,0.22-0.22,0.65-0.55c6.27-3.47,12.83-6.17,19.7-8.1
				c0.57-0.07,0.85-0.08,0.85-0.05C469.52,326.47,468.53,327.03,466.5,328z"/>
		</g>
		<g>
			
				<radialGradient id="SVGID_7_" cx="438.9502" cy="315.75" r="29.2505" gradientTransform="matrix(0.9251 -0.3796 0.3272 0.7975 -70.4643 230.5813)" gradientUnits="userSpaceOnUse">
				<stop  offset="0" style="stop-color:#A0002B"/>
				<stop  offset="0.6" style="stop-color:#75021F"/>
				<stop  offset="0.9804" style="stop-color:#980E2F"/>
			</radialGradient>
			<path fill-rule="evenodd" clip-rule="evenodd" fill="url(#SVGID_7_)" d="M366.5,317.45c1.57-7.2,3.38-13.48,5.45-18.85
				c15.73-41.57,45.57-31.37,89.5,30.6l0.1,0.2c-2.13,1.2-4.43,2.12-6.9,2.75l-0.05-0.1l-0.15-0.45
				c-40.6-59.53-66.93-67.72-79-24.55c-0.73,2.47-1.4,5.12-2,7.95C371.55,317.33,369.23,318.15,366.5,317.45z"/>
			<linearGradient id="SVGID_8_" gradientUnits="userSpaceOnUse" x1="458.8037" y1="415.3545" x2="518.4086" y2="390.8902">
				<stop  offset="0" style="stop-color:#BAC1D1;stop-opacity:0.8431"/>
				<stop  offset="0.2078" style="stop-color:#AFB8C8;stop-opacity:0.5922"/>
				<stop  offset="0.4745" style="stop-color:#A5B0C0;stop-opacity:0.3176"/>
				<stop  offset="0.8039" style="stop-color:#B2BACA;stop-opacity:0.6275"/>
				<stop  offset="0.8784" style="stop-color:#B5BCCC;stop-opacity:0.5922"/>
				<stop  offset="1" style="stop-color:#BAC1D1;stop-opacity:0.8"/>
			</linearGradient>
			<path fill-rule="evenodd" clip-rule="evenodd" fill="url(#SVGID_8_)" d="M483.75,339.75c3.03-0.8,5.98-0.73,8.85,0.2
				c0.33,0.1,0.68,0.22,1.05,0.35c2.63,1.07,4.57,2.53,5.8,4.4l0.2,0.5l4.35,10.6l32.85,80.1c1.4,5-1.42,9.88-8.45,14.65
				c-10.7,6.53-22.03,11.18-34,13.95c-9.6,1.97-15.35,0.48-17.25-4.45l-37.1-90.4c-0.3-2.33-0.05-4.77,0.75-7.3
				c0.17-0.5,0.37-0.97,0.6-1.4c0.93-2.43,2.4-4.3,4.4-5.6c13.23-3.57,25.82-8.73,37.75-15.5L483.75,339.75z"/>
		</g>
		<g>
			<path fill-rule="evenodd" clip-rule="evenodd" fill="#770021" d="M456.35,333.2c0.07-0.03,0.13-0.03,0.2,0
				c0.07,0.03,0.1,0.07,0.1,0.1l4.45,10.9c0.03,0,0.05,0.03,0.05,0.1c-0.07,0.03-0.13,0.07-0.2,0.1l-0.1,0.05
				c-0.1-0.07-0.17-0.1-0.2-0.1l-4.45-10.9c0-0.03,0.02-0.07,0.05-0.1C456.25,333.28,456.28,333.23,456.35,333.2z M464.3,330.05
				c0-0.07,0.02-0.13,0.05-0.2c0.03-0.03,0.08-0.07,0.15-0.1c0.03-0.03,0.07-0.03,0.1,0c0.07,0,0.1,0.03,0.1,0.1l4.4,10.7
				c0.03,0.07,0.03,0.13,0,0.2c0,0.03-0.02,0.07-0.05,0.1c-0.07,0.03-0.13,0.03-0.2,0c-0.07,0-0.12-0.03-0.15-0.1L464.3,330.05z
				 M460.4,331.7c-0.03-0.07-0.02-0.12,0.05-0.15c0.07-0.03,0.13-0.02,0.2,0.05c0.03,0,0.05,0.03,0.05,0.1l4.45,10.75v0.1
				c-0.03,0.03-0.08,0.07-0.15,0.1s-0.1,0.03-0.1,0c-0.07,0.03-0.1,0.02-0.1-0.05l-4.45-10.75
				C460.35,331.78,460.37,331.73,460.4,331.7z M447.45,336.3c-0.03-0.03-0.03-0.07,0-0.1c0-0.1,0.03-0.15,0.1-0.15
				c0.07-0.03,0.13-0.02,0.2,0.05c0.03,0,0.07,0.02,0.1,0.05l4.3,10.5c0.03,0.07,0.03,0.13,0,0.2c0,0.03-0.03,0.07-0.1,0.1
				c-0.07,0-0.13,0-0.2,0c-0.03-0.03-0.07-0.08-0.1-0.15L447.45,336.3z M451.65,334.95c0.03-0.07,0.08-0.1,0.15-0.1
				c0.03-0.03,0.07-0.03,0.1,0c0.07,0,0.1,0.02,0.1,0.05l4.5,11c0.03,0.03,0.03,0.1,0,0.2c-0.03,0-0.07,0.02-0.1,0.05
				c-0.07,0-0.12,0.02-0.15,0.05c-0.03-0.07-0.07-0.12-0.1-0.15l-4.5-11C451.65,335.02,451.65,334.98,451.65,334.95z M468.55,327.6
				c0.03,0.03,0.05,0.07,0.05,0.1l4.45,10.85c0.03,0.03,0.05,0.07,0.05,0.1c-0.03,0.07-0.07,0.1-0.1,0.1c-0.07,0.03-0.13,0.03-0.2,0
				c-0.07,0-0.12-0.02-0.15-0.05l-4.45-10.85c0-0.03,0.02-0.08,0.05-0.15c0.03-0.03,0.08-0.07,0.15-0.1
				C468.43,327.6,468.48,327.6,468.55,327.6z"/>
			<path fill-rule="evenodd" clip-rule="evenodd" fill="#FF3E73" fill-opacity="0.3294" d="M457.05,332.9
				c0.07,0,0.12,0.02,0.15,0.05c0.07,0.03,0.1,0.07,0.1,0.1l4.45,10.85c0,0.03,0,0.07,0,0.1c0,0.07-0.03,0.1-0.1,0.1
				c-0.07,0.03-0.13,0.03-0.2,0c-0.07,0-0.1-0.02-0.1-0.05l-4.45-10.85c0-0.03,0-0.08,0-0.15
				C456.93,332.98,456.98,332.93,457.05,332.9z M452.55,334.7c0.07-0.03,0.15-0.05,0.25-0.05c0.03,0.03,0.07,0.08,0.1,0.15
				l4.45,10.95c0.03,0,0.05,0.03,0.05,0.1c-0.07,0.03-0.13,0.07-0.2,0.1c-0.03,0-0.07,0-0.1,0c-0.07-0.03-0.12-0.05-0.15-0.05
				l-4.45-10.95c-0.03-0.07-0.03-0.13,0-0.2C452.5,334.72,452.52,334.7,452.55,334.7z M460.95,331.35
				c-0.03-0.07-0.02-0.12,0.05-0.15c0.07,0,0.13,0.02,0.2,0.05c0.03,0.03,0.07,0.07,0.1,0.1l4.4,10.8c0.03,0.03,0.03,0.08,0,0.15
				c-0.03,0.03-0.08,0.05-0.15,0.05l-0.1,0.05c-0.03-0.03-0.07-0.07-0.1-0.1l-4.4-10.8C460.92,331.47,460.92,331.42,460.95,331.35z
				 M465.25,329.3c0.03,0,0.07,0.03,0.1,0.1l4.4,10.7c0,0.03,0,0.08,0,0.15c-0.07,0.03-0.12,0.07-0.15,0.1c-0.03,0-0.07,0-0.1,0
				c-0.1-0.03-0.15-0.07-0.15-0.1l-4.4-10.7c-0.03-0.07-0.02-0.12,0.05-0.15c0-0.07,0.02-0.1,0.05-0.1
				C465.08,329.27,465.15,329.27,465.25,329.3z M469.25,327.6c0.03,0,0.07,0,0.1,0c0.03,0.03,0.07,0.08,0.1,0.15l4.2,10.25
				c0.03,0.07,0.03,0.12,0,0.15c0,0.07-0.02,0.1-0.05,0.1c-0.07,0.03-0.13,0.05-0.2,0.05c-0.03-0.03-0.07-0.08-0.1-0.15l-4.2-10.25
				c-0.03-0.07-0.03-0.12,0-0.15C469.13,327.68,469.18,327.63,469.25,327.6z M448.15,336.3c0-0.03,0.02-0.07,0.05-0.1
				c0.03-0.07,0.08-0.12,0.15-0.15c0.03,0,0.08,0,0.15,0c0.07,0.03,0.1,0.07,0.1,0.1l4.4,10.7c0.03,0.07,0.03,0.12,0,0.15
				c-0.07,0.07-0.12,0.1-0.15,0.1c-0.07,0.03-0.12,0.05-0.15,0.05c-0.07-0.03-0.12-0.08-0.15-0.15L448.15,336.3z"/>
		</g>
		<g>
			<path fill-rule="evenodd" clip-rule="evenodd" fill="none" d="M448.4,335.3c6.77-2,13.5-4.77,20.2-8.3"/>
			<path fill-rule="evenodd" clip-rule="evenodd" fill="none" d="M455.45,331.95c2.6-0.47,4.88-1.42,6.85-2.85"/>
			<path fill-rule="evenodd" clip-rule="evenodd" fill="none" d="M452.4,352.35c9.63-2.8,18.18-6.43,25.65-10.9"/>
			<path fill-rule="evenodd" clip-rule="evenodd" fill="none" d="M451.05,348.45c9.63-2.73,18.22-6.35,25.75-10.85"/>
			<path fill-rule="evenodd" clip-rule="evenodd" fill="none" d="M451.15,347.7c8.3-2.07,16.62-5.47,24.95-10.2"/>
			<path fill-rule="evenodd" clip-rule="evenodd" fill="none" d="M446.7,355.15c8.97-2.47,18.58-6.2,28.85-11.2"/>
		</g>
		<g>
			
				<radialGradient id="SVGID_9_" cx="408.1504" cy="282.7002" r="10.404" gradientTransform="matrix(0.9252 -0.3795 0.339 0.8265 -65.3063 203.9168)" gradientUnits="userSpaceOnUse">
				<stop  offset="0" style="stop-color:#FFFFFF;stop-opacity:0.4314"/>
				<stop  offset="1" style="stop-color:#FBFBFB;stop-opacity:0"/>
			</radialGradient>
			<path fill-rule="evenodd" clip-rule="evenodd" fill="url(#SVGID_9_)" d="M419.4,288.9c-0.1,0.07-0.2,0.12-0.3,0.15
				c-0.13-0.03-0.23-0.08-0.3-0.15c-5.83-5.23-12.22-8.4-19.15-9.5c-0.1-0.03-0.2-0.1-0.3-0.2c-0.03-0.03-0.03-0.12,0-0.25
				c0.03-0.13,0.1-0.23,0.2-0.3c0.1-0.03,0.2-0.05,0.3-0.05c7.1,1.13,13.62,4.38,19.55,9.75c0.07,0.1,0.1,0.18,0.1,0.25
				C419.5,288.67,419.47,288.77,419.4,288.9z"/>
			
				<radialGradient id="SVGID_10_" cx="437.25" cy="304.6001" r="35.8476" gradientTransform="matrix(0.9251 -0.3796 0.3394 0.8271 -70.6436 218.664)" gradientUnits="userSpaceOnUse">
				<stop  offset="0" style="stop-color:#FFFFFF;stop-opacity:0.498"/>
				<stop  offset="1" style="stop-color:#FBFBFB;stop-opacity:0"/>
			</radialGradient>
			<path fill-rule="evenodd" clip-rule="evenodd" fill="url(#SVGID_10_)" d="M415.9,281.6c0.1,0,0.2,0.03,0.3,0.1
				c12.3,9.1,23.92,21.02,34.85,35.75c2.6,3.5,5.17,7.2,7.7,11.1c0.07,0.03,0.08,0.12,0.05,0.25c-0.07,0.1-0.13,0.17-0.2,0.2
				c-0.1,0.07-0.22,0.12-0.35,0.15c-0.1-0.03-0.18-0.1-0.25-0.2c-2.57-3.83-5.12-7.52-7.65-11.05
				c-10.93-14.63-22.52-26.48-34.75-35.55c-0.07-0.07-0.12-0.18-0.15-0.35c0-0.1,0.07-0.18,0.2-0.25
				C415.68,281.68,415.77,281.63,415.9,281.6z"/>
			
				<radialGradient id="SVGID_11_" cx="374.2998" cy="300.5498" r="18.7955" gradientTransform="matrix(0.9251 -0.3797 0.3392 0.8266 -73.9344 194.2146)" gradientUnits="userSpaceOnUse">
				<stop  offset="0" style="stop-color:#FFFFFF;stop-opacity:0.5765"/>
				<stop  offset="1" style="stop-color:#FBFBFB;stop-opacity:0"/>
			</radialGradient>
			<path fill-rule="evenodd" clip-rule="evenodd" fill="url(#SVGID_11_)" d="M380.3,284.3c0.07-0.07,0.15-0.12,0.25-0.15
				c0.17-0.07,0.28-0.07,0.35,0c0.1,0.1,0.15,0.2,0.15,0.3c0,0.1,0,0.18,0,0.25c-2.77,3.63-5.4,8.95-7.9,15.95
				c-1.63,4.63-3.22,9.97-4.75,16c-0.03,0.1-0.1,0.18-0.2,0.25c-0.07,0.07-0.17,0.1-0.3,0.1c-0.13-0.03-0.23-0.08-0.3-0.15
				c-0.07-0.1-0.07-0.22,0-0.35c1.53-6.03,3.12-11.37,4.75-16C374.85,293.33,377.5,287.93,380.3,284.3z"/>
			
				<radialGradient id="SVGID_12_" cx="392.8047" cy="276.2002" r="5.2926" gradientTransform="matrix(0.9249 -0.3802 0.3396 0.826 -64.2858 197.3998)" gradientUnits="userSpaceOnUse">
				<stop  offset="0" style="stop-color:#FFFFFF;stop-opacity:0.4627"/>
				<stop  offset="1" style="stop-color:#FBFBFB;stop-opacity:0"/>
			</radialGradient>
			<path fill-rule="evenodd" clip-rule="evenodd" fill="url(#SVGID_12_)" d="M397.75,274.6c0.1,0.07,0.15,0.15,0.15,0.25
				c-0.03,0.1-0.08,0.18-0.15,0.25c-0.1,0.13-0.2,0.2-0.3,0.2c-4,0.13-7.03,0.97-9.1,2.5c-0.07,0.07-0.17,0.08-0.3,0.05
				c-0.1-0.03-0.18-0.1-0.25-0.2c-0.1-0.03-0.12-0.12-0.05-0.25c0-0.07,0.05-0.15,0.15-0.25c2.17-1.6,5.35-2.5,9.55-2.7
				C397.58,274.45,397.68,274.5,397.75,274.6z"/>
		</g>
		
			<radialGradient id="SVGID_13_" cx="65.9004" cy="17.5752" r="22.9139" gradientTransform="matrix(0.2643 -0.1085 0.6903 1.6821 476.4999 373.0497)" gradientUnits="userSpaceOnUse">
			<stop  offset="0" style="stop-color:#FFFFFF;stop-opacity:0.3647"/>
			<stop  offset="0.4078" style="stop-color:#FFFFFF;stop-opacity:0.2706"/>
			<stop  offset="1" style="stop-color:#FFFFFF;stop-opacity:0"/>
		</radialGradient>
		<path fill-rule="evenodd" clip-rule="evenodd" fill="url(#SVGID_13_)" d="M521.53,433.19c-1.44,0.59-4.21-2.6-8.28-9.57
			c-4.04-6.92-8.2-15.57-12.45-25.94c-4.26-10.37-7.39-19.47-9.39-27.3c-2-7.83-2.27-12.04-0.83-12.63c1.45-0.6,4.21,2.59,8.28,9.57
			c4.07,6.98,8.23,15.65,12.49,26.03s7.38,19.44,9.36,27.21C522.71,428.38,522.98,432.59,521.53,433.19z"/>
		
			<radialGradient id="SVGID_14_" cx="65.9019" cy="17.5752" r="22.9132" gradientTransform="matrix(0.2015 -0.0827 0.9261 2.2567 443.6998 381.4489)" gradientUnits="userSpaceOnUse">
			<stop  offset="0" style="stop-color:#FFFFFF;stop-opacity:0.3647"/>
			<stop  offset="0.3412" style="stop-color:#FFFFFF;stop-opacity:0.1569"/>
			<stop  offset="0.7451" style="stop-color:#FFFFFF;stop-opacity:0.0627"/>
			<stop  offset="1" style="stop-color:#FFFFFF;stop-opacity:0"/>
		</radialGradient>
		<path fill-rule="evenodd" clip-rule="evenodd" fill="url(#SVGID_14_)" d="M494.02,466.27c-1.1,0.45-4.09-4.13-8.95-13.73
			c-4.83-9.53-10.1-21.26-15.81-35.17c-5.71-13.92-10.21-26-13.5-36.25c-3.28-10.25-4.37-15.61-3.27-16.06
			c1.11-0.45,4.09,4.12,8.95,13.73c4.86,9.61,10.15,21.37,15.86,35.29c5.71,13.92,10.2,25.96,13.45,36.14
			C494.04,460.46,495.13,465.82,494.02,466.27z"/>
		
			<radialGradient id="SVGID_15_" cx="65.9067" cy="17.5742" r="22.9113" gradientTransform="matrix(0.0388 0.0945 -0.6852 0.2812 477.2498 339.7498)" gradientUnits="userSpaceOnUse">
			<stop  offset="0" style="stop-color:#FFFFFF;stop-opacity:0.498"/>
			<stop  offset="0.4078" style="stop-color:#FFFFFF;stop-opacity:0.2706"/>
			<stop  offset="1" style="stop-color:#FFFFFF;stop-opacity:0"/>
		</radialGradient>
		<path fill-rule="evenodd" clip-rule="evenodd" fill="url(#SVGID_15_)" d="M452.4,357.22c-0.21-0.52,1.11-1.58,3.98-3.19
			c2.84-1.6,6.37-3.26,10.6-5c4.23-1.73,7.92-3.04,11.09-3.9c3.17-0.87,4.86-1.04,5.07-0.52c0.21,0.52-1.11,1.58-3.98,3.19
			c-2.86,1.61-6.41,3.27-10.63,5.01c-4.22,1.73-7.91,3.03-11.05,3.89C454.3,357.57,452.61,357.74,452.4,357.22z"/>
		
			<radialGradient id="SVGID_16_" cx="65.9009" cy="17.5757" r="22.9134" gradientTransform="matrix(0.3147 0.0969 -0.1694 0.4164 430.8496 350.0999)" gradientUnits="userSpaceOnUse">
			<stop  offset="0" style="stop-color:#FFFFFF;stop-opacity:0.251"/>
			<stop  offset="0.5333" style="stop-color:#FFFFFF;stop-opacity:0.0471"/>
			<stop  offset="0.7451" style="stop-color:#FFFFFF;stop-opacity:0.0275"/>
			<stop  offset="1" style="stop-color:#FFFFFF;stop-opacity:0"/>
		</radialGradient>
		<path fill-rule="evenodd" clip-rule="evenodd" fill="url(#SVGID_16_)" d="M444.81,373.14c-1.72-0.53-2.83-1.9-3.32-4.11
			c-0.49-2.2-0.21-4.58,0.83-7.14c1.04-2.57,2.55-4.58,4.52-6.03c1.98-1.45,3.83-1.91,5.55-1.38c1.73,0.53,2.84,1.9,3.32,4.11
			s0.2,4.6-0.84,7.17c-1.04,2.57-2.55,4.57-4.52,6.01C448.39,373.21,446.54,373.67,444.81,373.14z"/>
		
			<radialGradient id="SVGID_17_" cx="65.9014" cy="17.5762" r="22.9129" gradientTransform="matrix(-0.1104 0.3046 -0.4486 -0.0979 505.2002 329.2002)" gradientUnits="userSpaceOnUse">
			<stop  offset="0" style="stop-color:#FFFFFF;stop-opacity:0.251"/>
			<stop  offset="0.5333" style="stop-color:#FFFFFF;stop-opacity:0.0471"/>
			<stop  offset="0.7451" style="stop-color:#FFFFFF;stop-opacity:0.0275"/>
			<stop  offset="1" style="stop-color:#FFFFFF;stop-opacity:0"/>
		</radialGradient>
		<path fill-rule="evenodd" clip-rule="evenodd" fill="url(#SVGID_17_)" d="M479.98,345.35c0.6-1.67,2.11-2.88,4.52-3.65
			c2.39-0.76,4.97-0.84,7.73-0.23c2.77,0.6,4.92,1.71,6.46,3.33c1.54,1.63,2.01,3.28,1.4,4.94c-0.61,1.67-2.11,2.89-4.52,3.65
			c-2.4,0.76-4.99,0.83-7.76,0.23c-2.77-0.6-4.91-1.71-6.44-3.33C479.84,348.68,479.37,347.03,479.98,345.35z"/>
		<g>
			<path fill-rule="evenodd" clip-rule="evenodd" fill="#FFFFFF" d="M453.05,398.8c18.5-6.47,37.72-14.35,57.65-23.65l11.5,28
				c-17.97,10.17-37.1,18.23-57.4,24.2L453.05,398.8z"/>
		</g>
		<g>
			<path fill-rule="evenodd" clip-rule="evenodd" d="M484,393.35l2.5,6.1l-1.4,0.55l-2.5-6.1L484,393.35z M482.2,395.3l-2.05,0.85
				l2.1,5.05l-1.4,0.55l-2.1-5.05l-2,0.85l-0.4-1.05l5.45-2.25L482.2,395.3z M494.6,394.7l3.35-1.5l0.4,1.05l-4.7,2.15l-2.5-6.05
				l1.4-0.6L494.6,394.7z M504.8,384.85l1.65,4.1l0.95-0.6c0.37-0.13,0.62-0.3,0.75-0.5c0.2-0.13,0.37-0.32,0.5-0.55
				c0.07-0.13,0.1-0.35,0.1-0.65c0-0.4-0.1-0.82-0.3-1.25c-0.2-0.5-0.4-0.83-0.6-1c-0.2-0.2-0.4-0.33-0.6-0.4
				c-0.27-0.07-0.52-0.05-0.75,0.05c-0.2,0.03-0.58,0.18-1.15,0.45L504.8,384.85z M502.2,386.2l-3.6,1.75l0.55,1.35l3.3-1.6l0.45,1
				l-3.3,1.65l0.65,1.65l3.75-1.9l0.45,1.1l-5.15,2.45l-2.5-6.1l4.95-2.4L502.2,386.2z M503,384.5l2.5-1.3
				c0.5-0.27,0.92-0.45,1.25-0.55c0.43-0.03,0.83,0,1.2,0.1c0.4,0.17,0.77,0.37,1.1,0.6c0.27,0.37,0.52,0.85,0.75,1.45
				c0.2,0.47,0.33,0.92,0.4,1.35c-0.03,0.53-0.13,1.03-0.3,1.5c-0.17,0.3-0.42,0.6-0.75,0.9c-0.27,0.23-0.63,0.48-1.1,0.75l-2.5,1.3
				L503,384.5z M486.75,392.25l2.05,5l3.45-1.45l0.4,1.05l-4.75,2.05l-2.5-6.05L486.75,392.25z M507.9,401.65l1.25,0.75l-1.55,0.85
				l-1.5-0.85c-0.57-0.33-0.93-0.53-1.1-0.6c-0.2-0.07-0.37-0.07-0.5,0c-0.17,0-0.4,0.08-0.7,0.25l-0.3,0.15l1.05,2.5l-1.25,0.65
				l-2.5-6.1l2.8-1.4c0.67-0.33,1.18-0.52,1.55-0.55c0.33-0.07,0.68,0,1.05,0.2c0.27,0.17,0.48,0.43,0.65,0.8
				c0.17,0.47,0.18,0.9,0.05,1.3c-0.2,0.47-0.57,0.9-1.1,1.3c0.37,0,0.67,0.05,0.9,0.15C507,401.12,507.4,401.32,507.9,401.65z
				 M504.55,398.65c-0.17,0.07-0.5,0.23-1,0.5l-1.1,0.5l0.65,1.55l1.05-0.5c0.63-0.3,1.02-0.5,1.15-0.6
				c0.13-0.13,0.23-0.32,0.3-0.55c0-0.13-0.03-0.28-0.1-0.45c-0.1-0.23-0.22-0.37-0.35-0.4
				C504.95,398.63,504.75,398.62,504.55,398.65z M499.85,400.85l-3.65,1.65l0.55,1.35l3.35-1.55l0.45,1.05l-3.35,1.55l0.65,1.65
				l3.8-1.75l0.45,1.05l-5.2,2.35l-2.5-6.1l5.05-2.35L499.85,400.85z M488.6,405.85l-0.4-1l5.4-2.35l0.4,1l-2,0.9l2.05,5.1
				l-1.35,0.6l-2.1-5.1L488.6,405.85z M487.75,410.5l-2.7,1.05v1.65l-1.5,0.6l0.15-7.2l1.5-0.6l5.25,5.05l-1.45,0.6L487.75,410.5z
				 M477.45,402.05c-0.07,0.4-0.28,0.75-0.65,1.05c-0.33,0.3-0.8,0.58-1.4,0.85c-0.9,0.37-1.63,0.43-2.2,0.2
				c-0.6-0.13-1.08-0.52-1.45-1.15l1.25-0.7c0.23,0.37,0.53,0.62,0.9,0.75c0.3,0.07,0.67,0.02,1.1-0.15c0.47-0.2,0.77-0.42,0.9-0.65
				c0.17-0.27,0.2-0.52,0.1-0.75c-0.07-0.13-0.17-0.23-0.3-0.3c-0.13-0.07-0.33-0.1-0.6-0.1c-0.2,0.03-0.6,0.1-1.2,0.2
				c-0.8,0.17-1.4,0.18-1.8,0.05c-0.57-0.17-0.97-0.5-1.2-1c-0.1-0.3-0.12-0.62-0.05-0.95c0.1-0.4,0.32-0.73,0.65-1
				c0.3-0.3,0.7-0.57,1.2-0.8c0.87-0.33,1.6-0.42,2.2-0.25c0.57,0.13,0.97,0.48,1.2,1.05l-1.35,0.65c-0.17-0.27-0.38-0.43-0.65-0.5
				c-0.27-0.1-0.6-0.07-1,0.1c-0.4,0.17-0.67,0.37-0.8,0.6c-0.13,0.17-0.17,0.32-0.1,0.45c0.07,0.17,0.2,0.27,0.4,0.3
				c0.23,0.07,0.7,0.03,1.4-0.1c0.73-0.1,1.3-0.15,1.7-0.15c0.4,0.03,0.73,0.13,1,0.3c0.27,0.23,0.48,0.53,0.65,0.9
				C477.48,401.32,477.52,401.68,477.45,402.05z M481,407.65l0.85,6.75l-1.45,0.6l-3.3-4.1l0.45,5.05l-1.45,0.6l-4.2-5.5l1.45-0.6
				l2.75,3.85l-0.4-4.65l1.6-0.65l3,3.85l-0.65-4.6L481,407.65z M469.05,399.2l2.5,6.1l-1.45,0.55l-2.5-6.15L469.05,399.2z
				 M466.95,401.75c0.27,0.37,0.53,0.83,0.8,1.4c0.2,0.5,0.3,0.95,0.3,1.35c-0.03,0.47-0.13,0.9-0.3,1.3
				c-0.17,0.27-0.43,0.53-0.8,0.8c-0.27,0.2-0.67,0.4-1.2,0.6l-2.7,0.85l-2.55-6.1l2.65-0.8c0.57-0.23,1.03-0.38,1.4-0.45
				c0.43,0,0.85,0.08,1.25,0.25C466.2,401.15,466.58,401.42,466.95,401.75z M466.55,404.8c0-0.4-0.1-0.83-0.3-1.3
				c-0.2-0.43-0.42-0.75-0.65-0.95c-0.2-0.23-0.4-0.4-0.6-0.5c-0.23-0.1-0.5-0.12-0.8-0.05c-0.2,0-0.58,0.08-1.15,0.25l-0.65,0.25
				l1.65,4l1.05-0.3c0.4-0.13,0.7-0.25,0.9-0.35c0.13-0.13,0.28-0.28,0.45-0.45C466.52,405.27,466.55,405.07,466.55,404.8z
				 M485,410.4l1.9-0.8l-1.85-1.85L485,410.4z"/>
		</g>
	</g>
</g>
</svg>
