<?xml version="1.0" encoding="utf-8"?>
<!-- Generator: Adobe Illustrator 16.0.0, SVG Export Plug-In . SVG Version: 6.00 Build 0)  -->
<!DOCTYPE svg PUBLIC "-//W3C//DTD SVG 1.1//EN" "http://www.w3.org/Graphics/SVG/1.1/DTD/svg11.dtd">
<svg version="1.1" id="Layer_1" xmlns="http://www.w3.org/2000/svg" xmlns:xlink="http://www.w3.org/1999/xlink" x="0px" y="0px"
	 width="700px" height="700px" viewBox="0 0 700 700" enable-background="new 0 0 700 700" xml:space="preserve">
<g>
	<g>
		<path fill-rule="evenodd" clip-rule="evenodd" fill="#FFFFFF" fill-opacity="0.3255" d="M510.15,382l17.1,64.85
			c0.73,5.13-2.72,9.58-10.35,13.35c-11.47,5.1-23.33,8.23-35.6,9.4c-9.77,0.67-15.25-1.55-16.45-6.65L443.5,382H510.15z"/>
	</g>
	<g>
		<polygon fill-rule="evenodd" clip-rule="evenodd" fill="#FFFFFF" points="443.5,382 443.3,381.3 509.9,381.3 510.1,382 		"/>
	</g>
	<g>
		<g>
			<linearGradient id="SVGID_1_" gradientUnits="userSpaceOnUse" x1="460.2959" y1="416.7539" x2="509.4965" y2="403.7563">
				<stop  offset="7.843138e-003" style="stop-color:#000000;stop-opacity:0"/>
				<stop  offset="0.2863" style="stop-color:#000000;stop-opacity:0.0431"/>
				<stop  offset="0.5647" style="stop-color:#000000;stop-opacity:0.0627"/>
				<stop  offset="0.8353" style="stop-color:#000000;stop-opacity:0"/>
				<stop  offset="1" style="stop-color:#000000;stop-opacity:0"/>
			</linearGradient>
			<path fill-rule="evenodd" clip-rule="evenodd" fill="url(#SVGID_1_)" d="M494.7,347.35l28.7,108.85
				c-15.47,9.7-31.88,14.03-49.25,13l-28.7-108.85L494.7,347.35z"/>
		</g>
		<g>
			<linearGradient id="SVGID_2_" gradientUnits="userSpaceOnUse" x1="481.8105" y1="409.8193" x2="486.9594" y2="408.4649">
				<stop  offset="0" style="stop-color:#FFFFFF;stop-opacity:0.1294"/>
				<stop  offset="0.5098" style="stop-color:#FFFFFF"/>
				<stop  offset="1" style="stop-color:#FFFFFF;stop-opacity:0.3922"/>
			</linearGradient>
			<path fill-rule="evenodd" clip-rule="evenodd" fill="url(#SVGID_2_)" d="M472.75,353.55l28.75,108.9
				c-1.57,1.53-3.4,2.02-5.5,1.45L467.25,355L472.75,353.55z"/>
		</g>
		<g>
			<linearGradient id="SVGID_3_" gradientUnits="userSpaceOnUse" x1="447.248" y1="355.1914" x2="487.8242" y2="344.4959">
				<stop  offset="0" style="stop-color:#BAC1D1;stop-opacity:0.8431"/>
				<stop  offset="0.2078" style="stop-color:#AFB8C8;stop-opacity:0.5922"/>
				<stop  offset="0.4745" style="stop-color:#A5B0C0;stop-opacity:0.3176"/>
				<stop  offset="0.8039" style="stop-color:#B2BACA;stop-opacity:0.6275"/>
				<stop  offset="0.8784" style="stop-color:#B5BCCC;stop-opacity:0.5922"/>
				<stop  offset="1" style="stop-color:#BAC1D1;stop-opacity:0.8"/>
			</linearGradient>
			<path fill-rule="evenodd" clip-rule="evenodd" fill="url(#SVGID_3_)" d="M447.25,355.2c-0.07-0.33,0.65-0.88,2.15-1.65
				c0.87-0.37,2.02-0.83,3.45-1.4c3.87-1.47,8.6-2.95,14.2-4.45c5.6-1.47,10.43-2.5,14.5-3.1c4.1-0.67,6.22-0.77,6.35-0.3
				c0.07,0.3-0.63,0.78-2.1,1.45c-5.23,2.27-10.68,4.22-16.35,5.85c-2.93,0.8-5.8,1.53-8.6,2.2c-2.63,0.53-5.03,0.98-7.2,1.35
				c-1.53,0.23-2.77,0.38-3.7,0.45C448.28,355.73,447.38,355.6,447.25,355.2z"/>
		</g>
		<g>
			<linearGradient id="SVGID_4_" gradientUnits="userSpaceOnUse" x1="451.7246" y1="343.251" x2="479.059" y2="336.0306">
				<stop  offset="0" style="stop-color:#7E0127"/>
				<stop  offset="0.2392" style="stop-color:#98012A"/>
				<stop  offset="0.4941" style="stop-color:#A0002B"/>
				<stop  offset="0.7686" style="stop-color:#810328"/>
				<stop  offset="1" style="stop-color:#4A0218"/>
			</linearGradient>
			<path fill-rule="evenodd" clip-rule="evenodd" fill="url(#SVGID_4_)" d="M473.1,329.55c2.3-0.57,3.88,0.07,4.75,1.9l0.05,0.25
				l2.7,10.2c0,0.73-0.85,1.38-2.55,1.95c-7.23,2.63-14.58,4.55-22.05,5.75c-1.93,0.23-2.85-0.03-2.75-0.8l-2.65-9.9v-0.05
				c-0.4-2.07,0.8-3.5,3.6-4.3c0.1-0.03,0.25-0.08,0.45-0.15L473.1,329.55z"/>
		</g>
		<g>
			<linearGradient id="SVGID_5_" gradientUnits="userSpaceOnUse" x1="453.0928" y1="351.4707" x2="481.9151" y2="343.8604">
				<stop  offset="0" style="stop-color:#C6B3B0"/>
				<stop  offset="0.4784" style="stop-color:#DBCFCD"/>
				<stop  offset="1" style="stop-color:#A28380"/>
			</linearGradient>
			<path fill-rule="evenodd" clip-rule="evenodd" fill="url(#SVGID_5_)" d="M481.75,345.9c-9.2,3.47-18.4,5.9-27.6,7.3
				c-0.23-0.27-0.53-0.73-0.9-1.4c-0.5-0.9-0.58-1.92-0.25-3.05c9.37-1.27,18.42-3.67,27.15-7.2c0.97,0.3,1.55,1.05,1.75,2.25
				C482.13,345.03,482.08,345.73,481.75,345.9z"/>
		</g>
		<g>
			<linearGradient id="SVGID_6_" gradientUnits="userSpaceOnUse" x1="456.3281" y1="334.1934" x2="470.9348" y2="330.3686">
				<stop  offset="0" style="stop-color:#A1002C"/>
				<stop  offset="1" style="stop-color:#4B0117"/>
			</linearGradient>
			<path fill-rule="evenodd" clip-rule="evenodd" fill="url(#SVGID_6_)" d="M471.6,330.75c-2.1,0.73-4.68,1.5-7.75,2.3
				c-3.03,0.8-5.68,1.4-7.95,1.8c-2.2,0.43-3.32,0.57-3.35,0.4c0-0.03,0.27-0.18,0.8-0.45c6.63-2.6,13.48-4.4,20.55-5.4
				c0.57-0.03,0.85-0.03,0.85,0C474.78,329.57,473.73,330.02,471.6,330.75z"/>
		</g>
		<g>
			
				<radialGradient id="SVGID_7_" cx="445.8496" cy="314.9502" r="29.2706" gradientTransform="matrix(0.9669 -0.2553 0.22 0.8332 -54.5131 166.3727)" gradientUnits="userSpaceOnUse">
				<stop  offset="0" style="stop-color:#A0002B"/>
				<stop  offset="0.6" style="stop-color:#75021F"/>
				<stop  offset="0.9804" style="stop-color:#980E2F"/>
			</radialGradient>
			<path fill-rule="evenodd" clip-rule="evenodd" fill="url(#SVGID_7_)" d="M381,305.6c-2.2,2.07-4.6,2.57-7.2,1.5
				c2.47-6.87,5.08-12.85,7.85-17.95c21.07-39.17,49.33-25.13,84.8,42.1l0.1,0.25c-2.3,0.9-4.7,1.5-7.2,1.8l-0.05-0.15l-0.1-0.4
				c-32.47-64.4-57.53-75.98-75.2-34.75C382.97,300.4,381.97,302.93,381,305.6z"/>
			<linearGradient id="SVGID_8_" gradientUnits="userSpaceOnUse" x1="452.5537" y1="416.3594" x2="514.8447" y2="399.9082">
				<stop  offset="0" style="stop-color:#BAC1D1;stop-opacity:0.8431"/>
				<stop  offset="0.2078" style="stop-color:#AFB8C8;stop-opacity:0.5922"/>
				<stop  offset="0.4745" style="stop-color:#A5B0C0;stop-opacity:0.3176"/>
				<stop  offset="0.8039" style="stop-color:#B2BACA;stop-opacity:0.6275"/>
				<stop  offset="0.8784" style="stop-color:#B5BCCC;stop-opacity:0.5922"/>
				<stop  offset="1" style="stop-color:#BAC1D1;stop-opacity:0.8"/>
			</linearGradient>
			<path fill-rule="evenodd" clip-rule="evenodd" fill="url(#SVGID_8_)" d="M441.65,361.4c0.23-0.43,0.47-0.87,0.7-1.3
				c1.3-2.3,3-3.97,5.1-5c13.63-1.8,26.8-5.27,39.5-10.4l0.2-0.05c3.17-0.43,6.1,0.02,8.8,1.35c0.3,0.1,0.63,0.27,1,0.5
				c2.43,1.4,4.13,3.1,5.1,5.1l0.15,0.5l2.95,11.1l22.1,83.8c0.73,5.13-2.68,9.6-10.25,13.4c-11.5,5.1-23.37,8.23-35.6,9.4
				c-9.77,0.67-15.27-1.57-16.5-6.7l-24.95-94.55C439.92,366.22,440.48,363.83,441.65,361.4z"/>
		</g>
		<g>
			<path fill-rule="evenodd" clip-rule="evenodd" fill="#770021" d="M451.65,336.45c-0.03-0.03-0.03-0.07,0-0.1
				c0.03-0.07,0.08-0.1,0.15-0.1c0.07-0.03,0.12-0.02,0.15,0.05c0.03,0,0.07,0.02,0.1,0.05l2.9,11.05c0,0.07,0,0.12,0,0.15
				c-0.03,0-0.08,0.02-0.15,0.05c-0.07,0-0.12,0-0.15,0c-0.07,0-0.1-0.03-0.1-0.1L451.65,336.45z M465.05,333.7
				c-0.03-0.07-0.03-0.1,0-0.1c0.03-0.1,0.08-0.15,0.15-0.15c0.07-0.03,0.12-0.02,0.15,0.05c0.03,0,0.07,0.03,0.1,0.1l2.95,11.25
				c0.03,0.07,0.03,0.12,0,0.15c-0.03,0.03-0.08,0.07-0.15,0.1c-0.07,0-0.12,0-0.15,0c-0.03-0.03-0.07-0.08-0.1-0.15L465.05,333.7z
				 M461.1,334.6c0.03,0,0.05,0.02,0.05,0.05l3.05,11.4c0,0.03-0.02,0.1-0.05,0.2c-0.07,0-0.13,0.02-0.2,0.05h-0.1
				c-0.07-0.03-0.1-0.07-0.1-0.1l-3.05-11.4c0-0.03,0.03-0.08,0.1-0.15c-0.03-0.07-0.02-0.1,0.05-0.1
				C460.92,334.52,461,334.53,461.1,334.6z M456.3,335.6c0.03,0,0.05,0.02,0.05,0.05l3.05,11.5c0,0.03,0,0.1,0,0.2
				c-0.03,0-0.08,0-0.15,0c-0.07,0.03-0.12,0.05-0.15,0.05c-0.07-0.07-0.1-0.12-0.1-0.15l-3.05-11.5c0-0.03,0.02-0.07,0.05-0.1
				c0-0.03,0.03-0.07,0.1-0.1C456.17,335.55,456.23,335.57,456.3,335.6z M469.55,332.2c0.03,0,0.07,0.03,0.1,0.1l2.95,11.2
				c0,0.07,0,0.13,0,0.2c-0.03,0.03-0.08,0.07-0.15,0.1c-0.07,0-0.12-0.02-0.15-0.05c-0.1,0-0.15-0.03-0.15-0.1l-2.95-11.2
				c-0.03-0.07-0.02-0.13,0.05-0.2c0.03-0.03,0.08-0.05,0.15-0.05C469.47,332.17,469.52,332.17,469.55,332.2z M473.35,330.8
				c0-0.07,0.02-0.12,0.05-0.15c0.03-0.03,0.08-0.05,0.15-0.05c0.03,0,0.08-0.02,0.15-0.05c0.03,0.03,0.05,0.08,0.05,0.15l3,11.3
				c0,0.03,0.02,0.08,0.05,0.15c-0.07,0.07-0.12,0.1-0.15,0.1c-0.07,0-0.12,0-0.15,0c-0.1-0.07-0.15-0.12-0.15-0.15L473.35,330.8z"
				/>
			<path fill-rule="evenodd" clip-rule="evenodd" fill="#FF3E73" fill-opacity="0.3294" d="M465.6,333.45
				c0-0.03,0.02-0.08,0.05-0.15c0-0.07,0.03-0.1,0.1-0.1c0.07-0.03,0.13-0.02,0.2,0.05c0.03,0.03,0.05,0.07,0.05,0.1l3,11.3
				c0,0.03,0,0.08,0,0.15c-0.03,0-0.08,0.02-0.15,0.05c-0.07,0-0.12,0-0.15,0c-0.07-0.03-0.1-0.07-0.1-0.1L465.6,333.45z
				 M452.7,336.35c0.03,0.03,0.05,0.07,0.05,0.1l2.95,11.2c0.03,0.07,0.03,0.12,0,0.15c-0.03,0.07-0.07,0.1-0.1,0.1
				c-0.07,0.03-0.12,0.03-0.15,0c-0.07-0.03-0.12-0.08-0.15-0.15l-2.95-11.2c0-0.03,0.03-0.07,0.1-0.1c0.03-0.03,0.08-0.07,0.15-0.1
				C452.63,336.35,452.67,336.35,452.7,336.35z M461.45,334.5c0-0.1,0.03-0.15,0.1-0.15c0.07-0.03,0.13-0.02,0.2,0.05
				c0.03,0.03,0.05,0.07,0.05,0.1l3,11.35c0.03,0.03,0.03,0.08,0,0.15c-0.03,0.03-0.08,0.07-0.15,0.1c-0.07,0-0.12,0-0.15,0
				c-0.03-0.07-0.07-0.12-0.1-0.15l-3-11.35C461.4,334.57,461.42,334.53,461.45,334.5z M470.2,331.85c0.03,0,0.07,0.03,0.1,0.1
				l2.95,11.2c0,0.03,0,0.08,0,0.15c-0.07,0-0.13,0.02-0.2,0.05c-0.03,0-0.07,0-0.1,0c-0.1-0.03-0.15-0.07-0.15-0.1l-2.95-11.2
				c-0.03-0.07-0.02-0.12,0.05-0.15c0.03-0.07,0.07-0.1,0.1-0.1C470.07,331.77,470.13,331.78,470.2,331.85z M456.8,335.75
				c0-0.07,0.02-0.12,0.05-0.15c0.03-0.03,0.07-0.07,0.1-0.1c0.03,0,0.08,0,0.15,0c0.07,0.03,0.1,0.08,0.1,0.15l3.05,11.45
				c0,0.03-0.02,0.08-0.05,0.15c-0.07,0.03-0.12,0.05-0.15,0.05c-0.03,0.03-0.07,0.05-0.1,0.05c-0.07-0.07-0.1-0.12-0.1-0.15
				L456.8,335.75z M474.5,330.7c0.07,0.03,0.1,0.08,0.1,0.15l2.85,10.75c0,0.03-0.02,0.07-0.05,0.1c0,0.03-0.03,0.07-0.1,0.1
				c-0.07,0.03-0.13,0.03-0.2,0c-0.03-0.03-0.05-0.07-0.05-0.1l-2.85-10.75c0-0.07,0-0.12,0-0.15c0.03-0.03,0.08-0.07,0.15-0.1
				C474.42,330.67,474.47,330.67,474.5,330.7z"/>
		</g>
		<g>
			<path fill-rule="evenodd" clip-rule="evenodd" fill="none" d="M452.65,335.6c6.97-1.1,14.02-2.95,21.15-5.55"/>
			<path fill-rule="evenodd" clip-rule="evenodd" fill="none" d="M460.15,333.15c2.6-0.07,5-0.7,7.2-1.9"/>
			<path fill-rule="evenodd" clip-rule="evenodd" fill="none" d="M448.45,355.1c9.2-1.3,19.22-3.77,30.05-7.4"/>
			<path fill-rule="evenodd" clip-rule="evenodd" fill="none" d="M454.4,353.05c9.93-1.53,18.9-4.03,26.9-7.5"/>
			<path fill-rule="evenodd" clip-rule="evenodd" fill="none" d="M453.55,349c9.97-1.47,18.98-3.95,27.05-7.45"/>
			<path fill-rule="evenodd" clip-rule="evenodd" fill="none" d="M453.8,348.25c8.47-0.93,17.15-3.22,26.05-6.85"/>
		</g>
		<g>
			
				<radialGradient id="SVGID_9_" cx="405.3047" cy="269.6499" r="5.283" gradientTransform="matrix(0.9667 -0.2557 0.2289 0.8653 -48.2475 139.9731)" gradientUnits="userSpaceOnUse">
				<stop  offset="0" style="stop-color:#FFFFFF;stop-opacity:0.4627"/>
				<stop  offset="1" style="stop-color:#FBFBFB;stop-opacity:0"/>
			</radialGradient>
			<path fill-rule="evenodd" clip-rule="evenodd" fill="url(#SVGID_9_)" d="M410.2,268.6c0.1,0,0.18,0.05,0.25,0.15
				c0.07,0.03,0.1,0.12,0.1,0.25c-0.03,0.1-0.1,0.18-0.2,0.25c-0.1,0.1-0.22,0.15-0.35,0.15c-3.97-0.4-7.07,0.02-9.3,1.25
				c-0.07,0.07-0.18,0.08-0.35,0.05c-0.07-0.03-0.13-0.1-0.2-0.2c-0.1-0.1-0.12-0.2-0.05-0.3c0.03-0.1,0.12-0.18,0.25-0.25
				C402.65,268.62,405.93,268.17,410.2,268.6z"/>
			
				<radialGradient id="SVGID_10_" cx="419.6504" cy="278.1001" r="10.4088" gradientTransform="matrix(0.9668 -0.2555 0.2285 0.8646 -49.6086 144.8704)" gradientUnits="userSpaceOnUse">
				<stop  offset="0" style="stop-color:#FFFFFF;stop-opacity:0.4314"/>
				<stop  offset="1" style="stop-color:#FBFBFB;stop-opacity:0"/>
			</radialGradient>
			<path fill-rule="evenodd" clip-rule="evenodd" fill="url(#SVGID_10_)" d="M411.7,273.75c-0.1-0.03-0.18-0.1-0.25-0.2
				c-0.07-0.1-0.07-0.2,0-0.3c0.07-0.13,0.13-0.23,0.2-0.3c0.07,0,0.18,0.02,0.35,0.05c6.87,2.07,12.9,6.13,18.1,12.2
				c0.03,0.1,0.05,0.2,0.05,0.3c0.03,0.07-0.02,0.15-0.15,0.25c-0.07,0.07-0.15,0.12-0.25,0.15c-0.13-0.03-0.25-0.1-0.35-0.2
				C424.33,279.7,418.43,275.72,411.7,273.75z"/>
			
				<radialGradient id="SVGID_11_" cx="445.5996" cy="303.7002" r="35.8772" gradientTransform="matrix(0.9668 -0.2554 0.2282 0.8641 -54.5363 155.0797)" gradientUnits="userSpaceOnUse">
				<stop  offset="0" style="stop-color:#FFFFFF;stop-opacity:0.498"/>
				<stop  offset="1" style="stop-color:#FBFBFB;stop-opacity:0"/>
			</radialGradient>
			<path fill-rule="evenodd" clip-rule="evenodd" fill="url(#SVGID_11_)" d="M427.5,278.1c0.1,0,0.2,0.03,0.3,0.1
				c11,10.67,20.97,24,29.9,40c2.1,3.83,4.15,7.83,6.15,12c0.03,0.07,0.03,0.17,0,0.3c-0.03,0.07-0.12,0.13-0.25,0.2
				c-0.1,0.07-0.2,0.08-0.3,0.05c-0.1-0.07-0.18-0.13-0.25-0.2c-2.03-4.13-4.08-8.13-6.15-12c-8.9-15.93-18.83-29.18-29.8-39.75
				c-0.07-0.1-0.1-0.22-0.1-0.35s0.07-0.23,0.2-0.3C427.27,278.08,427.37,278.07,427.5,278.1z"/>
			
				<radialGradient id="SVGID_12_" cx="383.75" cy="291.4248" r="18.7754" gradientTransform="matrix(0.9669 -0.2552 0.2282 0.8644 -53.7886 137.456)" gradientUnits="userSpaceOnUse">
				<stop  offset="0" style="stop-color:#FFFFFF;stop-opacity:0.5765"/>
				<stop  offset="1" style="stop-color:#FBFBFB;stop-opacity:0"/>
			</radialGradient>
			<path fill-rule="evenodd" clip-rule="evenodd" fill="url(#SVGID_12_)" d="M392.1,275.95c0.17,0,0.28,0.03,0.35,0.1
				c0.1,0.1,0.15,0.2,0.15,0.3s-0.03,0.18-0.1,0.25c-3.2,3.23-6.5,8.17-9.9,14.8c-2.27,4.37-4.53,9.43-6.8,15.2
				c-0.07,0.1-0.17,0.18-0.3,0.25c-0.03,0.07-0.12,0.07-0.25,0c-0.1-0.03-0.18-0.08-0.25-0.15c-0.07-0.07-0.07-0.17,0-0.3
				c2.33-5.83,4.6-10.93,6.8-15.3c3.4-6.73,6.75-11.73,10.05-15C391.92,276,392,275.95,392.1,275.95z"/>
		</g>
		
			<radialGradient id="SVGID_13_" cx="65.8999" cy="17.5752" r="22.9142" gradientTransform="matrix(0.2764 -0.073 0.4645 1.759 475.5994 376.75)" gradientUnits="userSpaceOnUse">
			<stop  offset="0" style="stop-color:#FFFFFF;stop-opacity:0.3647"/>
			<stop  offset="0.4078" style="stop-color:#FFFFFF;stop-opacity:0.2706"/>
			<stop  offset="1" style="stop-color:#FFFFFF;stop-opacity:0"/>
		</radialGradient>
		<path fill-rule="evenodd" clip-rule="evenodd" fill="url(#SVGID_13_)" d="M512.39,442.3c-1.51,0.4-3.83-3.13-6.96-10.58
			c-3.11-7.4-6.09-16.52-8.96-27.37c-2.86-10.85-4.78-20.28-5.75-28.31c-0.96-8.03-0.68-12.24,0.83-12.64
			c1.52-0.4,3.84,3.13,6.96,10.58c3.12,7.46,6.11,16.61,8.98,27.45c2.86,10.85,4.77,20.25,5.72,28.22
			C514.19,437.69,513.91,441.9,512.39,442.3z"/>
		
			<radialGradient id="SVGID_14_" cx="65.9004" cy="17.5752" r="22.914" gradientTransform="matrix(0.2107 -0.0556 0.6232 2.36 442.0002 380.75)" gradientUnits="userSpaceOnUse">
			<stop  offset="0" style="stop-color:#FFFFFF;stop-opacity:0.3647"/>
			<stop  offset="0.3412" style="stop-color:#FFFFFF;stop-opacity:0.1569"/>
			<stop  offset="0.7451" style="stop-color:#FFFFFF;stop-opacity:0.0627"/>
			<stop  offset="1" style="stop-color:#FFFFFF;stop-opacity:0"/>
		</radialGradient>
		<path fill-rule="evenodd" clip-rule="evenodd" fill="url(#SVGID_14_)" d="M480.81,471.48c-1.15,0.3-3.51-4.63-7.08-14.79
			c-3.54-10.09-7.24-22.41-11.08-36.96c-3.84-14.55-6.72-27.13-8.65-37.73c-1.91-10.6-2.29-16.06-1.14-16.36
			c1.16-0.31,3.52,4.63,7.08,14.79c3.56,10.17,7.27,22.53,11.11,37.08c3.84,14.55,6.71,27.09,8.61,37.61
			C481.59,465.72,481.97,471.18,480.81,471.48z"/>
		
			<radialGradient id="SVGID_15_" cx="65.8975" cy="17.5747" r="22.9157" gradientTransform="matrix(0.0261 0.0988 -0.7165 0.1892 480.7499 343.7501)" gradientUnits="userSpaceOnUse">
			<stop  offset="0" style="stop-color:#FFFFFF;stop-opacity:0.498"/>
			<stop  offset="0.4078" style="stop-color:#FFFFFF;stop-opacity:0.2706"/>
			<stop  offset="1" style="stop-color:#FFFFFF;stop-opacity:0"/>
		</radialGradient>
		<path fill-rule="evenodd" clip-rule="evenodd" fill="url(#SVGID_15_)" d="M453.81,357.83c-0.14-0.54,1.31-1.42,4.36-2.64
			c3.03-1.21,6.75-2.4,11.17-3.57c4.42-1.17,8.26-1.97,11.51-2.42c3.26-0.44,4.96-0.4,5.1,0.14c0.14,0.54-1.31,1.42-4.36,2.64
			c-3.05,1.22-6.79,2.41-11.2,3.58c-4.42,1.17-8.24,1.97-11.47,2.41C455.65,358.42,453.95,358.37,453.81,357.83z"/>
		
			<radialGradient id="SVGID_16_" cx="65.9023" cy="17.5762" r="22.9124" gradientTransform="matrix(0.2995 0.1373 -0.2225 0.3909 433.3495 347.9502)" gradientUnits="userSpaceOnUse">
			<stop  offset="0" style="stop-color:#FFFFFF;stop-opacity:0.251"/>
			<stop  offset="0.5333" style="stop-color:#FFFFFF;stop-opacity:0.0471"/>
			<stop  offset="0.7451" style="stop-color:#FFFFFF;stop-opacity:0.0275"/>
			<stop  offset="1" style="stop-color:#FFFFFF;stop-opacity:0"/>
		</radialGradient>
		<path fill-rule="evenodd" clip-rule="evenodd" fill="url(#SVGID_16_)" d="M444.18,372.63c-1.64-0.75-2.55-2.26-2.75-4.52
			c-0.2-2.24,0.39-4.57,1.76-6.98c1.37-2.41,3.13-4.21,5.28-5.39c2.16-1.18,4.05-1.39,5.69-0.64c1.65,0.75,2.56,2.26,2.75,4.52
			c0.19,2.26-0.4,4.59-1.78,7s-3.13,4.2-5.27,5.37C447.73,373.17,445.83,373.39,444.18,372.63z"/>
		
			<radialGradient id="SVGID_17_" cx="65.9014" cy="17.5742" r="22.914" gradientTransform="matrix(-0.1494 0.2877 -0.4322 -0.1559 509.9003 337)" gradientUnits="userSpaceOnUse">
			<stop  offset="0" style="stop-color:#FFFFFF;stop-opacity:0.251"/>
			<stop  offset="0.5333" style="stop-color:#FFFFFF;stop-opacity:0.0471"/>
			<stop  offset="0.7451" style="stop-color:#FFFFFF;stop-opacity:0.0275"/>
			<stop  offset="1" style="stop-color:#FFFFFF;stop-opacity:0"/>
		</radialGradient>
		<path fill-rule="evenodd" clip-rule="evenodd" fill="url(#SVGID_17_)" d="M482.77,349.72c0.82-1.57,2.47-2.58,4.96-3.03
			c2.47-0.44,5.04-0.18,7.7,0.78s4.66,2.35,5.98,4.15c1.31,1.82,1.56,3.51,0.75,5.08c-0.82,1.58-2.48,2.59-4.96,3.03
			c-2.48,0.44-5.06,0.17-7.72-0.79c-2.67-0.96-4.65-2.34-5.95-4.15C482.19,353,481.94,351.3,482.77,349.72z"/>
		<g>
			<path fill-rule="evenodd" clip-rule="evenodd" fill="#FFFFFF" d="M449,399.15c19.2-3.93,39.28-9.23,60.25-15.9L517,412.6
				c-19.17,7.7-39.2,13.18-60.1,16.45L449,399.15z"/>
		</g>
		<g>
			<path fill-rule="evenodd" clip-rule="evenodd" d="M489.35,395.35l1.35,5.2l3.55-1.1l0.3,1.1l-4.95,1.55l-1.65-6.3L489.35,395.35z
				 M495.95,395.75l3.55-1.1l0.3,1.05l-3.55,1.2l0.45,1.7l3.95-1.3l0.3,1.1l-5.35,1.8l-1.7-6.4l5.2-1.8l0.3,1.15l-3.8,1.2
				L495.95,395.75z M504.7,391.65c-0.23-0.13-0.48-0.17-0.75-0.1c-0.2,0.03-0.58,0.13-1.15,0.3l-0.7,0.3l1.15,4.25l1.05-0.45
				c0.37-0.1,0.63-0.22,0.8-0.35c0.23-0.13,0.43-0.32,0.6-0.55c0.07-0.13,0.12-0.33,0.15-0.6c0.03-0.37-0.02-0.8-0.15-1.3
				c-0.13-0.5-0.3-0.85-0.5-1.05C505.03,391.83,504.87,391.68,504.7,391.65z M505.6,390.45c0.37,0.2,0.68,0.47,0.95,0.8
				c0.23,0.37,0.43,0.85,0.6,1.45c0.13,0.53,0.18,1,0.15,1.4c-0.03,0.53-0.18,1.02-0.45,1.45c-0.2,0.27-0.48,0.53-0.85,0.8
				c-0.3,0.23-0.68,0.45-1.15,0.65l-2.75,0.95l-1.7-6.4l2.65-0.95c0.57-0.17,1.02-0.28,1.35-0.35
				C504.83,390.22,505.23,390.28,505.6,390.45z M500.9,404.5c0.33,0,0.67,0.12,1,0.35c0.27,0.2,0.45,0.5,0.55,0.9
				c0.13,0.47,0.08,0.9-0.15,1.3c-0.27,0.43-0.68,0.8-1.25,1.1c0.37,0.07,0.67,0.17,0.9,0.3c0.27,0.1,0.63,0.35,1.1,0.75l1.15,0.9
				l-1.65,0.6l-1.4-1c-0.5-0.37-0.83-0.6-1-0.7c-0.17-0.1-0.33-0.13-0.5-0.1c-0.17-0.03-0.4,0.02-0.7,0.15l-0.3,0.1l0.7,2.65
				l-1.35,0.5l-1.7-6.35l3-1.05C500,404.63,500.53,404.5,500.9,404.5z M498.4,408.15l1-0.35c0.7-0.23,1.12-0.4,1.25-0.5
				c0.17-0.1,0.3-0.25,0.4-0.45c0.03-0.17,0.02-0.33-0.05-0.5c-0.07-0.23-0.15-0.38-0.25-0.45c-0.23-0.1-0.45-0.13-0.65-0.1
				c-0.17,0.03-0.53,0.15-1.1,0.35l-1.05,0.35L498.4,408.15z M488.55,402.4l-5,1.45l-1.65-6.3l1.45-0.4l1.35,5.2l3.55-1
				L488.55,402.4z M494.9,406.25l0.3,1.1l-3.9,1.2l0.4,1.4l3.55-1.1l0.3,1.05l-3.6,1.1l0.45,1.75l4.05-1.25l0.3,1.1l-5.45,1.65
				l-1.7-6.4L494.9,406.25z M486.9,409.85l1.4,5.3l-1.45,0.45l-1.4-5.3l-2.15,0.55l-0.25-1.1l5.65-1.6l0.3,1.1L486.9,409.85z
				 M480.4,397.9l1.7,6.35l-1.45,0.35l-1.7-6.35L480.4,397.9z M478.35,399.55l-2.1,0.55l1.4,5.3l-1.45,0.4l-1.4-5.3l-2.1,0.55
				l-0.3-1.05l5.65-1.5L478.35,399.55z M471.9,401.85l-1.4,0.45c-0.13-0.3-0.33-0.52-0.6-0.65c-0.23-0.1-0.57-0.1-1,0
				c-0.4,0.13-0.68,0.3-0.85,0.5c-0.17,0.17-0.22,0.33-0.15,0.5c0.03,0.17,0.15,0.25,0.35,0.25c0.23,0.13,0.7,0.18,1.4,0.15
				c0.73-0.03,1.3-0.02,1.7,0.05c0.37,0.1,0.68,0.23,0.95,0.4c0.23,0.27,0.4,0.6,0.5,1c0.1,0.37,0.1,0.73,0,1.1
				c-0.17,0.4-0.43,0.7-0.8,0.9c-0.37,0.3-0.85,0.53-1.45,0.7c-0.93,0.23-1.68,0.23-2.25,0c-0.6-0.23-1.03-0.7-1.3-1.4l1.3-0.5
				c0.23,0.37,0.5,0.63,0.8,0.8c0.33,0.13,0.72,0.15,1.15,0.05c0.5-0.13,0.8-0.33,0.9-0.6c0.23-0.23,0.32-0.47,0.25-0.7
				c-0.03-0.13-0.12-0.23-0.25-0.3c-0.13-0.1-0.32-0.17-0.55-0.2c-0.2,0-0.63,0.02-1.3,0.05c-0.8,0.03-1.38-0.03-1.75-0.2
				c-0.53-0.23-0.87-0.6-1-1.1c-0.07-0.33-0.05-0.68,0.05-1.05c0.13-0.3,0.38-0.58,0.75-0.85c0.37-0.27,0.82-0.47,1.35-0.6
				c0.9-0.23,1.62-0.23,2.15,0C471.38,400.83,471.73,401.25,471.9,401.85z M475.55,411.6l0.05,6.8l-1.55,0.45l-2.75-4.55l-0.2,5.15
				l-1.55,0.35l-3.45-6l1.5-0.35l2.25,4.1L470,413l1.7-0.45l2.45,4.15l-0.05-4.7L475.55,411.6z M479.9,410.55l4.55,5.65l-1.55,0.45
				l-0.95-1.3l-2.9,0.7l-0.2,1.6l-1.55,0.4l1.05-7.1L479.9,410.55z M479.55,412.25l-0.3,2.65l1.95-0.55L479.55,412.25z M464.8,401.7
				l1.7,6.35l-1.5,0.3l-1.7-6.4L464.8,401.7z M459.95,408.1c0.47-0.07,0.78-0.15,0.95-0.25c0.17-0.03,0.33-0.15,0.5-0.35
				c0.1-0.13,0.17-0.35,0.2-0.65c0.07-0.37,0.03-0.78-0.1-1.25c-0.13-0.5-0.3-0.85-0.5-1.05c-0.17-0.27-0.35-0.47-0.55-0.6
				c-0.23-0.1-0.48-0.15-0.75-0.15c-0.23-0.03-0.65,0.02-1.25,0.15l-0.65,0.15l1.1,4.2L459.95,408.1z M458.75,402.8
				c0.57-0.13,1.02-0.2,1.35-0.2c0.5,0.07,0.92,0.2,1.25,0.4c0.4,0.23,0.75,0.55,1.05,0.95c0.23,0.37,0.43,0.87,0.6,1.5
				c0.13,0.5,0.18,0.97,0.15,1.4c-0.1,0.43-0.27,0.85-0.5,1.25c-0.2,0.23-0.5,0.45-0.9,0.65c-0.3,0.2-0.72,0.35-1.25,0.45l-2.8,0.45
				l-1.7-6.4L458.75,402.8z"/>
		</g>
	</g>
</g>
</svg>
