<?xml version="1.0" encoding="utf-8"?>
<!-- Generator: Adobe Illustrator 16.0.0, SVG Export Plug-In . SVG Version: 6.00 Build 0)  -->
<!DOCTYPE svg PUBLIC "-//W3C//DTD SVG 1.1//EN" "http://www.w3.org/Graphics/SVG/1.1/DTD/svg11.dtd">
<svg version="1.1" id="Layer_1" xmlns="http://www.w3.org/2000/svg" xmlns:xlink="http://www.w3.org/1999/xlink" x="0px" y="0px"
	 width="700px" height="700px" viewBox="0 0 700 700" enable-background="new 0 0 700 700" xml:space="preserve">
<g>
	<path fill-rule="evenodd" clip-rule="evenodd" fill="#FFFFFF" fill-opacity="0.298" d="M651.4,639.95c-12.4,2-24.68,2-36.85,0
		c-9.63-1.83-14.38-5.38-14.25-10.65v-72.95h64.5v73.3C664.2,634.78,659.73,638.22,651.4,639.95z"/>
</g>
<g>
	<rect x="600.35" y="555.65" fill-rule="evenodd" clip-rule="evenodd" fill="#FFFFFF" width="64.5" height="0.7"/>
</g>
<g>
	<g>
		<linearGradient id="SVGID_1_" gradientUnits="userSpaceOnUse" x1="607.7998" y1="583.2871" x2="658.75" y2="583.2871">
			<stop  offset="7.843138e-003" style="stop-color:#000000;stop-opacity:0"/>
			<stop  offset="0.2863" style="stop-color:#000000;stop-opacity:0.0431"/>
			<stop  offset="0.5647" style="stop-color:#000000;stop-opacity:0.0627"/>
			<stop  offset="0.8353" style="stop-color:#000000;stop-opacity:0"/>
			<stop  offset="1" style="stop-color:#000000;stop-opacity:0"/>
		</linearGradient>
		<path fill-rule="evenodd" clip-rule="evenodd" fill="url(#SVGID_1_)" d="M658.75,637.6c-17.47,5.43-34.45,5.43-50.95,0V524.9
			h50.95V637.6z"/>
	</g>
	<g>
		<linearGradient id="SVGID_2_" gradientUnits="userSpaceOnUse" x1="630.3877" y1="582.0879" x2="635.7127" y2="582.0879">
			<stop  offset="0" style="stop-color:#FFFFFF;stop-opacity:0.1294"/>
			<stop  offset="0.5098" style="stop-color:#FFFFFF"/>
			<stop  offset="1" style="stop-color:#FFFFFF;stop-opacity:0.3922"/>
		</linearGradient>
		<path fill-rule="evenodd" clip-rule="evenodd" fill="url(#SVGID_2_)" d="M635.95,525.3v112.75c-1.9,1.1-3.8,1.1-5.7,0V525.3
			H635.95z"/>
	</g>
	<g>
		<linearGradient id="SVGID_3_" gradientUnits="userSpaceOnUse" x1="610.9004" y1="520.3828" x2="652.9004" y2="520.3828">
			<stop  offset="0" style="stop-color:#BAC1D1;stop-opacity:0.8431"/>
			<stop  offset="0.2078" style="stop-color:#AFB8C8;stop-opacity:0.5922"/>
			<stop  offset="0.4745" style="stop-color:#A5B0C0;stop-opacity:0.3176"/>
			<stop  offset="0.8039" style="stop-color:#B2BACA;stop-opacity:0.6275"/>
			<stop  offset="0.8784" style="stop-color:#B5BCCC;stop-opacity:0.5922"/>
			<stop  offset="1" style="stop-color:#BAC1D1;stop-opacity:0.8"/>
		</linearGradient>
		<path fill-rule="evenodd" clip-rule="evenodd" fill="url(#SVGID_3_)" d="M650.6,521.1c-5.67,0.87-11.45,1.35-17.35,1.45
			c-3.03,0.03-5.98,0.02-8.85-0.05c-2.7-0.13-5.15-0.32-7.35-0.55c-1.53-0.17-2.77-0.33-3.7-0.5c-1.63-0.3-2.45-0.67-2.45-1.1
			c0-0.33,0.82-0.67,2.45-1c0.93-0.17,2.17-0.33,3.7-0.5c4.13-0.43,9.1-0.65,14.9-0.65s10.73,0.22,14.8,0.65
			c4.13,0.43,6.2,0.88,6.2,1.35C652.95,520.5,652.17,520.8,650.6,521.1z"/>
	</g>
	<g>
		<linearGradient id="SVGID_4_" gradientUnits="userSpaceOnUse" x1="618.2393" y1="509.957" x2="646.5498" y2="509.957">
			<stop  offset="0" style="stop-color:#7E0127"/>
			<stop  offset="0.2392" style="stop-color:#98012A"/>
			<stop  offset="0.4941" style="stop-color:#A0002B"/>
			<stop  offset="0.7686" style="stop-color:#810328"/>
			<stop  offset="1" style="stop-color:#4A0218"/>
		</linearGradient>
		<path fill-rule="evenodd" clip-rule="evenodd" fill="url(#SVGID_4_)" d="M646.55,505.2v0.25V516c-0.2,0.73-1.2,1.15-3,1.25
			c-7.67,0.7-15.27,0.68-22.8-0.05c-1.93-0.27-2.75-0.77-2.45-1.5v-10.25v-0.05c0.13-2.1,1.65-3.18,4.55-3.25c0.1,0,0.25,0,0.45,0
			h19.1C644.8,502.22,646.18,503.23,646.55,505.2z"/>
	</g>
	<g>
		<linearGradient id="SVGID_5_" gradientUnits="userSpaceOnUse" x1="617.4053" y1="518.2754" x2="647.2552" y2="518.2754">
			<stop  offset="0" style="stop-color:#C6B3B0"/>
			<stop  offset="0.4784" style="stop-color:#DBCFCD"/>
			<stop  offset="1" style="stop-color:#A28380"/>
		</linearGradient>
		<path fill-rule="evenodd" clip-rule="evenodd" fill="url(#SVGID_5_)" d="M647.35,518.2c-0.13,1.23-0.38,1.9-0.75,2
			c-9.77,1-19.28,1-28.55,0c-0.17-0.3-0.35-0.83-0.55-1.6c-0.23-1-0.03-2,0.6-3c9.37,1.17,18.73,1.17,28.1,0
			C647.07,516.1,647.45,516.97,647.35,518.2z"/>
	</g>
	<g>
		<linearGradient id="SVGID_6_" gradientUnits="userSpaceOnUse" x1="625.0371" y1="502.3623" x2="640.1621" y2="502.3623">
			<stop  offset="0" style="stop-color:#A1002C"/>
			<stop  offset="1" style="stop-color:#4B0117"/>
		</linearGradient>
		<path fill-rule="evenodd" clip-rule="evenodd" fill="url(#SVGID_6_)" d="M640.7,502.9c-2.23,0.17-4.93,0.25-8.1,0.25
			c-3.17,0-5.88-0.08-8.15-0.25c-2.23-0.13-3.35-0.28-3.35-0.45c0-0.03,0.28-0.12,0.85-0.25c7.1-0.83,14.2-0.83,21.3,0
			c0.53,0.13,0.8,0.22,0.8,0.25C644.05,502.62,642.93,502.77,640.7,502.9z"/>
	</g>
	<g>
		<linearGradient id="SVGID_7_" gradientUnits="userSpaceOnUse" x1="600.3467" y1="580.9248" x2="664.8496" y2="580.9248">
			<stop  offset="0" style="stop-color:#BAC1D1;stop-opacity:0.8431"/>
			<stop  offset="0.2078" style="stop-color:#AFB8C8;stop-opacity:0.5922"/>
			<stop  offset="0.4745" style="stop-color:#A5B0C0;stop-opacity:0.3176"/>
			<stop  offset="0.8039" style="stop-color:#B2BACA;stop-opacity:0.6275"/>
			<stop  offset="0.8784" style="stop-color:#B5BCCC;stop-opacity:0.5922"/>
			<stop  offset="1" style="stop-color:#BAC1D1;stop-opacity:0.8"/>
		</linearGradient>
		<path fill-rule="evenodd" clip-rule="evenodd" fill="url(#SVGID_7_)" d="M664.85,530.9v0.55v11.5v86.75
			c-0.6,5.13-5.07,8.57-13.4,10.3c-12.4,2-24.68,2-36.85,0c-9.63-1.83-14.38-5.38-14.25-10.65v-97.9c0.6-2.3,1.77-4.47,3.5-6.5
			c0.33-0.37,0.67-0.72,1-1.05c1.83-1.9,3.92-3.08,6.25-3.55c13.63,1.73,27.27,1.73,40.9,0h0.2c3.13,0.4,5.83,1.58,8.1,3.55
			c0.3,0.2,0.6,0.45,0.9,0.75C663.2,526.62,664.42,528.7,664.85,530.9z"/>
		
			<radialGradient id="SVGID_8_" cx="619.7998" cy="481.0498" r="29.3" gradientTransform="matrix(1 0 0 0.8622 0 66.288)" gradientUnits="userSpaceOnUse">
			<stop  offset="0" style="stop-color:#A0002B"/>
			<stop  offset="0.6" style="stop-color:#75021F"/>
			<stop  offset="0.9804" style="stop-color:#980E2F"/>
		</radialGradient>
		<path fill-rule="evenodd" clip-rule="evenodd" fill="url(#SVGID_8_)" d="M559.4,455.45c-2.63,1.43-5.08,1.3-7.35-0.4
			c4.17-6.03,8.23-11.15,12.2-15.35c30.4-32.53,54.18-11.73,71.35,62.4v0.25c-2.47,0.3-4.95,0.27-7.45-0.1v-0.15v-0.45
			c-14.97-70.6-36.27-88.2-63.9-52.8C562.65,450.88,561.03,453.08,559.4,455.45z"/>
	</g>
	<g>
		<path fill-rule="evenodd" clip-rule="evenodd" fill="#770021" d="M638.15,503.75c0.07,0,0.12,0.02,0.15,0.05s0.05,0.08,0.05,0.15
			v11.6c0,0.07-0.02,0.12-0.05,0.15s-0.08,0.05-0.15,0.05c-0.07,0-0.12-0.02-0.15-0.05c-0.07-0.03-0.1-0.08-0.1-0.15v-11.6
			c0-0.07,0.03-0.12,0.1-0.15C638.03,503.77,638.08,503.75,638.15,503.75z M642.6,503.25c0.03,0,0.08,0.02,0.15,0.05
			c0.03,0.03,0.05,0.08,0.05,0.15v11.7c0,0.03-0.02,0.08-0.05,0.15c-0.07,0.03-0.12,0.05-0.15,0.05c-0.07,0-0.12-0.02-0.15-0.05
			c-0.07-0.07-0.1-0.12-0.1-0.15v-11.7c0-0.07,0.03-0.12,0.1-0.15C642.48,503.27,642.53,503.25,642.6,503.25z M629.2,503.95
			c0-0.07,0.03-0.1,0.1-0.1s0.13,0.03,0.2,0.1c0.03,0.03,0.05,0.07,0.05,0.1v11.8c0,0.03-0.02,0.08-0.05,0.15c-0.07,0-0.13,0-0.2,0
			h-0.1c-0.07-0.07-0.1-0.12-0.1-0.15v-11.8C629.1,504.02,629.13,503.98,629.2,503.95z M633.6,504c0.03-0.07,0.08-0.1,0.15-0.1
			s0.12,0.03,0.15,0.1c0.03,0,0.05,0.03,0.05,0.1v11.65c0,0.07-0.02,0.12-0.05,0.15c-0.03,0.03-0.08,0.05-0.15,0.05
			s-0.12-0.02-0.15-0.05c-0.03-0.03-0.05-0.08-0.05-0.15V504.1C633.55,504.03,633.57,504,633.6,504z M619.95,503.25
			c0.03-0.07,0.08-0.1,0.15-0.1c0.07,0,0.12,0.03,0.15,0.1c0.03,0.03,0.05,0.07,0.05,0.1v11.4c0,0.07-0.02,0.12-0.05,0.15
			c-0.03,0.03-0.08,0.05-0.15,0.05c-0.07,0-0.12-0.02-0.15-0.05c-0.03-0.03-0.05-0.08-0.05-0.15v-11.4
			C619.9,503.32,619.92,503.28,619.95,503.25z M624.3,503.7c0.03-0.03,0.08-0.05,0.15-0.05s0.12,0.02,0.15,0.05
			c0.03,0.03,0.05,0.07,0.05,0.1v11.9c0,0.03-0.02,0.08-0.05,0.15c-0.03,0-0.08,0-0.15,0s-0.12,0-0.15,0
			c-0.03-0.07-0.05-0.12-0.05-0.15v-11.9C624.25,503.77,624.27,503.73,624.3,503.7z"/>
		<path fill-rule="evenodd" clip-rule="evenodd" fill="#FF3E73" fill-opacity="0.3294" d="M643.5,503.65
			c0.03,0.03,0.05,0.08,0.05,0.15v11.1c0,0.07-0.02,0.12-0.05,0.15s-0.08,0.05-0.15,0.05c-0.07,0-0.12-0.02-0.15-0.05
			s-0.05-0.08-0.05-0.15v-11.1c0-0.07,0.02-0.12,0.05-0.15c0.03-0.03,0.08-0.05,0.15-0.05C643.42,503.6,643.47,503.62,643.5,503.65z
			 M638.65,503.75c0-0.07,0.03-0.1,0.1-0.1c0.03-0.07,0.07-0.1,0.1-0.1c0.07,0,0.13,0.03,0.2,0.1c0.03,0,0.05,0.03,0.05,0.1v11.6
			c0,0.03-0.02,0.08-0.05,0.15c-0.07,0-0.13,0-0.2,0c-0.03,0-0.07,0-0.1,0c-0.07-0.07-0.1-0.12-0.1-0.15V503.75z M630.2,503.95
			c0.03,0.03,0.05,0.07,0.05,0.1v11.75c0,0.03-0.02,0.08-0.05,0.15c-0.03,0.03-0.08,0.05-0.15,0.05s-0.12-0.02-0.15-0.05
			c-0.03-0.07-0.05-0.12-0.05-0.15v-11.75c0-0.03,0.02-0.07,0.05-0.1c0.03-0.07,0.08-0.1,0.15-0.1S630.17,503.88,630.2,503.95z
			 M634.4,503.8c0.07,0,0.12,0.03,0.15,0.1c0.03,0.03,0.05,0.07,0.05,0.1v11.7c0,0.03-0.02,0.08-0.05,0.15c-0.03,0-0.08,0-0.15,0
			c-0.07,0-0.12,0-0.15,0c-0.03-0.07-0.05-0.12-0.05-0.15V504c0-0.03,0.02-0.07,0.05-0.1C634.28,503.83,634.33,503.8,634.4,503.8z
			 M625.15,503.85c0.03-0.03,0.07-0.05,0.1-0.05c0.07,0,0.13,0.02,0.2,0.05c0.03,0.03,0.05,0.08,0.05,0.15v11.85
			c0,0.03-0.02,0.08-0.05,0.15c-0.07,0-0.13,0-0.2,0c-0.03,0-0.07,0-0.1,0c-0.07-0.07-0.1-0.12-0.1-0.15V504
			C625.05,503.93,625.08,503.88,625.15,503.85z M620.65,503.55c0.03-0.03,0.08-0.05,0.15-0.05c0.03,0,0.08,0.02,0.15,0.05
			c0.03,0.03,0.05,0.07,0.05,0.1v11.6c0,0.07-0.02,0.12-0.05,0.15c-0.07,0.03-0.12,0.05-0.15,0.05c-0.07,0-0.12-0.02-0.15-0.05
			c-0.07-0.03-0.1-0.08-0.1-0.15v-11.6C620.55,503.62,620.58,503.58,620.65,503.55z"/>
	</g>
	<g>
		<path fill-rule="evenodd" clip-rule="evenodd" fill="none" d="M621.1,502.8c7.03,0.7,14.33,0.7,21.9,0"/>
		<path fill-rule="evenodd" clip-rule="evenodd" fill="none" d="M628.95,502.35c2.57,0.57,5.05,0.57,7.45,0"/>
		<path fill-rule="evenodd" clip-rule="evenodd" fill="none" d="M618.95,515.35c8.47,1.23,17.47,1.23,27,0"/>
		<path fill-rule="evenodd" clip-rule="evenodd" fill="none" d="M612.05,520.55c9.23,1.1,19.57,1.28,31,0.55"/>
		<path fill-rule="evenodd" clip-rule="evenodd" fill="none" d="M618.35,520.1c10,1.07,19.32,0.95,27.95-0.35"/>
		<path fill-rule="evenodd" clip-rule="evenodd" fill="none" d="M618.55,516c10,1.1,19.35,1,28.05-0.3"/>
	</g>
	<g>
		
			<radialGradient id="SVGID_9_" cx="622.4502" cy="470.0996" r="35.9125" gradientTransform="matrix(1 0 0 0.8938 0 49.9062)" gradientUnits="userSpaceOnUse">
			<stop  offset="0" style="stop-color:#FFFFFF;stop-opacity:0.498"/>
			<stop  offset="1" style="stop-color:#FBFBFB;stop-opacity:0"/>
		</radialGradient>
		<path fill-rule="evenodd" clip-rule="evenodd" fill="url(#SVGID_9_)" d="M610.9,441.25c-0.03-0.1-0.03-0.22,0-0.35
			c0.03-0.1,0.12-0.17,0.25-0.2c0.07-0.07,0.17-0.07,0.3,0c0.1,0.03,0.18,0.1,0.25,0.2c7.93,13.1,14.17,28.55,18.7,46.35
			c1.07,4.23,2.03,8.63,2.9,13.2c0.03,0.07,0.02,0.15-0.05,0.25c-0.07,0.07-0.17,0.12-0.3,0.15c-0.1,0.03-0.2,0.02-0.3-0.05
			c-0.1-0.07-0.17-0.15-0.2-0.25c-0.9-4.5-1.87-8.88-2.9-13.15C625.02,469.67,618.8,454.28,610.9,441.25z"/>
		
			<radialGradient id="SVGID_10_" cx="565.7012" cy="442.4082" r="18.8184" gradientTransform="matrix(1 0 0 0.8938 0 47.0022)" gradientUnits="userSpaceOnUse">
			<stop  offset="0" style="stop-color:#FFFFFF;stop-opacity:0.5765"/>
			<stop  offset="1" style="stop-color:#FBFBFB;stop-opacity:0"/>
		</radialGradient>
		<path fill-rule="evenodd" clip-rule="evenodd" fill="url(#SVGID_10_)" d="M577.45,429.65c0.1-0.07,0.2-0.1,0.3-0.1
			c0.13,0.03,0.23,0.1,0.3,0.2s0.08,0.2,0.05,0.3c-0.03,0.1-0.08,0.18-0.15,0.25c-3.93,2.3-8.38,6.23-13.35,11.8
			c-3.3,3.63-6.8,7.97-10.5,13c-0.07,0.07-0.17,0.12-0.3,0.15c-0.1,0.03-0.2,0.02-0.3-0.05s-0.17-0.15-0.2-0.25
			c-0.03-0.1,0-0.2,0.1-0.3c3.73-5.03,7.23-9.38,10.5-13.05C568.93,435.93,573.45,431.95,577.45,429.65z"/>
		
			<radialGradient id="SVGID_11_" cx="592.0996" cy="426.8496" r="5.3" gradientTransform="matrix(1 0 0 0.8939 0 45.3024)" gradientUnits="userSpaceOnUse">
			<stop  offset="0" style="stop-color:#FFFFFF;stop-opacity:0.4627"/>
			<stop  offset="1" style="stop-color:#FBFBFB;stop-opacity:0"/>
		</radialGradient>
		<path fill-rule="evenodd" clip-rule="evenodd" fill="url(#SVGID_11_)" d="M586.95,426.05c0.03-0.07,0.12-0.12,0.25-0.15
			c2.6-0.7,5.9-0.32,9.9,1.15c0.1,0.03,0.17,0.1,0.2,0.2c0.07,0.1,0.08,0.2,0.05,0.3c-0.07,0.1-0.15,0.17-0.25,0.2
			c-0.13,0.07-0.25,0.08-0.35,0.05c-3.77-1.4-6.88-1.78-9.35-1.15c-0.1,0.03-0.22,0.02-0.35-0.05c-0.07-0.07-0.12-0.15-0.15-0.25
			C586.83,426.25,586.85,426.15,586.95,426.05z"/>
		
			<radialGradient id="SVGID_12_" cx="603.8496" cy="438.7002" r="10.425" gradientTransform="matrix(1 0 0 0.8933 0 46.8157)" gradientUnits="userSpaceOnUse">
			<stop  offset="0" style="stop-color:#FFFFFF;stop-opacity:0.4314"/>
			<stop  offset="1" style="stop-color:#FBFBFB;stop-opacity:0"/>
		</radialGradient>
		<path fill-rule="evenodd" clip-rule="evenodd" fill="url(#SVGID_12_)" d="M597.4,431.7c0.1,0,0.22,0.03,0.35,0.1
			c6.13,3.73,10.93,9.22,14.4,16.45c0.03,0.1,0.03,0.2,0,0.3c-0.03,0.07-0.12,0.13-0.25,0.2c-0.1,0.03-0.2,0.05-0.3,0.05
			c-0.1-0.07-0.18-0.15-0.25-0.25c-3.4-7.1-8.1-12.47-14.1-16.1c-0.1-0.07-0.17-0.15-0.2-0.25c-0.03-0.1,0-0.2,0.1-0.3
			C597.22,431.8,597.3,431.73,597.4,431.7z"/>
	</g>
	
		<radialGradient id="SVGID_13_" cx="65.8989" cy="17.5747" r="22.915" gradientTransform="matrix(0.2862 0 0 1.8214 632.7999 548.4503)" gradientUnits="userSpaceOnUse">
		<stop  offset="0" style="stop-color:#FFFFFF;stop-opacity:0.3647"/>
		<stop  offset="0.4078" style="stop-color:#FFFFFF;stop-opacity:0.2706"/>
		<stop  offset="1" style="stop-color:#FFFFFF;stop-opacity:0"/>
	</radialGradient>
	<path fill-rule="evenodd" clip-rule="evenodd" fill="url(#SVGID_13_)" d="M651.66,621.3c-1.56,0-2.91-4.01-4.04-12.02
		c-1.12-7.95-1.67-17.55-1.67-28.78c0-11.23,0.56-20.85,1.67-28.87c1.13-8.01,2.47-12.02,4.04-12.02c1.57,0,2.92,4.01,4.04,12.02
		s1.67,17.64,1.67,28.87c0,11.23-0.56,20.82-1.67,28.78C654.58,617.3,653.23,621.3,651.66,621.3z"/>
	
		<radialGradient id="SVGID_14_" cx="65.9019" cy="17.5752" r="22.9132" gradientTransform="matrix(0.2182 0 0 2.4436 599.2498 543.7502)" gradientUnits="userSpaceOnUse">
		<stop  offset="0" style="stop-color:#FFFFFF;stop-opacity:0.3647"/>
		<stop  offset="0.3412" style="stop-color:#FFFFFF;stop-opacity:0.1569"/>
		<stop  offset="0.7451" style="stop-color:#FFFFFF;stop-opacity:0.0627"/>
		<stop  offset="1" style="stop-color:#FFFFFF;stop-opacity:0"/>
	</radialGradient>
	<path fill-rule="evenodd" clip-rule="evenodd" fill="url(#SVGID_14_)" d="M613.63,641.49c-1.19,0-2.22-5.38-3.08-16.13
		c-0.85-10.67-1.28-23.54-1.28-38.61c0-15.07,0.42-27.98,1.28-38.73c0.86-10.75,1.88-16.13,3.08-16.13c1.2,0,2.23,5.38,3.08,16.13
		s1.28,23.66,1.28,38.73c0,15.07-0.43,27.94-1.28,38.61C615.85,636.12,614.83,641.49,613.63,641.49z"/>
	
		<radialGradient id="SVGID_15_" cx="65.8965" cy="17.5737" r="22.9168" gradientTransform="matrix(0 0.1023 -0.7419 0 646.2 517.9003)" gradientUnits="userSpaceOnUse">
		<stop  offset="0" style="stop-color:#FFFFFF;stop-opacity:0.498"/>
		<stop  offset="0.4078" style="stop-color:#FFFFFF;stop-opacity:0.2706"/>
		<stop  offset="1" style="stop-color:#FFFFFF;stop-opacity:0"/>
	</radialGradient>
	<path fill-rule="evenodd" clip-rule="evenodd" fill="url(#SVGID_15_)" d="M616.52,524.64c0-0.56,1.63-1.04,4.9-1.44
		c3.24-0.4,7.15-0.6,11.72-0.6s8.5,0.2,11.76,0.6c3.26,0.4,4.9,0.88,4.9,1.44c0,0.56-1.63,1.04-4.9,1.44
		c-3.26,0.4-7.18,0.6-11.76,0.6s-8.48-0.2-11.72-0.6C618.16,525.68,616.52,525.2,616.52,524.64z"/>
	
		<radialGradient id="SVGID_16_" cx="65.8999" cy="17.5747" r="22.9145" gradientTransform="matrix(0.2548 0.2095 -0.3153 0.3215 599.2504 509.8)" gradientUnits="userSpaceOnUse">
		<stop  offset="0" style="stop-color:#FFFFFF;stop-opacity:0.251"/>
		<stop  offset="0.5333" style="stop-color:#FFFFFF;stop-opacity:0.0471"/>
		<stop  offset="0.7451" style="stop-color:#FFFFFF;stop-opacity:0.0275"/>
		<stop  offset="1" style="stop-color:#FFFFFF;stop-opacity:0"/>
	</radialGradient>
	<path fill-rule="evenodd" clip-rule="evenodd" fill="url(#SVGID_16_)" d="M603.43,536.46c-1.39-1.14-1.9-2.84-1.51-5.08
		c0.38-2.22,1.55-4.32,3.49-6.3s4.11-3.27,6.49-3.87c2.39-0.59,4.28-0.31,5.67,0.83c1.4,1.15,1.9,2.84,1.51,5.08
		s-1.56,4.34-3.51,6.32s-4.1,3.27-6.47,3.85C606.72,537.89,604.83,537.61,603.43,536.46z"/>
	
		<radialGradient id="SVGID_17_" cx="65.8984" cy="17.5762" r="22.9144" gradientTransform="matrix(-0.2182 0.2402 -0.3785 -0.2614 676.15 518.7504)" gradientUnits="userSpaceOnUse">
		<stop  offset="0" style="stop-color:#FFFFFF;stop-opacity:0.251"/>
		<stop  offset="0.5333" style="stop-color:#FFFFFF;stop-opacity:0.0471"/>
		<stop  offset="0.7451" style="stop-color:#FFFFFF;stop-opacity:0.0275"/>
		<stop  offset="1" style="stop-color:#FFFFFF;stop-opacity:0"/>
	</radialGradient>
	<path fill-rule="evenodd" clip-rule="evenodd" fill="url(#SVGID_17_)" d="M646.63,524.13c1.19-1.31,3.05-1.87,5.57-1.66
		c2.5,0.21,4.92,1.11,7.26,2.72s3.91,3.46,4.72,5.55c0.81,2.09,0.62,3.8-0.58,5.11c-1.2,1.32-3.06,1.88-5.57,1.66
		c-2.52-0.21-4.94-1.13-7.28-2.74c-2.33-1.61-3.9-3.46-4.7-5.54C645.24,527.15,645.43,525.45,646.63,524.13z"/>
	<g>
		<path fill-rule="evenodd" clip-rule="evenodd" fill="#FFFFFF" d="M663.7,593.75c-20.5,2.57-41.3,2.77-62.4,0.6V563.4
			c19.6,1.07,40.4,1.07,62.4,0V593.75z"/>
	</g>
	<g>
		<path fill-rule="evenodd" clip-rule="evenodd" d="M657.2,568.9c0.43,0.1,0.8,0.27,1.1,0.5c0.3,0.3,0.55,0.63,0.75,1
			c0.13,0.43,0.2,0.97,0.2,1.6c0,0.53-0.07,1-0.2,1.4c-0.2,0.5-0.47,0.92-0.8,1.25c-0.27,0.23-0.62,0.43-1.05,0.6
			c-0.33,0.13-0.77,0.23-1.3,0.3l-2.85,0.2v-6.6l2.75-0.25C656.4,568.87,656.87,568.87,657.2,568.9z M657.55,570.9
			c-0.1-0.27-0.23-0.47-0.4-0.6c-0.2-0.17-0.43-0.25-0.7-0.25c-0.2-0.03-0.6-0.03-1.2,0l-0.7,0.1v4.4l1.1-0.15
			c0.4,0,0.7-0.05,0.9-0.15c0.23-0.07,0.45-0.18,0.65-0.35c0.13-0.1,0.25-0.3,0.35-0.6c0.13-0.33,0.2-0.75,0.2-1.25
			C657.75,571.52,657.68,571.13,657.55,570.9z M651.35,573l-3.7,0.25v1.8l4.15-0.3v1.15l-5.65,0.35v-6.6l5.5-0.4v1.15l-4,0.25v1.45
			l3.7-0.2V573z M651.35,583.4c0,0.5-0.15,0.92-0.45,1.25c-0.37,0.37-0.87,0.62-1.5,0.75c0.33,0.13,0.6,0.3,0.8,0.5
			c0.23,0.17,0.52,0.5,0.85,1l0.9,1.2l-1.75,0.15l-1.1-1.35c-0.4-0.5-0.67-0.82-0.8-0.95c-0.13-0.13-0.28-0.2-0.45-0.2
			c-0.17-0.07-0.42-0.08-0.75-0.05l-0.3,0.05v2.75l-1.45,0.1V582l3.15-0.25c0.77-0.07,1.33-0.05,1.7,0.05
			c0.33,0.07,0.62,0.27,0.85,0.6C651.25,582.67,651.35,583,651.35,583.4z M649.7,584.1c0.07-0.13,0.1-0.3,0.1-0.5
			c0-0.23-0.05-0.4-0.15-0.5c-0.17-0.13-0.35-0.22-0.55-0.25c-0.17,0-0.55,0.02-1.15,0.05l-1.15,0.1v1.7l1.1-0.1
			c0.73-0.03,1.18-0.08,1.35-0.15S649.57,584.27,649.7,584.1z M607.05,569.15l2.75,0.25c0.6,0,1.07,0.05,1.4,0.15
			c0.43,0.17,0.8,0.4,1.1,0.7c0.3,0.33,0.55,0.72,0.75,1.15c0.13,0.43,0.2,0.97,0.2,1.6c0,0.53-0.07,1-0.2,1.4
			c-0.2,0.43-0.47,0.8-0.8,1.1c-0.27,0.17-0.62,0.3-1.05,0.4c-0.33,0.1-0.77,0.13-1.3,0.1l-2.85-0.25V569.15z M623.75,570.15h5.9
			v1.1h-2.2v5.5h-1.5v-5.5h-2.2V570.15z M623,574.6c0,0.4-0.1,0.77-0.3,1.1c-0.23,0.33-0.57,0.57-1,0.7
			c-0.43,0.17-0.97,0.25-1.6,0.25c-0.97,0-1.68-0.2-2.15-0.6c-0.53-0.37-0.83-0.92-0.9-1.65l1.4-0.15c0.1,0.43,0.28,0.77,0.55,1
			c0.27,0.2,0.63,0.3,1.1,0.3c0.5,0,0.85-0.1,1.05-0.3c0.27-0.17,0.4-0.38,0.4-0.65c0-0.13-0.05-0.25-0.15-0.35
			c-0.1-0.13-0.28-0.25-0.55-0.35c-0.17-0.03-0.57-0.12-1.2-0.25c-0.8-0.17-1.35-0.38-1.65-0.65c-0.47-0.37-0.7-0.82-0.7-1.35
			c0-0.33,0.1-0.65,0.3-0.95c0.23-0.3,0.55-0.52,0.95-0.65c0.4-0.17,0.88-0.25,1.45-0.25c0.93,0,1.63,0.18,2.1,0.55
			c0.47,0.37,0.7,0.85,0.7,1.45l-1.45,0.1c-0.07-0.33-0.22-0.58-0.45-0.75c-0.2-0.17-0.52-0.25-0.95-0.25s-0.77,0.08-1,0.25
			c-0.17,0.1-0.25,0.23-0.25,0.4c0,0.17,0.08,0.3,0.25,0.4c0.2,0.17,0.65,0.32,1.35,0.45c0.73,0.17,1.28,0.33,1.65,0.5
			c0.33,0.17,0.6,0.38,0.8,0.65C622.92,573.85,623,574.2,623,574.6z M615.95,569.85v6.6l-1.5-0.05v-6.65L615.95,569.85z
			 M610.45,570.6c-0.2-0.07-0.6-0.13-1.2-0.2h-0.7v4.35l1.1,0.1c0.43,0.03,0.75,0.03,0.95,0c0.2-0.03,0.4-0.12,0.6-0.25
			c0.13-0.1,0.25-0.28,0.35-0.55c0.13-0.33,0.2-0.75,0.2-1.25s-0.07-0.88-0.2-1.15c-0.1-0.3-0.23-0.53-0.4-0.7
			C610.98,570.78,610.75,570.67,610.45,570.6z M614.15,581.9l1.5,0.05l1.15,4.6l1.35-4.45h1.75l1.3,4.7l1.15-4.55h1.5l-1.75,6.55
			h-1.6l-1.5-5.05l-1.5,4.9l-1.6-0.05L614.15,581.9z M626.55,586.3h2.05l-1.05-2.45L626.55,586.3z M623.9,588.9l2.85-6.6h1.6
			l2.95,6.65h-1.6l-0.65-1.5l-2.95-0.05l-0.6,1.5H623.9z M641.35,575.4l3.7-0.15v1.15l-5.2,0.2v-6.55l1.5-0.05V575.4z
			 M638.75,576.65l-5.2,0.1v-6.55h1.5v5.4l3.7-0.05V576.65z M632.05,576.75h-1.5v-6.6h1.5V576.75z M637.45,583.35l-2.2,0.05v5.5
			l-1.5,0.05v-5.5h-2.2v-1.1l5.9-0.1V583.35z M643.9,583.1l-4,0.15v1.45l3.7-0.15v1.1l-3.7,0.15v1.8l4.15-0.15v1.15l-5.65,0.2v-6.6
			l5.5-0.25V583.1z"/>
	</g>
</g>
</svg>
