<?xml version="1.0" encoding="utf-8"?>
<!-- Generator: Adobe Illustrator 16.0.0, SVG Export Plug-In . SVG Version: 6.00 Build 0)  -->
<!DOCTYPE svg PUBLIC "-//W3C//DTD SVG 1.1//EN" "http://www.w3.org/Graphics/SVG/1.1/DTD/svg11.dtd">
<svg version="1.1" id="Layer_1" xmlns="http://www.w3.org/2000/svg" xmlns:xlink="http://www.w3.org/1999/xlink" x="0px" y="0px"
	 width="700px" height="700px" viewBox="0 0 700 700" enable-background="new 0 0 700 700" xml:space="preserve">
<symbol  id="Tween_17" viewBox="-56.4 -108.48 112.8 216.86">
	<g id="Layer_1_2_">
		<g>
			<g>
				<linearGradient id="SVGID_1_" gradientUnits="userSpaceOnUse" x1="-0.6499" y1="-50.0879" x2="50.2998" y2="-50.0879">
					<stop  offset="7.843138e-003" style="stop-color:#000000;stop-opacity:0"/>
					<stop  offset="0.2863" style="stop-color:#000000;stop-opacity:0.0431"/>
					<stop  offset="0.5647" style="stop-color:#000000;stop-opacity:0.0627"/>
					<stop  offset="0.8353" style="stop-color:#000000;stop-opacity:0"/>
					<stop  offset="1" style="stop-color:#000000;stop-opacity:0"/>
				</linearGradient>
				<path fill-rule="evenodd" clip-rule="evenodd" fill="url(#SVGID_1_)" d="M50.3-104.4c-17.47-5.43-34.45-5.43-50.95,0V8.3H50.3
					V-104.4z"/>
			</g>
			<g>
				<linearGradient id="SVGID_2_" gradientUnits="userSpaceOnUse" x1="21.9375" y1="-48.8877" x2="27.2625" y2="-48.8877">
					<stop  offset="0" style="stop-color:#FFFFFF;stop-opacity:0.1333"/>
					<stop  offset="0.5098" style="stop-color:#FFFFFF"/>
					<stop  offset="1" style="stop-color:#FFFFFF;stop-opacity:0.3922"/>
				</linearGradient>
				<path fill-rule="evenodd" clip-rule="evenodd" fill="url(#SVGID_2_)" d="M27.5,7.9v-112.75c-1.9-1.1-3.8-1.1-5.7,0V7.9H27.5z"/>
			</g>
			<g>
				<linearGradient id="SVGID_3_" gradientUnits="userSpaceOnUse" x1="2.4502" y1="12.8169" x2="44.4502" y2="12.8169">
					<stop  offset="0" style="stop-color:#BAC1D1;stop-opacity:0.8431"/>
					<stop  offset="0.2078" style="stop-color:#AFB8C8;stop-opacity:0.5922"/>
					<stop  offset="0.4745" style="stop-color:#A5B0C0;stop-opacity:0.3216"/>
					<stop  offset="0.8039" style="stop-color:#B2BACA;stop-opacity:0.6275"/>
					<stop  offset="0.8784" style="stop-color:#B5BCCC;stop-opacity:0.5922"/>
					<stop  offset="1" style="stop-color:#BAC1D1;stop-opacity:0.8"/>
				</linearGradient>
				<path fill-rule="evenodd" clip-rule="evenodd" fill="url(#SVGID_3_)" d="M2.45,12.85c0,0.33,0.82,0.67,2.45,1
					c0.93,0.17,2.17,0.33,3.7,0.5C12.73,14.78,17.7,15,23.5,15s10.73-0.22,14.8-0.65c4.13-0.43,6.2-0.88,6.2-1.35
					c0-0.3-0.78-0.6-2.35-0.9c-5.67-0.87-11.45-1.35-17.35-1.45c-3.03-0.03-5.98-0.02-8.85,0.05c-2.7,0.13-5.15,0.32-7.35,0.55
					c-1.53,0.17-2.77,0.33-3.7,0.5C3.27,12.05,2.45,12.42,2.45,12.85z"/>
			</g>
			<g>
				<linearGradient id="SVGID_4_" gradientUnits="userSpaceOnUse" x1="9.7896" y1="23.2437" x2="38.1001" y2="23.2437">
					<stop  offset="0" style="stop-color:#7E0127"/>
					<stop  offset="0.2392" style="stop-color:#98012A"/>
					<stop  offset="0.4941" style="stop-color:#A0002B"/>
					<stop  offset="0.7686" style="stop-color:#810328"/>
					<stop  offset="1" style="stop-color:#4A0218"/>
				</linearGradient>
				<path fill-rule="evenodd" clip-rule="evenodd" fill="url(#SVGID_4_)" d="M38.1,27.75V17.2c-0.2-0.73-1.2-1.15-3-1.25
					c-7.67-0.7-15.27-0.68-22.8,0.05c-1.93,0.27-2.75,0.77-2.45,1.5v10.25v0.05c0.13,2.1,1.65,3.18,4.55,3.25c0.1,0,0.25,0,0.45,0
					h19.1c2.4-0.07,3.78-1.08,4.15-3.05V27.75z"/>
			</g>
			<g>
				<linearGradient id="SVGID_5_" gradientUnits="userSpaceOnUse" x1="8.9556" y1="14.9248" x2="38.8056" y2="14.9248">
					<stop  offset="0" style="stop-color:#C6B3B0"/>
					<stop  offset="0.4784" style="stop-color:#DBCFCD"/>
					<stop  offset="1" style="stop-color:#A28380"/>
				</linearGradient>
				<path fill-rule="evenodd" clip-rule="evenodd" fill="url(#SVGID_5_)" d="M38.9,15c-0.13-1.23-0.38-1.9-0.75-2
					c-9.77-1-19.28-1-28.55,0c-0.17,0.3-0.35,0.83-0.55,1.6c-0.23,1-0.03,2,0.6,3c9.37-1.17,18.73-1.17,28.1,0
					C38.62,17.1,39,16.23,38.9,15z"/>
			</g>
			<g>
				<linearGradient id="SVGID_6_" gradientUnits="userSpaceOnUse" x1="16.5874" y1="30.8374" x2="31.7124" y2="30.8374">
					<stop  offset="0" style="stop-color:#A1002C"/>
					<stop  offset="1" style="stop-color:#4B0117"/>
				</linearGradient>
				<path fill-rule="evenodd" clip-rule="evenodd" fill="url(#SVGID_6_)" d="M35.6,30.75c0-0.17-1.12-0.32-3.35-0.45
					c-2.23-0.17-4.93-0.25-8.1-0.25c-3.17,0-5.88,0.08-8.15,0.25c-2.23,0.13-3.35,0.28-3.35,0.45c0,0.03,0.28,0.12,0.85,0.25
					c7.1,0.83,14.2,0.83,21.3,0C35.33,30.87,35.6,30.78,35.6,30.75z"/>
			</g>
			<g>
				
					<radialGradient id="SVGID_7_" cx="11.3501" cy="52.1499" r="29.3" gradientTransform="matrix(1 0 0 0.8622 0 7.186)" gradientUnits="userSpaceOnUse">
					<stop  offset="0" style="stop-color:#A0002B"/>
					<stop  offset="0.6" style="stop-color:#75021F"/>
					<stop  offset="0.9804" style="stop-color:#980E2F"/>
				</radialGradient>
				<path fill-rule="evenodd" clip-rule="evenodd" fill="url(#SVGID_7_)" d="M19.7,31.1v0.45c-14.97,70.6-36.27,88.2-63.9,52.8
					c-1.6-2.03-3.22-4.23-4.85-6.6c-2.63-1.43-5.08-1.3-7.35,0.4c4.17,6.03,8.23,11.15,12.2,15.35
					c30.4,32.53,54.18,11.73,71.35-62.4v-0.25c-2.47-0.3-4.95-0.27-7.45,0.1V31.1z"/>
				<linearGradient id="SVGID_8_" gradientUnits="userSpaceOnUse" x1="-8.103" y1="-47.7246" x2="56.3997" y2="-47.7246">
					<stop  offset="0" style="stop-color:#BAC1D1;stop-opacity:0.8431"/>
					<stop  offset="0.2078" style="stop-color:#AFB8C8;stop-opacity:0.5922"/>
					<stop  offset="0.4745" style="stop-color:#A5B0C0;stop-opacity:0.3216"/>
					<stop  offset="0.8039" style="stop-color:#B2BACA;stop-opacity:0.6275"/>
					<stop  offset="0.8784" style="stop-color:#B5BCCC;stop-opacity:0.5922"/>
					<stop  offset="1" style="stop-color:#BAC1D1;stop-opacity:0.8"/>
				</linearGradient>
				<path fill-rule="evenodd" clip-rule="evenodd" fill="url(#SVGID_8_)" d="M52.75,8.55c2-1.97,3.22-4.05,3.65-6.25V1.75v-11.5
					V-96.5c-0.6-5.13-5.07-8.57-13.4-10.3c-12.4-2-24.68-2-36.85,0c-9.63,1.83-14.38,5.38-14.25,10.65v97.9
					c0.6,2.3,1.77,4.47,3.5,6.5c0.33,0.37,0.67,0.72,1,1.05c1.83,1.9,3.92,3.08,6.25,3.55c13.63-1.73,27.27-1.73,40.9,0h0.2
					c3.13-0.4,5.83-1.58,8.1-3.55C52.15,9.1,52.45,8.85,52.75,8.55z"/>
			</g>
			<g>
				<path fill-rule="evenodd" clip-rule="evenodd" fill="#770021" d="M20.75,29.25c0,0.07,0.03,0.1,0.1,0.1
					c0.07,0,0.13-0.03,0.2-0.1c0.03-0.03,0.05-0.07,0.05-0.1v-11.8c0-0.03-0.02-0.08-0.05-0.15c-0.07,0-0.13,0-0.2,0h-0.1
					c-0.07,0.07-0.1,0.12-0.1,0.15v11.8C20.65,29.18,20.68,29.22,20.75,29.25z M25.1,29.1c0,0.07,0.02,0.1,0.05,0.1
					c0.03,0.07,0.08,0.1,0.15,0.1c0.07,0,0.12-0.03,0.15-0.1c0.03,0,0.05-0.03,0.05-0.1V17.45c0-0.07-0.02-0.12-0.05-0.15
					c-0.03-0.03-0.08-0.05-0.15-0.05c-0.07,0-0.12,0.02-0.15,0.05c-0.03,0.03-0.05,0.08-0.05,0.15V29.1z M29.85,29.4
					c0.03-0.03,0.05-0.08,0.05-0.15v-11.6c0-0.07-0.02-0.12-0.05-0.15s-0.08-0.05-0.15-0.05c-0.07,0-0.12,0.02-0.15,0.05
					c-0.07,0.03-0.1,0.08-0.1,0.15v11.6c0,0.07,0.03,0.12,0.1,0.15c0.03,0.03,0.08,0.05,0.15,0.05
					C29.77,29.45,29.82,29.43,29.85,29.4z M11.5,29.95c0.03,0.07,0.08,0.1,0.15,0.1c0.07,0,0.12-0.03,0.15-0.1
					c0.03-0.03,0.05-0.07,0.05-0.1v-11.4c0-0.07-0.02-0.12-0.05-0.15c-0.03-0.03-0.08-0.05-0.15-0.05c-0.07,0-0.12,0.02-0.15,0.05
					c-0.03,0.03-0.05,0.08-0.05,0.15v11.4C11.45,29.88,11.47,29.92,11.5,29.95z M34,29.9c0.03,0.03,0.08,0.05,0.15,0.05
					c0.03,0,0.08-0.02,0.15-0.05c0.03-0.03,0.05-0.08,0.05-0.15v-11.7c0-0.03-0.02-0.08-0.05-0.15c-0.07-0.03-0.12-0.05-0.15-0.05
					c-0.07,0-0.12,0.02-0.15,0.05c-0.07,0.07-0.1,0.12-0.1,0.15v11.7C33.9,29.82,33.93,29.87,34,29.9z M16.15,29.5
					c0.03-0.03,0.05-0.07,0.05-0.1V17.5c0-0.03-0.02-0.08-0.05-0.15c-0.03,0-0.08,0-0.15,0s-0.12,0-0.15,0
					c-0.03,0.07-0.05,0.12-0.05,0.15v11.9c0,0.03,0.02,0.07,0.05,0.1s0.08,0.05,0.15,0.05S16.12,29.53,16.15,29.5z"/>
				<path fill-rule="evenodd" clip-rule="evenodd" fill="#FF3E73" fill-opacity="0.3333" d="M30.2,29.45c0,0.07,0.03,0.1,0.1,0.1
					c0.03,0.07,0.07,0.1,0.1,0.1c0.07,0,0.13-0.03,0.2-0.1c0.03,0,0.05-0.03,0.05-0.1v-11.6c0-0.03-0.02-0.08-0.05-0.15
					c-0.07,0-0.13,0-0.2,0c-0.03,0-0.07,0-0.1,0c-0.07,0.07-0.1,0.12-0.1,0.15V29.45z M21.75,29.25c0.03-0.03,0.05-0.07,0.05-0.1
					V17.4c0-0.03-0.02-0.08-0.05-0.15c-0.03-0.03-0.08-0.05-0.15-0.05c-0.07,0-0.12,0.02-0.15,0.05c-0.03,0.07-0.05,0.12-0.05,0.15
					v11.75c0,0.03,0.02,0.07,0.05,0.1c0.03,0.07,0.08,0.1,0.15,0.1C21.67,29.35,21.72,29.32,21.75,29.25z M34.7,29.4
					c0,0.07,0.02,0.12,0.05,0.15c0.03,0.03,0.08,0.05,0.15,0.05c0.07,0,0.12-0.02,0.15-0.05c0.03-0.03,0.05-0.08,0.05-0.15V18.3
					c0-0.07-0.02-0.12-0.05-0.15c-0.03-0.03-0.08-0.05-0.15-0.05c-0.07,0-0.12,0.02-0.15,0.05s-0.05,0.08-0.05,0.15V29.4z
					 M25.95,29.4c0.07,0,0.12-0.03,0.15-0.1c0.03-0.03,0.05-0.07,0.05-0.1V17.5c0-0.03-0.02-0.08-0.05-0.15c-0.03,0-0.08,0-0.15,0
					c-0.07,0-0.12,0-0.15,0c-0.03,0.07-0.05,0.12-0.05,0.15v11.7c0,0.03,0.02,0.07,0.05,0.1C25.83,29.37,25.88,29.4,25.95,29.4z
					 M16.6,29.2c0,0.07,0.03,0.12,0.1,0.15c0.03,0.03,0.07,0.05,0.1,0.05c0.07,0,0.13-0.02,0.2-0.05c0.03-0.03,0.05-0.08,0.05-0.15
					V17.35c0-0.03-0.02-0.08-0.05-0.15c-0.07,0-0.13,0-0.2,0c-0.03,0-0.07,0-0.1,0c-0.07,0.07-0.1,0.12-0.1,0.15V29.2z M12.1,29.55
					c0,0.03,0.03,0.07,0.1,0.1c0.03,0.03,0.08,0.05,0.15,0.05c0.03,0,0.08-0.02,0.15-0.05c0.03-0.03,0.05-0.07,0.05-0.1v-11.6
					c0-0.07-0.02-0.12-0.05-0.15c-0.07-0.03-0.12-0.05-0.15-0.05c-0.07,0-0.12,0.02-0.15,0.05c-0.07,0.03-0.1,0.08-0.1,0.15V29.55z"
					/>
			</g>
			<g>
				<path fill-rule="evenodd" clip-rule="evenodd" fill="none" d="M3.6,12.65c9.23-1.1,19.57-1.28,31-0.55"/>
				<path fill-rule="evenodd" clip-rule="evenodd" fill="none" d="M12.65,30.4c7.03-0.7,14.33-0.7,21.9,0"/>
				<path fill-rule="evenodd" clip-rule="evenodd" fill="none" d="M20.5,30.85c2.57-0.57,5.05-0.57,7.45,0"/>
				<path fill-rule="evenodd" clip-rule="evenodd" fill="none" d="M9.9,13.1c10-1.07,19.32-0.95,27.95,0.35"/>
				<path fill-rule="evenodd" clip-rule="evenodd" fill="none" d="M10.1,17.2c10-1.1,19.35-1,28.05,0.3"/>
				<path fill-rule="evenodd" clip-rule="evenodd" fill="none" d="M10.5,17.85c8.47-1.23,17.47-1.23,27,0"/>
			</g>
			<g>
				
					<radialGradient id="SVGID_9_" cx="-4.6001" cy="94.5" r="10.425" gradientTransform="matrix(1 0 0 0.8933 0 10.085)" gradientUnits="userSpaceOnUse">
					<stop  offset="0" style="stop-color:#FFFFFF;stop-opacity:0.4314"/>
					<stop  offset="1" style="stop-color:#FBFBFB;stop-opacity:0"/>
				</radialGradient>
				<path fill-rule="evenodd" clip-rule="evenodd" fill="url(#SVGID_9_)" d="M3.15,84.4c-0.1,0.07-0.18,0.15-0.25,0.25
					c-3.4,7.1-8.1,12.47-14.1,16.1c-0.1,0.07-0.17,0.15-0.2,0.25s0,0.2,0.1,0.3c0.07,0.1,0.15,0.17,0.25,0.2
					c0.1,0,0.22-0.03,0.35-0.1c6.13-3.73,10.93-9.22,14.4-16.45c0.03-0.1,0.03-0.2,0-0.3c-0.03-0.07-0.12-0.13-0.25-0.2
					C3.35,84.42,3.25,84.4,3.15,84.4z"/>
				
					<radialGradient id="SVGID_10_" cx="14" cy="63.1001" r="35.9125" gradientTransform="matrix(1 0 0 0.8938 0 6.6987)" gradientUnits="userSpaceOnUse">
					<stop  offset="0" style="stop-color:#FFFFFF;stop-opacity:0.502"/>
					<stop  offset="1" style="stop-color:#FBFBFB;stop-opacity:0"/>
				</radialGradient>
				<path fill-rule="evenodd" clip-rule="evenodd" fill="url(#SVGID_10_)" d="M2.45,92.3c0.03,0.1,0.12,0.17,0.25,0.2
					c0.07,0.07,0.17,0.07,0.3,0c0.1-0.03,0.18-0.1,0.25-0.2c7.93-13.1,14.17-28.55,18.7-46.35c1.07-4.23,2.03-8.63,2.9-13.2
					c0.03-0.07,0.02-0.15-0.05-0.25c-0.07-0.07-0.17-0.12-0.3-0.15c-0.1-0.03-0.2-0.02-0.3,0.05c-0.1,0.07-0.17,0.15-0.2,0.25
					c-0.9,4.5-1.87,8.88-2.9,13.15C16.57,63.53,10.35,78.92,2.45,91.95C2.42,92.05,2.42,92.17,2.45,92.3z"/>
				
					<radialGradient id="SVGID_11_" cx="-42.748" cy="90.7915" r="18.8172" gradientTransform="matrix(1 0 0 0.8938 0 9.646)" gradientUnits="userSpaceOnUse">
					<stop  offset="0" style="stop-color:#FFFFFF;stop-opacity:0.5765"/>
					<stop  offset="1" style="stop-color:#FBFBFB;stop-opacity:0"/>
				</radialGradient>
				<path fill-rule="evenodd" clip-rule="evenodd" fill="url(#SVGID_11_)" d="M-30.7,103.65c0.13-0.03,0.23-0.1,0.3-0.2
					c0.07-0.1,0.08-0.2,0.05-0.3s-0.08-0.18-0.15-0.25c-3.93-2.3-8.38-6.23-13.35-11.8c-3.3-3.63-6.8-7.97-10.5-13
					c-0.07-0.07-0.17-0.12-0.3-0.15c-0.1-0.03-0.2-0.02-0.3,0.05c-0.1,0.07-0.17,0.15-0.2,0.25s0,0.2,0.1,0.3
					c3.73,5.03,7.23,9.38,10.5,13.05c5.03,5.67,9.55,9.65,13.55,11.95C-30.9,103.62-30.8,103.65-30.7,103.65z"/>
				
					<radialGradient id="SVGID_12_" cx="-16.3501" cy="106.3501" r="5.3" gradientTransform="matrix(1 0 0 0.8939 0 11.2871)" gradientUnits="userSpaceOnUse">
					<stop  offset="0" style="stop-color:#FFFFFF;stop-opacity:0.4627"/>
					<stop  offset="1" style="stop-color:#FBFBFB;stop-opacity:0"/>
				</radialGradient>
				<path fill-rule="evenodd" clip-rule="evenodd" fill="url(#SVGID_12_)" d="M-21.5,107.15c0.03,0.07,0.12,0.12,0.25,0.15
					c2.6,0.7,5.9,0.32,9.9-1.15c0.1-0.03,0.17-0.1,0.2-0.2c0.07-0.1,0.08-0.2,0.05-0.3c-0.07-0.1-0.15-0.17-0.25-0.2
					c-0.13-0.07-0.25-0.08-0.35-0.05c-3.77,1.4-6.88,1.78-9.35,1.15c-0.1-0.03-0.22-0.02-0.35,0.05c-0.07,0.07-0.12,0.15-0.15,0.25
					C-21.62,106.95-21.6,107.05-21.5,107.15z"/>
			</g>
			
				<radialGradient id="SVGID_13_" cx="65.9004" cy="-17.5747" r="22.9142" gradientTransform="matrix(0.2862 0 0 1.8214 24.3501 -15.25)" gradientUnits="userSpaceOnUse">
				<stop  offset="0" style="stop-color:#FFFFFF;stop-opacity:0.3686"/>
				<stop  offset="0.4078" style="stop-color:#FFFFFF;stop-opacity:0.2706"/>
				<stop  offset="1" style="stop-color:#FFFFFF;stop-opacity:0"/>
			</radialGradient>
			<path fill-rule="evenodd" clip-rule="evenodd" fill="url(#SVGID_13_)" d="M43.21-88.1c-1.56,0-2.91,4.01-4.04,12.02
				c-1.12,7.95-1.67,17.55-1.67,28.78c0,11.23,0.56,20.85,1.67,28.87c1.13,8.01,2.47,12.02,4.04,12.02c1.57,0,2.92-4.01,4.04-12.02
				c1.12-8.01,1.67-17.64,1.67-28.87c0-11.23-0.56-20.82-1.67-28.78C46.13-84.1,44.78-88.1,43.21-88.1z"/>
			
				<radialGradient id="SVGID_14_" cx="65.9004" cy="-17.5752" r="22.9141" gradientTransform="matrix(0.2182 0 0 2.4436 -9.2007 -10.5508)" gradientUnits="userSpaceOnUse">
				<stop  offset="0" style="stop-color:#FFFFFF;stop-opacity:0.3686"/>
				<stop  offset="0.3412" style="stop-color:#FFFFFF;stop-opacity:0.1608"/>
				<stop  offset="0.7451" style="stop-color:#FFFFFF;stop-opacity:0.0627"/>
				<stop  offset="1" style="stop-color:#FFFFFF;stop-opacity:0"/>
			</radialGradient>
			<path fill-rule="evenodd" clip-rule="evenodd" fill="url(#SVGID_14_)" d="M5.18-108.29c-1.19,0-2.22,5.38-3.08,16.13
				C1.25-81.5,0.82-68.63,0.82-53.56c0,15.07,0.43,27.98,1.28,38.73C2.96-4.08,3.98,1.3,5.18,1.3c1.2,0,2.23-5.38,3.08-16.13
				C9.1-25.58,9.53-38.49,9.53-53.56c0-15.07-0.43-27.94-1.28-38.61C7.4-102.92,6.38-108.29,5.18-108.29z"/>
			
				<radialGradient id="SVGID_15_" cx="65.8989" cy="-17.5747" r="22.9148" gradientTransform="matrix(0 -0.1023 0.7419 0 37.75 15.2998)" gradientUnits="userSpaceOnUse">
				<stop  offset="0" style="stop-color:#FFFFFF;stop-opacity:0.498"/>
				<stop  offset="0.4078" style="stop-color:#FFFFFF;stop-opacity:0.2706"/>
				<stop  offset="1" style="stop-color:#FFFFFF;stop-opacity:0"/>
			</radialGradient>
			<path fill-rule="evenodd" clip-rule="evenodd" fill="url(#SVGID_15_)" d="M8.07,8.56c0,0.56,1.63,1.04,4.9,1.44
				c3.24,0.4,7.15,0.6,11.72,0.6s8.5-0.2,11.76-0.6c3.26-0.4,4.9-0.88,4.9-1.44c0-0.56-1.63-1.04-4.9-1.44
				c-3.26-0.4-7.18-0.6-11.76-0.6s-8.48,0.2-11.72,0.6C9.71,7.52,8.07,8,8.07,8.56z"/>
			
				<radialGradient id="SVGID_16_" cx="65.8999" cy="-17.5747" r="22.9143" gradientTransform="matrix(0.2548 -0.2095 0.3153 0.3215 -9.2007 23.3999)" gradientUnits="userSpaceOnUse">
				<stop  offset="0" style="stop-color:#FFFFFF;stop-opacity:0.251"/>
				<stop  offset="0.5333" style="stop-color:#FFFFFF;stop-opacity:0.0471"/>
				<stop  offset="0.7451" style="stop-color:#FFFFFF;stop-opacity:0.0275"/>
				<stop  offset="1" style="stop-color:#FFFFFF;stop-opacity:0"/>
			</radialGradient>
			<path fill-rule="evenodd" clip-rule="evenodd" fill="url(#SVGID_16_)" d="M-5.02-3.26c-1.39,1.15-1.9,2.84-1.51,5.08
				c0.38,2.22,1.55,4.32,3.49,6.3s4.11,3.27,6.49,3.87c2.39,0.59,4.28,0.31,5.67-0.83c1.4-1.15,1.91-2.84,1.51-5.08
				c-0.39-2.23-1.56-4.34-3.51-6.32s-4.1-3.27-6.47-3.85C-1.73-4.69-3.62-4.41-5.02-3.26z"/>
			
				<radialGradient id="SVGID_17_" cx="65.8999" cy="-17.5752" r="22.9143" gradientTransform="matrix(-0.2182 -0.2402 0.3785 -0.2614 67.7007 14.4502)" gradientUnits="userSpaceOnUse">
				<stop  offset="0" style="stop-color:#FFFFFF;stop-opacity:0.251"/>
				<stop  offset="0.5333" style="stop-color:#FFFFFF;stop-opacity:0.0471"/>
				<stop  offset="0.7451" style="stop-color:#FFFFFF;stop-opacity:0.0275"/>
				<stop  offset="1" style="stop-color:#FFFFFF;stop-opacity:0"/>
			</radialGradient>
			<path fill-rule="evenodd" clip-rule="evenodd" fill="url(#SVGID_17_)" d="M38.18,9.07c1.19,1.31,3.05,1.87,5.57,1.66
				c2.5-0.2,4.92-1.11,7.26-2.72c2.33-1.61,3.91-3.46,4.72-5.55c0.81-2.09,0.61-3.8-0.58-5.11c-1.2-1.32-3.06-1.88-5.57-1.66
				s-4.94,1.13-7.28,2.74s-3.9,3.46-4.7,5.54C36.79,6.05,36.98,7.75,38.18,9.07z"/>
			<g>
				<path fill-rule="evenodd" clip-rule="evenodd" fill="#FFFFFF" d="M55.25-60.55c-20.5-2.57-41.3-2.77-62.4-0.6v30.95
					c19.6-1.07,40.4-1.07,62.4,0V-60.55z"/>
			</g>
			<g>
				<path fill-rule="evenodd" clip-rule="evenodd" d="M49.85-36.2c0.3-0.3,0.55-0.63,0.75-1c0.13-0.43,0.2-0.97,0.2-1.6
					c0-0.53-0.07-1-0.2-1.4c-0.2-0.5-0.47-0.92-0.8-1.25c-0.27-0.23-0.62-0.43-1.05-0.6c-0.33-0.13-0.77-0.23-1.3-0.3l-2.85-0.2v6.6
					l2.75,0.25c0.6,0.03,1.07,0.03,1.4,0C49.18-35.8,49.55-35.97,49.85-36.2z M46.1-36.95v-4.4l1.1,0.15c0.4,0,0.7,0.05,0.9,0.15
					c0.23,0.07,0.45,0.18,0.65,0.35c0.13,0.1,0.25,0.3,0.35,0.6c0.13,0.33,0.2,0.75,0.2,1.25c0,0.53-0.07,0.92-0.2,1.15
					c-0.1,0.27-0.23,0.47-0.4,0.6c-0.2,0.17-0.43,0.25-0.7,0.25c-0.2,0.03-0.6,0.03-1.2,0L46.1-36.95z M43.35-42.7l-5.65-0.35v6.6
					l5.5,0.4v-1.15l-4-0.25v-1.45l3.7,0.2v-1.1l-3.7-0.25v-1.8l4.15,0.3V-42.7z M42.6-49.2c0.2-0.27,0.3-0.6,0.3-1
					c0-0.5-0.15-0.92-0.45-1.25c-0.37-0.37-0.87-0.62-1.5-0.75c0.33-0.13,0.6-0.3,0.8-0.5c0.23-0.17,0.52-0.5,0.85-1l0.9-1.2
					l-1.75-0.15l-1.1,1.35c-0.4,0.5-0.67,0.82-0.8,0.95s-0.28,0.2-0.45,0.2c-0.17,0.07-0.42,0.08-0.75,0.05l-0.3-0.05v-2.75
					l-1.45-0.1v6.6l3.15,0.25c0.77,0.07,1.33,0.05,1.7-0.05C42.08-48.67,42.37-48.87,42.6-49.2z M7.5-36.65v-6.6L6-43.2v6.65
					L7.5-36.65z M2.75-36.35c0.43-0.17,0.8-0.4,1.1-0.7c0.3-0.33,0.55-0.72,0.75-1.15c0.13-0.43,0.2-0.97,0.2-1.6
					c0-0.53-0.07-1-0.2-1.4c-0.2-0.43-0.47-0.8-0.8-1.1c-0.27-0.17-0.62-0.3-1.05-0.4c-0.33-0.1-0.77-0.13-1.3-0.1l-2.85,0.25v6.6
					l2.75-0.25C1.95-36.2,2.42-36.25,2.75-36.35z M8.85-38.45c0,0.33,0.1,0.65,0.3,0.95c0.23,0.3,0.55,0.52,0.95,0.65
					c0.4,0.17,0.88,0.25,1.45,0.25c0.93,0,1.63-0.18,2.1-0.55s0.7-0.85,0.7-1.45l-1.45-0.1c-0.07,0.33-0.22,0.58-0.45,0.75
					c-0.2,0.17-0.52,0.25-0.95,0.25s-0.77-0.08-1-0.25c-0.17-0.1-0.25-0.23-0.25-0.4c0-0.17,0.08-0.3,0.25-0.4
					c0.2-0.17,0.65-0.32,1.35-0.45c0.73-0.17,1.28-0.33,1.65-0.5c0.33-0.17,0.6-0.38,0.8-0.65c0.17-0.3,0.25-0.65,0.25-1.05
					s-0.1-0.77-0.3-1.1c-0.23-0.33-0.57-0.57-1-0.7c-0.43-0.17-0.97-0.25-1.6-0.25c-0.97,0-1.68,0.2-2.15,0.6
					c-0.53,0.37-0.83,0.92-0.9,1.65l1.4,0.15c0.1-0.43,0.28-0.77,0.55-1c0.27-0.2,0.63-0.3,1.1-0.3c0.5,0,0.85,0.1,1.05,0.3
					c0.27,0.17,0.4,0.38,0.4,0.65c0,0.13-0.05,0.25-0.15,0.35c-0.1,0.13-0.28,0.25-0.55,0.35c-0.17,0.03-0.57,0.12-1.2,0.25
					c-0.8,0.17-1.35,0.38-1.65,0.65C9.08-39.43,8.85-38.98,8.85-38.45z M2.7-37.75C2.53-37.58,2.3-37.47,2-37.4
					c-0.2,0.07-0.6,0.13-1.2,0.2H0.1v-4.35l1.1-0.1c0.43-0.03,0.75-0.03,0.95,0c0.2,0.03,0.4,0.12,0.6,0.25
					C2.88-41.3,3-41.12,3.1-40.85c0.13,0.33,0.2,0.75,0.2,1.25s-0.07,0.88-0.2,1.15C3-38.15,2.87-37.92,2.7-37.75z M7.2-48.75
					l1.15-4.6L9.7-48.9h1.75l1.3-4.7l1.15,4.55h1.5l-1.75-6.55h-1.6l-1.5,5.05l-1.5-4.9l-1.6,0.05L5.7-48.7L7.2-48.75z M15.3-38.05
					v1.1h5.9v-1.1H19v-5.5h-1.5v5.5H15.3z M19.9-49.1l2.95-6.65h-1.6l-0.65,1.5l-2.95,0.05l-0.6-1.5h-1.6l2.85,6.6H19.9z M32.9-36.8
					v-5.4l3.7,0.15v-1.15l-5.2-0.2v6.55L32.9-36.8z M26.6-37v-5.4l3.7,0.05v-1.1l-5.2-0.1V-37H26.6z M23.6-36.95v-6.6h-1.5v6.6H23.6
					z M29-49.05v-1.1l-2.2-0.05v-5.5l-1.5-0.05v5.5h-2.2v1.1L29-49.05z M35.45-48.75v-1.15l-4-0.15v-1.45l3.7,0.15v-1.1l-3.7-0.15
					v-1.8l4.15,0.15v-1.15l-5.65-0.2v6.6L35.45-48.75z M38.35-49.8v-1.7l1.1,0.1c0.73,0.03,1.18,0.08,1.35,0.15
					c0.17,0.07,0.32,0.18,0.45,0.35c0.07,0.13,0.1,0.3,0.1,0.5c0,0.23-0.05,0.4-0.15,0.5c-0.17,0.13-0.35,0.22-0.55,0.25
					c-0.17,0-0.55-0.02-1.15-0.05L38.35-49.8z M19.1-50.65l-1-2.45h2.05L19.1-50.65z"/>
			</g>
		</g>
	</g>
</symbol>
<g>
	<g>
		<path fill-rule="evenodd" clip-rule="evenodd" fill="#FFFFFF" fill-opacity="0.3059" d="M532.65,493.3
			c-0.6,5.13-5.07,8.57-13.4,10.3c-12.4,2-24.68,2-36.85,0c-9.63-1.83-14.38-5.38-14.25-10.65V420h64.5V493.3z"/>
	</g>
	<g>
		<rect x="468.15" y="419.3" fill-rule="evenodd" clip-rule="evenodd" fill="#FFFFFF" width="64.5" height="0.7"/>
	</g>
	
		<use xlink:href="#Tween_17"  width="112.8" height="216.86" x="-56.4" y="-108.48" transform="matrix(1 0 0 -1 476.25 397.0996)" overflow="visible"/>
</g>
</svg>
