<?xml version="1.0" encoding="utf-8"?>
<!-- Generator: Adobe Illustrator 16.0.0, SVG Export Plug-In . SVG Version: 6.00 Build 0)  -->
<!DOCTYPE svg PUBLIC "-//W3C//DTD SVG 1.1//EN" "http://www.w3.org/Graphics/SVG/1.1/DTD/svg11.dtd">
<svg version="1.1" id="Layer_1" xmlns="http://www.w3.org/2000/svg" xmlns:xlink="http://www.w3.org/1999/xlink" x="0px" y="0px"
	 width="700px" height="700px" viewBox="0 0 700 700" enable-background="new 0 0 700 700" xml:space="preserve">
<g>
	<g>
		<path fill-rule="evenodd" clip-rule="evenodd" fill="#CCCCCC" fill-opacity="0.2" d="M366.65,324.65c-0.73,0.73-1.35,2-1.85,3.8
			c-0.63,1.7-0.83,4.45-0.6,8.25c0.23,3.47,0.35,6.12,0.35,7.95c0,0.03,0,0.07,0,0.1c0.17,2.1,0.27,3.57,0.3,4.4
			c0.07,4.13,0.07,8.9,0,14.3c-0.4,37.2-0.6,76.07-0.6,116.6c-0.93,22.87-3.22,24.5-6.85,4.9c-0.3-51.63-0.05-91.97,0.75-121
			c0.2-5.37,0.45-10.15,0.75-14.35c0.03-0.87,0.12-2.17,0.25-3.9l0.05,0.05c0.37-4.23,0.83-7.82,1.4-10.75
			c1.17-6.83,2.32-10.75,3.45-11.75c1.07-0.97,1.37-1.22,0.9-0.75L366.65,324.65z"/>
	</g>
	<g>
		<path fill-rule="evenodd" clip-rule="evenodd" fill="#FFFFFF" d="M364.1,332.85c0.03,1.43-0.07,3.02-0.3,4.75l-0.05,0.2
			C363.62,336,363.73,334.35,364.1,332.85z M361.35,343c0.3-3.63,0.73-7.1,1.3-10.4c0.17-0.92,0.33-1.89,0.47-2.9
			c-0.08,0.67-0.17,1.37-0.28,2.1c-0.93,6.03-1.57,12.42-1.9,19.15C360.95,348.58,361.08,345.93,361.35,343z M362.5,351.65
			c0.13-2.73,0.32-5.27,0.55-7.6c-0.2,3.4-0.32,6.98-0.35,10.75c-0.07,3.37-0.15,6.75-0.25,10.15c-0.07,1.43-0.1,2.17-0.1,2.2
			c-0.07-1.1-0.13-2.22-0.2-3.35c-0.03,0.27-0.07,0.58-0.1,0.95l-0.05,1.5c0,1.17-0.03,2.33-0.1,3.5v-1.35
			c0.03-1.57,0.1-3.13,0.2-4.7c-0.03-2.47,0.03-4.98,0.2-7.55C362.37,354.45,362.43,352.95,362.5,351.65z M360.85,365.5
			c-0.1,0.8-0.2,2.47-0.3,5c-0.03,1.5-0.1,3.02-0.2,4.55c0-1.87,0.05-3.73,0.15-5.6c0.03-0.4,0.07-0.77,0.1-1.1
			c0.17-5.23,0.43-10.25,0.8-15.05C361.33,356.77,361.15,360.83,360.85,365.5z M362.8,368.1c-0.13,5.23-0.2,10.67-0.2,16.3
			c-0.1,5.17-0.13,10.35-0.1,15.55c0,1.53-0.03,2.77-0.1,3.7c-0.2-5.5-0.25-11.05-0.15-16.65c0-2.33,0.02-4.63,0.05-6.9
			c0.07-3.27,0.17-6.42,0.3-9.45L362.8,368.1z M361.7,377.9l0.05-3.15c0,0.44,0.02,0.9,0.05,1.4
			C361.8,376.75,361.77,377.33,361.7,377.9z M360.6,385.75c-0.07,2.5-0.15,5.1-0.25,7.8c-0.07,2.87-0.1,5.75-0.1,8.65
			c-0.03,1.87-0.1,3.75-0.2,5.65c0,0.27,0.03,0.55,0.1,0.85c-0.07,0.37-0.1,0.72-0.1,1.05l0.15,10.9c-0.03-0.53-0.05-1.08-0.05-1.65
			c-0.13-3.13-0.2-6.37-0.2-9.7c0.03-3.47,0.07-6.88,0.1-10.25C360.12,394.75,360.3,390.32,360.6,385.75z M361.3,400.8
			c0.07-3.73,0.28-7.22,0.65-10.45c-0.2,4.8-0.33,9.77-0.4,14.9c-0.1,4.67-0.18,9.43-0.25,14.3c-0.02,0.55-0.04,1.01-0.05,1.4
			c0-4.44,0.02-9.08,0.05-13.9C361.3,404.78,361.3,402.7,361.3,400.8z M360.95,435c0.07,5.5,0,11.17-0.2,17
			c-0.07,1.37-0.12,2.72-0.15,4.05c-0.13,0.3-0.22,0.48-0.25,0.55c0-1.2,0.05-2.55,0.15-4.05c0.03-2.93,0.1-5.88,0.2-8.85
			C360.8,440.8,360.88,437.9,360.95,435z M360.25,436.35c0,0.03,0,0.1,0,0.2c-0.03,4.17-0.13,8.43-0.3,12.8c0,1.07,0,2.15,0,3.25
			c0,7.07-0.02,14.13-0.05,21.2c0,0.07,0,0.15,0,0.25h-0.05c0,3.43-0.03,6.83-0.1,10.2c-0.13,0-0.25-0.08-0.35-0.25
			c0.07-1.5,0.1-3.03,0.1-4.6c0.03-0.7,0.03-1.35,0-1.95c-0.07,0-0.13-0.07-0.2-0.2c0-1.4,0.02-2.77,0.05-4.1
			c0.1-3.63,0.15-7.23,0.15-10.8c-0.07-3-0.05-5.77,0.05-8.3c0,7.43,0,14.77,0,22c0.03-0.7,0.05-1.4,0.05-2.1
			c-0.03-2.1-0.02-4.22,0.05-6.35c0.03-5.8,0.03-11.67,0-17.6c0-0.4,0-0.8,0-1.2c0.07-3.2,0.18-6.3,0.35-9.3
			C360.03,438.4,360.12,437.35,360.25,436.35z M359.4,434.3c-0.13,9.6-0.2,19.42-0.2,29.45c-0.03,0.13-0.08,0.2-0.15,0.2
			c0,0.77,0.03,1.53,0.1,2.3l-0.2,10.45c0,0.97,0.02,1.97,0.05,3c-0.1,0.77-0.22,1.53-0.35,2.3c-0.1-4.87-0.08-9.77,0.05-14.7
			c0.17-4.97,0.25-10,0.25-15.1c-0.03-1.47-0.02-2.95,0.05-4.45c0.03-0.97,0.05-1.9,0.05-2.8
			C359.05,441.25,359.17,437.7,359.4,434.3z M361.05,457.6c-0.1-5.03-0.1-10.03,0-15c0.13,4.97,0.18,10,0.15,15.1
			C361.13,457.7,361.08,457.67,361.05,457.6z"/>
	</g>
</g>
</svg>
