<?xml version="1.0" encoding="utf-8"?>
<!-- Generator: Adobe Illustrator 16.0.0, SVG Export Plug-In . SVG Version: 6.00 Build 0)  -->
<!DOCTYPE svg PUBLIC "-//W3C//DTD SVG 1.1//EN" "http://www.w3.org/Graphics/SVG/1.1/DTD/svg11.dtd">
<svg version="1.1" id="Layer_1" xmlns="http://www.w3.org/2000/svg" xmlns:xlink="http://www.w3.org/1999/xlink" x="0px" y="0px"
	 width="700px" height="700px" viewBox="0 0 700 700" enable-background="new 0 0 700 700" xml:space="preserve">
<g>
	<g>
		<path fill-rule="evenodd" clip-rule="evenodd" fill="#FFFFFF" fill-opacity="0.298" d="M632.75,523.25v73.3
			c-0.6,5.13-5.07,8.57-13.4,10.3c-12.4,2-24.68,2-36.85,0c-9.63-1.83-14.38-5.38-14.25-10.65v-72.95H632.75z"/>
	</g>
	<g>
		<rect x="568.3" y="522.55" fill-rule="evenodd" clip-rule="evenodd" fill="#FFFFFF" width="64.5" height="0.7"/>
	</g>
	<g>
		<g>
			<linearGradient id="SVGID_1_" gradientUnits="userSpaceOnUse" x1="575.75" y1="550.2871" x2="626.7002" y2="550.2871">
				<stop  offset="7.843138e-003" style="stop-color:#000000;stop-opacity:0"/>
				<stop  offset="0.2863" style="stop-color:#000000;stop-opacity:0.0431"/>
				<stop  offset="0.5647" style="stop-color:#000000;stop-opacity:0.0627"/>
				<stop  offset="0.8353" style="stop-color:#000000;stop-opacity:0"/>
				<stop  offset="1" style="stop-color:#000000;stop-opacity:0"/>
			</linearGradient>
			<path fill-rule="evenodd" clip-rule="evenodd" fill="url(#SVGID_1_)" d="M626.7,491.9v112.7c-17.47,5.43-34.45,5.43-50.95,0
				V491.9H626.7z"/>
		</g>
		<g>
			<linearGradient id="SVGID_2_" gradientUnits="userSpaceOnUse" x1="598.3379" y1="549.0879" x2="603.6629" y2="549.0879">
				<stop  offset="0" style="stop-color:#FFFFFF;stop-opacity:0.1294"/>
				<stop  offset="0.5098" style="stop-color:#FFFFFF"/>
				<stop  offset="1" style="stop-color:#FFFFFF;stop-opacity:0.3922"/>
			</linearGradient>
			<path fill-rule="evenodd" clip-rule="evenodd" fill="url(#SVGID_2_)" d="M603.9,492.3v112.75c-1.9,1.1-3.8,1.1-5.7,0V492.3H603.9
				z"/>
		</g>
		<g>
			<linearGradient id="SVGID_3_" gradientUnits="userSpaceOnUse" x1="578.8496" y1="487.3828" x2="620.8496" y2="487.3828">
				<stop  offset="0" style="stop-color:#BAC1D1;stop-opacity:0.8431"/>
				<stop  offset="0.2078" style="stop-color:#AFB8C8;stop-opacity:0.5922"/>
				<stop  offset="0.4745" style="stop-color:#A5B0C0;stop-opacity:0.3176"/>
				<stop  offset="0.8039" style="stop-color:#B2BACA;stop-opacity:0.6275"/>
				<stop  offset="0.8784" style="stop-color:#B5BCCC;stop-opacity:0.5922"/>
				<stop  offset="1" style="stop-color:#BAC1D1;stop-opacity:0.8"/>
			</linearGradient>
			<path fill-rule="evenodd" clip-rule="evenodd" fill="url(#SVGID_3_)" d="M592.35,489.5c-2.7-0.13-5.15-0.32-7.35-0.55
				c-1.53-0.17-2.77-0.33-3.7-0.5c-1.63-0.3-2.45-0.67-2.45-1.1c0-0.33,0.82-0.67,2.45-1c0.93-0.17,2.17-0.33,3.7-0.5
				c4.13-0.43,9.1-0.65,14.9-0.65c5.8,0,10.73,0.22,14.8,0.65c4.13,0.43,6.2,0.88,6.2,1.35c0,0.3-0.78,0.6-2.35,0.9
				c-5.67,0.87-11.45,1.35-17.35,1.45C598.17,489.58,595.22,489.57,592.35,489.5z"/>
		</g>
		<g>
			<linearGradient id="SVGID_4_" gradientUnits="userSpaceOnUse" x1="586.1895" y1="476.957" x2="614.5" y2="476.957">
				<stop  offset="0" style="stop-color:#7E0127"/>
				<stop  offset="0.2392" style="stop-color:#98012A"/>
				<stop  offset="0.4941" style="stop-color:#A0002B"/>
				<stop  offset="0.7686" style="stop-color:#810328"/>
				<stop  offset="1" style="stop-color:#4A0218"/>
			</linearGradient>
			<path fill-rule="evenodd" clip-rule="evenodd" fill="url(#SVGID_4_)" d="M586.25,482.7v-10.25v-0.05
				c0.13-2.1,1.65-3.18,4.55-3.25c0.1,0,0.25,0,0.45,0h19.1c2.4,0.07,3.78,1.08,4.15,3.05v0.25V483c-0.2,0.73-1.2,1.15-3,1.25
				c-7.67,0.7-15.27,0.68-22.8-0.05C586.77,483.93,585.95,483.43,586.25,482.7z"/>
		</g>
		<g>
			<linearGradient id="SVGID_5_" gradientUnits="userSpaceOnUse" x1="585.3555" y1="485.2754" x2="615.2054" y2="485.2754">
				<stop  offset="0" style="stop-color:#C6B3B0"/>
				<stop  offset="0.4784" style="stop-color:#DBCFCD"/>
				<stop  offset="1" style="stop-color:#A28380"/>
			</linearGradient>
			<path fill-rule="evenodd" clip-rule="evenodd" fill="url(#SVGID_5_)" d="M585.45,485.6c-0.23-1-0.03-2,0.6-3
				c9.37,1.17,18.73,1.17,28.1,0c0.87,0.5,1.25,1.37,1.15,2.6c-0.13,1.23-0.38,1.9-0.75,2c-9.77,1-19.28,1-28.55,0
				C585.83,486.9,585.65,486.37,585.45,485.6z"/>
		</g>
		<g>
			<linearGradient id="SVGID_6_" gradientUnits="userSpaceOnUse" x1="592.9873" y1="469.3623" x2="608.1123" y2="469.3623">
				<stop  offset="0" style="stop-color:#A1002C"/>
				<stop  offset="1" style="stop-color:#4B0117"/>
			</linearGradient>
			<path fill-rule="evenodd" clip-rule="evenodd" fill="url(#SVGID_6_)" d="M592.4,469.9c-2.23-0.13-3.35-0.28-3.35-0.45
				c0-0.03,0.28-0.12,0.85-0.25c7.1-0.83,14.2-0.83,21.3,0c0.53,0.13,0.8,0.22,0.8,0.25c0,0.17-1.12,0.32-3.35,0.45
				c-2.23,0.17-4.93,0.25-8.1,0.25C597.38,470.15,594.67,470.07,592.4,469.9z"/>
		</g>
		<g>
			
				<radialGradient id="SVGID_7_" cx="587.75" cy="448.0498" r="29.3" gradientTransform="matrix(1 0 0 0.8622 0 61.7406)" gradientUnits="userSpaceOnUse">
				<stop  offset="0" style="stop-color:#A0002B"/>
				<stop  offset="0.6" style="stop-color:#75021F"/>
				<stop  offset="0.9804" style="stop-color:#980E2F"/>
			</radialGradient>
			<path fill-rule="evenodd" clip-rule="evenodd" fill="url(#SVGID_7_)" d="M596.1,469.1v-0.45c-14.97-70.6-36.27-88.2-63.9-52.8
				c-1.6,2.03-3.22,4.23-4.85,6.6c-2.63,1.43-5.08,1.3-7.35-0.4c4.17-6.03,8.23-11.15,12.2-15.35c30.4-32.53,54.18-11.73,71.35,62.4
				v0.25c-2.47,0.3-4.95,0.27-7.45-0.1V469.1z"/>
			<linearGradient id="SVGID_8_" gradientUnits="userSpaceOnUse" x1="568.2969" y1="547.9248" x2="632.7998" y2="547.9248">
				<stop  offset="0" style="stop-color:#BAC1D1;stop-opacity:0.8431"/>
				<stop  offset="0.2078" style="stop-color:#AFB8C8;stop-opacity:0.5922"/>
				<stop  offset="0.4745" style="stop-color:#A5B0C0;stop-opacity:0.3176"/>
				<stop  offset="0.8039" style="stop-color:#B2BACA;stop-opacity:0.6275"/>
				<stop  offset="0.8784" style="stop-color:#B5BCCC;stop-opacity:0.5922"/>
				<stop  offset="1" style="stop-color:#BAC1D1;stop-opacity:0.8"/>
			</linearGradient>
			<path fill-rule="evenodd" clip-rule="evenodd" fill="url(#SVGID_8_)" d="M572.8,490.9c1.83-1.9,3.92-3.08,6.25-3.55
				c13.63,1.73,27.27,1.73,40.9,0h0.2c3.13,0.4,5.83,1.58,8.1,3.55c0.3,0.2,0.6,0.45,0.9,0.75c2,1.97,3.22,4.05,3.65,6.25v0.55v11.5
				v86.75c-0.6,5.13-5.07,8.57-13.4,10.3c-12.4,2-24.68,2-36.85,0c-9.63-1.83-14.38-5.38-14.25-10.65v-97.9
				c0.6-2.3,1.77-4.47,3.5-6.5C572.13,491.58,572.47,491.23,572.8,490.9z"/>
		</g>
		<g>
			<path fill-rule="evenodd" clip-rule="evenodd" fill="#770021" d="M605.85,470.95c0-0.07,0.03-0.12,0.1-0.15
				c0.03-0.03,0.08-0.05,0.15-0.05c0.07,0,0.12,0.02,0.15,0.05s0.05,0.08,0.05,0.15v11.6c0,0.07-0.02,0.12-0.05,0.15
				s-0.08,0.05-0.15,0.05c-0.07,0-0.12-0.02-0.15-0.05c-0.07-0.03-0.1-0.08-0.1-0.15V470.95z M597.45,470.95
				c0.03,0.03,0.05,0.07,0.05,0.1v11.8c0,0.03-0.02,0.08-0.05,0.15c-0.07,0-0.13,0-0.2,0h-0.1c-0.07-0.07-0.1-0.12-0.1-0.15v-11.8
				c0-0.03,0.03-0.07,0.1-0.1c0-0.07,0.03-0.1,0.1-0.1S597.38,470.88,597.45,470.95z M601.55,471c0.03-0.07,0.08-0.1,0.15-0.1
				s0.12,0.03,0.15,0.1c0.03,0,0.05,0.03,0.05,0.1v11.65c0,0.07-0.02,0.12-0.05,0.15c-0.03,0.03-0.08,0.05-0.15,0.05
				s-0.12-0.02-0.15-0.05c-0.03-0.03-0.05-0.08-0.05-0.15V471.1C601.5,471.03,601.52,471,601.55,471z M587.85,470.35
				c0-0.03,0.02-0.07,0.05-0.1c0.03-0.07,0.08-0.1,0.15-0.1s0.12,0.03,0.15,0.1c0.03,0.03,0.05,0.07,0.05,0.1v11.4
				c0,0.07-0.02,0.12-0.05,0.15c-0.03,0.03-0.08,0.05-0.15,0.05s-0.12-0.02-0.15-0.05c-0.03-0.03-0.05-0.08-0.05-0.15V470.35z
				 M592.4,470.65c0.07,0,0.12,0.02,0.15,0.05s0.05,0.07,0.05,0.1v11.9c0,0.03-0.02,0.08-0.05,0.15c-0.03,0-0.08,0-0.15,0
				c-0.07,0-0.12,0-0.15,0c-0.03-0.07-0.05-0.12-0.05-0.15v-11.9c0-0.03,0.02-0.07,0.05-0.1S592.33,470.65,592.4,470.65z
				 M610.4,470.3c0.03-0.03,0.08-0.05,0.15-0.05c0.03,0,0.08,0.02,0.15,0.05c0.03,0.03,0.05,0.08,0.05,0.15v11.7
				c0,0.03-0.02,0.08-0.05,0.15c-0.07,0.03-0.12,0.05-0.15,0.05c-0.07,0-0.12-0.02-0.15-0.05c-0.07-0.07-0.1-0.12-0.1-0.15v-11.7
				C610.3,470.38,610.33,470.33,610.4,470.3z"/>
			<path fill-rule="evenodd" clip-rule="evenodd" fill="#FF3E73" fill-opacity="0.3294" d="M606.7,470.65
				c0.03-0.07,0.07-0.1,0.1-0.1c0.07,0,0.13,0.03,0.2,0.1c0.03,0,0.05,0.03,0.05,0.1v11.6c0,0.03-0.02,0.08-0.05,0.15
				c-0.07,0-0.13,0-0.2,0c-0.03,0-0.07,0-0.1,0c-0.07-0.07-0.1-0.12-0.1-0.15v-11.6C606.6,470.68,606.63,470.65,606.7,470.65z
				 M602.5,470.9c0.03,0.03,0.05,0.07,0.05,0.1v11.7c0,0.03-0.02,0.08-0.05,0.15c-0.03,0-0.08,0-0.15,0c-0.07,0-0.12,0-0.15,0
				c-0.03-0.07-0.05-0.12-0.05-0.15V471c0-0.03,0.02-0.07,0.05-0.1c0.03-0.07,0.08-0.1,0.15-0.1
				C602.42,470.8,602.47,470.83,602.5,470.9z M593.1,470.85c0.03-0.03,0.07-0.05,0.1-0.05c0.07,0,0.13,0.02,0.2,0.05
				c0.03,0.03,0.05,0.08,0.05,0.15v11.85c0,0.03-0.02,0.08-0.05,0.15c-0.07,0-0.13,0-0.2,0c-0.03,0-0.07,0-0.1,0
				c-0.07-0.07-0.1-0.12-0.1-0.15V471C593,470.93,593.03,470.88,593.1,470.85z M598,470.85c0.07,0,0.12,0.03,0.15,0.1
				c0.03,0.03,0.05,0.07,0.05,0.1v11.75c0,0.03-0.02,0.08-0.05,0.15c-0.03,0.03-0.08,0.05-0.15,0.05s-0.12-0.02-0.15-0.05
				c-0.03-0.07-0.05-0.12-0.05-0.15v-11.75c0-0.03,0.02-0.07,0.05-0.1C597.88,470.88,597.93,470.85,598,470.85z M588.6,470.55
				c0.03-0.03,0.08-0.05,0.15-0.05c0.03,0,0.08,0.02,0.15,0.05c0.03,0.03,0.05,0.07,0.05,0.1v11.6c0,0.07-0.02,0.12-0.05,0.15
				c-0.07,0.03-0.12,0.05-0.15,0.05c-0.07,0-0.12-0.02-0.15-0.05c-0.07-0.03-0.1-0.08-0.1-0.15v-11.6
				C588.5,470.62,588.53,470.58,588.6,470.55z M611.1,470.8c0-0.07,0.02-0.12,0.05-0.15c0.03-0.03,0.08-0.05,0.15-0.05
				s0.12,0.02,0.15,0.05c0.03,0.03,0.05,0.08,0.05,0.15v11.1c0,0.07-0.02,0.12-0.05,0.15s-0.08,0.05-0.15,0.05s-0.12-0.02-0.15-0.05
				c-0.03-0.03-0.05-0.08-0.05-0.15V470.8z"/>
		</g>
		<g>
			<path fill-rule="evenodd" clip-rule="evenodd" fill="none" d="M596.9,469.35c2.57,0.57,5.05,0.57,7.45,0"/>
			<path fill-rule="evenodd" clip-rule="evenodd" fill="none" d="M580,487.55c9.23,1.1,19.57,1.28,31,0.55"/>
			<path fill-rule="evenodd" clip-rule="evenodd" fill="none" d="M589.05,469.8c7.03,0.7,14.33,0.7,21.9,0"/>
			<path fill-rule="evenodd" clip-rule="evenodd" fill="none" d="M586.3,487.1c10,1.07,19.32,0.95,27.95-0.35"/>
			<path fill-rule="evenodd" clip-rule="evenodd" fill="none" d="M586.5,483c10,1.1,19.35,1,28.05-0.3"/>
			<path fill-rule="evenodd" clip-rule="evenodd" fill="none" d="M586.9,482.35c8.47,1.23,17.47,1.23,27,0"/>
		</g>
		<g>
			
				<radialGradient id="SVGID_9_" cx="560.0498" cy="393.8496" r="5.3" gradientTransform="matrix(1 0 0 0.8939 0 41.8001)" gradientUnits="userSpaceOnUse">
				<stop  offset="0" style="stop-color:#FFFFFF;stop-opacity:0.4627"/>
				<stop  offset="1" style="stop-color:#FBFBFB;stop-opacity:0"/>
			</radialGradient>
			<path fill-rule="evenodd" clip-rule="evenodd" fill="url(#SVGID_9_)" d="M554.9,393.05c0.03-0.07,0.12-0.12,0.25-0.15
				c2.6-0.7,5.9-0.32,9.9,1.15c0.1,0.03,0.17,0.1,0.2,0.2c0.07,0.1,0.08,0.2,0.05,0.3c-0.07,0.1-0.15,0.17-0.25,0.2
				c-0.13,0.07-0.25,0.08-0.35,0.05c-3.77-1.4-6.88-1.78-9.35-1.15c-0.1,0.03-0.22,0.02-0.35-0.05c-0.07-0.07-0.12-0.15-0.15-0.25
				C554.78,393.25,554.8,393.15,554.9,393.05z"/>
			
				<radialGradient id="SVGID_10_" cx="571.7998" cy="405.7002" r="10.425" gradientTransform="matrix(1 0 0 0.8933 0 43.2941)" gradientUnits="userSpaceOnUse">
				<stop  offset="0" style="stop-color:#FFFFFF;stop-opacity:0.4314"/>
				<stop  offset="1" style="stop-color:#FBFBFB;stop-opacity:0"/>
			</radialGradient>
			<path fill-rule="evenodd" clip-rule="evenodd" fill="url(#SVGID_10_)" d="M579.85,415.75c-0.1,0.03-0.2,0.05-0.3,0.05
				c-0.1-0.07-0.18-0.15-0.25-0.25c-3.4-7.1-8.1-12.47-14.1-16.1c-0.1-0.07-0.17-0.15-0.2-0.25c-0.03-0.1,0-0.2,0.1-0.3
				c0.07-0.1,0.15-0.17,0.25-0.2c0.1,0,0.22,0.03,0.35,0.1c6.13,3.73,10.93,9.22,14.4,16.45c0.03,0.1,0.03,0.2,0,0.3
				C580.07,415.62,579.98,415.68,579.85,415.75z"/>
			
				<radialGradient id="SVGID_11_" cx="590.4004" cy="437.0996" r="35.9125" gradientTransform="matrix(1 0 0 0.8938 0 46.4029)" gradientUnits="userSpaceOnUse">
				<stop  offset="0" style="stop-color:#FFFFFF;stop-opacity:0.498"/>
				<stop  offset="1" style="stop-color:#FBFBFB;stop-opacity:0"/>
			</radialGradient>
			<path fill-rule="evenodd" clip-rule="evenodd" fill="url(#SVGID_11_)" d="M578.85,408.25c-0.03-0.1-0.03-0.22,0-0.35
				c0.03-0.1,0.12-0.17,0.25-0.2c0.07-0.07,0.17-0.07,0.3,0c0.1,0.03,0.18,0.1,0.25,0.2c7.93,13.1,14.17,28.55,18.7,46.35
				c1.07,4.23,2.03,8.63,2.9,13.2c0.03,0.07,0.02,0.15-0.05,0.25c-0.07,0.07-0.17,0.12-0.3,0.15c-0.1,0.03-0.2,0.02-0.3-0.05
				c-0.1-0.07-0.17-0.15-0.2-0.25c-0.9-4.5-1.87-8.88-2.9-13.15C592.97,436.67,586.75,421.28,578.85,408.25z"/>
			
				<radialGradient id="SVGID_12_" cx="533.6523" cy="409.4082" r="18.8177" gradientTransform="matrix(1 0 0 0.8938 0 43.4962)" gradientUnits="userSpaceOnUse">
				<stop  offset="0" style="stop-color:#FFFFFF;stop-opacity:0.5765"/>
				<stop  offset="1" style="stop-color:#FBFBFB;stop-opacity:0"/>
			</radialGradient>
			<path fill-rule="evenodd" clip-rule="evenodd" fill="url(#SVGID_12_)" d="M545.4,396.65c0.1-0.07,0.2-0.1,0.3-0.1
				c0.13,0.03,0.23,0.1,0.3,0.2s0.08,0.2,0.05,0.3c-0.03,0.1-0.08,0.18-0.15,0.25c-3.93,2.3-8.38,6.23-13.35,11.8
				c-3.3,3.63-6.8,7.97-10.5,13c-0.07,0.07-0.17,0.12-0.3,0.15c-0.1,0.03-0.2,0.02-0.3-0.05c-0.1-0.07-0.17-0.15-0.2-0.25
				c-0.03-0.1,0-0.2,0.1-0.3c3.73-5.03,7.23-9.38,10.5-13.05C536.88,402.93,541.4,398.95,545.4,396.65z"/>
		</g>
		
			<radialGradient id="SVGID_13_" cx="65.8989" cy="17.5747" r="22.915" gradientTransform="matrix(0.2862 0 0 1.8214 600.7501 515.4503)" gradientUnits="userSpaceOnUse">
			<stop  offset="0" style="stop-color:#FFFFFF;stop-opacity:0.3647"/>
			<stop  offset="0.4078" style="stop-color:#FFFFFF;stop-opacity:0.2706"/>
			<stop  offset="1" style="stop-color:#FFFFFF;stop-opacity:0"/>
		</radialGradient>
		<path fill-rule="evenodd" clip-rule="evenodd" fill="url(#SVGID_13_)" d="M619.61,588.3c-1.56,0-2.91-4.01-4.04-12.02
			c-1.12-7.95-1.67-17.55-1.67-28.78c0-11.23,0.56-20.85,1.67-28.87c1.13-8.01,2.47-12.02,4.04-12.02c1.57,0,2.92,4.01,4.04,12.02
			s1.67,17.64,1.67,28.87c0,11.23-0.56,20.82-1.67,28.78C622.53,584.3,621.18,588.3,619.61,588.3z"/>
		
			<radialGradient id="SVGID_14_" cx="65.9009" cy="17.5752" r="22.9137" gradientTransform="matrix(0.2182 0 0 2.4436 567.2 510.7502)" gradientUnits="userSpaceOnUse">
			<stop  offset="0" style="stop-color:#FFFFFF;stop-opacity:0.3647"/>
			<stop  offset="0.3412" style="stop-color:#FFFFFF;stop-opacity:0.1569"/>
			<stop  offset="0.7451" style="stop-color:#FFFFFF;stop-opacity:0.0627"/>
			<stop  offset="1" style="stop-color:#FFFFFF;stop-opacity:0"/>
		</radialGradient>
		<path fill-rule="evenodd" clip-rule="evenodd" fill="url(#SVGID_14_)" d="M581.58,608.49c-1.19,0-2.22-5.38-3.08-16.13
			c-0.85-10.67-1.28-23.54-1.28-38.61c0-15.07,0.42-27.98,1.28-38.73c0.86-10.75,1.88-16.13,3.08-16.13c1.2,0,2.23,5.38,3.08,16.13
			s1.28,23.66,1.28,38.73c0,15.07-0.43,27.94-1.28,38.61C583.8,603.12,582.78,608.49,581.58,608.49z"/>
		
			<radialGradient id="SVGID_15_" cx="65.8989" cy="17.5742" r="22.9153" gradientTransform="matrix(0 0.1023 -0.7419 0 614.1501 484.9003)" gradientUnits="userSpaceOnUse">
			<stop  offset="0" style="stop-color:#FFFFFF;stop-opacity:0.498"/>
			<stop  offset="0.4078" style="stop-color:#FFFFFF;stop-opacity:0.2706"/>
			<stop  offset="1" style="stop-color:#FFFFFF;stop-opacity:0"/>
		</radialGradient>
		<path fill-rule="evenodd" clip-rule="evenodd" fill="url(#SVGID_15_)" d="M584.47,491.64c0-0.56,1.63-1.04,4.9-1.44
			c3.24-0.4,7.15-0.6,11.72-0.6s8.5,0.2,11.76,0.6c3.26,0.4,4.9,0.88,4.9,1.44c0,0.56-1.63,1.04-4.9,1.44
			c-3.26,0.4-7.18,0.6-11.76,0.6s-8.48-0.2-11.72-0.6C586.11,492.68,584.47,492.2,584.47,491.64z"/>
		
			<radialGradient id="SVGID_16_" cx="65.8994" cy="17.5752" r="22.9144" gradientTransform="matrix(0.2548 0.2095 -0.3153 0.3215 567.2006 476.8)" gradientUnits="userSpaceOnUse">
			<stop  offset="0" style="stop-color:#FFFFFF;stop-opacity:0.251"/>
			<stop  offset="0.5333" style="stop-color:#FFFFFF;stop-opacity:0.0471"/>
			<stop  offset="0.7451" style="stop-color:#FFFFFF;stop-opacity:0.0275"/>
			<stop  offset="1" style="stop-color:#FFFFFF;stop-opacity:0"/>
		</radialGradient>
		<path fill-rule="evenodd" clip-rule="evenodd" fill="url(#SVGID_16_)" d="M571.38,503.46c-1.39-1.14-1.9-2.84-1.51-5.08
			c0.38-2.22,1.55-4.32,3.49-6.3s4.11-3.27,6.49-3.87c2.39-0.59,4.28-0.31,5.67,0.83c1.4,1.15,1.9,2.84,1.51,5.08
			s-1.56,4.34-3.51,6.32s-4.1,3.27-6.47,3.85C574.67,504.89,572.78,504.61,571.38,503.46z"/>
		
			<radialGradient id="SVGID_17_" cx="65.8984" cy="17.5771" r="22.9138" gradientTransform="matrix(-0.2182 0.2402 -0.3785 -0.2614 644.0992 485.7504)" gradientUnits="userSpaceOnUse">
			<stop  offset="0" style="stop-color:#FFFFFF;stop-opacity:0.251"/>
			<stop  offset="0.5333" style="stop-color:#FFFFFF;stop-opacity:0.0471"/>
			<stop  offset="0.7451" style="stop-color:#FFFFFF;stop-opacity:0.0275"/>
			<stop  offset="1" style="stop-color:#FFFFFF;stop-opacity:0"/>
		</radialGradient>
		<path fill-rule="evenodd" clip-rule="evenodd" fill="url(#SVGID_17_)" d="M614.58,491.13c1.19-1.31,3.05-1.87,5.57-1.66
			c2.5,0.21,4.92,1.11,7.26,2.72s3.91,3.46,4.72,5.55c0.81,2.09,0.62,3.8-0.58,5.11c-1.2,1.32-3.06,1.88-5.57,1.66
			c-2.52-0.21-4.94-1.13-7.28-2.74c-2.33-1.61-3.9-3.46-4.7-5.54C613.19,494.15,613.38,492.45,614.58,491.13z"/>
		<g>
			<path fill-rule="evenodd" clip-rule="evenodd" fill="#FFFFFF" d="M569.25,561.35V530.4c19.6,1.07,40.4,1.07,62.4,0v30.35
				C611.15,563.32,590.35,563.52,569.25,561.35z"/>
		</g>
		<g>
			<path fill-rule="evenodd" clip-rule="evenodd" d="M609.3,537v5.4l3.7-0.15v1.15l-5.2,0.2v-6.55L609.3,537z M615.6,542.05
				l4.15-0.3v1.15l-5.65,0.35v-6.6l5.5-0.4v1.15l-4,0.25v1.45l3.7-0.2v1.1l-3.7,0.25V542.05z M623.2,537.05l-0.7,0.1v4.4l1.1-0.15
				c0.4,0,0.7-0.05,0.9-0.15c0.23-0.07,0.45-0.18,0.65-0.35c0.13-0.1,0.25-0.3,0.35-0.6c0.13-0.33,0.2-0.75,0.2-1.25
				c0-0.53-0.07-0.92-0.2-1.15c-0.1-0.27-0.23-0.47-0.4-0.6c-0.2-0.17-0.43-0.25-0.7-0.25C624.2,537.02,623.8,537.02,623.2,537.05z
				 M625.15,535.9c0.43,0.1,0.8,0.27,1.1,0.5c0.3,0.3,0.55,0.63,0.75,1c0.13,0.43,0.2,0.97,0.2,1.6c0,0.53-0.07,1-0.2,1.4
				c-0.2,0.5-0.47,0.92-0.8,1.25c-0.27,0.23-0.62,0.43-1.05,0.6c-0.33,0.13-0.77,0.23-1.3,0.3l-2.85,0.2v-6.6l2.75-0.25
				C624.35,535.87,624.82,535.87,625.15,535.9z M576.5,541.75l1.1,0.1c0.43,0.03,0.75,0.03,0.95,0c0.2-0.03,0.4-0.12,0.6-0.25
				c0.13-0.1,0.25-0.28,0.35-0.55c0.13-0.33,0.2-0.75,0.2-1.25s-0.07-0.88-0.2-1.15c-0.1-0.3-0.23-0.53-0.4-0.7
				c-0.17-0.17-0.4-0.28-0.7-0.35c-0.2-0.07-0.6-0.13-1.2-0.2h-0.7V541.75z M575,536.15l2.75,0.25c0.6,0,1.07,0.05,1.4,0.15
				c0.43,0.17,0.8,0.4,1.1,0.7c0.3,0.33,0.55,0.72,0.75,1.15c0.13,0.43,0.2,0.97,0.2,1.6c0,0.53-0.07,1-0.2,1.4
				c-0.2,0.43-0.47,0.8-0.8,1.1c-0.27,0.17-0.62,0.3-1.05,0.4c-0.33,0.1-0.77,0.13-1.3,0.1l-2.85-0.25V536.15z M583.9,536.85v6.6
				l-1.5-0.05v-6.65L583.9,536.85z M586.5,537.05c0.4-0.17,0.88-0.25,1.45-0.25c0.93,0,1.63,0.18,2.1,0.55
				c0.47,0.37,0.7,0.85,0.7,1.45l-1.45,0.1c-0.07-0.33-0.22-0.58-0.45-0.75c-0.2-0.17-0.52-0.25-0.95-0.25c-0.43,0-0.77,0.08-1,0.25
				c-0.17,0.1-0.25,0.23-0.25,0.4c0,0.17,0.08,0.3,0.25,0.4c0.2,0.17,0.65,0.32,1.35,0.45c0.73,0.17,1.28,0.33,1.65,0.5
				c0.33,0.17,0.6,0.38,0.8,0.65c0.17,0.3,0.25,0.65,0.25,1.05c0,0.4-0.1,0.77-0.3,1.1c-0.23,0.33-0.57,0.57-1,0.7
				c-0.43,0.17-0.97,0.25-1.6,0.25c-0.97,0-1.68-0.2-2.15-0.6c-0.53-0.37-0.83-0.92-0.9-1.65l1.4-0.15c0.1,0.43,0.28,0.77,0.55,1
				c0.27,0.2,0.63,0.3,1.1,0.3c0.5,0,0.85-0.1,1.05-0.3c0.27-0.17,0.4-0.38,0.4-0.65c0-0.13-0.05-0.25-0.15-0.35
				c-0.1-0.13-0.28-0.25-0.55-0.35c-0.17-0.03-0.57-0.12-1.2-0.25c-0.8-0.17-1.35-0.38-1.65-0.65c-0.47-0.37-0.7-0.82-0.7-1.35
				c0-0.33,0.1-0.65,0.3-0.95C585.78,537.4,586.1,537.18,586.5,537.05z M591.7,537.15h5.9v1.1h-2.2v5.5h-1.5v-5.5h-2.2V537.15z
				 M600,537.15v6.6h-1.5v-6.6H600z M606.7,543.65l-5.2,0.1v-6.55h1.5v5.4l3.7-0.05V543.65z M603.2,550.4v5.5l-1.5,0.05v-5.5h-2.2
				v-1.1l5.9-0.1v1.1L603.2,550.4z M597.65,555.95l-0.65-1.5l-2.95-0.05l-0.6,1.5h-1.6l2.85-6.6h1.6l2.95,6.65H597.65z
				 M606.35,549.2l5.5-0.25v1.15l-4,0.15v1.45l3.7-0.15v1.1l-3.7,0.15v1.8l4.15-0.15v1.15l-5.65,0.2V549.2z M591.8,549.25
				l-1.75,6.55h-1.6l-1.5-5.05l-1.5,4.9l-1.6-0.05l-1.75-6.7l1.5,0.05l1.15,4.6l1.35-4.45h1.75l1.3,4.7l1.15-4.55H591.8z
				 M595.5,550.85l-1,2.45h2.05L595.5,550.85z M619,553.9l0.9,1.2l-1.75,0.15l-1.1-1.35c-0.4-0.5-0.67-0.82-0.8-0.95
				c-0.13-0.13-0.28-0.2-0.45-0.2c-0.17-0.07-0.42-0.08-0.75-0.05l-0.3,0.05v2.75l-1.45,0.1V549l3.15-0.25
				c0.77-0.07,1.33-0.05,1.7,0.05c0.33,0.07,0.62,0.27,0.85,0.6c0.2,0.27,0.3,0.6,0.3,1c0,0.5-0.15,0.92-0.45,1.25
				c-0.37,0.37-0.87,0.62-1.5,0.75c0.33,0.13,0.6,0.3,0.8,0.5C618.38,553.07,618.67,553.4,619,553.9z M617.75,550.6
				c0-0.23-0.05-0.4-0.15-0.5c-0.17-0.13-0.35-0.22-0.55-0.25c-0.17,0-0.55,0.02-1.15,0.05l-1.15,0.1v1.7l1.1-0.1
				c0.73-0.03,1.18-0.08,1.35-0.15c0.17-0.07,0.32-0.18,0.45-0.35C617.72,550.97,617.75,550.8,617.75,550.6z"/>
		</g>
	</g>
</g>
</svg>
