<?xml version="1.0" encoding="utf-8"?>
<!-- Generator: Adobe Illustrator 16.0.0, SVG Export Plug-In . SVG Version: 6.00 Build 0)  -->
<!DOCTYPE svg PUBLIC "-//W3C//DTD SVG 1.1//EN" "http://www.w3.org/Graphics/SVG/1.1/DTD/svg11.dtd">
<svg version="1.1" id="Layer_1" xmlns="http://www.w3.org/2000/svg" xmlns:xlink="http://www.w3.org/1999/xlink" x="0px" y="0px"
	 width="700px" height="700px" viewBox="0 0 700 700" enable-background="new 0 0 700 700" xml:space="preserve">
<g>
	<g>
		<path fill-rule="evenodd" clip-rule="evenodd" fill="#CCCCCC" fill-opacity="0.2" d="M366.15,318.6c-0.33,2.23-0.67,6.53-1,12.9
			c-0.17,1.87-0.32,4.57-0.45,8.1h0.05c-0.27,4.97-0.47,10.78-0.6,17.45c-0.57,40.07-0.8,82.35-0.7,126.85
			c-0.57,13.23-1.62,17.75-3.15,13.55c-1.43-4.3-2.05-8.08-1.85-11.35c-0.67-54.7-0.73-97.55-0.2-128.55
			c0.23-6.57,0.58-12.45,1.05-17.65h-0.05c0.5-5.8,1.12-10.37,1.85-13.7c1.47-7.57,2.7-11.65,3.7-12.25c0.97-0.7,1.57-1.33,1.8-1.9
			l0.55-0.3c-0.2,0.17-0.25,0.48-0.15,0.95c0.03,0.43,0.02,1.53-0.05,3.3C366.72,315.47,366.45,316.33,366.15,318.6z"/>
	</g>
	<g>
		<path fill-rule="evenodd" clip-rule="evenodd" fill="#FFFFFF" d="M363.05,346c-0.03,3.07-0.13,6.18-0.3,9.35L362.7,357
			c-0.2-3-0.22-6.28-0.05-9.85c0.1-1.47,0.2-2.75,0.3-3.85c0.1-2.43,0.22-4.75,0.35-6.95C363.2,339.55,363.12,342.77,363.05,346z
			 M361.4,336.55c0.27-3.9,0.67-7.58,1.2-11.05c0.47-2.33,0.93-5.33,1.4-9c-0.1,1.2-0.27,2.68-0.5,4.45
			c-1.07,7.23-1.78,14.92-2.15,23.05C361.18,341.87,361.2,339.38,361.4,336.55z M364.25,328.75c-0.1-1.7,0.05-3.28,0.45-4.75
			c0,1.4-0.12,2.95-0.35,4.65L364.25,328.75z M360.6,362.65c-0.03,0.8-0.1,2.52-0.2,5.15c-0.17,4.63-0.28,9.2-0.35,13.7
			c-0.03-0.4-0.05-0.77-0.05-1.1c-0.1-4.47-0.03-9.05,0.2-13.75c0-0.4,0.02-0.77,0.05-1.1c0.2-5.37,0.48-10.58,0.85-15.65
			C361.17,353.67,361,357.92,360.6,362.65z M362,365.7c0.03-1.9,0.18-3.78,0.45-5.65c-0.07,1.33-0.13,2.72-0.2,4.15
			c0,0.8-0.03,1.62-0.1,2.45c-0.07,1.83-0.12,3.65-0.15,5.45c0-0.3,0-0.58,0-0.85C361.93,369.42,361.93,367.57,362,365.7z
			 M362.7,384.15c0-3.5,0.02-6.95,0.05-10.35c0.17-1.77,0.25-2.7,0.25-2.8c-0.1,5.8-0.15,11.67-0.15,17.6c0.07,5.6,0.07,11.27,0,17
			c0.07,1.7,0.05,3.02-0.05,3.95c-0.13-6-0.18-12.02-0.15-18.05C362.65,389.07,362.67,386.62,362.7,384.15z M361.35,413.9
			c0.03-3.8,0.18-7.45,0.45-10.95c-0.07,5.2-0.15,10.47-0.25,15.8c-0.07,3.27-0.12,6.62-0.15,10.05c-0.03-2.77-0.07-5.58-0.1-8.45
			C361.3,417.98,361.32,415.83,361.35,413.9z M360,403.3c-0.03,3.37-0.07,6.72-0.1,10.05c-0.03,2.23-0.08,4.45-0.15,6.65
			c0,6.03,0.07,12.08,0.2,18.15c-0.13-1.7-0.22-3.43-0.25-5.2c-0.13-3.63-0.18-7.4-0.15-11.3c0-3.93,0.02-7.83,0.05-11.7
			c0.1-6.43,0.33-13.03,0.7-19.8C360.2,394.45,360.1,398.83,360,403.3z M359.6,452.6c0.03-2.8,0.13-5.52,0.3-8.15
			c0,2.3-0.02,4.6-0.05,6.9c0.03-1.03,0.07-2.02,0.1-2.95c0.07-1.17,0.13-2.27,0.2-3.3c0,0.23,0.02,0.48,0.05,0.75
			c0,4.13-0.07,8.33-0.2,12.6c0.03,1.1,0.05,2.22,0.05,3.35c-0.03,6.73-0.05,13.58-0.05,20.55c0,0.07,0,0.18,0,0.35h-0.05
			c0.03,1.07,0.05,2.17,0.05,3.3c-0.17,0.07-0.3-0.02-0.4-0.25v-0.15c-0.03-0.27-0.03-0.55,0-0.85c-0.13,0.07-0.23,0.18-0.3,0.35
			c-0.03-3.13-0.02-6.28,0.05-9.45c0.03-0.8,0.05-1.58,0.05-2.35v-0.45c0-0.07,0-0.17,0-0.3l0.15-10.6c0-0.97,0-1.83,0-2.6
			c0-1.7,0.02-3.38,0.05-5.05V452.6z M361.55,466.35c-0.07-0.2-0.1-0.38-0.1-0.55l-0.05-1.5c0-0.97,0-1.92,0-2.85
			C361.43,463.08,361.48,464.72,361.55,466.35z M361.45,467.6c0,2.9,0.03,5.82,0.1,8.75c0-0.47,0.02-0.93,0.05-1.4
			c0-1.08,0.01-2.17,0.03-3.28l0.03,7.03c-0.03-0.07-0.1-0.2-0.2-0.4c0-0.13,0.03-0.3,0.1-0.5c-0.07,0.07-0.1,0.13-0.1,0.2
			c-0.07,0.1-0.13,0.13-0.2,0.1c0-1.07,0.02-2.12,0.05-3.15c0.03-2.23,0.07-4.45,0.1-6.65C361.4,468.07,361.42,467.83,361.45,467.6z
			"/>
	</g>
</g>
</svg>
