<?xml version="1.0" encoding="utf-8"?>
<!-- Generator: Adobe Illustrator 16.0.0, SVG Export Plug-In . SVG Version: 6.00 Build 0)  -->
<!DOCTYPE svg PUBLIC "-//W3C//DTD SVG 1.1//EN" "http://www.w3.org/Graphics/SVG/1.1/DTD/svg11.dtd">
<svg version="1.1" id="Layer_1" xmlns="http://www.w3.org/2000/svg" xmlns:xlink="http://www.w3.org/1999/xlink" x="0px" y="0px"
	 width="126px" height="227px" viewBox="0 0 126 227" enable-background="new 0 0 126 227" xml:space="preserve">
<g>
	<g>
		<path fill-rule="evenodd" clip-rule="evenodd" fill="#FFFFFF" fill-opacity="0.3373" d="M119.1,122.35v86.75
			c-0.6,5.13-5.07,8.57-13.4,10.3c-12.4,2-24.68,2-36.85,0c-9.63-1.83-14.38-5.38-14.25-10.65V114h64.5V122.35z"/>
	</g>
	<g>
		<g>
			<linearGradient id="SVGID_1_" gradientUnits="userSpaceOnUse" x1="62.0498" y1="163.0879" x2="113" y2="163.0879">
				<stop  offset="7.843138e-003" style="stop-color:#000000;stop-opacity:0"/>
				<stop  offset="0.2863" style="stop-color:#000000;stop-opacity:0.0431"/>
				<stop  offset="0.5647" style="stop-color:#000000;stop-opacity:0.0627"/>
				<stop  offset="0.8353" style="stop-color:#000000;stop-opacity:0"/>
				<stop  offset="1" style="stop-color:#000000;stop-opacity:0"/>
			</linearGradient>
			<path fill-rule="evenodd" clip-rule="evenodd" fill="url(#SVGID_1_)" d="M62.05,104.7H113v112.7c-17.47,5.43-34.45,5.43-50.95,0
				V104.7z"/>
		</g>
		<g>
			<linearGradient id="SVGID_2_" gradientUnits="userSpaceOnUse" x1="84.6377" y1="161.8877" x2="89.9627" y2="161.8877">
				<stop  offset="0" style="stop-color:#FFFFFF;stop-opacity:0.1412"/>
				<stop  offset="0.5098" style="stop-color:#FFFFFF"/>
				<stop  offset="1" style="stop-color:#FFFFFF;stop-opacity:0.3922"/>
			</linearGradient>
			<path fill-rule="evenodd" clip-rule="evenodd" fill="url(#SVGID_2_)" d="M90.2,105.1v112.75c-1.9,1.1-3.8,1.1-5.7,0V105.1H90.2z"
				/>
		</g>
		<g>
			<linearGradient id="SVGID_3_" gradientUnits="userSpaceOnUse" x1="65.1504" y1="100.1836" x2="107.1504" y2="100.1836">
				<stop  offset="0" style="stop-color:#BAC1D1;stop-opacity:0.8431"/>
				<stop  offset="0.2078" style="stop-color:#AFB8C8;stop-opacity:0.5922"/>
				<stop  offset="0.4745" style="stop-color:#A5B0C0;stop-opacity:0.3294"/>
				<stop  offset="0.8039" style="stop-color:#B2BACA;stop-opacity:0.6275"/>
				<stop  offset="0.8784" style="stop-color:#B5BCCC;stop-opacity:0.5922"/>
				<stop  offset="1" style="stop-color:#BAC1D1;stop-opacity:0.8"/>
			</linearGradient>
			<path fill-rule="evenodd" clip-rule="evenodd" fill="url(#SVGID_3_)" d="M71.3,101.75c-1.53-0.17-2.77-0.33-3.7-0.5
				c-1.63-0.3-2.45-0.67-2.45-1.1c0-0.33,0.82-0.67,2.45-1c0.93-0.17,2.17-0.33,3.7-0.5C75.43,98.22,80.4,98,86.2,98
				s10.73,0.22,14.8,0.65c4.13,0.43,6.2,0.88,6.2,1.35c0,0.3-0.78,0.6-2.35,0.9c-5.67,0.87-11.45,1.35-17.35,1.45
				c-3.03,0.03-5.98,0.02-8.85-0.05C75.95,102.17,73.5,101.98,71.3,101.75z"/>
		</g>
		<g>
			<linearGradient id="SVGID_4_" gradientUnits="userSpaceOnUse" x1="72.4893" y1="89.7568" x2="100.7998" y2="89.7568">
				<stop  offset="0" style="stop-color:#7E0127"/>
				<stop  offset="0.2392" style="stop-color:#98012A"/>
				<stop  offset="0.4941" style="stop-color:#A0002B"/>
				<stop  offset="0.7686" style="stop-color:#810328"/>
				<stop  offset="1" style="stop-color:#4A0218"/>
			</linearGradient>
			<path fill-rule="evenodd" clip-rule="evenodd" fill="url(#SVGID_4_)" d="M100.8,85.25V95.8c-0.2,0.73-1.2,1.15-3,1.25
				C90.13,97.75,82.53,97.73,75,97c-1.93-0.27-2.75-0.77-2.45-1.5V85.25V85.2c0.13-2.1,1.65-3.18,4.55-3.25c0.1,0,0.25,0,0.45,0
				h19.1c2.4,0.07,3.78,1.08,4.15,3.05V85.25z"/>
		</g>
		<g>
			<linearGradient id="SVGID_5_" gradientUnits="userSpaceOnUse" x1="71.6553" y1="98.0752" x2="101.5053" y2="98.0752">
				<stop  offset="0" style="stop-color:#C6B3B0"/>
				<stop  offset="0.4784" style="stop-color:#DBCFCD"/>
				<stop  offset="1" style="stop-color:#A28380"/>
			</linearGradient>
			<path fill-rule="evenodd" clip-rule="evenodd" fill="url(#SVGID_5_)" d="M72.35,95.4c9.37,1.17,18.73,1.17,28.1,0
				c0.87,0.5,1.25,1.37,1.15,2.6c-0.13,1.23-0.38,1.9-0.75,2c-9.77,1-19.28,1-28.55,0c-0.17-0.3-0.35-0.83-0.55-1.6
				C71.52,97.4,71.72,96.4,72.35,95.4z"/>
		</g>
		<g>
			<linearGradient id="SVGID_6_" gradientUnits="userSpaceOnUse" x1="79.2871" y1="82.1626" x2="94.4121" y2="82.1626">
				<stop  offset="0" style="stop-color:#A1002C"/>
				<stop  offset="1" style="stop-color:#4B0117"/>
			</linearGradient>
			<path fill-rule="evenodd" clip-rule="evenodd" fill="url(#SVGID_6_)" d="M76.2,82c7.1-0.83,14.2-0.83,21.3,0
				c0.53,0.13,0.8,0.22,0.8,0.25c0,0.17-1.12,0.32-3.35,0.45c-2.23,0.17-4.93,0.25-8.1,0.25c-3.17,0-5.88-0.08-8.15-0.25
				c-2.23-0.13-3.35-0.28-3.35-0.45C75.35,82.22,75.63,82.13,76.2,82z"/>
		</g>
		<g>
			
				<radialGradient id="SVGID_7_" cx="74.0498" cy="60.8501" r="29.3" gradientTransform="matrix(1 0 0 0.8622 0 8.3851)" gradientUnits="userSpaceOnUse">
				<stop  offset="0" style="stop-color:#A0002B"/>
				<stop  offset="0.6" style="stop-color:#75021F"/>
				<stop  offset="0.9804" style="stop-color:#980E2F"/>
			</radialGradient>
			<path fill-rule="evenodd" clip-rule="evenodd" fill="url(#SVGID_7_)" d="M89.85,82.15c-2.47,0.3-4.95,0.27-7.45-0.1V81.9v-0.45
				c-14.97-70.6-36.27-88.2-63.9-52.8c-1.6,2.03-3.22,4.23-4.85,6.6c-2.63,1.43-5.08,1.3-7.35-0.4c4.17-6.03,8.23-11.15,12.2-15.35
				C48.9-13.03,72.68,7.77,89.85,81.9V82.15z"/>
			<linearGradient id="SVGID_8_" gradientUnits="userSpaceOnUse" x1="54.5972" y1="160.7246" x2="119.0996" y2="160.7246">
				<stop  offset="0" style="stop-color:#BAC1D1;stop-opacity:0.8431"/>
				<stop  offset="0.2078" style="stop-color:#AFB8C8;stop-opacity:0.5922"/>
				<stop  offset="0.4745" style="stop-color:#A5B0C0;stop-opacity:0.3294"/>
				<stop  offset="0.8039" style="stop-color:#B2BACA;stop-opacity:0.6275"/>
				<stop  offset="0.8784" style="stop-color:#B5BCCC;stop-opacity:0.5922"/>
				<stop  offset="1" style="stop-color:#BAC1D1;stop-opacity:0.8"/>
			</linearGradient>
			<path fill-rule="evenodd" clip-rule="evenodd" fill="url(#SVGID_8_)" d="M119.1,111.25v11.5v86.75c-0.6,5.13-5.07,8.57-13.4,10.3
				c-12.4,2-24.68,2-36.85,0c-9.63-1.83-14.38-5.38-14.25-10.65v-97.9c0.6-2.3,1.77-4.47,3.5-6.5c0.33-0.37,0.67-0.72,1-1.05
				c1.83-1.9,3.92-3.08,6.25-3.55c13.63,1.73,27.27,1.73,40.9,0h0.2c3.13,0.4,5.83,1.58,8.1,3.55c0.3,0.2,0.6,0.45,0.9,0.75
				c2,1.97,3.22,4.05,3.65,6.25V111.25z M106.6,116.25c-0.1-0.13-0.25-0.13-0.45,0c0.1,0,0.2,0,0.3,0
				C106.52,116.25,106.57,116.25,106.6,116.25z"/>
			<path fill-rule="evenodd" clip-rule="evenodd" fill="#FFFFFF" d="M106.6,116.25c-0.03,0-0.08,0-0.15,0c-0.1,0-0.2,0-0.3,0
				C106.35,116.12,106.5,116.12,106.6,116.25z"/>
		</g>
		<g>
			<path fill-rule="evenodd" clip-rule="evenodd" fill="#770021" d="M83.55,83.65c0.07,0,0.13,0.03,0.2,0.1
				c0.03,0.03,0.05,0.07,0.05,0.1v11.8c0,0.03-0.02,0.08-0.05,0.15c-0.07,0-0.13,0-0.2,0h-0.1c-0.07-0.07-0.1-0.12-0.1-0.15v-11.8
				c0-0.03,0.03-0.07,0.1-0.1C83.45,83.68,83.48,83.65,83.55,83.65z M87.8,83.9c0-0.07,0.02-0.1,0.05-0.1
				c0.03-0.07,0.08-0.1,0.15-0.1s0.12,0.03,0.15,0.1c0.03,0,0.05,0.03,0.05,0.1v11.65c0,0.07-0.02,0.12-0.05,0.15
				c-0.03,0.03-0.08,0.05-0.15,0.05s-0.12-0.02-0.15-0.05c-0.03-0.03-0.05-0.08-0.05-0.15V83.9z M92.25,83.6
				c0.03-0.03,0.08-0.05,0.15-0.05c0.07,0,0.12,0.02,0.15,0.05s0.05,0.08,0.05,0.15v11.6c0,0.07-0.02,0.12-0.05,0.15
				s-0.08,0.05-0.15,0.05c-0.07,0-0.12-0.02-0.15-0.05c-0.07-0.03-0.1-0.08-0.1-0.15v-11.6C92.15,83.68,92.18,83.63,92.25,83.6z
				 M74.5,83.05c0.03,0.03,0.05,0.07,0.05,0.1v11.4c0,0.07-0.02,0.12-0.05,0.15c-0.03,0.03-0.08,0.05-0.15,0.05
				c-0.07,0-0.12-0.02-0.15-0.05c-0.03-0.03-0.05-0.08-0.05-0.15v-11.4c0-0.03,0.02-0.07,0.05-0.1c0.03-0.07,0.08-0.1,0.15-0.1
				C74.42,82.95,74.47,82.98,74.5,83.05z M97,83.1c0.03,0.03,0.05,0.08,0.05,0.15v11.7c0,0.03-0.02,0.08-0.05,0.15
				c-0.07,0.03-0.12,0.05-0.15,0.05c-0.07,0-0.12-0.02-0.15-0.05c-0.07-0.07-0.1-0.12-0.1-0.15v-11.7c0-0.07,0.03-0.12,0.1-0.15
				c0.03-0.03,0.08-0.05,0.15-0.05C96.88,83.05,96.93,83.07,97,83.1z M78.55,83.5c0.03-0.03,0.08-0.05,0.15-0.05
				s0.12,0.02,0.15,0.05c0.03,0.03,0.05,0.07,0.05,0.1v11.9c0,0.03-0.02,0.08-0.05,0.15c-0.03,0-0.08,0-0.15,0s-0.12,0-0.15,0
				c-0.03-0.07-0.05-0.12-0.05-0.15V83.6C78.5,83.57,78.52,83.53,78.55,83.5z"/>
			<path fill-rule="evenodd" clip-rule="evenodd" fill="#FF3E73" fill-opacity="0.3412" d="M92.9,83.55c0-0.07,0.03-0.1,0.1-0.1
				c0.03-0.07,0.07-0.1,0.1-0.1c0.07,0,0.13,0.03,0.2,0.1c0.03,0,0.05,0.03,0.05,0.1v11.6c0,0.03-0.02,0.08-0.05,0.15
				c-0.07,0-0.13,0-0.2,0c-0.03,0-0.07,0-0.1,0c-0.07-0.07-0.1-0.12-0.1-0.15V83.55z M84.1,83.85c0-0.03,0.02-0.07,0.05-0.1
				c0.03-0.07,0.08-0.1,0.15-0.1s0.12,0.03,0.15,0.1c0.03,0.03,0.05,0.07,0.05,0.1V95.6c0,0.03-0.02,0.08-0.05,0.15
				c-0.03,0.03-0.08,0.05-0.15,0.05s-0.12-0.02-0.15-0.05c-0.03-0.07-0.05-0.12-0.05-0.15V83.85z M97.6,83.4
				c0.07,0,0.12,0.02,0.15,0.05c0.03,0.03,0.05,0.08,0.05,0.15v11.1c0,0.07-0.02,0.12-0.05,0.15s-0.08,0.05-0.15,0.05
				c-0.07,0-0.12-0.02-0.15-0.05s-0.05-0.08-0.05-0.15V83.6c0-0.07,0.02-0.12,0.05-0.15C97.48,83.42,97.53,83.4,97.6,83.4z
				 M88.45,83.8c0-0.03,0.02-0.07,0.05-0.1c0.03-0.07,0.08-0.1,0.15-0.1c0.07,0,0.12,0.03,0.15,0.1c0.03,0.03,0.05,0.07,0.05,0.1
				v11.7c0,0.03-0.02,0.08-0.05,0.15c-0.03,0-0.08,0-0.15,0c-0.07,0-0.12,0-0.15,0c-0.03-0.07-0.05-0.12-0.05-0.15V83.8z M79.5,83.6
				c0.07,0,0.13,0.02,0.2,0.05c0.03,0.03,0.05,0.08,0.05,0.15v11.85c0,0.03-0.02,0.08-0.05,0.15c-0.07,0-0.13,0-0.2,0
				c-0.03,0-0.07,0-0.1,0c-0.07-0.07-0.1-0.12-0.1-0.15V83.8c0-0.07,0.03-0.12,0.1-0.15C79.43,83.62,79.47,83.6,79.5,83.6z
				 M75.05,83.3c0.03,0,0.08,0.02,0.15,0.05c0.03,0.03,0.05,0.07,0.05,0.1v11.6c0,0.07-0.02,0.12-0.05,0.15
				c-0.07,0.03-0.12,0.05-0.15,0.05c-0.07,0-0.12-0.02-0.15-0.05c-0.07-0.03-0.1-0.08-0.1-0.15v-11.6c0-0.03,0.03-0.07,0.1-0.1
				C74.93,83.32,74.98,83.3,75.05,83.3z"/>
		</g>
		<g>
			<path fill-rule="evenodd" clip-rule="evenodd" fill="none" d="M73.2,95.15c8.47,1.23,17.47,1.23,27,0"/>
			<path fill-rule="evenodd" clip-rule="evenodd" fill="none" d="M72.8,95.8c10,1.1,19.35,1,28.05-0.3"/>
			<path fill-rule="evenodd" clip-rule="evenodd" fill="none" d="M72.6,99.9c10,1.07,19.32,0.95,27.95-0.35"/>
			<path fill-rule="evenodd" clip-rule="evenodd" fill="none" d="M83.2,82.15c2.57,0.57,5.05,0.57,7.45,0"/>
			<path fill-rule="evenodd" clip-rule="evenodd" fill="none" d="M75.35,82.6c7.03,0.7,14.33,0.7,21.9,0"/>
			<path fill-rule="evenodd" clip-rule="evenodd" fill="none" d="M66.3,100.35c9.23,1.1,19.57,1.28,31,0.55"/>
		</g>
		<g>
			
				<radialGradient id="SVGID_9_" cx="76.7002" cy="49.8999" r="35.9125" gradientTransform="matrix(1 0 0 0.8938 0 5.2974)" gradientUnits="userSpaceOnUse">
				<stop  offset="0" style="stop-color:#FFFFFF;stop-opacity:0.5098"/>
				<stop  offset="1" style="stop-color:#FBFBFB;stop-opacity:0"/>
			</radialGradient>
			<path fill-rule="evenodd" clip-rule="evenodd" fill="url(#SVGID_9_)" d="M65.7,20.5c0.1,0.03,0.18,0.1,0.25,0.2
				c7.93,13.1,14.17,28.55,18.7,46.35c1.07,4.23,2.03,8.63,2.9,13.2c0.03,0.07,0.02,0.15-0.05,0.25c-0.07,0.07-0.17,0.12-0.3,0.15
				c-0.1,0.03-0.2,0.02-0.3-0.05c-0.1-0.07-0.17-0.15-0.2-0.25c-0.9-4.5-1.87-8.88-2.9-13.15c-4.53-17.73-10.75-33.12-18.65-46.15
				c-0.03-0.1-0.03-0.22,0-0.35c0.03-0.1,0.12-0.17,0.25-0.2C65.47,20.43,65.57,20.43,65.7,20.5z"/>
			
				<radialGradient id="SVGID_10_" cx="58.1001" cy="18.5" r="10.425" gradientTransform="matrix(1 0 0 0.8933 0 1.9742)" gradientUnits="userSpaceOnUse">
				<stop  offset="0" style="stop-color:#FFFFFF;stop-opacity:0.4314"/>
				<stop  offset="1" style="stop-color:#FBFBFB;stop-opacity:0"/>
			</radialGradient>
			<path fill-rule="evenodd" clip-rule="evenodd" fill="url(#SVGID_10_)" d="M66.4,28.35c-0.03,0.07-0.12,0.13-0.25,0.2
				c-0.1,0.03-0.2,0.05-0.3,0.05c-0.1-0.07-0.18-0.15-0.25-0.25c-3.4-7.1-8.1-12.47-14.1-16.1c-0.1-0.07-0.17-0.15-0.2-0.25
				c-0.03-0.1,0-0.2,0.1-0.3c0.07-0.1,0.15-0.17,0.25-0.2c0.1,0,0.22,0.03,0.35,0.1c6.13,3.73,10.93,9.22,14.4,16.45
				C66.43,28.15,66.43,28.25,66.4,28.35z"/>
			
				<radialGradient id="SVGID_11_" cx="46.3501" cy="6.6499" r="5.3" gradientTransform="matrix(1 0 0 0.8939 0 0.7058)" gradientUnits="userSpaceOnUse">
				<stop  offset="0" style="stop-color:#FFFFFF;stop-opacity:0.4627"/>
				<stop  offset="1" style="stop-color:#FBFBFB;stop-opacity:0"/>
			</radialGradient>
			<path fill-rule="evenodd" clip-rule="evenodd" fill="url(#SVGID_11_)" d="M41.2,5.85c0.03-0.07,0.12-0.12,0.25-0.15
				c2.6-0.7,5.9-0.32,9.9,1.15c0.1,0.03,0.17,0.1,0.2,0.2c0.07,0.1,0.08,0.2,0.05,0.3c-0.07,0.1-0.15,0.17-0.25,0.2
				C51.22,7.62,51.1,7.63,51,7.6c-3.77-1.4-6.88-1.78-9.35-1.15c-0.1,0.03-0.22,0.02-0.35-0.05c-0.07-0.07-0.12-0.15-0.15-0.25
				C41.08,6.05,41.1,5.95,41.2,5.85z"/>
			
				<radialGradient id="SVGID_12_" cx="19.9521" cy="22.2085" r="18.8173" gradientTransform="matrix(1 0 0 0.8938 0 2.3595)" gradientUnits="userSpaceOnUse">
				<stop  offset="0" style="stop-color:#FFFFFF;stop-opacity:0.5765"/>
				<stop  offset="1" style="stop-color:#FBFBFB;stop-opacity:0"/>
			</radialGradient>
			<path fill-rule="evenodd" clip-rule="evenodd" fill="url(#SVGID_12_)" d="M31.7,9.45c0.1-0.07,0.2-0.1,0.3-0.1
				c0.13,0.03,0.23,0.1,0.3,0.2c0.07,0.1,0.08,0.2,0.05,0.3s-0.08,0.18-0.15,0.25c-3.93,2.3-8.38,6.23-13.35,11.8
				c-3.3,3.63-6.8,7.97-10.5,13c-0.07,0.07-0.17,0.12-0.3,0.15c-0.1,0.03-0.2,0.02-0.3-0.05s-0.17-0.15-0.2-0.25
				c-0.03-0.1,0-0.2,0.1-0.3c3.73-5.03,7.23-9.38,10.5-13.05C23.18,15.73,27.7,11.75,31.7,9.45z"/>
		</g>
		
			<radialGradient id="SVGID_13_" cx="-172.103" cy="-119.4258" r="22.9162" gradientTransform="matrix(0.2862 0 0 1.8214 155.1642 377.7743)" gradientUnits="userSpaceOnUse">
			<stop  offset="0" style="stop-color:#FFFFFF;stop-opacity:0.3765"/>
			<stop  offset="0.4078" style="stop-color:#FFFFFF;stop-opacity:0.2706"/>
			<stop  offset="1" style="stop-color:#FFFFFF;stop-opacity:0"/>
		</radialGradient>
		<path fill-rule="evenodd" clip-rule="evenodd" fill="url(#SVGID_13_)" d="M105.91,201.1c-1.56,0-2.91-4.01-4.04-12.02
			c-1.12-7.95-1.67-17.55-1.67-28.78c0-11.23,0.56-20.85,1.67-28.87c1.13-8.01,2.47-12.02,4.04-12.02c1.57,0,2.92,4.01,4.04,12.02
			s1.67,17.64,1.67,28.87c0,11.23-0.56,20.82-1.67,28.78C108.83,197.1,107.48,201.1,105.91,201.1z"/>
		
			<radialGradient id="SVGID_14_" cx="-172.0996" cy="-119.4248" r="22.914" gradientTransform="matrix(0.2182 0 0 2.4436 105.4207 458.3237)" gradientUnits="userSpaceOnUse">
			<stop  offset="0" style="stop-color:#FFFFFF;stop-opacity:0.3765"/>
			<stop  offset="0.3412" style="stop-color:#FFFFFF;stop-opacity:0.1686"/>
			<stop  offset="0.7451" style="stop-color:#FFFFFF;stop-opacity:0.0627"/>
			<stop  offset="1" style="stop-color:#FFFFFF;stop-opacity:0"/>
		</radialGradient>
		<path fill-rule="evenodd" clip-rule="evenodd" fill="url(#SVGID_14_)" d="M67.88,221.29c-1.19,0-2.22-5.38-3.08-16.13
			c-0.85-10.67-1.28-23.54-1.28-38.61c0-15.07,0.42-27.98,1.28-38.73c0.86-10.75,1.88-16.13,3.08-16.13c1.2,0,2.23,5.38,3.08,16.13
			s1.28,23.66,1.28,38.73c0,15.07-0.43,27.94-1.28,38.61C70.1,215.92,69.08,221.29,67.88,221.29z"/>
		
			<radialGradient id="SVGID_15_" cx="-172.0977" cy="-119.4248" r="22.913" gradientTransform="matrix(0 0.1023 -0.7419 0 -1.1936 122.0389)" gradientUnits="userSpaceOnUse">
			<stop  offset="0" style="stop-color:#FFFFFF;stop-opacity:0.498"/>
			<stop  offset="0.4078" style="stop-color:#FFFFFF;stop-opacity:0.2706"/>
			<stop  offset="1" style="stop-color:#FFFFFF;stop-opacity:0"/>
		</radialGradient>
		<path fill-rule="evenodd" clip-rule="evenodd" fill="url(#SVGID_15_)" d="M70.77,104.44c0-0.56,1.63-1.04,4.9-1.44
			c3.24-0.4,7.15-0.6,11.72-0.6s8.5,0.2,11.76,0.6c3.26,0.4,4.9,0.88,4.9,1.44c0,0.56-1.63,1.04-4.9,1.44
			c-3.26,0.4-7.18,0.6-11.76,0.6s-8.48-0.2-11.72-0.6C72.41,105.48,70.77,105,70.77,104.44z"/>
		
			<radialGradient id="SVGID_16_" cx="-172.0996" cy="-119.4248" r="22.914" gradientTransform="matrix(0.2548 0.2095 -0.3153 0.3215 70.9382 183.4943)" gradientUnits="userSpaceOnUse">
			<stop  offset="0" style="stop-color:#FFFFFF;stop-opacity:0.251"/>
			<stop  offset="0.5333" style="stop-color:#FFFFFF;stop-opacity:0.0471"/>
			<stop  offset="0.7451" style="stop-color:#FFFFFF;stop-opacity:0.0275"/>
			<stop  offset="1" style="stop-color:#FFFFFF;stop-opacity:0"/>
		</radialGradient>
		<path fill-rule="evenodd" clip-rule="evenodd" fill="url(#SVGID_16_)" d="M57.68,116.26c-1.39-1.15-1.9-2.84-1.51-5.08
			c0.38-2.22,1.55-4.32,3.49-6.3c1.94-1.98,4.11-3.27,6.49-3.87c2.39-0.59,4.28-0.31,5.67,0.83c1.4,1.15,1.9,2.84,1.51,5.08
			s-1.56,4.34-3.51,6.32s-4.1,3.27-6.47,3.85C60.97,117.69,59.08,117.42,57.68,116.26z"/>
		
			<radialGradient id="SVGID_17_" cx="-172.0996" cy="-119.4229" r="22.9128" gradientTransform="matrix(-0.2182 0.2402 -0.3785 -0.2614 26.6261 119.9219)" gradientUnits="userSpaceOnUse">
			<stop  offset="0" style="stop-color:#FFFFFF;stop-opacity:0.251"/>
			<stop  offset="0.5333" style="stop-color:#FFFFFF;stop-opacity:0.0471"/>
			<stop  offset="0.7451" style="stop-color:#FFFFFF;stop-opacity:0.0275"/>
			<stop  offset="1" style="stop-color:#FFFFFF;stop-opacity:0"/>
		</radialGradient>
		<path fill-rule="evenodd" clip-rule="evenodd" fill="url(#SVGID_17_)" d="M100.88,103.93c1.19-1.31,3.05-1.87,5.57-1.66
			c2.5,0.2,4.92,1.11,7.26,2.72s3.91,3.46,4.72,5.55c0.81,2.1,0.62,3.8-0.58,5.11c-1.2,1.32-3.06,1.88-5.57,1.66
			c-2.52-0.21-4.94-1.13-7.28-2.74c-2.33-1.61-3.9-3.46-4.7-5.54C99.49,106.95,99.68,105.25,100.88,103.93z"/>
		<g>
			<path fill-rule="evenodd" clip-rule="evenodd" fill="#FFFFFF" d="M117.95,173.55c-20.5,2.57-41.3,2.77-62.4,0.6V143.2
				c19.6,1.07,40.4,1.07,62.4,0V173.55z"/>
		</g>
		<g>
			<path fill-rule="evenodd" clip-rule="evenodd" d="M110.05,148.7c0.6-0.03,1.07-0.03,1.4,0c0.43,0.1,0.8,0.27,1.1,0.5
				c0.3,0.3,0.55,0.63,0.75,1c0.13,0.43,0.2,0.97,0.2,1.6c0,0.53-0.07,1-0.2,1.4c-0.2,0.5-0.47,0.92-0.8,1.25
				c-0.27,0.23-0.62,0.43-1.05,0.6c-0.33,0.13-0.77,0.23-1.3,0.3l-2.85,0.2v-6.6L110.05,148.7z M110.7,149.85
				c-0.2-0.03-0.6-0.03-1.2,0l-0.7,0.1v4.4l1.1-0.15c0.4,0,0.7-0.05,0.9-0.15c0.23-0.07,0.45-0.18,0.65-0.35
				c0.13-0.1,0.25-0.3,0.35-0.6c0.13-0.33,0.2-0.75,0.2-1.25c0-0.53-0.07-0.92-0.2-1.15c-0.1-0.27-0.23-0.47-0.4-0.6
				C111.2,149.93,110.97,149.85,110.7,149.85z M106.05,155.7l-5.65,0.35v-6.6l5.5-0.4v1.15l-4,0.25v1.45l3.7-0.2v1.1l-3.7,0.25v1.8
				l4.15-0.3V155.7z M105.3,162.2c0.2,0.27,0.3,0.6,0.3,1c0,0.5-0.15,0.92-0.45,1.25c-0.37,0.37-0.87,0.62-1.5,0.75
				c0.33,0.13,0.6,0.3,0.8,0.5c0.23,0.17,0.52,0.5,0.85,1l0.9,1.2l-1.75,0.15l-1.1-1.35c-0.4-0.5-0.67-0.82-0.8-0.95
				c-0.13-0.13-0.28-0.2-0.45-0.2c-0.17-0.07-0.42-0.08-0.75-0.05l-0.3,0.05v2.75l-1.45,0.1v-6.6l3.15-0.25
				c0.77-0.07,1.33-0.05,1.7,0.05C104.78,161.67,105.07,161.87,105.3,162.2z M70.2,149.65v6.6l-1.5-0.05v-6.65L70.2,149.65z
				 M65.45,149.35c0.43,0.17,0.8,0.4,1.1,0.7c0.3,0.33,0.55,0.72,0.75,1.15c0.13,0.43,0.2,0.97,0.2,1.6c0,0.53-0.07,1-0.2,1.4
				c-0.2,0.43-0.47,0.8-0.8,1.1c-0.27,0.17-0.62,0.3-1.05,0.4c-0.33,0.1-0.77,0.13-1.3,0.1l-2.85-0.25v-6.6l2.75,0.25
				C64.65,149.2,65.12,149.25,65.45,149.35z M71.55,151.45c0-0.33,0.1-0.65,0.3-0.95c0.23-0.3,0.55-0.52,0.95-0.65
				c0.4-0.17,0.88-0.25,1.45-0.25c0.93,0,1.63,0.18,2.1,0.55c0.47,0.37,0.7,0.85,0.7,1.45l-1.45,0.1c-0.07-0.33-0.22-0.58-0.45-0.75
				c-0.2-0.17-0.52-0.25-0.95-0.25s-0.77,0.08-1,0.25c-0.17,0.1-0.25,0.23-0.25,0.4c0,0.17,0.08,0.3,0.25,0.4
				c0.2,0.17,0.65,0.32,1.35,0.45c0.73,0.17,1.28,0.33,1.65,0.5c0.33,0.17,0.6,0.38,0.8,0.65c0.17,0.3,0.25,0.65,0.25,1.05
				c0,0.4-0.1,0.77-0.3,1.1c-0.23,0.33-0.57,0.57-1,0.7c-0.43,0.17-0.97,0.25-1.6,0.25c-0.97,0-1.68-0.2-2.15-0.6
				c-0.53-0.37-0.83-0.92-0.9-1.65l1.4-0.15c0.1,0.43,0.28,0.77,0.55,1c0.27,0.2,0.63,0.3,1.1,0.3c0.5,0,0.85-0.1,1.05-0.3
				c0.27-0.17,0.4-0.38,0.4-0.65c0-0.13-0.05-0.25-0.15-0.35c-0.1-0.13-0.28-0.25-0.55-0.35c-0.17-0.03-0.57-0.12-1.2-0.25
				c-0.8-0.17-1.35-0.38-1.65-0.65C71.78,152.43,71.55,151.98,71.55,151.45z M65.4,150.75c-0.17-0.17-0.4-0.28-0.7-0.35
				c-0.2-0.07-0.6-0.13-1.2-0.2h-0.7v4.35l1.1,0.1c0.43,0.03,0.75,0.03,0.95,0c0.2-0.03,0.4-0.12,0.6-0.25
				c0.13-0.1,0.25-0.28,0.35-0.55c0.13-0.33,0.2-0.75,0.2-1.25s-0.07-0.88-0.2-1.15C65.7,151.15,65.57,150.92,65.4,150.75z
				 M69.9,161.75l1.15,4.6l1.35-4.45h1.75l1.3,4.7l1.15-4.55h1.5l-1.75,6.55h-1.6l-1.5-5.05l-1.5,4.9l-1.6-0.05l-1.75-6.7
				L69.9,161.75z M78,151.05v-1.1h5.9v1.1h-2.2v5.5h-1.5v-5.5H78z M82.6,162.1l2.95,6.65h-1.6l-0.65-1.5l-2.95-0.05l-0.6,1.5h-1.6
				l2.85-6.6H82.6z M95.6,149.8v5.4l3.7-0.15v1.15l-5.2,0.2v-6.55L95.6,149.8z M89.3,150v5.4l3.7-0.05v1.1l-5.2,0.1V150H89.3z
				 M86.3,149.95v6.6h-1.5v-6.6H86.3z M91.7,162.05v1.1l-2.2,0.05v5.5l-1.5,0.05v-5.5h-2.2v-1.1L91.7,162.05z M98.15,161.75v1.15
				l-4,0.15v1.45l3.7-0.15v1.1l-3.7,0.15v1.8l4.15-0.15v1.15l-5.65,0.2V162L98.15,161.75z M102.15,164.4
				c0.73-0.03,1.18-0.08,1.35-0.15s0.32-0.18,0.45-0.35c0.07-0.13,0.1-0.3,0.1-0.5c0-0.23-0.05-0.4-0.15-0.5
				c-0.17-0.13-0.35-0.22-0.55-0.25c-0.17,0-0.55,0.02-1.15,0.05l-1.15,0.1v1.7L102.15,164.4z M81.8,163.65l-1,2.45h2.05
				L81.8,163.65z"/>
		</g>
	</g>
</g>
</svg>
