<?xml version="1.0" encoding="utf-8"?>
<!-- Generator: Adobe Illustrator 16.0.0, SVG Export Plug-In . SVG Version: 6.00 Build 0)  -->
<!DOCTYPE svg PUBLIC "-//W3C//DTD SVG 1.1//EN" "http://www.w3.org/Graphics/SVG/1.1/DTD/svg11.dtd">
<svg version="1.1" id="Layer_1" xmlns="http://www.w3.org/2000/svg" xmlns:xlink="http://www.w3.org/1999/xlink" x="0px" y="0px"
	 width="110px" height="119.83px" viewBox="0 0 110 119.83" enable-background="new 0 0 110 119.83" xml:space="preserve">
<g>
	<path fill-rule="evenodd" clip-rule="evenodd" fill="#FFFFFF" d="M3.75,4.88H107.2v95.5c-0.13,2.83-1.1,5.35-2.9,7.55
		c-1.77,2.17-4.95,3.73-9.55,4.7c-26,5.33-52.22,5.37-78.65,0.1c-5.67-1.6-9.15-3.4-10.45-5.4c-1.37-1.97-2-4.23-1.9-6.8V4.88z"/>
	<path fill-rule="evenodd" clip-rule="evenodd" fill="none" d="M3.75,4.88v95.65c-0.1,2.57,0.53,4.83,1.9,6.8
		c1.3,2,4.78,3.8,10.45,5.4c26.43,5.27,52.65,5.23,78.65-0.1c4.6-0.97,7.78-2.53,9.55-4.7c1.8-2.2,2.77-4.72,2.9-7.55V4.88"/>
</g>
</svg>
