<?xml version="1.0" encoding="utf-8"?>
<!-- Generator: Adobe Illustrator 16.0.0, SVG Export Plug-In . SVG Version: 6.00 Build 0)  -->
<!DOCTYPE svg PUBLIC "-//W3C//DTD SVG 1.1//EN" "http://www.w3.org/Graphics/SVG/1.1/DTD/svg11.dtd">
<svg version="1.1" xmlns="http://www.w3.org/2000/svg" xmlns:xlink="http://www.w3.org/1999/xlink" x="0px" y="0px" width="30.2px"
	 height="21.1px" viewBox="0 0 30.2 21.1" enable-background="new 0 0 30.2 21.1" xml:space="preserve">
<g id="Layer_1">
	<g>
		<g>
			
				<radialGradient id="SVGID_1_" cx="339.5977" cy="-358.1128" r="1.8516" gradientTransform="matrix(1 0 0 -1.6892 -312.8105 -603.4977)" gradientUnits="userSpaceOnUse">
				<stop  offset="0.2039" style="stop-color:#FFFFFF;stop-opacity:0.6902"/>
				<stop  offset="0.5412" style="stop-color:#EAEAEA;stop-opacity:0"/>
				<stop  offset="1" style="stop-color:#CDCCCC"/>
			</radialGradient>
			<path fill="url(#SVGID_1_)" d="M26,0.7C26,0.6,26.1,0.6,26,0.7c0.2-0.3,0.4-0.3,0.6-0.3c0.1,0,0.2,0.1,0.4,0.2
				c0.1,0,0.2,0.1,0.4,0.3c0.2,0.4,0.3,0.8,0.3,1.3S27.6,3,27.4,3.4c-0.2,0.4-0.5,0.5-0.8,0.5c-0.3,0-0.6-0.2-0.8-0.5
				c-0.2-0.3-0.3-0.8-0.3-1.3s0.1-0.9,0.3-1.3C25.9,0.8,26,0.7,26,0.7z"/>
		</g>
		<g>
			
				<linearGradient id="SVGID_2_" gradientUnits="userSpaceOnUse" x1="340.7617" y1="-447.2007" x2="338.9346" y2="-447.4564" gradientTransform="matrix(1 0 0 -1 -312.8105 -442.7969)">
				<stop  offset="0" style="stop-color:#FFFFFF"/>
				<stop  offset="0.4392" style="stop-color:#FFFFFF;stop-opacity:0"/>
				<stop  offset="1" style="stop-color:#FFFFFF"/>
			</linearGradient>
			<path fill="url(#SVGID_2_)" d="M28,5.7c-0.5,0.8-1.1,0.9-1.6,0.2l-0.2-2.8c0.3-0.4,0.7-0.5,1.1-0.3L28,5.7z"/>
		</g>
		<g>
			
				<radialGradient id="SVGID_3_" cx="336.5977" cy="-302.0688" r="2.05" gradientTransform="matrix(1 0 0 -3.4573 -312.8105 -1035.0747)" gradientUnits="userSpaceOnUse">
				<stop  offset="0.3922" style="stop-color:#E1DFD2;stop-opacity:0.4824"/>
				<stop  offset="1" style="stop-color:#FFFFFF"/>
			</radialGradient>
			<path fill="url(#SVGID_3_)" d="M25.1,5.4c0.2,1.3,0.3,2.6,0.3,4c0,0,0,0.1,0,0.2L25,15.1c-0.2-0.5-0.3-0.8-0.4-1
				c-0.1,0-0.1,0-0.1-0.1c-0.3-0.2-0.6-0.2-1,0.1c0.2-2.9,0.2-5.7-0.1-8.4C23.7,6,24,6.1,24.5,5.8c0.1,0,0.1,0,0.2-0.1
				c0.1-0.1,0.3-0.2,0.3-0.3l0.1-0.1V5.4z"/>
			
				<linearGradient id="SVGID_4_" gradientUnits="userSpaceOnUse" x1="340.3232" y1="-452.1563" x2="340.3232" y2="-446.1852" gradientTransform="matrix(1 0 0 -1 -312.8105 -442.7969)">
				<stop  offset="0.3922" style="stop-color:#FDFDFE;stop-opacity:0.3608"/>
				<stop  offset="1" style="stop-color:#FFFFFF"/>
			</linearGradient>
			<path fill="url(#SVGID_4_)" d="M29.9,9.4h-4.6c0-1.4-0.1-2.7-0.3-4c0.1-0.1,0.2-0.2,0.3-0.3c1.8-0.1,3.1-0.1,4.1,0L29.9,9.4z"/>
			
				<radialGradient id="SVGID_5_" cx="334.0479" cy="-273.4438" r="3.701" gradientTransform="matrix(1 0 0 -6.5101 -312.8105 -1770.8799)" gradientUnits="userSpaceOnUse">
				<stop  offset="0" style="stop-color:#FFFFFF;stop-opacity:0.5098"/>
				<stop  offset="0.1098" style="stop-color:#FFFFFF;stop-opacity:0"/>
				<stop  offset="0.2588" style="stop-color:#FFFFFF;stop-opacity:0.7098"/>
				<stop  offset="0.5098" style="stop-color:#FFFFFF;stop-opacity:0"/>
				<stop  offset="0.851" style="stop-color:#CDCCCC;stop-opacity:0.1373"/>
				<stop  offset="1" style="stop-color:#FFFFFF;stop-opacity:0.549"/>
			</radialGradient>
			<path fill="url(#SVGID_5_)" d="M23.4,5.6c0.3,2.7,0.3,5.5,0.1,8.4c0,0.9-0.1,1.9-0.2,2.8c-0.2,1-0.7,1.3-1.6,1.1
				c0-0.9,0-1.8,0-2.7c0.1-0.7,0.1-1.5,0.1-2.2c0.1-2.3,0-4.3-0.1-5.9c0-1.5-0.1-2.8-0.3-3.8c0-0.1,0-0.1,0-0.1c0.4-0.7,1-0.7,1.6,0
				C23.1,3.9,23.3,4.7,23.4,5.6z"/>
			
				<linearGradient id="SVGID_6_" gradientUnits="userSpaceOnUse" x1="327.624" y1="-446.6089" x2="327.624" y2="-460.2339" gradientTransform="matrix(1 0 0 -1 -312.8105 -442.7969)">
				<stop  offset="0" style="stop-color:#FFFFFF;stop-opacity:0.5098"/>
				<stop  offset="0.1098" style="stop-color:#FFFFFF;stop-opacity:0"/>
				<stop  offset="0.2588" style="stop-color:#FFFFFF;stop-opacity:0.7098"/>
				<stop  offset="0.5098" style="stop-color:#FFFFFF;stop-opacity:0"/>
				<stop  offset="0.851" style="stop-color:#CDCCCC;stop-opacity:0.1373"/>
				<stop  offset="1" style="stop-color:#FFFFFF;stop-opacity:0.549"/>
			</linearGradient>
			<path fill="url(#SVGID_6_)" d="M7.8,16.4c0.2-4,0.2-7.8,0-11.6c1-1.4,2.1-1.7,3.1-0.8c0.1,0.1,0.3,0.2,0.3,0.3
				c0.7,0.5,1.5,0.5,2.3,0C13.7,4,14,3.7,14.3,3.6c0.7-0.3,1.4-0.2,2.1,0.4c0.7,0.6,1.1,0.7,1.4,0.3c0.2-0.4,0.5-0.7,0.8-1
				C18.8,3.1,19.1,3,19.5,3c0.3,0,1,0.1,1.9,0.4c0,0,0,0.1,0,0.1c0.2,1,0.3,2.2,0.3,3.8c0,1.4,0,3.1,0.1,5.4c0,0.2,0,0.4,0,0.6
				c0,0.7,0,1.4-0.1,2.2c0,0.9,0,1.8,0,2.6c-1.4,0.4-2.4,0.3-3.1-0.5c-0.2-0.2-0.4-0.4-0.6-0.4c-0.2-0.1-0.6,0.1-1.1,0.5
				c-0.5,0.4-1.2,0.5-2,0.2c-0.3-0.2-0.5-0.4-0.8-0.9c-0.8-0.5-1.6-0.5-2.4,0c-0.1,0.2-0.2,0.3-0.4,0.3C10.2,18.1,9.1,17.9,7.8,16.4
				z"/>
			
				<linearGradient id="SVGID_7_" gradientUnits="userSpaceOnUse" x1="340.2734" y1="-450.6704" x2="340.2734" y2="-458.0704" gradientTransform="matrix(1 0 0 -1 -312.8105 -442.7969)">
				<stop  offset="0.3922" style="stop-color:#FFFFFF;stop-opacity:0.6902"/>
				<stop  offset="1" style="stop-color:#CDCCCC"/>
			</linearGradient>
			<path fill="url(#SVGID_7_)" d="M25.3,9.4h4.6l-0.3,5.5c-0.1,0.1-0.2,0.2-0.2,0.3H25l0.4-5.5C25.3,9.5,25.3,9.4,25.3,9.4z"/>
			
				<radialGradient id="SVGID_8_" cx="319.3984" cy="-262.6504" r="1.9994" fx="318.332" fy="-262.6504" gradientTransform="matrix(1 0 0 -10.5125 -312.8105 -2750.283)" gradientUnits="userSpaceOnUse">
				<stop  offset="0" style="stop-color:#FFFFFF;stop-opacity:0.5098"/>
				<stop  offset="0.1098" style="stop-color:#FFFFFF;stop-opacity:0"/>
				<stop  offset="0.2588" style="stop-color:#FFFFFF;stop-opacity:0.7098"/>
				<stop  offset="0.5098" style="stop-color:#FFFFFF;stop-opacity:0"/>
				<stop  offset="0.851" style="stop-color:#CDCCCC;stop-opacity:0.1373"/>
				<stop  offset="1" style="stop-color:#FFFFFF;stop-opacity:0.549"/>
			</radialGradient>
			<path fill="url(#SVGID_8_)" d="M5.6,16.2C5.8,13,5.9,9.3,5.7,4.8c0,0,0.2-0.2,0.5-0.5c0.3-0.4,0.7-0.5,1-0.2
				c0.3,0.3,0.5,0.5,0.6,0.7C8,8.6,8,12.5,7.8,16.4c-0.1,0.2-0.3,0.5-0.6,0.8c-0.4,0.3-0.7,0.3-1-0.1c-0.3-0.3-0.4-0.5-0.4-0.6
				C5.8,16.3,5.7,16.2,5.6,16.2z"/>
			
				<linearGradient id="SVGID_9_" gradientUnits="userSpaceOnUse" x1="317.2227" y1="-450.7329" x2="317.2227" y2="-456.3078" gradientTransform="matrix(1 0 0 -1 -312.8105 -442.7969)">
				<stop  offset="0" style="stop-color:#FFFFFF;stop-opacity:0.5098"/>
				<stop  offset="0.1098" style="stop-color:#FFFFFF;stop-opacity:0"/>
				<stop  offset="0.2588" style="stop-color:#FFFFFF;stop-opacity:0.7098"/>
				<stop  offset="0.5098" style="stop-color:#FFFFFF;stop-opacity:0"/>
				<stop  offset="0.851" style="stop-color:#CDCCCC;stop-opacity:0.1373"/>
				<stop  offset="1" style="stop-color:#FFFFFF;stop-opacity:0.549"/>
			</linearGradient>
			<path fill="url(#SVGID_9_)" d="M4,15.7c0.2-2.3,0.3-4.8,0.2-7.3c0-0.8-0.1-1.7-0.2-2.7h0.6c0,0.9,0,1.8,0.1,2.6
				c0,0.9,0,1.7,0,2.5c0,1.5-0.1,3.1-0.3,4.8c0,0.1,0,0.2,0,0.3L4,15.7z"/>
			
				<linearGradient id="SVGID_10_" gradientUnits="userSpaceOnUse" x1="317.9629" y1="-448.5083" x2="317.9629" y2="-458.7333" gradientTransform="matrix(1 0 0 -1 -312.8105 -442.7969)">
				<stop  offset="0" style="stop-color:#FFFFFF;stop-opacity:0.5098"/>
				<stop  offset="0.1098" style="stop-color:#FFFFFF;stop-opacity:0"/>
				<stop  offset="0.2588" style="stop-color:#FFFFFF;stop-opacity:0.7098"/>
				<stop  offset="0.5098" style="stop-color:#FFFFFF;stop-opacity:0"/>
				<stop  offset="0.851" style="stop-color:#CDCCCC;stop-opacity:0.1373"/>
				<stop  offset="1" style="stop-color:#FFFFFF;stop-opacity:0.549"/>
			</linearGradient>
			<path fill="url(#SVGID_10_)" d="M5.7,4.8C5.9,9.3,5.8,13,5.6,16.2c-0.6,0.3-1,0.3-1.2,0l0-0.4c0-0.1,0-0.2,0-0.3
				c0.2-1.6,0.3-3.2,0.3-4.8c0-0.7,0-1.6,0-2.5C4.7,7.5,4.6,6.6,4.6,5.7c0,0,0-0.1,0-0.1V5.1h0.1L5.7,4.8z"/>
			
				<linearGradient id="SVGID_11_" gradientUnits="userSpaceOnUse" x1="315.459" y1="-447.0454" x2="315.459" y2="-460.195" gradientTransform="matrix(1 0 0 -1 -312.8105 -442.7969)">
				<stop  offset="0" style="stop-color:#FFFFFF"/>
				<stop  offset="0.149" style="stop-color:#FFFFFF;stop-opacity:0.3294"/>
				<stop  offset="0.1922" style="stop-color:#989898"/>
				<stop  offset="0.2353" style="stop-color:#FFFFFF"/>
				<stop  offset="0.3843" style="stop-color:#FFFFFF;stop-opacity:0.4118"/>
				<stop  offset="0.4275" style="stop-color:#989898"/>
				<stop  offset="0.4784" style="stop-color:#FFFFFF"/>
				<stop  offset="0.6275" style="stop-color:#FFFFFF;stop-opacity:0.302"/>
				<stop  offset="0.6902" style="stop-color:#676767"/>
				<stop  offset="0.7294" style="stop-color:#FFFFFF"/>
				<stop  offset="0.8471" style="stop-color:#989898"/>
				<stop  offset="1" style="stop-color:#CDCCCC"/>
			</linearGradient>
			<path fill="url(#SVGID_11_)" d="M4,5.7c0.1,0.9,0.1,1.8,0.2,2.7c0.1,2.6,0.1,5-0.2,7.3v0.1c0,0.3-0.1,0.7-0.4,1H1
				c0.1,0,0.1-0.6,0.2-1.7c0-1.1,0-2.5,0-4.2c0-1.2,0-2.3,0-3.2c0-0.4,0-0.7,0-0.9C1.2,5.8,1.1,5.2,1,4.9h2.6C3.9,5.2,4,5.4,4,5.7z"
				/>
			
				<linearGradient id="SVGID_12_" gradientUnits="userSpaceOnUse" x1="313.873" y1="-443.0581" x2="313.873" y2="-464.1842" gradientTransform="matrix(1 0 0 -1 -312.8105 -442.7969)">
				<stop  offset="0" style="stop-color:#FFFFFF"/>
				<stop  offset="0.149" style="stop-color:#FFFFFF"/>
				<stop  offset="0.1922" style="stop-color:#989898"/>
				<stop  offset="0.2353" style="stop-color:#FFFFFF"/>
				<stop  offset="0.3843" style="stop-color:#FFFFFF"/>
				<stop  offset="0.4275" style="stop-color:#989898"/>
				<stop  offset="0.4784" style="stop-color:#FFFFFF"/>
				<stop  offset="0.6275" style="stop-color:#FFFFFF"/>
				<stop  offset="0.6902" style="stop-color:#CDCCCC"/>
				<stop  offset="0.7294" style="stop-color:#FFFFFF"/>
				<stop  offset="0.8471" style="stop-color:#989898"/>
				<stop  offset="1" style="stop-color:#CDCCCC"/>
			</linearGradient>
			<path fill="url(#SVGID_12_)" d="M1,4.9c0.1,0.2,0.1,0.8,0.2,1.8c0,0.3,0,0.6,0,0.9c0,0.9,0,2,0,3.2c0,1.7,0,3.1,0,4.2
				c-0.1,1.1-0.1,1.7-0.2,1.7c0,0-0.1-0.6-0.1-1.7c0-1.1,0-2.5,0-4.2c0-1.2,0-2.3,0-3.2c0-0.4,0-0.7,0-0.9C1,5.5,1,4.8,1,4.9L1,4.9z
				"/>
			<path fill="none" d="M7.8,4.8c1-1.4,2.1-1.7,3.1-0.8c0.1,0.1,0.3,0.2,0.3,0.3c0.7,0.5,1.5,0.5,2.3,0C13.7,4,14,3.7,14.3,3.6
				c0.7-0.3,1.4-0.2,2.1,0.4c0.7,0.6,1.1,0.7,1.4,0.3c0.2-0.4,0.5-0.7,0.8-1C18.8,3.1,19.1,3,19.5,3c0.3,0,1,0.1,1.9,0.4"/>
			<path fill="none" d="M21.7,18c-1.4,0.4-2.4,0.3-3.1-0.5c-0.2-0.2-0.4-0.4-0.6-0.4s-0.6,0.1-1.1,0.5c-0.5,0.4-1.2,0.5-2,0.2
				c-0.3-0.2-0.5-0.4-0.8-0.9c-0.8-0.5-1.6-0.5-2.4,0c-0.1,0.2-0.2,0.3-0.4,0.3c-1.1,0.9-2.2,0.7-3.5-0.8"/>
		</g>
		<g>
			
				<radialGradient id="SVGID_13_" cx="333.7979" cy="-367.4116" r="3.5392" gradientTransform="matrix(1 0 0 -1.6926 -312.8105 -610.8983)" gradientUnits="userSpaceOnUse">
				<stop  offset="0" style="stop-color:#FFFFFF"/>
				<stop  offset="1" style="stop-color:#FFFFFF;stop-opacity:0"/>
			</radialGradient>
			<path fill="url(#SVGID_13_)" d="M21.2,3.9c0.1,0,0.1,0.1,0.2,0.3c0.5,3.1,0.6,7.5,0.3,13.2c-0.1,0.1-0.1,0.2-0.2,0.4
				c0,0-0.1,0-0.1,0c-0.1,0-0.2-0.1-0.2-0.1c-0.1-0.1-0.1-0.3-0.1-0.5c0.3-5.5,0.3-9.8-0.3-12.8c0-0.1,0-0.2,0-0.3
				c0-0.1,0.1-0.2,0.1-0.3C21.1,3.8,21.2,3.9,21.2,3.9z"/>
			
				<radialGradient id="SVGID_14_" cx="335.3994" cy="-366.2363" r="2.6051" gradientTransform="matrix(1 0 0 -1.6971 -312.8105 -611.4137)" gradientUnits="userSpaceOnUse">
				<stop  offset="0" style="stop-color:#FFFFFF"/>
				<stop  offset="1" style="stop-color:#FFFFFF;stop-opacity:0"/>
			</radialGradient>
			<path fill="url(#SVGID_14_)" d="M22.6,5.6L22.6,5.6c0.1,0,0.1,0.1,0.1,0.2c0.3,3.2,0.3,6.2,0,8.8l-0.1,0c0,0-0.1,0-0.1,0v-0.1
				c0.3-2.6,0.3-5.4,0-8.6C22.5,5.8,22.5,5.7,22.6,5.6L22.6,5.6z"/>
			
				<radialGradient id="SVGID_15_" cx="320.248" cy="-366.4854" r="2.6034" gradientTransform="matrix(1 0 0 -1.6971 -312.8105 -611.5875)" gradientUnits="userSpaceOnUse">
				<stop  offset="0" style="stop-color:#FFFFFF"/>
				<stop  offset="1" style="stop-color:#FFFFFF;stop-opacity:0"/>
			</radialGradient>
			<path fill="url(#SVGID_15_)" d="M7.5,5.9c0,0.1,0,0.1,0.1,0.2c0.2,2.8,0.2,5.7,0,8.7l-0.1,0.1c0,0,0,0-0.1,0v0l0-0.1
				c0.2-3,0.2-5.9,0-8.7C7.4,6,7.4,6,7.5,5.9L7.5,5.9L7.5,5.9L7.5,5.9z"/>
			
				<radialGradient id="SVGID_16_" cx="316.5977" cy="-366.4854" r="2.6033" gradientTransform="matrix(1 0 0 -1.6971 -312.8105 -611.5875)" gradientUnits="userSpaceOnUse">
				<stop  offset="0" style="stop-color:#FFFFFF"/>
				<stop  offset="1" style="stop-color:#FFFFFF;stop-opacity:0"/>
			</radialGradient>
			<path fill="url(#SVGID_16_)" d="M3.9,5.9c0,0.1,0,0.1,0,0.2c0.2,2.8,0.2,5.7,0,8.7v0.1l-0.1,0c-0.1,0-0.1,0-0.1,0v-0.1
				c0.2-3,0.2-5.9,0-8.7V6c0-0.1,0-0.1,0.1-0.1L3.9,5.9L3.9,5.9z"/>
			
				<radialGradient id="SVGID_17_" cx="314.2979" cy="-366.354" r="2.7635" gradientTransform="matrix(1 0 0 -1.6968 -312.8105 -611.4141)" gradientUnits="userSpaceOnUse">
				<stop  offset="0" style="stop-color:#FFFFFF"/>
				<stop  offset="1" style="stop-color:#FFFFFF;stop-opacity:0"/>
			</radialGradient>
			<path fill="url(#SVGID_17_)" d="M1.3,5.9L1.3,5.9l0-0.2c0.1,0,0.1,0,0.1,0.1v0.1c0.2,3.2,0.2,6.2,0,8.8v0.1H1.4l0-0.1v0
				C1.5,12,1.5,9.1,1.3,5.9z"/>
		</g>
		<g>
			
				<linearGradient id="SVGID_18_" gradientUnits="userSpaceOnUse" x1="106.5137" y1="723.6777" x2="108.3749" y2="723.6777" gradientTransform="matrix(-0.9795 0.2013 8.460000e-002 1.0035 71.8854 -733.6806)">
				<stop  offset="0" style="stop-color:#FFFFFF"/>
				<stop  offset="0.4392" style="stop-color:#FFFFFF;stop-opacity:0"/>
				<stop  offset="1" style="stop-color:#FFFFFF"/>
			</linearGradient>
			<path fill="url(#SVGID_18_)" d="M28.7,16.2c-0.2-0.1-0.3-0.1-0.4-0.1h-0.1c-0.2,0-0.5,0.1-0.7,0.3c0,0.1,0,0.1,0,0.2v-0.1
				l-0.6-3.8c0.6-1,1.2-1,1.8-0.1V16.2z"/>
			
				<radialGradient id="SVGID_19_" cx="341.3984" cy="-374.3984" r="2.5365" gradientTransform="matrix(1 0 0 -1.6847 -312.8105 -613.3807)" gradientUnits="userSpaceOnUse">
				<stop  offset="0.2039" style="stop-color:#FFFFFF;stop-opacity:0.6902"/>
				<stop  offset="0.5412" style="stop-color:#EAEAEA;stop-opacity:0"/>
				<stop  offset="1" style="stop-color:#CDCCCC"/>
			</radialGradient>
			<path fill="url(#SVGID_19_)" d="M27.5,16.4v0.1C27.5,16.5,27.5,16.4,27.5,16.4c0.3-0.3,0.5-0.3,0.8-0.3h0.1c0.1,0,0.2,0,0.4,0.1
				c0.2,0.1,0.3,0.3,0.5,0.5c0.3,0.4,0.4,1,0.4,1.7c0,0.6-0.1,1.1-0.4,1.5c-0.2,0.5-0.5,0.7-1,0.7c-0.3,0-0.6-0.2-1-0.7
				c-0.2-0.4-0.3-0.9-0.3-1.5c0-0.7,0.1-1.3,0.3-1.7C27.4,16.6,27.4,16.5,27.5,16.4z"/>
		</g>
	</g>
</g>
<g id="Layer_3">
</g>
</svg>
