<?xml version="1.0" encoding="utf-8"?>
<!-- Generator: Adobe Illustrator 16.0.0, SVG Export Plug-In . SVG Version: 6.00 Build 0)  -->
<!DOCTYPE svg PUBLIC "-//W3C//DTD SVG 1.1//EN" "http://www.w3.org/Graphics/SVG/1.1/DTD/svg11.dtd">
<svg version="1.1" id="Layer_1" xmlns="http://www.w3.org/2000/svg" xmlns:xlink="http://www.w3.org/1999/xlink" x="0px" y="0px"
	 width="7.75px" height="11px" viewBox="0 0 7.75 11" enable-background="new 0 0 7.75 11" xml:space="preserve">
<g>
	<path fill-rule="evenodd" clip-rule="evenodd" fill="#FFFFFF" fill-opacity="0.3294" d="M2.35,5.55c0.17-0.9,0.53-1.83,1.1-2.8
		c0.6-1.03,1.3-0.13,2.1,2.7c0.17,0.87,0.23,1.73,0.2,2.6c-0.07,0.73-0.58,1.07-1.55,1c-1.07-0.07-1.68-0.43-1.85-1.1
		C2.15,7.22,2.15,6.42,2.35,5.55z"/>
	<path fill-rule="evenodd" clip-rule="evenodd" fill="#FFFFFF" d="M4.8,8.29C4.68,8.4,4.57,8.37,4.46,8.2
		C4,7.64,4.09,7.18,4.71,6.84C5.45,7.29,5.48,7.78,4.8,8.29z"/>
	<path fill-rule="evenodd" clip-rule="evenodd" fill="#FFFFFF" d="M4.2,3.52V3.43C4.77,3.9,5,4.78,4.88,6.07
		C4.53,6.6,4.31,5.75,4.2,3.52z"/>
</g>
</svg>
