<?xml version="1.0" encoding="utf-8"?>
<!-- Generator: Adobe Illustrator 16.0.0, SVG Export Plug-In . SVG Version: 6.00 Build 0)  -->
<!DOCTYPE svg PUBLIC "-//W3C//DTD SVG 1.1//EN" "http://www.w3.org/Graphics/SVG/1.1/DTD/svg11.dtd">
<svg version="1.1" id="Layer_1" xmlns="http://www.w3.org/2000/svg" xmlns:xlink="http://www.w3.org/1999/xlink" x="0px" y="0px"
	 width="700px" height="700px" viewBox="0 0 700 700" enable-background="new 0 0 700 700" xml:space="preserve">
<g>
	<g>
		<g>
			<path fill-rule="evenodd" clip-rule="evenodd" fill="#FFFFFF" d="M362.85,359.4c-0.3-0.07-0.22-0.57,0.25-1.5
				c0.63-1.47,1.97-2.45,4-2.95h107.45c-7.2,15.77-17.1,29.85-29.7,42.25c-3.23,2.73-5.7,4.1-7.4,4.1c-1.73,0-3.35-0.53-4.85-1.6
				l-54.15-37l-3.35-2.25c-1-0.77-2.15-1.42-3.45-1.95c-0.27-0.13-0.55-0.23-0.85-0.3c-2.73-0.4-4.75-0.4-6.05,0
				C363.88,359.07,363.25,359.47,362.85,359.4z"/>
		</g>
		<g>
			<g>
				<path fill-rule="evenodd" clip-rule="evenodd" fill="none" stroke="#FFFFFF" stroke-width="0.75" stroke-miterlimit="10" d="
					M409.65,292.2c0.77,1.33,1.52,2.38,2.25,3.15c0.1,0.13,0.2,0.23,0.3,0.3l62.4,42.15c1.67,1.2,2.8,2.8,3.4,4.8
					c0.57,1.93,0.22,4.47-1.05,7.6c-7.33,17.73-17.93,33.42-31.8,47.05c-3.23,2.73-5.7,4.1-7.4,4.1c-1.73,0-3.35-0.53-4.85-1.6
					l-59.4-40.15c-2.33-1.5-5.25-1.93-8.75-1.3c-0.97,0.93-1.58,1.3-1.85,1.1c-0.63-0.4,1.08-4.13,5.15-11.2
					c4.17-6.93,9.45-15.13,15.85-24.6c6.43-9.5,12.08-17.48,16.95-23.95c5-6.37,7.82-9.35,8.45-8.95c0.2,0.17,0.2,0.57,0,1.2
					c-0.03,0.03-0.03,0.05,0,0.05c-0.2,1.37-2.1,5.07-5.7,11.1c-3.77,6.17-8.85,14-15.25,23.5c-6.43,9.5-12.12,17.45-17.05,23.85
					c-3.03,3.83-5.22,6.47-6.55,7.9"/>
			</g>
			<g>
				<linearGradient id="SVGID_1_" gradientUnits="userSpaceOnUse" x1="386.6768" y1="407.0303" x2="415.4474" y2="364.4523">
					<stop  offset="0" style="stop-color:#FFFFFF;stop-opacity:0.6706"/>
					<stop  offset="1" style="stop-color:#FFFFFF;stop-opacity:0"/>
				</linearGradient>
				<path fill-rule="evenodd" clip-rule="evenodd" fill="url(#SVGID_1_)" d="M388.2,328.4c1.6,1.33,3.57,2.75,5.9,4.25l66.35,44.9
					c-8.53,11.27-14.52,18.03-17.95,20.3c-3.53,2.17-6.35,2.53-8.45,1.1l-61-41.4c-1.47-0.63-3.52-0.95-6.15-0.95
					C375.57,346.77,382.67,337.37,388.2,328.4z"/>
			</g>
			<g>
				
					<linearGradient id="SVGID_2_" gradientUnits="userSpaceOnUse" x1="458.5107" y1="198.1128" x2="546.3192" y2="198.1128" gradientTransform="matrix(0.9344 0.3562 -0.4828 0.8862 -5.984306e-005 -1.168251e-005)">
					<stop  offset="0" style="stop-color:#FFFFFF;stop-opacity:0.6706"/>
					<stop  offset="1" style="stop-color:#FFFFFF;stop-opacity:0"/>
				</linearGradient>
				<path fill-rule="evenodd" clip-rule="evenodd" fill="url(#SVGID_2_)" d="M382.45,342.8l63.3,42.85c-3.77,5.3-6.8,7.9-9.1,7.8
					L374.5,352.5C377.3,349.5,379.95,346.27,382.45,342.8z"/>
			</g>
			<g>
				<path fill-rule="evenodd" clip-rule="evenodd" fill="none" d="M471.15,360.5c6.07-9.87,7.9-16.33,5.5-19.4"/>
				<path fill-rule="evenodd" clip-rule="evenodd" fill="none" d="M433.65,399.55c6.37,2.43,16-5.6,28.9-24.1"/>
			</g>
			<g>
				<line fill-rule="evenodd" clip-rule="evenodd" fill="none" x1="413.9" y1="298.95" x2="474.15" y2="339.7"/>
			</g>
			<g>
				<path fill-rule="evenodd" clip-rule="evenodd" fill="none" d="M468.6,348.65c2.2-2.8,3.82-4.67,4.85-5.6
					c0.47-0.47,0.82-0.7,1.05-0.7"/>
				<path fill-rule="evenodd" clip-rule="evenodd" fill="none" d="M436.3,398.55c-0.47-2.03,6.58-13.6,21.15-34.7"/>
			</g>
			<g>
				
					<linearGradient id="SVGID_3_" gradientUnits="userSpaceOnUse" x1="5.6265" y1="-543.2139" x2="27.7503" y2="-543.2139" gradientTransform="matrix(-0.5085 0.8611 -0.8322 -0.5573 -5.351305e-004 -2.551079e-005)">
					<stop  offset="0" style="stop-color:#FFFFFF;stop-opacity:0.6706"/>
					<stop  offset="1" style="stop-color:#FFFFFF;stop-opacity:0"/>
				</linearGradient>
				<path fill-rule="evenodd" clip-rule="evenodd" fill="url(#SVGID_3_)" d="M461.75,356.3l-62.45-42.15
					c3.93-6.1,7.35-12.13,10.25-18.1l62.4,42.15C472.62,349.6,469.22,355.63,461.75,356.3z"/>
			</g>
			<g>
				
					<linearGradient id="SVGID_4_" gradientUnits="userSpaceOnUse" x1="-612.8643" y1="-59.0215" x2="-586.1617" y2="-59.0215" gradientTransform="matrix(-0.8361 -0.5486 0.564 -0.826 9.846687e-005 7.271767e-004)">
					<stop  offset="0" style="stop-color:#FFFFFF"/>
					<stop  offset="1" style="stop-color:#FFFFFF;stop-opacity:0"/>
				</linearGradient>
				<path fill-rule="evenodd" clip-rule="evenodd" fill="url(#SVGID_4_)" d="M469.7,337.05l5.65,2.1c2.47,2.73,3.12,5.72,1.95,8.95
					c-0.8,2.87-2.9,7.53-6.3,14c-4.8,9.1-10.53,17.57-17.2,25.4c-3,3.4-5.8,6.15-8.4,8.25c-3,2.57-6.2,3.97-9.6,4.2
					c18.03-20.43,27.87-40.72,29.5-60.85C466.9,338.13,468.37,337.45,469.7,337.05z"/>
			</g>
			<g>
				<line fill-rule="evenodd" clip-rule="evenodd" fill="none" x1="389.5" y1="331.55" x2="389.75" y2="331.25"/>
				<path fill-rule="evenodd" clip-rule="evenodd" fill="none" d="M365.9,357c1.83-0.4,4.45-0.03,7.85,1.1"/>
				<path fill-rule="evenodd" clip-rule="evenodd" fill="none" d="M371.2,352.8c7.23-9.03,13.78-17.87,19.65-26.5
					c7.3-10.73,13.5-21.08,18.6-31.05"/>
			</g>
			<g>
				<line fill-rule="evenodd" clip-rule="evenodd" fill="none" x1="400.75" y1="333" x2="457.05" y2="371.05"/>
			</g>
			<g>
				<path fill-rule="evenodd" clip-rule="evenodd" fill="none" d="M431.5,364.05c4.57-3.8,8-8.88,10.3-15.25"/>
				<path fill-rule="evenodd" clip-rule="evenodd" fill="none" d="M448.35,375.45c0.73-0.6,1.42-1.22,2.05-1.85 M457.55,362.95
					c0.43-0.9,0.8-1.82,1.1-2.75"/>
				<path fill-rule="evenodd" clip-rule="evenodd" fill="none" d="M408.2,348.3c4.57-3.8,8-8.88,10.3-15.25"/>
				<path fill-rule="evenodd" clip-rule="evenodd" fill="none" d="M437.25,367.95c4.57-3.83,8-8.92,10.3-15.25"/>
				<path fill-rule="evenodd" clip-rule="evenodd" fill="none" d="M442.6,371.55c4.57-3.8,8-8.88,10.3-15.25"/>
				<path fill-rule="evenodd" clip-rule="evenodd" fill="none" d="M413.9,352.2c4.63-3.8,8.07-8.88,10.3-15.25"/>
				<path fill-rule="evenodd" clip-rule="evenodd" fill="none" d="M425.05,359.7c4.57-3.8,8-8.88,10.3-15.25"/>
				<path fill-rule="evenodd" clip-rule="evenodd" fill="none" d="M419.25,355.8c4.6-3.8,8.03-8.88,10.3-15.25"/>
				<path fill-rule="evenodd" clip-rule="evenodd" fill="none" d="M396,340.05c4.53-3.8,7.97-8.88,10.3-15.25"/>
				<path fill-rule="evenodd" clip-rule="evenodd" fill="none" d="M401.7,343.9c4.6-3.77,8.03-8.85,10.3-15.25"/>
			</g>
			<g>
				<path fill-rule="evenodd" clip-rule="evenodd" fill="#CCCCCC" d="M416.45,386.6l-25.15-17c14.87-18.97,28.2-38.7,40-59.2
					l25.15,17C445.58,348.53,432.25,368.27,416.45,386.6z"/>
			</g>
			<g>
				<path fill-rule="evenodd" clip-rule="evenodd" d="M402.6,369.3c-0.23,0.37-0.33,0.78-0.3,1.25c0.17,0.3,0.55,0.73,1.15,1.3
					c0.63,0.43,1.2,0.63,1.7,0.6s0.88-0.23,1.15-0.6c0.1-0.4,0.18-0.7,0.25-0.9c-0.07-0.4-0.27-0.73-0.6-1
					c0.4-0.27,0.77-0.55,1.1-0.85c0.4,0.47,0.65,1.03,0.75,1.7c0.03,0.53-0.15,1.1-0.55,1.7c-0.53,0.63-1.22,1.02-2.05,1.15
					c-0.87,0.07-1.68-0.15-2.45-0.65c-0.9-0.77-1.42-1.47-1.55-2.1c-0.27-0.83-0.05-1.57,0.65-2.2c0.33-0.8,0.88-1.18,1.65-1.15
					c0.37-0.2,0.82-0.18,1.35,0.05c-0.17,0.43-0.35,0.85-0.55,1.25c-0.3-0.17-0.6-0.18-0.9-0.05
					C403.13,368.77,402.87,368.93,402.6,369.3z M435.1,319.6c0.23-0.3,0.58-0.45,1.05-0.45c0.33-0.1,0.72-0.1,1.15,0
					c0.43,0.17,0.92,0.38,1.45,0.65c0.37,0.33,0.68,0.65,0.95,0.95c0.3,0.43,0.48,0.85,0.55,1.25c0.07,0.27,0.07,0.62,0,1.05
					c-0.17,0.27-0.37,0.6-0.6,1c-0.4,0.73-0.8,1.43-1.2,2.1c-1.77-1.2-3.55-2.4-5.35-3.6c0.37-0.63,0.77-1.3,1.2-2
					C434.57,320.08,434.83,319.77,435.1,319.6z M435.6,320.75c-0.17,0.07-0.38,0.38-0.65,0.95c-0.1,0.13-0.18,0.27-0.25,0.4
					c1.17,0.77,2.35,1.55,3.55,2.35c0.13-0.2,0.27-0.48,0.4-0.85c0.1-0.27,0.25-0.52,0.45-0.75c0.07-0.17,0.08-0.33,0.05-0.5
					c-0.07-0.13-0.18-0.35-0.35-0.65c-0.27-0.13-0.57-0.37-0.9-0.7c-0.53-0.23-0.87-0.42-1-0.55c-0.3-0.1-0.55-0.13-0.75-0.1
					C435.95,320.38,435.77,320.52,435.6,320.75z M423.35,338.1c0.9,0.6,1.88,1.25,2.95,1.95c0.37,0.27,0.7,0.47,1,0.6
					c0.2,0.07,0.43,0.07,0.7,0c0.2-0.1,0.42-0.32,0.65-0.65c0.1-0.27,0.2-0.55,0.3-0.85c-0.2-0.27-0.33-0.47-0.4-0.6
					c-0.2-0.13-0.48-0.33-0.85-0.6c-1.1-0.73-2.12-1.42-3.05-2.05c0.27-0.37,0.52-0.73,0.75-1.1c0.9,0.63,1.85,1.28,2.85,1.95
					c0.63,0.43,1.08,0.77,1.35,1c0.17,0.2,0.32,0.45,0.45,0.75c0.13,0.33,0.15,0.7,0.05,1.1c-0.07,0.4-0.22,0.77-0.45,1.1
					c-0.33,0.53-0.68,0.9-1.05,1.1c-0.33,0.13-0.6,0.22-0.8,0.25c-0.37,0-0.62-0.03-0.75-0.1c-0.37-0.1-0.85-0.38-1.45-0.85
					c-1.07-0.7-2.03-1.35-2.9-1.95C422.83,338.72,423.05,338.37,423.35,338.1z M418.9,344.75c1.77,1.2,3.6,2.45,5.5,3.75
					c-0.3,0.43-0.55,0.8-0.75,1.1c-1.9-1.3-3.73-2.55-5.5-3.75C418.35,345.55,418.6,345.18,418.9,344.75z M421.25,343.25
					c0.4,0.3,0.83,0.6,1.3,0.9c0.47-0.73,0.95-1.45,1.45-2.15c0.27,0.07,0.57,0.27,0.9,0.6c-0.57,0.67-1.03,1.4-1.4,2.2
					c0.7,0.47,1.48,1,2.35,1.6c-0.3,0.4-0.57,0.77-0.8,1.1c-1.9-1.3-3.73-2.55-5.5-3.75c0.8-1.17,1.63-2.4,2.5-3.7
					c0.23,0.17,0.53,0.37,0.9,0.6C422.38,341.52,421.82,342.38,421.25,343.25z M437.85,327.1c-0.93,1.47-1.78,2.87-2.55,4.2
					c-1.77-1.2-3.55-2.4-5.35-3.6c0.83-1.4,1.65-2.77,2.45-4.1c0.23,0.17,0.53,0.37,0.9,0.6c-0.63,0.93-1.25,1.95-1.85,3.05
					c0.4,0.27,0.8,0.53,1.2,0.8c0.5-1,1.05-1.95,1.65-2.85c0.27,0.17,0.58,0.37,0.95,0.6c-0.6,0.9-1.17,1.85-1.7,2.85
					c0.43,0.3,0.92,0.63,1.45,1c0.63-1.13,1.28-2.18,1.95-3.15C437.18,326.67,437.48,326.87,437.85,327.1z M429.3,331.05
					c-0.3,0.13-0.55,0.35-0.75,0.65c-0.43,0.53-0.52,1.03-0.25,1.5c0.03,0.47,0.4,0.88,1.1,1.25c0.53,0.47,1.1,0.68,1.7,0.65
					c0.4-0.03,0.78-0.33,1.15-0.9c0.07-0.2,0.17-0.47,0.3-0.8c-0.07-0.17-0.05-0.43,0.05-0.8c-0.27-0.2-0.48-0.35-0.65-0.45
					c-0.27,0.47-0.53,0.88-0.8,1.25c-0.37-0.27-0.68-0.48-0.95-0.65c0.47-0.77,1-1.55,1.6-2.35c0.7,0.47,1.4,0.93,2.1,1.4
					c-0.07,0.43-0.1,0.9-0.1,1.4c-0.1,0.57-0.3,1.1-0.6,1.6c-0.4,0.6-0.8,1.02-1.2,1.25c-0.57,0.33-1.12,0.4-1.65,0.2
					c-0.6-0.03-1.15-0.23-1.65-0.6c-0.57-0.37-0.98-0.82-1.25-1.35c-0.33-0.5-0.43-1.08-0.3-1.75c-0.1-0.43,0.07-0.92,0.5-1.45
					c0.3-0.63,0.78-1.1,1.45-1.4c0.47-0.13,1.02-0.1,1.65,0.1c-0.23,0.37-0.43,0.78-0.6,1.25
					C429.75,330.95,429.47,330.95,429.3,331.05z M435.4,343.2c0.2,1.17,0.38,2.3,0.55,3.4c1.4-0.13,2.85-0.17,4.35-0.1
					c-0.23,0.47-0.5,0.93-0.8,1.4c-1.23-0.1-2.33-0.12-3.3-0.05c-0.03,0.4,0.02,0.85,0.15,1.35c0.5,0.37,1.05,0.75,1.65,1.15
					c-0.23,0.4-0.47,0.77-0.7,1.1c-1.8-1.2-3.47-2.32-5-3.35c0.23-0.33,0.48-0.7,0.75-1.1c0.63,0.43,1.32,0.9,2.05,1.4
					c-0.3-1.23-0.52-2.45-0.65-3.65C434.75,344.32,435.07,343.8,435.4,343.2z M436.9,352.35c-0.9,1.33-1.75,2.58-2.55,3.75
					c-1.87-1.27-3.52-2.4-4.95-3.4c0.23-0.37,0.48-0.73,0.75-1.1c1.2,0.83,2.52,1.73,3.95,2.7c0.6-0.87,1.2-1.75,1.8-2.65
					C436.17,351.82,436.5,352.05,436.9,352.35z M427.1,355.85c1.5,1.03,3.13,2.15,4.9,3.35c-0.13,0.47-0.35,0.78-0.65,0.95
					c-1.5-1-2.8-1.87-3.9-2.6c0.9,1.13,1.92,2.35,3.05,3.65c-0.17,0.43-0.38,0.77-0.65,1c-1.77-0.7-3.35-1.23-4.75-1.6
					c1.13,0.77,2.45,1.67,3.95,2.7c-0.37,0.23-0.62,0.55-0.75,0.95c-1.8-1.2-3.43-2.32-4.9-3.35c0.43-0.5,0.83-1,1.2-1.5
					c1.27,0.37,2.57,0.77,3.9,1.2c-0.9-1.07-1.73-2.1-2.5-3.1C426.37,357,426.73,356.45,427.1,355.85z M428.6,353.7
					c1.53,1.07,3.22,2.22,5.05,3.45c-0.37,0.3-0.62,0.67-0.75,1.1c-1.83-1.23-3.52-2.38-5.05-3.45
					C428.08,354.43,428.33,354.07,428.6,353.7z M422.4,351.45c-0.6-0.07-1.18-0.1-1.75-0.1c-0.7,0-1.1,0-1.2,0
					c-0.2,0.03-0.33,0.1-0.4,0.2c-0.13,0.07-0.28,0.23-0.45,0.5c-0.1,0.13-0.17,0.22-0.2,0.25c0.73,0.5,1.52,1.03,2.35,1.6
					c-0.23,0.37-0.47,0.72-0.7,1.05c-1.9-1.3-3.73-2.55-5.5-3.75c0.47-0.7,0.97-1.45,1.5-2.25c0.23-0.57,0.57-0.95,1-1.15
					c0.2-0.2,0.48-0.3,0.85-0.3c0.33-0.07,0.7,0.05,1.1,0.35c0.33,0.3,0.6,0.65,0.8,1.05c0.07,0.43,0.02,0.92-0.15,1.45
					c0.23-0.07,0.5-0.17,0.8-0.3c0.13,0,0.55,0.02,1.25,0.05c0.53,0,1.07,0.02,1.6,0.05C422.93,350.65,422.63,351.08,422.4,351.45z
					 M418.35,349.05c-0.27-0.13-0.47-0.22-0.6-0.25c-0.27,0.13-0.42,0.23-0.45,0.3c-0.1,0.1-0.3,0.37-0.6,0.8
					c-0.17,0.27-0.35,0.55-0.55,0.85c0.47,0.33,0.92,0.65,1.35,0.95c0.17-0.23,0.35-0.5,0.55-0.8c0.3-0.57,0.5-0.9,0.6-1
					c0.03-0.13,0.03-0.28,0-0.45C418.55,349.32,418.45,349.18,418.35,349.05z M417.6,358.15c-1.5-1-3-2-4.5-3
					c-0.33,0.5-0.67,1.02-1,1.55c-0.37-0.23-0.67-0.43-0.9-0.6c0.8-1.37,1.75-2.75,2.85-4.15c0.23,0.17,0.53,0.37,0.9,0.6
					c-0.4,0.6-0.77,1.12-1.1,1.55c1.43,0.97,2.93,1.98,4.5,3.05C418.05,357.58,417.8,357.92,417.6,358.15z M410.5,356.85
					c1.77,1.2,3.58,2.43,5.45,3.7c-0.17,0.27-0.43,0.6-0.8,1c-1.6-0.3-3.23-0.4-4.9-0.3c1.1,0.73,2.25,1.52,3.45,2.35
					c-0.23,0.27-0.5,0.55-0.8,0.85c-1.77-1.17-3.53-2.35-5.3-3.55c0.27-0.33,0.52-0.65,0.75-0.95c1.7-0.03,3.4,0.07,5.1,0.3
					c-1.23-0.83-2.43-1.65-3.6-2.45C410.08,357.47,410.3,357.15,410.5,356.85z M407.75,362.5c-0.67,0.97-1.33,1.9-2,2.8
					c0.4,0.27,0.8,0.53,1.2,0.8c0.67-0.97,1.3-1.82,1.9-2.55c0.27,0.17,0.57,0.37,0.9,0.6c-0.57,0.73-1.2,1.58-1.9,2.55
					c0.43,0.3,0.92,0.63,1.45,1c0.7-0.93,1.38-1.9,2.05-2.9c0.27,0.17,0.58,0.37,0.95,0.6c-1.03,1.27-2.02,2.58-2.95,3.95
					c-1.77-1.2-3.53-2.4-5.3-3.6c0.93-1.4,1.88-2.67,2.85-3.8C407.13,362.12,407.42,362.3,407.75,362.5z"/>
			</g>
		</g>
	</g>
	<g>
		<path fill-rule="evenodd" clip-rule="evenodd" fill="#FFFFFF" d="M361.6,492.95c0.33-0.13,0.75-0.22,1.25-0.25
			c0.8-0.07,1.32,0.08,1.55,0.45c0.17,0.23,0.05,0.42-0.35,0.55c-0.57,0.2-1.18,0.23-1.85,0.1c-0.6-0.13-0.87-0.35-0.8-0.65
			C361.4,493.05,361.47,492.98,361.6,492.95z M364.05,493.05c-0.47-0.2-1.03-0.27-1.7-0.2c-0.53,0.07-0.75,0.23-0.65,0.5
			c0.33,0.27,0.82,0.38,1.45,0.35c0.7-0.03,1.03-0.22,1-0.55C364.12,493.12,364.08,493.08,364.05,493.05z M363.7,493.1
			c-0.33,0.2-0.75,0.25-1.25,0.15c-0.1,0-0.2-0.02-0.3-0.05V493h0.6l-0.35,0.05c0.3,0.13,0.68,0.15,1.15,0.05H363.7z M363.6,494.9
			c0.07,0.13-0.07,0.22-0.4,0.25c-0.3,0-0.57-0.05-0.8-0.15c-0.07-0.2,0.05-0.32,0.35-0.35C363.25,494.58,363.53,494.67,363.6,494.9
			z M364.75,494.3c0.27-0.07,0.57-0.12,0.9-0.15c0.33,0.03,0.53,0.13,0.6,0.3c0,0.03-0.02,0.07-0.05,0.1
			c-0.33,0.23-0.73,0.28-1.2,0.15C364.63,494.6,364.55,494.47,364.75,494.3z M364.8,494.4c0.1,0.23,0.37,0.32,0.8,0.25
			c0.2-0.03,0.35-0.08,0.45-0.15c-0.2-0.2-0.52-0.27-0.95-0.2C365,494.33,364.9,494.37,364.8,494.4z M365.2,494.4
			c0.07-0.03,0.15-0.07,0.25-0.1l0.1,0.1c-0.03,0.1-0.15,0.13-0.35,0.1l-0.05-0.05L365.2,494.4z M367.25,495.45
			c0.33,0.03,0.65,0.1,0.95,0.2l-2.2-0.25C366.43,495.4,366.85,495.42,367.25,495.45z M367.7,497.6l-0.1-0.05l0.9,0.05l0.6,0.15
			c-0.13,0.5-0.8,0.7-2,0.6h-0.6l-0.5-0.1l-0.15-0.25c0.5-0.23,1.1-0.37,1.8-0.4H367.7z M368.9,497.9
			c-0.07-0.13-0.22-0.22-0.45-0.25l-0.65-0.05c-0.47,0.07-0.98,0.2-1.55,0.4l-0.2,0.1c0.1,0.07,0.25,0.12,0.45,0.15
			c0.1,0.03,0.18,0.05,0.25,0.05h0.65c0.5-0.03,0.97-0.12,1.4-0.25C368.9,498.02,368.93,497.97,368.9,497.9z M365.4,495.55l0.2,0.15
			l0.1,0.15l-1-0.5L365.4,495.55z M365,496.75c-0.17-0.17-0.42-0.25-0.75-0.25l-2.1-0.15l1.6-0.05c0.67-0.03,1.3,0.03,1.9,0.2
			c0.67,0.23,0.75,0.52,0.25,0.85c-0.17,0.13-0.4,0.22-0.7,0.25c-0.1,0.17-0.3,0.27-0.6,0.3c-0.1,0.03-0.2,0.05-0.3,0.05
			c-0.17,0.03-0.33,0.07-0.5,0.1h-0.1l0.15-0.05c-0.3,0-0.62-0.02-0.95-0.05l-0.45,0.1L362.3,498l-0.95-0.05l-0.7-0.2h-0.3
			l-0.05-0.1l-1.05-0.15l-0.25-0.1l0.1-0.1c-0.17-0.2-0.07-0.37,0.3-0.5c0.17-0.07,0.35-0.12,0.55-0.15c0.37-0.27,0.9-0.37,1.6-0.3
			h0.2c-0.7,0.13-1.32,0.32-1.85,0.55l0.05,0.2l-0.1,0.05l0.05,0.15c1.2,0.27,2.45,0.33,3.75,0.2l1-0.1l0.1-0.05l0.65-0.25h0.15
			l0.1-0.05c-0.03-0.1-0.08-0.17-0.15-0.2c-0.1-0.07-0.2-0.1-0.3-0.1H365z M366.1,500l0.3,0.05c-0.53,0.1-1.08,0.13-1.65,0.1
			C365.22,500.08,365.67,500.03,366.1,500z M361.05,495.55c-0.1,0-0.2,0-0.3,0l-1.45,0.25l0.55-0.2h-0.2l1.45-0.15h0.3l0.9,0.15
			c-0.33,0.3-0.87,0.45-1.6,0.45h-0.6c-0.37-0.03-0.68-0.1-0.95-0.2l0.15-0.05l0.5,0.1l0.85,0.05l1.3-0.25L361.05,495.55z
			 M361,500.05l2.2,0.05c-0.63,0.03-1.27,0.03-1.9,0L361,500.05z M361.35,499.8c-0.47,0-0.92-0.05-1.35-0.15l1.75,0.1
			C361.72,499.78,361.58,499.8,361.35,499.8z M358.1,495.65c0.17,0,0.33,0,0.5,0l-1.15,0.2
			C357.62,495.72,357.83,495.65,358.1,495.65z M356.2,496.05c0.2,0,0.4-0.02,0.6-0.05c-0.53,0.1-1.07,0.23-1.6,0.4
			c-0.63,0.2-1.08,0.45-1.35,0.75c-0.13,0.13-0.27,0.27-0.4,0.4c0-0.07,0.03-0.13,0.1-0.2l0.05-0.1l0.05-0.05
			c0.07-0.07,0.15-0.12,0.25-0.15l0.25-0.25c0.17-0.2,0.43-0.35,0.8-0.45C355.35,496.22,355.77,496.12,356.2,496.05z M355.05,499
			l0.3,0.15l1.8,0.45h-0.2l-0.65-0.1l-1.5-0.5h-0.05v-0.05c-0.4-0.03-0.7-0.15-0.9-0.35l-0.15-0.15l-0.2-0.25l0.95,0.55
			c0.07,0,0.13,0.02,0.2,0.05C354.92,498.83,355.05,498.9,355.05,499z"/>
	</g>
</g>
</svg>
