<?xml version="1.0" encoding="utf-8"?>
<!-- Generator: Adobe Illustrator 16.0.0, SVG Export Plug-In . SVG Version: 6.00 Build 0)  -->
<!DOCTYPE svg PUBLIC "-//W3C//DTD SVG 1.1//EN" "http://www.w3.org/Graphics/SVG/1.1/DTD/svg11.dtd">
<svg version="1.1" id="Layer_1" xmlns="http://www.w3.org/2000/svg" xmlns:xlink="http://www.w3.org/1999/xlink" x="0px" y="0px"
	 width="700px" height="700px" viewBox="0 0 700 700" enable-background="new 0 0 700 700" xml:space="preserve">
<g>
	<g>
		<path fill-rule="evenodd" clip-rule="evenodd" fill="#FFFFFF" d="M396.55,392.45l-14.1-57.25h76.85l9.65,39.3
			c0.43,2,0.2,3.95-0.7,5.85c-0.87,1.8-2.82,3.45-5.85,4.95c-17.33,8.2-35.7,12.73-55.1,13.6c-4.2-0.17-6.95-0.82-8.25-1.95
			C397.75,395.75,396.92,394.25,396.55,392.45z"/>
	</g>
	<g>
		<g>
			<path fill-rule="evenodd" clip-rule="evenodd" fill="none" stroke="#FFFFFF" stroke-width="0.75" stroke-miterlimit="10" d="
				M452,298.1c-0.33,1.53-0.47,2.82-0.4,3.85c-0.03,0.17-0.03,0.32,0,0.45l17.95,73.05c0.43,2,0.2,3.95-0.7,5.85
				c-0.87,1.8-2.82,3.45-5.85,4.95c-17.33,8.2-35.7,12.73-55.1,13.6c-4.2-0.17-6.95-0.82-8.25-1.95c-1.3-1.2-2.13-2.7-2.5-4.5
				l-17.1-69.6c-0.7-2.67-2.6-4.93-5.7-6.8c-1.27,0.03-1.95-0.1-2.05-0.4c-0.17-0.73,3.62-2.33,11.35-4.8
				c7.7-2.4,17.1-4.97,28.2-7.7c11.13-2.73,20.68-4.83,28.65-6.3c7.97-1.4,12.03-1.73,12.2-1c0.07,0.23-0.18,0.52-0.75,0.85
				c-0.03,0-0.05,0.02-0.05,0.05c-1.07,0.9-4.95,2.37-11.65,4.4c-6.9,2.07-15.92,4.47-27.05,7.2c-11.13,2.73-20.68,4.82-28.65,6.25
				c-4.8,0.83-8.2,1.32-10.2,1.45"/>
		</g>
		<g>
			<linearGradient id="SVGID_1_" gradientUnits="userSpaceOnUse" x1="358.0244" y1="367.8545" x2="407.8763" y2="355.5871">
				<stop  offset="0" style="stop-color:#FFFFFF;stop-opacity:0.6706"/>
				<stop  offset="1" style="stop-color:#FFFFFF;stop-opacity:0"/>
			</linearGradient>
			<path fill-rule="evenodd" clip-rule="evenodd" fill="url(#SVGID_1_)" d="M381.05,322c-0.63-1.43-1.93-3.02-3.9-4.75
				c13-1.53,24.57-3.78,34.7-6.75c0.27,2.13,0.77,4.53,1.5,7.2l19.05,77.75c-13.83,2.63-22.78,3.62-26.85,2.95
				c-4.07-0.73-6.4-2.33-7-4.8L381.05,322z"/>
		</g>
		<g>
			
				<linearGradient id="SVGID_2_" gradientUnits="userSpaceOnUse" x1="389.0313" y1="-196.4644" x2="476.7995" y2="-196.4644" gradientTransform="matrix(0.454 0.891 -0.9525 0.3333 2.373457e-004 -4.191697e-004)">
				<stop  offset="0" style="stop-color:#FFFFFF;stop-opacity:0.6706"/>
				<stop  offset="1" style="stop-color:#FFFFFF;stop-opacity:0"/>
			</linearGradient>
			<path fill-rule="evenodd" clip-rule="evenodd" fill="url(#SVGID_2_)" d="M397.95,317.4l18.2,74.15c-6.37,1.4-10.37,1.28-12-0.35
				l-18.6-72C389.62,318.9,393.75,318.3,397.95,317.4z"/>
		</g>
		<g>
			<path fill-rule="evenodd" clip-rule="evenodd" fill="none" d="M451.8,389.95c11.1-3.27,16.8-6.82,17.1-10.65"/>
			<path fill-rule="evenodd" clip-rule="evenodd" fill="none" d="M397.85,393.7c3.07,6.13,15.58,6.65,37.55,1.55"/>
		</g>
		<g>
			<line fill-rule="evenodd" clip-rule="evenodd" fill="none" x1="450.6" y1="305.95" x2="467.95" y2="376.45"/>
		</g>
		<g>
			<path fill-rule="evenodd" clip-rule="evenodd" fill="none" d="M457.85,379.5c3.5-0.63,5.97-0.95,7.4-0.95
				c0.63,0,1.03,0.07,1.2,0.2"/>
			<path fill-rule="evenodd" clip-rule="evenodd" fill="none" d="M400.45,394.75c1-1.8,13.98-5.62,38.95-11.45"/>
		</g>
		<g>
			
				<linearGradient id="SVGID_3_" gradientUnits="userSpaceOnUse" x1="-376.4321" y1="-460.8154" x2="-354.3076" y2="-460.8154" gradientTransform="matrix(-0.9548 0.2972 -0.2421 -0.972 4.256070e-004 1.220107e-004)">
				<stop  offset="0" style="stop-color:#FFFFFF;stop-opacity:0.6706"/>
				<stop  offset="1" style="stop-color:#FFFFFF;stop-opacity:0"/>
			</linearGradient>
			<path fill-rule="evenodd" clip-rule="evenodd" fill="url(#SVGID_3_)" d="M447.6,380.55l-18-73.1c7.03-1.9,13.62-4.1,19.75-6.6
				l18,73.1C460.22,382.85,453.63,385.05,447.6,380.55z"/>
		</g>
		<g>
			
				<linearGradient id="SVGID_4_" gradientUnits="userSpaceOnUse" x1="-504.8828" y1="322.2808" x2="-478.2144" y2="322.2808" gradientTransform="matrix(-0.2531 -0.9674 0.9728 -0.2327 1.499653e-004 -3.008544e-004)">
				<stop  offset="0" style="stop-color:#FFFFFF"/>
				<stop  offset="1" style="stop-color:#FFFFFF;stop-opacity:0"/>
			</linearGradient>
			<path fill-rule="evenodd" clip-rule="evenodd" fill="url(#SVGID_4_)" d="M461.8,370.2c1.87,0.33,3.4,0.8,4.6,1.4l2.8,5.35
				c0,3.67-1.5,6.32-4.5,7.95c-2.53,1.6-7.23,3.67-14.1,6.2c-9.63,3.5-19.55,5.93-29.75,7.3c-4.5,0.47-8.42,0.62-11.75,0.45
				c-3.97-0.13-7.28-1.25-9.95-3.35C426.22,392.43,447.1,384,461.8,370.2z"/>
		</g>
		<g>
			<path fill-rule="evenodd" clip-rule="evenodd" fill="none" d="M376.15,316.8c1.6,0.97,3.28,3.02,5.05,6.15"/>
			<line fill-rule="evenodd" clip-rule="evenodd" fill="none" x1="410.7" y1="313.8" x2="411.1" y2="313.75"/>
			<path fill-rule="evenodd" clip-rule="evenodd" fill="none" d="M382.9,317.25c11.4-1.83,22.15-3.98,32.25-6.45
				c12.63-3.07,24.18-6.58,34.65-10.55"/>
		</g>
		<g>
			<line fill-rule="evenodd" clip-rule="evenodd" fill="none" x1="418.05" y1="322.4" x2="434.3" y2="388.3"/>
		</g>
		<g>
			<path fill-rule="evenodd" clip-rule="evenodd" fill="none" d="M413.35,338.75c5.9,0.23,11.83-1.23,17.8-4.4"/>
			<path fill-rule="evenodd" clip-rule="evenodd" fill="none" d="M415,345.45c5.93,0.27,11.87-1.2,17.8-4.4"/>
			<path fill-rule="evenodd" clip-rule="evenodd" fill="none" d="M411.45,331.15c5.93,0.27,11.87-1.2,17.8-4.4"/>
			<path fill-rule="evenodd" clip-rule="evenodd" fill="none" d="M409.8,324.45c5.93,0.2,11.87-1.27,17.8-4.4"/>
			<path fill-rule="evenodd" clip-rule="evenodd" fill="none" d="M423.25,379c5.93,0.27,11.87-1.2,17.8-4.4"/>
			<path fill-rule="evenodd" clip-rule="evenodd" fill="none" d="M440.05,382.7c0.9-0.4,1.78-0.85,2.65-1.35 M424.9,385.75
				c0.9,0.03,1.8,0.03,2.7,0"/>
			<path fill-rule="evenodd" clip-rule="evenodd" fill="none" d="M416.55,351.7c5.9,0.27,11.83-1.2,17.8-4.4"/>
			<path fill-rule="evenodd" clip-rule="evenodd" fill="none" d="M421.7,372.75c5.93,0.23,11.87-1.23,17.8-4.4"/>
			<path fill-rule="evenodd" clip-rule="evenodd" fill="none" d="M420.05,366c5.93,0.27,11.87-1.2,17.8-4.4"/>
			<path fill-rule="evenodd" clip-rule="evenodd" fill="none" d="M418.2,358.5c5.93,0.2,11.87-1.27,17.8-4.4"/>
		</g>
		<g>
			<path fill-rule="evenodd" clip-rule="evenodd" fill="#CCCCCC" d="M386.5,343.2c23.73-4.1,46.85-9.78,69.35-17.05l7.25,29.45
				c-22.23,8.37-45.35,14.05-69.35,17.05L386.5,343.2z"/>
		</g>
		<g>
			<path fill-rule="evenodd" clip-rule="evenodd" d="M403.45,348.95c-1.13,0.3-2.25,0.57-3.35,0.8c0.1,0.43,0.2,0.88,0.3,1.35
				c1.23-0.27,2.3-0.48,3.2-0.65c0.07,0.27,0.15,0.62,0.25,1.05c-0.9,0.17-1.95,0.38-3.15,0.65c0.1,0.53,0.23,1.1,0.4,1.7
				c1.17-0.27,2.33-0.52,3.5-0.75c0.1,0.3,0.2,0.65,0.3,1.05c-1.6,0.23-3.2,0.55-4.8,0.95c-0.53-2.07-1.05-4.13-1.55-6.2
				c1.63-0.4,3.18-0.72,4.65-0.95C403.27,348.25,403.35,348.58,403.45,348.95z M396.65,351.3c-0.1-0.3-0.3-0.48-0.6-0.55
				c-0.2-0.2-0.52-0.27-0.95-0.2c-0.4,0.1-0.75,0.35-1.05,0.75c-0.1,0.3-0.12,0.87-0.05,1.7c0.2,0.73,0.48,1.25,0.85,1.55
				c0.4,0.3,0.82,0.4,1.25,0.3c0.37-0.2,0.65-0.35,0.85-0.45c0.2-0.3,0.27-0.68,0.2-1.15c0.47,0.07,0.93,0.12,1.4,0.15
				c-0.03,0.6-0.23,1.18-0.6,1.75c-0.3,0.4-0.83,0.67-1.6,0.8c-0.8,0.17-1.55,0.02-2.25-0.45c-0.67-0.53-1.12-1.25-1.35-2.15
				c-0.17-1.13-0.08-2,0.25-2.6c0.33-0.77,0.97-1.15,1.9-1.15c0.8-0.4,1.47-0.33,2,0.2c0.43,0.13,0.77,0.45,1,0.95
				C397.5,350.95,397.08,351.13,396.65,351.3z M454.45,336.65c0.2,0.4,0.4,0.87,0.6,1.4c0.07,0.5,0.1,0.98,0.1,1.45
				c-0.1,0.47-0.25,0.88-0.45,1.25c-0.1,0.23-0.33,0.48-0.7,0.75c-0.3,0.1-0.67,0.23-1.1,0.4c-0.8,0.27-1.58,0.48-2.35,0.65
				c-0.5-2.07-1.02-4.15-1.55-6.25c0.7-0.2,1.47-0.42,2.3-0.65c0.47-0.2,0.87-0.27,1.2-0.2c0.37-0.03,0.72,0.1,1.05,0.4
				C453.85,336.02,454.15,336.28,454.45,336.65z M451,336.95c-0.17,0.03-0.33,0.07-0.5,0.1c0.33,1.33,0.68,2.7,1.05,4.1
				c0.23-0.03,0.53-0.13,0.9-0.3c0.3-0.13,0.57-0.22,0.8-0.25c0.13-0.13,0.28-0.27,0.45-0.4c0-0.1,0.05-0.32,0.15-0.65
				c-0.1-0.3-0.17-0.7-0.2-1.2c-0.23-0.5-0.35-0.85-0.35-1.05c-0.17-0.27-0.33-0.45-0.5-0.55c-0.2-0.13-0.45-0.15-0.75-0.05
				C451.92,336.63,451.57,336.72,451,336.95z M448.45,340.2c-1.03,0.23-2.08,0.55-3.15,0.95c0.1,0.53,0.23,1.1,0.4,1.7
				c1.2-0.43,2.38-0.78,3.55-1.05c0.07,0.3,0.15,0.65,0.25,1.05c-1.67,0.47-3.23,0.93-4.7,1.4c-0.5-2.07-1-4.15-1.5-6.25
				c1.5-0.43,3-0.9,4.5-1.4c0.1,0.3,0.2,0.67,0.3,1.1c-1.1,0.3-2.23,0.65-3.4,1.05c0.1,0.43,0.2,0.88,0.3,1.35
				c1.07-0.4,2.12-0.72,3.15-0.95C448.22,339.45,448.32,339.8,448.45,340.2z M415.45,346.4c-0.67,0.17-1.27,0.3-1.8,0.4
				c0.4,1.7,0.83,3.47,1.3,5.3c-0.5,0.1-0.93,0.18-1.3,0.25c-0.43-1.73-0.85-3.48-1.25-5.25c-0.6,0.13-1.2,0.28-1.8,0.45
				c-0.13-0.4-0.23-0.75-0.3-1.05c1.53-0.47,3.15-0.85,4.85-1.15C415.25,345.65,415.35,346,415.45,346.4z M417.6,345.85
				c0.13,0.57,0.27,1.1,0.4,1.6c0.23-0.07,0.53-0.13,0.9-0.2c0.6-0.23,0.95-0.35,1.05-0.35c0.13-0.1,0.25-0.22,0.35-0.35
				c0-0.13,0.02-0.28,0.05-0.45c-0.13-0.27-0.23-0.47-0.3-0.6c-0.3-0.1-0.48-0.13-0.55-0.1c-0.1,0.03-0.42,0.1-0.95,0.2
				C418.22,345.7,417.9,345.78,417.6,345.85z M418.7,344.45c0.57-0.23,1.07-0.28,1.5-0.15c0.3-0.03,0.57,0.08,0.8,0.35
				c0.3,0.17,0.5,0.5,0.6,1c0.03,0.43,0.02,0.87-0.05,1.3c-0.27,0.37-0.65,0.68-1.15,0.95c0.23,0.13,0.52,0.23,0.85,0.3
				c0.1,0.1,0.38,0.42,0.85,0.95c0.4,0.33,0.78,0.68,1.15,1.05c-0.57,0.13-1.07,0.25-1.5,0.35c-0.4-0.43-0.82-0.85-1.25-1.25
				c-0.5-0.47-0.78-0.72-0.85-0.75c-0.2-0.1-0.37-0.13-0.5-0.1c-0.13-0.07-0.35-0.05-0.65,0.05c-0.13,0.03-0.22,0.05-0.25,0.05
				c0.2,0.83,0.42,1.73,0.65,2.7c-0.43,0.1-0.87,0.2-1.3,0.3c-0.53-2.23-1.07-4.38-1.6-6.45
				C416.87,344.9,417.77,344.68,418.7,344.45z M423.6,343.25c0.53,2.07,1.07,4.22,1.6,6.45c-0.53,0.13-0.95,0.23-1.25,0.3
				c-0.53-2.23-1.07-4.38-1.6-6.45C422.65,343.48,423.07,343.38,423.6,343.25z M426.35,343.7c0.1,0.5,0.22,1,0.35,1.5
				c0.83-0.2,1.68-0.4,2.55-0.6c0.17,0.27,0.25,0.63,0.25,1.1c-0.87,0.13-1.7,0.35-2.5,0.65c0.2,0.83,0.42,1.75,0.65,2.75
				c-0.47,0.13-0.9,0.23-1.3,0.3c-0.53-2.23-1.07-4.38-1.6-6.45c1.4-0.33,2.83-0.68,4.3-1.05c0.1,0.3,0.2,0.65,0.3,1.05
				C428.35,343.22,427.35,343.47,426.35,343.7z M432.25,344.75c0.1,0.43,0.22,0.8,0.35,1.1c0.1,0.17,0.28,0.35,0.55,0.55
				c0.2,0,0.5-0.03,0.9-0.1c0.27-0.13,0.52-0.28,0.75-0.45c0.07-0.33,0.12-0.57,0.15-0.7c-0.03-0.23-0.12-0.57-0.25-1
				c-0.3-1.27-0.58-2.45-0.85-3.55c0.43-0.1,0.87-0.22,1.3-0.35c0.27,1.07,0.53,2.18,0.8,3.35c0.13,0.73,0.23,1.28,0.3,1.65
				c0,0.27-0.07,0.57-0.2,0.9c-0.1,0.3-0.32,0.57-0.65,0.8c-0.33,0.23-0.7,0.4-1.1,0.5c-0.6,0.17-1.1,0.22-1.5,0.15
				c-0.33-0.13-0.6-0.27-0.8-0.4c-0.23-0.23-0.38-0.42-0.45-0.55c-0.2-0.33-0.38-0.87-0.55-1.6c-0.3-1.23-0.58-2.37-0.85-3.4
				c0.4-0.2,0.82-0.32,1.25-0.35C431.67,342.37,431.95,343.52,432.25,344.75z M442.45,340.15c-0.4,0.1-0.83,0.27-1.3,0.5
				c-0.23-0.33-0.43-0.53-0.6-0.6c-0.33-0.07-0.67-0.05-1,0.05c-0.67,0.13-1.07,0.43-1.2,0.9c-0.3,0.4-0.32,0.95-0.05,1.65
				c0.1,0.73,0.38,1.27,0.85,1.6c0.3,0.3,0.78,0.35,1.45,0.15c0.2-0.1,0.45-0.22,0.75-0.35c0.07-0.23,0.25-0.45,0.55-0.65
				c-0.07-0.3-0.13-0.55-0.2-0.75c-0.47,0.17-0.92,0.3-1.35,0.4c-0.1-0.43-0.2-0.8-0.3-1.1c0.83-0.27,1.75-0.5,2.75-0.7
				c0.2,0.87,0.4,1.7,0.6,2.5c-0.3,0.27-0.62,0.58-0.95,0.95c-0.47,0.33-0.97,0.58-1.5,0.75c-0.7,0.2-1.3,0.25-1.8,0.15
				c-0.63-0.13-1.08-0.45-1.35-0.95c-0.43-0.43-0.7-0.95-0.8-1.55c-0.2-0.67-0.22-1.3-0.05-1.9c0.13-0.57,0.43-1.05,0.9-1.45
				c0.27-0.37,0.75-0.62,1.45-0.75c0.63-0.23,1.3-0.25,2-0.05C441.77,339.15,442.15,339.55,442.45,340.15z M427.3,355.85
				c0.37,1.43,0.75,2.98,1.15,4.65c1.03-0.23,2.08-0.48,3.15-0.75c0.07,0.3,0.17,0.7,0.3,1.2c-1.57,0.4-3.03,0.77-4.4,1.1
				c-0.53-2.17-1.02-4.12-1.45-5.85C426.48,356.07,426.9,355.95,427.3,355.85z M433.2,356.85c0.6-1.1,1.27-2.17,2-3.2
				c0.5-0.1,1.07-0.27,1.7-0.5c-0.67,1-1.28,1.97-1.85,2.9c1.1,0.87,2.2,1.83,3.3,2.9c-0.5,0.13-1.03,0.28-1.6,0.45
				c-0.8-0.9-1.58-1.67-2.35-2.3c-0.27,0.3-0.53,0.7-0.8,1.2c0.13,0.57,0.28,1.22,0.45,1.95c-0.47,0.17-0.9,0.3-1.3,0.4
				c-0.5-2.1-0.97-4.07-1.4-5.9c0.4-0.1,0.83-0.22,1.3-0.35C432.82,355.17,433,355.98,433.2,356.85z M418,357.95
				c0.73,1.1,1.43,2.27,2.1,3.5c0.07-1.43,0.17-2.78,0.3-4.05c0.57-0.1,1.2-0.23,1.9-0.4c0.43,1.8,0.9,3.73,1.4,5.8
				c-0.43,0.23-0.83,0.32-1.2,0.25c-0.43-1.77-0.8-3.3-1.1-4.6c-0.1,1.43-0.17,3.03-0.2,4.8c-0.43,0.2-0.82,0.3-1.15,0.3
				c-0.87-1.7-1.67-3.15-2.4-4.35c0.3,1.27,0.67,2.8,1.1,4.6c-0.43-0.07-0.83,0.02-1.2,0.25c-0.53-2.1-1-4.03-1.4-5.8
				C416.82,358.15,417.43,358.05,418,357.95z M424.8,356.4c0.43,1.83,0.92,3.82,1.45,5.95c-0.47,0-0.88,0.1-1.25,0.3
				c-0.53-2.13-1.02-4.12-1.45-5.95C423.95,356.6,424.37,356.5,424.8,356.4z M409.35,346.6c0.5,2.07,1.02,4.18,1.55,6.35
				c-0.33,0.1-0.77,0.18-1.3,0.25c-1-1.3-2.15-2.47-3.45-3.5c0.33,1.3,0.67,2.65,1,4.05c-0.33,0.03-0.73,0.07-1.2,0.1
				c-0.53-2.07-1.05-4.13-1.55-6.2c0.43-0.07,0.87-0.13,1.3-0.2c1.23,1.1,2.42,2.32,3.55,3.65c-0.37-1.43-0.72-2.83-1.05-4.2
				C408.6,346.8,408.98,346.7,409.35,346.6z"/>
		</g>
	</g>
</g>
</svg>
