<?xml version="1.0" encoding="utf-8"?>
<!-- Generator: Adobe Illustrator 16.0.0, SVG Export Plug-In . SVG Version: 6.00 Build 0)  -->
<!DOCTYPE svg PUBLIC "-//W3C//DTD SVG 1.1//EN" "http://www.w3.org/Graphics/SVG/1.1/DTD/svg11.dtd">
<svg version="1.1" id="Layer_1" xmlns="http://www.w3.org/2000/svg" xmlns:xlink="http://www.w3.org/1999/xlink" x="0px" y="0px"
	 width="700px" height="700px" viewBox="0 0 700 700" enable-background="new 0 0 700 700" xml:space="preserve">
<g>
	<g>
		<path fill-rule="evenodd" clip-rule="evenodd" fill="#FFFFFF" d="M474,368.05c-0.4,1.97-1.88,4.03-4.45,6.2
			c-14.8,12.17-31.5,20.98-50.1,26.45c-4.17,0.9-7,0.95-8.5,0.15c-1.53-0.83-2.68-2.08-3.45-3.75l-29.8-56.9l83.6-0.75l12,22.75
			C474.2,364.07,474.43,366.02,474,368.05z"/>
	</g>
	<g>
		<g>
			<path fill-rule="evenodd" clip-rule="evenodd" fill="none" stroke="#FFFFFF" stroke-width="0.75" stroke-miterlimit="10" d="
				M438.55,292.7c0.03,1.6,0.2,2.9,0.5,3.9c0.03,0.13,0.08,0.27,0.15,0.4l35.05,66.45c0.9,1.87,1.13,3.82,0.7,5.85
				c-0.4,1.97-1.88,4.03-4.45,6.2c-14.8,12.17-31.5,20.98-50.1,26.45c-4.17,0.9-7,0.95-8.5,0.15c-1.53-0.83-2.68-2.08-3.45-3.75
				l-33.4-63.3c-1.33-2.4-3.72-4.15-7.15-5.25c-1.3,0.37-2.02,0.4-2.15,0.1c-0.37-0.63,2.92-3.08,9.85-7.35
				c6.9-4.2,15.4-8.97,25.5-14.3c10.13-5.33,18.85-9.67,26.15-13c7.43-3.27,11.33-4.58,11.7-3.95c0.1,0.23-0.08,0.58-0.55,1.05
				h-0.05c-0.8,1.13-4.22,3.52-10.25,7.15c-6.17,3.63-14.32,8.13-24.45,13.5c-10.13,5.33-18.87,9.65-26.2,12.95
				c-4.5,1.97-7.68,3.25-9.55,3.85"/>
		</g>
		<g>
			<linearGradient id="SVGID_1_" gradientUnits="userSpaceOnUse" x1="364.2734" y1="383.0645" x2="409.6214" y2="359.1357">
				<stop  offset="0" style="stop-color:#FFFFFF;stop-opacity:0.6706"/>
				<stop  offset="1" style="stop-color:#FFFFFF;stop-opacity:0"/>
			</linearGradient>
			<path fill-rule="evenodd" clip-rule="evenodd" fill="url(#SVGID_1_)" d="M370.6,329.4c12.27-4.63,22.95-9.6,32.05-14.9
				c0.77,1.97,1.82,4.15,3.15,6.55l37.2,70.8c-12.73,5.87-21.17,8.97-25.3,9.3c-4.07,0.3-6.68-0.67-7.85-2.9L375.6,333.1
				C374.6,331.83,372.93,330.6,370.6,329.4z"/>
		</g>
		<g>
			
				<linearGradient id="SVGID_2_" gradientUnits="userSpaceOnUse" x1="444.3262" y1="-68.0513" x2="532.0089" y2="-68.0513" gradientTransform="matrix(0.6561 0.7547 -0.8436 0.5538 3.816485e-004 -4.269481e-004)">
				<stop  offset="0" style="stop-color:#FFFFFF;stop-opacity:0.6706"/>
				<stop  offset="1" style="stop-color:#FFFFFF;stop-opacity:0"/>
			</linearGradient>
			<path fill-rule="evenodd" clip-rule="evenodd" fill="url(#SVGID_2_)" d="M390.8,324.5l35.55,67.5
				c-5.83,2.87-9.75,3.72-11.75,2.55l-35.4-65.25C383.07,327.97,386.93,326.37,390.8,324.5z"/>
		</g>
		<g>
			<path fill-rule="evenodd" clip-rule="evenodd" fill="none" d="M460.55,381.8c9.97-5.83,14.63-10.65,14-14.45"/>
			<path fill-rule="evenodd" clip-rule="evenodd" fill="none" d="M409.15,398.55c4.47,5.13,16.73,2.58,36.8-7.65"/>
		</g>
		<g>
			<line fill-rule="evenodd" clip-rule="evenodd" fill="none" x1="439.1" y1="300.65" x2="472.95" y2="364.85"/>
		</g>
		<g>
			<path fill-rule="evenodd" clip-rule="evenodd" fill="none" d="M463.9,370.25c3.23-1.47,5.53-2.37,6.9-2.7
				c0.63-0.2,1.03-0.23,1.2-0.1"/>
			<path fill-rule="evenodd" clip-rule="evenodd" fill="none" d="M412,398.9c0.5-2,12.15-8.87,34.95-20.6"/>
		</g>
		<g>
			
				<linearGradient id="SVGID_3_" gradientUnits="userSpaceOnUse" x1="-259.4517" y1="-519.9839" x2="-237.3493" y2="-519.9839" gradientTransform="matrix(-0.854 0.5203 -0.4702 -0.8845 -5.023181e-004 4.042983e-004)">
				<stop  offset="0" style="stop-color:#FFFFFF;stop-opacity:0.6706"/>
				<stop  offset="1" style="stop-color:#FFFFFF;stop-opacity:0"/>
			</linearGradient>
			<path fill-rule="evenodd" clip-rule="evenodd" fill="url(#SVGID_3_)" d="M454.2,373.75l-35.1-66.5
				c6.33-3.57,12.18-7.3,17.55-11.2l35.1,66.5C466.98,372.92,461.13,376.65,454.2,373.75z"/>
		</g>
		<g>
			
				<linearGradient id="SVGID_4_" gradientUnits="userSpaceOnUse" x1="-571.6279" y1="205.6094" x2="-544.9798" y2="205.6094" gradientTransform="matrix(-0.4785 -0.8781 0.8876 -0.4611 1.287460e-004 4.489124e-004)">
				<stop  offset="0" style="stop-color:#FFFFFF"/>
				<stop  offset="1" style="stop-color:#FFFFFF;stop-opacity:0"/>
			</linearGradient>
			<path fill-rule="evenodd" clip-rule="evenodd" fill="url(#SVGID_4_)" d="M471.8,373.85c-2.07,2.1-6.13,5.2-12.2,9.3
				c-8.47,5.77-17.48,10.53-27.05,14.3c-4.23,1.57-8,2.67-11.3,3.3c-3.8,0.83-7.27,0.57-10.4-0.8c25.5-9.53,43.68-22.77,54.55-39.7
				c1.93-0.1,3.57,0,4.9,0.3l3.95,4.45C475.15,368.57,474.33,371.52,471.8,373.85z"/>
		</g>
		<g>
			<path fill-rule="evenodd" clip-rule="evenodd" fill="none" d="M369.55,329.2c1.8,0.53,3.92,2.12,6.35,4.75"/>
			<line fill-rule="evenodd" clip-rule="evenodd" fill="none" x1="402.3" y1="317.95" x2="402.65" y2="317.75"/>
			<path fill-rule="evenodd" clip-rule="evenodd" fill="none" d="M376.15,328.05c10.63-4.6,20.55-9.3,29.75-14.1
				c11.5-6.03,21.82-12.23,30.95-18.6"/>
		</g>
		<g>
			<line fill-rule="evenodd" clip-rule="evenodd" fill="none" x1="411.5" y1="324.5" x2="443.15" y2="384.5"/>
		</g>
		<g>
			<path fill-rule="evenodd" clip-rule="evenodd" fill="none" d="M410.9,341.5c5.8-1.23,11.2-4.08,16.2-8.55"/>
			<path fill-rule="evenodd" clip-rule="evenodd" fill="none" d="M407.25,334.55c5.8-1.17,11.2-4.02,16.2-8.55"/>
			<path fill-rule="evenodd" clip-rule="evenodd" fill="none" d="M427.2,372.4c5.8-1.2,11.2-4.05,16.2-8.55"/>
			<path fill-rule="evenodd" clip-rule="evenodd" fill="none" d="M423.95,366.3c5.83-1.2,11.23-4.05,16.2-8.55"/>
			<path fill-rule="evenodd" clip-rule="evenodd" fill="none" d="M433.45,384.25c0.9-0.17,1.78-0.4,2.65-0.7 M447.4,377.6
				c0.77-0.6,1.52-1.23,2.25-1.9"/>
			<path fill-rule="evenodd" clip-rule="evenodd" fill="none" d="M420.35,359.45c5.8-1.23,11.2-4.08,16.2-8.55"/>
			<path fill-rule="evenodd" clip-rule="evenodd" fill="none" d="M430.2,378.1c5.83-1.2,11.23-4.05,16.2-8.55"/>
			<path fill-rule="evenodd" clip-rule="evenodd" fill="none" d="M417.1,353.25c5.8-1.2,11.2-4.05,16.2-8.55"/>
			<path fill-rule="evenodd" clip-rule="evenodd" fill="none" d="M414.1,347.55c5.83-1.17,11.23-4.02,16.2-8.55"/>
			<path fill-rule="evenodd" clip-rule="evenodd" fill="none" d="M404,328.45c5.8-1.23,11.2-4.08,16.2-8.55"/>
		</g>
		<g>
			<path fill-rule="evenodd" clip-rule="evenodd" fill="#CCCCCC" d="M386,352.3c21.97-9.73,42.98-20.83,63.05-33.3l14.1,26.8
				c-19.53,13.47-40.55,24.57-63.05,33.3L386,352.3z"/>
		</g>
		<g>
			<path fill-rule="evenodd" clip-rule="evenodd" d="M395.2,358.25c0,0.37,0.13,0.95,0.4,1.75c0.4,0.63,0.8,1.05,1.2,1.25
				c0.43,0.2,0.85,0.2,1.25,0c0.33-0.27,0.57-0.48,0.7-0.65c0.1-0.33,0.08-0.7-0.05-1.1c0.5-0.07,0.95-0.15,1.35-0.25
				c0.17,0.6,0.13,1.2-0.1,1.8c-0.23,0.5-0.68,0.92-1.35,1.25c-0.77,0.3-1.55,0.33-2.35,0.1c-0.77-0.37-1.37-0.95-1.8-1.75
				c-0.43-1.1-0.57-1.97-0.4-2.6c0.17-0.87,0.7-1.4,1.6-1.6c0.7-0.53,1.38-0.63,2.05-0.3c0.37,0.03,0.73,0.28,1.1,0.75
				c-0.3,0.27-0.63,0.53-1,0.8c-0.23-0.27-0.5-0.42-0.8-0.45c-0.23-0.13-0.55-0.12-0.95,0.05
				C395.68,357.5,395.4,357.82,395.2,358.25z M401.35,356.55c1.1-0.53,2.08-1,2.95-1.4c0.13,0.27,0.3,0.6,0.5,1
				c-0.87,0.37-1.85,0.82-2.95,1.35c0.23,0.47,0.5,0.98,0.8,1.55c1.1-0.53,2.18-1.05,3.25-1.55c0.13,0.27,0.3,0.58,0.5,0.95
				c-1.5,0.67-2.98,1.37-4.45,2.1c-0.97-1.9-1.95-3.78-2.95-5.65c1.5-0.77,2.93-1.45,4.3-2.05c0.13,0.27,0.28,0.58,0.45,0.95
				c-1.03,0.5-2.05,1-3.05,1.5C400.9,355.7,401.12,356.12,401.35,356.55z M449.2,328.95c0.3,0.1,0.63,0.28,1,0.55
				c0.3,0.37,0.63,0.8,1,1.3c0.13,0.43,0.25,0.85,0.35,1.25c0.07,0.53,0.05,0.98-0.05,1.35c-0.07,0.27-0.25,0.57-0.55,0.9
				c-0.23,0.17-0.55,0.38-0.95,0.65c-0.7,0.43-1.4,0.85-2.1,1.25c-1-1.9-2.02-3.8-3.05-5.7c0.67-0.37,1.37-0.75,2.1-1.15
				c0.43-0.33,0.8-0.5,1.1-0.5C448.38,328.72,448.77,328.75,449.2,328.95z M448.65,330c-0.2-0.07-0.43-0.03-0.7,0.1
				c-0.2,0-0.53,0.18-1,0.55c-0.13,0.07-0.28,0.13-0.45,0.2c0.67,1.23,1.33,2.48,2,3.75c0.23-0.1,0.5-0.28,0.8-0.55
				c0.23-0.2,0.47-0.33,0.7-0.4c0.17-0.17,0.28-0.32,0.35-0.45c-0.03-0.17-0.05-0.42-0.05-0.75c-0.17-0.23-0.32-0.58-0.45-1.05
				c-0.37-0.43-0.57-0.77-0.6-1C449.02,330.17,448.82,330.03,448.65,330z M446.95,336.75c-1.53,0.87-2.95,1.68-4.25,2.45
				c-1-1.87-2-3.77-3-5.7c1.4-0.77,2.75-1.57,4.05-2.4c0.17,0.27,0.35,0.58,0.55,0.95c-1,0.53-2,1.15-3,1.85
				c0.2,0.4,0.42,0.82,0.65,1.25c0.93-0.67,1.87-1.25,2.8-1.75c0.13,0.27,0.3,0.6,0.5,1c-0.93,0.5-1.87,1.07-2.8,1.7
				c0.23,0.47,0.5,0.98,0.8,1.55c1.03-0.73,2.08-1.37,3.15-1.9C446.53,336.02,446.72,336.35,446.95,336.75z M418.9,345.2
				c0.27-0.1,0.55-0.05,0.85,0.15c0.33,0.1,0.62,0.37,0.85,0.8c0.13,0.43,0.2,0.87,0.2,1.3c-0.13,0.43-0.42,0.83-0.85,1.2
				c0.23,0.07,0.52,0.12,0.85,0.15c0.13,0.07,0.5,0.27,1.1,0.6c0.47,0.23,0.92,0.5,1.35,0.8c-0.53,0.27-0.98,0.5-1.35,0.7
				c-0.5-0.3-1-0.62-1.5-0.95c-0.6-0.3-0.95-0.45-1.05-0.45c-0.2-0.1-0.37-0.12-0.5-0.05c-0.13-0.03-0.33,0.03-0.6,0.2
				c-0.17,0.07-0.27,0.1-0.3,0.1c0.4,0.77,0.83,1.6,1.3,2.5c-0.37,0.23-0.75,0.45-1.15,0.65c-1.07-2.03-2.08-4-3.05-5.9
				c0.77-0.43,1.58-0.87,2.45-1.3C417.97,345.37,418.43,345.2,418.9,345.2z M418.5,346.45c-0.13,0.07-0.43,0.22-0.9,0.45
				c-0.3,0.17-0.6,0.32-0.9,0.45c0.27,0.5,0.52,0.98,0.75,1.45c0.23-0.1,0.52-0.23,0.85-0.4c0.53-0.37,0.88-0.57,1.05-0.6
				c0.07-0.13,0.13-0.27,0.2-0.4c-0.07-0.17-0.1-0.33-0.1-0.5c-0.2-0.2-0.33-0.37-0.4-0.5C418.75,346.4,418.57,346.42,418.5,346.45z
				 M421.95,343.35c0.97,1.9,1.98,3.87,3.05,5.9c-0.47,0.23-0.85,0.43-1.15,0.6c-1.07-2.03-2.08-4-3.05-5.9
				C421.1,343.78,421.48,343.58,421.95,343.35z M434.4,338.2c-0.03-0.6,0.15-1.17,0.55-1.7c0.13-0.4,0.52-0.75,1.15-1.05
				c0.57-0.37,1.22-0.55,1.95-0.55c0.47,0.1,0.93,0.4,1.4,0.9c-0.4,0.2-0.77,0.47-1.1,0.8c-0.33-0.27-0.6-0.4-0.8-0.4
				c-0.33,0-0.65,0.08-0.95,0.25c-0.6,0.27-0.92,0.67-0.95,1.2c-0.17,0.43-0.05,0.98,0.35,1.65c0.3,0.63,0.7,1.07,1.2,1.3
				c0.4,0.17,0.88,0.08,1.45-0.25c0.17-0.1,0.38-0.27,0.65-0.5c0-0.23,0.15-0.47,0.45-0.7c-0.17-0.3-0.3-0.53-0.4-0.7
				c-0.47,0.27-0.88,0.5-1.25,0.7c-0.2-0.4-0.37-0.73-0.5-1c0.73-0.47,1.55-0.93,2.45-1.4c0.4,0.77,0.8,1.52,1.2,2.25
				c-0.27,0.37-0.52,0.78-0.75,1.25c-0.33,0.43-0.75,0.8-1.25,1.1c-0.63,0.33-1.2,0.5-1.7,0.5c-0.67,0.03-1.17-0.15-1.5-0.55
				c-0.53-0.33-0.92-0.78-1.15-1.35C434.53,339.38,434.37,338.8,434.4,338.2z M432.35,337.7c0.5,0.97,1.03,1.98,1.6,3.05
				c0.33,0.67,0.58,1.17,0.75,1.5c0.03,0.27,0.02,0.57-0.05,0.9c0,0.33-0.15,0.65-0.45,0.95c-0.23,0.33-0.53,0.58-0.9,0.75
				c-0.57,0.3-1.03,0.45-1.4,0.45c-0.37-0.03-0.65-0.08-0.85-0.15c-0.3-0.17-0.5-0.3-0.6-0.4c-0.3-0.27-0.62-0.75-0.95-1.45
				c-0.6-1.1-1.13-2.13-1.6-3.1c0.33-0.27,0.7-0.47,1.1-0.6c0.5,0.97,1.05,2,1.65,3.1c0.2,0.43,0.4,0.77,0.6,1
				c0.17,0.17,0.38,0.3,0.65,0.4c0.23-0.03,0.52-0.13,0.85-0.3c0.23-0.2,0.45-0.42,0.65-0.65c0-0.3-0.02-0.52-0.05-0.65
				c-0.1-0.2-0.27-0.52-0.5-0.95c-0.6-1.13-1.17-2.2-1.7-3.2C431.58,338.12,431.98,337.9,432.35,337.7z M425.95,345.55
				c0.4,0.77,0.83,1.6,1.3,2.5c-0.43,0.23-0.83,0.45-1.2,0.65c-1.07-2.03-2.08-4-3.05-5.9c1.27-0.67,2.58-1.37,3.95-2.1
				c0.13,0.27,0.3,0.6,0.5,1c-0.9,0.5-1.82,0.98-2.75,1.45c0.23,0.43,0.47,0.88,0.7,1.35c0.77-0.4,1.53-0.8,2.3-1.2
				c0.23,0.23,0.4,0.57,0.5,1C427.43,344.63,426.68,345.05,425.95,345.55z M436.1,353c1.27,0.57,2.55,1.25,3.85,2.05
				c-0.4,0.23-0.85,0.5-1.35,0.8c-1.03-0.7-2-1.25-2.9-1.65c-0.17,0.37-0.32,0.82-0.45,1.35c0.27,0.53,0.58,1.12,0.95,1.75
				c-0.43,0.27-0.83,0.5-1.2,0.7c-1-1.93-1.93-3.72-2.8-5.35c0.37-0.2,0.77-0.42,1.2-0.65c0.33,0.67,0.72,1.4,1.15,2.2
				c0.3-1.23,0.68-2.42,1.15-3.55c0.47-0.23,0.97-0.53,1.5-0.9C436.83,350.88,436.47,351.97,436.1,353z M428.6,354.7
				c0.7,1.27,1.45,2.67,2.25,4.2c0.93-0.5,1.87-1,2.8-1.5c0.13,0.27,0.32,0.63,0.55,1.1c-1.4,0.77-2.72,1.47-3.95,2.1
				c-1.03-2-1.97-3.77-2.8-5.3C427.82,355.1,428.2,354.9,428.6,354.7z M425.65,362.8c-0.83-1.6-1.57-2.98-2.2-4.15
				c0.23,1.4,0.57,2.95,1,4.65c-0.37,0.33-0.72,0.52-1.05,0.55c-1.23-1.4-2.38-2.58-3.45-3.55c0.63,1.17,1.38,2.55,2.25,4.15
				c-0.47,0.03-0.83,0.22-1.1,0.55c-1-1.93-1.92-3.7-2.75-5.3c0.6-0.23,1.17-0.48,1.7-0.75c0.97,0.9,1.92,1.87,2.85,2.9
				c-0.27-1.37-0.48-2.68-0.65-3.95c0.5-0.23,1.07-0.52,1.7-0.85c0.87,1.6,1.8,3.35,2.8,5.25
				C426.38,362.6,426.02,362.77,425.65,362.8z M427.95,361.85c-1.03-1.97-1.98-3.77-2.85-5.4c0.37-0.2,0.75-0.4,1.15-0.6
				c0.87,1.63,1.82,3.43,2.85,5.4C428.67,361.35,428.28,361.55,427.95,361.85z M414.8,348.4c-0.63,0.33-1.2,0.6-1.7,0.8
				c0.83,1.53,1.68,3.13,2.55,4.8c-0.47,0.27-0.85,0.45-1.15,0.55c-0.87-1.57-1.72-3.15-2.55-4.75c-0.53,0.3-1.08,0.6-1.65,0.9
				c-0.2-0.37-0.37-0.68-0.5-0.95c1.37-0.8,2.87-1.58,4.5-2.35C414.43,347.67,414.6,348,414.8,348.4z M408.9,350.1
				c1,1.87,2.02,3.78,3.05,5.75c-0.3,0.17-0.7,0.35-1.2,0.55c-1.3-1.03-2.68-1.9-4.15-2.6c0.6,1.17,1.25,2.4,1.95,3.7
				c-0.33,0.13-0.73,0.27-1.2,0.4c-0.97-1.87-1.95-3.75-2.95-5.65c0.4-0.17,0.78-0.32,1.15-0.45c1.5,0.73,2.95,1.63,4.35,2.7
				c-0.7-1.33-1.38-2.62-2.05-3.85C408.22,350.45,408.57,350.27,408.9,350.1z"/>
		</g>
	</g>
</g>
</svg>
