<?xml version="1.0" encoding="utf-8"?>
<!-- Generator: Adobe Illustrator 16.0.0, SVG Export Plug-In . SVG Version: 6.00 Build 0)  -->
<!DOCTYPE svg PUBLIC "-//W3C//DTD SVG 1.1//EN" "http://www.w3.org/Graphics/SVG/1.1/DTD/svg11.dtd">
<svg version="1.1" id="Layer_1" xmlns="http://www.w3.org/2000/svg" xmlns:xlink="http://www.w3.org/1999/xlink" x="0px" y="0px"
	 width="700px" height="700px" viewBox="0 0 700 700" enable-background="new 0 0 700 700" xml:space="preserve">
<g>
	<g>
		<path fill-rule="evenodd" clip-rule="evenodd" fill="#FFFFFF" d="M476,355.6l1.1,0.1c-0.07,1.93-1.03,4.17-2.9,6.7
			c-11.4,15.37-25.43,27.98-42.1,37.85c-3.8,1.83-6.53,2.55-8.2,2.15c-1.7-0.43-3.13-1.35-4.3-2.75l-39.5-44.05H476z"/>
	</g>
	<g>
		<g>
			<path fill-rule="evenodd" clip-rule="evenodd" fill="none" stroke="#FFFFFF" stroke-width="0.75" stroke-miterlimit="10" d="
				M424.15,290.75c0.4,1.5,0.88,2.7,1.45,3.6c0,0.17,0.05,0.3,0.15,0.4l50.15,55.95c1.33,1.57,2.05,3.37,2.15,5.4
				c0.07,2.03-0.9,4.42-2.9,7.15c-11.4,15.37-25.43,27.98-42.1,37.85c-3.8,1.83-6.53,2.55-8.2,2.15c-1.7-0.43-3.13-1.35-4.3-2.75
				l-47.75-53.25c-1.83-2.07-4.55-3.2-8.15-3.4c-1.17,0.67-1.85,0.87-2.05,0.6c-0.5-0.53,2.08-3.72,7.75-9.55
				c5.67-5.73,12.75-12.4,21.25-20c8.53-7.63,15.95-13.95,22.25-18.95c6.4-5,9.85-7.23,10.35-6.7c0.17,0.2,0.07,0.58-0.3,1.15
				c-0.03,0-0.03,0.02,0,0.05c-0.53,1.3-3.27,4.43-8.2,9.4c-5.17,5.03-12,11.37-20.5,19c-8.53,7.63-15.97,13.93-22.3,18.9
				c-3.87,3-6.62,5.03-8.25,6.1"/>
		</g>
		<g>
			<linearGradient id="SVGID_1_" gradientUnits="userSpaceOnUse" x1="374.0811" y1="396.3076" x2="412.2341" y2="362.1111">
				<stop  offset="0" style="stop-color:#FFFFFF;stop-opacity:0.6706"/>
				<stop  offset="1" style="stop-color:#FFFFFF;stop-opacity:0"/>
			</linearGradient>
			<path fill-rule="evenodd" clip-rule="evenodd" fill="url(#SVGID_1_)" d="M367.2,342.75c10.73-7.43,19.87-14.82,27.4-22.15
				c1.23,1.7,2.8,3.55,4.7,5.55l53.25,59.55c-10.97,8.83-18.38,13.92-22.25,15.25c-3.9,1.23-6.7,0.92-8.4-0.95l-49-54.9
				C371.63,344.13,369.73,343.35,367.2,342.75z"/>
		</g>
		<g>
			
				<linearGradient id="SVGID_2_" gradientUnits="userSpaceOnUse" x1="468.1563" y1="66.0361" x2="555.765" y2="66.0361" gradientTransform="matrix(0.8196 0.573 -0.684 0.742 -3.963709e-005 -1.668930e-004)">
				<stop  offset="0" style="stop-color:#FFFFFF;stop-opacity:0.6706"/>
				<stop  offset="1" style="stop-color:#FFFFFF;stop-opacity:0"/>
			</linearGradient>
			<path fill-rule="evenodd" clip-rule="evenodd" fill="url(#SVGID_2_)" d="M385.55,333.1l50.85,56.85c-4.93,4.2-8.5,5.97-10.7,5.3
				l-50.2-54.65C378.93,338.37,382.28,335.87,385.55,333.1z"/>
		</g>
		<g>
			<path fill-rule="evenodd" clip-rule="evenodd" fill="none" d="M467.1,371.75c8.23-8.03,11.58-13.83,10.05-17.4"/>
			<path fill-rule="evenodd" clip-rule="evenodd" fill="none" d="M421.3,400.45c5.57,3.93,16.83-1.52,33.8-16.35"/>
		</g>
		<g>
			<line fill-rule="evenodd" clip-rule="evenodd" fill="none" x1="426.6" y1="298.35" x2="475" y2="352.35"/>
		</g>
		<g>
			<path fill-rule="evenodd" clip-rule="evenodd" fill="none" d="M467.5,359.75c2.8-2.2,4.82-3.63,6.05-4.3
				c0.57-0.33,0.97-0.47,1.2-0.4"/>
			<path fill-rule="evenodd" clip-rule="evenodd" fill="none" d="M424.1,400.15c0.07-2.07,9.72-11.55,28.95-28.45"/>
		</g>
		<g>
			
				<linearGradient id="SVGID_3_" gradientUnits="userSpaceOnUse" x1="-128.9214" y1="-547.8447" x2="-106.8416" y2="-547.8447" gradientTransform="matrix(-0.7031 0.7111 -0.6719 -0.7428 -5.509853e-004 0)">
				<stop  offset="0" style="stop-color:#FFFFFF;stop-opacity:0.6706"/>
				<stop  offset="1" style="stop-color:#FFFFFF;stop-opacity:0"/>
			</linearGradient>
			<path fill-rule="evenodd" clip-rule="evenodd" fill="url(#SVGID_3_)" d="M458.95,365.5l-50.15-55.95c5.3-4.97,10.07-10,14.3-15.1
				l50.2,56C471.17,361.62,466.38,366.63,458.95,365.5z"/>
		</g>
		<g>
			
				<linearGradient id="SVGID_4_" gradientUnits="userSpaceOnUse" x1="-608.4189" y1="75.2832" x2="-581.7922" y2="75.2832" gradientTransform="matrix(-0.6779 -0.7352 0.7488 -0.6631 -1.981258e-004 7.578135e-004)">
				<stop  offset="0" style="stop-color:#FFFFFF"/>
				<stop  offset="1" style="stop-color:#FFFFFF;stop-opacity:0"/>
			</linearGradient>
			<path fill-rule="evenodd" clip-rule="evenodd" fill="url(#SVGID_4_)" d="M471.3,348.75l5,3.4c1.77,3.23,1.68,6.28-0.25,9.15
				c-1.5,2.6-4.68,6.62-9.55,12.05c-6.8,7.6-14.38,14.4-22.75,20.4c-3.73,2.53-7.12,4.52-10.15,5.95c-3.5,1.7-6.92,2.27-10.25,1.7
				c22.37-15.43,36.78-32.67,43.25-51.7C468.4,349.13,469.97,348.82,471.3,348.75z"/>
		</g>
		<g>
			<path fill-rule="evenodd" clip-rule="evenodd" fill="none" d="M366.1,342.9c1.87,0.07,4.3,1.07,7.3,3"/>
			<line fill-rule="evenodd" clip-rule="evenodd" fill="none" x1="395.15" y1="324" x2="395.45" y2="323.75"/>
			<path fill-rule="evenodd" clip-rule="evenodd" fill="none" d="M372.25,340.1c9.2-7,17.67-13.93,25.4-20.8
				c9.67-8.67,18.18-17.2,25.55-25.6"/>
		</g>
		<g>
			<line fill-rule="evenodd" clip-rule="evenodd" fill="none" x1="405.7" y1="328.1" x2="450.9" y2="378.6"/>
		</g>
		<g>
			<path fill-rule="evenodd" clip-rule="evenodd" fill="none" d="M409.15,344.7c5.33-2.57,9.88-6.63,13.65-12.2"/>
			<path fill-rule="evenodd" clip-rule="evenodd" fill="none" d="M427.85,365.6c5.33-2.57,9.88-6.63,13.65-12.2"/>
			<path fill-rule="evenodd" clip-rule="evenodd" fill="none" d="M441.4,380.7c0.83-0.37,1.65-0.78,2.45-1.25 M453.35,370.95
				c0.57-0.8,1.13-1.62,1.7-2.45"/>
			<path fill-rule="evenodd" clip-rule="evenodd" fill="none" d="M422.7,359.85c5.3-2.6,9.85-6.67,13.65-12.2"/>
			<path fill-rule="evenodd" clip-rule="evenodd" fill="none" d="M436.75,375.55c5.37-2.57,9.92-6.63,13.65-12.2"/>
			<path fill-rule="evenodd" clip-rule="evenodd" fill="none" d="M432.5,370.75c5.3-2.6,9.85-6.67,13.65-12.2"/>
			<path fill-rule="evenodd" clip-rule="evenodd" fill="none" d="M418.05,354.65c5.33-2.57,9.88-6.63,13.65-12.2"/>
			<path fill-rule="evenodd" clip-rule="evenodd" fill="none" d="M413.75,349.85c5.37-2.53,9.92-6.6,13.65-12.2"/>
			<path fill-rule="evenodd" clip-rule="evenodd" fill="none" d="M403.9,338.9c5.37-2.57,9.92-6.63,13.65-12.2"/>
			<path fill-rule="evenodd" clip-rule="evenodd" fill="none" d="M399.35,333.75c5.3-2.6,9.85-6.67,13.65-12.2"/>
		</g>
		<g>
			<path fill-rule="evenodd" clip-rule="evenodd" fill="#CCCCCC" d="M407.85,383.85l-20.2-22.55c18.93-14.77,36.62-30.63,53.05-47.6
				l20.2,22.55C445.23,354.05,427.55,369.92,407.85,383.85z"/>
		</g>
		<g>
			<path fill-rule="evenodd" clip-rule="evenodd" d="M403.55,361.65c0.93-0.8,1.77-1.48,2.5-2.05c0.2,0.2,0.45,0.47,0.75,0.8
				c-0.73,0.57-1.57,1.27-2.5,2.1c0.37,0.4,0.75,0.83,1.15,1.3c0.93-0.8,1.85-1.58,2.75-2.35c0.2,0.23,0.43,0.52,0.7,0.85
				c-1.27,0.97-2.5,2-3.7,3.1c-1.43-1.6-2.87-3.18-4.3-4.75c1.23-1.1,2.45-2.12,3.65-3.05c0.2,0.23,0.43,0.5,0.7,0.8
				c-0.9,0.73-1.77,1.48-2.6,2.25C402.95,360.98,403.25,361.32,403.55,361.65z M400.4,363.65c-0.27-0.23-0.55-0.32-0.85-0.25
				c-0.27-0.1-0.58,0-0.95,0.3c-0.33,0.27-0.53,0.63-0.6,1.1c0.07,0.33,0.33,0.87,0.8,1.6c0.53,0.53,1.03,0.85,1.5,0.95
				c0.5,0.1,0.92-0.02,1.25-0.35c0.23-0.33,0.4-0.6,0.5-0.8c0.03-0.37-0.08-0.73-0.35-1.1c0.47-0.17,0.88-0.33,1.25-0.5
				c0.3,0.57,0.42,1.15,0.35,1.75c-0.07,0.57-0.4,1.07-1,1.5c-0.63,0.5-1.38,0.73-2.25,0.7c-0.83-0.2-1.55-0.63-2.15-1.3
				c-0.73-0.93-1.08-1.73-1.05-2.4c-0.03-0.87,0.37-1.5,1.2-1.9c0.5-0.7,1.12-0.95,1.85-0.75c0.4-0.1,0.82,0.03,1.25,0.4
				C400.92,362.93,400.67,363.28,400.4,363.65z M446.3,325.75c0.2,0.5,0.3,0.93,0.3,1.3c-0.03,0.3-0.15,0.63-0.35,1
				c-0.17,0.23-0.43,0.52-0.8,0.85c-0.53,0.6-1.1,1.18-1.7,1.75c-1.4-1.57-2.83-3.17-4.3-4.8c0.53-0.5,1.1-1.03,1.7-1.6
				c0.37-0.43,0.68-0.7,0.95-0.8c0.3-0.2,0.67-0.27,1.1-0.2c0.37,0.03,0.77,0.15,1.2,0.35c0.33,0.27,0.73,0.58,1.2,0.95
				C445.87,324.95,446.1,325.35,446.3,325.75z M423.95,344.15c0.67-0.6,1.32-1.18,1.95-1.75c0.27,0.17,0.52,0.45,0.75,0.85
				c-0.67,0.5-1.3,1.08-1.9,1.75c0.57,0.67,1.2,1.38,1.9,2.15c-0.37,0.33-0.7,0.63-1,0.9c-1.53-1.73-3.02-3.38-4.45-4.95
				c1.07-0.97,2.17-1.97,3.3-3c0.2,0.23,0.45,0.5,0.75,0.8c-0.77,0.7-1.53,1.4-2.3,2.1C423.28,343.37,423.62,343.75,423.95,344.15z
				 M418.7,346.35c0.33,0,0.67,0.18,1,0.55c0.23,0.37,0.4,0.77,0.5,1.2c-0.03,0.47-0.2,0.93-0.5,1.4c0.23-0.03,0.52-0.08,0.85-0.15
				c0.13,0.07,0.53,0.2,1.2,0.4c0.53,0.13,1.05,0.27,1.55,0.4c-0.47,0.4-0.85,0.75-1.15,1.05c-0.57-0.17-1.13-0.35-1.7-0.55
				c-0.7-0.13-1.08-0.22-1.15-0.25c-0.2,0-0.35,0.05-0.45,0.15c-0.17-0.03-0.37,0.07-0.6,0.3c-0.1,0.13-0.17,0.2-0.2,0.2
				c0.6,0.63,1.23,1.33,1.9,2.1c-0.33,0.3-0.65,0.6-0.95,0.9c-1.53-1.73-3.02-3.38-4.45-4.95c0.63-0.6,1.3-1.22,2-1.85
				c0.4-0.47,0.83-0.75,1.3-0.85C418.05,346.27,418.33,346.25,418.7,346.35z M420.3,343.9c1.43,1.57,2.92,3.22,4.45,4.95
				c-0.37,0.33-0.68,0.62-0.95,0.85c-1.53-1.73-3.02-3.38-4.45-4.95C419.62,344.52,419.93,344.23,420.3,343.9z M443,324.5
				c-0.23-0.07-0.47,0-0.7,0.2c-0.2,0.07-0.47,0.32-0.8,0.75c-0.13,0.1-0.27,0.22-0.4,0.35c0.93,1.03,1.88,2.08,2.85,3.15
				c0.17-0.17,0.38-0.4,0.65-0.7c0.17-0.27,0.37-0.47,0.6-0.6c0.1-0.2,0.17-0.38,0.2-0.55c-0.07-0.13-0.13-0.37-0.2-0.7
				c-0.23-0.17-0.47-0.47-0.7-0.9c-0.47-0.33-0.75-0.6-0.85-0.8C443.38,324.57,443.17,324.5,443,324.5z M439.25,327.55
				c-0.83,0.73-1.65,1.57-2.45,2.5c0.3,0.33,0.6,0.67,0.9,1c0.77-0.87,1.55-1.65,2.35-2.35c0.2,0.23,0.43,0.52,0.7,0.85
				c-0.8,0.7-1.57,1.48-2.3,2.35c0.37,0.4,0.75,0.83,1.15,1.3c0.87-0.97,1.75-1.83,2.65-2.6c0.2,0.2,0.43,0.47,0.7,0.8
				c-1.23,1.2-2.38,2.35-3.45,3.45c-1.43-1.6-2.87-3.2-4.3-4.8c1.1-1.1,2.2-2.22,3.3-3.35C438.7,326.93,438.95,327.22,439.25,327.55
				z M432.85,333.55c-0.53,0.47-0.73,0.95-0.6,1.45c-0.07,0.47,0.17,0.97,0.7,1.5c0.43,0.53,0.95,0.87,1.55,1
				c0.37,0.07,0.82-0.15,1.35-0.65c0.1-0.13,0.27-0.33,0.5-0.6c-0.07-0.2,0-0.47,0.2-0.8c-0.23-0.27-0.42-0.47-0.55-0.6
				c-0.37,0.37-0.7,0.7-1,1c-0.3-0.3-0.55-0.57-0.75-0.8c0.6-0.63,1.28-1.28,2.05-1.95c0.6,0.67,1.17,1.3,1.7,1.9
				c-0.17,0.4-0.3,0.85-0.4,1.35c-0.27,0.5-0.58,0.97-0.95,1.4c-0.57,0.47-1.07,0.77-1.5,0.9c-0.67,0.17-1.23,0.12-1.7-0.15
				c-0.53-0.2-1-0.55-1.4-1.05c-0.47-0.47-0.78-1-0.95-1.6c-0.17-0.6-0.12-1.18,0.15-1.75c0.03-0.47,0.33-0.92,0.9-1.35
				c0.43-0.47,1.02-0.78,1.75-0.95c0.5-0.07,1.02,0.1,1.55,0.5c-0.3,0.3-0.6,0.63-0.9,1c-0.33-0.17-0.6-0.22-0.8-0.15
				C433.38,333.22,433.08,333.35,432.85,333.55z M432.4,339.7c0.1,0.23,0.18,0.52,0.25,0.85c0.07,0.33-0.02,0.68-0.25,1.05
				c-0.13,0.4-0.35,0.73-0.65,1c-0.47,0.4-0.9,0.67-1.3,0.8c-0.37,0.07-0.65,0.07-0.85,0c-0.33-0.1-0.57-0.18-0.7-0.25
				c-0.33-0.17-0.73-0.55-1.2-1.15c-0.87-0.93-1.65-1.8-2.35-2.6c0.23-0.37,0.53-0.67,0.9-0.9c0.73,0.83,1.53,1.72,2.4,2.65
				c0.27,0.33,0.53,0.6,0.8,0.8c0.17,0.1,0.42,0.18,0.75,0.25c0.17-0.1,0.42-0.27,0.75-0.5c0.17-0.27,0.32-0.53,0.45-0.8
				c-0.1-0.27-0.17-0.48-0.2-0.65c-0.17-0.2-0.4-0.47-0.7-0.8c-0.87-0.97-1.68-1.87-2.45-2.7c0.37-0.3,0.7-0.6,1-0.9
				c0.73,0.8,1.5,1.65,2.3,2.55C431.82,338.97,432.17,339.4,432.4,339.7z M440.65,350.75c-0.37,0.37-0.75,0.77-1.15,1.2
				c-1.17-0.43-2.22-0.73-3.15-0.9c-0.13,0.4-0.2,0.85-0.2,1.35c0.4,0.47,0.85,0.97,1.35,1.5c-0.33,0.37-0.65,0.68-0.95,0.95
				c-1.47-1.6-2.82-3.1-4.05-4.5c0.3-0.27,0.63-0.57,1-0.9c0.53,0.57,1.08,1.18,1.65,1.85c0.03-1.23,0.12-2.45,0.25-3.65
				c0.4-0.33,0.82-0.75,1.25-1.25c-0.07,1.17-0.15,2.3-0.25,3.4C437.77,350.03,439.18,350.35,440.65,350.75z M435.1,354.7
				c0.2,0.2,0.47,0.48,0.8,0.85c-1.2,1.07-2.32,2.07-3.35,3c-1.5-1.63-2.83-3.12-4-4.45c0.33-0.3,0.65-0.58,0.95-0.85
				c0.97,1.1,2.03,2.3,3.2,3.6C433.5,356.12,434.3,355.4,435.1,354.7z M427.55,354.9c1.23,1.37,2.58,2.87,4.05,4.5
				c-0.4,0.23-0.73,0.53-1,0.9c-1.47-1.63-2.82-3.13-4.05-4.5C426.88,355.5,427.22,355.2,427.55,354.9z M426.7,363.4
				c-1.57-1.07-2.97-1.95-4.2-2.65c0.9,0.97,1.95,2.13,3.15,3.5c-0.4,0.17-0.7,0.42-0.9,0.75c-1.47-1.6-2.78-3.07-3.95-4.4
				c0.53-0.37,1.03-0.75,1.5-1.15c1.13,0.63,2.28,1.33,3.45,2.1c-0.6-1.27-1.15-2.48-1.65-3.65c0.5-0.37,1-0.78,1.5-1.25
				c1.2,1.37,2.52,2.83,3.95,4.4c-0.27,0.37-0.58,0.62-0.95,0.75c-1.2-1.33-2.23-2.48-3.1-3.45c0.6,1.3,1.3,2.72,2.1,4.25
				C427.33,363,427.03,363.27,426.7,363.4z M419,348.35c-0.1-0.13-0.18-0.28-0.25-0.45c-0.2-0.17-0.37-0.28-0.5-0.35
				c-0.3,0.03-0.47,0.08-0.5,0.15c-0.1,0.07-0.35,0.28-0.75,0.65c-0.27,0.23-0.52,0.45-0.75,0.65c0.37,0.43,0.73,0.85,1.1,1.25
				c0.2-0.17,0.43-0.37,0.7-0.6c0.4-0.5,0.67-0.78,0.8-0.85C418.92,348.7,418.97,348.55,419,348.35z M415.8,356.55
				c-1.2-1.33-2.4-2.67-3.6-4c-0.43,0.4-0.88,0.82-1.35,1.25c-0.3-0.33-0.55-0.62-0.75-0.85c1.13-1.07,2.38-2.15,3.75-3.25
				c0.2,0.23,0.45,0.5,0.75,0.8c-0.5,0.47-0.97,0.87-1.4,1.2c1.17,1.27,2.38,2.62,3.65,4.05
				C416.45,356.12,416.1,356.38,415.8,356.55z M406.45,356c1.67,0.37,3.3,0.88,4.9,1.55c-1-1.1-1.97-2.17-2.9-3.2
				c0.3-0.27,0.58-0.53,0.85-0.8c1.43,1.57,2.88,3.18,4.35,4.85c-0.23,0.23-0.57,0.52-1,0.85c-1.5-0.7-3.07-1.22-4.7-1.55
				c0.9,1,1.83,2.05,2.8,3.15c-0.27,0.2-0.6,0.43-1,0.7c-1.4-1.6-2.82-3.2-4.25-4.8C405.83,356.48,406.15,356.23,406.45,356z"/>
		</g>
	</g>
</g>
</svg>
