<?xml version="1.0" encoding="utf-8"?>
<!-- Generator: Adobe Illustrator 16.0.0, SVG Export Plug-In . SVG Version: 6.00 Build 0)  -->
<!DOCTYPE svg PUBLIC "-//W3C//DTD SVG 1.1//EN" "http://www.w3.org/Graphics/SVG/1.1/DTD/svg11.dtd">
<svg version="1.1" id="Layer_1" xmlns="http://www.w3.org/2000/svg" xmlns:xlink="http://www.w3.org/1999/xlink" x="0px" y="0px"
	 width="700px" height="700px" viewBox="0 0 700 700" enable-background="new 0 0 700 700" xml:space="preserve">
<g>
	<g>
		<path fill-rule="evenodd" clip-rule="evenodd" fill="#FFFFFF" d="M505.95,462.7v30.2c-0.07,2.07-0.75,3.9-2.05,5.5
			c-1.3,1.57-3.6,2.7-6.9,3.4c-18.8,3.87-37.73,3.88-56.8,0.05c-4.07-1.17-6.58-2.45-7.55-3.85c-0.97-1.47-1.42-3.12-1.35-4.95
			V462.7H505.95z"/>
	</g>
	<g>
		<g>
			<path fill-rule="evenodd" clip-rule="evenodd" fill="none" stroke="#FFFFFF" stroke-width="0.75" stroke-miterlimit="10" d="
				M507.4,413.55c-0.7,1.4-1.15,2.62-1.35,3.65c-0.07,0.13-0.1,0.27-0.1,0.4v75.3c-0.07,2.07-0.75,3.9-2.05,5.5
				c-1.3,1.57-3.6,2.7-6.9,3.4c-18.8,3.87-37.73,3.88-56.8,0.05c-4.07-1.17-6.58-2.45-7.55-3.85c-0.97-1.47-1.42-3.12-1.35-4.95
				v-71.7c-0.03-2.77-1.32-5.43-3.85-8c-1.3-0.27-1.95-0.57-1.95-0.9c0-0.73,4.07-1.38,12.2-1.95c8.07-0.47,17.82-0.7,29.25-0.7
				c11.47,0,21.23,0.23,29.3,0.7c8.1,0.57,12.15,1.22,12.15,1.95c0,0.27-0.32,0.48-0.95,0.65c-0.03,0-0.05,0.02-0.05,0.05
				c-1.27,0.6-5.4,1.1-12.4,1.5c-7.2,0.33-16.53,0.5-28,0.5s-21.23-0.25-29.3-0.75c-4.9-0.37-8.32-0.72-10.25-1.05"/>
		</g>
		<g>
			<linearGradient id="SVGID_1_" gradientUnits="userSpaceOnUse" x1="399.3623" y1="458.8496" x2="450.7373" y2="458.8496">
				<stop  offset="0" style="stop-color:#FFFFFF;stop-opacity:0.6706"/>
				<stop  offset="1" style="stop-color:#FFFFFF;stop-opacity:0"/>
			</linearGradient>
			<path fill-rule="evenodd" clip-rule="evenodd" fill="url(#SVGID_1_)" d="M465.4,416.05c-0.23,2.1-0.32,4.53-0.25,7.3l-0.1,80.1
				c-14.07-0.73-23-1.92-26.8-3.55c-3.77-1.67-5.65-3.77-5.65-6.3l0.15-73.75c-0.3-1.57-1.2-3.43-2.7-5.6
				C443.08,415.88,454.87,416.48,465.4,416.05z"/>
		</g>
		<g>
			
				<linearGradient id="SVGID_2_" gradientUnits="userSpaceOnUse" x1="418.6475" y1="-328.7705" x2="506.4855" y2="-328.7705" gradientTransform="matrix(0.228 0.9737 -1.0045 0.0962 1.657009e-005 2.656430e-004)">
				<stop  offset="0" style="stop-color:#FFFFFF;stop-opacity:0.6706"/>
				<stop  offset="1" style="stop-color:#FFFFFF;stop-opacity:0"/>
			</linearGradient>
			<path fill-rule="evenodd" clip-rule="evenodd" fill="url(#SVGID_2_)" d="M437.75,418.2c4.03,0.63,8.2,1.02,12.5,1.15l-0.05,76.45
				c-6.53-0.17-10.4-1.23-11.6-3.2L437.75,418.2z"/>
		</g>
		<g>
			<path fill-rule="evenodd" clip-rule="evenodd" fill="none" d="M431.9,493.55c1.53,6.67,13.58,10.15,36.15,10.45"/>
			<path fill-rule="evenodd" clip-rule="evenodd" fill="none" d="M485.25,502.75c11.53-0.5,17.92-2.58,19.15-6.25"/>
		</g>
		<g>
			<line fill-rule="evenodd" clip-rule="evenodd" fill="none" x1="504.15" y1="420.85" x2="504.15" y2="493.55"/>
		</g>
		<g>
			<path fill-rule="evenodd" clip-rule="evenodd" fill="none" d="M493.6,494.05c3.57,0.23,6.03,0.52,7.4,0.85
				c0.63,0.13,1.02,0.3,1.15,0.5"/>
			<path fill-rule="evenodd" clip-rule="evenodd" fill="none" d="M434.2,495.2c1.4-1.53,14.93-2.17,40.6-1.9"/>
		</g>
		<g>
			
				<linearGradient id="SVGID_3_" gradientUnits="userSpaceOnUse" x1="-515.9355" y1="-485.6143" x2="-493.7943" y2="-485.6143" gradientTransform="matrix(-0.9981 0.061 -3.723555e-003 -1.0016 4.124525e-005 -4.369318e-004)">
				<stop  offset="0" style="stop-color:#FFFFFF;stop-opacity:0.6706"/>
				<stop  offset="1" style="stop-color:#FFFFFF;stop-opacity:0"/>
			</linearGradient>
			<path fill-rule="evenodd" clip-rule="evenodd" fill="url(#SVGID_3_)" d="M504.15,490.95c-9.07,6.93-15.98,7.5-20.75,1.7V417.3
				c7.27-0.17,14.18-0.73,20.75-1.7V490.95z"/>
		</g>
		<g>
			
				<linearGradient id="SVGID_4_" gradientUnits="userSpaceOnUse" x1="-520.5952" y1="462.0029" x2="-493.8926" y2="462.0029" gradientTransform="matrix(-0.014 -0.9999 1.0002 5.455501e-003 -1.753345e-004 -1.063272e-004)">
				<stop  offset="0" style="stop-color:#FFFFFF"/>
				<stop  offset="1" style="stop-color:#FFFFFF;stop-opacity:0"/>
			</linearGradient>
			<path fill-rule="evenodd" clip-rule="evenodd" fill="url(#SVGID_4_)" d="M503.8,488.45l1.45,5.85c-0.87,3.57-2.97,5.78-6.3,6.65
				c-2.83,0.93-7.88,1.8-15.15,2.6c-10.2,1.13-20.42,1.13-30.65,0c-4.5-0.6-8.35-1.38-11.55-2.35c-3.8-1.07-6.75-2.93-8.85-5.6
				c27.03,3.47,49.33,0.25,66.9-9.65C501.38,486.75,502.77,487.58,503.8,488.45z"/>
		</g>
		<g>
			<line fill-rule="evenodd" clip-rule="evenodd" fill="none" x1="463.5" y1="418.95" x2="463.9" y2="418.95"/>
			<path fill-rule="evenodd" clip-rule="evenodd" fill="none" d="M429.2,413.6c1.33,1.3,2.48,3.68,3.45,7.15"/>
			<path fill-rule="evenodd" clip-rule="evenodd" fill="none" d="M435.65,415.65c11.53,0.93,22.5,1.42,32.9,1.45
				c13,0.03,25.05-0.63,36.15-2"/>
		</g>
		<g>
			<line fill-rule="evenodd" clip-rule="evenodd" fill="none" x1="468.6" y1="429.05" x2="468.6" y2="497"/>
		</g>
		<g>
			<path fill-rule="evenodd" clip-rule="evenodd" fill="none" d="M460.1,443.8c5.7,1.63,11.82,1.63,18.35,0"/>
			<path fill-rule="evenodd" clip-rule="evenodd" fill="none" d="M460.1,435.95c5.7,1.7,11.82,1.7,18.35,0"/>
			<path fill-rule="evenodd" clip-rule="evenodd" fill="none" d="M460.1,429.05c5.7,1.63,11.82,1.63,18.35,0"/>
			<path fill-rule="evenodd" clip-rule="evenodd" fill="none" d="M460.1,492.25c0.87,0.27,1.75,0.48,2.65,0.65 M475.55,492.9
				c0.97-0.17,1.93-0.38,2.9-0.65"/>
			<path fill-rule="evenodd" clip-rule="evenodd" fill="none" d="M460.1,457.15c5.7,1.67,11.82,1.67,18.35,0"/>
			<path fill-rule="evenodd" clip-rule="evenodd" fill="none" d="M460.1,485.3c5.7,1.67,11.82,1.67,18.35,0"/>
			<path fill-rule="evenodd" clip-rule="evenodd" fill="none" d="M460.1,478.85c5.7,1.63,11.82,1.63,18.35,0"/>
			<path fill-rule="evenodd" clip-rule="evenodd" fill="none" d="M460.1,471.9c5.7,1.67,11.82,1.67,18.35,0"/>
			<path fill-rule="evenodd" clip-rule="evenodd" fill="none" d="M460.1,464.15c5.7,1.63,11.82,1.63,18.35,0"/>
			<path fill-rule="evenodd" clip-rule="evenodd" fill="none" d="M460.1,450.7c5.7,1.7,11.82,1.7,18.35,0"/>
		</g>
		<g>
			<path fill-rule="evenodd" clip-rule="evenodd" fill="#CCCCCC" d="M504.4,472.1c-23.6,2.8-47.42,2.8-71.45,0v-30.35
				c24.03,1.67,47.85,1.67,71.45,0V472.1z"/>
		</g>
		<g>
			<path fill-rule="evenodd" clip-rule="evenodd" d="M500.55,451.6c0.1,0.43,0.18,0.95,0.25,1.55c-0.07,0.47-0.15,0.92-0.25,1.35
				c-0.2,0.47-0.43,0.85-0.7,1.15c-0.2,0.2-0.5,0.38-0.9,0.55c-0.3,0.03-0.68,0.07-1.15,0.1c-0.83,0.07-1.65,0.12-2.45,0.15
				c0-2.13,0-4.28,0-6.45c0.73-0.03,1.52-0.07,2.35-0.1c0.53-0.07,0.95-0.03,1.25,0.1c0.33,0.03,0.65,0.23,0.95,0.6
				C500.13,450.83,500.35,451.17,500.55,451.6z M498.25,451.05c-0.17-0.1-0.53-0.1-1.1,0c-0.17,0-0.33,0-0.5,0c0,1.4,0,2.82,0,4.25
				c0.23,0,0.55-0.03,0.95-0.1c0.3-0.07,0.58-0.08,0.85-0.05c0.17-0.07,0.33-0.15,0.5-0.25c0.03-0.13,0.13-0.35,0.3-0.65
				c-0.03-0.3,0-0.68,0.1-1.15c-0.1-0.57-0.13-0.95-0.1-1.15c-0.1-0.3-0.22-0.52-0.35-0.65
				C498.77,451.13,498.55,451.05,498.25,451.05z M494.1,451.1c-1.13,0-2.32,0.07-3.55,0.2c0,0.47,0,0.93,0,1.4
				c1.13-0.13,2.23-0.2,3.3-0.2c0,0.3,0,0.67,0,1.1c-1.07,0-2.17,0.07-3.3,0.2c0,0.53,0,1.12,0,1.75c1.27-0.13,2.5-0.2,3.7-0.2
				c0,0.3,0,0.67,0,1.1c-1.73,0.07-3.37,0.15-4.9,0.25c0-2.13,0-4.28,0-6.45c1.6-0.07,3.18-0.15,4.75-0.25
				C494.1,450.3,494.1,450.67,494.1,451.1z M486.75,454.4c-0.53,0.03-1.02,0.05-1.45,0.05c0-0.43,0-0.8,0-1.1
				c0.87-0.07,1.82-0.08,2.85-0.05c0,0.87,0,1.72,0,2.55c-0.4,0.17-0.8,0.4-1.2,0.7c-0.53,0.23-1.08,0.37-1.65,0.4
				c-0.73,0-1.32-0.1-1.75-0.3c-0.6-0.3-0.97-0.72-1.1-1.25c-0.3-0.53-0.43-1.1-0.4-1.7c-0.03-0.7,0.1-1.32,0.4-1.85
				c0.27-0.53,0.68-0.93,1.25-1.2c0.33-0.3,0.85-0.43,1.55-0.4c0.67-0.07,1.32,0.08,1.95,0.45c0.4,0.3,0.68,0.78,0.85,1.45
				c-0.43,0-0.88,0.05-1.35,0.15c-0.17-0.37-0.33-0.6-0.5-0.7c-0.3-0.17-0.62-0.25-0.95-0.25c-0.7-0.03-1.17,0.18-1.4,0.65
				c-0.37,0.3-0.52,0.83-0.45,1.6c-0.07,0.7,0.08,1.28,0.45,1.75c0.23,0.33,0.7,0.48,1.4,0.45c0.2-0.03,0.47-0.08,0.8-0.15
				c0.1-0.2,0.33-0.35,0.7-0.45C486.75,454.87,486.75,454.6,486.75,454.4z M439.55,450.9c-0.43,0-0.83,0.15-1.2,0.45
				c-0.17,0.3-0.32,0.87-0.45,1.7c0.03,0.77,0.18,1.33,0.45,1.7c0.3,0.4,0.68,0.6,1.15,0.6c0.4-0.1,0.7-0.18,0.9-0.25
				c0.27-0.27,0.43-0.62,0.5-1.05c0.43,0.17,0.87,0.32,1.3,0.45c-0.17,0.6-0.48,1.12-0.95,1.55c-0.43,0.33-1.02,0.48-1.75,0.45
				c-0.83-0.07-1.55-0.4-2.15-1c-0.5-0.7-0.75-1.5-0.75-2.4c0.1-1.17,0.38-2,0.85-2.5c0.53-0.67,1.25-0.88,2.15-0.65
				c0.87-0.17,1.5,0.07,1.9,0.7c0.37,0.2,0.6,0.58,0.7,1.15c-0.43,0.1-0.87,0.18-1.3,0.25c-0.07-0.33-0.23-0.58-0.5-0.75
				C440.27,451.07,439.98,450.93,439.55,450.9z M444.6,455.55c1.2,0.03,2.4,0.07,3.6,0.1c0,0.3,0,0.67,0,1.1
				c-1.63-0.13-3.27-0.2-4.9-0.2c0-2.13,0-4.27,0-6.4c1.67,0,3.25,0.07,4.75,0.2c0,0.3,0,0.65,0,1.05c-1.17-0.03-2.32-0.07-3.45-0.1
				c0,0.47,0,0.93,0,1.4c1.23,0.03,2.32,0.08,3.25,0.15c0,0.3,0,0.67,0,1.1c-0.93-0.07-2.02-0.12-3.25-0.15
				C444.6,454.33,444.6,454.92,444.6,455.55z M480.9,450.5c0,1.1,0,2.25,0,3.45c-0.03,0.73-0.07,1.28-0.1,1.65
				c-0.07,0.27-0.2,0.53-0.4,0.8c-0.17,0.3-0.45,0.52-0.85,0.65c-0.37,0.17-0.75,0.25-1.15,0.25c-0.63,0-1.13-0.08-1.5-0.25
				c-0.3-0.2-0.52-0.38-0.65-0.55c-0.2-0.3-0.32-0.52-0.35-0.65c-0.13-0.37-0.18-0.93-0.15-1.7c0-1.27,0-2.43,0-3.5
				c0.43-0.1,0.87-0.12,1.3-0.05c0,1.1,0,2.28,0,3.55c-0.03,0.47-0.02,0.85,0.05,1.15c0.07,0.2,0.2,0.42,0.4,0.65
				c0.2,0.07,0.5,0.12,0.9,0.15c0.3-0.07,0.58-0.15,0.85-0.25c0.13-0.3,0.23-0.52,0.3-0.65c0-0.23,0-0.58,0-1.05
				c0-1.3,0-2.52,0-3.65C480.02,450.5,480.47,450.5,480.9,450.5z M469,450.65c0,2.13,0,4.35,0,6.65c-0.53,0-0.97,0-1.3,0
				c0-2.3,0-4.52,0-6.65C468.03,450.65,468.47,450.65,469,450.65z M466.1,453.75c-0.33,0.3-0.77,0.52-1.3,0.65
				c0.17,0.17,0.4,0.33,0.7,0.5c0.07,0.13,0.28,0.5,0.65,1.1c0.3,0.43,0.58,0.87,0.85,1.3c-0.6,0-1.12,0-1.55,0
				c-0.3-0.5-0.6-1-0.9-1.5c-0.4-0.57-0.63-0.88-0.7-0.95c-0.13-0.17-0.27-0.25-0.4-0.25c-0.13-0.1-0.35-0.13-0.65-0.1
				c-0.17,0-0.27,0-0.3,0c0,0.87,0,1.8,0,2.8c-0.43,0-0.87,0-1.3,0c0-2.3,0-4.52,0-6.65c0.87,0,1.78,0,2.75,0
				c0.6-0.1,1.1-0.03,1.5,0.2c0.27,0.03,0.5,0.22,0.7,0.55c0.23,0.23,0.35,0.6,0.35,1.1C466.43,452.93,466.3,453.35,466.1,453.75z
				 M471.55,457.3c-0.5,0-0.95,0-1.35,0c0-2.3,0-4.52,0-6.65c1.43,0,2.92,0,4.45,0c0,0.3,0,0.67,0,1.1c-1.03,0-2.07,0-3.1,0
				c0,0.5,0,1.02,0,1.55c0.87,0,1.73,0,2.6,0c0.1,0.3,0.1,0.67,0,1.1c-0.87-0.07-1.73-0.05-2.6,0.05
				C471.55,455.32,471.55,456.27,471.55,457.3z M475.1,463.65c0,0.77,0,1.6,0,2.5c0.83-0.93,1.72-1.8,2.65-2.6
				c0.53,0,1.12-0.03,1.75-0.1c-0.83,0.8-1.65,1.58-2.45,2.35c0.87,1.1,1.7,2.3,2.5,3.6c-0.5,0.03-1.03,0.07-1.6,0.1
				c-0.6-1.1-1.2-2.03-1.8-2.8c-0.33,0.23-0.68,0.55-1.05,0.95c0,0.6,0,1.27,0,2c-0.5,0.03-0.95,0.05-1.35,0.05
				c0-2.17,0-4.18,0-6.05C474.15,463.65,474.6,463.65,475.1,463.65z M469.6,463.8c0,1.47,0,3.07,0,4.8c1.07,0,2.13,0,3.2,0
				c0,0.3,0,0.7,0,1.2c-1.6,0-3.1,0-4.5,0c0-2.23,0-4.23,0-6C468.73,463.8,469.17,463.8,469.6,463.8z M467,469.8
				c-0.43-0.1-0.87-0.1-1.3,0c0-2.2,0-4.23,0-6.1c0.43,0,0.87,0,1.3,0C467,465.57,467,467.6,467,469.8z M457.15,451.7
				c-0.6,0-1.22,0-1.85,0c0-0.43,0-0.8,0-1.1c1.57-0.07,3.23-0.05,5,0.05c0,0.3,0,0.67,0,1.1c-0.7,0-1.32-0.02-1.85-0.05
				c0,1.73,0,3.55,0,5.45c-0.53,0-0.97-0.02-1.3-0.05C457.15,455.3,457.15,453.5,457.15,451.7z M464.5,451.75c-0.13,0-0.47,0-1,0
				c-0.33,0-0.67,0-1,0c0,0.57,0,1.12,0,1.65c0.27,0,0.58,0,0.95,0c0.63-0.07,1.02-0.08,1.15-0.05c0.13-0.07,0.27-0.15,0.4-0.25
				c0.03-0.17,0.08-0.33,0.15-0.5c-0.07-0.27-0.12-0.47-0.15-0.6C464.73,451.83,464.57,451.75,464.5,451.75z M454.3,450.5
				c0,2.13,0,4.32,0,6.55c-0.33,0-0.77-0.03-1.3-0.1c-0.67-1.5-1.5-2.92-2.5-4.25c0,1.33,0,2.73,0,4.2
				c-0.33-0.03-0.73-0.08-1.2-0.15c0-2.13,0-4.27,0-6.4c0.43,0.03,0.85,0.07,1.25,0.1c0.97,1.37,1.83,2.83,2.6,4.4
				c0-1.5,0-2.95,0-4.35C453.55,450.5,453.93,450.5,454.3,450.5z M464.4,463.7c0,1.83,0,3.82,0,5.95c-0.47,0.1-0.87,0.08-1.2-0.05
				c0-1.8,0-3.37,0-4.7c-0.43,1.37-0.87,2.9-1.3,4.6c-0.47,0.1-0.87,0.1-1.2,0c-0.43-1.83-0.88-3.43-1.35-4.8c0,1.33,0,2.92,0,4.75
				c-0.4-0.17-0.8-0.18-1.2-0.05c0-2.17,0-4.15,0-5.95c0.67,0.07,1.3,0.12,1.9,0.15c0.43,1.23,0.83,2.53,1.2,3.9
				c0.4-1.37,0.8-2.65,1.2-3.85C463.05,463.68,463.7,463.7,464.4,463.7z"/>
		</g>
	</g>
</g>
</svg>
