<?xml version="1.0" encoding="utf-8"?>
<!-- Generator: Adobe Illustrator 16.0.0, SVG Export Plug-In . SVG Version: 6.00 Build 0)  -->
<!DOCTYPE svg PUBLIC "-//W3C//DTD SVG 1.1//EN" "http://www.w3.org/Graphics/SVG/1.1/DTD/svg11.dtd">
<svg version="1.1" id="Layer_1" xmlns="http://www.w3.org/2000/svg" xmlns:xlink="http://www.w3.org/1999/xlink" x="0px" y="0px"
	 width="700px" height="700px" viewBox="0 0 700 700" enable-background="new 0 0 700 700" xml:space="preserve">
<g>
	<g>
		<path fill-rule="evenodd" clip-rule="evenodd" fill="#FFFFFF" d="M535.15,575.01c-1.3,1.54-3.6,2.65-6.9,3.34
			c-18.8,3.8-37.73,3.81-56.8,0.05c-4.07-1.14-6.58-2.41-7.55-3.78c-0.97-1.44-1.42-3.06-1.35-4.86v-29.81h74.65v29.66
			C537.13,571.64,536.45,573.44,535.15,575.01z"/>
	</g>
	<g>
		<g>
			<path fill-rule="evenodd" clip-rule="evenodd" fill="none" stroke="#FFFFFF" stroke-width="0.75" stroke-miterlimit="10" d="
				M538.65,491.68c-0.7,1.38-1.15,2.57-1.35,3.58c-0.07,0.13-0.1,0.26-0.1,0.39v73.95c-0.07,2.03-0.75,3.83-2.05,5.4
				c-1.3,1.54-3.6,2.65-6.9,3.34c-18.8,3.8-37.73,3.81-56.8,0.05c-4.07-1.14-6.58-2.41-7.55-3.78c-0.97-1.44-1.42-3.06-1.35-4.86
				v-70.42c-0.03-2.72-1.32-5.33-3.85-7.86c-1.3-0.26-1.95-0.56-1.95-0.88c0-0.72,4.07-1.36,12.2-1.92
				c8.07-0.46,17.82-0.69,29.25-0.69c11.47,0,21.23,0.23,29.3,0.69c8.1,0.56,12.15,1.2,12.15,1.92c0,0.26-0.32,0.48-0.95,0.64
				c-0.03,0-0.05,0.02-0.05,0.05c-1.27,0.59-5.4,1.08-12.4,1.47c-7.2,0.33-16.53,0.49-28,0.49s-21.23-0.25-29.3-0.74
				c-4.9-0.36-8.32-0.7-10.25-1.03"/>
		</g>
		<g>
			<linearGradient id="SVGID_1_" gradientUnits="userSpaceOnUse" x1="430.6123" y1="536.1719" x2="481.9873" y2="536.1719">
				<stop  offset="0" style="stop-color:#FFFFFF;stop-opacity:0.6706"/>
				<stop  offset="1" style="stop-color:#FFFFFF;stop-opacity:0"/>
			</linearGradient>
			<path fill-rule="evenodd" clip-rule="evenodd" fill="url(#SVGID_1_)" d="M496.4,501.31l-0.1,78.67c-14.07-0.72-23-1.88-26.8-3.49
				c-3.77-1.64-5.65-3.7-5.65-6.19l0.15-72.43c-0.3-1.54-1.2-3.37-2.7-5.5c13.03,1.6,24.82,2.19,35.35,1.77
				C496.42,496.2,496.33,498.59,496.4,501.31z"/>
		</g>
		<g>
			
				<linearGradient id="SVGID_2_" gradientUnits="userSpaceOnUse" x1="500.8252" y1="-341.5586" x2="587.1124" y2="-341.5586" gradientTransform="matrix(0.228 0.9737 -1.0045 0.0962 1.657009e-005 2.656430e-004)">
				<stop  offset="0" style="stop-color:#FFFFFF;stop-opacity:0.6706"/>
				<stop  offset="1" style="stop-color:#FFFFFF;stop-opacity:0"/>
			</linearGradient>
			<path fill-rule="evenodd" clip-rule="evenodd" fill="url(#SVGID_2_)" d="M469.85,569.32L469,496.25c4.03,0.62,8.2,1,12.5,1.13
				l-0.05,75.08C474.92,572.3,471.05,571.25,469.85,569.32z"/>
		</g>
		<g>
			<path fill-rule="evenodd" clip-rule="evenodd" fill="none" d="M516.5,579.29c11.53-0.49,17.92-2.54,19.15-6.14"/>
			<path fill-rule="evenodd" clip-rule="evenodd" fill="none" d="M463.15,570.25c1.53,6.55,13.58,9.97,36.15,10.26"/>
		</g>
		<g>
			<line fill-rule="evenodd" clip-rule="evenodd" fill="none" x1="535.4" y1="498.85" x2="535.4" y2="570.25"/>
		</g>
		<g>
			<path fill-rule="evenodd" clip-rule="evenodd" fill="none" d="M524.85,570.74c3.57,0.23,6.03,0.51,7.4,0.83
				c0.63,0.13,1.02,0.29,1.15,0.49"/>
			<path fill-rule="evenodd" clip-rule="evenodd" fill="none" d="M465.45,571.87c1.4-1.51,14.93-2.13,40.6-1.87"/>
		</g>
		<g>
			
				<linearGradient id="SVGID_3_" gradientUnits="userSpaceOnUse" x1="-546.9424" y1="-564.7471" x2="-524.8074" y2="-564.7471" gradientTransform="matrix(-0.9981 0.061 -3.723555e-003 -1.0016 4.124525e-005 -4.369318e-004)">
				<stop  offset="0" style="stop-color:#FFFFFF;stop-opacity:0.6706"/>
				<stop  offset="1" style="stop-color:#FFFFFF;stop-opacity:0"/>
			</linearGradient>
			<path fill-rule="evenodd" clip-rule="evenodd" fill="url(#SVGID_3_)" d="M535.4,493.7v74c-9.07,6.81-15.98,7.37-20.75,1.67v-74
				C521.92,495.2,528.83,494.65,535.4,493.7z"/>
		</g>
		<g>
			
				<linearGradient id="SVGID_4_" gradientUnits="userSpaceOnUse" x1="-596.6128" y1="492.1738" x2="-570.3841" y2="492.1738" gradientTransform="matrix(-0.014 -0.9999 1.0002 5.455501e-003 -1.753345e-004 -1.063272e-004)">
				<stop  offset="0" style="stop-color:#FFFFFF"/>
				<stop  offset="1" style="stop-color:#FFFFFF;stop-opacity:0"/>
			</linearGradient>
			<path fill-rule="evenodd" clip-rule="evenodd" fill="url(#SVGID_4_)" d="M530.9,562.79c1.73,0.79,3.12,1.6,4.15,2.46l1.45,5.75
				c-0.87,3.5-2.97,5.68-6.3,6.53c-2.83,0.92-7.88,1.77-15.15,2.55c-10.2,1.11-20.42,1.11-30.65,0c-4.5-0.59-8.35-1.36-11.55-2.31
				c-3.8-1.05-6.75-2.88-8.85-5.5C491.03,575.67,513.33,572.51,530.9,562.79z"/>
		</g>
		<g>
			<path fill-rule="evenodd" clip-rule="evenodd" fill="none" d="M466.9,493.75c11.53,0.92,22.5,1.39,32.9,1.42
				c13,0.03,25.05-0.62,36.15-1.96"/>
			<line fill-rule="evenodd" clip-rule="evenodd" fill="none" x1="494.75" y1="496.99" x2="495.15" y2="496.99"/>
			<path fill-rule="evenodd" clip-rule="evenodd" fill="none" d="M460.45,491.73c1.33,1.28,2.48,3.62,3.45,7.02"/>
		</g>
		<g>
			<line fill-rule="evenodd" clip-rule="evenodd" fill="none" x1="499.85" y1="506.91" x2="499.85" y2="573.64"/>
		</g>
		<g>
			<path fill-rule="evenodd" clip-rule="evenodd" fill="none" d="M491.35,534.5c5.7,1.64,11.82,1.64,18.35,0"/>
			<path fill-rule="evenodd" clip-rule="evenodd" fill="none" d="M491.35,541.38c5.7,1.6,11.82,1.6,18.35,0"/>
			<path fill-rule="evenodd" clip-rule="evenodd" fill="none" d="M491.35,521.39c5.7,1.6,11.82,1.6,18.35,0"/>
			<path fill-rule="evenodd" clip-rule="evenodd" fill="none" d="M491.35,528.17c5.7,1.67,11.82,1.67,18.35,0"/>
			<path fill-rule="evenodd" clip-rule="evenodd" fill="none" d="M491.35,513.68c5.7,1.67,11.82,1.67,18.35,0"/>
			<path fill-rule="evenodd" clip-rule="evenodd" fill="none" d="M491.35,506.91c5.7,1.6,11.82,1.6,18.35,0"/>
			<path fill-rule="evenodd" clip-rule="evenodd" fill="none" d="M491.35,568.97c0.87,0.26,1.75,0.47,2.65,0.64 M506.8,569.61
				c0.97-0.16,1.93-0.38,2.9-0.64"/>
			<path fill-rule="evenodd" clip-rule="evenodd" fill="none" d="M491.35,562.15c5.7,1.64,11.82,1.64,18.35,0"/>
			<path fill-rule="evenodd" clip-rule="evenodd" fill="none" d="M491.35,555.81c5.7,1.6,11.82,1.6,18.35,0"/>
			<path fill-rule="evenodd" clip-rule="evenodd" fill="none" d="M491.35,548.99c5.7,1.64,11.82,1.64,18.35,0"/>
		</g>
		<g>
			<path fill-rule="evenodd" clip-rule="evenodd" fill="#CCCCCC" d="M535.65,549.18c-23.6,2.75-47.42,2.75-71.45,0v-29.81
				c24.03,1.64,47.85,1.64,71.45,0V549.18z"/>
		</g>
		<g>
			<path fill-rule="evenodd" clip-rule="evenodd" d="M529.5,528.51c-0.17-0.1-0.53-0.1-1.1,0c-0.17,0-0.33,0-0.5,0
				c0,1.38,0,2.77,0,4.17c0.23,0,0.55-0.03,0.95-0.1c0.3-0.07,0.58-0.08,0.85-0.05c0.17-0.07,0.33-0.15,0.5-0.25
				c0.03-0.13,0.13-0.34,0.3-0.64c-0.03-0.29,0-0.67,0.1-1.13c-0.1-0.56-0.13-0.93-0.1-1.13c-0.1-0.29-0.22-0.51-0.35-0.64
				C530.02,528.59,529.8,528.51,529.5,528.51z M531.15,528.07c0.23,0.23,0.45,0.56,0.65,0.98c0.1,0.43,0.18,0.93,0.25,1.52
				c-0.07,0.46-0.15,0.9-0.25,1.33c-0.2,0.46-0.43,0.83-0.7,1.13c-0.2,0.2-0.5,0.38-0.9,0.54c-0.3,0.03-0.68,0.07-1.15,0.1
				c-0.83,0.07-1.65,0.12-2.45,0.15c0-2.1,0-4.21,0-6.33c0.73-0.03,1.52-0.07,2.35-0.1c0.53-0.07,0.95-0.03,1.25,0.1
				C530.53,527.51,530.85,527.71,531.15,528.07z M497.75,529.94c-0.07,0.43-0.2,0.83-0.4,1.23c-0.33,0.29-0.77,0.51-1.3,0.64
				c0.17,0.16,0.4,0.33,0.7,0.49c0.07,0.13,0.28,0.49,0.65,1.08c0.3,0.43,0.58,0.85,0.85,1.28c-0.6,0-1.12,0-1.55,0
				c-0.3-0.49-0.6-0.98-0.9-1.47c-0.4-0.56-0.63-0.87-0.7-0.93c-0.13-0.16-0.27-0.25-0.4-0.25c-0.13-0.1-0.35-0.13-0.65-0.1
				c-0.17,0-0.27,0-0.3,0c0,0.85,0,1.77,0,2.75c-0.43,0-0.87,0-1.3,0c0-2.26,0-4.44,0-6.53c0.87,0,1.78,0,2.75,0
				c0.6-0.1,1.1-0.03,1.5,0.2c0.27,0.03,0.5,0.21,0.7,0.54C497.63,529.08,497.75,529.44,497.75,529.94z M496.25,529.44
				c-0.27-0.16-0.43-0.25-0.5-0.25c-0.13,0-0.47,0-1,0c-0.33,0-0.67,0-1,0c0,0.56,0,1.1,0,1.62c0.27,0,0.58,0,0.95,0
				c0.63-0.07,1.02-0.08,1.15-0.05c0.13-0.07,0.27-0.15,0.4-0.25c0.03-0.16,0.08-0.33,0.15-0.49
				C496.33,529.77,496.28,529.58,496.25,529.44z M500.25,528.12c0,2.09,0,4.27,0,6.53c-0.53,0-0.97,0-1.3,0c0-2.26,0-4.44,0-6.53
				C499.28,528.12,499.72,528.12,500.25,528.12z M502.8,530.72c0.87,0,1.73,0,2.6,0c0.1,0.29,0.1,0.66,0,1.08
				c-0.87-0.07-1.73-0.05-2.6,0.05c0,0.85,0,1.78,0,2.8c-0.5,0-0.95,0-1.35,0c0-2.26,0-4.44,0-6.53c1.43,0,2.92,0,4.45,0
				c0,0.29,0,0.65,0,1.08c-1.03,0-2.07,0-3.1,0C502.8,529.69,502.8,530.2,502.8,530.72z M486.55,529.15c0-0.43,0-0.79,0-1.08
				c1.57-0.07,3.23-0.05,5,0.05c0,0.29,0,0.65,0,1.08c-0.7,0-1.32-0.02-1.85-0.05c0,1.7,0,3.49,0,5.35c-0.53,0-0.97-0.02-1.3-0.05
				c0-1.77,0-3.54,0-5.3C487.8,529.15,487.18,529.15,486.55,529.15z M495.65,540.93c0,1.8,0,3.75,0,5.84
				c-0.47,0.1-0.87,0.08-1.2-0.05c0-1.77,0-3.31,0-4.62c-0.43,1.34-0.87,2.85-1.3,4.52c-0.47,0.1-0.87,0.1-1.2,0
				c-0.43-1.8-0.88-3.37-1.35-4.71c0,1.31,0,2.86,0,4.67c-0.4-0.16-0.8-0.18-1.2-0.05c0-2.13,0-4.08,0-5.84
				c0.67,0.07,1.3,0.11,1.9,0.15c0.43,1.21,0.83,2.49,1.2,3.83c0.4-1.34,0.8-2.6,1.2-3.78C494.3,540.92,494.95,540.93,495.65,540.93
				z M498.25,540.93c0,1.83,0,3.83,0,5.99c-0.43-0.1-0.87-0.1-1.3,0c0-2.16,0-4.16,0-5.99
				C497.38,540.93,497.82,540.93,498.25,540.93z M500.85,541.03c0,1.44,0,3.01,0,4.71c1.07,0,2.13,0,3.2,0c0,0.3,0,0.69,0,1.18
				c-1.6,0-3.1,0-4.5,0c0-2.19,0-4.16,0-5.89C499.98,541.03,500.42,541.03,500.85,541.03z M516.5,528.81
				c-0.7-0.03-1.17,0.18-1.4,0.64c-0.37,0.29-0.52,0.82-0.45,1.57c-0.07,0.69,0.08,1.26,0.45,1.72c0.23,0.33,0.7,0.48,1.4,0.44
				c0.2-0.03,0.47-0.08,0.8-0.15c0.1-0.2,0.33-0.34,0.7-0.44c0-0.33,0-0.59,0-0.79c-0.53,0.03-1.02,0.05-1.45,0.05
				c0-0.43,0-0.79,0-1.08c0.87-0.07,1.82-0.08,2.85-0.05c0,0.85,0,1.69,0,2.5c-0.4,0.16-0.8,0.39-1.2,0.69
				c-0.53,0.23-1.08,0.36-1.65,0.39c-0.73,0-1.32-0.1-1.75-0.29c-0.6-0.3-0.97-0.7-1.1-1.23c-0.3-0.52-0.43-1.08-0.4-1.67
				c-0.03-0.69,0.1-1.29,0.4-1.82c0.27-0.52,0.68-0.92,1.25-1.18c0.33-0.3,0.85-0.43,1.55-0.39c0.67-0.07,1.32,0.08,1.95,0.44
				c0.4,0.29,0.68,0.77,0.85,1.42c-0.43,0-0.88,0.05-1.35,0.15c-0.17-0.36-0.33-0.59-0.5-0.69
				C517.15,528.89,516.83,528.81,516.5,528.81z M521.8,532.93c1.27-0.13,2.5-0.2,3.7-0.2c0,0.3,0,0.66,0,1.08
				c-1.73,0.07-3.37,0.15-4.9,0.25c0-2.1,0-4.21,0-6.33c1.6-0.07,3.18-0.15,4.75-0.25c0,0.29,0,0.65,0,1.08
				c-1.13,0-2.32,0.07-3.55,0.2c0,0.46,0,0.92,0,1.38c1.13-0.13,2.23-0.2,3.3-0.2c0,0.29,0,0.65,0,1.08c-1.07,0-2.17,0.07-3.3,0.2
				C521.8,531.74,521.8,532.31,521.8,532.93z M508.3,528.07c0,1.08,0,2.24,0,3.49c-0.03,0.46-0.02,0.83,0.05,1.13
				c0.07,0.2,0.2,0.41,0.4,0.64c0.2,0.07,0.5,0.11,0.9,0.15c0.3-0.07,0.58-0.15,0.85-0.25c0.13-0.29,0.23-0.51,0.3-0.64
				c0-0.23,0-0.57,0-1.03c0-1.28,0-2.47,0-3.58c0.47,0,0.92,0,1.35,0c0,1.08,0,2.21,0,3.39c-0.03,0.72-0.07,1.26-0.1,1.62
				c-0.07,0.26-0.2,0.52-0.4,0.79c-0.17,0.29-0.45,0.51-0.85,0.64c-0.37,0.16-0.75,0.25-1.15,0.25c-0.63,0-1.13-0.08-1.5-0.25
				c-0.3-0.2-0.52-0.38-0.65-0.54c-0.2-0.29-0.32-0.51-0.35-0.64c-0.13-0.36-0.18-0.92-0.15-1.67c0-1.24,0-2.39,0-3.44
				C507.43,528.02,507.87,528,508.3,528.07z M506.35,544.81c0,0.59,0,1.24,0,1.96c-0.5,0.03-0.95,0.05-1.35,0.05
				c0-2.13,0-4.11,0-5.94c0.4,0,0.85,0,1.35,0c0,0.75,0,1.57,0,2.46c0.83-0.92,1.72-1.77,2.65-2.55c0.53,0,1.12-0.03,1.75-0.1
				c-0.83,0.79-1.65,1.55-2.45,2.31c0.87,1.08,1.7,2.26,2.5,3.54c-0.5,0.03-1.03,0.06-1.6,0.1c-0.6-1.08-1.2-2-1.8-2.75
				C507.07,544.11,506.72,544.42,506.35,544.81z M484.4,532.24c0-1.47,0-2.9,0-4.27c0.4,0,0.78,0,1.15,0c0,2.1,0,4.24,0,6.43
				c-0.33,0-0.77-0.03-1.3-0.1c-0.67-1.47-1.5-2.86-2.5-4.17c0,1.31,0,2.68,0,4.13c-0.33-0.03-0.73-0.08-1.2-0.15
				c0-2.1,0-4.19,0-6.29c0.43,0.03,0.85,0.07,1.25,0.1C482.77,529.26,483.63,530.7,484.4,532.24z M479.1,531.36
				c-0.93-0.07-2.02-0.12-3.25-0.15c0,0.52,0,1.1,0,1.72c1.2,0.03,2.4,0.07,3.6,0.1c0,0.29,0,0.65,0,1.08
				c-1.63-0.13-3.27-0.2-4.9-0.2c0-2.09,0-4.19,0-6.28c1.67,0,3.25,0.07,4.75,0.2c0,0.3,0,0.64,0,1.03
				c-1.17-0.03-2.32-0.07-3.45-0.1c0,0.46,0,0.92,0,1.38c1.23,0.03,2.32,0.08,3.25,0.15C479.1,530.57,479.1,530.93,479.1,531.36z
				 M469.6,528.81c-0.17,0.29-0.32,0.85-0.45,1.67c0.03,0.75,0.18,1.31,0.45,1.67c0.3,0.39,0.68,0.59,1.15,0.59
				c0.4-0.1,0.7-0.18,0.9-0.25c0.27-0.26,0.43-0.61,0.5-1.03c0.43,0.16,0.87,0.31,1.3,0.44c-0.17,0.59-0.48,1.1-0.95,1.52
				c-0.43,0.33-1.02,0.47-1.75,0.44c-0.83-0.06-1.55-0.39-2.15-0.98c-0.5-0.69-0.75-1.47-0.75-2.36c0.1-1.15,0.38-1.96,0.85-2.46
				c0.53-0.65,1.25-0.87,2.15-0.64c0.87-0.16,1.5,0.06,1.9,0.69c0.37,0.2,0.6,0.57,0.7,1.13c-0.43,0.1-0.87,0.18-1.3,0.25
				c-0.07-0.33-0.23-0.57-0.5-0.74c-0.13-0.23-0.42-0.36-0.85-0.39C470.37,528.36,469.97,528.51,469.6,528.81z"/>
		</g>
	</g>
</g>
</svg>
