<?xml version="1.0" encoding="utf-8"?>
<!-- Generator: Adobe Illustrator 16.0.0, SVG Export Plug-In . SVG Version: 6.00 Build 0)  -->
<!DOCTYPE svg PUBLIC "-//W3C//DTD SVG 1.1//EN" "http://www.w3.org/Graphics/SVG/1.1/DTD/svg11.dtd">
<svg version="1.1" id="Layer_1" xmlns="http://www.w3.org/2000/svg" xmlns:xlink="http://www.w3.org/1999/xlink" x="0px" y="0px"
	 width="700px" height="700px" viewBox="0 0 700 700" enable-background="new 0 0 700 700" xml:space="preserve">
<g>
	<g>
		<path fill-rule="evenodd" clip-rule="evenodd" fill="#FFFFFF" d="M544.85,588.35c-0.07,2.02-0.75,3.82-2.05,5.38
			c-1.3,1.53-3.6,2.64-6.9,3.33c-18.8,3.78-37.73,3.8-56.8,0.05c-4.07-1.14-6.58-2.4-7.55-3.77c-0.97-1.44-1.42-3.05-1.35-4.85
			v-29.71h74.65V588.35z"/>
	</g>
	<g>
		<g>
			<path fill-rule="evenodd" clip-rule="evenodd" fill="none" stroke="#FFFFFF" stroke-width="0.75" stroke-miterlimit="10" d="
				M546.3,510.67c-0.7,1.37-1.15,2.56-1.35,3.57c-0.07,0.13-0.1,0.26-0.1,0.39v73.71c-0.07,2.02-0.75,3.82-2.05,5.38
				c-1.3,1.53-3.6,2.64-6.9,3.33c-18.8,3.78-37.73,3.8-56.8,0.05c-4.07-1.14-6.58-2.4-7.55-3.77c-0.97-1.44-1.42-3.05-1.35-4.85
				v-70.19c-0.03-2.71-1.32-5.32-3.85-7.83c-1.3-0.26-1.95-0.55-1.95-0.88c0-0.72,4.07-1.35,12.2-1.91
				c8.07-0.46,17.82-0.69,29.25-0.69c11.47,0,21.23,0.23,29.3,0.69c8.1,0.55,12.15,1.19,12.15,1.91c0,0.26-0.32,0.47-0.95,0.64
				c-0.03,0-0.05,0.02-0.05,0.05c-1.27,0.59-5.4,1.08-12.4,1.47c-7.2,0.33-16.53,0.49-28,0.49c-11.47,0-21.23-0.25-29.3-0.73
				c-4.9-0.36-8.32-0.7-10.25-1.03"/>
		</g>
		<g>
			<linearGradient id="SVGID_1_" gradientUnits="userSpaceOnUse" x1="438.2627" y1="555.0166" x2="489.6377" y2="555.0166">
				<stop  offset="0" style="stop-color:#FFFFFF;stop-opacity:0.6706"/>
				<stop  offset="1" style="stop-color:#FFFFFF;stop-opacity:0"/>
			</linearGradient>
			<path fill-rule="evenodd" clip-rule="evenodd" fill="url(#SVGID_1_)" d="M504.3,513.12c-0.23,2.06-0.32,4.44-0.25,7.15
				l-0.1,78.41c-14.07-0.72-23-1.88-26.8-3.48c-3.77-1.63-5.65-3.69-5.65-6.17l0.15-72.2c-0.3-1.53-1.2-3.36-2.7-5.48
				C481.98,512.96,493.77,513.54,504.3,513.12z"/>
		</g>
		<g>
			
				<linearGradient id="SVGID_2_" gradientUnits="userSpaceOnUse" x1="520.7559" y1="-344.709" x2="606.7699" y2="-344.709" gradientTransform="matrix(0.228 0.9737 -1.0045 0.0962 1.657009e-005 2.656430e-004)">
				<stop  offset="0" style="stop-color:#FFFFFF;stop-opacity:0.6706"/>
				<stop  offset="1" style="stop-color:#FFFFFF;stop-opacity:0"/>
			</linearGradient>
			<path fill-rule="evenodd" clip-rule="evenodd" fill="url(#SVGID_2_)" d="M489.1,591.19c-6.53-0.16-10.4-1.21-11.6-3.13
				l-0.85-72.83c4.03,0.62,8.2,1,12.5,1.13L489.1,591.19z"/>
		</g>
		<g>
			<path fill-rule="evenodd" clip-rule="evenodd" fill="none" d="M524.15,597.99c11.53-0.49,17.92-2.53,19.15-6.12"/>
			<path fill-rule="evenodd" clip-rule="evenodd" fill="none" d="M470.8,588.99c1.53,6.53,13.58,9.94,36.15,10.23"/>
		</g>
		<g>
			<line fill-rule="evenodd" clip-rule="evenodd" fill="none" x1="543.05" y1="517.82" x2="543.05" y2="588.99"/>
		</g>
		<g>
			<path fill-rule="evenodd" clip-rule="evenodd" fill="none" d="M532.5,589.47c3.57,0.23,6.03,0.51,7.4,0.83
				c0.63,0.13,1.02,0.29,1.15,0.49"/>
			<path fill-rule="evenodd" clip-rule="evenodd" fill="none" d="M473.1,590.6c1.4-1.5,14.93-2.12,40.6-1.86"/>
		</g>
		<g>
			
				<linearGradient id="SVGID_3_" gradientUnits="userSpaceOnUse" x1="-554.5337" y1="-584.0313" x2="-532.3992" y2="-584.0313" gradientTransform="matrix(-0.9981 0.061 -3.723555e-003 -1.0016 4.124525e-005 -4.369318e-004)">
				<stop  offset="0" style="stop-color:#FFFFFF;stop-opacity:0.6706"/>
				<stop  offset="1" style="stop-color:#FFFFFF;stop-opacity:0"/>
			</linearGradient>
			<path fill-rule="evenodd" clip-rule="evenodd" fill="url(#SVGID_3_)" d="M543.05,586.44c-9.07,6.79-15.98,7.34-20.75,1.66v-73.76
				c7.27-0.16,14.18-0.72,20.75-1.66V586.44z"/>
		</g>
		<g>
			
				<linearGradient id="SVGID_4_" gradientUnits="userSpaceOnUse" x1="-615.2173" y1="499.5605" x2="-589.0719" y2="499.5605" gradientTransform="matrix(-0.014 -0.9999 1.0002 5.455501e-003 -1.753345e-004 -1.063272e-004)">
				<stop  offset="0" style="stop-color:#FFFFFF"/>
				<stop  offset="1" style="stop-color:#FFFFFF;stop-opacity:0"/>
			</linearGradient>
			<path fill-rule="evenodd" clip-rule="evenodd" fill="url(#SVGID_4_)" d="M538.55,581.55c1.73,0.78,3.12,1.6,4.15,2.45l1.45,5.73
				c-0.87,3.49-2.97,5.66-6.3,6.51c-2.83,0.91-7.88,1.76-15.15,2.54c-10.2,1.11-20.42,1.11-30.65,0c-4.5-0.59-8.35-1.35-11.55-2.3
				c-3.8-1.04-6.75-2.87-8.85-5.48C498.68,594.39,520.98,591.24,538.55,581.55z"/>
		</g>
		<g>
			<line fill-rule="evenodd" clip-rule="evenodd" fill="none" x1="502.4" y1="515.96" x2="502.8" y2="515.96"/>
			<path fill-rule="evenodd" clip-rule="evenodd" fill="none" d="M474.55,512.73c11.53,0.91,22.5,1.39,32.9,1.42
				c13,0.03,25.05-0.62,36.15-1.96"/>
			<path fill-rule="evenodd" clip-rule="evenodd" fill="none" d="M468.1,510.72c1.33,1.27,2.48,3.61,3.45,7"/>
		</g>
		<g>
			<line fill-rule="evenodd" clip-rule="evenodd" fill="none" x1="507.5" y1="525.84" x2="507.5" y2="592.36"/>
		</g>
		<g>
			<path fill-rule="evenodd" clip-rule="evenodd" fill="none" d="M499,540.28c5.7,1.6,11.82,1.6,18.35,0"/>
			<path fill-rule="evenodd" clip-rule="evenodd" fill="none" d="M499,532.6c5.7,1.66,11.82,1.66,18.35,0"/>
			<path fill-rule="evenodd" clip-rule="evenodd" fill="none" d="M499,525.84c5.7,1.6,11.82,1.6,18.35,0"/>
			<path fill-rule="evenodd" clip-rule="evenodd" fill="none" d="M499,547.04c5.7,1.66,11.82,1.66,18.35,0"/>
			<path fill-rule="evenodd" clip-rule="evenodd" fill="none" d="M499,587.71c0.87,0.26,1.75,0.47,2.65,0.64 M514.45,588.35
				c0.97-0.16,1.93-0.38,2.9-0.64"/>
			<path fill-rule="evenodd" clip-rule="evenodd" fill="none" d="M499,553.35c5.7,1.63,11.82,1.63,18.35,0"/>
			<path fill-rule="evenodd" clip-rule="evenodd" fill="none" d="M499,580.91c5.7,1.63,11.82,1.63,18.35,0"/>
			<path fill-rule="evenodd" clip-rule="evenodd" fill="none" d="M499,574.59c5.7,1.6,11.82,1.6,18.35,0"/>
			<path fill-rule="evenodd" clip-rule="evenodd" fill="none" d="M499,567.79c5.7,1.63,11.82,1.63,18.35,0"/>
			<path fill-rule="evenodd" clip-rule="evenodd" fill="none" d="M499,560.2c5.7,1.6,11.82,1.6,18.35,0"/>
		</g>
		<g>
			<path fill-rule="evenodd" clip-rule="evenodd" fill="#CCCCCC" d="M543.3,567.99c-23.6,2.74-47.42,2.74-71.45,0v-29.71
				c24.03,1.63,47.85,1.63,71.45,0V567.99z"/>
		</g>
		<g>
			<path fill-rule="evenodd" clip-rule="evenodd" d="M525.1,547.92c-0.3-0.16-0.62-0.25-0.95-0.25c-0.7-0.03-1.17,0.18-1.4,0.64
				c-0.37,0.29-0.52,0.82-0.45,1.57c-0.07,0.69,0.08,1.26,0.45,1.71c0.23,0.33,0.7,0.47,1.4,0.44c0.2-0.03,0.47-0.08,0.8-0.15
				c0.1-0.2,0.33-0.34,0.7-0.44c0-0.33,0-0.59,0-0.78c-0.53,0.03-1.02,0.05-1.45,0.05c0-0.42,0-0.78,0-1.08
				c0.87-0.06,1.82-0.08,2.85-0.05c0,0.85,0,1.68,0,2.5c-0.4,0.16-0.8,0.39-1.2,0.69c-0.53,0.23-1.08,0.36-1.65,0.39
				c-0.73,0-1.32-0.1-1.75-0.29c-0.6-0.29-0.97-0.7-1.1-1.22c-0.3-0.52-0.43-1.08-0.4-1.66c-0.03-0.69,0.1-1.29,0.4-1.81
				c0.27-0.52,0.68-0.91,1.25-1.17c0.33-0.29,0.85-0.42,1.55-0.39c0.67-0.06,1.32,0.08,1.95,0.44c0.4,0.29,0.68,0.77,0.85,1.42
				c-0.43,0-0.88,0.05-1.35,0.15C525.43,548.25,525.27,548.02,525.1,547.92z M518.45,546.84c0.47,0,0.92,0,1.35,0
				c0,1.08,0,2.2,0,3.38c-0.03,0.72-0.07,1.26-0.1,1.62c-0.07,0.26-0.2,0.52-0.4,0.78c-0.17,0.29-0.45,0.51-0.85,0.64
				c-0.37,0.16-0.75,0.25-1.15,0.25c-0.63,0-1.13-0.08-1.5-0.25c-0.3-0.2-0.52-0.38-0.65-0.54c-0.2-0.29-0.32-0.51-0.35-0.64
				c-0.13-0.36-0.18-0.91-0.15-1.66c0-1.24,0-2.38,0-3.43c0.43-0.1,0.87-0.11,1.3-0.05c0,1.08,0,2.23,0,3.47
				c-0.03,0.46-0.02,0.83,0.05,1.13c0.07,0.2,0.2,0.41,0.4,0.64c0.2,0.07,0.5,0.11,0.9,0.15c0.3-0.07,0.58-0.15,0.85-0.25
				c0.13-0.29,0.23-0.5,0.3-0.64c0-0.23,0-0.57,0-1.03C518.45,549.14,518.45,547.95,518.45,546.84z M513.55,548.07
				c-1.03,0-2.07,0-3.1,0c0,0.49,0,1,0,1.52c0.87,0,1.73,0,2.6,0c0.1,0.29,0.1,0.65,0,1.08c-0.87-0.07-1.73-0.05-2.6,0.05
				c0,0.85,0,1.78,0,2.79c-0.5,0-0.95,0-1.35,0c0-2.25,0-4.42,0-6.51c1.43,0,2.92,0,4.45,0
				C513.55,547.28,513.55,547.64,513.55,548.07z M507.9,546.99c0,2.09,0,4.26,0,6.51c-0.53,0-0.97,0-1.3,0c0-2.25,0-4.42,0-6.51
				C506.93,546.99,507.37,546.99,507.9,546.99z M514,559.71c0,0.75,0,1.57,0,2.45c0.83-0.91,1.72-1.76,2.65-2.54
				c0.53,0,1.12-0.03,1.75-0.1c-0.83,0.78-1.65,1.55-2.45,2.3c0.87,1.08,1.7,2.25,2.5,3.52c-0.5,0.03-1.03,0.07-1.6,0.1
				c-0.6-1.08-1.2-1.99-1.8-2.74c-0.33,0.23-0.68,0.54-1.05,0.93c0,0.59,0,1.24,0,1.96c-0.5,0.03-0.95,0.05-1.35,0.05
				c0-2.12,0-4.09,0-5.92C513.05,559.71,513.5,559.71,514,559.71z M508.5,559.86c0,1.44,0,3,0,4.7c1.07,0,2.13,0,3.2,0
				c0,0.29,0,0.69,0,1.17c-1.6,0-3.1,0-4.5,0c0-2.19,0-4.14,0-5.87C507.63,559.86,508.07,559.86,508.5,559.86z M505.05,547.72
				c0.23,0.23,0.35,0.59,0.35,1.08c-0.07,0.42-0.2,0.83-0.4,1.22c-0.33,0.29-0.77,0.5-1.3,0.64c0.17,0.16,0.4,0.33,0.7,0.49
				c0.07,0.13,0.28,0.49,0.65,1.08c0.3,0.42,0.58,0.85,0.85,1.27c-0.6,0-1.12,0-1.55,0c-0.3-0.49-0.6-0.98-0.9-1.47
				c-0.4-0.55-0.63-0.86-0.7-0.93c-0.13-0.16-0.27-0.25-0.4-0.25c-0.13-0.1-0.35-0.13-0.65-0.1c-0.17,0-0.27,0-0.3,0
				c0,0.85,0,1.76,0,2.74c-0.43,0-0.87,0-1.3,0c0-2.25,0-4.42,0-6.51c0.87,0,1.78,0,2.75,0c0.6-0.1,1.1-0.03,1.5,0.2
				C504.62,547.22,504.85,547.4,505.05,547.72z M502.4,548.07c-0.33,0-0.67,0-1,0c0,0.55,0,1.09,0,1.61c0.27,0,0.58,0,0.95,0
				c0.63-0.06,1.02-0.08,1.15-0.05c0.13-0.06,0.27-0.15,0.4-0.24c0.03-0.16,0.08-0.33,0.15-0.49c-0.07-0.26-0.12-0.46-0.15-0.59
				c-0.27-0.16-0.43-0.24-0.5-0.24C503.27,548.07,502.93,548.07,502.4,548.07z M497.35,548.02c0,1.7,0,3.47,0,5.33
				c-0.53,0-0.97-0.02-1.3-0.05c0-1.76,0-3.52,0-5.29c-0.6,0-1.22,0-1.85,0c0-0.42,0-0.78,0-1.08c1.57-0.07,3.23-0.05,5,0.05
				c0,0.29,0,0.65,0,1.08C498.5,548.07,497.88,548.05,497.35,548.02z M493.2,546.84c0,2.09,0,4.23,0,6.41c-0.33,0-0.77-0.03-1.3-0.1
				c-0.67-1.47-1.5-2.86-2.5-4.16c0,1.3,0,2.68,0,4.11c-0.33-0.03-0.73-0.08-1.2-0.15c0-2.09,0-4.18,0-6.27
				c0.43,0.03,0.85,0.07,1.25,0.1c0.97,1.34,1.83,2.77,2.6,4.31c0-1.47,0-2.89,0-4.26C492.45,546.84,492.83,546.84,493.2,546.84z
				 M486.95,547.72c-1.17-0.03-2.32-0.06-3.45-0.1c0,0.46,0,0.91,0,1.37c1.23,0.03,2.32,0.08,3.25,0.15c0,0.29,0,0.65,0,1.08
				c-0.93-0.07-2.02-0.11-3.25-0.15c0,0.52,0,1.09,0,1.71c1.2,0.03,2.4,0.06,3.6,0.1c0,0.29,0,0.65,0,1.08
				c-1.63-0.13-3.27-0.2-4.9-0.2c0-2.09,0-4.18,0-6.27c1.67,0,3.25,0.07,4.75,0.2C486.95,546.99,486.95,547.33,486.95,547.72z
				 M505.9,559.76c0,1.83,0,3.82,0,5.97c-0.43-0.1-0.87-0.1-1.3,0c0-2.15,0-4.14,0-5.97C505.03,559.76,505.47,559.76,505.9,559.76z
				 M503.3,559.76c0,1.79,0,3.74,0,5.82c-0.47,0.1-0.87,0.08-1.2-0.05c0-1.76,0-3.3,0-4.6c-0.43,1.34-0.87,2.84-1.3,4.5
				c-0.47,0.1-0.87,0.1-1.2,0c-0.43-1.8-0.88-3.36-1.35-4.7c0,1.31,0,2.85,0,4.65c-0.4-0.16-0.8-0.18-1.2-0.05c0-2.12,0-4.06,0-5.82
				c0.67,0.07,1.3,0.11,1.9,0.15c0.43,1.21,0.83,2.48,1.2,3.82c0.4-1.34,0.8-2.59,1.2-3.77C501.95,559.75,502.6,559.76,503.3,559.76
				z M537.15,547.38c-0.17-0.1-0.53-0.1-1.1,0c-0.17,0-0.33,0-0.5,0c0,1.37,0,2.76,0,4.16c0.23,0,0.55-0.03,0.95-0.1
				c0.3-0.07,0.58-0.08,0.85-0.05c0.17-0.06,0.33-0.15,0.5-0.24c0.03-0.13,0.13-0.34,0.3-0.64c-0.03-0.29,0-0.67,0.1-1.13
				c-0.1-0.55-0.13-0.93-0.1-1.13c-0.1-0.29-0.22-0.5-0.35-0.64C537.67,547.46,537.45,547.38,537.15,547.38z M538.8,546.94
				c0.23,0.23,0.45,0.55,0.65,0.98c0.1,0.42,0.18,0.93,0.25,1.52c-0.07,0.46-0.15,0.9-0.25,1.32c-0.2,0.46-0.43,0.83-0.7,1.13
				c-0.2,0.2-0.5,0.38-0.9,0.54c-0.3,0.03-0.68,0.06-1.15,0.1c-0.83,0.06-1.65,0.11-2.45,0.15c0-2.09,0-4.19,0-6.31
				c0.73-0.03,1.52-0.07,2.35-0.1c0.53-0.07,0.95-0.03,1.25,0.1C538.18,546.39,538.5,546.58,538.8,546.94z M533,547.43
				c-1.13,0-2.32,0.06-3.55,0.2c0,0.46,0,0.91,0,1.37c1.13-0.13,2.23-0.2,3.3-0.2c0,0.29,0,0.65,0,1.08c-1.07,0-2.17,0.06-3.3,0.2
				c0,0.52,0,1.09,0,1.71c1.27-0.13,2.5-0.2,3.7-0.2c0,0.29,0,0.65,0,1.08c-1.73,0.07-3.37,0.15-4.9,0.25c0-2.09,0-4.19,0-6.31
				c1.6-0.06,3.18-0.15,4.75-0.24C533,546.65,533,547,533,547.43z M478.45,547.23c-0.43,0-0.83,0.15-1.2,0.44
				c-0.17,0.29-0.32,0.85-0.45,1.67c0.03,0.75,0.18,1.3,0.45,1.66c0.3,0.39,0.68,0.59,1.15,0.59c0.4-0.1,0.7-0.18,0.9-0.24
				c0.27-0.26,0.43-0.6,0.5-1.03c0.43,0.16,0.87,0.31,1.3,0.44c-0.17,0.59-0.48,1.09-0.95,1.52c-0.43,0.33-1.02,0.47-1.75,0.44
				c-0.83-0.06-1.55-0.39-2.15-0.98c-0.5-0.69-0.75-1.47-0.75-2.35c0.1-1.14,0.38-1.96,0.85-2.45c0.53-0.65,1.25-0.86,2.15-0.64
				c0.87-0.16,1.5,0.06,1.9,0.68c0.37,0.2,0.6,0.57,0.7,1.13c-0.43,0.1-0.87,0.18-1.3,0.24c-0.07-0.33-0.23-0.57-0.5-0.73
				C479.17,547.4,478.88,547.27,478.45,547.23z"/>
		</g>
	</g>
</g>
</svg>
