<?xml version="1.0" encoding="utf-8"?>
<!-- Generator: Adobe Illustrator 16.0.0, SVG Export Plug-In . SVG Version: 6.00 Build 0)  -->
<!DOCTYPE svg PUBLIC "-//W3C//DTD SVG 1.1//EN" "http://www.w3.org/Graphics/SVG/1.1/DTD/svg11.dtd">
<svg version="1.1" id="Layer_1" xmlns="http://www.w3.org/2000/svg" xmlns:xlink="http://www.w3.org/1999/xlink" x="0px" y="0px"
	 width="700px" height="700px" viewBox="0 0 700 700" enable-background="new 0 0 700 700" xml:space="preserve">
<g>
	<g>
		<path fill-rule="evenodd" clip-rule="evenodd" fill="#FFFFFF" d="M561.5,628.9c-0.07,2.07-0.75,3.9-2.05,5.5
			c-1.3,1.57-3.6,2.7-6.9,3.4c-18.8,3.87-37.73,3.88-56.8,0.05c-4.07-1.17-6.58-2.45-7.55-3.85c-0.97-1.47-1.42-3.12-1.35-4.95
			V598.7h74.65V628.9z"/>
	</g>
	<g>
		<g>
			<path fill-rule="evenodd" clip-rule="evenodd" fill="none" stroke="#FFFFFF" stroke-width="0.75" stroke-miterlimit="10" d="
				M562.95,549.55c-0.7,1.4-1.15,2.62-1.35,3.65c-0.07,0.13-0.1,0.27-0.1,0.4v75.3c-0.07,2.07-0.75,3.9-2.05,5.5
				c-1.3,1.57-3.6,2.7-6.9,3.4c-18.8,3.87-37.73,3.88-56.8,0.05c-4.07-1.17-6.58-2.45-7.55-3.85c-0.97-1.47-1.42-3.12-1.35-4.95
				v-71.7c-0.03-2.77-1.32-5.43-3.85-8c-1.3-0.27-1.95-0.57-1.95-0.9c0-0.73,4.07-1.38,12.2-1.95c8.07-0.47,17.82-0.7,29.25-0.7
				c11.47,0,21.23,0.23,29.3,0.7c8.1,0.57,12.15,1.22,12.15,1.95c0,0.27-0.32,0.48-0.95,0.65c-0.03,0-0.05,0.02-0.05,0.05
				c-1.27,0.6-5.4,1.1-12.4,1.5c-7.2,0.33-16.53,0.5-28,0.5s-21.23-0.25-29.3-0.75c-4.9-0.37-8.32-0.72-10.25-1.05"/>
		</g>
		<g>
			<linearGradient id="SVGID_1_" gradientUnits="userSpaceOnUse" x1="454.9121" y1="594.8496" x2="506.2871" y2="594.8496">
				<stop  offset="0" style="stop-color:#FFFFFF;stop-opacity:0.6706"/>
				<stop  offset="1" style="stop-color:#FFFFFF;stop-opacity:0"/>
			</linearGradient>
			<path fill-rule="evenodd" clip-rule="evenodd" fill="url(#SVGID_1_)" d="M520.95,552.05c-0.23,2.1-0.32,4.53-0.25,7.3l-0.1,80.1
				c-14.07-0.73-23-1.92-26.8-3.55c-3.77-1.67-5.65-3.77-5.65-6.3l0.15-73.75c-0.3-1.57-1.2-3.43-2.7-5.6
				C498.63,551.88,510.42,552.48,520.95,552.05z"/>
		</g>
		<g>
			
				<linearGradient id="SVGID_2_" gradientUnits="userSpaceOnUse" x1="560.6055" y1="-351.8535" x2="648.4435" y2="-351.8535" gradientTransform="matrix(0.228 0.9737 -1.0045 0.0962 1.657009e-005 2.656430e-004)">
				<stop  offset="0" style="stop-color:#FFFFFF;stop-opacity:0.6706"/>
				<stop  offset="1" style="stop-color:#FFFFFF;stop-opacity:0"/>
			</linearGradient>
			<path fill-rule="evenodd" clip-rule="evenodd" fill="url(#SVGID_2_)" d="M505.8,555.35l-0.05,76.45
				c-6.53-0.17-10.4-1.23-11.6-3.2l-0.85-74.4C497.33,554.83,501.5,555.22,505.8,555.35z"/>
		</g>
		<g>
			<path fill-rule="evenodd" clip-rule="evenodd" fill="none" d="M540.8,638.75c11.53-0.5,17.92-2.58,19.15-6.25"/>
			<path fill-rule="evenodd" clip-rule="evenodd" fill="none" d="M487.45,629.55c1.53,6.67,13.58,10.15,36.15,10.45"/>
		</g>
		<g>
			<line fill-rule="evenodd" clip-rule="evenodd" fill="none" x1="559.7" y1="556.85" x2="559.7" y2="629.55"/>
		</g>
		<g>
			<path fill-rule="evenodd" clip-rule="evenodd" fill="none" d="M549.15,630.05c3.57,0.23,6.03,0.52,7.4,0.85
				c0.63,0.13,1.02,0.3,1.15,0.5"/>
			<path fill-rule="evenodd" clip-rule="evenodd" fill="none" d="M489.75,631.2c1.4-1.53,14.93-2.17,40.6-1.9"/>
		</g>
		<g>
			
				<linearGradient id="SVGID_3_" gradientUnits="userSpaceOnUse" x1="-571.0703" y1="-624.748" x2="-548.9291" y2="-624.748" gradientTransform="matrix(-0.9981 0.061 -3.723555e-003 -1.0016 4.124525e-005 -4.369318e-004)">
				<stop  offset="0" style="stop-color:#FFFFFF;stop-opacity:0.6706"/>
				<stop  offset="1" style="stop-color:#FFFFFF;stop-opacity:0"/>
			</linearGradient>
			<path fill-rule="evenodd" clip-rule="evenodd" fill="url(#SVGID_3_)" d="M559.7,551.6v75.35c-9.07,6.93-15.98,7.5-20.75,1.7
				V553.3C546.22,553.13,553.13,552.57,559.7,551.6z"/>
		</g>
		<g>
			
				<linearGradient id="SVGID_4_" gradientUnits="userSpaceOnUse" x1="-656.3159" y1="515.6367" x2="-629.6133" y2="515.6367" gradientTransform="matrix(-0.014 -0.9999 1.0002 5.455501e-003 -1.753345e-004 -1.063272e-004)">
				<stop  offset="0" style="stop-color:#FFFFFF"/>
				<stop  offset="1" style="stop-color:#FFFFFF;stop-opacity:0"/>
			</linearGradient>
			<path fill-rule="evenodd" clip-rule="evenodd" fill="url(#SVGID_4_)" d="M554.5,636.95c-2.83,0.93-7.88,1.8-15.15,2.6
				c-10.2,1.13-20.42,1.13-30.65,0c-4.5-0.6-8.35-1.38-11.55-2.35c-3.8-1.07-6.75-2.93-8.85-5.6c27.03,3.47,49.33,0.25,66.9-9.65
				c1.73,0.8,3.12,1.63,4.15,2.5l1.45,5.85C559.93,633.87,557.83,636.08,554.5,636.95z"/>
		</g>
		<g>
			<line fill-rule="evenodd" clip-rule="evenodd" fill="none" x1="519.05" y1="554.95" x2="519.45" y2="554.95"/>
			<path fill-rule="evenodd" clip-rule="evenodd" fill="none" d="M491.2,551.65c11.53,0.93,22.5,1.42,32.9,1.45
				c13,0.03,25.05-0.63,36.15-2"/>
			<path fill-rule="evenodd" clip-rule="evenodd" fill="none" d="M484.75,549.6c1.33,1.3,2.48,3.68,3.45,7.15"/>
		</g>
		<g>
			<line fill-rule="evenodd" clip-rule="evenodd" fill="none" x1="524.15" y1="565.05" x2="524.15" y2="633"/>
		</g>
		<g>
			<path fill-rule="evenodd" clip-rule="evenodd" fill="none" d="M515.65,579.8c5.7,1.63,11.82,1.63,18.35,0"/>
			<path fill-rule="evenodd" clip-rule="evenodd" fill="none" d="M515.65,586.7c5.7,1.7,11.82,1.7,18.35,0"/>
			<path fill-rule="evenodd" clip-rule="evenodd" fill="none" d="M515.65,571.95c5.7,1.7,11.82,1.7,18.35,0"/>
			<path fill-rule="evenodd" clip-rule="evenodd" fill="none" d="M515.65,565.05c5.7,1.63,11.82,1.63,18.35,0"/>
			<path fill-rule="evenodd" clip-rule="evenodd" fill="none" d="M531.1,628.9c0.97-0.17,1.93-0.38,2.9-0.65 M515.65,628.25
				c0.87,0.27,1.75,0.48,2.65,0.65"/>
			<path fill-rule="evenodd" clip-rule="evenodd" fill="none" d="M515.65,621.3c5.7,1.67,11.82,1.67,18.35,0"/>
			<path fill-rule="evenodd" clip-rule="evenodd" fill="none" d="M515.65,614.85c5.7,1.63,11.82,1.63,18.35,0"/>
			<path fill-rule="evenodd" clip-rule="evenodd" fill="none" d="M515.65,607.9c5.7,1.67,11.82,1.67,18.35,0"/>
			<path fill-rule="evenodd" clip-rule="evenodd" fill="none" d="M515.65,600.15c5.7,1.63,11.82,1.63,18.35,0"/>
			<path fill-rule="evenodd" clip-rule="evenodd" fill="none" d="M515.65,593.15c5.7,1.67,11.82,1.67,18.35,0"/>
		</g>
		<g>
			<path fill-rule="evenodd" clip-rule="evenodd" fill="#CCCCCC" d="M559.95,577.75v30.35c-23.6,2.8-47.42,2.8-71.45,0v-30.35
				C512.53,579.42,536.35,579.42,559.95,577.75z"/>
		</g>
		<g>
			<path fill-rule="evenodd" clip-rule="evenodd" d="M495.15,585.95c0.87-0.17,1.5,0.07,1.9,0.7c0.37,0.2,0.6,0.58,0.7,1.15
				c-0.43,0.1-0.87,0.18-1.3,0.25c-0.07-0.33-0.23-0.58-0.5-0.75c-0.13-0.23-0.42-0.37-0.85-0.4c-0.43,0-0.83,0.15-1.2,0.45
				c-0.17,0.3-0.32,0.87-0.45,1.7c0.03,0.77,0.18,1.33,0.45,1.7c0.3,0.4,0.68,0.6,1.15,0.6c0.4-0.1,0.7-0.18,0.9-0.25
				c0.27-0.27,0.43-0.62,0.5-1.05c0.43,0.17,0.87,0.32,1.3,0.45c-0.17,0.6-0.48,1.12-0.95,1.55c-0.43,0.33-1.02,0.48-1.75,0.45
				c-0.83-0.07-1.55-0.4-2.15-1c-0.5-0.7-0.75-1.5-0.75-2.4c0.1-1.17,0.38-2,0.85-2.5C493.53,585.93,494.25,585.72,495.15,585.95z
				 M506.1,586.45c0.97,1.37,1.83,2.83,2.6,4.4c0-1.5,0-2.95,0-4.35c0.4,0,0.78,0,1.15,0c0,2.13,0,4.32,0,6.55
				c-0.33,0-0.77-0.03-1.3-0.1c-0.67-1.5-1.5-2.92-2.5-4.25c0,1.33,0,2.73,0,4.2c-0.33-0.03-0.73-0.08-1.2-0.15c0-2.13,0-4.27,0-6.4
				C505.28,586.38,505.7,586.42,506.1,586.45z M503.6,587.4c-1.17-0.03-2.32-0.07-3.45-0.1c0,0.47,0,0.93,0,1.4
				c1.23,0.03,2.32,0.08,3.25,0.15c0,0.3,0,0.67,0,1.1c-0.93-0.07-2.02-0.12-3.25-0.15c0,0.53,0,1.12,0,1.75
				c1.2,0.03,2.4,0.07,3.6,0.1c0,0.3,0,0.67,0,1.1c-1.63-0.13-3.27-0.2-4.9-0.2c0-2.13,0-4.27,0-6.4c1.67,0,3.25,0.07,4.75,0.2
				C503.6,586.65,503.6,587,503.6,587.4z M515.85,587.75c-0.7,0-1.32-0.02-1.85-0.05c0,1.73,0,3.55,0,5.45
				c-0.53,0-0.97-0.02-1.3-0.05c0-1.8,0-3.6,0-5.4c-0.6,0-1.22,0-1.85,0c0-0.43,0-0.8,0-1.1c1.57-0.07,3.23-0.05,5,0.05
				C515.85,586.95,515.85,587.32,515.85,587.75z M524.55,586.65c0,2.13,0,4.35,0,6.65c-0.53,0-0.97,0-1.3,0c0-2.3,0-4.52,0-6.65
				C523.58,586.65,524.02,586.65,524.55,586.65z M521,586.85c0.27,0.03,0.5,0.22,0.7,0.55c0.23,0.23,0.35,0.6,0.35,1.1
				c-0.07,0.43-0.2,0.85-0.4,1.25c-0.33,0.3-0.77,0.52-1.3,0.65c0.17,0.17,0.4,0.33,0.7,0.5c0.07,0.13,0.28,0.5,0.65,1.1
				c0.3,0.43,0.58,0.87,0.85,1.3c-0.6,0-1.12,0-1.55,0c-0.3-0.5-0.6-1-0.9-1.5c-0.4-0.57-0.63-0.88-0.7-0.95
				c-0.13-0.17-0.27-0.25-0.4-0.25c-0.13-0.1-0.35-0.13-0.65-0.1c-0.17,0-0.27,0-0.3,0c0,0.87,0,1.8,0,2.8c-0.43,0-0.87,0-1.3,0
				c0-2.3,0-4.52,0-6.65c0.87,0,1.78,0,2.75,0C520.1,586.55,520.6,586.62,521,586.85z M518.05,587.75c0,0.57,0,1.12,0,1.65
				c0.27,0,0.58,0,0.95,0c0.63-0.07,1.02-0.08,1.15-0.05c0.13-0.07,0.27-0.15,0.4-0.25c0.03-0.17,0.08-0.33,0.15-0.5
				c-0.07-0.27-0.12-0.47-0.15-0.6c-0.27-0.17-0.43-0.25-0.5-0.25c-0.13,0-0.47,0-1,0C518.72,587.75,518.38,587.75,518.05,587.75z
				 M525.75,586.65c1.43,0,2.92,0,4.45,0c0,0.3,0,0.67,0,1.1c-1.03,0-2.07,0-3.1,0c0,0.5,0,1.02,0,1.55c0.87,0,1.73,0,2.6,0
				c0.1,0.3,0.1,0.67,0,1.1c-0.87-0.07-1.73-0.05-2.6,0.05c0,0.87,0,1.82,0,2.85c-0.5,0-0.95,0-1.35,0
				C525.75,591,525.75,588.78,525.75,586.65z M536.45,586.5c0,1.1,0,2.25,0,3.45c-0.03,0.73-0.07,1.28-0.1,1.65
				c-0.07,0.27-0.2,0.53-0.4,0.8c-0.17,0.3-0.45,0.52-0.85,0.65c-0.37,0.17-0.75,0.25-1.15,0.25c-0.63,0-1.13-0.08-1.5-0.25
				c-0.3-0.2-0.52-0.38-0.65-0.55c-0.2-0.3-0.32-0.52-0.35-0.65c-0.13-0.37-0.18-0.93-0.15-1.7c0-1.27,0-2.43,0-3.5
				c0.43-0.1,0.87-0.12,1.3-0.05c0,1.1,0,2.28,0,3.55c-0.03,0.47-0.02,0.85,0.05,1.15c0.07,0.2,0.2,0.42,0.4,0.65
				c0.2,0.07,0.5,0.12,0.9,0.15c0.3-0.07,0.58-0.15,0.85-0.25c0.13-0.3,0.23-0.52,0.3-0.65c0-0.23,0-0.58,0-1.05
				c0-1.3,0-2.52,0-3.65C535.57,586.5,536.02,586.5,536.45,586.5z M540.8,586.25c0.67-0.07,1.32,0.08,1.95,0.45
				c0.4,0.3,0.68,0.78,0.85,1.45c-0.43,0-0.88,0.05-1.35,0.15c-0.17-0.37-0.33-0.6-0.5-0.7c-0.3-0.17-0.62-0.25-0.95-0.25
				c-0.7-0.03-1.17,0.18-1.4,0.65c-0.37,0.3-0.52,0.83-0.45,1.6c-0.07,0.7,0.08,1.28,0.45,1.75c0.23,0.33,0.7,0.48,1.4,0.45
				c0.2-0.03,0.47-0.08,0.8-0.15c0.1-0.2,0.33-0.35,0.7-0.45c0-0.33,0-0.6,0-0.8c-0.53,0.03-1.02,0.05-1.45,0.05c0-0.43,0-0.8,0-1.1
				c0.87-0.07,1.82-0.08,2.85-0.05c0,0.87,0,1.72,0,2.55c-0.4,0.17-0.8,0.4-1.2,0.7c-0.53,0.23-1.08,0.37-1.65,0.4
				c-0.73,0-1.32-0.1-1.75-0.3c-0.6-0.3-0.97-0.72-1.1-1.25c-0.3-0.53-0.43-1.1-0.4-1.7c-0.03-0.7,0.1-1.32,0.4-1.85
				c0.27-0.53,0.68-0.93,1.25-1.2C539.58,586.35,540.1,586.22,540.8,586.25z M546.1,591.55c1.27-0.13,2.5-0.2,3.7-0.2
				c0,0.3,0,0.67,0,1.1c-1.73,0.07-3.37,0.15-4.9,0.25c0-2.13,0-4.28,0-6.45c1.6-0.07,3.18-0.15,4.75-0.25c0,0.3,0,0.67,0,1.1
				c-1.13,0-2.32,0.07-3.55,0.2c0,0.47,0,0.93,0,1.4c1.13-0.13,2.23-0.2,3.3-0.2c0,0.3,0,0.67,0,1.1c-1.07,0-2.17,0.07-3.3,0.2
				C546.1,590.33,546.1,590.92,546.1,591.55z M555.45,586.6c0.23,0.23,0.45,0.57,0.65,1c0.1,0.43,0.18,0.95,0.25,1.55
				c-0.07,0.47-0.15,0.92-0.25,1.35c-0.2,0.47-0.43,0.85-0.7,1.15c-0.2,0.2-0.5,0.38-0.9,0.55c-0.3,0.03-0.68,0.07-1.15,0.1
				c-0.83,0.07-1.65,0.12-2.45,0.15c0-2.13,0-4.28,0-6.45c0.73-0.03,1.52-0.07,2.35-0.1c0.53-0.07,0.95-0.03,1.25,0.1
				C554.83,586.03,555.15,586.23,555.45,586.6z M552.2,587.05c0,1.4,0,2.82,0,4.25c0.23,0,0.55-0.03,0.95-0.1
				c0.3-0.07,0.58-0.08,0.85-0.05c0.17-0.07,0.33-0.15,0.5-0.25c0.03-0.13,0.13-0.35,0.3-0.65c-0.03-0.3,0-0.68,0.1-1.15
				c-0.1-0.57-0.13-0.95-0.1-1.15c-0.1-0.3-0.22-0.52-0.35-0.65c-0.13-0.17-0.35-0.25-0.65-0.25c-0.17-0.1-0.53-0.1-1.1,0
				C552.53,587.05,552.37,587.05,552.2,587.05z M535.05,599.45c-0.83,0.8-1.65,1.58-2.45,2.35c0.87,1.1,1.7,2.3,2.5,3.6
				c-0.5,0.03-1.03,0.07-1.6,0.1c-0.6-1.1-1.2-2.03-1.8-2.8c-0.33,0.23-0.68,0.55-1.05,0.95c0,0.6,0,1.27,0,2
				c-0.5,0.03-0.95,0.05-1.35,0.05c0-2.17,0-4.18,0-6.05c0.4,0,0.85,0,1.35,0c0,0.77,0,1.6,0,2.5c0.83-0.93,1.72-1.8,2.65-2.6
				C533.83,599.55,534.42,599.52,535.05,599.45z M528.35,605.8c-1.6,0-3.1,0-4.5,0c0-2.23,0-4.23,0-6c0.43,0,0.87,0,1.3,0
				c0,1.47,0,3.07,0,4.8c1.07,0,2.13,0,3.2,0C528.35,604.9,528.35,605.3,528.35,605.8z M519.95,599.7c0,1.83,0,3.82,0,5.95
				c-0.47,0.1-0.87,0.08-1.2-0.05c0-1.8,0-3.37,0-4.7c-0.43,1.37-0.87,2.9-1.3,4.6c-0.47,0.1-0.87,0.1-1.2,0
				c-0.43-1.83-0.88-3.43-1.35-4.8c0,1.33,0,2.92,0,4.75c-0.4-0.17-0.8-0.18-1.2-0.05c0-2.17,0-4.15,0-5.95
				c0.67,0.07,1.3,0.12,1.9,0.15c0.43,1.23,0.83,2.53,1.2,3.9c0.4-1.37,0.8-2.65,1.2-3.85C518.6,599.68,519.25,599.7,519.95,599.7z
				 M521.25,599.7c0.43,0,0.87,0,1.3,0c0,1.87,0,3.9,0,6.1c-0.43-0.1-0.87-0.1-1.3,0C521.25,603.6,521.25,601.57,521.25,599.7z"/>
		</g>
	</g>
</g>
</svg>
