<?xml version="1.0" encoding="utf-8"?>
<!-- Generator: Adobe Illustrator 16.0.0, SVG Export Plug-In . SVG Version: 6.00 Build 0)  -->
<!DOCTYPE svg PUBLIC "-//W3C//DTD SVG 1.1//EN" "http://www.w3.org/Graphics/SVG/1.1/DTD/svg11.dtd">
<svg version="1.1" id="Layer_1" xmlns="http://www.w3.org/2000/svg" xmlns:xlink="http://www.w3.org/1999/xlink" x="0px" y="0px"
	 width="105.13px" height="24.75px" viewBox="0 0 105.13 24.75" enable-background="new 0 0 105.13 24.75" xml:space="preserve">
<g>
	<path fill-rule="evenodd" clip-rule="evenodd" fill="#FFFFFF" d="M1.1,4.23v-2.9c0.58,0,1.17,0,1.75,0c1.57,0.3,3.03,0.58,4.4,0.85
		c1.73,0.27,3.43,0.23,5.1-0.1l1.35-0.75c2.2-0.37,4.37-0.32,6.5,0.15c3.03,0.7,6.12,0.98,9.25,0.85c2.37-0.37,4.75-0.73,7.15-1.1
		c1.43,0.07,2.77,0.02,4-0.15c0.37,0.37,0.87,0.5,1.5,0.4l0.35,0.35c2.6,0.47,5.27,0.67,8,0.6c4.9-0.1,9.73,0.33,14.5,1.3
		c3.93,0.77,7.7,0.47,11.3-0.9c2.7-0.97,5.48-1.42,8.35-1.35c1.2-0.17,2.37-0.05,3.5,0.35h1.1c0.7,0.4,1.33,0.7,1.9,0.9
		c0.37,0.17,0.78,0.2,1.25,0.1c3.43,0.77,7.02,1.15,10.75,1.15c0.4,0,0.8,0,1.2,0c0,0.08,0,0.16,0,0.25c0,0.13,0,0.27,0,0.4
		c0,0.45,0,0.9,0,1.35c-0.13,1.48-0.32,2.97-0.55,4.45c-0.13,0.87-0.42,1.7-0.85,2.5c-0.4,0.8-0.88,1.57-1.45,2.3
		c-0.2,0.3-0.43,0.57-0.7,0.8c-0.6,0.53-1.22,1-1.85,1.4c-1.17,0.83-2.42,1.42-3.75,1.75c-0.5,0.13-1,0.28-1.5,0.45
		c-0.57,0.1-1.13,0.22-1.7,0.35c-4.8,1-9.67,1.83-14.6,2.5c-1.63,0.17-3.27,0.35-4.9,0.55c-3.27,0.23-6.53,0.48-9.8,0.75
		c-6.5,0.37-13.05,0.38-19.65,0.05c-10.77-0.43-21.32-1.95-31.65-4.55c-1.17-0.3-2.32-0.65-3.45-1.05c-2.03-0.7-3.7-1.9-5-3.6
		c-0.93-1.23-1.45-2.67-1.55-4.3c-0.1-1.45-0.18-2.9-0.25-4.35c0-0.45,0-0.9,0-1.35C1.1,4.49,1.1,4.36,1.1,4.23z"/>
</g>
</svg>
