<?xml version="1.0" encoding="utf-8"?>
<!-- Generator: Adobe Illustrator 16.0.0, SVG Export Plug-In . SVG Version: 6.00 Build 0)  -->
<!DOCTYPE svg PUBLIC "-//W3C//DTD SVG 1.1//EN" "http://www.w3.org/Graphics/SVG/1.1/DTD/svg11.dtd">
<svg version="1.1" id="Layer_1" xmlns="http://www.w3.org/2000/svg" xmlns:xlink="http://www.w3.org/1999/xlink" x="0px" y="0px"
	 width="700px" height="700px" viewBox="0 0 700 700" enable-background="new 0 0 700 700" xml:space="preserve">
<g>
	<g>
		<path fill-rule="evenodd" clip-rule="evenodd" fill="#FFFFFF" fill-opacity="0.298" d="M536.2,563.2v-72.95h64.5v73.3
			c-0.6,5.13-5.07,8.57-13.4,10.3c-12.4,2-24.68,2-36.85,0C540.82,572.02,536.07,568.47,536.2,563.2z"/>
	</g>
	<g>
		<rect x="536.25" y="489.55" fill-rule="evenodd" clip-rule="evenodd" fill="#FFFFFF" width="64.5" height="0.7"/>
	</g>
	<g>
		<g>
			<linearGradient id="SVGID_1_" gradientUnits="userSpaceOnUse" x1="543.7002" y1="517.2871" x2="594.6504" y2="517.2871">
				<stop  offset="7.843138e-003" style="stop-color:#000000;stop-opacity:0"/>
				<stop  offset="0.2863" style="stop-color:#000000;stop-opacity:0.0431"/>
				<stop  offset="0.5647" style="stop-color:#000000;stop-opacity:0.0627"/>
				<stop  offset="0.8353" style="stop-color:#000000;stop-opacity:0"/>
				<stop  offset="1" style="stop-color:#000000;stop-opacity:0"/>
			</linearGradient>
			<path fill-rule="evenodd" clip-rule="evenodd" fill="url(#SVGID_1_)" d="M594.65,571.6c-17.47,5.43-34.45,5.43-50.95,0V458.9
				h50.95V571.6z"/>
		</g>
		<g>
			<linearGradient id="SVGID_2_" gradientUnits="userSpaceOnUse" x1="566.2871" y1="516.0879" x2="571.6121" y2="516.0879">
				<stop  offset="0" style="stop-color:#FFFFFF;stop-opacity:0.1294"/>
				<stop  offset="0.5098" style="stop-color:#FFFFFF"/>
				<stop  offset="1" style="stop-color:#FFFFFF;stop-opacity:0.3922"/>
			</linearGradient>
			<path fill-rule="evenodd" clip-rule="evenodd" fill="url(#SVGID_2_)" d="M571.85,572.05c-1.9,1.1-3.8,1.1-5.7,0V459.3h5.7V572.05
				z"/>
		</g>
		<g>
			<linearGradient id="SVGID_3_" gradientUnits="userSpaceOnUse" x1="546.7998" y1="454.3828" x2="588.7998" y2="454.3828">
				<stop  offset="0" style="stop-color:#BAC1D1;stop-opacity:0.8431"/>
				<stop  offset="0.2078" style="stop-color:#AFB8C8;stop-opacity:0.5922"/>
				<stop  offset="0.4745" style="stop-color:#A5B0C0;stop-opacity:0.3176"/>
				<stop  offset="0.8039" style="stop-color:#B2BACA;stop-opacity:0.6275"/>
				<stop  offset="0.8784" style="stop-color:#B5BCCC;stop-opacity:0.5922"/>
				<stop  offset="1" style="stop-color:#BAC1D1;stop-opacity:0.8"/>
			</linearGradient>
			<path fill-rule="evenodd" clip-rule="evenodd" fill="url(#SVGID_3_)" d="M582.65,452.85c4.13,0.43,6.2,0.88,6.2,1.35
				c0,0.3-0.78,0.6-2.35,0.9c-5.67,0.87-11.45,1.35-17.35,1.45c-3.03,0.03-5.98,0.02-8.85-0.05c-2.7-0.13-5.15-0.32-7.35-0.55
				c-1.53-0.17-2.77-0.33-3.7-0.5c-1.63-0.3-2.45-0.67-2.45-1.1c0-0.33,0.82-0.67,2.45-1c0.93-0.17,2.17-0.33,3.7-0.5
				c4.13-0.43,9.1-0.65,14.9-0.65C573.65,452.2,578.58,452.42,582.65,452.85z"/>
		</g>
		<g>
			<linearGradient id="SVGID_4_" gradientUnits="userSpaceOnUse" x1="554.1396" y1="443.957" x2="582.4502" y2="443.957">
				<stop  offset="0" style="stop-color:#7E0127"/>
				<stop  offset="0.2392" style="stop-color:#98012A"/>
				<stop  offset="0.4941" style="stop-color:#A0002B"/>
				<stop  offset="0.7686" style="stop-color:#810328"/>
				<stop  offset="1" style="stop-color:#4A0218"/>
			</linearGradient>
			<path fill-rule="evenodd" clip-rule="evenodd" fill="url(#SVGID_4_)" d="M582.45,439.2v0.25V450c-0.2,0.73-1.2,1.15-3,1.25
				c-7.67,0.7-15.27,0.68-22.8-0.05c-1.93-0.27-2.75-0.77-2.45-1.5v-10.25v-0.05c0.13-2.1,1.65-3.18,4.55-3.25c0.1,0,0.25,0,0.45,0
				h19.1C580.7,436.22,582.08,437.23,582.45,439.2z"/>
		</g>
		<g>
			<linearGradient id="SVGID_5_" gradientUnits="userSpaceOnUse" x1="553.3057" y1="452.2754" x2="583.1556" y2="452.2754">
				<stop  offset="0" style="stop-color:#C6B3B0"/>
				<stop  offset="0.4784" style="stop-color:#DBCFCD"/>
				<stop  offset="1" style="stop-color:#A28380"/>
			</linearGradient>
			<path fill-rule="evenodd" clip-rule="evenodd" fill="url(#SVGID_5_)" d="M583.25,452.2c-0.13,1.23-0.38,1.9-0.75,2
				c-9.77,1-19.28,1-28.55,0c-0.17-0.3-0.35-0.83-0.55-1.6c-0.23-1-0.03-2,0.6-3c9.37,1.17,18.73,1.17,28.1,0
				C582.97,450.1,583.35,450.97,583.25,452.2z"/>
		</g>
		<g>
			<linearGradient id="SVGID_6_" gradientUnits="userSpaceOnUse" x1="560.9375" y1="436.3623" x2="576.0625" y2="436.3623">
				<stop  offset="0" style="stop-color:#A1002C"/>
				<stop  offset="1" style="stop-color:#4B0117"/>
			</linearGradient>
			<path fill-rule="evenodd" clip-rule="evenodd" fill="url(#SVGID_6_)" d="M568.5,437.15c-3.17,0-5.88-0.08-8.15-0.25
				c-2.23-0.13-3.35-0.28-3.35-0.45c0-0.03,0.28-0.12,0.85-0.25c7.1-0.83,14.2-0.83,21.3,0c0.53,0.13,0.8,0.22,0.8,0.25
				c0,0.17-1.12,0.32-3.35,0.45C574.37,437.07,571.67,437.15,568.5,437.15z"/>
		</g>
		<g>
			
				<radialGradient id="SVGID_7_" cx="555.7002" cy="415.0498" r="29.3" gradientTransform="matrix(1 0 0 0.8622 0 57.1933)" gradientUnits="userSpaceOnUse">
				<stop  offset="0" style="stop-color:#A0002B"/>
				<stop  offset="0.6" style="stop-color:#75021F"/>
				<stop  offset="0.9804" style="stop-color:#980E2F"/>
			</radialGradient>
			<path fill-rule="evenodd" clip-rule="evenodd" fill="url(#SVGID_7_)" d="M487.95,389.05c4.17-6.03,8.23-11.15,12.2-15.35
				c30.4-32.53,54.18-11.73,71.35,62.4v0.25c-2.47,0.3-4.95,0.27-7.45-0.1v-0.15v-0.45c-14.97-70.6-36.27-88.2-63.9-52.8
				c-1.6,2.03-3.22,4.23-4.85,6.6C492.67,390.88,490.22,390.75,487.95,389.05z"/>
			<linearGradient id="SVGID_8_" gradientUnits="userSpaceOnUse" x1="536.2471" y1="514.9248" x2="600.75" y2="514.9248">
				<stop  offset="0" style="stop-color:#BAC1D1;stop-opacity:0.8431"/>
				<stop  offset="0.2078" style="stop-color:#AFB8C8;stop-opacity:0.5922"/>
				<stop  offset="0.4745" style="stop-color:#A5B0C0;stop-opacity:0.3176"/>
				<stop  offset="0.8039" style="stop-color:#B2BACA;stop-opacity:0.6275"/>
				<stop  offset="0.8784" style="stop-color:#B5BCCC;stop-opacity:0.5922"/>
				<stop  offset="1" style="stop-color:#BAC1D1;stop-opacity:0.8"/>
			</linearGradient>
			<path fill-rule="evenodd" clip-rule="evenodd" fill="url(#SVGID_8_)" d="M600.75,476.95v86.75c-0.6,5.13-5.07,8.57-13.4,10.3
				c-12.4,2-24.68,2-36.85,0c-9.63-1.83-14.38-5.38-14.25-10.65v-97.9c0.6-2.3,1.77-4.47,3.5-6.5c0.33-0.37,0.67-0.72,1-1.05
				c1.83-1.9,3.92-3.08,6.25-3.55c13.63,1.73,27.27,1.73,40.9,0h0.2c3.13,0.4,5.83,1.58,8.1,3.55c0.3,0.2,0.6,0.45,0.9,0.75
				c2,1.97,3.22,4.05,3.65,6.25v0.55V476.95z"/>
		</g>
		<g>
			<path fill-rule="evenodd" clip-rule="evenodd" fill="#FF3E73" fill-opacity="0.3294" d="M574.65,437.65
				c0.03-0.07,0.07-0.1,0.1-0.1c0.07,0,0.13,0.03,0.2,0.1c0.03,0,0.05,0.03,0.05,0.1v11.6c0,0.03-0.02,0.08-0.05,0.15
				c-0.07,0-0.13,0-0.2,0c-0.03,0-0.07,0-0.1,0c-0.07-0.07-0.1-0.12-0.1-0.15v-11.6C574.55,437.68,574.58,437.65,574.65,437.65z
				 M570.3,437.8c0.07,0,0.12,0.03,0.15,0.1c0.03,0.03,0.05,0.07,0.05,0.1v11.7c0,0.03-0.02,0.08-0.05,0.15c-0.03,0-0.08,0-0.15,0
				s-0.12,0-0.15,0c-0.03-0.07-0.05-0.12-0.05-0.15V438c0-0.03,0.02-0.07,0.05-0.1C570.18,437.83,570.23,437.8,570.3,437.8z
				 M579.4,437.65c0.03,0.03,0.05,0.08,0.05,0.15v11.1c0,0.07-0.02,0.12-0.05,0.15c-0.03,0.03-0.08,0.05-0.15,0.05
				s-0.12-0.02-0.15-0.05c-0.03-0.03-0.05-0.08-0.05-0.15v-11.1c0-0.07,0.02-0.12,0.05-0.15c0.03-0.03,0.08-0.05,0.15-0.05
				S579.37,437.62,579.4,437.65z M556.45,437.65c0-0.03,0.03-0.07,0.1-0.1c0.03-0.03,0.08-0.05,0.15-0.05
				c0.03,0,0.08,0.02,0.15,0.05c0.03,0.03,0.05,0.07,0.05,0.1v11.6c0,0.07-0.02,0.12-0.05,0.15c-0.07,0.03-0.12,0.05-0.15,0.05
				c-0.07,0-0.12-0.02-0.15-0.05c-0.07-0.03-0.1-0.08-0.1-0.15V437.65z M566.1,437.95c0.03,0.03,0.05,0.07,0.05,0.1v11.75
				c0,0.03-0.02,0.08-0.05,0.15c-0.03,0.03-0.08,0.05-0.15,0.05s-0.12-0.02-0.15-0.05c-0.03-0.07-0.05-0.12-0.05-0.15v-11.75
				c0-0.03,0.02-0.07,0.05-0.1c0.03-0.07,0.08-0.1,0.15-0.1S566.07,437.88,566.1,437.95z M560.95,438c0-0.07,0.03-0.12,0.1-0.15
				c0.03-0.03,0.07-0.05,0.1-0.05c0.07,0,0.13,0.02,0.2,0.05c0.03,0.03,0.05,0.08,0.05,0.15v11.85c0,0.03-0.02,0.08-0.05,0.15
				c-0.07,0-0.13,0-0.2,0c-0.03,0-0.07,0-0.1,0c-0.07-0.07-0.1-0.12-0.1-0.15V438z"/>
			<path fill-rule="evenodd" clip-rule="evenodd" fill="#770021" d="M573.8,437.95c0-0.07,0.03-0.12,0.1-0.15
				c0.03-0.03,0.08-0.05,0.15-0.05s0.12,0.02,0.15,0.05s0.05,0.08,0.05,0.15v11.6c0,0.07-0.02,0.12-0.05,0.15s-0.08,0.05-0.15,0.05
				s-0.12-0.02-0.15-0.05c-0.07-0.03-0.1-0.08-0.1-0.15V437.95z M569.8,438c0.03,0,0.05,0.03,0.05,0.1v11.65
				c0,0.07-0.02,0.12-0.05,0.15c-0.03,0.03-0.08,0.05-0.15,0.05c-0.07,0-0.12-0.02-0.15-0.05c-0.03-0.03-0.05-0.08-0.05-0.15V438.1
				c0-0.07,0.02-0.1,0.05-0.1c0.03-0.07,0.08-0.1,0.15-0.1C569.72,437.9,569.77,437.93,569.8,438z M578.25,437.45
				c0-0.07,0.03-0.12,0.1-0.15c0.03-0.03,0.08-0.05,0.15-0.05c0.03,0,0.08,0.02,0.15,0.05c0.03,0.03,0.05,0.08,0.05,0.15v11.7
				c0,0.03-0.02,0.08-0.05,0.15c-0.07,0.03-0.12,0.05-0.15,0.05c-0.07,0-0.12-0.02-0.15-0.05c-0.07-0.07-0.1-0.12-0.1-0.15V437.45z
				 M556.15,437.25c0.03,0.03,0.05,0.07,0.05,0.1v11.4c0,0.07-0.02,0.12-0.05,0.15c-0.03,0.03-0.08,0.05-0.15,0.05
				s-0.12-0.02-0.15-0.05c-0.03-0.03-0.05-0.08-0.05-0.15v-11.4c0-0.03,0.02-0.07,0.05-0.1c0.03-0.07,0.08-0.1,0.15-0.1
				S556.12,437.18,556.15,437.25z M560.5,437.7c0.03,0.03,0.05,0.07,0.05,0.1v11.9c0,0.03-0.02,0.08-0.05,0.15
				c-0.03,0-0.08,0-0.15,0c-0.07,0-0.12,0-0.15,0c-0.03-0.07-0.05-0.12-0.05-0.15v-11.9c0-0.03,0.02-0.07,0.05-0.1
				s0.08-0.05,0.15-0.05C560.42,437.65,560.47,437.67,560.5,437.7z M565.2,437.85c0.07,0,0.13,0.03,0.2,0.1
				c0.03,0.03,0.05,0.07,0.05,0.1v11.8c0,0.03-0.02,0.08-0.05,0.15c-0.07,0-0.13,0-0.2,0h-0.1c-0.07-0.07-0.1-0.12-0.1-0.15v-11.8
				c0-0.03,0.03-0.07,0.1-0.1C565.1,437.88,565.13,437.85,565.2,437.85z"/>
		</g>
		<g>
			<path fill-rule="evenodd" clip-rule="evenodd" fill="none" d="M547.95,454.55c9.23,1.1,19.57,1.28,31,0.55"/>
			<path fill-rule="evenodd" clip-rule="evenodd" fill="none" d="M557,436.8c7.03,0.7,14.33,0.7,21.9,0"/>
			<path fill-rule="evenodd" clip-rule="evenodd" fill="none" d="M564.85,436.35c2.57,0.57,5.05,0.57,7.45,0"/>
			<path fill-rule="evenodd" clip-rule="evenodd" fill="none" d="M554.25,454.1c10,1.07,19.32,0.95,27.95-0.35"/>
			<path fill-rule="evenodd" clip-rule="evenodd" fill="none" d="M554.45,450c10,1.1,19.35,1,28.05-0.3"/>
			<path fill-rule="evenodd" clip-rule="evenodd" fill="none" d="M554.85,449.35c8.47,1.23,17.47,1.23,27,0"/>
		</g>
		<g>
			
				<radialGradient id="SVGID_9_" cx="528" cy="360.8496" r="5.3" gradientTransform="matrix(1 0 0 0.8939 0 38.2977)" gradientUnits="userSpaceOnUse">
				<stop  offset="0" style="stop-color:#FFFFFF;stop-opacity:0.4627"/>
				<stop  offset="1" style="stop-color:#FBFBFB;stop-opacity:0"/>
			</radialGradient>
			<path fill-rule="evenodd" clip-rule="evenodd" fill="url(#SVGID_9_)" d="M522.85,360.05c0.03-0.07,0.12-0.12,0.25-0.15
				c2.6-0.7,5.9-0.32,9.9,1.15c0.1,0.03,0.17,0.1,0.2,0.2c0.07,0.1,0.08,0.2,0.05,0.3c-0.07,0.1-0.15,0.17-0.25,0.2
				c-0.13,0.07-0.25,0.08-0.35,0.05c-3.77-1.4-6.88-1.78-9.35-1.15c-0.1,0.03-0.22,0.02-0.35-0.05c-0.07-0.07-0.12-0.15-0.15-0.25
				C522.73,360.25,522.75,360.15,522.85,360.05z"/>
			
				<radialGradient id="SVGID_10_" cx="501.6016" cy="376.4082" r="18.8177" gradientTransform="matrix(1 0 0 0.8938 0 39.9902)" gradientUnits="userSpaceOnUse">
				<stop  offset="0" style="stop-color:#FFFFFF;stop-opacity:0.5765"/>
				<stop  offset="1" style="stop-color:#FBFBFB;stop-opacity:0"/>
			</radialGradient>
			<path fill-rule="evenodd" clip-rule="evenodd" fill="url(#SVGID_10_)" d="M514,364.05c-0.03,0.1-0.08,0.18-0.15,0.25
				c-3.93,2.3-8.38,6.23-13.35,11.8c-3.3,3.63-6.8,7.97-10.5,13c-0.07,0.07-0.17,0.12-0.3,0.15c-0.1,0.03-0.2,0.02-0.3-0.05
				c-0.1-0.07-0.17-0.15-0.2-0.25c-0.03-0.1,0-0.2,0.1-0.3c3.73-5.03,7.23-9.38,10.5-13.05c5.03-5.67,9.55-9.65,13.55-11.95
				c0.1-0.07,0.2-0.1,0.3-0.1c0.13,0.03,0.23,0.1,0.3,0.2S514.03,363.95,514,364.05z"/>
			
				<radialGradient id="SVGID_11_" cx="539.75" cy="372.7002" r="10.425" gradientTransform="matrix(1 0 0 0.8933 0 39.7726)" gradientUnits="userSpaceOnUse">
				<stop  offset="0" style="stop-color:#FFFFFF;stop-opacity:0.4314"/>
				<stop  offset="1" style="stop-color:#FBFBFB;stop-opacity:0"/>
			</radialGradient>
			<path fill-rule="evenodd" clip-rule="evenodd" fill="url(#SVGID_11_)" d="M533.3,365.7c0.1,0,0.22,0.03,0.35,0.1
				c6.13,3.73,10.93,9.22,14.4,16.45c0.03,0.1,0.03,0.2,0,0.3c-0.03,0.07-0.12,0.13-0.25,0.2c-0.1,0.03-0.2,0.05-0.3,0.05
				c-0.1-0.07-0.18-0.15-0.25-0.25c-3.4-7.1-8.1-12.47-14.1-16.1c-0.1-0.07-0.17-0.15-0.2-0.25c-0.03-0.1,0-0.2,0.1-0.3
				C533.12,365.8,533.2,365.73,533.3,365.7z"/>
			
				<radialGradient id="SVGID_12_" cx="558.3496" cy="404.0996" r="35.9125" gradientTransform="matrix(1 0 0 0.8938 0 42.8995)" gradientUnits="userSpaceOnUse">
				<stop  offset="0" style="stop-color:#FFFFFF;stop-opacity:0.498"/>
				<stop  offset="1" style="stop-color:#FBFBFB;stop-opacity:0"/>
			</radialGradient>
			<path fill-rule="evenodd" clip-rule="evenodd" fill="url(#SVGID_12_)" d="M547.05,374.7c0.07-0.07,0.17-0.07,0.3,0
				c0.1,0.03,0.18,0.1,0.25,0.2c7.93,13.1,14.17,28.55,18.7,46.35c1.07,4.23,2.03,8.63,2.9,13.2c0.03,0.07,0.02,0.15-0.05,0.25
				c-0.07,0.07-0.17,0.12-0.3,0.15c-0.1,0.03-0.2,0.02-0.3-0.05c-0.1-0.07-0.17-0.15-0.2-0.25c-0.9-4.5-1.87-8.88-2.9-13.15
				c-4.53-17.73-10.75-33.12-18.65-46.15c-0.03-0.1-0.03-0.22,0-0.35C546.83,374.8,546.92,374.73,547.05,374.7z"/>
		</g>
		
			<radialGradient id="SVGID_13_" cx="65.8989" cy="17.5747" r="22.915" gradientTransform="matrix(0.2862 0 0 1.8214 568.7003 482.4503)" gradientUnits="userSpaceOnUse">
			<stop  offset="0" style="stop-color:#FFFFFF;stop-opacity:0.3647"/>
			<stop  offset="0.4078" style="stop-color:#FFFFFF;stop-opacity:0.2706"/>
			<stop  offset="1" style="stop-color:#FFFFFF;stop-opacity:0"/>
		</radialGradient>
		<path fill-rule="evenodd" clip-rule="evenodd" fill="url(#SVGID_13_)" d="M587.56,555.3c-1.56,0-2.91-4.01-4.04-12.02
			c-1.12-7.95-1.67-17.55-1.67-28.78c0-11.23,0.56-20.85,1.67-28.87c1.13-8.01,2.47-12.02,4.04-12.02c1.57,0,2.92,4.01,4.04,12.02
			s1.67,17.64,1.67,28.87c0,11.23-0.56,20.82-1.67,28.78C590.48,551.3,589.13,555.3,587.56,555.3z"/>
		
			<radialGradient id="SVGID_14_" cx="65.9019" cy="17.5747" r="22.9135" gradientTransform="matrix(0.2182 0 0 2.4436 535.1501 477.7502)" gradientUnits="userSpaceOnUse">
			<stop  offset="0" style="stop-color:#FFFFFF;stop-opacity:0.3647"/>
			<stop  offset="0.3412" style="stop-color:#FFFFFF;stop-opacity:0.1569"/>
			<stop  offset="0.7451" style="stop-color:#FFFFFF;stop-opacity:0.0627"/>
			<stop  offset="1" style="stop-color:#FFFFFF;stop-opacity:0"/>
		</radialGradient>
		<path fill-rule="evenodd" clip-rule="evenodd" fill="url(#SVGID_14_)" d="M549.53,575.49c-1.19,0-2.22-5.38-3.08-16.13
			c-0.85-10.67-1.28-23.54-1.28-38.61c0-15.07,0.42-27.98,1.28-38.73c0.86-10.75,1.88-16.13,3.08-16.13c1.2,0,2.23,5.38,3.08,16.13
			s1.28,23.66,1.28,38.73c0,15.07-0.43,27.94-1.28,38.61C551.75,570.12,550.73,575.49,549.53,575.49z"/>
		
			<radialGradient id="SVGID_15_" cx="65.8936" cy="17.5742" r="22.918" gradientTransform="matrix(0 0.1023 -0.7419 0 582.0994 451.9003)" gradientUnits="userSpaceOnUse">
			<stop  offset="0" style="stop-color:#FFFFFF;stop-opacity:0.498"/>
			<stop  offset="0.4078" style="stop-color:#FFFFFF;stop-opacity:0.2706"/>
			<stop  offset="1" style="stop-color:#FFFFFF;stop-opacity:0"/>
		</radialGradient>
		<path fill-rule="evenodd" clip-rule="evenodd" fill="url(#SVGID_15_)" d="M552.42,458.64c0-0.56,1.63-1.04,4.9-1.44
			c3.24-0.4,7.15-0.6,11.72-0.6s8.5,0.2,11.76,0.6c3.26,0.4,4.9,0.88,4.9,1.44c0,0.56-1.63,1.04-4.9,1.44
			c-3.26,0.4-7.18,0.6-11.76,0.6s-8.48-0.2-11.72-0.6C554.05,459.68,552.42,459.2,552.42,458.64z"/>
		
			<radialGradient id="SVGID_16_" cx="65.8994" cy="17.5752" r="22.9144" gradientTransform="matrix(0.2548 0.2095 -0.3153 0.3215 535.1508 443.8)" gradientUnits="userSpaceOnUse">
			<stop  offset="0" style="stop-color:#FFFFFF;stop-opacity:0.251"/>
			<stop  offset="0.5333" style="stop-color:#FFFFFF;stop-opacity:0.0471"/>
			<stop  offset="0.7451" style="stop-color:#FFFFFF;stop-opacity:0.0275"/>
			<stop  offset="1" style="stop-color:#FFFFFF;stop-opacity:0"/>
		</radialGradient>
		<path fill-rule="evenodd" clip-rule="evenodd" fill="url(#SVGID_16_)" d="M539.33,470.46c-1.39-1.14-1.9-2.84-1.51-5.08
			c0.38-2.22,1.55-4.32,3.49-6.3s4.11-3.27,6.49-3.87c2.39-0.59,4.28-0.31,5.67,0.83c1.4,1.15,1.9,2.84,1.51,5.08
			s-1.56,4.34-3.51,6.32s-4.1,3.27-6.47,3.85C542.62,471.89,540.73,471.61,539.33,470.46z"/>
		
			<radialGradient id="SVGID_17_" cx="65.8975" cy="17.5762" r="22.9149" gradientTransform="matrix(-0.2182 0.2402 -0.3785 -0.2614 612.0494 452.7504)" gradientUnits="userSpaceOnUse">
			<stop  offset="0" style="stop-color:#FFFFFF;stop-opacity:0.251"/>
			<stop  offset="0.5333" style="stop-color:#FFFFFF;stop-opacity:0.0471"/>
			<stop  offset="0.7451" style="stop-color:#FFFFFF;stop-opacity:0.0275"/>
			<stop  offset="1" style="stop-color:#FFFFFF;stop-opacity:0"/>
		</radialGradient>
		<path fill-rule="evenodd" clip-rule="evenodd" fill="url(#SVGID_17_)" d="M582.53,458.13c1.19-1.31,3.05-1.87,5.57-1.66
			c2.5,0.21,4.92,1.11,7.26,2.72s3.91,3.46,4.72,5.55c0.81,2.09,0.62,3.8-0.58,5.11c-1.2,1.32-3.06,1.88-5.57,1.66
			c-2.52-0.21-4.94-1.13-7.28-2.74s-3.9-3.46-4.7-5.54C581.14,461.15,581.33,459.45,582.53,458.13z"/>
		<g>
			<path fill-rule="evenodd" clip-rule="evenodd" fill="#FFFFFF" d="M537.2,497.4c19.6,1.07,40.4,1.07,62.4,0v30.35
				c-20.5,2.57-41.3,2.77-62.4,0.6V497.4z"/>
		</g>
		<g>
			<path fill-rule="evenodd" clip-rule="evenodd" d="M559.65,505.25v-1.1h5.9v1.1h-2.2v5.5h-1.5v-5.5H559.65z M558.7,505.8
				l-1.45,0.1c-0.07-0.33-0.22-0.58-0.45-0.75c-0.2-0.17-0.52-0.25-0.95-0.25c-0.43,0-0.77,0.08-1,0.25
				c-0.17,0.1-0.25,0.23-0.25,0.4c0,0.17,0.08,0.3,0.25,0.4c0.2,0.17,0.65,0.32,1.35,0.45c0.73,0.17,1.28,0.33,1.65,0.5
				c0.33,0.17,0.6,0.38,0.8,0.65c0.17,0.3,0.25,0.65,0.25,1.05c0,0.4-0.1,0.77-0.3,1.1c-0.23,0.33-0.57,0.57-1,0.7
				c-0.43,0.17-0.97,0.25-1.6,0.25c-0.97,0-1.68-0.2-2.15-0.6c-0.53-0.37-0.83-0.92-0.9-1.65l1.4-0.15c0.1,0.43,0.28,0.77,0.55,1
				c0.27,0.2,0.63,0.3,1.1,0.3c0.5,0,0.85-0.1,1.05-0.3c0.27-0.17,0.4-0.38,0.4-0.65c0-0.13-0.05-0.25-0.15-0.35
				c-0.1-0.13-0.28-0.25-0.55-0.35c-0.17-0.03-0.57-0.12-1.2-0.25c-0.8-0.17-1.35-0.38-1.65-0.65c-0.47-0.37-0.7-0.82-0.7-1.35
				c0-0.33,0.1-0.65,0.3-0.95c0.23-0.3,0.55-0.52,0.95-0.65c0.4-0.17,0.88-0.25,1.45-0.25c0.93,0,1.63,0.18,2.1,0.55
				C558.47,504.72,558.7,505.2,558.7,505.8z M548.2,504.25c0.3,0.33,0.55,0.72,0.75,1.15c0.13,0.43,0.2,0.97,0.2,1.6
				c0,0.53-0.07,1-0.2,1.4c-0.2,0.43-0.47,0.8-0.8,1.1c-0.27,0.17-0.62,0.3-1.05,0.4c-0.33,0.1-0.77,0.13-1.3,0.1l-2.85-0.25v-6.6
				l2.75,0.25c0.6,0,1.07,0.05,1.4,0.15C547.53,503.72,547.9,503.95,548.2,504.25z M547.05,504.95c-0.17-0.17-0.4-0.28-0.7-0.35
				c-0.2-0.07-0.6-0.13-1.2-0.2h-0.7v4.35l1.1,0.1c0.43,0.03,0.75,0.03,0.95,0c0.2-0.03,0.4-0.12,0.6-0.25
				c0.13-0.1,0.25-0.28,0.35-0.55c0.13-0.33,0.2-0.75,0.2-1.25s-0.07-0.88-0.2-1.15C547.35,505.35,547.22,505.12,547.05,504.95z
				 M551.85,503.85v6.6l-1.5-0.05v-6.65L551.85,503.85z M551.55,515.95l1.15,4.6l1.35-4.45h1.75l1.3,4.7l1.15-4.55h1.5L558,522.8
				h-1.6l-1.5-5.05l-1.5,4.9l-1.6-0.05l-1.75-6.7L551.55,515.95z M564.25,516.3l2.95,6.65h-1.6l-0.65-1.5L562,521.4l-0.6,1.5h-1.6
				l2.85-6.6H564.25z M566.45,504.15h1.5v6.6h-1.5V504.15z M564.5,520.3l-1.05-2.45l-1,2.45H564.5z M587.25,507l-3.7,0.25v1.8
				l4.15-0.3v1.15l-5.65,0.35v-6.6l5.5-0.4v1.15l-4,0.25v1.45l3.7-0.2V507z M590.45,504.15v4.4l1.1-0.15c0.4,0,0.7-0.05,0.9-0.15
				c0.23-0.07,0.45-0.18,0.65-0.35c0.13-0.1,0.25-0.3,0.35-0.6c0.13-0.33,0.2-0.75,0.2-1.25c0-0.53-0.07-0.92-0.2-1.15
				c-0.1-0.27-0.23-0.47-0.4-0.6c-0.2-0.17-0.43-0.25-0.7-0.25c-0.2-0.03-0.6-0.03-1.2,0L590.45,504.15z M591.7,502.9
				c0.6-0.03,1.07-0.03,1.4,0c0.43,0.1,0.8,0.27,1.1,0.5c0.3,0.3,0.55,0.63,0.75,1c0.13,0.43,0.2,0.97,0.2,1.6
				c0,0.53-0.07,1-0.2,1.4c-0.2,0.5-0.47,0.92-0.8,1.25c-0.27,0.23-0.62,0.43-1.05,0.6c-0.33,0.13-0.77,0.23-1.3,0.3l-2.85,0.2v-6.6
				L591.7,502.9z M570.95,504.2v5.4l3.7-0.05v1.1l-5.2,0.1v-6.55H570.95z M567.45,517.45v-1.1l5.9-0.1v1.1l-2.2,0.05v5.5l-1.5,0.05
				v-5.5H567.45z M575.8,518.7l3.7-0.15v1.1l-3.7,0.15v1.8l4.15-0.15v1.15l-5.65,0.2v-6.6l5.5-0.25v1.15l-4,0.15V518.7z
				 M580.95,510.4l-5.2,0.2v-6.55l1.5-0.05v5.4l3.7-0.15V510.4z M586.95,516.4c0.2,0.27,0.3,0.6,0.3,1c0,0.5-0.15,0.92-0.45,1.25
				c-0.37,0.37-0.87,0.62-1.5,0.75c0.33,0.13,0.6,0.3,0.8,0.5c0.23,0.17,0.52,0.5,0.85,1l0.9,1.2l-1.75,0.15l-1.1-1.35
				c-0.4-0.5-0.67-0.82-0.8-0.95c-0.13-0.13-0.28-0.2-0.45-0.2c-0.17-0.07-0.42-0.08-0.75-0.05l-0.3,0.05v2.75l-1.45,0.1V516
				l3.15-0.25c0.77-0.07,1.33-0.05,1.7,0.05C586.43,515.87,586.72,516.07,586.95,516.4z M583.8,518.6c0.73-0.03,1.18-0.08,1.35-0.15
				c0.17-0.07,0.32-0.18,0.45-0.35c0.07-0.13,0.1-0.3,0.1-0.5c0-0.23-0.05-0.4-0.15-0.5c-0.17-0.13-0.35-0.22-0.55-0.25
				c-0.17,0-0.55,0.02-1.15,0.05l-1.15,0.1v1.7L583.8,518.6z"/>
		</g>
	</g>
</g>
</svg>
