<?xml version="1.0" encoding="utf-8"?>
<!-- Generator: Adobe Illustrator 16.0.0, SVG Export Plug-In . SVG Version: 6.00 Build 0)  -->
<!DOCTYPE svg PUBLIC "-//W3C//DTD SVG 1.1//EN" "http://www.w3.org/Graphics/SVG/1.1/DTD/svg11.dtd">
<svg version="1.1" id="Layer_1" xmlns="http://www.w3.org/2000/svg" xmlns:xlink="http://www.w3.org/1999/xlink" x="0px" y="0px"
	 width="700px" height="700px" viewBox="0 0 700 700" enable-background="new 0 0 700 700" xml:space="preserve">
<g>
	<g>
		<path fill-rule="evenodd" clip-rule="evenodd" fill="#FFFFFF" fill-opacity="0.298" d="M652.75,641.25c-12.4,2-24.68,2-36.85,0
			c-9.63-1.83-14.38-5.38-14.25-10.65v-72.95h64.5v73.3C665.55,636.08,661.08,639.52,652.75,641.25z"/>
	</g>
	<g>
		<rect x="601.7" y="556.95" fill-rule="evenodd" clip-rule="evenodd" fill="#FFFFFF" width="64.5" height="0.7"/>
	</g>
	<g>
		<g>
			<linearGradient id="SVGID_1_" gradientUnits="userSpaceOnUse" x1="609.1504" y1="584.6875" x2="660.0996" y2="584.6875">
				<stop  offset="7.843138e-003" style="stop-color:#000000;stop-opacity:0"/>
				<stop  offset="0.2863" style="stop-color:#000000;stop-opacity:0.0431"/>
				<stop  offset="0.5647" style="stop-color:#000000;stop-opacity:0.0627"/>
				<stop  offset="0.8353" style="stop-color:#000000;stop-opacity:0"/>
				<stop  offset="1" style="stop-color:#000000;stop-opacity:0"/>
			</linearGradient>
			<path fill-rule="evenodd" clip-rule="evenodd" fill="url(#SVGID_1_)" d="M660.1,639c-17.47,5.43-34.45,5.43-50.95,0V526.3h50.95
				V639z"/>
		</g>
		<g>
			<linearGradient id="SVGID_2_" gradientUnits="userSpaceOnUse" x1="631.7373" y1="583.4883" x2="637.0623" y2="583.4883">
				<stop  offset="0" style="stop-color:#FFFFFF;stop-opacity:0.1294"/>
				<stop  offset="0.5098" style="stop-color:#FFFFFF"/>
				<stop  offset="1" style="stop-color:#FFFFFF;stop-opacity:0.3922"/>
			</linearGradient>
			<path fill-rule="evenodd" clip-rule="evenodd" fill="url(#SVGID_2_)" d="M637.3,526.7v112.75c-1.9,1.1-3.8,1.1-5.7,0V526.7H637.3
				z"/>
		</g>
		<g>
			<linearGradient id="SVGID_3_" gradientUnits="userSpaceOnUse" x1="612.25" y1="521.7832" x2="654.25" y2="521.7832">
				<stop  offset="0" style="stop-color:#BAC1D1;stop-opacity:0.8431"/>
				<stop  offset="0.2078" style="stop-color:#AFB8C8;stop-opacity:0.5922"/>
				<stop  offset="0.4745" style="stop-color:#A5B0C0;stop-opacity:0.3176"/>
				<stop  offset="0.8039" style="stop-color:#B2BACA;stop-opacity:0.6275"/>
				<stop  offset="0.8784" style="stop-color:#B5BCCC;stop-opacity:0.5922"/>
				<stop  offset="1" style="stop-color:#BAC1D1;stop-opacity:0.8"/>
			</linearGradient>
			<path fill-rule="evenodd" clip-rule="evenodd" fill="url(#SVGID_3_)" d="M654.3,521.6c0,0.3-0.78,0.6-2.35,0.9
				c-5.67,0.87-11.45,1.35-17.35,1.45c-3.03,0.03-5.98,0.02-8.85-0.05c-2.7-0.13-5.15-0.32-7.35-0.55c-1.53-0.17-2.77-0.33-3.7-0.5
				c-1.63-0.3-2.45-0.67-2.45-1.1c0-0.33,0.82-0.67,2.45-1c0.93-0.17,2.17-0.33,3.7-0.5c4.13-0.43,9.1-0.65,14.9-0.65
				s10.73,0.22,14.8,0.65C652.23,520.68,654.3,521.13,654.3,521.6z"/>
		</g>
		<g>
			<linearGradient id="SVGID_4_" gradientUnits="userSpaceOnUse" x1="619.5898" y1="511.3555" x2="647.9004" y2="511.3555">
				<stop  offset="0" style="stop-color:#7E0127"/>
				<stop  offset="0.2392" style="stop-color:#98012A"/>
				<stop  offset="0.4941" style="stop-color:#A0002B"/>
				<stop  offset="0.7686" style="stop-color:#810328"/>
				<stop  offset="1" style="stop-color:#4A0218"/>
			</linearGradient>
			<path fill-rule="evenodd" clip-rule="evenodd" fill="url(#SVGID_4_)" d="M647.9,506.6v0.25v10.55c-0.2,0.73-1.2,1.15-3,1.25
				c-7.67,0.7-15.27,0.68-22.8-0.05c-1.93-0.27-2.75-0.77-2.45-1.5v-10.25v-0.05c0.13-2.1,1.65-3.18,4.55-3.25c0.1,0,0.25,0,0.45,0
				h19.1C646.15,503.62,647.53,504.63,647.9,506.6z"/>
		</g>
		<g>
			<linearGradient id="SVGID_5_" gradientUnits="userSpaceOnUse" x1="618.7559" y1="519.6748" x2="648.6058" y2="519.6748">
				<stop  offset="0" style="stop-color:#C6B3B0"/>
				<stop  offset="0.4784" style="stop-color:#DBCFCD"/>
				<stop  offset="1" style="stop-color:#A28380"/>
			</linearGradient>
			<path fill-rule="evenodd" clip-rule="evenodd" fill="url(#SVGID_5_)" d="M619.4,521.6c-0.17-0.3-0.35-0.83-0.55-1.6
				c-0.23-1-0.03-2,0.6-3c9.37,1.17,18.73,1.17,28.1,0c0.87,0.5,1.25,1.37,1.15,2.6c-0.13,1.23-0.38,1.9-0.75,2
				C638.18,522.6,628.67,522.6,619.4,521.6z"/>
		</g>
		<g>
			<linearGradient id="SVGID_6_" gradientUnits="userSpaceOnUse" x1="626.3877" y1="503.7617" x2="641.5127" y2="503.7617">
				<stop  offset="0" style="stop-color:#A1002C"/>
				<stop  offset="1" style="stop-color:#4B0117"/>
			</linearGradient>
			<path fill-rule="evenodd" clip-rule="evenodd" fill="url(#SVGID_6_)" d="M642.05,504.3c-2.23,0.17-4.93,0.25-8.1,0.25
				c-3.17,0-5.88-0.08-8.15-0.25c-2.23-0.13-3.35-0.28-3.35-0.45c0-0.03,0.28-0.12,0.85-0.25c7.1-0.83,14.2-0.83,21.3,0
				c0.53,0.13,0.8,0.22,0.8,0.25C645.4,504.02,644.28,504.17,642.05,504.3z"/>
		</g>
		<g>
			<linearGradient id="SVGID_7_" gradientUnits="userSpaceOnUse" x1="601.6973" y1="582.3252" x2="666.2002" y2="582.3252">
				<stop  offset="0" style="stop-color:#BAC1D1;stop-opacity:0.8431"/>
				<stop  offset="0.2078" style="stop-color:#AFB8C8;stop-opacity:0.5922"/>
				<stop  offset="0.4745" style="stop-color:#A5B0C0;stop-opacity:0.3176"/>
				<stop  offset="0.8039" style="stop-color:#B2BACA;stop-opacity:0.6275"/>
				<stop  offset="0.8784" style="stop-color:#B5BCCC;stop-opacity:0.5922"/>
				<stop  offset="1" style="stop-color:#BAC1D1;stop-opacity:0.8"/>
			</linearGradient>
			<path fill-rule="evenodd" clip-rule="evenodd" fill="url(#SVGID_7_)" d="M666.2,544.35v86.75c-0.6,5.13-5.07,8.57-13.4,10.3
				c-12.4,2-24.68,2-36.85,0c-9.63-1.83-14.38-5.38-14.25-10.65v-97.9c0.6-2.3,1.77-4.47,3.5-6.5c0.33-0.37,0.67-0.72,1-1.05
				c1.83-1.9,3.92-3.08,6.25-3.55c13.63,1.73,27.27,1.73,40.9,0h0.2c3.13,0.4,5.83,1.58,8.1,3.55c0.3,0.2,0.6,0.45,0.9,0.75
				c2,1.97,3.22,4.05,3.65,6.25v0.55V544.35z"/>
			
				<radialGradient id="SVGID_8_" cx="621.1504" cy="482.4502" r="29.3" gradientTransform="matrix(1 0 0 0.8622 0 66.481)" gradientUnits="userSpaceOnUse">
				<stop  offset="0" style="stop-color:#A0002B"/>
				<stop  offset="0.6" style="stop-color:#75021F"/>
				<stop  offset="0.9804" style="stop-color:#980E2F"/>
			</radialGradient>
			<path fill-rule="evenodd" clip-rule="evenodd" fill="url(#SVGID_8_)" d="M560.75,456.85c-2.63,1.43-5.08,1.3-7.35-0.4
				c4.17-6.03,8.23-11.15,12.2-15.35c30.4-32.53,54.18-11.73,71.35,62.4v0.25c-2.47,0.3-4.95,0.27-7.45-0.1v-0.15v-0.45
				c-14.97-70.6-36.27-88.2-63.9-52.8C564,452.28,562.38,454.48,560.75,456.85z"/>
		</g>
		<g>
			<path fill-rule="evenodd" clip-rule="evenodd" fill="#FF3E73" fill-opacity="0.3294" d="M640.1,505.05
				c0.03-0.07,0.07-0.1,0.1-0.1c0.07,0,0.13,0.03,0.2,0.1c0.03,0,0.05,0.03,0.05,0.1v11.6c0,0.03-0.02,0.08-0.05,0.15
				c-0.07,0-0.13,0-0.2,0c-0.03,0-0.07,0-0.1,0c-0.07-0.07-0.1-0.12-0.1-0.15v-11.6C640,505.08,640.03,505.05,640.1,505.05z
				 M644.7,505c0.07,0,0.12,0.02,0.15,0.05c0.03,0.03,0.05,0.08,0.05,0.15v11.1c0,0.07-0.02,0.12-0.05,0.15
				c-0.03,0.03-0.08,0.05-0.15,0.05s-0.12-0.02-0.15-0.05s-0.05-0.08-0.05-0.15v-11.1c0-0.07,0.02-0.12,0.05-0.15
				S644.63,505,644.7,505z M631.4,505.25c0.07,0,0.12,0.03,0.15,0.1c0.03,0.03,0.05,0.07,0.05,0.1v11.75c0,0.03-0.02,0.08-0.05,0.15
				c-0.03,0.03-0.08,0.05-0.15,0.05c-0.07,0-0.12-0.02-0.15-0.05c-0.03-0.07-0.05-0.12-0.05-0.15v-11.75c0-0.03,0.02-0.07,0.05-0.1
				C631.28,505.28,631.33,505.25,631.4,505.25z M635.9,505.3c0.03,0.03,0.05,0.07,0.05,0.1v11.7c0,0.03-0.02,0.08-0.05,0.15
				c-0.03,0-0.08,0-0.15,0s-0.12,0-0.15,0c-0.03-0.07-0.05-0.12-0.05-0.15v-11.7c0-0.03,0.02-0.07,0.05-0.1
				c0.03-0.07,0.08-0.1,0.15-0.1S635.87,505.23,635.9,505.3z M626.4,505.4c0-0.07,0.03-0.12,0.1-0.15c0.03-0.03,0.07-0.05,0.1-0.05
				c0.07,0,0.13,0.02,0.2,0.05c0.03,0.03,0.05,0.08,0.05,0.15v11.85c0,0.03-0.02,0.08-0.05,0.15c-0.07,0-0.13,0-0.2,0
				c-0.03,0-0.07,0-0.1,0c-0.07-0.07-0.1-0.12-0.1-0.15V505.4z M621.9,505.05c0-0.03,0.03-0.07,0.1-0.1
				c0.03-0.03,0.08-0.05,0.15-0.05c0.03,0,0.08,0.02,0.15,0.05c0.03,0.03,0.05,0.07,0.05,0.1v11.6c0,0.07-0.02,0.12-0.05,0.15
				c-0.07,0.03-0.12,0.05-0.15,0.05c-0.07,0-0.12-0.02-0.15-0.05c-0.07-0.03-0.1-0.08-0.1-0.15V505.05z"/>
			<path fill-rule="evenodd" clip-rule="evenodd" fill="#770021" d="M639.65,505.2c0.03,0.03,0.05,0.08,0.05,0.15v11.6
				c0,0.07-0.02,0.12-0.05,0.15c-0.03,0.03-0.08,0.05-0.15,0.05s-0.12-0.02-0.15-0.05c-0.07-0.03-0.1-0.08-0.1-0.15v-11.6
				c0-0.07,0.03-0.12,0.1-0.15c0.03-0.03,0.08-0.05,0.15-0.05S639.62,505.17,639.65,505.2z M643.8,504.7
				c0.03-0.03,0.08-0.05,0.15-0.05c0.03,0,0.08,0.02,0.15,0.05c0.03,0.03,0.05,0.08,0.05,0.15v11.7c0,0.03-0.02,0.08-0.05,0.15
				c-0.07,0.03-0.12,0.05-0.15,0.05c-0.07,0-0.12-0.02-0.15-0.05c-0.07-0.07-0.1-0.12-0.1-0.15v-11.7
				C643.7,504.78,643.73,504.73,643.8,504.7z M635.25,505.4c0.03,0,0.05,0.03,0.05,0.1v11.65c0,0.07-0.02,0.12-0.05,0.15
				s-0.08,0.05-0.15,0.05c-0.07,0-0.12-0.02-0.15-0.05s-0.05-0.08-0.05-0.15V505.5c0-0.07,0.02-0.1,0.05-0.1
				c0.03-0.07,0.08-0.1,0.15-0.1C635.17,505.3,635.22,505.33,635.25,505.4z M630.65,505.25c0.07,0,0.13,0.03,0.2,0.1
				c0.03,0.03,0.05,0.07,0.05,0.1v11.8c0,0.03-0.02,0.08-0.05,0.15c-0.07,0-0.13,0-0.2,0h-0.1c-0.07-0.07-0.1-0.12-0.1-0.15v-11.8
				c0-0.03,0.03-0.07,0.1-0.1C630.55,505.28,630.58,505.25,630.65,505.25z M621.3,504.65c0.03-0.07,0.08-0.1,0.15-0.1
				s0.12,0.03,0.15,0.1c0.03,0.03,0.05,0.07,0.05,0.1v11.4c0,0.07-0.02,0.12-0.05,0.15c-0.03,0.03-0.08,0.05-0.15,0.05
				s-0.12-0.02-0.15-0.05s-0.05-0.08-0.05-0.15v-11.4C621.25,504.72,621.27,504.68,621.3,504.65z M625.95,505.1
				c0.03,0.03,0.05,0.07,0.05,0.1v11.9c0,0.03-0.02,0.08-0.05,0.15c-0.03,0-0.08,0-0.15,0s-0.12,0-0.15,0
				c-0.03-0.07-0.05-0.12-0.05-0.15v-11.9c0-0.03,0.02-0.07,0.05-0.1c0.03-0.03,0.08-0.05,0.15-0.05S625.92,505.07,625.95,505.1z"/>
		</g>
		<g>
			<path fill-rule="evenodd" clip-rule="evenodd" fill="none" d="M630.3,503.75c2.57,0.57,5.05,0.57,7.45,0"/>
			<path fill-rule="evenodd" clip-rule="evenodd" fill="none" d="M622.45,504.2c7.03,0.7,14.33,0.7,21.9,0"/>
			<path fill-rule="evenodd" clip-rule="evenodd" fill="none" d="M620.3,516.75c8.47,1.23,17.47,1.23,27,0"/>
			<path fill-rule="evenodd" clip-rule="evenodd" fill="none" d="M619.9,517.4c10,1.1,19.35,1,28.05-0.3"/>
			<path fill-rule="evenodd" clip-rule="evenodd" fill="none" d="M619.7,521.5c10,1.07,19.32,0.95,27.95-0.35"/>
			<path fill-rule="evenodd" clip-rule="evenodd" fill="none" d="M613.4,521.95c9.23,1.1,19.57,1.28,31,0.55"/>
		</g>
		<g>
			
				<radialGradient id="SVGID_9_" cx="623.7998" cy="471.5" r="35.9125" gradientTransform="matrix(1 0 0 0.8938 0 50.0548)" gradientUnits="userSpaceOnUse">
				<stop  offset="0" style="stop-color:#FFFFFF;stop-opacity:0.498"/>
				<stop  offset="1" style="stop-color:#FBFBFB;stop-opacity:0"/>
			</radialGradient>
			<path fill-rule="evenodd" clip-rule="evenodd" fill="url(#SVGID_9_)" d="M612.25,442.65c-0.03-0.1-0.03-0.22,0-0.35
				c0.03-0.1,0.12-0.17,0.25-0.2c0.07-0.07,0.17-0.07,0.3,0c0.1,0.03,0.18,0.1,0.25,0.2c7.93,13.1,14.17,28.55,18.7,46.35
				c1.07,4.23,2.03,8.63,2.9,13.2c0.03,0.07,0.02,0.15-0.05,0.25c-0.07,0.07-0.17,0.12-0.3,0.15c-0.1,0.03-0.2,0.02-0.3-0.05
				s-0.17-0.15-0.2-0.25c-0.9-4.5-1.87-8.88-2.9-13.15C626.37,471.07,620.15,455.68,612.25,442.65z"/>
			
				<radialGradient id="SVGID_10_" cx="567.0527" cy="443.8086" r="18.8162" gradientTransform="matrix(1 0 0 0.8938 0 47.151)" gradientUnits="userSpaceOnUse">
				<stop  offset="0" style="stop-color:#FFFFFF;stop-opacity:0.5765"/>
				<stop  offset="1" style="stop-color:#FBFBFB;stop-opacity:0"/>
			</radialGradient>
			<path fill-rule="evenodd" clip-rule="evenodd" fill="url(#SVGID_10_)" d="M578.8,431.05c0.1-0.07,0.2-0.1,0.3-0.1
				c0.13,0.03,0.23,0.1,0.3,0.2c0.07,0.1,0.08,0.2,0.05,0.3c-0.03,0.1-0.08,0.18-0.15,0.25c-3.93,2.3-8.38,6.23-13.35,11.8
				c-3.3,3.63-6.8,7.97-10.5,13c-0.07,0.07-0.17,0.12-0.3,0.15c-0.1,0.03-0.2,0.02-0.3-0.05c-0.1-0.07-0.17-0.15-0.2-0.25
				c-0.03-0.1,0-0.2,0.1-0.3c3.73-5.03,7.23-9.38,10.5-13.05C570.28,437.33,574.8,433.35,578.8,431.05z"/>
			
				<radialGradient id="SVGID_11_" cx="593.4502" cy="428.25" r="5.3" gradientTransform="matrix(1 0 0 0.8939 0 45.4511)" gradientUnits="userSpaceOnUse">
				<stop  offset="0" style="stop-color:#FFFFFF;stop-opacity:0.4627"/>
				<stop  offset="1" style="stop-color:#FBFBFB;stop-opacity:0"/>
			</radialGradient>
			<path fill-rule="evenodd" clip-rule="evenodd" fill="url(#SVGID_11_)" d="M598.45,429.15c-0.13,0.07-0.25,0.08-0.35,0.05
				c-3.77-1.4-6.88-1.78-9.35-1.15c-0.1,0.03-0.22,0.02-0.35-0.05c-0.07-0.07-0.12-0.15-0.15-0.25c-0.07-0.1-0.05-0.2,0.05-0.3
				c0.03-0.07,0.12-0.12,0.25-0.15c2.6-0.7,5.9-0.32,9.9,1.15c0.1,0.03,0.17,0.1,0.2,0.2c0.07,0.1,0.08,0.2,0.05,0.3
				C598.63,429.05,598.55,429.12,598.45,429.15z"/>
			
				<radialGradient id="SVGID_12_" cx="605.2002" cy="440.0996" r="10.425" gradientTransform="matrix(1 0 0 0.8933 0 46.9651)" gradientUnits="userSpaceOnUse">
				<stop  offset="0" style="stop-color:#FFFFFF;stop-opacity:0.4314"/>
				<stop  offset="1" style="stop-color:#FBFBFB;stop-opacity:0"/>
			</radialGradient>
			<path fill-rule="evenodd" clip-rule="evenodd" fill="url(#SVGID_12_)" d="M598.4,433.6c-0.03-0.1,0-0.2,0.1-0.3
				c0.07-0.1,0.15-0.17,0.25-0.2c0.1,0,0.22,0.03,0.35,0.1c6.13,3.73,10.93,9.22,14.4,16.45c0.03,0.1,0.03,0.2,0,0.3
				c-0.03,0.07-0.12,0.13-0.25,0.2c-0.1,0.03-0.2,0.05-0.3,0.05c-0.1-0.07-0.18-0.15-0.25-0.25c-3.4-7.1-8.1-12.47-14.1-16.1
				C598.5,433.78,598.43,433.7,598.4,433.6z"/>
		</g>
		
			<radialGradient id="SVGID_13_" cx="65.8975" cy="17.5752" r="22.9154" gradientTransform="matrix(0.2862 0 0 1.8214 634.1505 549.8497)" gradientUnits="userSpaceOnUse">
			<stop  offset="0" style="stop-color:#FFFFFF;stop-opacity:0.3647"/>
			<stop  offset="0.4078" style="stop-color:#FFFFFF;stop-opacity:0.2706"/>
			<stop  offset="1" style="stop-color:#FFFFFF;stop-opacity:0"/>
		</radialGradient>
		<path fill-rule="evenodd" clip-rule="evenodd" fill="url(#SVGID_13_)" d="M653.01,622.7c-1.56,0-2.91-4.01-4.04-12.02
			c-1.12-7.95-1.67-17.54-1.67-28.78c0-11.23,0.56-20.86,1.67-28.87c1.13-8.01,2.47-12.02,4.04-12.02c1.57,0,2.92,4.01,4.04,12.02
			s1.67,17.64,1.67,28.87c0,11.23-0.56,20.82-1.67,28.78C655.93,618.7,654.58,622.7,653.01,622.7z"/>
		
			<radialGradient id="SVGID_14_" cx="65.9009" cy="17.5752" r="22.9137" gradientTransform="matrix(0.2182 0 0 2.4436 600.5994 545.1506)" gradientUnits="userSpaceOnUse">
			<stop  offset="0" style="stop-color:#FFFFFF;stop-opacity:0.3647"/>
			<stop  offset="0.3412" style="stop-color:#FFFFFF;stop-opacity:0.1569"/>
			<stop  offset="0.7451" style="stop-color:#FFFFFF;stop-opacity:0.0627"/>
			<stop  offset="1" style="stop-color:#FFFFFF;stop-opacity:0"/>
		</radialGradient>
		<path fill-rule="evenodd" clip-rule="evenodd" fill="url(#SVGID_14_)" d="M614.98,642.89c-1.19,0-2.22-5.38-3.08-16.13
			c-0.85-10.67-1.28-23.54-1.28-38.61s0.42-27.98,1.28-38.73c0.86-10.75,1.88-16.13,3.08-16.13c1.2,0,2.23,5.38,3.08,16.13
			c0.85,10.75,1.28,23.66,1.28,38.73s-0.43,27.94-1.28,38.61C617.2,637.52,616.18,642.89,614.98,642.89z"/>
		
			<radialGradient id="SVGID_15_" cx="65.8979" cy="17.5752" r="22.9152" gradientTransform="matrix(0 0.1023 -0.7419 0 647.5496 519.2997)" gradientUnits="userSpaceOnUse">
			<stop  offset="0" style="stop-color:#FFFFFF;stop-opacity:0.498"/>
			<stop  offset="0.4078" style="stop-color:#FFFFFF;stop-opacity:0.2706"/>
			<stop  offset="1" style="stop-color:#FFFFFF;stop-opacity:0"/>
		</radialGradient>
		<path fill-rule="evenodd" clip-rule="evenodd" fill="url(#SVGID_15_)" d="M617.87,526.04c0-0.56,1.63-1.04,4.9-1.44
			c3.24-0.4,7.15-0.6,11.72-0.6s8.5,0.2,11.76,0.6c3.26,0.4,4.9,0.88,4.9,1.44c0,0.56-1.63,1.04-4.9,1.44
			c-3.26,0.4-7.18,0.6-11.76,0.6s-8.48-0.2-11.72-0.6C619.5,527.08,617.87,526.6,617.87,526.04z"/>
		
			<radialGradient id="SVGID_16_" cx="65.8994" cy="17.5747" r="22.9147" gradientTransform="matrix(0.2548 0.2095 -0.3153 0.3215 600.6 511.2004)" gradientUnits="userSpaceOnUse">
			<stop  offset="0" style="stop-color:#FFFFFF;stop-opacity:0.251"/>
			<stop  offset="0.5333" style="stop-color:#FFFFFF;stop-opacity:0.0471"/>
			<stop  offset="0.7451" style="stop-color:#FFFFFF;stop-opacity:0.0275"/>
			<stop  offset="1" style="stop-color:#FFFFFF;stop-opacity:0"/>
		</radialGradient>
		<path fill-rule="evenodd" clip-rule="evenodd" fill="url(#SVGID_16_)" d="M604.78,537.86c-1.39-1.14-1.9-2.84-1.51-5.08
			c0.38-2.22,1.55-4.32,3.49-6.3s4.11-3.27,6.49-3.87c2.39-0.59,4.28-0.31,5.67,0.83c1.4,1.15,1.9,2.84,1.51,5.08
			s-1.56,4.34-3.51,6.32s-4.1,3.27-6.47,3.85C608.07,539.29,606.18,539.01,604.78,537.86z"/>
		
			<radialGradient id="SVGID_17_" cx="65.8955" cy="17.5742" r="22.917" gradientTransform="matrix(-0.2182 0.2402 -0.3785 -0.2614 677.4996 520.1508)" gradientUnits="userSpaceOnUse">
			<stop  offset="0" style="stop-color:#FFFFFF;stop-opacity:0.251"/>
			<stop  offset="0.5333" style="stop-color:#FFFFFF;stop-opacity:0.0471"/>
			<stop  offset="0.7451" style="stop-color:#FFFFFF;stop-opacity:0.0275"/>
			<stop  offset="1" style="stop-color:#FFFFFF;stop-opacity:0"/>
		</radialGradient>
		<path fill-rule="evenodd" clip-rule="evenodd" fill="url(#SVGID_17_)" d="M647.98,525.53c1.19-1.31,3.05-1.87,5.57-1.66
			c2.5,0.2,4.92,1.11,7.26,2.72c2.33,1.61,3.91,3.46,4.72,5.55c0.81,2.09,0.62,3.8-0.58,5.11c-1.2,1.32-3.06,1.88-5.57,1.66
			c-2.52-0.21-4.94-1.13-7.28-2.74c-2.33-1.61-3.9-3.46-4.7-5.53C646.59,528.55,646.78,526.85,647.98,525.53z"/>
		<g>
			<path fill-rule="evenodd" clip-rule="evenodd" fill="#FFFFFF" d="M665.05,595.15c-20.5,2.57-41.3,2.77-62.4,0.6V564.8
				c19.6,1.07,40.4,1.07,62.4,0V595.15z"/>
		</g>
		<g>
			<path fill-rule="evenodd" clip-rule="evenodd" d="M659.65,570.8c0.3,0.3,0.55,0.63,0.75,1c0.13,0.43,0.2,0.97,0.2,1.6
				c0,0.53-0.07,1-0.2,1.4c-0.2,0.5-0.47,0.92-0.8,1.25c-0.27,0.23-0.62,0.43-1.05,0.6c-0.33,0.13-0.77,0.23-1.3,0.3l-2.85,0.2v-6.6
				l2.75-0.25c0.6-0.03,1.07-0.03,1.4,0C658.98,570.4,659.35,570.57,659.65,570.8z M658.9,572.3c-0.1-0.27-0.23-0.47-0.4-0.6
				c-0.2-0.17-0.43-0.25-0.7-0.25c-0.2-0.03-0.6-0.03-1.2,0l-0.7,0.1v4.4l1.1-0.15c0.4,0,0.7-0.05,0.9-0.15
				c0.23-0.07,0.45-0.18,0.65-0.35c0.13-0.1,0.25-0.3,0.35-0.6c0.13-0.33,0.2-0.75,0.2-1.25C659.1,572.92,659.03,572.53,658.9,572.3
				z M653,571.8l-4,0.25v1.45l3.7-0.2v1.1l-3.7,0.25v1.8l4.15-0.3v1.15l-5.65,0.35v-6.6l5.5-0.4V571.8z M652.4,583.8
				c0.2,0.27,0.3,0.6,0.3,1c0,0.5-0.15,0.92-0.45,1.25c-0.37,0.37-0.87,0.62-1.5,0.75c0.33,0.13,0.6,0.3,0.8,0.5
				c0.23,0.17,0.52,0.5,0.85,1l0.9,1.2l-1.75,0.15l-1.1-1.35c-0.4-0.5-0.67-0.82-0.8-0.95c-0.13-0.13-0.28-0.2-0.45-0.2
				c-0.17-0.07-0.42-0.08-0.75-0.05l-0.3,0.05v2.75l-1.45,0.1v-6.6l3.15-0.25c0.77-0.07,1.33-0.05,1.7,0.05
				C651.88,583.27,652.17,583.47,652.4,583.8z M649.3,584.3l-1.15,0.1v1.7l1.1-0.1c0.73-0.03,1.18-0.08,1.35-0.15
				c0.17-0.07,0.32-0.18,0.45-0.35c0.07-0.13,0.1-0.3,0.1-0.5c0-0.23-0.05-0.4-0.15-0.5c-0.17-0.13-0.35-0.22-0.55-0.25
				C650.28,584.25,649.9,584.27,649.3,584.3z M624.1,574.95c0.17,0.3,0.25,0.65,0.25,1.05s-0.1,0.77-0.3,1.1
				c-0.23,0.33-0.57,0.57-1,0.7c-0.43,0.17-0.97,0.25-1.6,0.25c-0.97,0-1.68-0.2-2.15-0.6c-0.53-0.37-0.83-0.92-0.9-1.65l1.4-0.15
				c0.1,0.43,0.28,0.77,0.55,1c0.27,0.2,0.63,0.3,1.1,0.3c0.5,0,0.85-0.1,1.05-0.3c0.27-0.17,0.4-0.38,0.4-0.65
				c0-0.13-0.05-0.25-0.15-0.35c-0.1-0.13-0.28-0.25-0.55-0.35c-0.17-0.03-0.57-0.12-1.2-0.25c-0.8-0.17-1.35-0.38-1.65-0.65
				c-0.47-0.37-0.7-0.82-0.7-1.35c0-0.33,0.1-0.65,0.3-0.95c0.23-0.3,0.55-0.52,0.95-0.65c0.4-0.17,0.88-0.25,1.45-0.25
				c0.93,0,1.63,0.18,2.1,0.55s0.7,0.85,0.7,1.45l-1.45,0.1c-0.07-0.33-0.22-0.58-0.45-0.75c-0.2-0.17-0.52-0.25-0.95-0.25
				s-0.77,0.08-1,0.25c-0.17,0.1-0.25,0.23-0.25,0.4c0,0.17,0.08,0.3,0.25,0.4c0.2,0.17,0.65,0.32,1.35,0.45
				c0.73,0.17,1.28,0.33,1.65,0.5C623.63,574.47,623.9,574.68,624.1,574.95z M625.1,572.65v-1.1h5.9v1.1h-2.2v5.5h-1.5v-5.5H625.1z
				 M617.3,571.25v6.6l-1.5-0.05v-6.65L617.3,571.25z M612.9,573.05c-0.1-0.3-0.23-0.53-0.4-0.7c-0.17-0.17-0.4-0.28-0.7-0.35
				c-0.2-0.07-0.6-0.13-1.2-0.2h-0.7v4.35l1.1,0.1c0.43,0.03,0.75,0.03,0.95,0s0.4-0.12,0.6-0.25c0.13-0.1,0.25-0.28,0.35-0.55
				c0.13-0.33,0.2-0.75,0.2-1.25S613.03,573.32,612.9,573.05z M614.6,574.4c0,0.53-0.07,1-0.2,1.4c-0.2,0.43-0.47,0.8-0.8,1.1
				c-0.27,0.17-0.62,0.3-1.05,0.4c-0.33,0.1-0.77,0.13-1.3,0.1l-2.85-0.25v-6.6l2.75,0.25c0.6,0,1.07,0.05,1.4,0.15
				c0.43,0.17,0.8,0.4,1.1,0.7c0.3,0.33,0.55,0.72,0.75,1.15C614.53,573.23,614.6,573.77,614.6,574.4z M615.5,583.3l1.5,0.05
				l1.15,4.6l1.35-4.45h1.75l1.3,4.7l1.15-4.55h1.5l-1.75,6.55h-1.6l-1.5-5.05l-1.5,4.9l-1.6-0.05L615.5,583.3z M625.25,590.3
				l2.85-6.6h1.6l2.95,6.65h-1.6l-0.65-1.5l-2.95-0.05l-0.6,1.5H625.25z M642.7,571.4v5.4l3.7-0.15v1.15l-5.2,0.2v-6.55L642.7,571.4
				z M640.1,578.05l-5.2,0.1v-6.55h1.5v5.4l3.7-0.05V578.05z M631.9,578.15v-6.6h1.5v6.6H631.9z M632.9,584.85v-1.1l5.9-0.1v1.1
				l-2.2,0.05v5.5l-1.5,0.05v-5.5H632.9z M628.9,585.25l-1,2.45h2.05L628.9,585.25z M645.25,584.5l-4,0.15v1.45l3.7-0.15v1.1
				l-3.7,0.15v1.8l4.15-0.15V590l-5.65,0.2v-6.6l5.5-0.25V584.5z"/>
		</g>
	</g>
</g>
</svg>
