<?xml version="1.0" encoding="utf-8"?>
<!-- Generator: Adobe Illustrator 16.0.0, SVG Export Plug-In . SVG Version: 6.00 Build 0)  -->
<!DOCTYPE svg PUBLIC "-//W3C//DTD SVG 1.1//EN" "http://www.w3.org/Graphics/SVG/1.1/DTD/svg11.dtd">
<svg version="1.1" id="Layer_1" xmlns="http://www.w3.org/2000/svg" xmlns:xlink="http://www.w3.org/1999/xlink" x="0px" y="0px"
	 width="700px" height="700px" viewBox="0 0 700 700" enable-background="new 0 0 700 700" xml:space="preserve">
<g>
	<g>
		<path fill-rule="evenodd" clip-rule="evenodd" fill="#CCCCCC" fill-opacity="0.2" d="M366.95,316.55l-0.1,0.1
			c-0.33,0.1-0.7,1.28-1.1,3.55c-0.43,2.27-0.75,6.6-0.95,13c-0.03,1.57-0.05,3.8-0.05,6.7h-0.05c-0.2,5.3-0.38,11.55-0.55,18.75
			c-0.57,39.17-0.78,80.45-0.65,123.85c-0.1,8.83-0.58,14.38-1.45,16.65c-0.8,2.23-1.6-2.38-2.4-13.85
			c-0.23-53.67-0.13-95.72,0.3-126.15c0.2-7.33,0.43-13.75,0.7-19.25c0.27-4.97,0.58-8.93,0.95-11.9c0.67-7.2,1.48-11.4,2.45-12.6
			l1.1-1.6C366.78,313.37,367.38,314.28,366.95,316.55z M368.75,318v-0.05l0.05,0.05H368.75z"/>
	</g>
	<g>
		<path fill-rule="evenodd" clip-rule="evenodd" fill="#FFFFFF" d="M363.2,336.35c0,5.87-0.15,11.97-0.45,18.3v0.25
			c-0.27-2.8-0.28-5.9-0.05-9.3C362.9,342.4,363.07,339.32,363.2,336.35z M361.35,344.05c-0.2-1.87-0.23-4.12-0.1-6.75
			c0.27-3.87,0.67-7.5,1.2-10.9c0.43-2.47,0.77-5,1-7.6c0.13-1.17,0.32-2,0.55-2.5c-0.07,0.93-0.18,2.17-0.35,3.7
			C362.48,327.5,361.72,335.52,361.35,344.05z M364.4,328.4c-0.13-1.63-0.02-3.13,0.35-4.5c0.03,1.3-0.07,2.75-0.3,4.35L364.4,328.4
			z M360.35,363.95c-0.07,0.83-0.12,1.72-0.15,2.65c-0.23,6.13-0.4,12.23-0.5,18.3c-0.2-5.53-0.13-11.13,0.2-16.8
			c0.27-5.73,0.58-11.27,0.95-16.6C360.95,355.63,360.78,359.78,360.35,363.95z M362.3,362.8c-0.03,2.87-0.17,5.97-0.4,9.3
			c-0.17-2.87-0.05-5.97,0.35-9.3H362.3z M360,391.65c-0.23,11.33-0.43,23.07-0.6,35.2c0.07,6.27,0.15,12.58,0.25,18.95
			c-0.4-5.4-0.57-11.17-0.5-17.3c0.1-12.03,0.33-23.95,0.7-35.75C359.85,392.32,359.9,391.95,360,391.65z M362.95,375.2
			c-0.07,11.53-0.07,23.27,0,35.2c0,1.17-0.05,2.22-0.15,3.15c-0.2-11.67-0.25-23.48-0.15-35.45
			C362.68,376.87,362.78,375.9,362.95,375.2z M361.1,427.35c-0.07-5.9,0.1-11.4,0.5-16.5c-0.1,10.63-0.23,21.53-0.4,32.7
			c0,0.1-0.03,0.18-0.1,0.25C361.23,438.6,361.23,433.12,361.1,427.35z M359.65,461.75c0-4.57,0.07-8.78,0.2-12.65
			c0.07,11.5,0.08,23.27,0.05,35.3c0,0.1,0.02,0.2,0.05,0.3c-0.2-0.27-0.35-0.5-0.45-0.7c0-1.97,0.02-3.98,0.05-6.05
			C359.65,472.62,359.68,467.22,359.65,461.75z M361.7,487.65c-0.07-0.13-0.12-0.23-0.15-0.3c0.03-4.4,0-8.78-0.1-13.15
			C361.68,478.7,361.77,483.18,361.7,487.65z"/>
	</g>
</g>
</svg>
