<?xml version="1.0" encoding="utf-8"?>
<!-- Generator: Adobe Illustrator 16.0.0, SVG Export Plug-In . SVG Version: 6.00 Build 0)  -->
<!DOCTYPE svg PUBLIC "-//W3C//DTD SVG 1.1//EN" "http://www.w3.org/Graphics/SVG/1.1/DTD/svg11.dtd">
<svg version="1.1" id="Layer_1" xmlns="http://www.w3.org/2000/svg" xmlns:xlink="http://www.w3.org/1999/xlink" x="0px" y="0px"
	 width="700px" height="700px" viewBox="0 0 700 700" enable-background="new 0 0 700 700" xml:space="preserve">
<g>
	<g>
		<path fill-rule="evenodd" clip-rule="evenodd" fill="#CCCCCC" fill-opacity="0.2" d="M365.25,333.9c0.23,3.6,0.35,6.37,0.35,8.3
			c0,0.03,0,0.07,0,0.1c0.17,2.2,0.22,6.98,0.15,14.35c-0.13,7.3-0.2,17.88-0.2,31.75c0.07,14.03-0.02,45.85-0.25,95.45
			c-2.93,21.6-5.22,23.3-6.85,5.1c1.23-50.27,1.48-92.45,0.75-126.55c0.2-5.63,0.45-10.63,0.75-15c0.03-0.93,0.12-2.32,0.25-4.15
			l0.05,0.05c0.4-4.4,0.87-8.17,1.4-11.3c1.17-7.1,2.32-11.17,3.45-12.2c1.07-1.03,1.37-1.3,0.9-0.8l1.7,2.2
			c-0.73,0.8-1.35,2.13-1.85,4C365.22,326.97,365.02,329.87,365.25,333.9z"/>
	</g>
	<g>
		<path fill-rule="evenodd" clip-rule="evenodd" fill="#FFFFFF" d="M363.7,356.05c-0.13,3.13-0.2,6.33-0.2,9.6
			c-0.1,1.57-0.17,2.38-0.2,2.45c-0.07-1.67-0.12-3.35-0.15-5.05c0-0.2,0-0.4,0-0.6c-0.03-2.23,0.02-4.53,0.15-6.9
			c0.1-1.83,0.18-3.53,0.25-5.1c0.13-3.07,0.32-5.92,0.55-8.55c-0.2,3.8-0.35,7.8-0.45,12C363.68,354.63,363.7,355.35,363.7,356.05z
			 M363.05,365.9c0-0.83,0.02-1.65,0.05-2.45c0,1.3-0.03,2.62-0.1,3.95C363,366.9,363.02,366.4,363.05,365.9z M361.75,369.65
			c0.03-0.2,0.05-0.41,0.05-0.63c0,0.61,0,1.24,0,1.88C361.77,370.47,361.75,370.05,361.75,369.65z M361.95,366.05
			c-0.03,0.67-0.08,1.37-0.15,2.1c0-0.13,0-0.3,0-0.5c0-0.23,0-0.48,0-0.75C361.87,366.6,361.92,366.32,361.95,366.05z M364,362.85
			c-0.2,5.4-0.32,11.02-0.35,16.85c-0.1,5.47-0.13,10.93-0.1,16.4c-0.03,1.6-0.07,2.83-0.1,3.7c-0.23-5.7-0.28-11.5-0.15-17.4
			c0.03-2.33,0.05-4.7,0.05-7.1c0.07-3.43,0.18-6.7,0.35-9.8C363.83,363.73,363.93,362.85,364,362.85z M362.1,362.75
			c-0.03,0.53-0.08,1.42-0.15,2.65c0.13-5.47,0.42-10.62,0.85-15.45C362.6,353.58,362.37,357.85,362.1,362.75z M362.85,376.25
			c-0.03-0.2-0.03-0.4,0-0.6c-0.03-2.63,0.02-5.27,0.15-7.9c-0.03,2.53-0.05,5.02-0.05,7.45c0,0.8-0.03,1.52-0.1,2.15
			C362.82,376.95,362.82,376.58,362.85,376.25z M361.7,380.8c0,1.2-0.02,2.37-0.05,3.5c-0.03-2.53-0.02-5.08,0.05-7.65
			C361.7,378.05,361.7,379.43,361.7,380.8z M361.75,386.95c-0.07,2.9-0.13,5.83-0.2,8.8c-0.07,1.93-0.1,3.82-0.1,5.65
			c-0.03,1.17-0.03,2.3,0,3.4c-0.03-0.63-0.05-1.28-0.05-1.95c0-3.37,0.07-6.78,0.2-10.25c0.03-3.17,0.08-6.35,0.15-9.55
			C361.75,384.35,361.75,385.65,361.75,386.95z M363.2,382.2c-0.27,5.03-0.42,10.28-0.45,15.75c-0.07,5-0.12,10.05-0.15,15.15
			c-0.1,2-0.17,3.03-0.2,3.1c0-5.23,0.03-10.63,0.1-16.2c-0.03-2.4,0-4.63,0.1-6.7C362.63,389.3,362.83,385.6,363.2,382.2z
			 M361.6,417.15c-0.1-1.72-0.15-3.45-0.15-5.2c0,0.21,0.04,0.43,0.1,0.65C361.62,414.23,361.63,415.75,361.6,417.15z M361.45,433.9
			c0,1.17,0,2.33,0,3.5c0.07-0.97,0.12-1.97,0.15-3c0.1-3.53,0.23-7.07,0.4-10.6c-0.03,6.5-0.18,13.25-0.45,20.25
			c-0.07,1.63-0.13,3.27-0.2,4.9c-0.07,0.47-0.12,0.75-0.15,0.85c0-0.17,0-0.38,0-0.65c-0.07,0.73-0.1,1.52-0.1,2.35
			c-0.03,4.13-0.03,8.25,0,12.35V464c0,0.47,0,0.95,0,1.45l-0.05,6.35c0,1,0,1.97,0,2.9c0,0.07,0,0.18,0,0.35L361,475.1
			c0,4.7-0.02,9.45-0.05,14.25c-0.17,0-0.28-0.07-0.35-0.2c-0.03-1.47-0.02-2.97,0.05-4.5c0.13-3.03,0.2-6.15,0.2-9.35
			c-0.07-2.37-0.07-4.75,0-7.15c0-6.33,0.02-12.8,0.05-19.4c0-0.43,0.02-0.87,0.05-1.3c0-3.43,0.1-6.78,0.3-10.05
			C361.32,436.13,361.38,434.97,361.45,433.9z M360.5,431.2c-0.2,9.5-0.3,19.3-0.3,29.4c-0.1,0.23-0.17,0.35-0.2,0.35
			c-0.03,5.83-0.08,11.75-0.15,17.75c-0.07,1.3-0.1,2.67-0.1,4.1c0,1.17-0.07,2.32-0.2,3.45c-0.17-6.17-0.15-12.35,0.05-18.55
			c0.2-5.23,0.3-10.47,0.3-15.7c0-1.23,0.02-2.43,0.05-3.6c0-2.2,0.03-4.37,0.1-6.5C360.12,438.17,360.27,434.6,360.5,431.2z
			 M362.05,451.2c-0.17-5.6-0.13-11.17,0.1-16.7c0,5.53,0,11.13,0,16.8C362.08,451.3,362.05,451.27,362.05,451.2z M360.65,458.65
			c-0.07,7.27-0.07,14.28,0,21.05c-0.07,0-0.15-0.03-0.25-0.1c0-1.23,0.03-2.43,0.1-3.6c0.07-3.3,0.08-6.58,0.05-9.85
			C360.55,463.45,360.58,460.95,360.65,458.65z"/>
	</g>
</g>
</svg>
