<?xml version="1.0" encoding="utf-8"?>
<!-- Generator: Adobe Illustrator 16.0.0, SVG Export Plug-In . SVG Version: 6.00 Build 0)  -->
<!DOCTYPE svg PUBLIC "-//W3C//DTD SVG 1.1//EN" "http://www.w3.org/Graphics/SVG/1.1/DTD/svg11.dtd">
<svg version="1.1" id="Layer_1" xmlns="http://www.w3.org/2000/svg" xmlns:xlink="http://www.w3.org/1999/xlink" x="0px" y="0px"
	 width="700px" height="700px" viewBox="0 0 700 700" enable-background="new 0 0 700 700" xml:space="preserve">
<g>
	<g>
		<path fill-rule="evenodd" clip-rule="evenodd" fill="#FFFFFF" fill-opacity="0.298" d="M644.8,535.65v73.3
			c-0.6,5.13-5.07,8.57-13.4,10.3c-12.4,2-24.68,2-36.85,0c-9.63-1.83-14.38-5.38-14.25-10.65v-72.95H644.8z"/>
	</g>
	<g>
		<rect x="580.35" y="534.95" fill-rule="evenodd" clip-rule="evenodd" fill="#FFFFFF" width="64.5" height="0.7"/>
	</g>
	<g>
		<g>
			<linearGradient id="SVGID_1_" gradientUnits="userSpaceOnUse" x1="587.7998" y1="562.6875" x2="638.75" y2="562.6875">
				<stop  offset="7.843138e-003" style="stop-color:#000000;stop-opacity:0"/>
				<stop  offset="0.2863" style="stop-color:#000000;stop-opacity:0.0431"/>
				<stop  offset="0.5647" style="stop-color:#000000;stop-opacity:0.0627"/>
				<stop  offset="0.8353" style="stop-color:#000000;stop-opacity:0"/>
				<stop  offset="1" style="stop-color:#000000;stop-opacity:0"/>
			</linearGradient>
			<path fill-rule="evenodd" clip-rule="evenodd" fill="url(#SVGID_1_)" d="M638.75,504.3V617c-17.47,5.43-34.45,5.43-50.95,0V504.3
				H638.75z"/>
		</g>
		<g>
			<linearGradient id="SVGID_2_" gradientUnits="userSpaceOnUse" x1="610.3877" y1="561.4883" x2="615.7127" y2="561.4883">
				<stop  offset="0" style="stop-color:#FFFFFF;stop-opacity:0.1294"/>
				<stop  offset="0.5098" style="stop-color:#FFFFFF"/>
				<stop  offset="1" style="stop-color:#FFFFFF;stop-opacity:0.3922"/>
			</linearGradient>
			<path fill-rule="evenodd" clip-rule="evenodd" fill="url(#SVGID_2_)" d="M615.95,504.7v112.75c-1.9,1.1-3.8,1.1-5.7,0V504.7
				H615.95z"/>
		</g>
		<g>
			<linearGradient id="SVGID_3_" gradientUnits="userSpaceOnUse" x1="590.9004" y1="499.7832" x2="632.9004" y2="499.7832">
				<stop  offset="0" style="stop-color:#BAC1D1;stop-opacity:0.8431"/>
				<stop  offset="0.2078" style="stop-color:#AFB8C8;stop-opacity:0.5922"/>
				<stop  offset="0.4745" style="stop-color:#A5B0C0;stop-opacity:0.3176"/>
				<stop  offset="0.8039" style="stop-color:#B2BACA;stop-opacity:0.6275"/>
				<stop  offset="0.8784" style="stop-color:#B5BCCC;stop-opacity:0.5922"/>
				<stop  offset="1" style="stop-color:#BAC1D1;stop-opacity:0.8"/>
			</linearGradient>
			<path fill-rule="evenodd" clip-rule="evenodd" fill="url(#SVGID_3_)" d="M613.25,501.95c-3.03,0.03-5.98,0.02-8.85-0.05
				c-2.7-0.13-5.15-0.32-7.35-0.55c-1.53-0.17-2.77-0.33-3.7-0.5c-1.63-0.3-2.45-0.67-2.45-1.1c0-0.33,0.82-0.67,2.45-1
				c0.93-0.17,2.17-0.33,3.7-0.5c4.13-0.43,9.1-0.65,14.9-0.65s10.73,0.22,14.8,0.65c4.13,0.43,6.2,0.88,6.2,1.35
				c0,0.3-0.78,0.6-2.35,0.9C624.93,501.37,619.15,501.85,613.25,501.95z"/>
		</g>
		<g>
			<linearGradient id="SVGID_4_" gradientUnits="userSpaceOnUse" x1="598.2393" y1="489.3555" x2="626.5498" y2="489.3555">
				<stop  offset="0" style="stop-color:#7E0127"/>
				<stop  offset="0.2392" style="stop-color:#98012A"/>
				<stop  offset="0.4941" style="stop-color:#A0002B"/>
				<stop  offset="0.7686" style="stop-color:#810328"/>
				<stop  offset="1" style="stop-color:#4A0218"/>
			</linearGradient>
			<path fill-rule="evenodd" clip-rule="evenodd" fill="url(#SVGID_4_)" d="M598.3,484.8c0.13-2.1,1.65-3.18,4.55-3.25
				c0.1,0,0.25,0,0.45,0h19.1c2.4,0.07,3.78,1.08,4.15,3.05v0.25v10.55c-0.2,0.73-1.2,1.15-3,1.25c-7.67,0.7-15.27,0.68-22.8-0.05
				c-1.93-0.27-2.75-0.77-2.45-1.5v-10.25V484.8z"/>
		</g>
		<g>
			<linearGradient id="SVGID_5_" gradientUnits="userSpaceOnUse" x1="597.4053" y1="497.6748" x2="627.2552" y2="497.6748">
				<stop  offset="0" style="stop-color:#C6B3B0"/>
				<stop  offset="0.4784" style="stop-color:#DBCFCD"/>
				<stop  offset="1" style="stop-color:#A28380"/>
			</linearGradient>
			<path fill-rule="evenodd" clip-rule="evenodd" fill="url(#SVGID_5_)" d="M627.35,497.6c-0.13,1.23-0.38,1.9-0.75,2
				c-9.77,1-19.28,1-28.55,0c-0.17-0.3-0.35-0.83-0.55-1.6c-0.23-1-0.03-2,0.6-3c9.37,1.17,18.73,1.17,28.1,0
				C627.07,495.5,627.45,496.37,627.35,497.6z"/>
		</g>
		<g>
			<linearGradient id="SVGID_6_" gradientUnits="userSpaceOnUse" x1="605.0371" y1="481.7617" x2="620.1621" y2="481.7617">
				<stop  offset="0" style="stop-color:#A1002C"/>
				<stop  offset="1" style="stop-color:#4B0117"/>
			</linearGradient>
			<path fill-rule="evenodd" clip-rule="evenodd" fill="url(#SVGID_6_)" d="M601.1,481.85c0-0.03,0.28-0.12,0.85-0.25
				c7.1-0.83,14.2-0.83,21.3,0c0.53,0.13,0.8,0.22,0.8,0.25c0,0.17-1.12,0.32-3.35,0.45c-2.23,0.17-4.93,0.25-8.1,0.25
				c-3.17,0-5.88-0.08-8.15-0.25C602.22,482.17,601.1,482.02,601.1,481.85z"/>
		</g>
		<g>
			
				<radialGradient id="SVGID_7_" cx="599.7998" cy="460.4502" r="29.3" gradientTransform="matrix(1 0 0 0.8622 0 63.4494)" gradientUnits="userSpaceOnUse">
				<stop  offset="0" style="stop-color:#A0002B"/>
				<stop  offset="0.6" style="stop-color:#75021F"/>
				<stop  offset="0.9804" style="stop-color:#980E2F"/>
			</radialGradient>
			<path fill-rule="evenodd" clip-rule="evenodd" fill="url(#SVGID_7_)" d="M615.6,481.75c-2.47,0.3-4.95,0.27-7.45-0.1v-0.15v-0.45
				c-14.97-70.6-36.27-88.2-63.9-52.8c-1.6,2.03-3.22,4.23-4.85,6.6c-2.63,1.43-5.08,1.3-7.35-0.4c4.17-6.03,8.23-11.15,12.2-15.35
				c30.4-32.53,54.18-11.73,71.35,62.4V481.75z"/>
			<linearGradient id="SVGID_8_" gradientUnits="userSpaceOnUse" x1="580.3467" y1="560.3252" x2="644.8496" y2="560.3252">
				<stop  offset="0" style="stop-color:#BAC1D1;stop-opacity:0.8431"/>
				<stop  offset="0.2078" style="stop-color:#AFB8C8;stop-opacity:0.5922"/>
				<stop  offset="0.4745" style="stop-color:#A5B0C0;stop-opacity:0.3176"/>
				<stop  offset="0.8039" style="stop-color:#B2BACA;stop-opacity:0.6275"/>
				<stop  offset="0.8784" style="stop-color:#B5BCCC;stop-opacity:0.5922"/>
				<stop  offset="1" style="stop-color:#BAC1D1;stop-opacity:0.8"/>
			</linearGradient>
			<path fill-rule="evenodd" clip-rule="evenodd" fill="url(#SVGID_8_)" d="M644.85,522.35v86.75c-0.6,5.13-5.07,8.57-13.4,10.3
				c-12.4,2-24.68,2-36.85,0c-9.63-1.83-14.38-5.38-14.25-10.65v-97.9c0.6-2.3,1.77-4.47,3.5-6.5c0.33-0.37,0.67-0.72,1-1.05
				c1.83-1.9,3.92-3.08,6.25-3.55c13.63,1.73,27.27,1.73,40.9,0h0.2c3.13,0.4,5.83,1.58,8.1,3.55c0.3,0.2,0.6,0.45,0.9,0.75
				c2,1.97,3.22,4.05,3.65,6.25v0.55V522.35z"/>
		</g>
		<g>
			<path fill-rule="evenodd" clip-rule="evenodd" fill="#FF3E73" fill-opacity="0.3294" d="M605.45,483.25
				c0.03,0.03,0.05,0.08,0.05,0.15v11.85c0,0.03-0.02,0.08-0.05,0.15c-0.07,0-0.13,0-0.2,0c-0.03,0-0.07,0-0.1,0
				c-0.07-0.07-0.1-0.12-0.1-0.15V483.4c0-0.07,0.03-0.12,0.1-0.15c0.03-0.03,0.07-0.05,0.1-0.05
				C605.32,483.2,605.38,483.22,605.45,483.25z M614.25,483.3c0.03-0.07,0.08-0.1,0.15-0.1c0.07,0,0.12,0.03,0.15,0.1
				c0.03,0.03,0.05,0.07,0.05,0.1v11.7c0,0.03-0.02,0.08-0.05,0.15c-0.03,0-0.08,0-0.15,0c-0.07,0-0.12,0-0.15,0
				c-0.03-0.07-0.05-0.12-0.05-0.15v-11.7C614.2,483.37,614.22,483.33,614.25,483.3z M600.95,482.95c0.03,0.03,0.05,0.07,0.05,0.1
				v11.6c0,0.07-0.02,0.12-0.05,0.15c-0.07,0.03-0.12,0.05-0.15,0.05c-0.07,0-0.12-0.02-0.15-0.05c-0.07-0.03-0.1-0.08-0.1-0.15
				v-11.6c0-0.03,0.03-0.07,0.1-0.1c0.03-0.03,0.08-0.05,0.15-0.05C600.83,482.9,600.88,482.92,600.95,482.95z M623.5,483.05
				c0.03,0.03,0.05,0.08,0.05,0.15v11.1c0,0.07-0.02,0.12-0.05,0.15s-0.08,0.05-0.15,0.05c-0.07,0-0.12-0.02-0.15-0.05
				s-0.05-0.08-0.05-0.15v-11.1c0-0.07,0.02-0.12,0.05-0.15s0.08-0.05,0.15-0.05C623.42,483,623.47,483.02,623.5,483.05z
				 M609.85,483.45c0-0.03,0.02-0.07,0.05-0.1c0.03-0.07,0.08-0.1,0.15-0.1s0.12,0.03,0.15,0.1c0.03,0.03,0.05,0.07,0.05,0.1v11.75
				c0,0.03-0.02,0.08-0.05,0.15c-0.03,0.03-0.08,0.05-0.15,0.05s-0.12-0.02-0.15-0.05c-0.03-0.07-0.05-0.12-0.05-0.15V483.45z
				 M618.75,483.05c0.03-0.07,0.07-0.1,0.1-0.1c0.07,0,0.13,0.03,0.2,0.1c0.03,0,0.05,0.03,0.05,0.1v11.6
				c0,0.03-0.02,0.08-0.05,0.15c-0.07,0-0.13,0-0.2,0c-0.03,0-0.07,0-0.1,0c-0.07-0.07-0.1-0.12-0.1-0.15v-11.6
				C618.65,483.08,618.68,483.05,618.75,483.05z"/>
			<path fill-rule="evenodd" clip-rule="evenodd" fill="#770021" d="M600.25,482.65c0.03,0.03,0.05,0.07,0.05,0.1v11.4
				c0,0.07-0.02,0.12-0.05,0.15s-0.08,0.05-0.15,0.05c-0.07,0-0.12-0.02-0.15-0.05s-0.05-0.08-0.05-0.15v-11.4
				c0-0.03,0.02-0.07,0.05-0.1c0.03-0.07,0.08-0.1,0.15-0.1C600.17,482.55,600.22,482.58,600.25,482.65z M604.25,483.2
				c0-0.03,0.02-0.07,0.05-0.1c0.03-0.03,0.08-0.05,0.15-0.05s0.12,0.02,0.15,0.05c0.03,0.03,0.05,0.07,0.05,0.1v11.9
				c0,0.03-0.02,0.08-0.05,0.15c-0.03,0-0.08,0-0.15,0s-0.12,0-0.15,0c-0.03-0.07-0.05-0.12-0.05-0.15V483.2z M609.2,483.35
				c0-0.07,0.03-0.1,0.1-0.1s0.13,0.03,0.2,0.1c0.03,0.03,0.05,0.07,0.05,0.1v11.8c0,0.03-0.02,0.08-0.05,0.15c-0.07,0-0.13,0-0.2,0
				h-0.1c-0.07-0.07-0.1-0.12-0.1-0.15v-11.8C609.1,483.42,609.13,483.38,609.2,483.35z M613.55,483.5c0-0.07,0.02-0.1,0.05-0.1
				c0.03-0.07,0.08-0.1,0.15-0.1s0.12,0.03,0.15,0.1c0.03,0,0.05,0.03,0.05,0.1v11.65c0,0.07-0.02,0.12-0.05,0.15
				c-0.03,0.03-0.08,0.05-0.15,0.05s-0.12-0.02-0.15-0.05c-0.03-0.03-0.05-0.08-0.05-0.15V483.5z M617.9,483.35
				c0-0.07,0.03-0.12,0.1-0.15c0.03-0.03,0.08-0.05,0.15-0.05c0.07,0,0.12,0.02,0.15,0.05s0.05,0.08,0.05,0.15v11.6
				c0,0.07-0.02,0.12-0.05,0.15c-0.03,0.03-0.08,0.05-0.15,0.05c-0.07,0-0.12-0.02-0.15-0.05c-0.07-0.03-0.1-0.08-0.1-0.15V483.35z
				 M622.75,482.7c0.03,0.03,0.05,0.08,0.05,0.15v11.7c0,0.03-0.02,0.08-0.05,0.15c-0.07,0.03-0.12,0.05-0.15,0.05
				c-0.07,0-0.12-0.02-0.15-0.05c-0.07-0.07-0.1-0.12-0.1-0.15v-11.7c0-0.07,0.03-0.12,0.1-0.15c0.03-0.03,0.08-0.05,0.15-0.05
				C622.63,482.65,622.68,482.67,622.75,482.7z"/>
		</g>
		<g>
			<path fill-rule="evenodd" clip-rule="evenodd" fill="none" d="M608.95,481.75c2.57,0.57,5.05,0.57,7.45,0"/>
			<path fill-rule="evenodd" clip-rule="evenodd" fill="none" d="M601.1,482.2c7.03,0.7,14.33,0.7,21.9,0"/>
			<path fill-rule="evenodd" clip-rule="evenodd" fill="none" d="M592.05,499.95c9.23,1.1,19.57,1.28,31,0.55"/>
			<path fill-rule="evenodd" clip-rule="evenodd" fill="none" d="M598.35,499.5c10,1.07,19.32,0.95,27.95-0.35"/>
			<path fill-rule="evenodd" clip-rule="evenodd" fill="none" d="M598.55,495.4c10,1.1,19.35,1,28.05-0.3"/>
			<path fill-rule="evenodd" clip-rule="evenodd" fill="none" d="M598.95,494.75c8.47,1.23,17.47,1.23,27,0"/>
		</g>
		<g>
			
				<radialGradient id="SVGID_9_" cx="602.4502" cy="449.5" r="35.9125" gradientTransform="matrix(1 0 0 0.8938 0 47.7193)" gradientUnits="userSpaceOnUse">
				<stop  offset="0" style="stop-color:#FFFFFF;stop-opacity:0.498"/>
				<stop  offset="1" style="stop-color:#FBFBFB;stop-opacity:0"/>
			</radialGradient>
			<path fill-rule="evenodd" clip-rule="evenodd" fill="url(#SVGID_9_)" d="M591.45,420.1c0.1,0.03,0.18,0.1,0.25,0.2
				c7.93,13.1,14.17,28.55,18.7,46.35c1.07,4.23,2.03,8.63,2.9,13.2c0.03,0.07,0.02,0.15-0.05,0.25c-0.07,0.07-0.17,0.12-0.3,0.15
				c-0.1,0.03-0.2,0.02-0.3-0.05c-0.1-0.07-0.17-0.15-0.2-0.25c-0.9-4.5-1.87-8.88-2.9-13.15c-4.53-17.73-10.75-33.12-18.65-46.15
				c-0.03-0.1-0.03-0.22,0-0.35c0.03-0.1,0.12-0.17,0.25-0.2C591.22,420.03,591.32,420.03,591.45,420.1z"/>
			
				<radialGradient id="SVGID_10_" cx="572.0996" cy="406.25" r="5.3" gradientTransform="matrix(1 0 0 0.8939 0 43.1161)" gradientUnits="userSpaceOnUse">
				<stop  offset="0" style="stop-color:#FFFFFF;stop-opacity:0.4627"/>
				<stop  offset="1" style="stop-color:#FBFBFB;stop-opacity:0"/>
			</radialGradient>
			<path fill-rule="evenodd" clip-rule="evenodd" fill="url(#SVGID_10_)" d="M577.3,406.65c0.07,0.1,0.08,0.2,0.05,0.3
				c-0.07,0.1-0.15,0.17-0.25,0.2c-0.13,0.07-0.25,0.08-0.35,0.05c-3.77-1.4-6.88-1.78-9.35-1.15c-0.1,0.03-0.22,0.02-0.35-0.05
				c-0.07-0.07-0.12-0.15-0.15-0.25c-0.07-0.1-0.05-0.2,0.05-0.3c0.03-0.07,0.12-0.12,0.25-0.15c2.6-0.7,5.9-0.32,9.9,1.15
				C577.2,406.48,577.27,406.55,577.3,406.65z"/>
			
				<radialGradient id="SVGID_11_" cx="583.8496" cy="418.0996" r="10.425" gradientTransform="matrix(1 0 0 0.8933 0 44.6173)" gradientUnits="userSpaceOnUse">
				<stop  offset="0" style="stop-color:#FFFFFF;stop-opacity:0.4314"/>
				<stop  offset="1" style="stop-color:#FBFBFB;stop-opacity:0"/>
			</radialGradient>
			<path fill-rule="evenodd" clip-rule="evenodd" fill="url(#SVGID_11_)" d="M577.15,411.3c0.07-0.1,0.15-0.17,0.25-0.2
				c0.1,0,0.22,0.03,0.35,0.1c6.13,3.73,10.93,9.22,14.4,16.45c0.03,0.1,0.03,0.2,0,0.3c-0.03,0.07-0.12,0.13-0.25,0.2
				c-0.1,0.03-0.2,0.05-0.3,0.05c-0.1-0.07-0.18-0.15-0.25-0.25c-3.4-7.1-8.1-12.47-14.1-16.1c-0.1-0.07-0.17-0.15-0.2-0.25
				C577.02,411.5,577.05,411.4,577.15,411.3z"/>
			
				<radialGradient id="SVGID_12_" cx="545.7012" cy="421.8086" r="18.8176" gradientTransform="matrix(1 0 0 0.8938 0 44.8137)" gradientUnits="userSpaceOnUse">
				<stop  offset="0" style="stop-color:#FFFFFF;stop-opacity:0.5765"/>
				<stop  offset="1" style="stop-color:#FBFBFB;stop-opacity:0"/>
			</radialGradient>
			<path fill-rule="evenodd" clip-rule="evenodd" fill="url(#SVGID_12_)" d="M558.1,409.45c-0.03,0.1-0.08,0.18-0.15,0.25
				c-3.93,2.3-8.38,6.23-13.35,11.8c-3.3,3.63-6.8,7.97-10.5,13c-0.07,0.07-0.17,0.12-0.3,0.15c-0.1,0.03-0.2,0.02-0.3-0.05
				c-0.1-0.07-0.17-0.15-0.2-0.25c-0.03-0.1,0-0.2,0.1-0.3c3.73-5.03,7.23-9.38,10.5-13.05c5.03-5.67,9.55-9.65,13.55-11.95
				c0.1-0.07,0.2-0.1,0.3-0.1c0.13,0.03,0.23,0.1,0.3,0.2C558.12,409.25,558.13,409.35,558.1,409.45z"/>
		</g>
		
			<radialGradient id="SVGID_13_" cx="65.8989" cy="17.5752" r="22.9147" gradientTransform="matrix(0.2862 0 0 1.8214 612.7999 527.8497)" gradientUnits="userSpaceOnUse">
			<stop  offset="0" style="stop-color:#FFFFFF;stop-opacity:0.3647"/>
			<stop  offset="0.4078" style="stop-color:#FFFFFF;stop-opacity:0.2706"/>
			<stop  offset="1" style="stop-color:#FFFFFF;stop-opacity:0"/>
		</radialGradient>
		<path fill-rule="evenodd" clip-rule="evenodd" fill="url(#SVGID_13_)" d="M631.66,600.7c-1.56,0-2.91-4.01-4.04-12.02
			c-1.12-7.95-1.67-17.54-1.67-28.78c0-11.23,0.56-20.86,1.67-28.87c1.13-8.01,2.47-12.02,4.04-12.02c1.57,0,2.92,4.01,4.04,12.02
			s1.67,17.64,1.67,28.87c0,11.23-0.56,20.82-1.67,28.78C634.58,596.7,633.23,600.7,631.66,600.7z"/>
		
			<radialGradient id="SVGID_14_" cx="65.9014" cy="17.5747" r="22.9137" gradientTransform="matrix(0.2182 0 0 2.4436 579.2498 523.1506)" gradientUnits="userSpaceOnUse">
			<stop  offset="0" style="stop-color:#FFFFFF;stop-opacity:0.3647"/>
			<stop  offset="0.3412" style="stop-color:#FFFFFF;stop-opacity:0.1569"/>
			<stop  offset="0.7451" style="stop-color:#FFFFFF;stop-opacity:0.0627"/>
			<stop  offset="1" style="stop-color:#FFFFFF;stop-opacity:0"/>
		</radialGradient>
		<path fill-rule="evenodd" clip-rule="evenodd" fill="url(#SVGID_14_)" d="M593.63,620.89c-1.19,0-2.22-5.38-3.08-16.13
			c-0.85-10.67-1.28-23.54-1.28-38.61s0.42-27.98,1.28-38.73c0.86-10.75,1.88-16.13,3.08-16.13c1.2,0,2.23,5.38,3.08,16.13
			c0.85,10.75,1.28,23.66,1.28,38.73s-0.43,27.94-1.28,38.61C595.85,615.52,594.83,620.89,593.63,620.89z"/>
		
			<radialGradient id="SVGID_15_" cx="65.9023" cy="17.5732" r="22.9141" gradientTransform="matrix(0 0.1023 -0.7419 0 626.2 497.2997)" gradientUnits="userSpaceOnUse">
			<stop  offset="0" style="stop-color:#FFFFFF;stop-opacity:0.498"/>
			<stop  offset="0.4078" style="stop-color:#FFFFFF;stop-opacity:0.2706"/>
			<stop  offset="1" style="stop-color:#FFFFFF;stop-opacity:0"/>
		</radialGradient>
		<path fill-rule="evenodd" clip-rule="evenodd" fill="url(#SVGID_15_)" d="M596.52,504.04c0-0.56,1.63-1.04,4.9-1.44
			c3.24-0.4,7.15-0.6,11.72-0.6s8.5,0.2,11.76,0.6c3.26,0.4,4.9,0.88,4.9,1.44c0,0.56-1.63,1.04-4.9,1.44
			c-3.26,0.4-7.18,0.6-11.76,0.6s-8.48-0.2-11.72-0.6C598.16,505.08,596.52,504.6,596.52,504.04z"/>
		
			<radialGradient id="SVGID_16_" cx="65.8994" cy="17.5752" r="22.9144" gradientTransform="matrix(0.2548 0.2095 -0.3153 0.3215 579.2504 489.2004)" gradientUnits="userSpaceOnUse">
			<stop  offset="0" style="stop-color:#FFFFFF;stop-opacity:0.251"/>
			<stop  offset="0.5333" style="stop-color:#FFFFFF;stop-opacity:0.0471"/>
			<stop  offset="0.7451" style="stop-color:#FFFFFF;stop-opacity:0.0275"/>
			<stop  offset="1" style="stop-color:#FFFFFF;stop-opacity:0"/>
		</radialGradient>
		<path fill-rule="evenodd" clip-rule="evenodd" fill="url(#SVGID_16_)" d="M583.43,515.86c-1.39-1.14-1.9-2.84-1.51-5.08
			c0.38-2.22,1.55-4.32,3.49-6.3s4.11-3.27,6.49-3.87c2.39-0.59,4.28-0.31,5.67,0.83c1.4,1.15,1.9,2.84,1.51,5.08
			s-1.56,4.34-3.51,6.32s-4.1,3.27-6.47,3.85C586.72,517.29,584.83,517.01,583.43,515.86z"/>
		
			<radialGradient id="SVGID_17_" cx="65.8955" cy="17.5762" r="22.9159" gradientTransform="matrix(-0.2182 0.2402 -0.3785 -0.2614 656.15 498.1508)" gradientUnits="userSpaceOnUse">
			<stop  offset="0" style="stop-color:#FFFFFF;stop-opacity:0.251"/>
			<stop  offset="0.5333" style="stop-color:#FFFFFF;stop-opacity:0.0471"/>
			<stop  offset="0.7451" style="stop-color:#FFFFFF;stop-opacity:0.0275"/>
			<stop  offset="1" style="stop-color:#FFFFFF;stop-opacity:0"/>
		</radialGradient>
		<path fill-rule="evenodd" clip-rule="evenodd" fill="url(#SVGID_17_)" d="M626.63,503.53c1.19-1.31,3.05-1.87,5.57-1.66
			c2.5,0.2,4.92,1.11,7.26,2.72c2.33,1.61,3.91,3.46,4.72,5.55c0.81,2.09,0.62,3.8-0.58,5.11c-1.2,1.32-3.06,1.88-5.57,1.66
			c-2.52-0.21-4.94-1.13-7.28-2.74c-2.33-1.61-3.9-3.46-4.7-5.53C625.24,506.55,625.43,504.85,626.63,503.53z"/>
		<g>
			<path fill-rule="evenodd" clip-rule="evenodd" fill="#FFFFFF" d="M643.7,542.8v30.35c-20.5,2.57-41.3,2.77-62.4,0.6V542.8
				C600.9,543.87,621.7,543.87,643.7,542.8z"/>
		</g>
		<g>
			<path fill-rule="evenodd" clip-rule="evenodd" d="M603.75,549.55h5.9v1.1h-2.2v5.5h-1.5v-5.5h-2.2V549.55z M598.95,550.55
				c-0.17,0.1-0.25,0.23-0.25,0.4c0,0.17,0.08,0.3,0.25,0.4c0.2,0.17,0.65,0.32,1.35,0.45c0.73,0.17,1.28,0.33,1.65,0.5
				c0.33,0.17,0.6,0.38,0.8,0.65c0.17,0.3,0.25,0.65,0.25,1.05s-0.1,0.77-0.3,1.1c-0.23,0.33-0.57,0.57-1,0.7
				c-0.43,0.17-0.97,0.25-1.6,0.25c-0.97,0-1.68-0.2-2.15-0.6c-0.53-0.37-0.83-0.92-0.9-1.65l1.4-0.15c0.1,0.43,0.28,0.77,0.55,1
				c0.27,0.2,0.63,0.3,1.1,0.3c0.5,0,0.85-0.1,1.05-0.3c0.27-0.17,0.4-0.38,0.4-0.65c0-0.13-0.05-0.25-0.15-0.35
				c-0.1-0.13-0.28-0.25-0.55-0.35c-0.17-0.03-0.57-0.12-1.2-0.25c-0.8-0.17-1.35-0.38-1.65-0.65c-0.47-0.37-0.7-0.82-0.7-1.35
				c0-0.33,0.1-0.65,0.3-0.95c0.23-0.3,0.55-0.52,0.95-0.65c0.4-0.17,0.88-0.25,1.45-0.25c0.93,0,1.63,0.18,2.1,0.55
				c0.47,0.37,0.7,0.85,0.7,1.45l-1.45,0.1c-0.07-0.33-0.22-0.58-0.45-0.75c-0.2-0.17-0.52-0.25-0.95-0.25
				S599.18,550.38,598.95,550.55z M595.95,549.25v6.6l-1.5-0.05v-6.65L595.95,549.25z M588.55,549.8v4.35l1.1,0.1
				c0.43,0.03,0.75,0.03,0.95,0c0.2-0.03,0.4-0.12,0.6-0.25c0.13-0.1,0.25-0.28,0.35-0.55c0.13-0.33,0.2-0.75,0.2-1.25
				s-0.07-0.88-0.2-1.15c-0.1-0.3-0.23-0.53-0.4-0.7c-0.17-0.17-0.4-0.28-0.7-0.35c-0.2-0.07-0.6-0.13-1.2-0.2H588.55z
				 M592.3,549.65c0.3,0.33,0.55,0.72,0.75,1.15c0.13,0.43,0.2,0.97,0.2,1.6c0,0.53-0.07,1-0.2,1.4c-0.2,0.43-0.47,0.8-0.8,1.1
				c-0.27,0.17-0.62,0.3-1.05,0.4c-0.33,0.1-0.77,0.13-1.3,0.1l-2.85-0.25v-6.6l2.75,0.25c0.6,0,1.07,0.05,1.4,0.15
				C591.63,549.12,592,549.35,592.3,549.65z M594.15,561.3l1.5,0.05l1.15,4.6l1.35-4.45h1.75l1.3,4.7l1.15-4.55h1.5l-1.75,6.55h-1.6
				l-1.5-5.05l-1.5,4.9l-1.6-0.05L594.15,561.3z M605.5,568.3h-1.6l2.85-6.6h1.6l2.95,6.65h-1.6l-0.65-1.5l-2.95-0.05L605.5,568.3z
				 M638.25,554.05c-0.27,0.23-0.62,0.43-1.05,0.6c-0.33,0.13-0.77,0.23-1.3,0.3l-2.85,0.2v-6.6l2.75-0.25c0.6-0.03,1.07-0.03,1.4,0
				c0.43,0.1,0.8,0.27,1.1,0.5c0.3,0.3,0.55,0.63,0.75,1c0.13,0.43,0.2,0.97,0.2,1.6c0,0.53-0.07,1-0.2,1.4
				C638.85,553.3,638.58,553.72,638.25,554.05z M634.55,549.55v4.4l1.1-0.15c0.4,0,0.7-0.05,0.9-0.15c0.23-0.07,0.45-0.18,0.65-0.35
				c0.13-0.1,0.25-0.3,0.35-0.6c0.13-0.33,0.2-0.75,0.2-1.25c0-0.53-0.07-0.92-0.2-1.15c-0.1-0.27-0.23-0.47-0.4-0.6
				c-0.2-0.17-0.43-0.25-0.7-0.25c-0.2-0.03-0.6-0.03-1.2,0L634.55,549.55z M631.65,549.8l-4,0.25v1.45l3.7-0.2v1.1l-3.7,0.25v1.8
				l4.15-0.3v1.15l-5.65,0.35v-6.6l5.5-0.4V549.8z M629.65,562.5c-0.17-0.13-0.35-0.22-0.55-0.25c-0.17,0-0.55,0.02-1.15,0.05
				l-1.15,0.1v1.7l1.1-0.1c0.73-0.03,1.18-0.08,1.35-0.15c0.17-0.07,0.32-0.18,0.45-0.35c0.07-0.13,0.1-0.3,0.1-0.5
				C629.8,562.77,629.75,562.6,629.65,562.5z M630.2,561.2c0.33,0.07,0.62,0.27,0.85,0.6c0.2,0.27,0.3,0.6,0.3,1
				c0,0.5-0.15,0.92-0.45,1.25c-0.37,0.37-0.87,0.62-1.5,0.75c0.33,0.13,0.6,0.3,0.8,0.5c0.23,0.17,0.52,0.5,0.85,1l0.9,1.2
				l-1.75,0.15l-1.1-1.35c-0.4-0.5-0.67-0.82-0.8-0.95c-0.13-0.13-0.28-0.2-0.45-0.2c-0.17-0.07-0.42-0.08-0.75-0.05l-0.3,0.05v2.75
				l-1.45,0.1v-6.6l3.15-0.25C629.27,561.08,629.83,561.1,630.2,561.2z M621.35,549.4v5.4l3.7-0.15v1.15l-5.2,0.2v-6.55
				L621.35,549.4z M618.75,556.05l-5.2,0.1v-6.55h1.5v5.4l3.7-0.05V556.05z M612.05,556.15h-1.5v-6.6h1.5V556.15z M617.45,562.75
				l-2.2,0.05v5.5l-1.5,0.05v-5.5h-2.2v-1.1l5.9-0.1V562.75z M607.55,563.25l-1,2.45h2.05L607.55,563.25z M623.9,562.5l-4,0.15v1.45
				l3.7-0.15v1.1l-3.7,0.15v1.8l4.15-0.15V568l-5.65,0.2v-6.6l5.5-0.25V562.5z"/>
		</g>
	</g>
</g>
</svg>
