<?xml version="1.0" encoding="utf-8"?>
<!-- Generator: Adobe Illustrator 16.0.0, SVG Export Plug-In . SVG Version: 6.00 Build 0)  -->
<!DOCTYPE svg PUBLIC "-//W3C//DTD SVG 1.1//EN" "http://www.w3.org/Graphics/SVG/1.1/DTD/svg11.dtd">
<svg version="1.1" id="Layer_1" xmlns="http://www.w3.org/2000/svg" xmlns:xlink="http://www.w3.org/1999/xlink" x="0px" y="0px"
	 width="700px" height="700px" viewBox="0 0 700 700" enable-background="new 0 0 700 700" xml:space="preserve">
<g>
	<g>
		<path fill-rule="evenodd" clip-rule="evenodd" fill="#FFFFFF" fill-opacity="0.3294" d="M504.6,377.55v86.75
			c-0.6,5.13-5.07,8.57-13.4,10.3c-12.4,2-24.68,2-36.85,0c-9.63-1.83-14.38-5.38-14.25-10.65V369.2h64.5V377.55z"/>
	</g>
	<g>
		<rect x="440.1" y="368.5" fill-rule="evenodd" clip-rule="evenodd" fill="#FFFFFF" width="64.5" height="0.7"/>
	</g>
	<g>
		<g>
			<linearGradient id="SVGID_1_" gradientUnits="userSpaceOnUse" x1="447.5498" y1="418.2871" x2="498.5" y2="418.2871">
				<stop  offset="7.843138e-003" style="stop-color:#000000;stop-opacity:0"/>
				<stop  offset="0.2863" style="stop-color:#000000;stop-opacity:0.0431"/>
				<stop  offset="0.5647" style="stop-color:#000000;stop-opacity:0.0627"/>
				<stop  offset="0.8353" style="stop-color:#000000;stop-opacity:0"/>
				<stop  offset="1" style="stop-color:#000000;stop-opacity:0"/>
			</linearGradient>
			<path fill-rule="evenodd" clip-rule="evenodd" fill="url(#SVGID_1_)" d="M498.5,359.9v112.7c-17.47,5.43-34.45,5.43-50.95,0
				V359.9H498.5z"/>
		</g>
		<g>
			<linearGradient id="SVGID_2_" gradientUnits="userSpaceOnUse" x1="470.1377" y1="417.0879" x2="475.4627" y2="417.0879">
				<stop  offset="0" style="stop-color:#FFFFFF;stop-opacity:0.1333"/>
				<stop  offset="0.5098" style="stop-color:#FFFFFF"/>
				<stop  offset="1" style="stop-color:#FFFFFF;stop-opacity:0.3922"/>
			</linearGradient>
			<path fill-rule="evenodd" clip-rule="evenodd" fill="url(#SVGID_2_)" d="M475.7,360.3v112.75c-1.9,1.1-3.8,1.1-5.7,0V360.3H475.7
				z"/>
		</g>
		<g>
			<linearGradient id="SVGID_3_" gradientUnits="userSpaceOnUse" x1="450.6504" y1="355.3828" x2="492.6504" y2="355.3828">
				<stop  offset="0" style="stop-color:#BAC1D1;stop-opacity:0.8431"/>
				<stop  offset="0.2078" style="stop-color:#AFB8C8;stop-opacity:0.5922"/>
				<stop  offset="0.4745" style="stop-color:#A5B0C0;stop-opacity:0.3216"/>
				<stop  offset="0.8039" style="stop-color:#B2BACA;stop-opacity:0.6275"/>
				<stop  offset="0.8784" style="stop-color:#B5BCCC;stop-opacity:0.5922"/>
				<stop  offset="1" style="stop-color:#BAC1D1;stop-opacity:0.8"/>
			</linearGradient>
			<path fill-rule="evenodd" clip-rule="evenodd" fill="url(#SVGID_3_)" d="M450.65,355.35c0-0.33,0.82-0.67,2.45-1
				c0.93-0.17,2.17-0.33,3.7-0.5c4.13-0.43,9.1-0.65,14.9-0.65s10.73,0.22,14.8,0.65c4.13,0.43,6.2,0.88,6.2,1.35
				c0,0.3-0.78,0.6-2.35,0.9c-5.67,0.87-11.45,1.35-17.35,1.45c-3.03,0.03-5.98,0.02-8.85-0.05c-2.7-0.13-5.15-0.32-7.35-0.55
				c-1.53-0.17-2.77-0.33-3.7-0.5C451.47,356.15,450.65,355.78,450.65,355.35z"/>
		</g>
		<g>
			<linearGradient id="SVGID_4_" gradientUnits="userSpaceOnUse" x1="457.9893" y1="344.9561" x2="486.2998" y2="344.9561">
				<stop  offset="0" style="stop-color:#7E0127"/>
				<stop  offset="0.2392" style="stop-color:#98012A"/>
				<stop  offset="0.4941" style="stop-color:#A0002B"/>
				<stop  offset="0.7686" style="stop-color:#810328"/>
				<stop  offset="1" style="stop-color:#4A0218"/>
			</linearGradient>
			<path fill-rule="evenodd" clip-rule="evenodd" fill="url(#SVGID_4_)" d="M482.15,337.15c2.4,0.07,3.78,1.08,4.15,3.05v0.25V351
				c-0.2,0.73-1.2,1.15-3,1.25c-7.67,0.7-15.27,0.68-22.8-0.05c-1.93-0.27-2.75-0.77-2.45-1.5v-10.25v-0.05
				c0.13-2.1,1.65-3.18,4.55-3.25c0.1,0,0.25,0,0.45,0H482.15z"/>
		</g>
		<g>
			<linearGradient id="SVGID_5_" gradientUnits="userSpaceOnUse" x1="457.1553" y1="353.2754" x2="487.0053" y2="353.2754">
				<stop  offset="0" style="stop-color:#C6B3B0"/>
				<stop  offset="0.4784" style="stop-color:#DBCFCD"/>
				<stop  offset="1" style="stop-color:#A28380"/>
			</linearGradient>
			<path fill-rule="evenodd" clip-rule="evenodd" fill="url(#SVGID_5_)" d="M457.25,353.6c-0.23-1-0.03-2,0.6-3
				c9.37,1.17,18.73,1.17,28.1,0c0.87,0.5,1.25,1.37,1.15,2.6c-0.13,1.23-0.38,1.9-0.75,2c-9.77,1-19.28,1-28.55,0
				C457.63,354.9,457.45,354.37,457.25,353.6z"/>
		</g>
		<g>
			<linearGradient id="SVGID_6_" gradientUnits="userSpaceOnUse" x1="464.7871" y1="337.3623" x2="479.9121" y2="337.3623">
				<stop  offset="0" style="stop-color:#A1002C"/>
				<stop  offset="1" style="stop-color:#4B0117"/>
			</linearGradient>
			<path fill-rule="evenodd" clip-rule="evenodd" fill="url(#SVGID_6_)" d="M483.8,337.45c0,0.17-1.12,0.32-3.35,0.45
				c-2.23,0.17-4.93,0.25-8.1,0.25c-3.17,0-5.88-0.08-8.15-0.25c-2.23-0.13-3.35-0.28-3.35-0.45c0-0.03,0.28-0.12,0.85-0.25
				c7.1-0.83,14.2-0.83,21.3,0C483.53,337.33,483.8,337.42,483.8,337.45z"/>
		</g>
		<g>
			
				<radialGradient id="SVGID_7_" cx="459.5498" cy="316.0498" r="29.3" gradientTransform="matrix(1 0 0 0.8622 0 43.5512)" gradientUnits="userSpaceOnUse">
				<stop  offset="0" style="stop-color:#A0002B"/>
				<stop  offset="0.6" style="stop-color:#75021F"/>
				<stop  offset="0.9804" style="stop-color:#980E2F"/>
			</radialGradient>
			<path fill-rule="evenodd" clip-rule="evenodd" fill="url(#SVGID_7_)" d="M391.8,290.05c4.17-6.03,8.23-11.15,12.2-15.35
				c30.4-32.53,54.18-11.73,71.35,62.4v0.25c-2.47,0.3-4.95,0.27-7.45-0.1v-0.15v-0.45c-14.97-70.6-36.27-88.2-63.9-52.8
				c-1.6,2.03-3.22,4.23-4.85,6.6C396.52,291.88,394.07,291.75,391.8,290.05z"/>
			<linearGradient id="SVGID_8_" gradientUnits="userSpaceOnUse" x1="440.0967" y1="415.9248" x2="504.5996" y2="415.9248">
				<stop  offset="0" style="stop-color:#BAC1D1;stop-opacity:0.8431"/>
				<stop  offset="0.2078" style="stop-color:#AFB8C8;stop-opacity:0.5922"/>
				<stop  offset="0.4745" style="stop-color:#A5B0C0;stop-opacity:0.3216"/>
				<stop  offset="0.8039" style="stop-color:#B2BACA;stop-opacity:0.6275"/>
				<stop  offset="0.8784" style="stop-color:#B5BCCC;stop-opacity:0.5922"/>
				<stop  offset="1" style="stop-color:#BAC1D1;stop-opacity:0.8"/>
			</linearGradient>
			<path fill-rule="evenodd" clip-rule="evenodd" fill="url(#SVGID_8_)" d="M443.6,359.95c0.33-0.37,0.67-0.72,1-1.05
				c1.83-1.9,3.92-3.08,6.25-3.55c13.63,1.73,27.27,1.73,40.9,0h0.2c3.13,0.4,5.83,1.58,8.1,3.55c0.3,0.2,0.6,0.45,0.9,0.75
				c2,1.97,3.22,4.05,3.65,6.25v0.55v11.5v86.75c-0.6,5.13-5.07,8.57-13.4,10.3c-12.4,2-24.68,2-36.85,0
				c-9.63-1.83-14.38-5.38-14.25-10.65v-97.9C440.7,364.15,441.87,361.98,443.6,359.95z"/>
		</g>
		<g>
			<path fill-rule="evenodd" clip-rule="evenodd" fill="#FF3E73" fill-opacity="0.3333" d="M464.8,339c0-0.07,0.03-0.12,0.1-0.15
				c0.03-0.03,0.07-0.05,0.1-0.05c0.07,0,0.13,0.02,0.2,0.05c0.03,0.03,0.05,0.08,0.05,0.15v11.85c0,0.03-0.02,0.08-0.05,0.15
				c-0.07,0-0.13,0-0.2,0c-0.03,0-0.07,0-0.1,0c-0.07-0.07-0.1-0.12-0.1-0.15V339z M460.7,338.55c0.03,0.03,0.05,0.07,0.05,0.1v11.6
				c0,0.07-0.02,0.12-0.05,0.15c-0.07,0.03-0.12,0.05-0.15,0.05c-0.07,0-0.12-0.02-0.15-0.05c-0.07-0.03-0.1-0.08-0.1-0.15v-11.6
				c0-0.03,0.03-0.07,0.1-0.1c0.03-0.03,0.08-0.05,0.15-0.05C460.58,338.5,460.63,338.52,460.7,338.55z M474,338.9
				c0.03-0.07,0.08-0.1,0.15-0.1c0.07,0,0.12,0.03,0.15,0.1c0.03,0.03,0.05,0.07,0.05,0.1v11.7c0,0.03-0.02,0.08-0.05,0.15
				c-0.03,0-0.08,0-0.15,0c-0.07,0-0.12,0-0.15,0c-0.03-0.07-0.05-0.12-0.05-0.15V339C473.95,338.97,473.97,338.93,474,338.9z
				 M469.65,338.95c0.03-0.07,0.08-0.1,0.15-0.1s0.12,0.03,0.15,0.1c0.03,0.03,0.05,0.07,0.05,0.1v11.75c0,0.03-0.02,0.08-0.05,0.15
				c-0.03,0.03-0.08,0.05-0.15,0.05s-0.12-0.02-0.15-0.05c-0.03-0.07-0.05-0.12-0.05-0.15v-11.75
				C469.6,339.02,469.62,338.98,469.65,338.95z M478.5,338.65c0.03-0.07,0.07-0.1,0.1-0.1c0.07,0,0.13,0.03,0.2,0.1
				c0.03,0,0.05,0.03,0.05,0.1v11.6c0,0.03-0.02,0.08-0.05,0.15c-0.07,0-0.13,0-0.2,0c-0.03,0-0.07,0-0.1,0
				c-0.07-0.07-0.1-0.12-0.1-0.15v-11.6C478.4,338.68,478.43,338.65,478.5,338.65z M482.95,338.65c0.03-0.03,0.08-0.05,0.15-0.05
				c0.07,0,0.12,0.02,0.15,0.05s0.05,0.08,0.05,0.15v11.1c0,0.07-0.02,0.12-0.05,0.15c-0.03,0.03-0.08,0.05-0.15,0.05
				c-0.07,0-0.12-0.02-0.15-0.05c-0.03-0.03-0.05-0.08-0.05-0.15v-11.1C482.9,338.73,482.92,338.68,482.95,338.65z"/>
			<path fill-rule="evenodd" clip-rule="evenodd" fill="#770021" d="M459.7,338.25c0.03-0.07,0.08-0.1,0.15-0.1
				c0.07,0,0.12,0.03,0.15,0.1c0.03,0.03,0.05,0.07,0.05,0.1v11.4c0,0.07-0.02,0.12-0.05,0.15s-0.08,0.05-0.15,0.05
				c-0.07,0-0.12-0.02-0.15-0.05s-0.05-0.08-0.05-0.15v-11.4C459.65,338.32,459.67,338.28,459.7,338.25z M464.35,338.7
				c0.03,0.03,0.05,0.07,0.05,0.1v11.9c0,0.03-0.02,0.08-0.05,0.15c-0.03,0-0.08,0-0.15,0s-0.12,0-0.15,0
				c-0.03-0.07-0.05-0.12-0.05-0.15v-11.9c0-0.03,0.02-0.07,0.05-0.1c0.03-0.03,0.08-0.05,0.15-0.05S464.32,338.67,464.35,338.7z
				 M468.95,338.95c0-0.07,0.03-0.1,0.1-0.1s0.13,0.03,0.2,0.1c0.03,0.03,0.05,0.07,0.05,0.1v11.8c0,0.03-0.02,0.08-0.05,0.15
				c-0.07,0-0.13,0-0.2,0h-0.1c-0.07-0.07-0.1-0.12-0.1-0.15v-11.8C468.85,339.02,468.88,338.98,468.95,338.95z M473.65,339
				c0.03,0,0.05,0.03,0.05,0.1v11.65c0,0.07-0.02,0.12-0.05,0.15c-0.03,0.03-0.08,0.05-0.15,0.05s-0.12-0.02-0.15-0.05
				c-0.03-0.03-0.05-0.08-0.05-0.15V339.1c0-0.07,0.02-0.1,0.05-0.1c0.03-0.07,0.08-0.1,0.15-0.1S473.62,338.93,473.65,339z
				 M482.35,338.25c0.03,0,0.08,0.02,0.15,0.05c0.03,0.03,0.05,0.08,0.05,0.15v11.7c0,0.03-0.02,0.08-0.05,0.15
				c-0.07,0.03-0.12,0.05-0.15,0.05c-0.07,0-0.12-0.02-0.15-0.05c-0.07-0.07-0.1-0.12-0.1-0.15v-11.7c0-0.07,0.03-0.12,0.1-0.15
				C482.23,338.27,482.28,338.25,482.35,338.25z M477.65,338.95c0-0.07,0.03-0.12,0.1-0.15c0.03-0.03,0.08-0.05,0.15-0.05
				c0.07,0,0.12,0.02,0.15,0.05c0.03,0.03,0.05,0.08,0.05,0.15v11.6c0,0.07-0.02,0.12-0.05,0.15c-0.03,0.03-0.08,0.05-0.15,0.05
				c-0.07,0-0.12-0.02-0.15-0.05c-0.07-0.03-0.1-0.08-0.1-0.15V338.95z"/>
		</g>
		<g>
			<path fill-rule="evenodd" clip-rule="evenodd" fill="none" d="M460.85,337.8c7.03,0.7,14.33,0.7,21.9,0"/>
			<path fill-rule="evenodd" clip-rule="evenodd" fill="none" d="M468.7,337.35c2.57,0.57,5.05,0.57,7.45,0"/>
			<path fill-rule="evenodd" clip-rule="evenodd" fill="none" d="M451.8,355.55c9.23,1.1,19.57,1.28,31,0.55"/>
			<path fill-rule="evenodd" clip-rule="evenodd" fill="none" d="M458.7,350.35c8.47,1.23,17.47,1.23,27,0"/>
			<path fill-rule="evenodd" clip-rule="evenodd" fill="none" d="M458.1,355.1c10,1.07,19.32,0.95,27.95-0.35"/>
			<path fill-rule="evenodd" clip-rule="evenodd" fill="none" d="M458.3,351c10,1.1,19.35,1,28.05-0.3"/>
		</g>
		<g>
			
				<radialGradient id="SVGID_9_" cx="431.8496" cy="261.8501" r="5.3" gradientTransform="matrix(1 0 0 0.8939 0 27.7907)" gradientUnits="userSpaceOnUse">
				<stop  offset="0" style="stop-color:#FFFFFF;stop-opacity:0.4627"/>
				<stop  offset="1" style="stop-color:#FBFBFB;stop-opacity:0"/>
			</radialGradient>
			<path fill-rule="evenodd" clip-rule="evenodd" fill="url(#SVGID_9_)" d="M427.15,261.65c-0.1,0.03-0.22,0.02-0.35-0.05
				c-0.07-0.07-0.12-0.15-0.15-0.25c-0.07-0.1-0.05-0.2,0.05-0.3c0.03-0.07,0.12-0.12,0.25-0.15c2.6-0.7,5.9-0.32,9.9,1.15
				c0.1,0.03,0.17,0.1,0.2,0.2c0.07,0.1,0.08,0.2,0.05,0.3c-0.07,0.1-0.15,0.17-0.25,0.2c-0.13,0.07-0.25,0.08-0.35,0.05
				C432.73,261.4,429.62,261.02,427.15,261.65z"/>
			
				<radialGradient id="SVGID_10_" cx="443.5996" cy="273.7002" r="10.425" gradientTransform="matrix(1 0 0 0.8933 0 29.2078)" gradientUnits="userSpaceOnUse">
				<stop  offset="0" style="stop-color:#FFFFFF;stop-opacity:0.4314"/>
				<stop  offset="1" style="stop-color:#FBFBFB;stop-opacity:0"/>
			</radialGradient>
			<path fill-rule="evenodd" clip-rule="evenodd" fill="url(#SVGID_10_)" d="M437,267.45c-0.1-0.07-0.17-0.15-0.2-0.25
				c-0.03-0.1,0-0.2,0.1-0.3c0.07-0.1,0.15-0.17,0.25-0.2c0.1,0,0.22,0.03,0.35,0.1c6.13,3.73,10.93,9.22,14.4,16.45
				c0.03,0.1,0.03,0.2,0,0.3c-0.03,0.07-0.12,0.13-0.25,0.2c-0.1,0.03-0.2,0.05-0.3,0.05c-0.1-0.07-0.18-0.15-0.25-0.25
				C447.7,276.45,443,271.08,437,267.45z"/>
			
				<radialGradient id="SVGID_11_" cx="405.4512" cy="277.4082" r="18.818" gradientTransform="matrix(1 0 0 0.8938 0 29.4723)" gradientUnits="userSpaceOnUse">
				<stop  offset="0" style="stop-color:#FFFFFF;stop-opacity:0.5765"/>
				<stop  offset="1" style="stop-color:#FBFBFB;stop-opacity:0"/>
			</radialGradient>
			<path fill-rule="evenodd" clip-rule="evenodd" fill="url(#SVGID_11_)" d="M417.8,264.75c0.07,0.1,0.08,0.2,0.05,0.3
				c-0.03,0.1-0.08,0.18-0.15,0.25c-3.93,2.3-8.38,6.23-13.35,11.8c-3.3,3.63-6.8,7.97-10.5,13c-0.07,0.07-0.17,0.12-0.3,0.15
				c-0.1,0.03-0.2,0.02-0.3-0.05c-0.1-0.07-0.17-0.15-0.2-0.25c-0.03-0.1,0-0.2,0.1-0.3c3.73-5.03,7.23-9.38,10.5-13.05
				c5.03-5.67,9.55-9.65,13.55-11.95c0.1-0.07,0.2-0.1,0.3-0.1C417.63,264.58,417.73,264.65,417.8,264.75z"/>
			
				<radialGradient id="SVGID_12_" cx="462.2002" cy="305.1001" r="35.9125" gradientTransform="matrix(1 0 0 0.8938 0 32.3897)" gradientUnits="userSpaceOnUse">
				<stop  offset="0" style="stop-color:#FFFFFF;stop-opacity:0.502"/>
				<stop  offset="1" style="stop-color:#FBFBFB;stop-opacity:0"/>
			</radialGradient>
			<path fill-rule="evenodd" clip-rule="evenodd" fill="url(#SVGID_12_)" d="M450.65,275.9c0.03-0.1,0.12-0.17,0.25-0.2
				c0.07-0.07,0.17-0.07,0.3,0c0.1,0.03,0.18,0.1,0.25,0.2c7.93,13.1,14.17,28.55,18.7,46.35c1.07,4.23,2.03,8.63,2.9,13.2
				c0.03,0.07,0.02,0.15-0.05,0.25c-0.07,0.07-0.17,0.12-0.3,0.15c-0.1,0.03-0.2,0.02-0.3-0.05c-0.1-0.07-0.17-0.15-0.2-0.25
				c-0.9-4.5-1.87-8.88-2.9-13.15c-4.53-17.73-10.75-33.12-18.65-46.15C450.62,276.15,450.62,276.03,450.65,275.9z"/>
		</g>
		
			<radialGradient id="SVGID_13_" cx="65.8975" cy="17.5747" r="22.9157" gradientTransform="matrix(0.2862 0 0 1.8214 472.5499 383.4503)" gradientUnits="userSpaceOnUse">
			<stop  offset="0" style="stop-color:#FFFFFF;stop-opacity:0.3686"/>
			<stop  offset="0.4078" style="stop-color:#FFFFFF;stop-opacity:0.2706"/>
			<stop  offset="1" style="stop-color:#FFFFFF;stop-opacity:0"/>
		</radialGradient>
		<path fill-rule="evenodd" clip-rule="evenodd" fill="url(#SVGID_13_)" d="M491.41,456.3c-1.56,0-2.91-4.01-4.04-12.02
			c-1.12-7.95-1.67-17.55-1.67-28.78c0-11.23,0.56-20.85,1.67-28.87c1.13-8.01,2.47-12.02,4.04-12.02c1.57,0,2.92,4.01,4.04,12.02
			s1.67,17.64,1.67,28.87c0,11.23-0.56,20.82-1.67,28.78C494.33,452.3,492.98,456.3,491.41,456.3z"/>
		
			<radialGradient id="SVGID_14_" cx="65.9004" cy="17.5752" r="22.914" gradientTransform="matrix(0.2182 0 0 2.4436 438.9998 378.7502)" gradientUnits="userSpaceOnUse">
			<stop  offset="0" style="stop-color:#FFFFFF;stop-opacity:0.3686"/>
			<stop  offset="0.3412" style="stop-color:#FFFFFF;stop-opacity:0.1608"/>
			<stop  offset="0.7451" style="stop-color:#FFFFFF;stop-opacity:0.0627"/>
			<stop  offset="1" style="stop-color:#FFFFFF;stop-opacity:0"/>
		</radialGradient>
		<path fill-rule="evenodd" clip-rule="evenodd" fill="url(#SVGID_14_)" d="M453.38,476.49c-1.19,0-2.22-5.38-3.08-16.13
			c-0.85-10.67-1.28-23.54-1.28-38.61c0-15.07,0.42-27.98,1.28-38.73c0.86-10.75,1.88-16.13,3.08-16.13c1.2,0,2.23,5.38,3.08,16.13
			s1.28,23.66,1.28,38.73c0,15.07-0.43,27.94-1.28,38.61C455.6,471.12,454.58,476.49,453.38,476.49z"/>
		
			<radialGradient id="SVGID_15_" cx="65.8926" cy="17.5747" r="22.9182" gradientTransform="matrix(0 0.1023 -0.7419 0 485.95 352.9003)" gradientUnits="userSpaceOnUse">
			<stop  offset="0" style="stop-color:#FFFFFF;stop-opacity:0.498"/>
			<stop  offset="0.4078" style="stop-color:#FFFFFF;stop-opacity:0.2706"/>
			<stop  offset="1" style="stop-color:#FFFFFF;stop-opacity:0"/>
		</radialGradient>
		<path fill-rule="evenodd" clip-rule="evenodd" fill="url(#SVGID_15_)" d="M456.27,359.64c0-0.56,1.63-1.04,4.9-1.44
			c3.24-0.4,7.15-0.6,11.72-0.6s8.5,0.2,11.76,0.6c3.26,0.4,4.9,0.88,4.9,1.44c0,0.56-1.63,1.04-4.9,1.44
			c-3.26,0.4-7.18,0.6-11.76,0.6s-8.48-0.2-11.72-0.6C457.91,360.68,456.27,360.2,456.27,359.64z"/>
		
			<radialGradient id="SVGID_16_" cx="65.8999" cy="17.5752" r="22.9142" gradientTransform="matrix(0.2548 0.2095 -0.3153 0.3215 439.0004 344.7997)" gradientUnits="userSpaceOnUse">
			<stop  offset="0" style="stop-color:#FFFFFF;stop-opacity:0.251"/>
			<stop  offset="0.5333" style="stop-color:#FFFFFF;stop-opacity:0.0471"/>
			<stop  offset="0.7451" style="stop-color:#FFFFFF;stop-opacity:0.0275"/>
			<stop  offset="1" style="stop-color:#FFFFFF;stop-opacity:0"/>
		</radialGradient>
		<path fill-rule="evenodd" clip-rule="evenodd" fill="url(#SVGID_16_)" d="M443.18,371.46c-1.39-1.14-1.9-2.84-1.51-5.08
			c0.38-2.22,1.55-4.32,3.49-6.3s4.11-3.27,6.49-3.87c2.39-0.59,4.28-0.31,5.67,0.83c1.4,1.15,1.9,2.84,1.51,5.08
			s-1.56,4.34-3.51,6.32s-4.1,3.27-6.47,3.85C446.47,372.89,444.58,372.61,443.18,371.46z"/>
		
			<radialGradient id="SVGID_17_" cx="65.8984" cy="17.5771" r="22.9138" gradientTransform="matrix(-0.2182 0.2402 -0.3785 -0.2614 515.9 353.7504)" gradientUnits="userSpaceOnUse">
			<stop  offset="0" style="stop-color:#FFFFFF;stop-opacity:0.251"/>
			<stop  offset="0.5333" style="stop-color:#FFFFFF;stop-opacity:0.0471"/>
			<stop  offset="0.7451" style="stop-color:#FFFFFF;stop-opacity:0.0275"/>
			<stop  offset="1" style="stop-color:#FFFFFF;stop-opacity:0"/>
		</radialGradient>
		<path fill-rule="evenodd" clip-rule="evenodd" fill="url(#SVGID_17_)" d="M486.38,359.13c1.19-1.31,3.05-1.87,5.57-1.66
			c2.5,0.21,4.92,1.11,7.26,2.72s3.91,3.46,4.72,5.55c0.81,2.09,0.62,3.8-0.58,5.11c-1.2,1.32-3.06,1.88-5.57,1.66
			c-2.52-0.21-4.94-1.13-7.28-2.74c-2.33-1.61-3.9-3.46-4.7-5.54C484.99,362.15,485.18,360.45,486.38,359.13z"/>
		<g>
			<path fill-rule="evenodd" clip-rule="evenodd" fill="#FFFFFF" d="M503.45,428.75c-20.5,2.57-41.3,2.77-62.4,0.6V398.4
				c19.6,1.07,40.4,1.07,62.4,0V428.75z"/>
		</g>
		<g>
			<path fill-rule="evenodd" clip-rule="evenodd" d="M498.8,405.4c0.13,0.43,0.2,0.97,0.2,1.6c0,0.53-0.07,1-0.2,1.4
				c-0.2,0.5-0.47,0.92-0.8,1.25c-0.27,0.23-0.62,0.43-1.05,0.6c-0.33,0.13-0.77,0.23-1.3,0.3l-2.85,0.2v-6.6l2.75-0.25
				c0.6-0.03,1.07-0.03,1.4,0c0.43,0.1,0.8,0.27,1.1,0.5C498.35,404.7,498.6,405.03,498.8,405.4z M496.9,405.3
				c-0.2-0.17-0.43-0.25-0.7-0.25c-0.2-0.03-0.6-0.03-1.2,0l-0.7,0.1v4.4l1.1-0.15c0.4,0,0.7-0.05,0.9-0.15
				c0.23-0.07,0.45-0.18,0.65-0.35c0.13-0.1,0.25-0.3,0.35-0.6c0.13-0.33,0.2-0.75,0.2-1.25c0-0.53-0.07-0.92-0.2-1.15
				C497.2,405.63,497.07,405.43,496.9,405.3z M487.4,408.25v1.8l4.15-0.3v1.15l-5.65,0.35v-6.6l5.5-0.4v1.15l-4,0.25v1.45l3.7-0.2
				v1.1L487.4,408.25z M490.8,417.4c0.2,0.27,0.3,0.6,0.3,1c0,0.5-0.15,0.92-0.45,1.25c-0.37,0.37-0.87,0.62-1.5,0.75
				c0.33,0.13,0.6,0.3,0.8,0.5c0.23,0.17,0.52,0.5,0.85,1l0.9,1.2l-1.75,0.15l-1.1-1.35c-0.4-0.5-0.67-0.82-0.8-0.95
				c-0.13-0.13-0.28-0.2-0.45-0.2c-0.17-0.07-0.42-0.08-0.75-0.05l-0.3,0.05v2.75l-1.45,0.1V417l3.15-0.25
				c0.77-0.07,1.33-0.05,1.7,0.05C490.28,416.87,490.57,417.07,490.8,417.4z M487.65,419.6c0.73-0.03,1.18-0.08,1.35-0.15
				s0.32-0.18,0.45-0.35c0.07-0.13,0.1-0.3,0.1-0.5c0-0.23-0.05-0.4-0.15-0.5c-0.17-0.13-0.35-0.22-0.55-0.25
				c-0.17,0-0.55,0.02-1.15,0.05l-1.15,0.1v1.7L487.65,419.6z M481.1,405v5.4l3.7-0.15v1.15l-5.2,0.2v-6.55L481.1,405z
				 M467.2,406.25v5.5h-1.5v-5.5h-2.2v-1.1h5.9v1.1H467.2z M471.8,405.15v6.6h-1.5v-6.6H471.8z M474.8,405.2v5.4l3.7-0.05v1.1
				l-5.2,0.1v-6.55H474.8z M471.3,418.45v-1.1l5.9-0.1v1.1l-2.2,0.05v5.5l-1.5,0.05v-5.5H471.3z M468.1,417.3l2.95,6.65h-1.6
				l-0.65-1.5l-2.95-0.05l-0.6,1.5h-1.6l2.85-6.6H468.1z M479.65,419.7l3.7-0.15v1.1l-3.7,0.15v1.8l4.15-0.15v1.15l-5.65,0.2v-6.6
				l5.5-0.25v1.15l-4,0.15V419.7z M459.75,404.8c0.93,0,1.63,0.18,2.1,0.55c0.47,0.37,0.7,0.85,0.7,1.45l-1.45,0.1
				c-0.07-0.33-0.22-0.58-0.45-0.75c-0.2-0.17-0.52-0.25-0.95-0.25s-0.77,0.08-1,0.25c-0.17,0.1-0.25,0.23-0.25,0.4
				c0,0.17,0.08,0.3,0.25,0.4c0.2,0.17,0.65,0.32,1.35,0.45c0.73,0.17,1.28,0.33,1.65,0.5c0.33,0.17,0.6,0.38,0.8,0.65
				c0.17,0.3,0.25,0.65,0.25,1.05c0,0.4-0.1,0.77-0.3,1.1c-0.23,0.33-0.57,0.57-1,0.7c-0.43,0.17-0.97,0.25-1.6,0.25
				c-0.97,0-1.68-0.2-2.15-0.6c-0.53-0.37-0.83-0.92-0.9-1.65l1.4-0.15c0.1,0.43,0.28,0.77,0.55,1c0.27,0.2,0.63,0.3,1.1,0.3
				c0.5,0,0.85-0.1,1.05-0.3c0.27-0.17,0.4-0.38,0.4-0.65c0-0.13-0.05-0.25-0.15-0.35c-0.1-0.13-0.28-0.25-0.55-0.35
				c-0.17-0.03-0.57-0.12-1.2-0.25c-0.8-0.17-1.35-0.38-1.65-0.65c-0.47-0.37-0.7-0.82-0.7-1.35c0-0.33,0.1-0.65,0.3-0.95
				c0.23-0.3,0.55-0.52,0.95-0.65C458.7,404.88,459.18,404.8,459.75,404.8z M449.55,404.4c0.6,0,1.07,0.05,1.4,0.15
				c0.43,0.17,0.8,0.4,1.1,0.7c0.3,0.33,0.55,0.72,0.75,1.15c0.13,0.43,0.2,0.97,0.2,1.6c0,0.53-0.07,1-0.2,1.4
				c-0.2,0.43-0.47,0.8-0.8,1.1c-0.27,0.17-0.62,0.3-1.05,0.4c-0.33,0.1-0.77,0.13-1.3,0.1l-2.85-0.25v-6.6L449.55,404.4z
				 M448.3,405.4v4.35l1.1,0.1c0.43,0.03,0.75,0.03,0.95,0c0.2-0.03,0.4-0.12,0.6-0.25c0.13-0.1,0.25-0.28,0.35-0.55
				c0.13-0.33,0.2-0.75,0.2-1.25s-0.07-0.88-0.2-1.15c-0.1-0.3-0.23-0.53-0.4-0.7c-0.17-0.17-0.4-0.28-0.7-0.35
				c-0.2-0.07-0.6-0.13-1.2-0.2H448.3z M455.4,416.95l1.15,4.6l1.35-4.45h1.75l1.3,4.7l1.15-4.55h1.5l-1.75,6.55h-1.6l-1.5-5.05
				l-1.5,4.9l-1.6-0.05l-1.75-6.7L455.4,416.95z M454.2,404.75l1.5,0.1v6.6l-1.5-0.05V404.75z M468.35,421.3l-1.05-2.45l-1,2.45
				H468.35z"/>
		</g>
	</g>
</g>
</svg>
