<?xml version="1.0" encoding="utf-8"?>
<!-- Generator: Adobe Illustrator 16.0.0, SVG Export Plug-In . SVG Version: 6.00 Build 0)  -->
<!DOCTYPE svg PUBLIC "-//W3C//DTD SVG 1.1//EN" "http://www.w3.org/Graphics/SVG/1.1/DTD/svg11.dtd">
<svg version="1.1" id="Layer_1" xmlns="http://www.w3.org/2000/svg" xmlns:xlink="http://www.w3.org/1999/xlink" x="0px" y="0px"
	 width="700px" height="700px" viewBox="0 0 700 700" enable-background="new 0 0 700 700" xml:space="preserve">
<g>
	<g>
		<path fill-rule="evenodd" clip-rule="evenodd" fill="#FFFFFF" fill-opacity="0.3255" d="M507.25,385.5l9.05,70.9
			c0.1,5.17-3.88,9.13-11.95,11.9c-12.03,3.57-24.22,5.12-36.55,4.65c-9.8-0.57-14.97-3.47-15.5-8.7l-10.05-78.75H507.25z"/>
	</g>
	<g>
		<polygon fill-rule="evenodd" clip-rule="evenodd" fill="#FFFFFF" points="442.3,385.5 442.15,384.8 507.15,384.8 507.25,385.5 		
			"/>
	</g>
	<g>
		<g>
			<linearGradient id="SVGID_1_" gradientUnits="userSpaceOnUse" x1="453.9268" y1="417.9355" x2="504.4414" y2="411.4547">
				<stop  offset="7.843138e-003" style="stop-color:#000000;stop-opacity:0"/>
				<stop  offset="0.2863" style="stop-color:#000000;stop-opacity:0.0431"/>
				<stop  offset="0.5647" style="stop-color:#000000;stop-opacity:0.0627"/>
				<stop  offset="0.8353" style="stop-color:#000000;stop-opacity:0"/>
				<stop  offset="1" style="stop-color:#000000;stop-opacity:0"/>
			</linearGradient>
			<path fill-rule="evenodd" clip-rule="evenodd" fill="url(#SVGID_1_)" d="M497,353.55l14.35,111.75
				c-16.63,7.63-33.47,9.8-50.5,6.5L446.5,360.05L497,353.55z"/>
		</g>
		<g>
			<linearGradient id="SVGID_2_" gradientUnits="userSpaceOnUse" x1="476.1602" y1="413.8711" x2="481.435" y2="413.1951">
				<stop  offset="0" style="stop-color:#FFFFFF;stop-opacity:0.1294"/>
				<stop  offset="0.5098" style="stop-color:#FFFFFF"/>
				<stop  offset="1" style="stop-color:#FFFFFF;stop-opacity:0.3922"/>
			</linearGradient>
			<path fill-rule="evenodd" clip-rule="evenodd" fill="url(#SVGID_2_)" d="M474.45,356.85l14.35,111.8
				c-1.73,1.33-3.62,1.58-5.65,0.75L468.8,357.6L474.45,356.85z"/>
		</g>
		<g>
			<linearGradient id="SVGID_3_" gradientUnits="userSpaceOnUse" x1="449.0049" y1="355.1855" x2="490.6757" y2="349.8442">
				<stop  offset="0" style="stop-color:#BAC1D1;stop-opacity:0.8431"/>
				<stop  offset="0.2078" style="stop-color:#AFB8C8;stop-opacity:0.5922"/>
				<stop  offset="0.4745" style="stop-color:#A5B0C0;stop-opacity:0.3176"/>
				<stop  offset="0.8039" style="stop-color:#B2BACA;stop-opacity:0.6275"/>
				<stop  offset="0.8784" style="stop-color:#B5BCCC;stop-opacity:0.5922"/>
				<stop  offset="1" style="stop-color:#BAC1D1;stop-opacity:0.8"/>
			</linearGradient>
			<path fill-rule="evenodd" clip-rule="evenodd" fill="url(#SVGID_3_)" d="M462.65,355.55c-2.7,0.23-5.15,0.37-7.35,0.4
				c-1.53,0.03-2.78,0.03-3.75,0c-1.63-0.1-2.48-0.37-2.55-0.8c-0.03-0.33,0.73-0.77,2.3-1.3c0.9-0.3,2.1-0.63,3.6-1
				c4.03-0.93,8.93-1.77,14.7-2.5c5.73-0.73,10.63-1.15,14.7-1.25c4.17-0.1,6.28,0.08,6.35,0.55c0.03,0.3-0.7,0.7-2.2,1.2
				c-5.5,1.57-11.17,2.78-17,3.65C468.45,354.9,465.52,355.25,462.65,355.55z"/>
		</g>
		<g>
			<linearGradient id="SVGID_4_" gradientUnits="userSpaceOnUse" x1="454.9785" y1="343.9053" x2="483.0281" y2="340.3018">
				<stop  offset="0" style="stop-color:#7E0127"/>
				<stop  offset="0.2392" style="stop-color:#98012A"/>
				<stop  offset="0.4941" style="stop-color:#A0002B"/>
				<stop  offset="0.7686" style="stop-color:#810328"/>
				<stop  offset="1" style="stop-color:#4A0218"/>
			</linearGradient>
			<path fill-rule="evenodd" clip-rule="evenodd" fill="url(#SVGID_4_)" d="M477.9,333.1c2.4-0.27,3.9,0.57,4.5,2.5v0.25l1.35,10.45
				c-0.07,0.77-1,1.32-2.8,1.65c-7.5,1.67-15.03,2.62-22.6,2.85c-1.97-0.03-2.85-0.43-2.65-1.2l-1.3-10.15v-0.05
				c-0.13-2.13,1.25-3.42,4.15-3.85c0.1,0,0.23-0.02,0.4-0.05L477.9,333.1z"/>
		</g>
		<g>
			<linearGradient id="SVGID_5_" gradientUnits="userSpaceOnUse" x1="455.1768" y1="352.2422" x2="484.7798" y2="348.4658">
				<stop  offset="0" style="stop-color:#C6B3B0"/>
				<stop  offset="0.4784" style="stop-color:#DBCFCD"/>
				<stop  offset="1" style="stop-color:#A28380"/>
			</linearGradient>
			<path fill-rule="evenodd" clip-rule="evenodd" fill="url(#SVGID_5_)" d="M484.35,350.45c-9.53,2.23-18.97,3.45-28.3,3.65
				c-0.2-0.3-0.45-0.82-0.75-1.55c-0.33-0.93-0.27-1.95,0.2-3.05c9.47,0,18.77-1.18,27.9-3.55c0.9,0.4,1.38,1.22,1.45,2.45
				C484.88,349.63,484.72,350.32,484.35,350.45z"/>
		</g>
		<g>
			<linearGradient id="SVGID_6_" gradientUnits="userSpaceOnUse" x1="460.7422" y1="335.5547" x2="475.7362" y2="333.5834">
				<stop  offset="0" style="stop-color:#A1002C"/>
				<stop  offset="1" style="stop-color:#4B0117"/>
			</linearGradient>
			<path fill-rule="evenodd" clip-rule="evenodd" fill="url(#SVGID_6_)" d="M476.3,334.05c-2.17,0.43-4.82,0.87-7.95,1.3
				c-3.13,0.4-5.85,0.65-8.15,0.75c-2.23,0.17-3.35,0.17-3.35,0c0-0.03,0.27-0.15,0.8-0.35c6.93-1.7,13.97-2.62,21.1-2.75
				c0.57,0.07,0.85,0.12,0.85,0.15C479.6,333.32,478.5,333.62,476.3,334.05z"/>
		</g>
		<g>
			
				<radialGradient id="SVGID_7_" cx="452.7998" cy="315.0498" r="29.2878" gradientTransform="matrix(0.9919 -0.1272 0.1097 0.8553 -30.877 103.1796)" gradientUnits="userSpaceOnUse">
				<stop  offset="0" style="stop-color:#A0002B"/>
				<stop  offset="0.6" style="stop-color:#75021F"/>
				<stop  offset="0.9804" style="stop-color:#980E2F"/>
			</radialGradient>
			<path fill-rule="evenodd" clip-rule="evenodd" fill="url(#SVGID_7_)" d="M389.65,297.35c-2.4,1.77-4.83,1.95-7.3,0.55
				c3.37-6.5,6.75-12.1,10.15-16.8c26-36.13,52.22-18.53,78.65,52.8v0.25c-2.37,0.6-4.82,0.88-7.35,0.85v-0.15l-0.05-0.45
				c-23.87-68.07-47.23-82.82-70.1-44.25C392.32,292.42,390.98,294.82,389.65,297.35z"/>
			<linearGradient id="SVGID_8_" gradientUnits="userSpaceOnUse" x1="446.2295" y1="416.541" x2="510.1999" y2="408.3308">
				<stop  offset="0" style="stop-color:#BAC1D1;stop-opacity:0.8431"/>
				<stop  offset="0.2078" style="stop-color:#AFB8C8;stop-opacity:0.5922"/>
				<stop  offset="0.4745" style="stop-color:#A5B0C0;stop-opacity:0.3176"/>
				<stop  offset="0.8039" style="stop-color:#B2BACA;stop-opacity:0.6275"/>
				<stop  offset="0.8784" style="stop-color:#B5BCCC;stop-opacity:0.5922"/>
				<stop  offset="1" style="stop-color:#BAC1D1;stop-opacity:0.8"/>
			</linearGradient>
			<path fill-rule="evenodd" clip-rule="evenodd" fill="url(#SVGID_8_)" d="M442.6,360.6c0.3-0.4,0.58-0.78,0.85-1.15
				c1.57-2.13,3.48-3.58,5.75-4.35c13.73,0,27.25-1.73,40.55-5.2h0.2c3.17,0,5.98,0.83,8.45,2.5c0.33,0.17,0.67,0.37,1,0.6
				c2.23,1.7,3.7,3.6,4.4,5.7l0.1,0.55l1.45,11.4l11.05,86c0.03,5.2-3.95,9.2-11.95,12c-12.07,3.53-24.25,5.08-36.55,4.65
				c-9.8-0.6-14.97-3.5-15.5-8.7l-12.45-97.1C440.25,365.13,441.13,362.83,442.6,360.6z"/>
		</g>
		<g>
			<path fill-rule="evenodd" clip-rule="evenodd" fill="#770021" d="M464.95,336.65c0-0.03,0.03-0.07,0.1-0.1
				c-0.03-0.07-0.02-0.1,0.05-0.1c0.07,0,0.15,0.02,0.25,0.05c0.03,0.03,0.05,0.07,0.05,0.1l1.5,11.7c0,0.03-0.02,0.08-0.05,0.15
				c-0.07,0.03-0.13,0.05-0.2,0.05h-0.1c-0.07-0.07-0.1-0.12-0.1-0.15L464.95,336.65z M455.75,337.15c0-0.03,0.02-0.07,0.05-0.1
				c0.03-0.07,0.08-0.12,0.15-0.15c0.07,0,0.12,0.03,0.15,0.1c0.03,0.03,0.05,0.07,0.05,0.1l1.45,11.3c0,0.07-0.02,0.12-0.05,0.15
				c0,0.03-0.03,0.05-0.1,0.05c-0.07,0.03-0.13,0.03-0.2,0c-0.03-0.03-0.05-0.08-0.05-0.15L455.75,337.15z M460.3,336.85
				c0.07,0,0.12,0.02,0.15,0.05s0.05,0.07,0.05,0.1l1.5,11.8c0.03,0.03,0.03,0.08,0,0.15c-0.03,0-0.08,0-0.15,0
				c-0.07,0.03-0.12,0.05-0.15,0.05c-0.03-0.07-0.07-0.12-0.1-0.15l-1.5-11.8c0-0.03,0.02-0.07,0.05-0.1
				C460.18,336.92,460.23,336.88,460.3,336.85z M473.7,335.45c-0.03-0.07-0.02-0.12,0.05-0.15c0.03-0.03,0.08-0.07,0.15-0.1
				c0.07,0,0.12,0.02,0.15,0.05s0.07,0.08,0.1,0.15l1.45,11.5c0,0.07-0.02,0.12-0.05,0.15c0,0.03-0.03,0.05-0.1,0.05
				c-0.07,0.03-0.13,0.03-0.2,0s-0.1-0.08-0.1-0.15L473.7,335.45z M469.75,336c0.03,0,0.05,0.03,0.05,0.1l1.5,11.55
				c0,0.07-0.02,0.12-0.05,0.15c-0.03,0.03-0.08,0.07-0.15,0.1c-0.07,0-0.12-0.02-0.15-0.05s-0.05-0.08-0.05-0.15l-1.5-11.55
				c0-0.07,0.02-0.1,0.05-0.1c0-0.07,0.03-0.1,0.1-0.1C469.62,335.92,469.68,335.93,469.75,336z M478,334.4
				c0-0.07,0.03-0.13,0.1-0.2c0.03-0.03,0.08-0.05,0.15-0.05c0.03,0,0.08,0.02,0.15,0.05c0.03,0.03,0.05,0.08,0.05,0.15l1.5,11.6
				c0,0.03-0.02,0.08-0.05,0.15c-0.03,0.03-0.07,0.05-0.1,0.05c-0.07,0-0.13-0.02-0.2-0.05c-0.07-0.03-0.1-0.07-0.1-0.1L478,334.4z"
				/>
			<path fill-rule="evenodd" clip-rule="evenodd" fill="#FF3E73" fill-opacity="0.3294" d="M460.95,337.15
				c-0.03-0.07-0.02-0.13,0.05-0.2c0.03-0.03,0.07-0.05,0.1-0.05c0.07,0,0.13,0.02,0.2,0.05c0.03,0.03,0.07,0.08,0.1,0.15l1.5,11.75
				c0,0.03-0.02,0.08-0.05,0.15c-0.07,0-0.13,0-0.2,0c-0.03,0-0.07,0-0.1,0c-0.07-0.03-0.1-0.07-0.1-0.1L460.95,337.15z
				 M456.65,337.2c0.03-0.03,0.1-0.03,0.2,0c0.03,0.03,0.05,0.07,0.05,0.1l1.45,11.5c0.03,0.07,0.03,0.12,0,0.15
				c-0.07,0.03-0.12,0.07-0.15,0.1c-0.07,0-0.12-0.02-0.15-0.05c-0.07-0.03-0.12-0.08-0.15-0.15l-1.45-11.5
				c0-0.03,0.03-0.07,0.1-0.1C456.55,337.22,456.58,337.2,456.65,337.2z M474.8,335c0.03,0,0.05,0.03,0.05,0.1l1.5,11.5
				c0,0.03-0.02,0.08-0.05,0.15c-0.07,0-0.13,0.02-0.2,0.05c-0.03,0-0.07,0-0.1,0c-0.07-0.07-0.1-0.12-0.1-0.15l-1.5-11.5
				c0-0.07,0.03-0.1,0.1-0.1c0.03-0.07,0.07-0.1,0.1-0.1C474.67,334.92,474.73,334.93,474.8,335z M466.05,336.45
				c0.03,0.03,0.05,0.07,0.05,0.1l1.5,11.65c0,0.03-0.02,0.08-0.05,0.15c-0.03,0.03-0.08,0.05-0.15,0.05
				c-0.07,0-0.12-0.02-0.15-0.05s-0.05-0.07-0.05-0.1l-1.5-11.65c0-0.03,0.02-0.08,0.05-0.15c0-0.07,0.03-0.1,0.1-0.1
				C465.92,336.35,465.98,336.38,466.05,336.45z M470.05,335.95c0-0.03,0-0.07,0-0.1c0.03-0.07,0.08-0.1,0.15-0.1
				s0.12,0.03,0.15,0.1c0.07,0,0.1,0.02,0.1,0.05l1.45,11.6c0.03,0.03,0.03,0.1,0,0.2c-0.03,0-0.08,0-0.15,0s-0.12,0-0.15,0
				c-0.03-0.07-0.07-0.12-0.1-0.15L470.05,335.95z M478.85,334.65c0-0.07,0.02-0.12,0.05-0.15c0.03-0.07,0.08-0.1,0.15-0.1
				s0.12,0.02,0.15,0.05c0.03,0.03,0.05,0.08,0.05,0.15l1.4,11c0.03,0.07,0.03,0.12,0,0.15c-0.03,0.03-0.08,0.05-0.15,0.05
				s-0.12,0-0.15,0c-0.03-0.03-0.07-0.08-0.1-0.15L478.85,334.65z"/>
		</g>
		<g>
			<path fill-rule="evenodd" clip-rule="evenodd" fill="none" d="M456.9,336.45c7.03-0.2,14.27-1.13,21.7-2.8"/>
			<path fill-rule="evenodd" clip-rule="evenodd" fill="none" d="M464.55,335c2.67,0.23,5.13-0.08,7.4-0.95"/>
			<path fill-rule="evenodd" clip-rule="evenodd" fill="none" d="M450.15,355.2c9.3-0.07,19.57-1.2,30.8-3.4"/>
			<path fill-rule="evenodd" clip-rule="evenodd" fill="none" d="M456.35,353.95c10.07-0.2,19.3-1.5,27.7-3.9"/>
			<path fill-rule="evenodd" clip-rule="evenodd" fill="none" d="M456,349.85c10.07-0.17,19.32-1.45,27.75-3.85"/>
			<path fill-rule="evenodd" clip-rule="evenodd" fill="none" d="M456.35,349.15c8.53,0.17,17.47-0.97,26.8-3.4"/>
		</g>
		<g>
			
				<radialGradient id="SVGID_9_" cx="418.4502" cy="264.8501" r="5.2932" gradientTransform="matrix(0.9919 -0.1271 0.1138 0.8879 -26.7345 82.8708)" gradientUnits="userSpaceOnUse">
				<stop  offset="0" style="stop-color:#FFFFFF;stop-opacity:0.4627"/>
				<stop  offset="1" style="stop-color:#FBFBFB;stop-opacity:0"/>
			</radialGradient>
			<path fill-rule="evenodd" clip-rule="evenodd" fill="url(#SVGID_9_)" d="M413.8,265.25c-0.1,0.03-0.22,0.02-0.35-0.05
				c-0.1-0.03-0.17-0.1-0.2-0.2c-0.07-0.1-0.07-0.2,0-0.3c0.03-0.07,0.12-0.13,0.25-0.2c2.47-1,5.78-1.03,9.95-0.1
				c0.1,0.03,0.17,0.08,0.2,0.15c0.1,0.1,0.13,0.2,0.1,0.3c-0.07,0.13-0.13,0.22-0.2,0.25c-0.13,0.07-0.25,0.1-0.35,0.1
				C419.27,264.27,416.13,264.28,413.8,265.25z"/>
			
				<radialGradient id="SVGID_10_" cx="431.5996" cy="275.1001" r="10.4221" gradientTransform="matrix(0.9919 -0.1273 0.1138 0.8864 -27.7874 86.2125)" gradientUnits="userSpaceOnUse">
				<stop  offset="0" style="stop-color:#FFFFFF;stop-opacity:0.4314"/>
				<stop  offset="1" style="stop-color:#FBFBFB;stop-opacity:0"/>
			</radialGradient>
			<path fill-rule="evenodd" clip-rule="evenodd" fill="url(#SVGID_10_)" d="M424.1,269.2c0.07-0.1,0.15-0.18,0.25-0.25
				c0.1,0,0.22,0.02,0.35,0.05c6.53,2.93,11.98,7.78,16.35,14.55c0.03,0.07,0.05,0.15,0.05,0.25c-0.03,0.07-0.12,0.13-0.25,0.2
				c-0.1,0.07-0.2,0.1-0.3,0.1c-0.1-0.07-0.17-0.13-0.2-0.2c-4.33-6.6-9.68-11.32-16.05-14.15c-0.13-0.07-0.22-0.15-0.25-0.25
				S424.03,269.3,424.1,269.2z"/>
			
				<radialGradient id="SVGID_11_" cx="454.0498" cy="303.8501" r="35.8928" gradientTransform="matrix(0.9918 -0.1274 0.1139 0.8867 -30.9112 92.295)" gradientUnits="userSpaceOnUse">
				<stop  offset="0" style="stop-color:#FFFFFF;stop-opacity:0.498"/>
				<stop  offset="1" style="stop-color:#FBFBFB;stop-opacity:0"/>
			</radialGradient>
			<path fill-rule="evenodd" clip-rule="evenodd" fill="url(#SVGID_11_)" d="M438.9,276.4c0.03-0.1,0.12-0.18,0.25-0.25
				c0.03-0.07,0.12-0.08,0.25-0.05c0.1,0.03,0.18,0.1,0.25,0.2c9.53,11.93,17.68,26.45,24.45,43.55c1.6,4.07,3.13,8.32,4.6,12.75
				c0.03,0.07,0.02,0.15-0.05,0.25c-0.03,0.07-0.12,0.13-0.25,0.2c-0.1,0.03-0.2,0.02-0.3-0.05c-0.13-0.03-0.22-0.1-0.25-0.2
				c-1.47-4.37-3-8.6-4.6-12.7c-6.7-17-14.8-31.45-24.3-43.35C438.92,276.65,438.9,276.53,438.9,276.4z"/>
			
				<radialGradient id="SVGID_12_" cx="394.2383" cy="283.6499" r="18.8236" gradientTransform="matrix(0.9919 -0.1273 0.1138 0.8862 -29.0637 82.4898)" gradientUnits="userSpaceOnUse">
				<stop  offset="0" style="stop-color:#FFFFFF;stop-opacity:0.5765"/>
				<stop  offset="1" style="stop-color:#FBFBFB;stop-opacity:0"/>
			</radialGradient>
			<path fill-rule="evenodd" clip-rule="evenodd" fill="url(#SVGID_12_)" d="M404.85,270.1c-3.6,2.77-7.5,7.23-11.7,13.4
				c-2.83,4-5.77,8.72-8.8,14.15c-0.07,0.1-0.15,0.17-0.25,0.2c-0.1,0.03-0.22,0.03-0.35,0c-0.1-0.07-0.17-0.15-0.2-0.25
				c-0.07-0.1-0.05-0.2,0.05-0.3c3.07-5.43,6-10.18,8.8-14.25c4.23-6.27,8.18-10.78,11.85-13.55c0.1-0.07,0.2-0.12,0.3-0.15
				c0.13,0.03,0.25,0.08,0.35,0.15c0.07,0.1,0.08,0.2,0.05,0.3C404.95,269.9,404.92,270,404.85,270.1z"/>
		</g>
		
			<radialGradient id="SVGID_13_" cx="65.9009" cy="17.5752" r="22.9137" gradientTransform="matrix(0.2837 -0.0364 0.2318 1.8058 474.2997 380.2)" gradientUnits="userSpaceOnUse">
			<stop  offset="0" style="stop-color:#FFFFFF;stop-opacity:0.3647"/>
			<stop  offset="0.4078" style="stop-color:#FFFFFF;stop-opacity:0.2706"/>
			<stop  offset="1" style="stop-color:#FFFFFF;stop-opacity:0"/>
		</radialGradient>
		<path fill-rule="evenodd" clip-rule="evenodd" fill="url(#SVGID_13_)" d="M502.27,450.03c-1.55,0.2-3.39-3.6-5.53-11.4
			c-2.12-7.74-3.89-17.18-5.32-28.32s-2.1-20.75-2.01-28.83c0.1-8.09,0.92-12.23,2.47-12.43c1.56-0.2,3.4,3.6,5.53,11.4
			c2.13,7.8,3.9,17.27,5.33,28.41s2.1,20.72,2,28.74C504.65,445.69,503.83,449.83,502.27,450.03z"/>
		
			<radialGradient id="SVGID_14_" cx="65.8994" cy="17.5742" r="22.915" gradientTransform="matrix(0.2163 -0.0278 0.3109 2.4227 440.4502 379.8009)" gradientUnits="userSpaceOnUse">
			<stop  offset="0" style="stop-color:#FFFFFF;stop-opacity:0.3647"/>
			<stop  offset="0.3412" style="stop-color:#FFFFFF;stop-opacity:0.1569"/>
			<stop  offset="0.7451" style="stop-color:#FFFFFF;stop-opacity:0.0627"/>
			<stop  offset="1" style="stop-color:#FFFFFF;stop-opacity:0"/>
		</radialGradient>
		<path fill-rule="evenodd" clip-rule="evenodd" fill="url(#SVGID_14_)" d="M467.14,474.88c-1.18,0.15-2.88-5.05-5.1-15.6
			c-2.2-10.47-4.26-23.18-6.18-38.12c-1.92-14.94-3.14-27.79-3.66-38.56c-0.52-10.77-0.18-16.23,1-16.38
			c1.19-0.15,2.89,5.05,5.1,15.6c2.21,10.55,4.28,23.3,6.19,38.24c1.92,14.94,3.13,27.75,3.65,38.44
			C468.66,469.26,468.33,474.72,467.14,474.88z"/>
		
			<radialGradient id="SVGID_15_" cx="65.8975" cy="17.5742" r="22.916" gradientTransform="matrix(0.013 0.1014 -0.7356 0.0944 483.7004 348.2499)" gradientUnits="userSpaceOnUse">
			<stop  offset="0" style="stop-color:#FFFFFF;stop-opacity:0.498"/>
			<stop  offset="0.4078" style="stop-color:#FFFFFF;stop-opacity:0.2706"/>
			<stop  offset="1" style="stop-color:#FFFFFF;stop-opacity:0"/>
		</radialGradient>
		<path fill-rule="evenodd" clip-rule="evenodd" fill="url(#SVGID_15_)" d="M455.13,358.71c-0.07-0.55,1.49-1.24,4.67-2.05
			c3.16-0.81,7.01-1.5,11.55-2.08c4.54-0.58,8.45-0.88,11.74-0.9c3.29-0.02,4.97,0.25,5.04,0.81c0.07,0.56-1.49,1.24-4.67,2.05
			c-3.19,0.81-7.05,1.51-11.58,2.09c-4.54,0.58-8.44,0.88-11.7,0.9C456.89,359.54,455.21,359.27,455.13,358.71z"/>
		
			<radialGradient id="SVGID_16_" cx="65.8994" cy="17.5752" r="22.9144" gradientTransform="matrix(0.2792 0.1752 -0.2717 0.3588 436.0998 346.15)" gradientUnits="userSpaceOnUse">
			<stop  offset="0" style="stop-color:#FFFFFF;stop-opacity:0.251"/>
			<stop  offset="0.5333" style="stop-color:#FFFFFF;stop-opacity:0.0471"/>
			<stop  offset="0.7451" style="stop-color:#FFFFFF;stop-opacity:0.0275"/>
			<stop  offset="1" style="stop-color:#FFFFFF;stop-opacity:0"/>
		</radialGradient>
		<path fill-rule="evenodd" clip-rule="evenodd" fill="url(#SVGID_16_)" d="M443.63,372.05c-1.53-0.96-2.24-2.57-2.14-4.84
			c0.1-2.25,0.98-4.48,2.66-6.69c1.68-2.21,3.66-3.77,5.94-4.66c2.29-0.89,4.2-0.86,5.73,0.1c1.54,0.96,2.25,2.58,2.14,4.84
			c-0.11,2.26-1,4.5-2.67,6.71c-1.67,2.21-3.65,3.76-5.93,4.64C447.08,373.05,445.17,373.02,443.63,372.05z"/>
		
			<radialGradient id="SVGID_17_" cx="65.9014" cy="17.5752" r="22.9135" gradientTransform="matrix(-0.1857 0.2659 -0.4085 -0.211 513.4505 345.2501)" gradientUnits="userSpaceOnUse">
			<stop  offset="0" style="stop-color:#FFFFFF;stop-opacity:0.251"/>
			<stop  offset="0.5333" style="stop-color:#FFFFFF;stop-opacity:0.0471"/>
			<stop  offset="0.7451" style="stop-color:#FFFFFF;stop-opacity:0.0275"/>
			<stop  offset="1" style="stop-color:#FFFFFF;stop-opacity:0"/>
		</radialGradient>
		<path fill-rule="evenodd" clip-rule="evenodd" fill="url(#SVGID_17_)" d="M484.87,354.34c1.01-1.45,2.79-2.24,5.31-2.36
			c2.51-0.12,5.02,0.48,7.54,1.78s4.32,2.93,5.39,4.9c1.07,1.97,1.09,3.69,0.08,5.14c-1.02,1.46-2.79,2.25-5.32,2.36
			c-2.52,0.11-5.04-0.49-7.56-1.79c-2.52-1.3-4.31-2.93-5.37-4.89C483.88,357.51,483.85,355.8,484.87,354.34z"/>
		<g>
			<path fill-rule="evenodd" clip-rule="evenodd" fill="#FFFFFF" d="M444.95,399.05c19.57-1.43,40.2-4.08,61.9-7.95l3.85,30.1
				c-20,5.17-40.6,8.02-61.8,8.55L444.95,399.05z"/>
		</g>
		<g>
			<path fill-rule="evenodd" clip-rule="evenodd" d="M503.1,398.65c0.17,0.43,0.3,0.95,0.4,1.55c0.07,0.53,0.05,1-0.05,1.4
				c-0.13,0.53-0.35,0.98-0.65,1.35c-0.2,0.27-0.5,0.52-0.9,0.75c-0.3,0.17-0.72,0.32-1.25,0.45l-2.85,0.55l-0.85-6.55l2.75-0.6
				c0.6-0.1,1.07-0.15,1.4-0.15c0.43,0.03,0.8,0.15,1.1,0.35C502.53,398.02,502.83,398.32,503.1,398.65z M501.7,399.35
				c-0.13-0.27-0.3-0.45-0.5-0.55c-0.2-0.13-0.43-0.18-0.7-0.15c-0.2,0-0.6,0.05-1.2,0.15l-0.7,0.2l0.55,4.35l1.1-0.3
				c0.4-0.07,0.68-0.15,0.85-0.25c0.23-0.1,0.45-0.25,0.65-0.45c0.1-0.13,0.18-0.35,0.25-0.65c0.1-0.33,0.12-0.75,0.05-1.25
				C501.98,399.92,501.87,399.55,501.7,399.35z M496.65,405.05l-5.55,1.05l-0.85-6.55l5.4-1.1l0.15,1.15l-4,0.75l0.2,1.4l3.65-0.65
				l0.15,1.1l-3.65,0.7l0.25,1.8l4.1-0.8L496.65,405.05z M489.85,405.25l0.15,1.15l-5.15,0.85l-0.8-6.5l1.45-0.25l0.65,5.35
				L489.85,405.25z M495.8,411.1c0.33,0,0.63,0.17,0.9,0.5c0.23,0.23,0.38,0.53,0.45,0.9c0.07,0.5-0.03,0.93-0.3,1.3
				c-0.33,0.4-0.8,0.72-1.4,0.95c0.33,0.1,0.62,0.23,0.85,0.4c0.27,0.13,0.6,0.43,1,0.9l1.05,1.05l-1.75,0.4l-1.25-1.2
				c-0.47-0.47-0.78-0.75-0.95-0.85c-0.13-0.13-0.28-0.18-0.45-0.15c-0.2-0.07-0.45-0.05-0.75,0.05l-0.3,0.05l0.35,2.75l-1.4,0.3
				L491,411.9l3.1-0.65C494.83,411.08,495.4,411.03,495.8,411.1z M492.75,414.35l1.1-0.2c0.73-0.13,1.17-0.25,1.3-0.35
				c0.17-0.07,0.32-0.2,0.45-0.4c0.03-0.13,0.03-0.3,0-0.5c-0.03-0.23-0.1-0.4-0.2-0.5c-0.2-0.1-0.4-0.15-0.6-0.15
				c-0.17,0-0.55,0.05-1.15,0.15l-1.1,0.25L492.75,414.35z M489.7,413.15l-3.95,0.65l0.2,1.45l3.65-0.6l0.1,1.1l-3.6,0.6l0.2,1.8
				l4.1-0.7l0.15,1.15l-5.55,0.9l-0.85-6.5l5.4-0.95L489.7,413.15z M477.8,401.7l1.45-0.2l0.7,5.35l3.7-0.5l0.15,1.1l-5.15,0.75
				L477.8,401.7z M468.05,402.9l5.85-0.75l0.15,1.05l-2.15,0.3l0.7,5.5l-1.5,0.15l-0.7-5.5l-2.2,0.3L468.05,402.9z M465.9,404.9
				c-0.1-0.33-0.27-0.55-0.5-0.65c-0.23-0.13-0.57-0.17-1-0.1c-0.43,0.03-0.75,0.15-0.95,0.35c-0.17,0.1-0.23,0.23-0.2,0.4
				c0,0.17,0.1,0.28,0.3,0.35c0.2,0.17,0.67,0.27,1.4,0.3c0.73,0.07,1.3,0.17,1.7,0.3c0.37,0.1,0.67,0.28,0.9,0.55
				c0.2,0.27,0.32,0.6,0.35,1c0.07,0.4,0.02,0.78-0.15,1.15c-0.2,0.37-0.5,0.63-0.9,0.8c-0.4,0.23-0.92,0.38-1.55,0.45
				c-0.97,0.13-1.72,0.03-2.25-0.3c-0.53-0.3-0.88-0.82-1.05-1.55l1.3-0.3c0.17,0.4,0.4,0.7,0.7,0.9c0.3,0.17,0.68,0.22,1.15,0.15
				c0.5-0.07,0.83-0.2,1-0.4c0.23-0.2,0.33-0.43,0.3-0.7c0-0.13-0.07-0.25-0.2-0.35c-0.1-0.13-0.28-0.23-0.55-0.3
				c-0.2,0-0.62-0.03-1.25-0.1c-0.83-0.03-1.42-0.17-1.75-0.4c-0.5-0.33-0.78-0.77-0.85-1.3c-0.03-0.3,0.02-0.6,0.15-0.9
				c0.2-0.33,0.5-0.6,0.9-0.8c0.37-0.2,0.83-0.33,1.4-0.4c0.93-0.13,1.67-0.05,2.2,0.25c0.5,0.3,0.78,0.73,0.85,1.3L465.9,404.9z
				 M474.2,414.35l3.75,6.2l-1.6,0.2l-0.85-1.35l-2.9,0.3l-0.4,1.55l-1.6,0.2l2-6.9L474.2,414.35z M467.65,419.75l0.6-4.65l1.45-0.2
				l-0.85,6.65l-1.6,0.2l-2.15-4.8l-0.9,5.1l-1.55,0.15l-2.6-6.45l1.5-0.1l1.75,4.4l0.7-4.6l1.75-0.2L467.65,419.75z M474.95,418.3
				l-1.35-2.35l-0.7,2.6L474.95,418.3z M483.35,414.2l-2.2,0.35l0.7,5.45l-1.45,0.25l-0.7-5.45l-2.2,0.25l-0.15-1.05l5.85-0.85
				L483.35,414.2z M477.15,408.4l-1.5,0.2l-0.85-6.55l1.5-0.2L477.15,408.4z M456.15,405.9c-0.13-0.3-0.28-0.5-0.45-0.6
				c-0.2-0.13-0.45-0.22-0.75-0.25c-0.2-0.03-0.6-0.05-1.2-0.05l-0.7,0.1l0.55,4.3l1.1-0.05c0.43-0.03,0.75-0.07,0.95-0.1
				c0.2-0.07,0.38-0.18,0.55-0.35c0.1-0.13,0.18-0.33,0.25-0.6c0.1-0.33,0.12-0.75,0.05-1.25S456.32,406.17,456.15,405.9z
				 M457.6,405.45c0.2,0.43,0.33,0.97,0.4,1.6c0.07,0.53,0.07,1,0,1.4c-0.13,0.47-0.35,0.87-0.65,1.2c-0.27,0.2-0.58,0.38-0.95,0.55
				c-0.33,0.13-0.77,0.22-1.3,0.25l-2.9,0.15l-0.85-6.55l2.8-0.1c0.6-0.1,1.08-0.12,1.45-0.05c0.4,0.1,0.77,0.28,1.1,0.55
				C457.07,404.75,457.37,405.08,457.6,405.45z M460.3,403.6l0.85,6.55l-1.5,0.15l-0.85-6.6L460.3,403.6z"/>
		</g>
	</g>
</g>
</svg>
