<?xml version="1.0" encoding="utf-8"?>
<!-- Generator: Adobe Illustrator 16.0.0, SVG Export Plug-In . SVG Version: 6.00 Build 0)  -->
<!DOCTYPE svg PUBLIC "-//W3C//DTD SVG 1.1//EN" "http://www.w3.org/Graphics/SVG/1.1/DTD/svg11.dtd">
<svg version="1.1" id="Layer_1" xmlns="http://www.w3.org/2000/svg" xmlns:xlink="http://www.w3.org/1999/xlink" x="0px" y="0px"
	 width="700px" height="700px" viewBox="0 0 700 700" enable-background="new 0 0 700 700" xml:space="preserve">
<g>
	<g>
		<path fill-rule="evenodd" clip-rule="evenodd" fill="#FFFFFF" fill-opacity="0.298" d="M660.8,625.45
			c-0.6,5.13-5.07,8.57-13.4,10.3c-12.4,2-24.68,2-36.85,0c-9.63-1.83-14.38-5.38-14.25-10.65v-72.95h64.5V625.45z"/>
	</g>
	<g>
		<rect x="596.35" y="551.45" fill-rule="evenodd" clip-rule="evenodd" fill="#FFFFFF" width="64.5" height="0.7"/>
	</g>
	<g>
		<g>
			<linearGradient id="SVGID_1_" gradientUnits="userSpaceOnUse" x1="603.7998" y1="579.1875" x2="654.75" y2="579.1875">
				<stop  offset="7.843138e-003" style="stop-color:#000000;stop-opacity:0"/>
				<stop  offset="0.2863" style="stop-color:#000000;stop-opacity:0.0431"/>
				<stop  offset="0.5647" style="stop-color:#000000;stop-opacity:0.0627"/>
				<stop  offset="0.8353" style="stop-color:#000000;stop-opacity:0"/>
				<stop  offset="1" style="stop-color:#000000;stop-opacity:0"/>
			</linearGradient>
			<path fill-rule="evenodd" clip-rule="evenodd" fill="url(#SVGID_1_)" d="M654.75,633.5c-17.47,5.43-34.45,5.43-50.95,0V520.8
				h50.95V633.5z"/>
		</g>
		<g>
			<linearGradient id="SVGID_2_" gradientUnits="userSpaceOnUse" x1="626.3877" y1="577.9883" x2="631.7127" y2="577.9883">
				<stop  offset="0" style="stop-color:#FFFFFF;stop-opacity:0.1294"/>
				<stop  offset="0.5098" style="stop-color:#FFFFFF"/>
				<stop  offset="1" style="stop-color:#FFFFFF;stop-opacity:0.3922"/>
			</linearGradient>
			<path fill-rule="evenodd" clip-rule="evenodd" fill="url(#SVGID_2_)" d="M631.95,521.2v112.75c-1.9,1.1-3.8,1.1-5.7,0V521.2
				H631.95z"/>
		</g>
		<g>
			<linearGradient id="SVGID_3_" gradientUnits="userSpaceOnUse" x1="606.9004" y1="516.2832" x2="648.9004" y2="516.2832">
				<stop  offset="0" style="stop-color:#BAC1D1;stop-opacity:0.8431"/>
				<stop  offset="0.2078" style="stop-color:#AFB8C8;stop-opacity:0.5922"/>
				<stop  offset="0.4745" style="stop-color:#A5B0C0;stop-opacity:0.3176"/>
				<stop  offset="0.8039" style="stop-color:#B2BACA;stop-opacity:0.6275"/>
				<stop  offset="0.8784" style="stop-color:#B5BCCC;stop-opacity:0.5922"/>
				<stop  offset="1" style="stop-color:#BAC1D1;stop-opacity:0.8"/>
			</linearGradient>
			<path fill-rule="evenodd" clip-rule="evenodd" fill="url(#SVGID_3_)" d="M609.35,517.35c-1.63-0.3-2.45-0.67-2.45-1.1
				c0-0.33,0.82-0.67,2.45-1c0.93-0.17,2.17-0.33,3.7-0.5c4.13-0.43,9.1-0.65,14.9-0.65s10.73,0.22,14.8,0.65
				c4.13,0.43,6.2,0.88,6.2,1.35c0,0.3-0.78,0.6-2.35,0.9c-5.67,0.87-11.45,1.35-17.35,1.45c-3.03,0.03-5.98,0.02-8.85-0.05
				c-2.7-0.13-5.15-0.32-7.35-0.55C611.52,517.68,610.28,517.52,609.35,517.35z"/>
		</g>
		<g>
			<linearGradient id="SVGID_4_" gradientUnits="userSpaceOnUse" x1="614.2393" y1="505.8555" x2="642.5498" y2="505.8555">
				<stop  offset="0" style="stop-color:#7E0127"/>
				<stop  offset="0.2392" style="stop-color:#98012A"/>
				<stop  offset="0.4941" style="stop-color:#A0002B"/>
				<stop  offset="0.7686" style="stop-color:#810328"/>
				<stop  offset="1" style="stop-color:#4A0218"/>
			</linearGradient>
			<path fill-rule="evenodd" clip-rule="evenodd" fill="url(#SVGID_4_)" d="M639.55,513.15c-7.67,0.7-15.27,0.68-22.8-0.05
				c-1.93-0.27-2.75-0.77-2.45-1.5v-10.25v-0.05c0.13-2.1,1.65-3.18,4.55-3.25c0.1,0,0.25,0,0.45,0h19.1
				c2.4,0.07,3.78,1.08,4.15,3.05v0.25v10.55C642.35,512.63,641.35,513.05,639.55,513.15z"/>
		</g>
		<g>
			<linearGradient id="SVGID_5_" gradientUnits="userSpaceOnUse" x1="613.4053" y1="514.1748" x2="643.2552" y2="514.1748">
				<stop  offset="0" style="stop-color:#C6B3B0"/>
				<stop  offset="0.4784" style="stop-color:#DBCFCD"/>
				<stop  offset="1" style="stop-color:#A28380"/>
			</linearGradient>
			<path fill-rule="evenodd" clip-rule="evenodd" fill="url(#SVGID_5_)" d="M614.05,516.1c-0.17-0.3-0.35-0.83-0.55-1.6
				c-0.23-1-0.03-2,0.6-3c9.37,1.17,18.73,1.17,28.1,0c0.87,0.5,1.25,1.37,1.15,2.6c-0.13,1.23-0.38,1.9-0.75,2
				C632.83,517.1,623.32,517.1,614.05,516.1z"/>
		</g>
		<g>
			<linearGradient id="SVGID_6_" gradientUnits="userSpaceOnUse" x1="621.0371" y1="498.2617" x2="636.1621" y2="498.2617">
				<stop  offset="0" style="stop-color:#A1002C"/>
				<stop  offset="1" style="stop-color:#4B0117"/>
			</linearGradient>
			<path fill-rule="evenodd" clip-rule="evenodd" fill="url(#SVGID_6_)" d="M636.7,498.8c-2.23,0.17-4.93,0.25-8.1,0.25
				c-3.17,0-5.88-0.08-8.15-0.25c-2.23-0.13-3.35-0.28-3.35-0.45c0-0.03,0.28-0.12,0.85-0.25c7.1-0.83,14.2-0.83,21.3,0
				c0.53,0.13,0.8,0.22,0.8,0.25C640.05,498.52,638.93,498.67,636.7,498.8z"/>
		</g>
		<g>
			<linearGradient id="SVGID_7_" gradientUnits="userSpaceOnUse" x1="596.3467" y1="576.8252" x2="660.8496" y2="576.8252">
				<stop  offset="0" style="stop-color:#BAC1D1;stop-opacity:0.8431"/>
				<stop  offset="0.2078" style="stop-color:#AFB8C8;stop-opacity:0.5922"/>
				<stop  offset="0.4745" style="stop-color:#A5B0C0;stop-opacity:0.3176"/>
				<stop  offset="0.8039" style="stop-color:#B2BACA;stop-opacity:0.6275"/>
				<stop  offset="0.8784" style="stop-color:#B5BCCC;stop-opacity:0.5922"/>
				<stop  offset="1" style="stop-color:#BAC1D1;stop-opacity:0.8"/>
			</linearGradient>
			<path fill-rule="evenodd" clip-rule="evenodd" fill="url(#SVGID_7_)" d="M656.3,519.8c0.3,0.2,0.6,0.45,0.9,0.75
				c2,1.97,3.22,4.05,3.65,6.25v0.55v11.5v86.75c-0.6,5.13-5.07,8.57-13.4,10.3c-12.4,2-24.68,2-36.85,0
				c-9.63-1.83-14.38-5.38-14.25-10.65v-97.9c0.6-2.3,1.77-4.47,3.5-6.5c0.33-0.37,0.67-0.72,1-1.05c1.83-1.9,3.92-3.08,6.25-3.55
				c13.63,1.73,27.27,1.73,40.9,0h0.2C651.33,516.65,654.03,517.83,656.3,519.8z"/>
			
				<radialGradient id="SVGID_8_" cx="615.7998" cy="476.9502" r="29.3" gradientTransform="matrix(1 0 0 0.8622 0 65.7231)" gradientUnits="userSpaceOnUse">
				<stop  offset="0" style="stop-color:#A0002B"/>
				<stop  offset="0.6" style="stop-color:#75021F"/>
				<stop  offset="0.9804" style="stop-color:#980E2F"/>
			</radialGradient>
			<path fill-rule="evenodd" clip-rule="evenodd" fill="url(#SVGID_8_)" d="M555.4,451.35c-2.63,1.43-5.08,1.3-7.35-0.4
				c4.17-6.03,8.23-11.15,12.2-15.35c30.4-32.53,54.18-11.73,71.35,62.4v0.25c-2.47,0.3-4.95,0.27-7.45-0.1V498v-0.45
				c-14.97-70.6-36.27-88.2-63.9-52.8C558.65,446.78,557.03,448.98,555.4,451.35z"/>
		</g>
		<g>
			<path fill-rule="evenodd" clip-rule="evenodd" fill="#FF3E73" fill-opacity="0.3294" d="M639.35,499.5
				c0.07,0,0.12,0.02,0.15,0.05s0.05,0.08,0.05,0.15v11.1c0,0.07-0.02,0.12-0.05,0.15s-0.08,0.05-0.15,0.05
				c-0.07,0-0.12-0.02-0.15-0.05s-0.05-0.08-0.05-0.15v-11.1c0-0.07,0.02-0.12,0.05-0.15S639.28,499.5,639.35,499.5z M630.55,499.8
				c0.03,0.03,0.05,0.07,0.05,0.1v11.7c0,0.03-0.02,0.08-0.05,0.15c-0.03,0-0.08,0-0.15,0c-0.07,0-0.12,0-0.15,0
				c-0.03-0.07-0.05-0.12-0.05-0.15v-11.7c0-0.03,0.02-0.07,0.05-0.1c0.03-0.07,0.08-0.1,0.15-0.1
				C630.47,499.7,630.52,499.73,630.55,499.8z M634.65,499.65c0-0.07,0.03-0.1,0.1-0.1c0.03-0.07,0.07-0.1,0.1-0.1
				c0.07,0,0.13,0.03,0.2,0.1c0.03,0,0.05,0.03,0.05,0.1v11.6c0,0.03-0.02,0.08-0.05,0.15c-0.07,0-0.13,0-0.2,0
				c-0.03,0-0.07,0-0.1,0c-0.07-0.07-0.1-0.12-0.1-0.15V499.65z M626.2,499.85c0.03,0.03,0.05,0.07,0.05,0.1v11.75
				c0,0.03-0.02,0.08-0.05,0.15c-0.03,0.03-0.08,0.05-0.15,0.05s-0.12-0.02-0.15-0.05c-0.03-0.07-0.05-0.12-0.05-0.15v-11.75
				c0-0.03,0.02-0.07,0.05-0.1c0.03-0.07,0.08-0.1,0.15-0.1S626.17,499.78,626.2,499.85z M621.05,499.9c0-0.07,0.03-0.12,0.1-0.15
				c0.03-0.03,0.07-0.05,0.1-0.05c0.07,0,0.13,0.02,0.2,0.05c0.03,0.03,0.05,0.08,0.05,0.15v11.85c0,0.03-0.02,0.08-0.05,0.15
				c-0.07,0-0.13,0-0.2,0c-0.03,0-0.07,0-0.1,0c-0.07-0.07-0.1-0.12-0.1-0.15V499.9z M616.95,499.45c0.03,0.03,0.05,0.07,0.05,0.1
				v11.6c0,0.07-0.02,0.12-0.05,0.15c-0.07,0.03-0.12,0.05-0.15,0.05c-0.07,0-0.12-0.02-0.15-0.05c-0.07-0.03-0.1-0.08-0.1-0.15
				v-11.6c0-0.03,0.03-0.07,0.1-0.1c0.03-0.03,0.08-0.05,0.15-0.05C616.83,499.4,616.88,499.42,616.95,499.45z"/>
			<path fill-rule="evenodd" clip-rule="evenodd" fill="#770021" d="M638.45,499.2c0.03-0.03,0.08-0.05,0.15-0.05
				c0.03,0,0.08,0.02,0.15,0.05c0.03,0.03,0.05,0.08,0.05,0.15v11.7c0,0.03-0.02,0.08-0.05,0.15c-0.07,0.03-0.12,0.05-0.15,0.05
				c-0.07,0-0.12-0.02-0.15-0.05c-0.07-0.07-0.1-0.12-0.1-0.15v-11.7C638.35,499.28,638.38,499.23,638.45,499.2z M633.9,499.85
				c0-0.07,0.03-0.12,0.1-0.15c0.03-0.03,0.08-0.05,0.15-0.05c0.07,0,0.12,0.02,0.15,0.05s0.05,0.08,0.05,0.15v11.6
				c0,0.07-0.02,0.12-0.05,0.15c-0.03,0.03-0.08,0.05-0.15,0.05c-0.07,0-0.12-0.02-0.15-0.05c-0.07-0.03-0.1-0.08-0.1-0.15V499.85z
				 M625.1,499.95c0-0.03,0.03-0.07,0.1-0.1c0-0.07,0.03-0.1,0.1-0.1s0.13,0.03,0.2,0.1c0.03,0.03,0.05,0.07,0.05,0.1v11.8
				c0,0.03-0.02,0.08-0.05,0.15c-0.07,0-0.13,0-0.2,0h-0.1c-0.07-0.07-0.1-0.12-0.1-0.15V499.95z M629.75,499.8
				c0.07,0,0.12,0.03,0.15,0.1c0.03,0,0.05,0.03,0.05,0.1v11.65c0,0.07-0.02,0.12-0.05,0.15c-0.03,0.03-0.08,0.05-0.15,0.05
				s-0.12-0.02-0.15-0.05c-0.03-0.03-0.05-0.08-0.05-0.15V500c0-0.07,0.02-0.1,0.05-0.1C629.63,499.83,629.68,499.8,629.75,499.8z
				 M620.25,499.7c0-0.03,0.02-0.07,0.05-0.1c0.03-0.03,0.08-0.05,0.15-0.05s0.12,0.02,0.15,0.05c0.03,0.03,0.05,0.07,0.05,0.1v11.9
				c0,0.03-0.02,0.08-0.05,0.15c-0.03,0-0.08,0-0.15,0s-0.12,0-0.15,0c-0.03-0.07-0.05-0.12-0.05-0.15V499.7z M615.9,499.25
				c0-0.03,0.02-0.07,0.05-0.1c0.03-0.07,0.08-0.1,0.15-0.1c0.07,0,0.12,0.03,0.15,0.1c0.03,0.03,0.05,0.07,0.05,0.1v11.4
				c0,0.07-0.02,0.12-0.05,0.15s-0.08,0.05-0.15,0.05c-0.07,0-0.12-0.02-0.15-0.05s-0.05-0.08-0.05-0.15V499.25z"/>
		</g>
		<g>
			<path fill-rule="evenodd" clip-rule="evenodd" fill="none" d="M617.1,498.7c7.03,0.7,14.33,0.7,21.9,0"/>
			<path fill-rule="evenodd" clip-rule="evenodd" fill="none" d="M624.95,498.25c2.57,0.57,5.05,0.57,7.45,0"/>
			<path fill-rule="evenodd" clip-rule="evenodd" fill="none" d="M614.55,511.9c10,1.1,19.35,1,28.05-0.3"/>
			<path fill-rule="evenodd" clip-rule="evenodd" fill="none" d="M614.95,511.25c8.47,1.23,17.47,1.23,27,0"/>
			<path fill-rule="evenodd" clip-rule="evenodd" fill="none" d="M614.35,516c10,1.07,19.32,0.95,27.95-0.35"/>
			<path fill-rule="evenodd" clip-rule="evenodd" fill="none" d="M608.05,516.45c9.23,1.1,19.57,1.28,31,0.55"/>
		</g>
		<g>
			
				<radialGradient id="SVGID_9_" cx="599.8496" cy="434.5996" r="10.425" gradientTransform="matrix(1 0 0 0.8933 0 46.3781)" gradientUnits="userSpaceOnUse">
				<stop  offset="0" style="stop-color:#FFFFFF;stop-opacity:0.4314"/>
				<stop  offset="1" style="stop-color:#FBFBFB;stop-opacity:0"/>
			</radialGradient>
			<path fill-rule="evenodd" clip-rule="evenodd" fill="url(#SVGID_9_)" d="M607.9,444.65c-0.1,0.03-0.2,0.05-0.3,0.05
				c-0.1-0.07-0.18-0.15-0.25-0.25c-3.4-7.1-8.1-12.47-14.1-16.1c-0.1-0.07-0.17-0.15-0.2-0.25c-0.03-0.1,0-0.2,0.1-0.3
				c0.07-0.1,0.15-0.17,0.25-0.2c0.1,0,0.22,0.03,0.35,0.1c6.13,3.73,10.93,9.22,14.4,16.45c0.03,0.1,0.03,0.2,0,0.3
				C608.12,444.52,608.03,444.58,607.9,444.65z"/>
			
				<radialGradient id="SVGID_10_" cx="588.0996" cy="422.75" r="5.3" gradientTransform="matrix(1 0 0 0.8939 0 44.8673)" gradientUnits="userSpaceOnUse">
				<stop  offset="0" style="stop-color:#FFFFFF;stop-opacity:0.4627"/>
				<stop  offset="1" style="stop-color:#FBFBFB;stop-opacity:0"/>
			</radialGradient>
			<path fill-rule="evenodd" clip-rule="evenodd" fill="url(#SVGID_10_)" d="M583.4,422.55c-0.1,0.03-0.22,0.02-0.35-0.05
				c-0.07-0.07-0.12-0.15-0.15-0.25c-0.07-0.1-0.05-0.2,0.05-0.3c0.03-0.07,0.12-0.12,0.25-0.15c2.6-0.7,5.9-0.32,9.9,1.15
				c0.1,0.03,0.17,0.1,0.2,0.2c0.07,0.1,0.08,0.2,0.05,0.3c-0.07,0.1-0.15,0.17-0.25,0.2c-0.13,0.07-0.25,0.08-0.35,0.05
				C588.98,422.3,585.87,421.92,583.4,422.55z"/>
			
				<radialGradient id="SVGID_11_" cx="561.7012" cy="438.3086" r="18.8176" gradientTransform="matrix(1 0 0 0.8938 0 46.5667)" gradientUnits="userSpaceOnUse">
				<stop  offset="0" style="stop-color:#FFFFFF;stop-opacity:0.5765"/>
				<stop  offset="1" style="stop-color:#FBFBFB;stop-opacity:0"/>
			</radialGradient>
			<path fill-rule="evenodd" clip-rule="evenodd" fill="url(#SVGID_11_)" d="M573.45,425.55c0.1-0.07,0.2-0.1,0.3-0.1
				c0.13,0.03,0.23,0.1,0.3,0.2c0.07,0.1,0.08,0.2,0.05,0.3c-0.03,0.1-0.08,0.18-0.15,0.25c-3.93,2.3-8.38,6.23-13.35,11.8
				c-3.3,3.63-6.8,7.97-10.5,13c-0.07,0.07-0.17,0.12-0.3,0.15c-0.1,0.03-0.2,0.02-0.3-0.05c-0.1-0.07-0.17-0.15-0.2-0.25
				c-0.03-0.1,0-0.2,0.1-0.3c3.73-5.03,7.23-9.38,10.5-13.05C564.93,431.83,569.45,427.85,573.45,425.55z"/>
			
				<radialGradient id="SVGID_12_" cx="618.4502" cy="466" r="35.9125" gradientTransform="matrix(1 0 0 0.8938 0 49.4709)" gradientUnits="userSpaceOnUse">
				<stop  offset="0" style="stop-color:#FFFFFF;stop-opacity:0.498"/>
				<stop  offset="1" style="stop-color:#FBFBFB;stop-opacity:0"/>
			</radialGradient>
			<path fill-rule="evenodd" clip-rule="evenodd" fill="url(#SVGID_12_)" d="M606.9,437.15c-0.03-0.1-0.03-0.22,0-0.35
				c0.03-0.1,0.12-0.17,0.25-0.2c0.07-0.07,0.17-0.07,0.3,0c0.1,0.03,0.18,0.1,0.25,0.2c7.93,13.1,14.17,28.55,18.7,46.35
				c1.07,4.23,2.03,8.63,2.9,13.2c0.03,0.07,0.02,0.15-0.05,0.25c-0.07,0.07-0.17,0.12-0.3,0.15c-0.1,0.03-0.2,0.02-0.3-0.05
				c-0.1-0.07-0.17-0.15-0.2-0.25c-0.9-4.5-1.87-8.88-2.9-13.15C621.02,465.57,614.8,450.18,606.9,437.15z"/>
		</g>
		
			<radialGradient id="SVGID_13_" cx="65.8989" cy="17.5752" r="22.9147" gradientTransform="matrix(0.2862 0 0 1.8214 628.7999 544.3497)" gradientUnits="userSpaceOnUse">
			<stop  offset="0" style="stop-color:#FFFFFF;stop-opacity:0.3647"/>
			<stop  offset="0.4078" style="stop-color:#FFFFFF;stop-opacity:0.2706"/>
			<stop  offset="1" style="stop-color:#FFFFFF;stop-opacity:0"/>
		</radialGradient>
		<path fill-rule="evenodd" clip-rule="evenodd" fill="url(#SVGID_13_)" d="M647.66,617.2c-1.56,0-2.91-4.01-4.04-12.02
			c-1.12-7.95-1.67-17.54-1.67-28.78c0-11.23,0.56-20.86,1.67-28.87c1.13-8.01,2.47-12.02,4.04-12.02c1.57,0,2.92,4.01,4.04,12.02
			s1.67,17.64,1.67,28.87c0,11.23-0.56,20.82-1.67,28.78C650.58,613.2,649.23,617.2,647.66,617.2z"/>
		
			<radialGradient id="SVGID_14_" cx="65.9004" cy="17.5747" r="22.9142" gradientTransform="matrix(0.2182 0 0 2.4436 595.2498 539.6506)" gradientUnits="userSpaceOnUse">
			<stop  offset="0" style="stop-color:#FFFFFF;stop-opacity:0.3647"/>
			<stop  offset="0.3412" style="stop-color:#FFFFFF;stop-opacity:0.1569"/>
			<stop  offset="0.7451" style="stop-color:#FFFFFF;stop-opacity:0.0627"/>
			<stop  offset="1" style="stop-color:#FFFFFF;stop-opacity:0"/>
		</radialGradient>
		<path fill-rule="evenodd" clip-rule="evenodd" fill="url(#SVGID_14_)" d="M609.63,637.39c-1.19,0-2.22-5.38-3.08-16.13
			c-0.85-10.67-1.28-23.54-1.28-38.61s0.42-27.98,1.28-38.73c0.86-10.75,1.88-16.13,3.08-16.13c1.2,0,2.23,5.38,3.08,16.13
			c0.85,10.75,1.28,23.66,1.28,38.73s-0.43,27.94-1.28,38.61C611.85,632.02,610.83,637.39,609.63,637.39z"/>
		
			<radialGradient id="SVGID_15_" cx="65.9048" cy="17.5742" r="22.9123" gradientTransform="matrix(0 0.1023 -0.7419 0 642.2 513.7997)" gradientUnits="userSpaceOnUse">
			<stop  offset="0" style="stop-color:#FFFFFF;stop-opacity:0.498"/>
			<stop  offset="0.4078" style="stop-color:#FFFFFF;stop-opacity:0.2706"/>
			<stop  offset="1" style="stop-color:#FFFFFF;stop-opacity:0"/>
		</radialGradient>
		<path fill-rule="evenodd" clip-rule="evenodd" fill="url(#SVGID_15_)" d="M612.52,520.54c0-0.56,1.63-1.04,4.9-1.44
			c3.24-0.4,7.15-0.6,11.72-0.6s8.5,0.2,11.76,0.6c3.26,0.4,4.9,0.88,4.9,1.44c0,0.56-1.63,1.04-4.9,1.44
			c-3.26,0.4-7.18,0.6-11.76,0.6s-8.48-0.2-11.72-0.6C614.16,521.58,612.52,521.1,612.52,520.54z"/>
		
			<radialGradient id="SVGID_16_" cx="65.8984" cy="17.5747" r="22.9152" gradientTransform="matrix(0.2548 0.2095 -0.3153 0.3215 595.2504 505.7004)" gradientUnits="userSpaceOnUse">
			<stop  offset="0" style="stop-color:#FFFFFF;stop-opacity:0.251"/>
			<stop  offset="0.5333" style="stop-color:#FFFFFF;stop-opacity:0.0471"/>
			<stop  offset="0.7451" style="stop-color:#FFFFFF;stop-opacity:0.0275"/>
			<stop  offset="1" style="stop-color:#FFFFFF;stop-opacity:0"/>
		</radialGradient>
		<path fill-rule="evenodd" clip-rule="evenodd" fill="url(#SVGID_16_)" d="M599.43,532.36c-1.39-1.14-1.9-2.84-1.51-5.08
			c0.38-2.22,1.55-4.32,3.49-6.3s4.11-3.27,6.49-3.87c2.39-0.59,4.28-0.31,5.67,0.83c1.4,1.15,1.9,2.84,1.51,5.08
			s-1.56,4.34-3.51,6.32s-4.1,3.27-6.47,3.85C602.72,533.79,600.83,533.51,599.43,532.36z"/>
		
			<radialGradient id="SVGID_17_" cx="65.8955" cy="17.5781" r="22.9148" gradientTransform="matrix(-0.2182 0.2402 -0.3785 -0.2614 672.15 514.6508)" gradientUnits="userSpaceOnUse">
			<stop  offset="0" style="stop-color:#FFFFFF;stop-opacity:0.251"/>
			<stop  offset="0.5333" style="stop-color:#FFFFFF;stop-opacity:0.0471"/>
			<stop  offset="0.7451" style="stop-color:#FFFFFF;stop-opacity:0.0275"/>
			<stop  offset="1" style="stop-color:#FFFFFF;stop-opacity:0"/>
		</radialGradient>
		<path fill-rule="evenodd" clip-rule="evenodd" fill="url(#SVGID_17_)" d="M642.63,520.03c1.19-1.31,3.05-1.87,5.57-1.66
			c2.5,0.2,4.92,1.11,7.26,2.72c2.33,1.61,3.91,3.46,4.72,5.55c0.81,2.09,0.62,3.8-0.58,5.11c-1.2,1.32-3.06,1.88-5.57,1.66
			c-2.52-0.21-4.94-1.13-7.28-2.74c-2.33-1.61-3.9-3.46-4.7-5.53C641.24,523.05,641.43,521.35,642.63,520.03z"/>
		<g>
			<path fill-rule="evenodd" clip-rule="evenodd" fill="#FFFFFF" d="M659.7,589.65c-20.5,2.57-41.3,2.77-62.4,0.6V559.3
				c19.6,1.07,40.4,1.07,62.4,0V589.65z"/>
		</g>
		<g>
			<path fill-rule="evenodd" clip-rule="evenodd" d="M651.25,565.95l-0.7,0.1v4.4l1.1-0.15c0.4,0,0.7-0.05,0.9-0.15
				c0.23-0.07,0.45-0.18,0.65-0.35c0.13-0.1,0.25-0.3,0.35-0.6c0.13-0.33,0.2-0.75,0.2-1.25c0-0.53-0.07-0.92-0.2-1.15
				c-0.1-0.27-0.23-0.47-0.4-0.6c-0.2-0.17-0.43-0.25-0.7-0.25C652.25,565.92,651.85,565.92,651.25,565.95z M651.8,564.8
				c0.6-0.03,1.07-0.03,1.4,0c0.43,0.1,0.8,0.27,1.1,0.5c0.3,0.3,0.55,0.63,0.75,1c0.13,0.43,0.2,0.97,0.2,1.6
				c0,0.53-0.07,1-0.2,1.4c-0.2,0.5-0.47,0.92-0.8,1.25c-0.27,0.23-0.62,0.43-1.05,0.6c-0.33,0.13-0.77,0.23-1.3,0.3l-2.85,0.2v-6.6
				L651.8,564.8z M607.2,565.45c0.43,0.17,0.8,0.4,1.1,0.7c0.3,0.33,0.55,0.72,0.75,1.15c0.13,0.43,0.2,0.97,0.2,1.6
				c0,0.53-0.07,1-0.2,1.4c-0.2,0.43-0.47,0.8-0.8,1.1c-0.27,0.17-0.62,0.3-1.05,0.4c-0.33,0.1-0.77,0.13-1.3,0.1l-2.85-0.25v-6.6
				l2.75,0.25C606.4,565.3,606.87,565.35,607.2,565.45z M605.25,566.3h-0.7v4.35l1.1,0.1c0.43,0.03,0.75,0.03,0.95,0
				c0.2-0.03,0.4-0.12,0.6-0.25c0.13-0.1,0.25-0.28,0.35-0.55c0.13-0.33,0.2-0.75,0.2-1.25s-0.07-0.88-0.2-1.15
				c-0.1-0.3-0.23-0.53-0.4-0.7c-0.17-0.17-0.4-0.28-0.7-0.35C606.25,566.43,605.85,566.37,605.25,566.3z M631.05,566.1v5.4
				l3.7-0.05v1.1l-5.2,0.1v-6.55H631.05z M637.35,565.9v5.4l3.7-0.15v1.15l-5.2,0.2v-6.55L637.35,565.9z M647.65,565.15v1.15
				l-4,0.25V568l3.7-0.2v1.1l-3.7,0.25v1.8l4.15-0.3v1.15l-5.65,0.35v-6.6L647.65,565.15z M611.95,565.75v6.6l-1.5-0.05v-6.65
				L611.95,565.75z M613.6,566.6c0.23-0.3,0.55-0.52,0.95-0.65c0.4-0.17,0.88-0.25,1.45-0.25c0.93,0,1.63,0.18,2.1,0.55
				c0.47,0.37,0.7,0.85,0.7,1.45l-1.45,0.1c-0.07-0.33-0.22-0.58-0.45-0.75c-0.2-0.17-0.52-0.25-0.95-0.25s-0.77,0.08-1,0.25
				c-0.17,0.1-0.25,0.23-0.25,0.4c0,0.17,0.08,0.3,0.25,0.4c0.2,0.17,0.65,0.32,1.35,0.45c0.73,0.17,1.28,0.33,1.65,0.5
				c0.33,0.17,0.6,0.38,0.8,0.65c0.17,0.3,0.25,0.65,0.25,1.05s-0.1,0.77-0.3,1.1c-0.23,0.33-0.57,0.57-1,0.7
				c-0.43,0.17-0.97,0.25-1.6,0.25c-0.97,0-1.68-0.2-2.15-0.6c-0.53-0.37-0.83-0.92-0.9-1.65l1.4-0.15c0.1,0.43,0.28,0.77,0.55,1
				c0.27,0.2,0.63,0.3,1.1,0.3c0.5,0,0.85-0.1,1.05-0.3c0.27-0.17,0.4-0.38,0.4-0.65c0-0.13-0.05-0.25-0.15-0.35
				c-0.1-0.13-0.28-0.25-0.55-0.35c-0.17-0.03-0.57-0.12-1.2-0.25c-0.8-0.17-1.35-0.38-1.65-0.65c-0.47-0.37-0.7-0.82-0.7-1.35
				C613.3,567.22,613.4,566.9,613.6,566.6z M619.75,567.15v-1.1h5.9v1.1h-2.2v5.5h-1.5v-5.5H619.75z M624.35,578.2l2.95,6.65h-1.6
				l-0.65-1.5l-2.95-0.05l-0.6,1.5h-1.6l2.85-6.6H624.35z M619.85,578.15l-1.75,6.55h-1.6l-1.5-5.05l-1.5,4.9l-1.6-0.05l-1.75-6.7
				l1.5,0.05l1.15,4.6l1.35-4.45h1.75l1.3,4.7l1.15-4.55H619.85z M627.55,578.25l5.9-0.1v1.1l-2.2,0.05v5.5l-1.5,0.05v-5.5h-2.2
				V578.25z M624.6,582.2l-1.05-2.45l-1,2.45H624.6z M642.8,580.6l1.1-0.1c0.73-0.03,1.18-0.08,1.35-0.15
				c0.17-0.07,0.32-0.18,0.45-0.35c0.07-0.13,0.1-0.3,0.1-0.5c0-0.23-0.05-0.4-0.15-0.5c-0.17-0.13-0.35-0.22-0.55-0.25
				c-0.17,0-0.55,0.02-1.15,0.05l-1.15,0.1V580.6z M639.9,579l-4,0.15v1.45l3.7-0.15v1.1l-3.7,0.15v1.8l4.15-0.15v1.15l-5.65,0.2
				v-6.6l5.5-0.25V579z M647.05,578.3c0.2,0.27,0.3,0.6,0.3,1c0,0.5-0.15,0.92-0.45,1.25c-0.37,0.37-0.87,0.62-1.5,0.75
				c0.33,0.13,0.6,0.3,0.8,0.5c0.23,0.17,0.52,0.5,0.85,1l0.9,1.2l-1.75,0.15l-1.1-1.35c-0.4-0.5-0.67-0.82-0.8-0.95
				c-0.13-0.13-0.28-0.2-0.45-0.2c-0.17-0.07-0.42-0.08-0.75-0.05l-0.3,0.05v2.75l-1.45,0.1v-6.6l3.15-0.25
				c0.77-0.07,1.33-0.05,1.7,0.05C646.53,577.77,646.82,577.97,647.05,578.3z M628.05,572.65h-1.5v-6.6h1.5V572.65z"/>
		</g>
	</g>
</g>
</svg>
