<?xml version="1.0" encoding="utf-8"?>
<!-- Generator: Adobe Illustrator 16.0.0, SVG Export Plug-In . SVG Version: 6.00 Build 0)  -->
<!DOCTYPE svg PUBLIC "-//W3C//DTD SVG 1.1//EN" "http://www.w3.org/Graphics/SVG/1.1/DTD/svg11.dtd">
<svg version="1.1" id="Layer_1" xmlns="http://www.w3.org/2000/svg" xmlns:xlink="http://www.w3.org/1999/xlink" x="0px" y="0px"
	 width="700px" height="700px" viewBox="0 0 700 700" enable-background="new 0 0 700 700" xml:space="preserve">
<g>
	<g>
		<path fill-rule="evenodd" clip-rule="evenodd" fill="#FFFFFF" fill-opacity="0.302" d="M558.05,446.1v73.3
			c-0.6,5.13-5.07,8.57-13.4,10.3c-12.4,2-24.68,2-36.85,0c-9.63-1.83-14.38-5.38-14.25-10.65V446.1H558.05z"/>
	</g>
	<g>
		<rect x="493.5" y="445.4" fill-rule="evenodd" clip-rule="evenodd" fill="#FFFFFF" width="64.5" height="0.7"/>
	</g>
	<g>
		<g>
			<linearGradient id="SVGID_1_" gradientUnits="userSpaceOnUse" x1="500.9502" y1="473.2871" x2="551.9004" y2="473.2871">
				<stop  offset="7.843138e-003" style="stop-color:#000000;stop-opacity:0"/>
				<stop  offset="0.2863" style="stop-color:#000000;stop-opacity:0.0431"/>
				<stop  offset="0.5647" style="stop-color:#000000;stop-opacity:0.0627"/>
				<stop  offset="0.8353" style="stop-color:#000000;stop-opacity:0"/>
				<stop  offset="1" style="stop-color:#000000;stop-opacity:0"/>
			</linearGradient>
			<path fill-rule="evenodd" clip-rule="evenodd" fill="url(#SVGID_1_)" d="M551.9,414.9v112.7c-17.47,5.43-34.45,5.43-50.95,0
				V414.9H551.9z"/>
		</g>
		<g>
			<linearGradient id="SVGID_2_" gradientUnits="userSpaceOnUse" x1="523.5371" y1="472.0879" x2="528.8621" y2="472.0879">
				<stop  offset="0" style="stop-color:#FFFFFF;stop-opacity:0.1294"/>
				<stop  offset="0.5098" style="stop-color:#FFFFFF"/>
				<stop  offset="1" style="stop-color:#FFFFFF;stop-opacity:0.3922"/>
			</linearGradient>
			<path fill-rule="evenodd" clip-rule="evenodd" fill="url(#SVGID_2_)" d="M529.1,415.3v112.75c-1.9,1.1-3.8,1.1-5.7,0V415.3H529.1
				z"/>
		</g>
		<g>
			<linearGradient id="SVGID_3_" gradientUnits="userSpaceOnUse" x1="504.0498" y1="410.3828" x2="546.0498" y2="410.3828">
				<stop  offset="0" style="stop-color:#BAC1D1;stop-opacity:0.8431"/>
				<stop  offset="0.2078" style="stop-color:#AFB8C8;stop-opacity:0.5922"/>
				<stop  offset="0.4745" style="stop-color:#A5B0C0;stop-opacity:0.3176"/>
				<stop  offset="0.8039" style="stop-color:#B2BACA;stop-opacity:0.6275"/>
				<stop  offset="0.8784" style="stop-color:#B5BCCC;stop-opacity:0.5922"/>
				<stop  offset="1" style="stop-color:#BAC1D1;stop-opacity:0.8"/>
			</linearGradient>
			<path fill-rule="evenodd" clip-rule="evenodd" fill="url(#SVGID_3_)" d="M546.1,410.2c0,0.3-0.78,0.6-2.35,0.9
				c-5.67,0.87-11.45,1.35-17.35,1.45c-3.03,0.03-5.98,0.02-8.85-0.05c-2.7-0.13-5.15-0.32-7.35-0.55c-1.53-0.17-2.77-0.33-3.7-0.5
				c-1.63-0.3-2.45-0.67-2.45-1.1c0-0.33,0.82-0.67,2.45-1c0.93-0.17,2.17-0.33,3.7-0.5c4.13-0.43,9.1-0.65,14.9-0.65
				c5.8,0,10.73,0.22,14.8,0.65C544.03,409.28,546.1,409.73,546.1,410.2z"/>
		</g>
		<g>
			<linearGradient id="SVGID_4_" gradientUnits="userSpaceOnUse" x1="511.3896" y1="399.957" x2="539.7002" y2="399.957">
				<stop  offset="0" style="stop-color:#7E0127"/>
				<stop  offset="0.2392" style="stop-color:#98012A"/>
				<stop  offset="0.4941" style="stop-color:#A0002B"/>
				<stop  offset="0.7686" style="stop-color:#810328"/>
				<stop  offset="1" style="stop-color:#4A0218"/>
			</linearGradient>
			<path fill-rule="evenodd" clip-rule="evenodd" fill="url(#SVGID_4_)" d="M511.45,395.4c0.13-2.1,1.65-3.18,4.55-3.25
				c0.1,0,0.25,0,0.45,0h19.1c2.4,0.07,3.78,1.08,4.15,3.05v0.25V406c-0.2,0.73-1.2,1.15-3,1.25c-7.67,0.7-15.27,0.68-22.8-0.05
				c-1.93-0.27-2.75-0.77-2.45-1.5v-10.25V395.4z"/>
		</g>
		<g>
			<linearGradient id="SVGID_5_" gradientUnits="userSpaceOnUse" x1="510.5557" y1="408.2754" x2="540.4056" y2="408.2754">
				<stop  offset="0" style="stop-color:#C6B3B0"/>
				<stop  offset="0.4784" style="stop-color:#DBCFCD"/>
				<stop  offset="1" style="stop-color:#A28380"/>
			</linearGradient>
			<path fill-rule="evenodd" clip-rule="evenodd" fill="url(#SVGID_5_)" d="M540.5,408.2c-0.13,1.23-0.38,1.9-0.75,2
				c-9.77,1-19.28,1-28.55,0c-0.17-0.3-0.35-0.83-0.55-1.6c-0.23-1-0.03-2,0.6-3c9.37,1.17,18.73,1.17,28.1,0
				C540.22,406.1,540.6,406.97,540.5,408.2z"/>
		</g>
		<g>
			<linearGradient id="SVGID_6_" gradientUnits="userSpaceOnUse" x1="518.1875" y1="392.3623" x2="533.3125" y2="392.3623">
				<stop  offset="0" style="stop-color:#A1002C"/>
				<stop  offset="1" style="stop-color:#4B0117"/>
			</linearGradient>
			<path fill-rule="evenodd" clip-rule="evenodd" fill="url(#SVGID_6_)" d="M517.6,392.9c-2.23-0.13-3.35-0.28-3.35-0.45
				c0-0.03,0.28-0.12,0.85-0.25c7.1-0.83,14.2-0.83,21.3,0c0.53,0.13,0.8,0.22,0.8,0.25c0,0.17-1.12,0.32-3.35,0.45
				c-2.23,0.17-4.93,0.25-8.1,0.25S519.87,393.07,517.6,392.9z"/>
		</g>
		<g>
			
				<radialGradient id="SVGID_7_" cx="512.9502" cy="371.0498" r="29.3" gradientTransform="matrix(1 0 0 0.8622 0 51.1302)" gradientUnits="userSpaceOnUse">
				<stop  offset="0" style="stop-color:#A0002B"/>
				<stop  offset="0.6" style="stop-color:#75021F"/>
				<stop  offset="0.9804" style="stop-color:#980E2F"/>
			</radialGradient>
			<path fill-rule="evenodd" clip-rule="evenodd" fill="url(#SVGID_7_)" d="M457.4,338.85c-1.6,2.03-3.22,4.23-4.85,6.6
				c-2.63,1.43-5.08,1.3-7.35-0.4c4.17-6.03,8.23-11.15,12.2-15.35c30.4-32.53,54.18-11.73,71.35,62.4v0.25
				c-2.47,0.3-4.95,0.27-7.45-0.1v-0.15v-0.45C506.33,321.05,485.03,303.45,457.4,338.85z"/>
			<linearGradient id="SVGID_8_" gradientUnits="userSpaceOnUse" x1="493.4971" y1="470.9248" x2="558" y2="470.9248">
				<stop  offset="0" style="stop-color:#BAC1D1;stop-opacity:0.8431"/>
				<stop  offset="0.2078" style="stop-color:#AFB8C8;stop-opacity:0.5922"/>
				<stop  offset="0.4745" style="stop-color:#A5B0C0;stop-opacity:0.3176"/>
				<stop  offset="0.8039" style="stop-color:#B2BACA;stop-opacity:0.6275"/>
				<stop  offset="0.8784" style="stop-color:#B5BCCC;stop-opacity:0.5922"/>
				<stop  offset="1" style="stop-color:#BAC1D1;stop-opacity:0.8"/>
			</linearGradient>
			<path fill-rule="evenodd" clip-rule="evenodd" fill="url(#SVGID_8_)" d="M558,420.9v0.55v11.5v86.75
				c-0.6,5.13-5.07,8.57-13.4,10.3c-12.4,2-24.68,2-36.85,0c-9.63-1.83-14.38-5.38-14.25-10.65v-97.9c0.6-2.3,1.77-4.47,3.5-6.5
				c0.33-0.37,0.67-0.72,1-1.05c1.83-1.9,3.92-3.08,6.25-3.55c13.63,1.73,27.27,1.73,40.9,0h0.2c3.13,0.4,5.83,1.58,8.1,3.55
				c0.3,0.2,0.6,0.45,0.9,0.75C556.35,416.62,557.57,418.7,558,420.9z"/>
		</g>
		<g>
			<path fill-rule="evenodd" clip-rule="evenodd" fill="#FF3E73" fill-opacity="0.3294" d="M513.95,393.5
				c0.03,0,0.08,0.02,0.15,0.05c0.03,0.03,0.05,0.07,0.05,0.1v11.6c0,0.07-0.02,0.12-0.05,0.15c-0.07,0.03-0.12,0.05-0.15,0.05
				c-0.07,0-0.12-0.02-0.15-0.05c-0.07-0.03-0.1-0.08-0.1-0.15v-11.6c0-0.03,0.03-0.07,0.1-0.1
				C513.83,393.52,513.88,393.5,513.95,393.5z M523,394.05c0-0.03,0.02-0.07,0.05-0.1c0.03-0.07,0.08-0.1,0.15-0.1
				s0.12,0.03,0.15,0.1c0.03,0.03,0.05,0.07,0.05,0.1v11.75c0,0.03-0.02,0.08-0.05,0.15c-0.03,0.03-0.08,0.05-0.15,0.05
				s-0.12-0.02-0.15-0.05c-0.03-0.07-0.05-0.12-0.05-0.15V394.05z M518.2,394c0-0.07,0.03-0.12,0.1-0.15
				c0.03-0.03,0.07-0.05,0.1-0.05c0.07,0,0.13,0.02,0.2,0.05c0.03,0.03,0.05,0.08,0.05,0.15v11.85c0,0.03-0.02,0.08-0.05,0.15
				c-0.07,0-0.13,0-0.2,0c-0.03,0-0.07,0-0.1,0c-0.07-0.07-0.1-0.12-0.1-0.15V394z M527.7,393.9c0.03,0.03,0.05,0.07,0.05,0.1v11.7
				c0,0.03-0.02,0.08-0.05,0.15c-0.03,0-0.08,0-0.15,0s-0.12,0-0.15,0c-0.03-0.07-0.05-0.12-0.05-0.15V394
				c0-0.03,0.02-0.07,0.05-0.1c0.03-0.07,0.08-0.1,0.15-0.1S527.67,393.83,527.7,393.9z M532.2,393.65c0.03,0,0.05,0.03,0.05,0.1
				v11.6c0,0.03-0.02,0.08-0.05,0.15c-0.07,0-0.13,0-0.2,0c-0.03,0-0.07,0-0.1,0c-0.07-0.07-0.1-0.12-0.1-0.15v-11.6
				c0-0.07,0.03-0.1,0.1-0.1c0.03-0.07,0.07-0.1,0.1-0.1C532.07,393.55,532.13,393.58,532.2,393.65z M536.3,393.8
				c0-0.07,0.02-0.12,0.05-0.15c0.03-0.03,0.08-0.05,0.15-0.05s0.12,0.02,0.15,0.05c0.03,0.03,0.05,0.08,0.05,0.15v11.1
				c0,0.07-0.02,0.12-0.05,0.15c-0.03,0.03-0.08,0.05-0.15,0.05s-0.12-0.02-0.15-0.05c-0.03-0.03-0.05-0.08-0.05-0.15V393.8z"/>
			<path fill-rule="evenodd" clip-rule="evenodd" fill="#770021" d="M517.75,393.7c0.03,0.03,0.05,0.07,0.05,0.1v11.9
				c0,0.03-0.02,0.08-0.05,0.15c-0.03,0-0.08,0-0.15,0c-0.07,0-0.12,0-0.15,0c-0.03-0.07-0.05-0.12-0.05-0.15v-11.9
				c0-0.03,0.02-0.07,0.05-0.1s0.08-0.05,0.15-0.05C517.67,393.65,517.72,393.67,517.75,393.7z M513.05,393.35
				c0-0.03,0.02-0.07,0.05-0.1c0.03-0.07,0.08-0.1,0.15-0.1s0.12,0.03,0.15,0.1c0.03,0.03,0.05,0.07,0.05,0.1v11.4
				c0,0.07-0.02,0.12-0.05,0.15c-0.03,0.03-0.08,0.05-0.15,0.05s-0.12-0.02-0.15-0.05c-0.03-0.03-0.05-0.08-0.05-0.15V393.35z
				 M522.25,394.05c0-0.03,0.03-0.07,0.1-0.1c0-0.07,0.03-0.1,0.1-0.1s0.13,0.03,0.2,0.1c0.03,0.03,0.05,0.07,0.05,0.1v11.8
				c0,0.03-0.02,0.08-0.05,0.15c-0.07,0-0.13,0-0.2,0h-0.1c-0.07-0.07-0.1-0.12-0.1-0.15V394.05z M531.3,393.75
				c0.07,0,0.12,0.02,0.15,0.05s0.05,0.08,0.05,0.15v11.6c0,0.07-0.02,0.12-0.05,0.15s-0.08,0.05-0.15,0.05s-0.12-0.02-0.15-0.05
				c-0.07-0.03-0.1-0.08-0.1-0.15v-11.6c0-0.07,0.03-0.12,0.1-0.15C531.18,393.77,531.23,393.75,531.3,393.75z M526.9,393.9
				c0.07,0,0.12,0.03,0.15,0.1c0.03,0,0.05,0.03,0.05,0.1v11.65c0,0.07-0.02,0.12-0.05,0.15c-0.03,0.03-0.08,0.05-0.15,0.05
				c-0.07,0-0.12-0.02-0.15-0.05c-0.03-0.03-0.05-0.08-0.05-0.15V394.1c0-0.07,0.02-0.1,0.05-0.1
				C526.78,393.93,526.83,393.9,526.9,393.9z M535.9,393.3c0.03,0.03,0.05,0.08,0.05,0.15v11.7c0,0.03-0.02,0.08-0.05,0.15
				c-0.07,0.03-0.12,0.05-0.15,0.05c-0.07,0-0.12-0.02-0.15-0.05c-0.07-0.07-0.1-0.12-0.1-0.15v-11.7c0-0.07,0.03-0.12,0.1-0.15
				c0.03-0.03,0.08-0.05,0.15-0.05C535.78,393.25,535.83,393.27,535.9,393.3z"/>
		</g>
		<g>
			<path fill-rule="evenodd" clip-rule="evenodd" fill="none" d="M514.25,392.8c7.03,0.7,14.33,0.7,21.9,0"/>
			<path fill-rule="evenodd" clip-rule="evenodd" fill="none" d="M522.1,392.35c2.57,0.57,5.05,0.57,7.45,0"/>
			<path fill-rule="evenodd" clip-rule="evenodd" fill="none" d="M505.2,410.55c9.23,1.1,19.57,1.28,31,0.55"/>
			<path fill-rule="evenodd" clip-rule="evenodd" fill="none" d="M511.5,410.1c10,1.07,19.32,0.95,27.95-0.35"/>
			<path fill-rule="evenodd" clip-rule="evenodd" fill="none" d="M511.7,406c10,1.1,19.35,1,28.05-0.3"/>
			<path fill-rule="evenodd" clip-rule="evenodd" fill="none" d="M512.1,405.35c8.47,1.23,17.47,1.23,27,0"/>
		</g>
		<g>
			
				<radialGradient id="SVGID_9_" cx="485.25" cy="316.8501" r="5.3" gradientTransform="matrix(1 0 0 0.8939 0 33.628)" gradientUnits="userSpaceOnUse">
				<stop  offset="0" style="stop-color:#FFFFFF;stop-opacity:0.4627"/>
				<stop  offset="1" style="stop-color:#FBFBFB;stop-opacity:0"/>
			</radialGradient>
			<path fill-rule="evenodd" clip-rule="evenodd" fill="url(#SVGID_9_)" d="M480.55,316.65c-0.1,0.03-0.22,0.02-0.35-0.05
				c-0.07-0.07-0.12-0.15-0.15-0.25c-0.07-0.1-0.05-0.2,0.05-0.3c0.03-0.07,0.12-0.12,0.25-0.15c2.6-0.7,5.9-0.32,9.9,1.15
				c0.1,0.03,0.17,0.1,0.2,0.2c0.07,0.1,0.08,0.2,0.05,0.3c-0.07,0.1-0.15,0.17-0.25,0.2c-0.13,0.07-0.25,0.08-0.35,0.05
				C486.13,316.4,483.02,316.02,480.55,316.65z"/>
			
				<radialGradient id="SVGID_10_" cx="458.8516" cy="332.4082" r="18.8173" gradientTransform="matrix(1 0 0 0.8938 0 35.3156)" gradientUnits="userSpaceOnUse">
				<stop  offset="0" style="stop-color:#FFFFFF;stop-opacity:0.5765"/>
				<stop  offset="1" style="stop-color:#FBFBFB;stop-opacity:0"/>
			</radialGradient>
			<path fill-rule="evenodd" clip-rule="evenodd" fill="url(#SVGID_10_)" d="M470.6,319.65c0.1-0.07,0.2-0.1,0.3-0.1
				c0.13,0.03,0.23,0.1,0.3,0.2s0.08,0.2,0.05,0.3c-0.03,0.1-0.08,0.18-0.15,0.25c-3.93,2.3-8.38,6.23-13.35,11.8
				c-3.3,3.63-6.8,7.97-10.5,13c-0.07,0.07-0.17,0.12-0.3,0.15c-0.1,0.03-0.2,0.02-0.3-0.05c-0.1-0.07-0.17-0.15-0.2-0.25
				c-0.03-0.1,0-0.2,0.1-0.3c3.73-5.03,7.23-9.38,10.5-13.05C462.08,325.93,466.6,321.95,470.6,319.65z"/>
			
				<radialGradient id="SVGID_11_" cx="515.5996" cy="360.0996" r="35.9125" gradientTransform="matrix(1 0 0 0.8938 0 38.2285)" gradientUnits="userSpaceOnUse">
				<stop  offset="0" style="stop-color:#FFFFFF;stop-opacity:0.498"/>
				<stop  offset="1" style="stop-color:#FBFBFB;stop-opacity:0"/>
			</radialGradient>
			<path fill-rule="evenodd" clip-rule="evenodd" fill="url(#SVGID_11_)" d="M504.05,331.25c-0.03-0.1-0.03-0.22,0-0.35
				c0.03-0.1,0.12-0.17,0.25-0.2c0.07-0.07,0.17-0.07,0.3,0c0.1,0.03,0.18,0.1,0.25,0.2c7.93,13.1,14.17,28.55,18.7,46.35
				c1.07,4.23,2.03,8.63,2.9,13.2c0.03,0.07,0.02,0.15-0.05,0.25c-0.07,0.07-0.17,0.12-0.3,0.15c-0.1,0.03-0.2,0.02-0.3-0.05
				c-0.1-0.07-0.17-0.15-0.2-0.25c-0.9-4.5-1.87-8.88-2.9-13.15C518.17,359.67,511.95,344.28,504.05,331.25z"/>
			
				<radialGradient id="SVGID_12_" cx="497" cy="328.7002" r="10.425" gradientTransform="matrix(1 0 0 0.8933 0 35.0771)" gradientUnits="userSpaceOnUse">
				<stop  offset="0" style="stop-color:#FFFFFF;stop-opacity:0.4314"/>
				<stop  offset="1" style="stop-color:#FBFBFB;stop-opacity:0"/>
			</radialGradient>
			<path fill-rule="evenodd" clip-rule="evenodd" fill="url(#SVGID_12_)" d="M490.2,322.2c-0.03-0.1,0-0.2,0.1-0.3
				c0.07-0.1,0.15-0.17,0.25-0.2c0.1,0,0.22,0.03,0.35,0.1c6.13,3.73,10.93,9.22,14.4,16.45c0.03,0.1,0.03,0.2,0,0.3
				c-0.03,0.07-0.12,0.13-0.25,0.2c-0.1,0.03-0.2,0.05-0.3,0.05c-0.1-0.07-0.18-0.15-0.25-0.25c-3.4-7.1-8.1-12.47-14.1-16.1
				C490.3,322.38,490.23,322.3,490.2,322.2z"/>
		</g>
		
			<radialGradient id="SVGID_13_" cx="65.8979" cy="17.5747" r="22.9155" gradientTransform="matrix(0.2862 0 0 1.8214 525.9503 438.4503)" gradientUnits="userSpaceOnUse">
			<stop  offset="0" style="stop-color:#FFFFFF;stop-opacity:0.3647"/>
			<stop  offset="0.4078" style="stop-color:#FFFFFF;stop-opacity:0.2706"/>
			<stop  offset="1" style="stop-color:#FFFFFF;stop-opacity:0"/>
		</radialGradient>
		<path fill-rule="evenodd" clip-rule="evenodd" fill="url(#SVGID_13_)" d="M544.81,511.3c-1.56,0-2.91-4.01-4.04-12.02
			c-1.12-7.95-1.67-17.55-1.67-28.78c0-11.23,0.56-20.85,1.67-28.87c1.13-8.01,2.47-12.02,4.04-12.02c1.57,0,2.92,4.01,4.04,12.02
			s1.67,17.64,1.67,28.87c0,11.23-0.56,20.82-1.67,28.78C547.73,507.3,546.38,511.3,544.81,511.3z"/>
		
			<radialGradient id="SVGID_14_" cx="65.9014" cy="17.5752" r="22.9135" gradientTransform="matrix(0.2182 0 0 2.4436 492.4002 433.7502)" gradientUnits="userSpaceOnUse">
			<stop  offset="0" style="stop-color:#FFFFFF;stop-opacity:0.3647"/>
			<stop  offset="0.3412" style="stop-color:#FFFFFF;stop-opacity:0.1569"/>
			<stop  offset="0.7451" style="stop-color:#FFFFFF;stop-opacity:0.0627"/>
			<stop  offset="1" style="stop-color:#FFFFFF;stop-opacity:0"/>
		</radialGradient>
		<path fill-rule="evenodd" clip-rule="evenodd" fill="url(#SVGID_14_)" d="M506.78,531.49c-1.19,0-2.22-5.38-3.08-16.13
			c-0.85-10.67-1.28-23.54-1.28-38.61c0-15.07,0.42-27.98,1.28-38.73c0.86-10.75,1.88-16.13,3.08-16.13c1.2,0,2.23,5.38,3.08,16.13
			s1.28,23.66,1.28,38.73c0,15.07-0.43,27.94-1.28,38.61C509,526.12,507.98,531.49,506.78,531.49z"/>
		
			<radialGradient id="SVGID_15_" cx="65.894" cy="17.5732" r="22.9183" gradientTransform="matrix(0 0.1023 -0.7419 0 539.3494 407.9003)" gradientUnits="userSpaceOnUse">
			<stop  offset="0" style="stop-color:#FFFFFF;stop-opacity:0.498"/>
			<stop  offset="0.4078" style="stop-color:#FFFFFF;stop-opacity:0.2706"/>
			<stop  offset="1" style="stop-color:#FFFFFF;stop-opacity:0"/>
		</radialGradient>
		<path fill-rule="evenodd" clip-rule="evenodd" fill="url(#SVGID_15_)" d="M509.67,414.64c0-0.56,1.63-1.04,4.9-1.44
			c3.24-0.4,7.15-0.6,11.72-0.6s8.5,0.2,11.76,0.6c3.26,0.4,4.9,0.88,4.9,1.44c0,0.56-1.63,1.04-4.9,1.44
			c-3.26,0.4-7.18,0.6-11.76,0.6s-8.48-0.2-11.72-0.6C511.3,415.68,509.67,415.2,509.67,414.64z"/>
		
			<radialGradient id="SVGID_16_" cx="65.9004" cy="17.5752" r="22.914" gradientTransform="matrix(0.2548 0.2095 -0.3153 0.3215 492.4008 399.7997)" gradientUnits="userSpaceOnUse">
			<stop  offset="0" style="stop-color:#FFFFFF;stop-opacity:0.251"/>
			<stop  offset="0.5333" style="stop-color:#FFFFFF;stop-opacity:0.0471"/>
			<stop  offset="0.7451" style="stop-color:#FFFFFF;stop-opacity:0.0275"/>
			<stop  offset="1" style="stop-color:#FFFFFF;stop-opacity:0"/>
		</radialGradient>
		<path fill-rule="evenodd" clip-rule="evenodd" fill="url(#SVGID_16_)" d="M496.58,426.46c-1.39-1.14-1.9-2.84-1.51-5.08
			c0.38-2.22,1.55-4.32,3.49-6.3s4.11-3.27,6.49-3.87c2.39-0.59,4.28-0.31,5.67,0.83c1.4,1.15,1.9,2.84,1.51,5.08
			s-1.56,4.34-3.51,6.32s-4.1,3.27-6.47,3.85C499.87,427.89,497.98,427.61,496.58,426.46z"/>
		
			<radialGradient id="SVGID_17_" cx="65.8975" cy="17.5762" r="22.9149" gradientTransform="matrix(-0.2182 0.2402 -0.3785 -0.2614 569.2994 408.7504)" gradientUnits="userSpaceOnUse">
			<stop  offset="0" style="stop-color:#FFFFFF;stop-opacity:0.251"/>
			<stop  offset="0.5333" style="stop-color:#FFFFFF;stop-opacity:0.0471"/>
			<stop  offset="0.7451" style="stop-color:#FFFFFF;stop-opacity:0.0275"/>
			<stop  offset="1" style="stop-color:#FFFFFF;stop-opacity:0"/>
		</radialGradient>
		<path fill-rule="evenodd" clip-rule="evenodd" fill="url(#SVGID_17_)" d="M539.78,414.13c1.19-1.31,3.05-1.87,5.57-1.66
			c2.5,0.21,4.92,1.11,7.26,2.72s3.91,3.46,4.72,5.55c0.81,2.09,0.62,3.8-0.58,5.11c-1.2,1.32-3.06,1.88-5.57,1.66
			c-2.52-0.21-4.94-1.13-7.28-2.74s-3.9-3.46-4.7-5.54C538.39,417.15,538.58,415.45,539.78,414.13z"/>
		<g>
			<path fill-rule="evenodd" clip-rule="evenodd" fill="#FFFFFF" d="M494.45,453.4c19.6,1.07,40.4,1.07,62.4,0v30.35
				c-20.5,2.57-41.3,2.77-62.4,0.6V453.4z"/>
		</g>
		<g>
			<path fill-rule="evenodd" clip-rule="evenodd" d="M513.15,459.8c0.93,0,1.63,0.18,2.1,0.55c0.47,0.37,0.7,0.85,0.7,1.45
				l-1.45,0.1c-0.07-0.33-0.22-0.58-0.45-0.75c-0.2-0.17-0.52-0.25-0.95-0.25c-0.43,0-0.77,0.08-1,0.25
				c-0.17,0.1-0.25,0.23-0.25,0.4c0,0.17,0.08,0.3,0.25,0.4c0.2,0.17,0.65,0.32,1.35,0.45c0.73,0.17,1.28,0.33,1.65,0.5
				c0.33,0.17,0.6,0.38,0.8,0.65c0.17,0.3,0.25,0.65,0.25,1.05c0,0.4-0.1,0.77-0.3,1.1c-0.23,0.33-0.57,0.57-1,0.7
				c-0.43,0.17-0.97,0.25-1.6,0.25c-0.97,0-1.68-0.2-2.15-0.6c-0.53-0.37-0.83-0.92-0.9-1.65l1.4-0.15c0.1,0.43,0.28,0.77,0.55,1
				c0.27,0.2,0.63,0.3,1.1,0.3c0.5,0,0.85-0.1,1.05-0.3c0.27-0.17,0.4-0.38,0.4-0.65c0-0.13-0.05-0.25-0.15-0.35
				c-0.1-0.13-0.28-0.25-0.55-0.35c-0.17-0.03-0.57-0.12-1.2-0.25c-0.8-0.17-1.35-0.38-1.65-0.65c-0.47-0.37-0.7-0.82-0.7-1.35
				c0-0.33,0.1-0.65,0.3-0.95c0.23-0.3,0.55-0.52,0.95-0.65C512.1,459.88,512.58,459.8,513.15,459.8z M509.1,459.85v6.6l-1.5-0.05
				v-6.65L509.1,459.85z M525.2,460.15v6.6h-1.5v-6.6H525.2z M522.8,461.25h-2.2v5.5h-1.5v-5.5h-2.2v-1.1h5.9V461.25z
				 M505.45,460.25c0.3,0.33,0.55,0.72,0.75,1.15c0.13,0.43,0.2,0.97,0.2,1.6c0,0.53-0.07,1-0.2,1.4c-0.2,0.43-0.47,0.8-0.8,1.1
				c-0.27,0.17-0.62,0.3-1.05,0.4c-0.33,0.1-0.77,0.13-1.3,0.1l-2.85-0.25v-6.6l2.75,0.25c0.6,0,1.07,0.05,1.4,0.15
				C504.78,459.72,505.15,459.95,505.45,460.25z M501.7,460.4v4.35l1.1,0.1c0.43,0.03,0.75,0.03,0.95,0c0.2-0.03,0.4-0.12,0.6-0.25
				c0.13-0.1,0.25-0.28,0.35-0.55c0.13-0.33,0.2-0.75,0.2-1.25s-0.07-0.88-0.2-1.15c-0.1-0.3-0.23-0.53-0.4-0.7
				c-0.17-0.17-0.4-0.28-0.7-0.35c-0.2-0.07-0.6-0.13-1.2-0.2H501.7z M524.7,472.35l5.9-0.1v1.1l-2.2,0.05v5.5l-1.5,0.05v-5.5h-2.2
				V472.35z M519.7,476.3h2.05l-1.05-2.45L519.7,476.3z M517.05,478.9l2.85-6.6h1.6l2.95,6.65h-1.6l-0.65-1.5l-2.95-0.05l-0.6,1.5
				H517.05z M508.8,471.95l1.15,4.6l1.35-4.45h1.75l1.3,4.7l1.15-4.55h1.5l-1.75,6.55h-1.6l-1.5-5.05l-1.5,4.9l-1.6-0.05l-1.75-6.7
				L508.8,471.95z M552.2,463.4c-0.2,0.5-0.47,0.92-0.8,1.25c-0.27,0.23-0.62,0.43-1.05,0.6c-0.33,0.13-0.77,0.23-1.3,0.3l-2.85,0.2
				v-6.6l2.75-0.25c0.6-0.03,1.07-0.03,1.4,0c0.43,0.1,0.8,0.27,1.1,0.5c0.3,0.3,0.55,0.63,0.75,1c0.13,0.43,0.2,0.97,0.2,1.6
				C552.4,462.53,552.33,463,552.2,463.4z M549.6,460.05c-0.2-0.03-0.6-0.03-1.2,0l-0.7,0.1v4.4l1.1-0.15c0.4,0,0.7-0.05,0.9-0.15
				c0.23-0.07,0.45-0.18,0.65-0.35c0.13-0.1,0.25-0.3,0.35-0.6c0.13-0.33,0.2-0.75,0.2-1.25c0-0.53-0.07-0.92-0.2-1.15
				c-0.1-0.27-0.23-0.47-0.4-0.6C550.1,460.13,549.87,460.05,549.6,460.05z M534.5,460v5.4l3.7-0.15v1.15l-5.2,0.2v-6.55L534.5,460z
				 M528.2,460.2v5.4l3.7-0.05v1.1l-5.2,0.1v-6.55H528.2z M544.8,460.4l-4,0.25v1.45l3.7-0.2v1.1l-3.7,0.25v1.8l4.15-0.3v1.15
				l-5.65,0.35v-6.6l5.5-0.4V460.4z M544.2,472.4c0.2,0.27,0.3,0.6,0.3,1c0,0.5-0.15,0.92-0.45,1.25c-0.37,0.37-0.87,0.62-1.5,0.75
				c0.33,0.13,0.6,0.3,0.8,0.5c0.23,0.17,0.52,0.5,0.85,1l0.9,1.2l-1.75,0.15l-1.1-1.35c-0.4-0.5-0.67-0.82-0.8-0.95
				c-0.13-0.13-0.28-0.2-0.45-0.2c-0.17-0.07-0.42-0.08-0.75-0.05l-0.3,0.05v2.75l-1.45,0.1V472l3.15-0.25
				c0.77-0.07,1.33-0.05,1.7,0.05C543.68,471.87,543.97,472.07,544.2,472.4z M542.25,472.85c-0.17,0-0.55,0.02-1.15,0.05l-1.15,0.1
				v1.7l1.1-0.1c0.73-0.03,1.18-0.08,1.35-0.15c0.17-0.07,0.32-0.18,0.45-0.35c0.07-0.13,0.1-0.3,0.1-0.5c0-0.23-0.05-0.4-0.15-0.5
				C542.63,472.97,542.45,472.88,542.25,472.85z M537.05,473.1l-4,0.15v1.45l3.7-0.15v1.1l-3.7,0.15v1.8l4.15-0.15v1.15l-5.65,0.2
				v-6.6l5.5-0.25V473.1z"/>
		</g>
	</g>
</g>
</svg>
