<?xml version="1.0" encoding="utf-8"?>
<!-- Generator: Adobe Illustrator 16.0.0, SVG Export Plug-In . SVG Version: 6.00 Build 0)  -->
<!DOCTYPE svg PUBLIC "-//W3C//DTD SVG 1.1//EN" "http://www.w3.org/Graphics/SVG/1.1/DTD/svg11.dtd">
<svg version="1.1" id="Layer_1" xmlns="http://www.w3.org/2000/svg" xmlns:xlink="http://www.w3.org/1999/xlink" x="0px" y="0px"
	 width="700px" height="700px" viewBox="0 0 700 700" enable-background="new 0 0 700 700" xml:space="preserve">
<g>
	<g>
		<path fill-rule="evenodd" clip-rule="evenodd" fill="#FFFFFF" fill-opacity="0.298" d="M654.25,618.5
			c-0.6,5.13-5.07,8.57-13.4,10.3c-12.4,2-24.68,2-36.85,0c-9.63-1.83-14.38-5.38-14.25-10.65V545.2h64.5V618.5z"/>
	</g>
	<g>
		<rect x="589.7" y="544.5" fill-rule="evenodd" clip-rule="evenodd" fill="#FFFFFF" width="64.5" height="0.7"/>
	</g>
	<g>
		<g>
			<linearGradient id="SVGID_1_" gradientUnits="userSpaceOnUse" x1="597.1504" y1="572.2871" x2="648.0996" y2="572.2871">
				<stop  offset="7.843138e-003" style="stop-color:#000000;stop-opacity:0"/>
				<stop  offset="0.2863" style="stop-color:#000000;stop-opacity:0.0431"/>
				<stop  offset="0.5647" style="stop-color:#000000;stop-opacity:0.0627"/>
				<stop  offset="0.8353" style="stop-color:#000000;stop-opacity:0"/>
				<stop  offset="1" style="stop-color:#000000;stop-opacity:0"/>
			</linearGradient>
			<path fill-rule="evenodd" clip-rule="evenodd" fill="url(#SVGID_1_)" d="M648.1,626.6c-17.47,5.43-34.45,5.43-50.95,0V513.9
				h50.95V626.6z"/>
		</g>
		<g>
			<linearGradient id="SVGID_2_" gradientUnits="userSpaceOnUse" x1="619.7373" y1="571.0879" x2="625.0623" y2="571.0879">
				<stop  offset="0" style="stop-color:#FFFFFF;stop-opacity:0.1294"/>
				<stop  offset="0.5098" style="stop-color:#FFFFFF"/>
				<stop  offset="1" style="stop-color:#FFFFFF;stop-opacity:0.3922"/>
			</linearGradient>
			<path fill-rule="evenodd" clip-rule="evenodd" fill="url(#SVGID_2_)" d="M625.3,514.3v112.75c-1.9,1.1-3.8,1.1-5.7,0V514.3H625.3
				z"/>
		</g>
		<g>
			<linearGradient id="SVGID_3_" gradientUnits="userSpaceOnUse" x1="600.25" y1="509.3828" x2="642.25" y2="509.3828">
				<stop  offset="0" style="stop-color:#BAC1D1;stop-opacity:0.8431"/>
				<stop  offset="0.2078" style="stop-color:#AFB8C8;stop-opacity:0.5922"/>
				<stop  offset="0.4745" style="stop-color:#A5B0C0;stop-opacity:0.3176"/>
				<stop  offset="0.8039" style="stop-color:#B2BACA;stop-opacity:0.6275"/>
				<stop  offset="0.8784" style="stop-color:#B5BCCC;stop-opacity:0.5922"/>
				<stop  offset="1" style="stop-color:#BAC1D1;stop-opacity:0.8"/>
			</linearGradient>
			<path fill-rule="evenodd" clip-rule="evenodd" fill="url(#SVGID_3_)" d="M622.6,511.55c-3.03,0.03-5.98,0.02-8.85-0.05
				c-2.7-0.13-5.15-0.32-7.35-0.55c-1.53-0.17-2.77-0.33-3.7-0.5c-1.63-0.3-2.45-0.67-2.45-1.1c0-0.33,0.82-0.67,2.45-1
				c0.93-0.17,2.17-0.33,3.7-0.5c4.13-0.43,9.1-0.65,14.9-0.65s10.73,0.22,14.8,0.65c4.13,0.43,6.2,0.88,6.2,1.35
				c0,0.3-0.78,0.6-2.35,0.9C634.28,510.97,628.5,511.45,622.6,511.55z"/>
		</g>
		<g>
			<linearGradient id="SVGID_4_" gradientUnits="userSpaceOnUse" x1="607.5898" y1="498.957" x2="635.9004" y2="498.957">
				<stop  offset="0" style="stop-color:#7E0127"/>
				<stop  offset="0.2392" style="stop-color:#98012A"/>
				<stop  offset="0.4941" style="stop-color:#A0002B"/>
				<stop  offset="0.7686" style="stop-color:#810328"/>
				<stop  offset="1" style="stop-color:#4A0218"/>
			</linearGradient>
			<path fill-rule="evenodd" clip-rule="evenodd" fill="url(#SVGID_4_)" d="M612.2,491.15c0.1,0,0.25,0,0.45,0h19.1
				c2.4,0.07,3.78,1.08,4.15,3.05v0.25V505c-0.2,0.73-1.2,1.15-3,1.25c-7.67,0.7-15.27,0.68-22.8-0.05
				c-1.93-0.27-2.75-0.77-2.45-1.5v-10.25v-0.05C607.78,492.3,609.3,491.22,612.2,491.15z"/>
		</g>
		<g>
			<linearGradient id="SVGID_5_" gradientUnits="userSpaceOnUse" x1="606.7559" y1="507.2754" x2="636.6058" y2="507.2754">
				<stop  offset="0" style="stop-color:#C6B3B0"/>
				<stop  offset="0.4784" style="stop-color:#DBCFCD"/>
				<stop  offset="1" style="stop-color:#A28380"/>
			</linearGradient>
			<path fill-rule="evenodd" clip-rule="evenodd" fill="url(#SVGID_5_)" d="M636.7,507.2c-0.13,1.23-0.38,1.9-0.75,2
				c-9.77,1-19.28,1-28.55,0c-0.17-0.3-0.35-0.83-0.55-1.6c-0.23-1-0.03-2,0.6-3c9.37,1.17,18.73,1.17,28.1,0
				C636.42,505.1,636.8,505.97,636.7,507.2z"/>
		</g>
		<g>
			<linearGradient id="SVGID_6_" gradientUnits="userSpaceOnUse" x1="614.3877" y1="491.3623" x2="629.5127" y2="491.3623">
				<stop  offset="0" style="stop-color:#A1002C"/>
				<stop  offset="1" style="stop-color:#4B0117"/>
			</linearGradient>
			<path fill-rule="evenodd" clip-rule="evenodd" fill="url(#SVGID_6_)" d="M630.05,491.9c-2.23,0.17-4.93,0.25-8.1,0.25
				c-3.17,0-5.88-0.08-8.15-0.25c-2.23-0.13-3.35-0.28-3.35-0.45c0-0.03,0.28-0.12,0.85-0.25c7.1-0.83,14.2-0.83,21.3,0
				c0.53,0.13,0.8,0.22,0.8,0.25C633.4,491.62,632.28,491.77,630.05,491.9z"/>
		</g>
		<g>
			<linearGradient id="SVGID_7_" gradientUnits="userSpaceOnUse" x1="589.6973" y1="569.9248" x2="654.2002" y2="569.9248">
				<stop  offset="0" style="stop-color:#BAC1D1;stop-opacity:0.8431"/>
				<stop  offset="0.2078" style="stop-color:#AFB8C8;stop-opacity:0.5922"/>
				<stop  offset="0.4745" style="stop-color:#A5B0C0;stop-opacity:0.3176"/>
				<stop  offset="0.8039" style="stop-color:#B2BACA;stop-opacity:0.6275"/>
				<stop  offset="0.8784" style="stop-color:#B5BCCC;stop-opacity:0.5922"/>
				<stop  offset="1" style="stop-color:#BAC1D1;stop-opacity:0.8"/>
			</linearGradient>
			<path fill-rule="evenodd" clip-rule="evenodd" fill="url(#SVGID_7_)" d="M654.2,519.9v0.55v11.5v86.75
				c-0.6,5.13-5.07,8.57-13.4,10.3c-12.4,2-24.68,2-36.85,0c-9.63-1.83-14.38-5.38-14.25-10.65v-97.9c0.6-2.3,1.77-4.47,3.5-6.5
				c0.33-0.37,0.67-0.72,1-1.05c1.83-1.9,3.92-3.08,6.25-3.55c13.63,1.73,27.27,1.73,40.9,0h0.2c3.13,0.4,5.83,1.58,8.1,3.55
				c0.3,0.2,0.6,0.45,0.9,0.75C652.55,515.62,653.77,517.7,654.2,519.9z"/>
			
				<radialGradient id="SVGID_8_" cx="609.1504" cy="470.0498" r="29.3" gradientTransform="matrix(1 0 0 0.8622 0 64.7722)" gradientUnits="userSpaceOnUse">
				<stop  offset="0" style="stop-color:#A0002B"/>
				<stop  offset="0.6" style="stop-color:#75021F"/>
				<stop  offset="0.9804" style="stop-color:#980E2F"/>
			</radialGradient>
			<path fill-rule="evenodd" clip-rule="evenodd" fill="url(#SVGID_8_)" d="M617.5,491.25v-0.15v-0.45
				c-14.97-70.6-36.27-88.2-63.9-52.8c-1.6,2.03-3.22,4.23-4.85,6.6c-2.63,1.43-5.08,1.3-7.35-0.4c4.17-6.03,8.23-11.15,12.2-15.35
				c30.4-32.53,54.18-11.73,71.35,62.4v0.25C622.48,491.65,620,491.62,617.5,491.25z"/>
		</g>
		<g>
			<path fill-rule="evenodd" clip-rule="evenodd" fill="#FF3E73" fill-opacity="0.3294" d="M610.3,492.55
				c0.03,0.03,0.05,0.07,0.05,0.1v11.6c0,0.07-0.02,0.12-0.05,0.15c-0.07,0.03-0.12,0.05-0.15,0.05c-0.07,0-0.12-0.02-0.15-0.05
				c-0.07-0.03-0.1-0.08-0.1-0.15v-11.6c0-0.03,0.03-0.07,0.1-0.1c0.03-0.03,0.08-0.05,0.15-0.05
				C610.18,492.5,610.23,492.52,610.3,492.55z M619.55,492.95c0.03,0.03,0.05,0.07,0.05,0.1v11.75c0,0.03-0.02,0.08-0.05,0.15
				c-0.03,0.03-0.08,0.05-0.15,0.05c-0.07,0-0.12-0.02-0.15-0.05c-0.03-0.07-0.05-0.12-0.05-0.15v-11.75c0-0.03,0.02-0.07,0.05-0.1
				c0.03-0.07,0.08-0.1,0.15-0.1C619.47,492.85,619.52,492.88,619.55,492.95z M614.4,493c0-0.07,0.03-0.12,0.1-0.15
				c0.03-0.03,0.07-0.05,0.1-0.05c0.07,0,0.13,0.02,0.2,0.05c0.03,0.03,0.05,0.08,0.05,0.15v11.85c0,0.03-0.02,0.08-0.05,0.15
				c-0.07,0-0.13,0-0.2,0c-0.03,0-0.07,0-0.1,0c-0.07-0.07-0.1-0.12-0.1-0.15V493z M623.75,492.8c0.07,0,0.12,0.03,0.15,0.1
				c0.03,0.03,0.05,0.07,0.05,0.1v11.7c0,0.03-0.02,0.08-0.05,0.15c-0.03,0-0.08,0-0.15,0s-0.12,0-0.15,0
				c-0.03-0.07-0.05-0.12-0.05-0.15V493c0-0.03,0.02-0.07,0.05-0.1C623.63,492.83,623.68,492.8,623.75,492.8z M632.5,492.8
				c0-0.07,0.02-0.12,0.05-0.15c0.03-0.03,0.08-0.05,0.15-0.05s0.12,0.02,0.15,0.05c0.03,0.03,0.05,0.08,0.05,0.15v11.1
				c0,0.07-0.02,0.12-0.05,0.15c-0.03,0.03-0.08,0.05-0.15,0.05s-0.12-0.02-0.15-0.05s-0.05-0.08-0.05-0.15V492.8z M628.1,492.65
				c0.03-0.07,0.07-0.1,0.1-0.1c0.07,0,0.13,0.03,0.2,0.1c0.03,0,0.05,0.03,0.05,0.1v11.6c0,0.03-0.02,0.08-0.05,0.15
				c-0.07,0-0.13,0-0.2,0c-0.03,0-0.07,0-0.1,0c-0.07-0.07-0.1-0.12-0.1-0.15v-11.6C628,492.68,628.03,492.65,628.1,492.65z"/>
			<path fill-rule="evenodd" clip-rule="evenodd" fill="#770021" d="M613.95,492.7c0.03,0.03,0.05,0.07,0.05,0.1v11.9
				c0,0.03-0.02,0.08-0.05,0.15c-0.03,0-0.08,0-0.15,0s-0.12,0-0.15,0c-0.03-0.07-0.05-0.12-0.05-0.15v-11.9
				c0-0.03,0.02-0.07,0.05-0.1c0.03-0.03,0.08-0.05,0.15-0.05S613.92,492.67,613.95,492.7z M609.25,492.35
				c0-0.03,0.02-0.07,0.05-0.1c0.03-0.07,0.08-0.1,0.15-0.1s0.12,0.03,0.15,0.1c0.03,0.03,0.05,0.07,0.05,0.1v11.4
				c0,0.07-0.02,0.12-0.05,0.15c-0.03,0.03-0.08,0.05-0.15,0.05s-0.12-0.02-0.15-0.05c-0.03-0.03-0.05-0.08-0.05-0.15V492.35z
				 M622.95,493c0.03-0.07,0.08-0.1,0.15-0.1c0.07,0,0.12,0.03,0.15,0.1c0.03,0,0.05,0.03,0.05,0.1v11.65
				c0,0.07-0.02,0.12-0.05,0.15c-0.03,0.03-0.08,0.05-0.15,0.05c-0.07,0-0.12-0.02-0.15-0.05c-0.03-0.03-0.05-0.08-0.05-0.15V493.1
				C622.9,493.03,622.92,493,622.95,493z M618.55,492.95c0-0.07,0.03-0.1,0.1-0.1c0.07,0,0.13,0.03,0.2,0.1
				c0.03,0.03,0.05,0.07,0.05,0.1v11.8c0,0.03-0.02,0.08-0.05,0.15c-0.07,0-0.13,0-0.2,0h-0.1c-0.07-0.07-0.1-0.12-0.1-0.15v-11.8
				C618.45,493.02,618.48,492.98,618.55,492.95z M627.35,492.8c0.03-0.03,0.08-0.05,0.15-0.05s0.12,0.02,0.15,0.05
				c0.03,0.03,0.05,0.08,0.05,0.15v11.6c0,0.07-0.02,0.12-0.05,0.15c-0.03,0.03-0.08,0.05-0.15,0.05s-0.12-0.02-0.15-0.05
				c-0.07-0.03-0.1-0.08-0.1-0.15v-11.6C627.25,492.88,627.28,492.83,627.35,492.8z M631.8,492.3c0.03-0.03,0.08-0.05,0.15-0.05
				c0.03,0,0.08,0.02,0.15,0.05c0.03,0.03,0.05,0.08,0.05,0.15v11.7c0,0.03-0.02,0.08-0.05,0.15c-0.07,0.03-0.12,0.05-0.15,0.05
				c-0.07,0-0.12-0.02-0.15-0.05c-0.07-0.07-0.1-0.12-0.1-0.15v-11.7C631.7,492.38,631.73,492.33,631.8,492.3z"/>
		</g>
		<g>
			<path fill-rule="evenodd" clip-rule="evenodd" fill="none" d="M610.45,491.8c7.03,0.7,14.33,0.7,21.9,0"/>
			<path fill-rule="evenodd" clip-rule="evenodd" fill="none" d="M618.3,491.35c2.57,0.57,5.05,0.57,7.45,0"/>
			<path fill-rule="evenodd" clip-rule="evenodd" fill="none" d="M607.7,509.1c10,1.07,19.32,0.95,27.95-0.35"/>
			<path fill-rule="evenodd" clip-rule="evenodd" fill="none" d="M607.9,505c10,1.1,19.35,1,28.05-0.3"/>
			<path fill-rule="evenodd" clip-rule="evenodd" fill="none" d="M608.3,504.35c8.47,1.23,17.47,1.23,27,0"/>
			<path fill-rule="evenodd" clip-rule="evenodd" fill="none" d="M601.4,509.55c9.23,1.1,19.57,1.28,31,0.55"/>
		</g>
		<g>
			
				<radialGradient id="SVGID_9_" cx="581.4502" cy="415.8496" r="5.3" gradientTransform="matrix(1 0 0 0.8939 0 44.135)" gradientUnits="userSpaceOnUse">
				<stop  offset="0" style="stop-color:#FFFFFF;stop-opacity:0.4627"/>
				<stop  offset="1" style="stop-color:#FBFBFB;stop-opacity:0"/>
			</radialGradient>
			<path fill-rule="evenodd" clip-rule="evenodd" fill="url(#SVGID_9_)" d="M576.25,415.35c-0.07-0.1-0.05-0.2,0.05-0.3
				c0.03-0.07,0.12-0.12,0.25-0.15c2.6-0.7,5.9-0.32,9.9,1.15c0.1,0.03,0.17,0.1,0.2,0.2c0.07,0.1,0.08,0.2,0.05,0.3
				c-0.07,0.1-0.15,0.17-0.25,0.2c-0.13,0.07-0.25,0.08-0.35,0.05c-3.77-1.4-6.88-1.78-9.35-1.15c-0.1,0.03-0.22,0.02-0.35-0.05
				C576.33,415.53,576.28,415.45,576.25,415.35z"/>
			
				<radialGradient id="SVGID_10_" cx="555.0527" cy="431.4082" r="18.8169" gradientTransform="matrix(1 0 0 0.8938 0 45.8336)" gradientUnits="userSpaceOnUse">
				<stop  offset="0" style="stop-color:#FFFFFF;stop-opacity:0.5765"/>
				<stop  offset="1" style="stop-color:#FBFBFB;stop-opacity:0"/>
			</radialGradient>
			<path fill-rule="evenodd" clip-rule="evenodd" fill="url(#SVGID_10_)" d="M567.1,418.55c0.13,0.03,0.23,0.1,0.3,0.2
				c0.07,0.1,0.08,0.2,0.05,0.3c-0.03,0.1-0.08,0.18-0.15,0.25c-3.93,2.3-8.38,6.23-13.35,11.8c-3.3,3.63-6.8,7.97-10.5,13
				c-0.07,0.07-0.17,0.12-0.3,0.15c-0.1,0.03-0.2,0.02-0.3-0.05c-0.1-0.07-0.17-0.15-0.2-0.25c-0.03-0.1,0-0.2,0.1-0.3
				c3.73-5.03,7.23-9.38,10.5-13.05c5.03-5.67,9.55-9.65,13.55-11.95C566.9,418.58,567,418.55,567.1,418.55z"/>
			
				<radialGradient id="SVGID_11_" cx="593.2002" cy="427.7002" r="10.425" gradientTransform="matrix(1 0 0 0.8933 0 45.6418)" gradientUnits="userSpaceOnUse">
				<stop  offset="0" style="stop-color:#FFFFFF;stop-opacity:0.4314"/>
				<stop  offset="1" style="stop-color:#FBFBFB;stop-opacity:0"/>
			</radialGradient>
			<path fill-rule="evenodd" clip-rule="evenodd" fill="url(#SVGID_11_)" d="M586.6,421.45c-0.1-0.07-0.17-0.15-0.2-0.25
				c-0.03-0.1,0-0.2,0.1-0.3c0.07-0.1,0.15-0.17,0.25-0.2c0.1,0,0.22,0.03,0.35,0.1c6.13,3.73,10.93,9.22,14.4,16.45
				c0.03,0.1,0.03,0.2,0,0.3c-0.03,0.07-0.12,0.13-0.25,0.2c-0.1,0.03-0.2,0.05-0.3,0.05c-0.1-0.07-0.18-0.15-0.25-0.25
				C597.3,430.45,592.6,425.08,586.6,421.45z"/>
			
				<radialGradient id="SVGID_12_" cx="611.7998" cy="459.0996" r="35.9125" gradientTransform="matrix(1 0 0 0.8938 0 48.7384)" gradientUnits="userSpaceOnUse">
				<stop  offset="0" style="stop-color:#FFFFFF;stop-opacity:0.498"/>
				<stop  offset="1" style="stop-color:#FBFBFB;stop-opacity:0"/>
			</radialGradient>
			<path fill-rule="evenodd" clip-rule="evenodd" fill="url(#SVGID_12_)" d="M600.25,429.9c0.03-0.1,0.12-0.17,0.25-0.2
				c0.07-0.07,0.17-0.07,0.3,0c0.1,0.03,0.18,0.1,0.25,0.2c7.93,13.1,14.17,28.55,18.7,46.35c1.07,4.23,2.03,8.63,2.9,13.2
				c0.03,0.07,0.02,0.15-0.05,0.25c-0.07,0.07-0.17,0.12-0.3,0.15c-0.1,0.03-0.2,0.02-0.3-0.05s-0.17-0.15-0.2-0.25
				c-0.9-4.5-1.87-8.88-2.9-13.15c-4.53-17.73-10.75-33.12-18.65-46.15C600.22,430.15,600.22,430.03,600.25,429.9z"/>
		</g>
		
			<radialGradient id="SVGID_13_" cx="65.8975" cy="17.5747" r="22.9157" gradientTransform="matrix(0.2862 0 0 1.8214 622.1505 537.4503)" gradientUnits="userSpaceOnUse">
			<stop  offset="0" style="stop-color:#FFFFFF;stop-opacity:0.3647"/>
			<stop  offset="0.4078" style="stop-color:#FFFFFF;stop-opacity:0.2706"/>
			<stop  offset="1" style="stop-color:#FFFFFF;stop-opacity:0"/>
		</radialGradient>
		<path fill-rule="evenodd" clip-rule="evenodd" fill="url(#SVGID_13_)" d="M641.01,610.3c-1.56,0-2.91-4.01-4.04-12.02
			c-1.12-7.95-1.67-17.55-1.67-28.78c0-11.23,0.56-20.85,1.67-28.87c1.13-8.01,2.47-12.02,4.04-12.02c1.57,0,2.92,4.01,4.04,12.02
			s1.67,17.64,1.67,28.87c0,11.23-0.56,20.82-1.67,28.78C643.93,606.3,642.58,610.3,641.01,610.3z"/>
		
			<radialGradient id="SVGID_14_" cx="65.9019" cy="17.5742" r="22.9138" gradientTransform="matrix(0.2182 0 0 2.4436 588.5994 532.7502)" gradientUnits="userSpaceOnUse">
			<stop  offset="0" style="stop-color:#FFFFFF;stop-opacity:0.3647"/>
			<stop  offset="0.3412" style="stop-color:#FFFFFF;stop-opacity:0.1569"/>
			<stop  offset="0.7451" style="stop-color:#FFFFFF;stop-opacity:0.0627"/>
			<stop  offset="1" style="stop-color:#FFFFFF;stop-opacity:0"/>
		</radialGradient>
		<path fill-rule="evenodd" clip-rule="evenodd" fill="url(#SVGID_14_)" d="M602.98,630.49c-1.19,0-2.22-5.38-3.08-16.13
			c-0.85-10.67-1.28-23.54-1.28-38.61c0-15.07,0.42-27.98,1.28-38.73c0.86-10.75,1.88-16.13,3.08-16.13c1.2,0,2.23,5.38,3.08,16.13
			s1.28,23.66,1.28,38.73c0,15.07-0.43,27.94-1.28,38.61C605.2,625.12,604.18,630.49,602.98,630.49z"/>
		
			<radialGradient id="SVGID_15_" cx="65.8945" cy="17.5732" r="22.918" gradientTransform="matrix(0 0.1023 -0.7419 0 635.5496 506.9003)" gradientUnits="userSpaceOnUse">
			<stop  offset="0" style="stop-color:#FFFFFF;stop-opacity:0.498"/>
			<stop  offset="0.4078" style="stop-color:#FFFFFF;stop-opacity:0.2706"/>
			<stop  offset="1" style="stop-color:#FFFFFF;stop-opacity:0"/>
		</radialGradient>
		<path fill-rule="evenodd" clip-rule="evenodd" fill="url(#SVGID_15_)" d="M605.87,513.64c0-0.56,1.63-1.04,4.9-1.44
			c3.24-0.4,7.15-0.6,11.72-0.6s8.5,0.2,11.76,0.6c3.26,0.4,4.9,0.88,4.9,1.44c0,0.56-1.63,1.04-4.9,1.44
			c-3.26,0.4-7.18,0.6-11.76,0.6s-8.48-0.2-11.72-0.6C607.5,514.68,605.87,514.2,605.87,513.64z"/>
		
			<radialGradient id="SVGID_16_" cx="65.9004" cy="17.5752" r="22.914" gradientTransform="matrix(0.2548 0.2095 -0.3153 0.3215 588.6 498.8)" gradientUnits="userSpaceOnUse">
			<stop  offset="0" style="stop-color:#FFFFFF;stop-opacity:0.251"/>
			<stop  offset="0.5333" style="stop-color:#FFFFFF;stop-opacity:0.0471"/>
			<stop  offset="0.7451" style="stop-color:#FFFFFF;stop-opacity:0.0275"/>
			<stop  offset="1" style="stop-color:#FFFFFF;stop-opacity:0"/>
		</radialGradient>
		<path fill-rule="evenodd" clip-rule="evenodd" fill="url(#SVGID_16_)" d="M592.78,525.46c-1.39-1.14-1.9-2.84-1.51-5.08
			c0.38-2.22,1.55-4.32,3.49-6.3s4.11-3.27,6.49-3.87c2.39-0.59,4.28-0.31,5.67,0.83c1.4,1.15,1.9,2.84,1.51,5.08
			s-1.56,4.34-3.51,6.32s-4.1,3.27-6.47,3.85C596.07,526.89,594.18,526.61,592.78,525.46z"/>
		
			<radialGradient id="SVGID_17_" cx="65.8984" cy="17.5742" r="22.9155" gradientTransform="matrix(-0.2182 0.2402 -0.3785 -0.2614 665.4996 507.7504)" gradientUnits="userSpaceOnUse">
			<stop  offset="0" style="stop-color:#FFFFFF;stop-opacity:0.251"/>
			<stop  offset="0.5333" style="stop-color:#FFFFFF;stop-opacity:0.0471"/>
			<stop  offset="0.7451" style="stop-color:#FFFFFF;stop-opacity:0.0275"/>
			<stop  offset="1" style="stop-color:#FFFFFF;stop-opacity:0"/>
		</radialGradient>
		<path fill-rule="evenodd" clip-rule="evenodd" fill="url(#SVGID_17_)" d="M635.98,513.13c1.19-1.31,3.05-1.87,5.57-1.66
			c2.5,0.21,4.92,1.11,7.26,2.72s3.91,3.46,4.72,5.55c0.81,2.09,0.62,3.8-0.58,5.11c-1.2,1.32-3.06,1.88-5.57,1.66
			c-2.52-0.21-4.94-1.13-7.28-2.74c-2.33-1.61-3.9-3.46-4.7-5.54C634.59,516.15,634.78,514.45,635.98,513.13z"/>
		<g>
			<path fill-rule="evenodd" clip-rule="evenodd" fill="#FFFFFF" d="M653.05,582.75c-20.5,2.57-41.3,2.77-62.4,0.6V552.4
				c19.6,1.07,40.4,1.07,62.4,0V582.75z"/>
		</g>
		<g>
			<path fill-rule="evenodd" clip-rule="evenodd" d="M648.6,561c0,0.53-0.07,1-0.2,1.4c-0.2,0.5-0.47,0.92-0.8,1.25
				c-0.27,0.23-0.62,0.43-1.05,0.6c-0.33,0.13-0.77,0.23-1.3,0.3l-2.85,0.2v-6.6l2.75-0.25c0.6-0.03,1.07-0.03,1.4,0
				c0.43,0.1,0.8,0.27,1.1,0.5c0.3,0.3,0.55,0.63,0.75,1C648.53,559.83,648.6,560.37,648.6,561z M596.4,558.15l2.75,0.25
				c0.6,0,1.07,0.05,1.4,0.15c0.43,0.17,0.8,0.4,1.1,0.7c0.3,0.33,0.55,0.72,0.75,1.15c0.13,0.43,0.2,0.97,0.2,1.6
				c0,0.53-0.07,1-0.2,1.4c-0.2,0.43-0.47,0.8-0.8,1.1c-0.27,0.17-0.62,0.3-1.05,0.4c-0.33,0.1-0.77,0.13-1.3,0.1l-2.85-0.25V558.15
				z M606.65,560.65c0-0.33,0.1-0.65,0.3-0.95c0.23-0.3,0.55-0.52,0.95-0.65c0.4-0.17,0.88-0.25,1.45-0.25
				c0.93,0,1.63,0.18,2.1,0.55c0.47,0.37,0.7,0.85,0.7,1.45l-1.45,0.1c-0.07-0.33-0.22-0.58-0.45-0.75
				c-0.2-0.17-0.52-0.25-0.95-0.25s-0.77,0.08-1,0.25c-0.17,0.1-0.25,0.23-0.25,0.4c0,0.17,0.08,0.3,0.25,0.4
				c0.2,0.17,0.65,0.32,1.35,0.45c0.73,0.17,1.28,0.33,1.65,0.5c0.33,0.17,0.6,0.38,0.8,0.65c0.17,0.3,0.25,0.65,0.25,1.05
				c0,0.4-0.1,0.77-0.3,1.1c-0.23,0.33-0.57,0.57-1,0.7c-0.43,0.17-0.97,0.25-1.6,0.25c-0.97,0-1.68-0.2-2.15-0.6
				c-0.53-0.37-0.83-0.92-0.9-1.65l1.4-0.15c0.1,0.43,0.28,0.77,0.55,1c0.27,0.2,0.63,0.3,1.1,0.3c0.5,0,0.85-0.1,1.05-0.3
				c0.27-0.17,0.4-0.38,0.4-0.65c0-0.13-0.05-0.25-0.15-0.35c-0.1-0.13-0.28-0.25-0.55-0.35c-0.17-0.03-0.57-0.12-1.2-0.25
				c-0.8-0.17-1.35-0.38-1.65-0.65C606.88,561.63,606.65,561.18,606.65,560.65z M605.3,558.85v6.6l-1.5-0.05v-6.65L605.3,558.85z
				 M597.9,559.4v4.35l1.1,0.1c0.43,0.03,0.75,0.03,0.95,0c0.2-0.03,0.4-0.12,0.6-0.25c0.13-0.1,0.25-0.28,0.35-0.55
				c0.13-0.33,0.2-0.75,0.2-1.25s-0.07-0.88-0.2-1.15c-0.1-0.3-0.23-0.53-0.4-0.7c-0.17-0.17-0.4-0.28-0.7-0.35
				c-0.2-0.07-0.6-0.13-1.2-0.2H597.9z M606.15,575.55l1.35-4.45h1.75l1.3,4.7l1.15-4.55h1.5l-1.75,6.55h-1.6l-1.5-5.05l-1.5,4.9
				l-1.6-0.05l-1.75-6.7l1.5,0.05L606.15,575.55z M637,561.1l3.7-0.2v1.1l-3.7,0.25v1.8l4.15-0.3v1.15l-5.65,0.35v-6.6l5.5-0.4v1.15
				l-4,0.25V561.1z M630.7,559v5.4l3.7-0.15v1.15l-5.2,0.2v-6.55L630.7,559z M628.1,565.65l-5.2,0.1v-6.55h1.5v5.4l3.7-0.05V565.65z
				 M646.5,559.3c-0.2-0.17-0.43-0.25-0.7-0.25c-0.2-0.03-0.6-0.03-1.2,0l-0.7,0.1v4.4l1.1-0.15c0.4,0,0.7-0.05,0.9-0.15
				c0.23-0.07,0.45-0.18,0.65-0.35c0.13-0.1,0.25-0.3,0.35-0.6c0.13-0.33,0.2-0.75,0.2-1.25c0-0.53-0.07-0.92-0.2-1.15
				C646.8,559.63,646.67,559.43,646.5,559.3z M613.1,560.25v-1.1h5.9v1.1h-2.2v5.5h-1.5v-5.5H613.1z M621.4,559.15v6.6h-1.5v-6.6
				H621.4z M624.6,572.4v5.5l-1.5,0.05v-5.5h-2.2v-1.1l5.9-0.1v1.1L624.6,572.4z M618.4,576.45l-2.95-0.05l-0.6,1.5h-1.6l2.85-6.6
				h1.6l2.95,6.65h-1.6L618.4,576.45z M615.9,575.3h2.05l-1.05-2.45L615.9,575.3z M640.4,571.4c0.2,0.27,0.3,0.6,0.3,1
				c0,0.5-0.15,0.92-0.45,1.25c-0.37,0.37-0.87,0.62-1.5,0.75c0.33,0.13,0.6,0.3,0.8,0.5c0.23,0.17,0.52,0.5,0.85,1l0.9,1.2
				l-1.75,0.15l-1.1-1.35c-0.4-0.5-0.67-0.82-0.8-0.95c-0.13-0.13-0.28-0.2-0.45-0.2c-0.17-0.07-0.42-0.08-0.75-0.05l-0.3,0.05v2.75
				l-1.45,0.1V571l3.15-0.25c0.77-0.07,1.33-0.05,1.7,0.05C639.88,570.87,640.17,571.07,640.4,571.4z M638.45,571.85
				c-0.17,0-0.55,0.02-1.15,0.05l-1.15,0.1v1.7l1.1-0.1c0.73-0.03,1.18-0.08,1.35-0.15c0.17-0.07,0.32-0.18,0.45-0.35
				c0.07-0.13,0.1-0.3,0.1-0.5c0-0.23-0.05-0.4-0.15-0.5C638.83,571.97,638.65,571.88,638.45,571.85z M633.25,572.1l-4,0.15v1.45
				l3.7-0.15v1.1l-3.7,0.15v1.8l4.15-0.15v1.15l-5.65,0.2v-6.6l5.5-0.25V572.1z"/>
		</g>
	</g>
</g>
</svg>
