<?xml version="1.0" encoding="utf-8"?>
<!-- Generator: Adobe Illustrator 16.0.0, SVG Export Plug-In . SVG Version: 6.00 Build 0)  -->
<!DOCTYPE svg PUBLIC "-//W3C//DTD SVG 1.1//EN" "http://www.w3.org/Graphics/SVG/1.1/DTD/svg11.dtd">
<svg version="1.1" id="Layer_1" xmlns="http://www.w3.org/2000/svg" xmlns:xlink="http://www.w3.org/1999/xlink" x="0px" y="0px"
	 width="700px" height="700px" viewBox="0 0 700 700" enable-background="new 0 0 700 700" xml:space="preserve">
<g>
	<g>
		<path fill-rule="evenodd" clip-rule="evenodd" fill="#FFFFFF" fill-opacity="0.3294" d="M516.35,373.6L545,423.7
			c2.03,4.77-0.15,9.97-6.55,15.6c-9.77,7.87-20.43,13.95-32,18.25c-9.23,3.2-15.12,2.48-17.65-2.15l-46.75-81.8H516.35z"/>
	</g>
	<g>
		<polygon fill-rule="evenodd" clip-rule="evenodd" fill="#FFFFFF" points="442,373.6 441.6,372.9 516,372.9 516.4,373.6 		"/>
	</g>
	<g>
		<g>
			<linearGradient id="SVGID_1_" gradientUnits="userSpaceOnUse" x1="472.6475" y1="411.9043" x2="516.7902" y2="386.4276">
				<stop  offset="7.843138e-003" style="stop-color:#000000;stop-opacity:0"/>
				<stop  offset="0.2863" style="stop-color:#000000;stop-opacity:0.0431"/>
				<stop  offset="0.5647" style="stop-color:#000000;stop-opacity:0.0627"/>
				<stop  offset="0.8353" style="stop-color:#000000;stop-opacity:0"/>
				<stop  offset="1" style="stop-color:#000000;stop-opacity:0"/>
			</linearGradient>
			<path fill-rule="evenodd" clip-rule="evenodd" fill="url(#SVGID_1_)" d="M487.6,335.85l56.3,97.65
				c-12.4,13.43-27.1,21.92-44.1,25.45l-56.3-97.65L487.6,335.85z"/>
		</g>
		<g>
			<linearGradient id="SVGID_2_" gradientUnits="userSpaceOnUse" x1="491.6416" y1="399.5586" x2="496.2407" y2="396.907">
				<stop  offset="0" style="stop-color:#FFFFFF;stop-opacity:0.1333"/>
				<stop  offset="0.5098" style="stop-color:#FFFFFF"/>
				<stop  offset="1" style="stop-color:#FFFFFF;stop-opacity:0.3922"/>
			</linearGradient>
			<path fill-rule="evenodd" clip-rule="evenodd" fill="url(#SVGID_2_)" d="M468.05,347.6l56.35,97.65c-1.1,1.93-2.73,2.88-4.9,2.85
				l-56.35-97.65L468.05,347.6z"/>
		</g>
		<g>
			<linearGradient id="SVGID_3_" gradientUnits="userSpaceOnUse" x1="443.9043" y1="355.8574" x2="480.3107" y2="334.9119">
				<stop  offset="0" style="stop-color:#BAC1D1;stop-opacity:0.8431"/>
				<stop  offset="0.2078" style="stop-color:#AFB8C8;stop-opacity:0.5922"/>
				<stop  offset="0.4745" style="stop-color:#A5B0C0;stop-opacity:0.3216"/>
				<stop  offset="0.8039" style="stop-color:#B2BACA;stop-opacity:0.6275"/>
				<stop  offset="0.8784" style="stop-color:#B5BCCC;stop-opacity:0.5922"/>
				<stop  offset="1" style="stop-color:#BAC1D1;stop-opacity:0.8"/>
			</linearGradient>
			<path fill-rule="evenodd" clip-rule="evenodd" fill="url(#SVGID_3_)" d="M474.2,336.6c3.8-1.67,5.82-2.3,6.05-1.9
				c0.17,0.27-0.37,0.92-1.6,1.95c-4.47,3.6-9.22,6.92-14.25,9.95c-2.63,1.53-5.22,3-7.75,4.4c-2.4,1.2-4.6,2.25-6.6,3.15
				c-1.43,0.63-2.58,1.1-3.45,1.4c-1.6,0.6-2.5,0.7-2.7,0.3c-0.17-0.27,0.38-0.97,1.65-2.1c0.7-0.6,1.68-1.37,2.95-2.3
				c3.33-2.43,7.52-5.1,12.55-8C466.08,340.55,470.47,338.27,474.2,336.6z"/>
		</g>
		<g>
			<linearGradient id="SVGID_4_" gradientUnits="userSpaceOnUse" x1="445.0947" y1="343.1582" x2="469.5949" y2="329.0085">
				<stop  offset="0" style="stop-color:#7E0127"/>
				<stop  offset="0.2392" style="stop-color:#98012A"/>
				<stop  offset="0.4941" style="stop-color:#A0002B"/>
				<stop  offset="0.7686" style="stop-color:#810328"/>
				<stop  offset="1" style="stop-color:#4A0218"/>
			</linearGradient>
			<path fill-rule="evenodd" clip-rule="evenodd" fill="url(#SVGID_4_)" d="M462.1,324.35c2.1-1.13,3.8-0.95,5.1,0.55l0.15,0.2
				l5.25,9.15c0.2,0.73-0.45,1.6-1.95,2.6c-6.3,4.43-12.9,8.22-19.8,11.35c-1.8,0.73-2.75,0.72-2.85-0.05l-5.1-8.9l-0.05-0.05
				c-0.93-1.87-0.17-3.57,2.3-5.1c0.1-0.03,0.23-0.1,0.4-0.2L462.1,324.35z"/>
		</g>
		<g>
			<linearGradient id="SVGID_5_" gradientUnits="userSpaceOnUse" x1="448.5313" y1="350.7734" x2="474.393" y2="335.8688">
				<stop  offset="0" style="stop-color:#C6B3B0"/>
				<stop  offset="0.4784" style="stop-color:#DBCFCD"/>
				<stop  offset="1" style="stop-color:#A28380"/>
			</linearGradient>
			<path fill-rule="evenodd" clip-rule="evenodd" fill="url(#SVGID_5_)" d="M474.4,335.75c0.5,1.13,0.62,1.85,0.35,2.15
				c-7.97,5.73-16.22,10.48-24.75,14.25c-0.27-0.17-0.68-0.53-1.25-1.1c-0.7-0.77-1.03-1.73-1-2.9c8.73-3.7,16.85-8.38,24.35-14.05
				C473.1,334.1,473.87,334.65,474.4,335.75z"/>
		</g>
		<g>
			<linearGradient id="SVGID_6_" gradientUnits="userSpaceOnUse" x1="447.1563" y1="333.1992" x2="460.2522" y2="325.6421">
				<stop  offset="0" style="stop-color:#A1002C"/>
				<stop  offset="1" style="stop-color:#4B0117"/>
			</linearGradient>
			<path fill-rule="evenodd" clip-rule="evenodd" fill="url(#SVGID_6_)" d="M446.9,333.95c-2,1.03-3.03,1.47-3.1,1.3
				c-0.03-0.03,0.17-0.25,0.6-0.65c5.73-4.27,11.88-7.82,18.45-10.65c0.53-0.17,0.82-0.23,0.85-0.2c0.07,0.17-0.83,0.87-2.7,2.1
				c-1.83,1.23-4.13,2.65-6.9,4.25C451.37,331.67,448.97,332.95,446.9,333.95z"/>
		</g>
		<g>
			
				<radialGradient id="SVGID_7_" cx="432" cy="317.3999" r="29.2941" gradientTransform="matrix(0.8662 -0.4997 0.431 0.7472 -79.0012 296.1063)" gradientUnits="userSpaceOnUse">
				<stop  offset="0" style="stop-color:#A0002B"/>
				<stop  offset="0.6" style="stop-color:#75021F"/>
				<stop  offset="0.9804" style="stop-color:#980E2F"/>
			</radialGradient>
			<path fill-rule="evenodd" clip-rule="evenodd" fill="url(#SVGID_7_)" d="M367.75,317.25c-0.37,2.57-0.67,5.27-0.9,8.1
				c-1.57,2.57-3.75,3.68-6.55,3.35c0.57-7.33,1.52-13.8,2.85-19.4c10.1-43.37,41.1-37.23,93,18.4l0.15,0.25
				c-2,1.47-4.17,2.67-6.5,3.6l-0.1-0.15l-0.2-0.4C401.23,277.33,373.98,272.75,367.75,317.25z"/>
			<linearGradient id="SVGID_8_" gradientUnits="userSpaceOnUse" x1="465.0342" y1="413.5742" x2="520.9212" y2="381.3367">
				<stop  offset="0" style="stop-color:#BAC1D1;stop-opacity:0.8431"/>
				<stop  offset="0.2078" style="stop-color:#AFB8C8;stop-opacity:0.5922"/>
				<stop  offset="0.4745" style="stop-color:#A5B0C0;stop-opacity:0.3216"/>
				<stop  offset="0.8039" style="stop-color:#B2BACA;stop-opacity:0.6275"/>
				<stop  offset="0.8784" style="stop-color:#B5BCCC;stop-opacity:0.5922"/>
				<stop  offset="1" style="stop-color:#BAC1D1;stop-opacity:0.8"/>
			</linearGradient>
			<path fill-rule="evenodd" clip-rule="evenodd" fill="url(#SVGID_8_)" d="M479.7,335.2c2.9-1.2,5.82-1.52,8.75-0.95
				c0.37,0,0.77,0.07,1.2,0.2c2.7,0.7,4.78,1.88,6.25,3.55l0.3,0.5l5.7,9.95l43.4,75.15c2,4.73-0.17,9.93-6.5,15.6
				c-9.73,7.93-20.37,14.08-31.9,18.45c-9.27,3.2-15.15,2.5-17.65-2.1l-48.9-84.8c-0.67-2.3-0.75-4.77-0.25-7.4
				c0.1-0.47,0.22-0.93,0.35-1.4c0.63-2.57,1.85-4.63,3.65-6.2c12.67-5.33,24.47-12.15,35.4-20.45L479.7,335.2z"/>
		</g>
		<g>
			<path fill-rule="evenodd" clip-rule="evenodd" fill="#770021" d="M462.7,325.5c-0.03-0.07-0.03-0.13,0-0.2
				c0.03-0.03,0.08-0.07,0.15-0.1c0-0.03,0.03-0.05,0.1-0.05c0.07,0.03,0.12,0.08,0.15,0.15l5.85,10.1c0,0.03,0,0.08,0,0.15
				c-0.03,0.07-0.05,0.12-0.05,0.15c-0.07,0.03-0.13,0.03-0.2,0c-0.1-0.03-0.15-0.07-0.15-0.1L462.7,325.5z M455.65,330.2
				c0.03-0.03,0.07-0.02,0.1,0.05l5.85,10.1c0.03,0.03,0.03,0.08,0,0.15c0,0.03-0.03,0.07-0.1,0.1c-0.03,0.03-0.08,0.05-0.15,0.05
				c-0.03-0.03-0.07-0.07-0.1-0.1l-5.85-10.1c-0.03-0.07-0.03-0.1,0-0.1c0-0.1,0.02-0.17,0.05-0.2
				C455.52,330.12,455.58,330.13,455.65,330.2z M459.35,327.85c0.07,0,0.12,0.02,0.15,0.05l5.8,10.05c0.03,0.07,0.03,0.13,0,0.2
				c0,0.03-0.02,0.07-0.05,0.1c-0.07,0.03-0.13,0.05-0.2,0.05s-0.12-0.03-0.15-0.1l-5.8-10.05c-0.03-0.03-0.03-0.08,0-0.15
				c0.03-0.07,0.08-0.12,0.15-0.15C459.28,327.82,459.32,327.82,459.35,327.85z M451.6,332.4c0.07-0.03,0.15-0.05,0.25-0.05
				c0.03,0,0.07,0.02,0.1,0.05l5.9,10.2c0,0.03,0,0.1,0,0.2c-0.07,0.03-0.13,0.07-0.2,0.1l-0.1,0.05c-0.07-0.03-0.1-0.07-0.1-0.1
				l-5.9-10.2c-0.03-0.03-0.03-0.08,0-0.15C451.52,332.47,451.53,332.43,451.6,332.4z M449.25,346.3c0.03,0.07,0.03,0.12,0,0.15
				c0.03,0.07,0.02,0.12-0.05,0.15s-0.13,0.03-0.2,0c-0.03,0-0.07-0.03-0.1-0.1l-5.7-9.85c-0.03-0.03-0.03-0.08,0-0.15
				c0-0.07,0.03-0.12,0.1-0.15s0.12-0.03,0.15,0s0.07,0.07,0.1,0.1L449.25,346.3z M447.2,334.85c0-0.03,0-0.07,0-0.1
				c0-0.07,0.03-0.12,0.1-0.15s0.12-0.03,0.15,0c0.07,0,0.1,0.02,0.1,0.05l5.95,10.3c0.03,0.03,0.05,0.08,0.05,0.15
				c-0.03,0-0.08,0.02-0.15,0.05c-0.07,0.03-0.1,0.07-0.1,0.1c-0.07-0.03-0.12-0.07-0.15-0.1L447.2,334.85z"/>
			<path fill-rule="evenodd" clip-rule="evenodd" fill="#FF3E73" fill-opacity="0.3333" d="M459.95,327.3c0.03,0,0.07,0.03,0.1,0.1
				l5.8,10.05c0,0.03,0,0.07,0,0.1c-0.07,0.03-0.12,0.07-0.15,0.1s-0.07,0.05-0.1,0.05c-0.1,0-0.15-0.02-0.15-0.05l-5.8-10.05
				c-0.03-0.07-0.02-0.12,0.05-0.15c0-0.07,0.02-0.12,0.05-0.15C459.78,327.27,459.85,327.27,459.95,327.3z M463.8,325.1
				c0.03,0,0.07,0.03,0.1,0.1l5.55,9.6c0.03,0.07,0.05,0.13,0.05,0.2c-0.03,0-0.07,0.02-0.1,0.05c-0.07,0.03-0.12,0.07-0.15,0.1
				c-0.07-0.03-0.12-0.08-0.15-0.15l-5.55-9.6c-0.03-0.07-0.03-0.12,0-0.15c0-0.07,0.03-0.12,0.1-0.15
				C463.68,325.07,463.73,325.07,463.8,325.1z M452.2,332.15c-0.03-0.07-0.02-0.12,0.05-0.15s0.13-0.03,0.2,0
				c0.03,0,0.07,0.02,0.1,0.05l5.85,10.2c0.03,0,0.05,0.05,0.05,0.15c-0.03,0.03-0.08,0.07-0.15,0.1l-0.1,0.05
				c-0.07-0.07-0.12-0.1-0.15-0.1l-5.85-10.2C452.17,332.22,452.17,332.18,452.2,332.15z M455.9,329.9c0-0.03,0.03-0.07,0.1-0.1
				c0.03-0.03,0.08-0.05,0.15-0.05c0.07,0.03,0.1,0.07,0.1,0.1L462.1,340c0.03,0.03,0.05,0.07,0.05,0.1
				c-0.03,0.03-0.07,0.07-0.1,0.1c-0.07,0.03-0.12,0.05-0.15,0.05c-0.07,0-0.12-0.02-0.15-0.05l-5.85-10.15
				C455.9,330.02,455.9,329.97,455.9,329.9z M448.25,334.3c0.03,0,0.07,0.03,0.1,0.1l5.95,10.25c0,0.03,0,0.08,0,0.15
				c-0.03,0.03-0.08,0.07-0.15,0.1c-0.03,0.03-0.07,0.05-0.1,0.05c-0.07-0.03-0.1-0.07-0.1-0.1L448,334.6
				c-0.03-0.07-0.03-0.12,0-0.15c0-0.03,0.02-0.07,0.05-0.1C448.12,334.32,448.18,334.3,448.25,334.3z M444.25,336.25
				c0,0.03,0.02,0.07,0.05,0.1l5.8,10.05c0.03,0.07,0.05,0.12,0.05,0.15c-0.03,0.07-0.07,0.12-0.1,0.15c-0.07,0.03-0.13,0.03-0.2,0
				c-0.03,0-0.07-0.03-0.1-0.1l-5.8-10.05c-0.03-0.03-0.03-0.08,0-0.15c0-0.03,0.03-0.07,0.1-0.1
				C444.08,336.27,444.15,336.25,444.25,336.25z"/>
		</g>
		<g>
			<path fill-rule="evenodd" clip-rule="evenodd" fill="none" d="M450.55,331.25c2.5-0.8,4.65-2.03,6.45-3.7"/>
			<path fill-rule="evenodd" clip-rule="evenodd" fill="none" d="M450.25,351.9c9.17-4.07,17.18-8.82,24.05-14.25"/>
			<path fill-rule="evenodd" clip-rule="evenodd" fill="none" d="M448.35,348.25c9.23-4.03,17.28-8.78,24.15-14.25"/>
			<path fill-rule="evenodd" clip-rule="evenodd" fill="none" d="M448.4,347.5c7.93-3.17,15.73-7.67,23.4-13.5"/>
			<path fill-rule="evenodd" clip-rule="evenodd" fill="none" d="M445,355.45c8.53-3.67,17.57-8.68,27.1-15.05"/>
			<path fill-rule="evenodd" clip-rule="evenodd" fill="none" d="M443.95,335.55c6.47-2.9,12.8-6.55,19-10.95"/>
		</g>
		<g>
			
				<radialGradient id="SVGID_9_" cx="396.9502" cy="288.6499" r="10.4221" gradientTransform="matrix(0.8661 -0.4999 0.4464 0.7735 -75.7024 263.8158)" gradientUnits="userSpaceOnUse">
				<stop  offset="0" style="stop-color:#FFFFFF;stop-opacity:0.4314"/>
				<stop  offset="1" style="stop-color:#FBFBFB;stop-opacity:0"/>
			</radialGradient>
			<path fill-rule="evenodd" clip-rule="evenodd" fill="url(#SVGID_9_)" d="M408.75,293.55c-0.13-0.03-0.25-0.07-0.35-0.1
				c-6.5-4.47-13.25-6.77-20.25-6.9c-0.13-0.03-0.23-0.08-0.3-0.15c-0.07-0.07-0.1-0.17-0.1-0.3c0.03-0.1,0.08-0.2,0.15-0.3
				c0.07-0.03,0.18-0.07,0.35-0.1c7.17,0.17,14.07,2.52,20.7,7.05c0.07,0.1,0.12,0.2,0.15,0.3c0,0.07-0.03,0.17-0.1,0.3
				C408.9,293.42,408.82,293.48,408.75,293.55z"/>
			
				<radialGradient id="SVGID_10_" cx="380.9004" cy="284.25" r="5.2979" gradientTransform="matrix(0.8662 -0.4997 0.4463 0.7737 -75.9027 254.6875)" gradientUnits="userSpaceOnUse">
				<stop  offset="0" style="stop-color:#FFFFFF;stop-opacity:0.4627"/>
				<stop  offset="1" style="stop-color:#FBFBFB;stop-opacity:0"/>
			</radialGradient>
			<path fill-rule="evenodd" clip-rule="evenodd" fill="url(#SVGID_10_)" d="M376.05,286.15c-0.03-0.1,0.02-0.2,0.15-0.3
				c1.87-1.9,4.9-3.22,9.1-3.95c0.13,0,0.23,0.03,0.3,0.1c0.13,0.03,0.2,0.12,0.2,0.25c0,0.1-0.05,0.18-0.15,0.25
				c-0.07,0.13-0.15,0.22-0.25,0.25c-3.97,0.67-6.87,1.88-8.7,3.65c-0.03,0.1-0.13,0.15-0.3,0.15c-0.07,0-0.15-0.05-0.25-0.15
				C376.05,286.33,376.02,286.25,376.05,286.15z"/>
			
				<radialGradient id="SVGID_11_" cx="365.75" cy="310.9229" r="18.7991" gradientTransform="matrix(0.866 -0.5 0.447 0.7743 -89.9907 253.0445)" gradientUnits="userSpaceOnUse">
				<stop  offset="0" style="stop-color:#FFFFFF;stop-opacity:0.5765"/>
				<stop  offset="1" style="stop-color:#FBFBFB;stop-opacity:0"/>
			</radialGradient>
			<path fill-rule="evenodd" clip-rule="evenodd" fill="url(#SVGID_11_)" d="M369.8,293.75c0.17-0.03,0.28-0.02,0.35,0.05
				c0.13,0.07,0.2,0.13,0.2,0.2c0.03,0.13,0.05,0.23,0.05,0.3c-2.3,3.97-4.22,9.6-5.75,16.9c-1,4.8-1.87,10.3-2.6,16.5
				c0,0.1-0.05,0.2-0.15,0.3c-0.07,0.1-0.17,0.13-0.3,0.1c-0.13,0-0.22-0.05-0.25-0.15c-0.1-0.03-0.13-0.13-0.1-0.3
				c0.7-6.23,1.55-11.75,2.55-16.55c1.53-7.4,3.47-13.1,5.8-17.1C369.67,293.87,369.73,293.78,369.8,293.75z"/>
			
				<radialGradient id="SVGID_12_" cx="428.8008" cy="306.5498" r="35.9076" gradientTransform="matrix(0.8661 -0.4998 0.4467 0.7741 -79.5404 283.5468)" gradientUnits="userSpaceOnUse">
				<stop  offset="0" style="stop-color:#FFFFFF;stop-opacity:0.502"/>
				<stop  offset="1" style="stop-color:#FBFBFB;stop-opacity:0"/>
			</radialGradient>
			<path fill-rule="evenodd" clip-rule="evenodd" fill="url(#SVGID_12_)" d="M404.55,286.6c0.13-0.03,0.23-0.02,0.3,0.05
				c13.43,7.37,26.57,17.63,39.4,30.8c3.03,3.13,6.07,6.47,9.1,10c0.07,0,0.1,0.07,0.1,0.2c-0.03,0.1-0.1,0.2-0.2,0.3
				c-0.07,0.07-0.17,0.1-0.3,0.1c-0.1,0-0.18-0.05-0.25-0.15c-3.07-3.43-6.1-6.73-9.1-9.9c-12.8-13.1-25.88-23.32-39.25-30.65
				c-0.07-0.07-0.13-0.17-0.2-0.3c0-0.13,0.05-0.23,0.15-0.3C404.33,286.65,404.42,286.6,404.55,286.6z"/>
		</g>
		
			<radialGradient id="SVGID_13_" cx="509.25" cy="387.5303" r="6.5549" gradientTransform="matrix(0.8661 -0.4999 3.182 5.5135 -1164.9354 -1494.568)" gradientUnits="userSpaceOnUse">
			<stop  offset="0" style="stop-color:#FFFFFF;stop-opacity:0.3686"/>
			<stop  offset="0.4078" style="stop-color:#FFFFFF;stop-opacity:0.2706"/>
			<stop  offset="1" style="stop-color:#FFFFFF;stop-opacity:0"/>
		</radialGradient>
		<path fill-rule="evenodd" clip-rule="evenodd" fill="url(#SVGID_13_)" d="M498.35,360.55c4.97,6.37,10.25,14.42,15.85,24.15
			c5.63,9.73,9.95,18.33,12.95,25.8c3.03,7.5,3.87,11.63,2.5,12.4c-1.37,0.8-4.53-1.98-9.5-8.35c-4.93-6.33-10.22-14.37-15.85-24.1
			c-5.6-9.73-9.92-18.35-12.95-25.85c-3.03-7.5-3.87-11.65-2.5-12.45C490.22,351.38,493.38,354.18,498.35,360.55z"/>
		
			<radialGradient id="SVGID_14_" cx="65.9004" cy="17.5752" r="22.914" gradientTransform="matrix(0.189 -0.109 1.2212 2.1166 445.5 381.9501)" gradientUnits="userSpaceOnUse">
			<stop  offset="0" style="stop-color:#FFFFFF;stop-opacity:0.3686"/>
			<stop  offset="0.3412" style="stop-color:#FFFFFF;stop-opacity:0.1608"/>
			<stop  offset="0.7451" style="stop-color:#FFFFFF;stop-opacity:0.0627"/>
			<stop  offset="1" style="stop-color:#FFFFFF;stop-opacity:0"/>
		</radialGradient>
		<path fill-rule="evenodd" clip-rule="evenodd" fill="url(#SVGID_14_)" d="M506.8,459.43c-1.03,0.6-4.61-3.55-10.72-12.43
			c-6.07-8.82-12.87-19.75-20.4-32.8c-7.53-13.05-13.61-24.45-18.25-34.19c-4.63-9.74-6.43-14.91-5.4-15.51
			c1.04-0.6,4.61,3.54,10.72,12.43c6.11,8.89,12.93,19.86,20.46,32.91c7.53,13.05,13.59,24.41,18.19,34.08
			C506.04,453.66,507.84,458.83,506.8,459.43z"/>
		
			<radialGradient id="SVGID_15_" cx="65.8994" cy="17.5757" r="22.9142" gradientTransform="matrix(0.0511 0.0886 -0.6426 0.3708 473.25 336.1003)" gradientUnits="userSpaceOnUse">
			<stop  offset="0" style="stop-color:#FFFFFF;stop-opacity:0.498"/>
			<stop  offset="0.4078" style="stop-color:#FFFFFF;stop-opacity:0.2706"/>
			<stop  offset="1" style="stop-color:#FFFFFF;stop-opacity:0"/>
		</radialGradient>
		<path fill-rule="evenodd" clip-rule="evenodd" fill="url(#SVGID_15_)" d="M450.91,356.77c-0.28-0.48,0.89-1.72,3.52-3.7
			c2.61-1.96,5.89-4.09,9.85-6.38c3.96-2.29,7.46-4.07,10.49-5.36c3.03-1.28,4.68-1.68,4.96-1.2c0.28,0.49-0.89,1.72-3.52,3.7
			c-2.63,1.98-5.92,4.11-9.89,6.4c-3.96,2.29-7.45,4.07-10.45,5.34C452.85,356.86,451.19,357.26,450.91,356.77z"/>
		
			<radialGradient id="SVGID_16_" cx="65.9014" cy="17.5757" r="22.9132" gradientTransform="matrix(0.3253 0.0541 -0.1125 0.436 428.5499 352.5496)" gradientUnits="userSpaceOnUse">
			<stop  offset="0" style="stop-color:#FFFFFF;stop-opacity:0.251"/>
			<stop  offset="0.5333" style="stop-color:#FFFFFF;stop-opacity:0.0471"/>
			<stop  offset="0.7451" style="stop-color:#FFFFFF;stop-opacity:0.0275"/>
			<stop  offset="1" style="stop-color:#FFFFFF;stop-opacity:0"/>
		</radialGradient>
		<path fill-rule="evenodd" clip-rule="evenodd" fill="url(#SVGID_16_)" d="M445.49,373.56c-1.78-0.3-3.06-1.51-3.85-3.64
			c-0.78-2.12-0.82-4.52-0.13-7.21c0.69-2.69,1.92-4.89,3.69-6.59c1.77-1.71,3.55-2.41,5.33-2.11c1.79,0.3,3.07,1.51,3.85,3.64
			c0.77,2.13,0.81,4.54,0.12,7.23s-1.92,4.88-3.68,6.57C449.06,373.15,447.28,373.85,445.49,373.56z"/>
		
			<radialGradient id="SVGID_17_" cx="65.9014" cy="17.5762" r="22.9129" gradientTransform="matrix(-0.0689 0.3171 -0.4585 -0.0372 499.6508 321.8499)" gradientUnits="userSpaceOnUse">
			<stop  offset="0" style="stop-color:#FFFFFF;stop-opacity:0.251"/>
			<stop  offset="0.5333" style="stop-color:#FFFFFF;stop-opacity:0.0471"/>
			<stop  offset="0.7451" style="stop-color:#FFFFFF;stop-opacity:0.0275"/>
			<stop  offset="1" style="stop-color:#FFFFFF;stop-opacity:0"/>
		</radialGradient>
		<path fill-rule="evenodd" clip-rule="evenodd" fill="url(#SVGID_17_)" d="M476.77,341.26c0.38-1.73,1.71-3.14,4-4.23
			c2.27-1.07,4.82-1.5,7.65-1.27c2.83,0.23,5.12,1.04,6.86,2.45c1.75,1.41,2.43,2.98,2.05,4.72c-0.38,1.74-1.71,3.15-4,4.23
			c-2.29,1.07-4.84,1.49-7.67,1.26c-2.83-0.23-5.11-1.04-6.84-2.44C477.08,344.58,476.39,343,476.77,341.26z"/>
		<g>
			<path fill-rule="evenodd" clip-rule="evenodd" fill="#FFFFFF" d="M526.3,393.05c-16.47,12.47-34.38,23.02-53.75,31.65
				l-15.45-26.8c17.5-8.83,35.52-19.22,54.05-31.15L526.3,393.05z"/>
		</g>
		<g>
			<path fill-rule="evenodd" clip-rule="evenodd" d="M479.9,392.55l5.1-2.95l0.55,0.95l-1.9,1.1l2.75,4.75l-1.3,0.75l-2.75-4.75
				l-1.9,1.1L479.9,392.55z M477.95,394.85c-0.27-0.03-0.58,0.05-0.95,0.25c-0.37,0.23-0.62,0.47-0.75,0.7
				c-0.07,0.2-0.07,0.37,0,0.5c0.1,0.17,0.23,0.23,0.4,0.2c0.27,0.07,0.73-0.02,1.4-0.25c0.7-0.23,1.27-0.37,1.7-0.4
				c0.37-0.03,0.7,0.02,1,0.15c0.3,0.2,0.55,0.47,0.75,0.8c0.2,0.37,0.3,0.73,0.3,1.1c-0.03,0.4-0.2,0.77-0.5,1.1
				c-0.33,0.37-0.77,0.72-1.3,1.05c-0.83,0.47-1.55,0.63-2.15,0.5c-0.63-0.03-1.17-0.35-1.6-0.95l1.1-0.85
				c0.33,0.33,0.67,0.53,1,0.6c0.33,0.07,0.7-0.02,1.1-0.25c0.43-0.27,0.68-0.55,0.75-0.85c0.17-0.27,0.18-0.52,0.05-0.75
				c-0.07-0.1-0.18-0.17-0.35-0.2c-0.13-0.07-0.33-0.08-0.6-0.05c-0.2,0.07-0.6,0.2-1.2,0.4c-0.77,0.23-1.35,0.32-1.75,0.25
				c-0.6-0.07-1.03-0.33-1.3-0.8c-0.17-0.3-0.22-0.62-0.15-0.95c0.03-0.4,0.18-0.77,0.45-1.1c0.27-0.33,0.65-0.63,1.15-0.9
				c0.8-0.47,1.48-0.65,2.05-0.55c0.63,0.07,1.1,0.37,1.4,0.9l-1.25,0.75C478.5,395.02,478.25,394.88,477.95,394.85z M500.85,381.05
				l0.75,1.25l3.1-2.05l0.55,0.95l-3.1,2.1l0.9,1.55l3.45-2.3l0.6,1l-4.75,3.1l-3.3-5.75l4.55-3.05l0.6,0.95L500.85,381.05z
				 M489.1,394.85l-3.3-5.7l1.3-0.75l3.3,5.7L489.1,394.85z M488.45,387.7l1.3-0.75l2.7,4.7l3.15-1.9l0.55,0.95l-4.45,2.65
				L488.45,387.7z M500.45,395.85l0.75,1.25l3.1-1.95l0.55,0.95l-3.1,1.95l0.9,1.55l3.5-2.2l0.6,1l-4.8,3l-3.3-5.7l4.6-2.95
				l0.6,0.95L500.45,395.85z M500.9,386.3l0.6,1l-4.4,2.8l-3.3-5.7l1.3-0.8l2.7,4.7L500.9,386.3z M508.3,374.75
				c0.4-0.13,0.8-0.17,1.2-0.1c0.37,0.1,0.75,0.25,1.15,0.45c0.3,0.33,0.62,0.77,0.95,1.3c0.27,0.47,0.45,0.9,0.55,1.3
				c0.03,0.53,0,1.03-0.1,1.5c-0.1,0.33-0.3,0.68-0.6,1.05c-0.23,0.3-0.57,0.62-1,0.95l-2.35,1.55l-3.3-5.7l2.25-1.6
				C507.55,375.15,507.97,374.92,508.3,374.75z M507.15,376.7l-0.55,0.45l2.2,3.8l0.9-0.65c0.33-0.2,0.55-0.4,0.65-0.6
				c0.17-0.17,0.32-0.37,0.45-0.6c0.03-0.17,0.03-0.4,0-0.7c-0.07-0.37-0.23-0.77-0.5-1.2c-0.27-0.47-0.5-0.77-0.7-0.9
				c-0.23-0.17-0.45-0.27-0.65-0.3c-0.3-0.07-0.55-0.03-0.75,0.1C508,376.17,507.65,376.37,507.15,376.7z M509.7,389.5
				c0.3,0.13,0.55,0.38,0.75,0.75c0.23,0.43,0.3,0.87,0.2,1.3c-0.1,0.5-0.4,0.97-0.9,1.4c0.37-0.03,0.68-0.02,0.95,0.05
				c0.27,0,0.68,0.13,1.25,0.4l1.4,0.6l-1.5,1.05l-1.6-0.65c-0.6-0.23-1-0.37-1.2-0.4c-0.17-0.07-0.32-0.07-0.45,0
				c-0.2,0.07-0.42,0.18-0.65,0.35l-0.3,0.2l1.4,2.4l-1.2,0.8l-3.3-5.75l2.6-1.75c0.63-0.47,1.13-0.73,1.5-0.8
				C508.98,389.35,509.33,389.37,509.7,389.5z M508.85,390.8c-0.23,0-0.45,0.03-0.65,0.1c-0.13,0.07-0.45,0.27-0.95,0.6l-0.95,0.7
				l0.85,1.45l0.9-0.65c0.6-0.37,0.97-0.63,1.1-0.8c0.1-0.13,0.18-0.3,0.25-0.5c-0.03-0.17-0.1-0.33-0.2-0.5
				C509.07,391,508.95,390.87,508.85,390.8z M499.25,403.05l-1.3,0.8l-2.75-4.8l-1.9,1.1l-0.55-0.95l5.05-3l0.55,0.95l-1.85,1.15
				L499.25,403.05z M490,400.8l5.85,4.3l-1.4,0.8l-1.3-1l-2.55,1.45l0.2,1.6l-1.35,0.8l-0.85-7.15L490,400.8z M490.45,405.15l1.75-1
				l-2.15-1.65L490.45,405.15z M486.45,410.35l-3.85-3.6l1.15,5l-1.4,0.75l-4.85-4.95l1.3-0.7l3.3,3.4l-1.05-4.55l1.5-0.85l3.5,3.45
				l-1.3-4.55l1.3-0.75l1.75,6.55L486.45,410.35z M473,396.2l3.3,5.7l-1.3,0.7l-3.35-5.75L473,396.2z M472.8,401.6
				c0,0.47-0.05,0.92-0.15,1.35c-0.17,0.27-0.4,0.57-0.7,0.9c-0.27,0.23-0.63,0.47-1.1,0.7l-2.6,1.2l-3.3-5.7l2.5-1.15
				c0.53-0.3,0.97-0.48,1.3-0.55c0.47-0.1,0.9-0.08,1.3,0.05c0.4,0.1,0.82,0.3,1.25,0.6c0.3,0.3,0.62,0.72,0.95,1.25
				C472.52,400.72,472.7,401.17,472.8,401.6z M470.85,400.85c-0.27-0.43-0.52-0.73-0.75-0.9c-0.23-0.2-0.47-0.33-0.7-0.4
				c-0.23-0.03-0.48-0.02-0.75,0.05c-0.23,0.03-0.62,0.17-1.15,0.4l-0.6,0.35l2.15,3.8l1-0.45c0.4-0.2,0.67-0.35,0.8-0.45
				c0.17-0.13,0.32-0.32,0.45-0.55c0.03-0.13,0.03-0.35,0-0.65C471.23,401.68,471.08,401.28,470.85,400.85z"/>
		</g>
	</g>
	<g>
		<path fill-rule="evenodd" clip-rule="evenodd" fill="#FFFFFF" d="M357.95,487.75c-0.07-0.07-0.1-0.12-0.1-0.15
			c0-0.07,0.03-0.13,0.1-0.2c0.07-0.03,0.15-0.05,0.25-0.05c0.1,0,0.18,0.02,0.25,0.05c0.07,0.07,0.1,0.13,0.1,0.2
			c0,0.03-0.03,0.08-0.1,0.15c-0.07,0.03-0.15,0.05-0.25,0.05C358.1,487.8,358.02,487.78,357.95,487.75z M357.7,487.55
			c-0.17,0.2-0.15,0.38,0.05,0.55h1.2l0.3-0.65l-0.9-0.15l-0.2-0.1C357.95,487.27,357.8,487.38,357.7,487.55z M354.65,487.1
			l-0.1-0.05c-0.27,0.2-0.3,0.4-0.1,0.6c0.47,0.1,0.83,0.03,1.1-0.2c-0.03-0.3-0.28-0.43-0.75-0.4l0.05,0.4l-0.4-0.2L354.65,487.1z
			 M359.5,487.1l0.15,0.1c0.33,0.77-0.1,1.2-1.3,1.3c-0.23,0-0.47-0.02-0.7-0.05l-0.5-0.4l0.3-0.85
			C357.85,486.83,358.53,486.8,359.5,487.1z M361.75,488.65v0.05c0,0.1-0.03,0.18-0.1,0.25c-0.1,0.07-0.2,0.1-0.3,0.1l-0.05,0.25
			l0.15,0.25l0.1,1.6c0.03,0.9-0.05,1.78-0.25,2.65l-0.15,0.15c0.03,0.87-0.1,1.73-0.4,2.6l0.3,0.4l0.45,0.1l0.1,0.3l1.05,0.15
			l0.1,0.2l-0.55,0.15l-0.2,0.1l-0.75,0.15l-0.2-0.05c-0.1,0.03-0.2,0.07-0.3,0.1h-0.25c-0.73-0.17-1.48-0.22-2.25-0.15l-0.1-0.2
			l-0.45-0.15c-0.6,0.27-1.23,0.33-1.9,0.2c-0.13-0.03-0.23-0.08-0.3-0.15c-0.23-0.27-0.35-0.55-0.35-0.85l0.25-0.3
			c0.23-0.07,0.48-0.12,0.75-0.15l0.3-0.05c0.57,0,1.03,0.15,1.4,0.45l1.4-1.2l-0.2-0.35l-1.5-0.5v-0.2l0.9-0.55l0.3-0.05l0.35,0.1
			l0.45,0.5c0.57-0.3,0.72-0.7,0.45-1.2l-0.3,0.15v-0.05c-0.07-0.13-0.2-0.22-0.4-0.25l0.8-0.35l0.05-0.6l0.15-0.1l0.05-0.7
			c0.03-0.73-0.17-1.45-0.6-2.15c0-1.47,0.8-1.92,2.4-1.35c0.9,0.33,1.37,0.8,1.4,1.4c-0.3-0.1-0.53-0.07-0.7,0.1l-0.3,0.2l0.2-1.1
			l-0.5,0.5L361.75,488.65z M351.65,489.5c-0.03,0.03-0.1,0.05-0.2,0.05c-0.07,0-0.12-0.02-0.15-0.05c-0.07-0.07-0.1-0.13-0.1-0.2
			s0.03-0.13,0.1-0.2c0.03-0.03,0.08-0.05,0.15-0.05c0.1,0,0.17,0.02,0.2,0.05c0.07,0.07,0.1,0.13,0.1,0.2
			S351.72,489.43,351.65,489.5z M352.4,490c0.2-0.13,0.3-0.28,0.3-0.45c0-0.2-0.1-0.37-0.3-0.5c-0.17-0.13-0.38-0.2-0.65-0.2
			c-0.23,0-0.45,0.07-0.65,0.2c-0.17,0.13-0.25,0.3-0.25,0.5c0,0.17,0.08,0.32,0.25,0.45c0.2,0.13,0.42,0.2,0.65,0.2
			C352.02,490.2,352.23,490.13,352.4,490z M347.95,493.75c0-0.23,0.13-0.43,0.4-0.6c0.23-0.17,0.53-0.25,0.9-0.25
			c0.33,0,0.63,0.08,0.9,0.25c0.23,0.17,0.35,0.37,0.35,0.6s-0.12,0.43-0.35,0.6c-0.27,0.13-0.57,0.2-0.9,0.2
			c-0.37,0-0.67-0.07-0.9-0.2C348.08,494.18,347.95,493.98,347.95,493.75z M353.9,487.35c0-0.17,0.12-0.32,0.35-0.45
			c0.2-0.13,0.45-0.2,0.75-0.2c0.27,0,0.5,0.07,0.7,0.2c0.23,0.13,0.35,0.28,0.35,0.45c0,0.2-0.12,0.37-0.35,0.5
			c-0.2,0.13-0.43,0.2-0.7,0.2c-0.3,0-0.55-0.07-0.75-0.2C354.02,487.72,353.9,487.55,353.9,487.35z M350.95,488.8l0.55-0.2
			c0.27-0.03,0.48,0.02,0.65,0.15c1.33,0.77,1.08,1.35-0.75,1.75l-0.9-0.5C350.43,489.57,350.58,489.17,350.95,488.8z M356.3,494.9
			l0.45,0.5l0.5,0.05l0.2,0.2l0.8,0.25l-0.5,0.2l-4.05-0.45l-0.4-0.25l1.35-0.75l1.7-0.05L356.3,494.9z M366.2,494.6l0.15,0.1
			l0.05,0.3l1.95,0.3h0.1c0.87-0.07,1.12,0.02,0.75,0.25c0.1,0.17,0.03,0.28-0.2,0.35c0.47-0.07,0.9,0,1.3,0.2
			c0.23,0,0.43,0.02,0.6,0.05c0.17,0.03,0.23,0.08,0.2,0.15c0,0.07-0.08,0.12-0.25,0.15c-0.17,0.03-0.37,0.05-0.6,0.05
			c0,0.1-0.05,0.17-0.15,0.2c-0.1,0.07-0.23,0.1-0.4,0.1l-0.1,0.1l1.6,0.1c-0.03,0.1-0.02,0.18,0.05,0.25l-0.6,0.1l0.55,0.05
			l0.15,0.2c-0.1,0.23-0.25,0.27-0.45,0.1l-0.3-0.05l-0.1,0.05c-0.27,0.07-0.35,0.02-0.25-0.15h-0.1c0,0.03-0.02,0.07-0.05,0.1
			h-0.15c-0.1,0.27-0.37,0.38-0.8,0.35c-0.2,0-0.42-0.03-0.65-0.1l-0.65,0.05l1.55-0.6l-0.75,0.05l0.65-0.15l-1.35-0.15l0.9-0.45
			l-2.35-0.05l-0.1-0.15l1.85-0.75l-0.05-0.05l-0.25,0.05c-1.1-0.27-2.18-0.23-3.25,0.1l-0.45-0.55l1.25-0.5h0.35L366.2,494.6z
			 M365.5,494.75l-0.9,0.15l-0.3-0.15H365.5z M366.75,493.25l-0.3,0.05c-0.1,0.17-0.12,0.33-0.05,0.5c0.03,0.13,0.1,0.25,0.2,0.35
			c0.9,0.17,1.48,0.02,1.75-0.45l-0.5-0.55h-0.8l0.4,0.25l-0.2,0.15h-0.45L366.75,493.25z M373.4,484.7c0.23,0.13,0.35,0.3,0.35,0.5
			c0,0.23-0.12,0.42-0.35,0.55s-0.5,0.2-0.8,0.2c-0.33,0-0.6-0.07-0.8-0.2c-0.23-0.13-0.35-0.32-0.35-0.55c0-0.2,0.12-0.37,0.35-0.5
			c0.2-0.13,0.47-0.2,0.8-0.2C372.9,484.5,373.17,484.57,373.4,484.7z M373.25,485.2c0-0.1-0.07-0.18-0.2-0.25
			c-0.17-0.1-0.33-0.15-0.5-0.15c-0.2,0-0.37,0.05-0.5,0.15c-0.13,0.07-0.2,0.15-0.2,0.25c0,0.1,0.07,0.2,0.2,0.3
			c0.13,0.07,0.3,0.1,0.5,0.1c0.17,0,0.33-0.03,0.5-0.1C373.18,485.4,373.25,485.3,373.25,485.2z M372.15,484.9
			c0.07-0.03,0.13-0.05,0.2-0.05c0.1,0,0.18,0.02,0.25,0.05c0.07,0.03,0.1,0.08,0.1,0.15s-0.03,0.12-0.1,0.15
			c-0.07,0.03-0.15,0.05-0.25,0.05c-0.07,0-0.13-0.02-0.2-0.05c-0.07-0.03-0.1-0.08-0.1-0.15S372.08,484.93,372.15,484.9z
			 M361,492.95l-0.1-0.5l-0.9,2.75c-0.67,0.9-1.3,1.63-1.9,2.2l0.15-0.05c0.9-0.37,1.5-0.9,1.8-1.6l0.3-0.2l0.05-0.05l0.1-0.15
			L361,492.95z M365.9,493.5c0.23-0.3,0.57-0.5,1-0.6c0.63-0.13,1.17,0.02,1.6,0.45c0.37,0.33,0.28,0.62-0.25,0.85
			c-0.27,0.1-0.57,0.18-0.9,0.25l-1.25-0.3L365.9,493.5z M374.55,491.65c0,0.07-0.03,0.13-0.1,0.2c-0.1,0.03-0.18,0.05-0.25,0.05
			c-0.1,0-0.18-0.02-0.25-0.05c-0.1-0.07-0.15-0.13-0.15-0.2c0-0.07,0.05-0.12,0.15-0.15c0.07-0.03,0.15-0.05,0.25-0.05
			c0.07,0,0.15,0.02,0.25,0.05C374.52,491.53,374.55,491.58,374.55,491.65z M370.05,495.75l-0.65-0.05l0.6-0.15L370.05,495.75z
			 M366.15,500.15c-0.1,0.27-0.38,0.32-0.85,0.15l-1.35-0.1l1.95-0.15l-0.2-0.4l-0.5-0.15l1.75,0.05l0.4,0.2l-0.8,0.15l-0.2,0.15
			l-0.2,0.05V500.15z M370.65,498.1l0.15,0.25l-3.85,0.4C367.95,498.35,369.18,498.13,370.65,498.1z M371.95,498.65l-0.45-0.2h0.45
			V498.65z M371.1,498.55l-0.8,0.25l-0.1,0.3l-1.4,0.3l-0.3-0.2l2.3-0.75L371.1,498.55z M368.7,499.9l-0.7-0.25l0.5-0.1l0.3,0.1
			l-0.05,0.1L368.7,499.9z M356.65,497.05c0,0.1-0.03,0.17-0.1,0.2c-0.07,0.07-0.13,0.1-0.2,0.1c-0.1,0-0.18-0.03-0.25-0.1
			c-0.07-0.03-0.1-0.1-0.1-0.2c0-0.07,0.03-0.13,0.1-0.2c0.07-0.03,0.15-0.05,0.25-0.05c0.07,0,0.13,0.02,0.2,0.05
			C356.62,496.92,356.65,496.98,356.65,497.05z M357.5,497.25c-0.3-0.07-0.32-0.17-0.05-0.3l-0.55-0.25l-1.2,0.1l-0.15,0.2
			l0.45,0.65c0.67,0.1,1.18-0.03,1.55-0.4H357.5z M363.8,500.3l0.1,0.25c-1.03,0.27-2.12,0.35-3.25,0.25c-0.8-0.1-1.55-0.3-2.25-0.6
			l1.75-0.05c0.73-0.37,1.47-0.38,2.2-0.05l0.1,0.05L363.8,500.3z M355.85,499.95c0.3,0.03,0.58,0.07,0.85,0.1
			c0.2,0.03,0.38,0.08,0.55,0.15l0.1,0.1l0.2,0.1c-1.1,0.17-2.15,0.05-3.15-0.35c-0.2-0.07-0.38-0.13-0.55-0.2l-0.2-0.25l-1.8-0.35
			V499l0.1-0.2l0.45-0.5l-0.4-0.1l-0.4,0.05l-0.5-0.15v-0.55c0.13-0.07,0.22-0.15,0.25-0.25v-0.05l0.5-0.3v-0.05
			c0.93-0.3,1.67-0.15,2.2,0.45l-1.25-0.25l-0.3,0.4c0,0.07-0.02,0.12-0.05,0.15c-0.03,0.03-0.08,0.05-0.15,0.05l0.15,0.2l1.1,0.2
			l0.25,0.4l-0.15,0.25l0.05,0.3h0.55l0.6,0.35l2.85,0.4l0.75,0.25l-3.15-0.35L355.85,499.95z M352.85,496.2l1.25,0.3l-2.1-0.25
			c0-0.1,0.08-0.18,0.25-0.25s0.37-0.1,0.6-0.1V496.2z M352.45,495.7l-0.25,0.05v-0.25L352.45,495.7z M351.7,495.85l-0.1,0.1h-0.1
			L351.7,495.85z"/>
	</g>
</g>
</svg>
