<?xml version="1.0" encoding="utf-8"?>
<!-- Generator: Adobe Illustrator 16.0.0, SVG Export Plug-In . SVG Version: 6.00 Build 0)  -->
<!DOCTYPE svg PUBLIC "-//W3C//DTD SVG 1.1//EN" "http://www.w3.org/Graphics/SVG/1.1/DTD/svg11.dtd">
<svg version="1.1" id="Layer_1" xmlns="http://www.w3.org/2000/svg" xmlns:xlink="http://www.w3.org/1999/xlink" x="0px" y="0px"
	 width="700px" height="700px" viewBox="0 0 700 700" enable-background="new 0 0 700 700" xml:space="preserve">
<g>
	<g>
		<path fill-rule="evenodd" clip-rule="evenodd" fill="#FFFFFF" fill-opacity="0.298" d="M553.6,508.2h64.5v73.3
			c-0.6,5.13-5.07,8.57-13.4,10.3c-12.4,2-24.68,2-36.85,0c-9.63-1.83-14.38-5.38-14.25-10.65V508.2z"/>
	</g>
	<g>
		<rect x="553.6" y="507.5" fill-rule="evenodd" clip-rule="evenodd" fill="#FFFFFF" width="64.5" height="0.7"/>
	</g>
	<g>
		<g>
			<linearGradient id="SVGID_1_" gradientUnits="userSpaceOnUse" x1="561.0498" y1="535.1875" x2="612" y2="535.1875">
				<stop  offset="7.843138e-003" style="stop-color:#000000;stop-opacity:0"/>
				<stop  offset="0.2863" style="stop-color:#000000;stop-opacity:0.0431"/>
				<stop  offset="0.5647" style="stop-color:#000000;stop-opacity:0.0627"/>
				<stop  offset="0.8353" style="stop-color:#000000;stop-opacity:0"/>
				<stop  offset="1" style="stop-color:#000000;stop-opacity:0"/>
			</linearGradient>
			<path fill-rule="evenodd" clip-rule="evenodd" fill="url(#SVGID_1_)" d="M561.05,589.5V476.8H612v112.7
				C594.53,594.93,577.55,594.93,561.05,589.5z"/>
		</g>
		<g>
			<linearGradient id="SVGID_2_" gradientUnits="userSpaceOnUse" x1="583.6377" y1="533.9883" x2="588.9627" y2="533.9883">
				<stop  offset="0" style="stop-color:#FFFFFF;stop-opacity:0.1294"/>
				<stop  offset="0.5098" style="stop-color:#FFFFFF"/>
				<stop  offset="1" style="stop-color:#FFFFFF;stop-opacity:0.3922"/>
			</linearGradient>
			<path fill-rule="evenodd" clip-rule="evenodd" fill="url(#SVGID_2_)" d="M589.2,477.2v112.75c-1.9,1.1-3.8,1.1-5.7,0V477.2H589.2
				z"/>
		</g>
		<g>
			<linearGradient id="SVGID_3_" gradientUnits="userSpaceOnUse" x1="564.1504" y1="472.2832" x2="606.1504" y2="472.2832">
				<stop  offset="0" style="stop-color:#BAC1D1;stop-opacity:0.8431"/>
				<stop  offset="0.2078" style="stop-color:#AFB8C8;stop-opacity:0.5922"/>
				<stop  offset="0.4745" style="stop-color:#A5B0C0;stop-opacity:0.3176"/>
				<stop  offset="0.8039" style="stop-color:#B2BACA;stop-opacity:0.6275"/>
				<stop  offset="0.8784" style="stop-color:#B5BCCC;stop-opacity:0.5922"/>
				<stop  offset="1" style="stop-color:#BAC1D1;stop-opacity:0.8"/>
			</linearGradient>
			<path fill-rule="evenodd" clip-rule="evenodd" fill="url(#SVGID_3_)" d="M586.5,474.45c-3.03,0.03-5.98,0.02-8.85-0.05
				c-2.7-0.13-5.15-0.32-7.35-0.55c-1.53-0.17-2.77-0.33-3.7-0.5c-1.63-0.3-2.45-0.67-2.45-1.1c0-0.33,0.82-0.67,2.45-1
				c0.93-0.17,2.17-0.33,3.7-0.5c4.13-0.43,9.1-0.65,14.9-0.65s10.73,0.22,14.8,0.65c4.13,0.43,6.2,0.88,6.2,1.35
				c0,0.3-0.78,0.6-2.35,0.9C598.18,473.87,592.4,474.35,586.5,474.45z"/>
		</g>
		<g>
			<linearGradient id="SVGID_4_" gradientUnits="userSpaceOnUse" x1="571.4893" y1="461.8555" x2="599.7998" y2="461.8555">
				<stop  offset="0" style="stop-color:#7E0127"/>
				<stop  offset="0.2392" style="stop-color:#98012A"/>
				<stop  offset="0.4941" style="stop-color:#A0002B"/>
				<stop  offset="0.7686" style="stop-color:#810328"/>
				<stop  offset="1" style="stop-color:#4A0218"/>
			</linearGradient>
			<path fill-rule="evenodd" clip-rule="evenodd" fill="url(#SVGID_4_)" d="M599.8,457.1v0.25v10.55c-0.2,0.73-1.2,1.15-3,1.25
				c-7.67,0.7-15.27,0.68-22.8-0.05c-1.93-0.27-2.75-0.77-2.45-1.5v-10.25v-0.05c0.13-2.1,1.65-3.18,4.55-3.25c0.1,0,0.25,0,0.45,0
				h19.1C598.05,454.12,599.43,455.13,599.8,457.1z"/>
		</g>
		<g>
			<linearGradient id="SVGID_5_" gradientUnits="userSpaceOnUse" x1="570.6553" y1="470.1748" x2="600.5052" y2="470.1748">
				<stop  offset="0" style="stop-color:#C6B3B0"/>
				<stop  offset="0.4784" style="stop-color:#DBCFCD"/>
				<stop  offset="1" style="stop-color:#A28380"/>
			</linearGradient>
			<path fill-rule="evenodd" clip-rule="evenodd" fill="url(#SVGID_5_)" d="M599.85,472.1c-9.77,1-19.28,1-28.55,0
				c-0.17-0.3-0.35-0.83-0.55-1.6c-0.23-1-0.03-2,0.6-3c9.37,1.17,18.73,1.17,28.1,0c0.87,0.5,1.25,1.37,1.15,2.6
				C600.47,471.33,600.22,472,599.85,472.1z"/>
		</g>
		<g>
			<linearGradient id="SVGID_6_" gradientUnits="userSpaceOnUse" x1="578.2871" y1="454.2617" x2="593.4121" y2="454.2617">
				<stop  offset="0" style="stop-color:#A1002C"/>
				<stop  offset="1" style="stop-color:#4B0117"/>
			</linearGradient>
			<path fill-rule="evenodd" clip-rule="evenodd" fill="url(#SVGID_6_)" d="M593.95,454.8c-2.23,0.17-4.93,0.25-8.1,0.25
				c-3.17,0-5.88-0.08-8.15-0.25c-2.23-0.13-3.35-0.28-3.35-0.45c0-0.03,0.28-0.12,0.85-0.25c7.1-0.83,14.2-0.83,21.3,0
				c0.53,0.13,0.8,0.22,0.8,0.25C597.3,454.52,596.18,454.67,593.95,454.8z"/>
		</g>
		<g>
			
				<radialGradient id="SVGID_7_" cx="573.0498" cy="432.9502" r="29.3" gradientTransform="matrix(1 0 0 0.8622 0 59.6599)" gradientUnits="userSpaceOnUse">
				<stop  offset="0" style="stop-color:#A0002B"/>
				<stop  offset="0.6" style="stop-color:#75021F"/>
				<stop  offset="0.9804" style="stop-color:#980E2F"/>
			</radialGradient>
			<path fill-rule="evenodd" clip-rule="evenodd" fill="url(#SVGID_7_)" d="M581.4,454.15V454v-0.45
				c-14.97-70.6-36.27-88.2-63.9-52.8c-1.6,2.03-3.22,4.23-4.85,6.6c-2.63,1.43-5.08,1.3-7.35-0.4c4.17-6.03,8.23-11.15,12.2-15.35
				c30.4-32.53,54.18-11.73,71.35,62.4v0.25C586.38,454.55,583.9,454.52,581.4,454.15z"/>
			<linearGradient id="SVGID_8_" gradientUnits="userSpaceOnUse" x1="553.5967" y1="532.8252" x2="618.0996" y2="532.8252">
				<stop  offset="0" style="stop-color:#BAC1D1;stop-opacity:0.8431"/>
				<stop  offset="0.2078" style="stop-color:#AFB8C8;stop-opacity:0.5922"/>
				<stop  offset="0.4745" style="stop-color:#A5B0C0;stop-opacity:0.3176"/>
				<stop  offset="0.8039" style="stop-color:#B2BACA;stop-opacity:0.6275"/>
				<stop  offset="0.8784" style="stop-color:#B5BCCC;stop-opacity:0.5922"/>
				<stop  offset="1" style="stop-color:#BAC1D1;stop-opacity:0.8"/>
			</linearGradient>
			<path fill-rule="evenodd" clip-rule="evenodd" fill="url(#SVGID_8_)" d="M605.45,472.25c3.13,0.4,5.83,1.58,8.1,3.55
				c0.3,0.2,0.6,0.45,0.9,0.75c2,1.97,3.22,4.05,3.65,6.25v0.55v11.5v86.75c-0.6,5.13-5.07,8.57-13.4,10.3c-12.4,2-24.68,2-36.85,0
				c-9.63-1.83-14.38-5.38-14.25-10.65v-97.9c0.6-2.3,1.77-4.47,3.5-6.5c0.33-0.37,0.67-0.72,1-1.05c1.83-1.9,3.92-3.08,6.25-3.55
				c13.63,1.73,27.27,1.73,40.9,0H605.45z"/>
		</g>
		<g>
			<path fill-rule="evenodd" clip-rule="evenodd" fill="#FF3E73" fill-opacity="0.3294" d="M587.45,455.9c0-0.03,0.02-0.07,0.05-0.1
				c0.03-0.07,0.08-0.1,0.15-0.1c0.07,0,0.12,0.03,0.15,0.1c0.03,0.03,0.05,0.07,0.05,0.1v11.7c0,0.03-0.02,0.08-0.05,0.15
				c-0.03,0-0.08,0-0.15,0c-0.07,0-0.12,0-0.15,0c-0.03-0.07-0.05-0.12-0.05-0.15V455.9z M596.75,455.55
				c0.03,0.03,0.05,0.08,0.05,0.15v11.1c0,0.07-0.02,0.12-0.05,0.15s-0.08,0.05-0.15,0.05c-0.07,0-0.12-0.02-0.15-0.05
				s-0.05-0.08-0.05-0.15v-11.1c0-0.07,0.02-0.12,0.05-0.15s0.08-0.05,0.15-0.05C596.67,455.5,596.72,455.52,596.75,455.55z
				 M592.1,455.45c0.07,0,0.13,0.03,0.2,0.1c0.03,0,0.05,0.03,0.05,0.1v11.6c0,0.03-0.02,0.08-0.05,0.15c-0.07,0-0.13,0-0.2,0
				c-0.03,0-0.07,0-0.1,0c-0.07-0.07-0.1-0.12-0.1-0.15v-11.6c0-0.07,0.03-0.1,0.1-0.1C592.03,455.48,592.07,455.45,592.1,455.45z
				 M578.3,455.9c0-0.07,0.03-0.12,0.1-0.15c0.03-0.03,0.07-0.05,0.1-0.05c0.07,0,0.13,0.02,0.2,0.05c0.03,0.03,0.05,0.08,0.05,0.15
				v11.85c0,0.03-0.02,0.08-0.05,0.15c-0.07,0-0.13,0-0.2,0c-0.03,0-0.07,0-0.1,0c-0.07-0.07-0.1-0.12-0.1-0.15V455.9z
				 M583.15,455.85c0.03-0.07,0.08-0.1,0.15-0.1s0.12,0.03,0.15,0.1c0.03,0.03,0.05,0.07,0.05,0.1v11.75c0,0.03-0.02,0.08-0.05,0.15
				c-0.03,0.03-0.08,0.05-0.15,0.05s-0.12-0.02-0.15-0.05c-0.03-0.07-0.05-0.12-0.05-0.15v-11.75
				C583.1,455.92,583.12,455.88,583.15,455.85z M574.2,455.45c0.03,0.03,0.05,0.07,0.05,0.1v11.6c0,0.07-0.02,0.12-0.05,0.15
				c-0.07,0.03-0.12,0.05-0.15,0.05c-0.07,0-0.12-0.02-0.15-0.05c-0.07-0.03-0.1-0.08-0.1-0.15v-11.6c0-0.03,0.03-0.07,0.1-0.1
				c0.03-0.03,0.08-0.05,0.15-0.05C574.08,455.4,574.13,455.42,574.2,455.45z"/>
			<path fill-rule="evenodd" clip-rule="evenodd" fill="#770021" d="M591.4,455.65c0.07,0,0.12,0.02,0.15,0.05s0.05,0.08,0.05,0.15
				v11.6c0,0.07-0.02,0.12-0.05,0.15c-0.03,0.03-0.08,0.05-0.15,0.05c-0.07,0-0.12-0.02-0.15-0.05c-0.07-0.03-0.1-0.08-0.1-0.15
				v-11.6c0-0.07,0.03-0.12,0.1-0.15C591.28,455.67,591.33,455.65,591.4,455.65z M577.85,455.6c0.03,0.03,0.05,0.07,0.05,0.1v11.9
				c0,0.03-0.02,0.08-0.05,0.15c-0.03,0-0.08,0-0.15,0s-0.12,0-0.15,0c-0.03-0.07-0.05-0.12-0.05-0.15v-11.9
				c0-0.03,0.02-0.07,0.05-0.1c0.03-0.03,0.08-0.05,0.15-0.05S577.82,455.57,577.85,455.6z M595.6,455.35c0-0.07,0.03-0.12,0.1-0.15
				c0.03-0.03,0.08-0.05,0.15-0.05c0.03,0,0.08,0.02,0.15,0.05c0.03,0.03,0.05,0.08,0.05,0.15v11.7c0,0.03-0.02,0.08-0.05,0.15
				c-0.07,0.03-0.12,0.05-0.15,0.05c-0.07,0-0.12-0.02-0.15-0.05c-0.07-0.07-0.1-0.12-0.1-0.15V455.35z M582.45,455.85
				c0-0.07,0.03-0.1,0.1-0.1s0.13,0.03,0.2,0.1c0.03,0.03,0.05,0.07,0.05,0.1v11.8c0,0.03-0.02,0.08-0.05,0.15c-0.07,0-0.13,0-0.2,0
				h-0.1c-0.07-0.07-0.1-0.12-0.1-0.15v-11.8C582.35,455.92,582.38,455.88,582.45,455.85z M573.15,455.25c0-0.03,0.02-0.07,0.05-0.1
				c0.03-0.07,0.08-0.1,0.15-0.1c0.07,0,0.12,0.03,0.15,0.1c0.03,0.03,0.05,0.07,0.05,0.1v11.4c0,0.07-0.02,0.12-0.05,0.15
				s-0.08,0.05-0.15,0.05c-0.07,0-0.12-0.02-0.15-0.05s-0.05-0.08-0.05-0.15V455.25z M587,455.8c0.07,0,0.12,0.03,0.15,0.1
				c0.03,0,0.05,0.03,0.05,0.1v11.65c0,0.07-0.02,0.12-0.05,0.15c-0.03,0.03-0.08,0.05-0.15,0.05s-0.12-0.02-0.15-0.05
				c-0.03-0.03-0.05-0.08-0.05-0.15V456c0-0.07,0.02-0.1,0.05-0.1C586.88,455.83,586.93,455.8,587,455.8z"/>
		</g>
		<g>
			<path fill-rule="evenodd" clip-rule="evenodd" fill="none" d="M574.35,454.7c7.03,0.7,14.33,0.7,21.9,0"/>
			<path fill-rule="evenodd" clip-rule="evenodd" fill="none" d="M582.2,454.25c2.57,0.57,5.05,0.57,7.45,0"/>
			<path fill-rule="evenodd" clip-rule="evenodd" fill="none" d="M571.6,472c10,1.07,19.32,0.95,27.95-0.35"/>
			<path fill-rule="evenodd" clip-rule="evenodd" fill="none" d="M571.8,467.9c10,1.1,19.35,1,28.05-0.3"/>
			<path fill-rule="evenodd" clip-rule="evenodd" fill="none" d="M572.2,467.25c8.47,1.23,17.47,1.23,27,0"/>
			<path fill-rule="evenodd" clip-rule="evenodd" fill="none" d="M565.3,472.45c9.23,1.1,19.57,1.28,31,0.55"/>
		</g>
		<g>
			
				<radialGradient id="SVGID_9_" cx="518.9512" cy="394.3086" r="18.8176" gradientTransform="matrix(1 0 0 0.8938 0 41.892)" gradientUnits="userSpaceOnUse">
				<stop  offset="0" style="stop-color:#FFFFFF;stop-opacity:0.5765"/>
				<stop  offset="1" style="stop-color:#FBFBFB;stop-opacity:0"/>
			</radialGradient>
			<path fill-rule="evenodd" clip-rule="evenodd" fill="url(#SVGID_9_)" d="M531.35,381.95c-0.03,0.1-0.08,0.18-0.15,0.25
				c-3.93,2.3-8.38,6.23-13.35,11.8c-3.3,3.63-6.8,7.97-10.5,13c-0.07,0.07-0.17,0.12-0.3,0.15c-0.1,0.03-0.2,0.02-0.3-0.05
				c-0.1-0.07-0.17-0.15-0.2-0.25c-0.03-0.1,0-0.2,0.1-0.3c3.73-5.03,7.23-9.38,10.5-13.05c5.03-5.67,9.55-9.65,13.55-11.95
				c0.1-0.07,0.2-0.1,0.3-0.1c0.13,0.03,0.23,0.1,0.3,0.2C531.37,381.75,531.38,381.85,531.35,381.95z"/>
			
				<radialGradient id="SVGID_10_" cx="545.3496" cy="378.75" r="5.3" gradientTransform="matrix(1 0 0 0.8939 0 40.1975)" gradientUnits="userSpaceOnUse">
				<stop  offset="0" style="stop-color:#FFFFFF;stop-opacity:0.4627"/>
				<stop  offset="1" style="stop-color:#FBFBFB;stop-opacity:0"/>
			</radialGradient>
			<path fill-rule="evenodd" clip-rule="evenodd" fill="url(#SVGID_10_)" d="M540.65,378.55c-0.1,0.03-0.22,0.02-0.35-0.05
				c-0.07-0.07-0.12-0.15-0.15-0.25c-0.07-0.1-0.05-0.2,0.05-0.3c0.03-0.07,0.12-0.12,0.25-0.15c2.6-0.7,5.9-0.32,9.9,1.15
				c0.1,0.03,0.17,0.1,0.2,0.2c0.07,0.1,0.08,0.2,0.05,0.3c-0.07,0.1-0.15,0.17-0.25,0.2c-0.13,0.07-0.25,0.08-0.35,0.05
				C546.23,378.3,543.12,377.92,540.65,378.55z"/>
			
				<radialGradient id="SVGID_11_" cx="557.0996" cy="390.5996" r="10.425" gradientTransform="matrix(1 0 0 0.8933 0 41.6827)" gradientUnits="userSpaceOnUse">
				<stop  offset="0" style="stop-color:#FFFFFF;stop-opacity:0.4314"/>
				<stop  offset="1" style="stop-color:#FBFBFB;stop-opacity:0"/>
			</radialGradient>
			<path fill-rule="evenodd" clip-rule="evenodd" fill="url(#SVGID_11_)" d="M550.5,384.35c-0.1-0.07-0.17-0.15-0.2-0.25
				c-0.03-0.1,0-0.2,0.1-0.3c0.07-0.1,0.15-0.17,0.25-0.2c0.1,0,0.22,0.03,0.35,0.1c6.13,3.73,10.93,9.22,14.4,16.45
				c0.03,0.1,0.03,0.2,0,0.3c-0.03,0.07-0.12,0.13-0.25,0.2c-0.1,0.03-0.2,0.05-0.3,0.05c-0.1-0.07-0.18-0.15-0.25-0.25
				C561.2,393.35,556.5,387.98,550.5,384.35z"/>
			
				<radialGradient id="SVGID_12_" cx="575.7002" cy="422" r="35.9125" gradientTransform="matrix(1 0 0 0.8938 0 44.7999)" gradientUnits="userSpaceOnUse">
				<stop  offset="0" style="stop-color:#FFFFFF;stop-opacity:0.498"/>
				<stop  offset="1" style="stop-color:#FBFBFB;stop-opacity:0"/>
			</radialGradient>
			<path fill-rule="evenodd" clip-rule="evenodd" fill="url(#SVGID_12_)" d="M564.15,392.8c0.03-0.1,0.12-0.17,0.25-0.2
				c0.07-0.07,0.17-0.07,0.3,0c0.1,0.03,0.18,0.1,0.25,0.2c7.93,13.1,14.17,28.55,18.7,46.35c1.07,4.23,2.03,8.63,2.9,13.2
				c0.03,0.07,0.02,0.15-0.05,0.25c-0.07,0.07-0.17,0.12-0.3,0.15c-0.1,0.03-0.2,0.02-0.3-0.05c-0.1-0.07-0.17-0.15-0.2-0.25
				c-0.9-4.5-1.87-8.88-2.9-13.15c-4.53-17.73-10.75-33.12-18.65-46.15C564.12,393.05,564.12,392.93,564.15,392.8z"/>
		</g>
		
			<radialGradient id="SVGID_13_" cx="65.8979" cy="17.5752" r="22.9152" gradientTransform="matrix(0.2862 0 0 1.8214 586.0499 500.3497)" gradientUnits="userSpaceOnUse">
			<stop  offset="0" style="stop-color:#FFFFFF;stop-opacity:0.3647"/>
			<stop  offset="0.4078" style="stop-color:#FFFFFF;stop-opacity:0.2706"/>
			<stop  offset="1" style="stop-color:#FFFFFF;stop-opacity:0"/>
		</radialGradient>
		<path fill-rule="evenodd" clip-rule="evenodd" fill="url(#SVGID_13_)" d="M604.91,573.2c-1.56,0-2.91-4.01-4.04-12.02
			c-1.12-7.95-1.67-17.54-1.67-28.78c0-11.23,0.56-20.86,1.67-28.87c1.13-8.01,2.47-12.02,4.04-12.02c1.57,0,2.92,4.01,4.04,12.02
			s1.67,17.64,1.67,28.87c0,11.23-0.56,20.82-1.67,28.78C607.83,569.2,606.48,573.2,604.91,573.2z"/>
		
			<radialGradient id="SVGID_14_" cx="65.9014" cy="17.5747" r="22.9137" gradientTransform="matrix(0.2182 0 0 2.4436 552.4998 495.6506)" gradientUnits="userSpaceOnUse">
			<stop  offset="0" style="stop-color:#FFFFFF;stop-opacity:0.3647"/>
			<stop  offset="0.3412" style="stop-color:#FFFFFF;stop-opacity:0.1569"/>
			<stop  offset="0.7451" style="stop-color:#FFFFFF;stop-opacity:0.0627"/>
			<stop  offset="1" style="stop-color:#FFFFFF;stop-opacity:0"/>
		</radialGradient>
		<path fill-rule="evenodd" clip-rule="evenodd" fill="url(#SVGID_14_)" d="M566.88,593.39c-1.19,0-2.22-5.38-3.08-16.13
			c-0.85-10.67-1.28-23.54-1.28-38.61s0.42-27.98,1.28-38.73c0.86-10.75,1.88-16.13,3.08-16.13c1.2,0,2.23,5.38,3.08,16.13
			c0.85,10.75,1.28,23.66,1.28,38.73s-0.43,27.94-1.28,38.61C569.1,588.02,568.08,593.39,566.88,593.39z"/>
		
			<radialGradient id="SVGID_15_" cx="65.8975" cy="17.5732" r="22.9166" gradientTransform="matrix(0 0.1023 -0.7419 0 599.45 469.7997)" gradientUnits="userSpaceOnUse">
			<stop  offset="0" style="stop-color:#FFFFFF;stop-opacity:0.498"/>
			<stop  offset="0.4078" style="stop-color:#FFFFFF;stop-opacity:0.2706"/>
			<stop  offset="1" style="stop-color:#FFFFFF;stop-opacity:0"/>
		</radialGradient>
		<path fill-rule="evenodd" clip-rule="evenodd" fill="url(#SVGID_15_)" d="M569.77,476.54c0-0.56,1.63-1.04,4.9-1.44
			c3.24-0.4,7.15-0.6,11.72-0.6s8.5,0.2,11.76,0.6c3.26,0.4,4.9,0.88,4.9,1.44c0,0.56-1.63,1.04-4.9,1.44
			c-3.26,0.4-7.18,0.6-11.76,0.6s-8.48-0.2-11.72-0.6C571.41,477.58,569.77,477.1,569.77,476.54z"/>
		
			<radialGradient id="SVGID_16_" cx="65.9004" cy="17.5752" r="22.914" gradientTransform="matrix(0.2548 0.2095 -0.3153 0.3215 552.5004 461.7004)" gradientUnits="userSpaceOnUse">
			<stop  offset="0" style="stop-color:#FFFFFF;stop-opacity:0.251"/>
			<stop  offset="0.5333" style="stop-color:#FFFFFF;stop-opacity:0.0471"/>
			<stop  offset="0.7451" style="stop-color:#FFFFFF;stop-opacity:0.0275"/>
			<stop  offset="1" style="stop-color:#FFFFFF;stop-opacity:0"/>
		</radialGradient>
		<path fill-rule="evenodd" clip-rule="evenodd" fill="url(#SVGID_16_)" d="M556.68,488.36c-1.39-1.14-1.9-2.84-1.51-5.08
			c0.38-2.22,1.55-4.32,3.49-6.3s4.11-3.27,6.49-3.87c2.39-0.59,4.28-0.31,5.67,0.83c1.4,1.15,1.9,2.84,1.51,5.08
			s-1.56,4.34-3.51,6.32s-4.1,3.27-6.47,3.85C559.97,489.79,558.08,489.51,556.68,488.36z"/>
		
			<radialGradient id="SVGID_17_" cx="65.896" cy="17.5742" r="22.9167" gradientTransform="matrix(-0.2182 0.2402 -0.3785 -0.2614 629.4 470.6508)" gradientUnits="userSpaceOnUse">
			<stop  offset="0" style="stop-color:#FFFFFF;stop-opacity:0.251"/>
			<stop  offset="0.5333" style="stop-color:#FFFFFF;stop-opacity:0.0471"/>
			<stop  offset="0.7451" style="stop-color:#FFFFFF;stop-opacity:0.0275"/>
			<stop  offset="1" style="stop-color:#FFFFFF;stop-opacity:0"/>
		</radialGradient>
		<path fill-rule="evenodd" clip-rule="evenodd" fill="url(#SVGID_17_)" d="M599.88,476.03c1.19-1.31,3.05-1.87,5.57-1.66
			c2.5,0.2,4.92,1.11,7.26,2.72c2.33,1.61,3.91,3.46,4.72,5.55c0.81,2.09,0.62,3.8-0.58,5.11c-1.2,1.32-3.06,1.88-5.57,1.66
			c-2.52-0.21-4.94-1.13-7.28-2.74c-2.33-1.61-3.9-3.46-4.7-5.53C598.49,479.05,598.68,477.35,599.88,476.03z"/>
		<g>
			<path fill-rule="evenodd" clip-rule="evenodd" fill="#FFFFFF" d="M554.55,515.3c19.6,1.07,40.4,1.07,62.4,0v30.35
				c-20.5,2.57-41.3,2.77-62.4,0.6V515.3z"/>
		</g>
		<g>
			<path fill-rule="evenodd" clip-rule="evenodd" d="M562.5,522.3h-0.7v4.35l1.1,0.1c0.43,0.03,0.75,0.03,0.95,0
				c0.2-0.03,0.4-0.12,0.6-0.25c0.13-0.1,0.25-0.28,0.35-0.55c0.13-0.33,0.2-0.75,0.2-1.25s-0.07-0.88-0.2-1.15
				c-0.1-0.3-0.23-0.53-0.4-0.7c-0.17-0.17-0.4-0.28-0.7-0.35C563.5,522.43,563.1,522.37,562.5,522.3z M564.45,521.45
				c0.43,0.17,0.8,0.4,1.1,0.7c0.3,0.33,0.55,0.72,0.75,1.15c0.13,0.43,0.2,0.97,0.2,1.6c0,0.53-0.07,1-0.2,1.4
				c-0.2,0.43-0.47,0.8-0.8,1.1c-0.27,0.17-0.62,0.3-1.05,0.4c-0.33,0.1-0.77,0.13-1.3,0.1l-2.85-0.25v-6.6l2.75,0.25
				C563.65,521.3,564.12,521.35,564.45,521.45z M612.3,522.3c0.13,0.43,0.2,0.97,0.2,1.6c0,0.53-0.07,1-0.2,1.4
				c-0.2,0.5-0.47,0.92-0.8,1.25c-0.27,0.23-0.62,0.43-1.05,0.6c-0.33,0.13-0.77,0.23-1.3,0.3l-2.85,0.2v-6.6l2.75-0.25
				c0.6-0.03,1.07-0.03,1.4,0c0.43,0.1,0.8,0.27,1.1,0.5C611.85,521.6,612.1,521.93,612.3,522.3z M610.4,522.2
				c-0.2-0.17-0.43-0.25-0.7-0.25c-0.2-0.03-0.6-0.03-1.2,0l-0.7,0.1v4.4l1.1-0.15c0.4,0,0.7-0.05,0.9-0.15
				c0.23-0.07,0.45-0.18,0.65-0.35c0.13-0.1,0.25-0.3,0.35-0.6c0.13-0.33,0.2-0.75,0.2-1.25c0-0.53-0.07-0.92-0.2-1.15
				C610.7,522.53,610.57,522.33,610.4,522.2z M585.3,522.05v6.6h-1.5v-6.6H585.3z M582.9,523.15h-2.2v5.5h-1.5v-5.5H577v-1.1h5.9
				V523.15z M586.8,522.1h1.5v5.4l3.7-0.05v1.1l-5.2,0.1V522.1z M573.55,524.3c0.73,0.17,1.28,0.33,1.65,0.5
				c0.33,0.17,0.6,0.38,0.8,0.65c0.17,0.3,0.25,0.65,0.25,1.05s-0.1,0.77-0.3,1.1c-0.23,0.33-0.57,0.57-1,0.7
				c-0.43,0.17-0.97,0.25-1.6,0.25c-0.97,0-1.68-0.2-2.15-0.6c-0.53-0.37-0.83-0.92-0.9-1.65l1.4-0.15c0.1,0.43,0.28,0.77,0.55,1
				c0.27,0.2,0.63,0.3,1.1,0.3c0.5,0,0.85-0.1,1.05-0.3c0.27-0.17,0.4-0.38,0.4-0.65c0-0.13-0.05-0.25-0.15-0.35
				c-0.1-0.13-0.28-0.25-0.55-0.35c-0.17-0.03-0.57-0.12-1.2-0.25c-0.8-0.17-1.35-0.38-1.65-0.65c-0.47-0.37-0.7-0.82-0.7-1.35
				c0-0.33,0.1-0.65,0.3-0.95c0.23-0.3,0.55-0.52,0.95-0.65c0.4-0.17,0.88-0.25,1.45-0.25c0.93,0,1.63,0.18,2.1,0.55
				c0.47,0.37,0.7,0.85,0.7,1.45l-1.45,0.1c-0.07-0.33-0.22-0.58-0.45-0.75c-0.2-0.17-0.52-0.25-0.95-0.25s-0.77,0.08-1,0.25
				c-0.17,0.1-0.25,0.23-0.25,0.4c0,0.17,0.08,0.3,0.25,0.4C572.4,524.02,572.85,524.17,573.55,524.3z M569.2,521.75v6.6l-1.5-0.05
				v-6.65L569.2,521.75z M577.1,534.15l-1.75,6.55h-1.6l-1.5-5.05l-1.5,4.9l-1.6-0.05l-1.75-6.7l1.5,0.05l1.15,4.6l1.35-4.45h1.75
				l1.3,4.7l1.15-4.55H577.1z M584.8,534.25l5.9-0.1v1.1l-2.2,0.05v5.5l-1.5,0.05v-5.5h-2.2V534.25z M581.6,534.2l2.95,6.65h-1.6
				l-0.65-1.5l-2.95-0.05l-0.6,1.5h-1.6l2.85-6.6H581.6z M580.8,535.75l-1,2.45h2.05L580.8,535.75z M604.6,524.9l-3.7,0.25v1.8
				l4.15-0.3v1.15l-5.65,0.35v-6.6l5.5-0.4v1.15l-4,0.25V524l3.7-0.2V524.9z M598.3,528.3l-5.2,0.2v-6.55l1.5-0.05v5.4l3.7-0.15
				V528.3z M597.15,535l-4,0.15v1.45l3.7-0.15v1.1l-3.7,0.15v1.8l4.15-0.15v1.15l-5.65,0.2v-6.6l5.5-0.25V535z M604.3,534.3
				c0.2,0.27,0.3,0.6,0.3,1c0,0.5-0.15,0.92-0.45,1.25c-0.37,0.37-0.87,0.62-1.5,0.75c0.33,0.13,0.6,0.3,0.8,0.5
				c0.23,0.17,0.52,0.5,0.85,1l0.9,1.2l-1.75,0.15l-1.1-1.35c-0.4-0.5-0.67-0.82-0.8-0.95c-0.13-0.13-0.28-0.2-0.45-0.2
				c-0.17-0.07-0.42-0.08-0.75-0.05l-0.3,0.05v2.75l-1.45,0.1v-6.6l3.15-0.25c0.77-0.07,1.33-0.05,1.7,0.05
				C603.78,533.77,604.07,533.97,604.3,534.3z M603.05,535.5c0-0.23-0.05-0.4-0.15-0.5c-0.17-0.13-0.35-0.22-0.55-0.25
				c-0.17,0-0.55,0.02-1.15,0.05l-1.15,0.1v1.7l1.1-0.1c0.73-0.03,1.18-0.08,1.35-0.15c0.17-0.07,0.32-0.18,0.45-0.35
				C603.02,535.87,603.05,535.7,603.05,535.5z"/>
		</g>
	</g>
</g>
</svg>
