<?xml version="1.0" encoding="utf-8"?>
<!-- Generator: Adobe Illustrator 16.0.0, SVG Export Plug-In . SVG Version: 6.00 Build 0)  -->
<!DOCTYPE svg PUBLIC "-//W3C//DTD SVG 1.1//EN" "http://www.w3.org/Graphics/SVG/1.1/DTD/svg11.dtd">
<svg version="1.1" id="Layer_1" xmlns="http://www.w3.org/2000/svg" xmlns:xlink="http://www.w3.org/1999/xlink" x="0px" y="0px"
	 width="700px" height="700px" viewBox="0 0 700 700" enable-background="new 0 0 700 700" xml:space="preserve">
<g>
	<g>
		<path fill-rule="evenodd" clip-rule="evenodd" fill="#FFFFFF" fill-opacity="0.298" d="M516.2,542.6v-72.95h64.5v73.3
			c-0.6,5.13-5.07,8.57-13.4,10.3c-12.4,2-24.68,2-36.85,0C520.82,551.42,516.07,547.87,516.2,542.6z"/>
	</g>
	<g>
		<rect x="516.25" y="468.95" fill-rule="evenodd" clip-rule="evenodd" fill="#FFFFFF" width="64.5" height="0.7"/>
	</g>
	<g>
		<g>
			<linearGradient id="SVGID_1_" gradientUnits="userSpaceOnUse" x1="523.7002" y1="496.6875" x2="574.6504" y2="496.6875">
				<stop  offset="7.843138e-003" style="stop-color:#000000;stop-opacity:0"/>
				<stop  offset="0.2863" style="stop-color:#000000;stop-opacity:0.0431"/>
				<stop  offset="0.5647" style="stop-color:#000000;stop-opacity:0.0627"/>
				<stop  offset="0.8353" style="stop-color:#000000;stop-opacity:0"/>
				<stop  offset="1" style="stop-color:#000000;stop-opacity:0"/>
			</linearGradient>
			<path fill-rule="evenodd" clip-rule="evenodd" fill="url(#SVGID_1_)" d="M523.7,551V438.3h50.95V551
				C557.18,556.43,540.2,556.43,523.7,551z"/>
		</g>
		<g>
			<linearGradient id="SVGID_2_" gradientUnits="userSpaceOnUse" x1="546.2871" y1="495.4883" x2="551.6121" y2="495.4883">
				<stop  offset="0" style="stop-color:#FFFFFF;stop-opacity:0.1294"/>
				<stop  offset="0.5098" style="stop-color:#FFFFFF"/>
				<stop  offset="1" style="stop-color:#FFFFFF;stop-opacity:0.3922"/>
			</linearGradient>
			<path fill-rule="evenodd" clip-rule="evenodd" fill="url(#SVGID_2_)" d="M551.85,438.7v112.75c-1.9,1.1-3.8,1.1-5.7,0V438.7
				H551.85z"/>
		</g>
		<g>
			<linearGradient id="SVGID_3_" gradientUnits="userSpaceOnUse" x1="526.7998" y1="433.7832" x2="568.7998" y2="433.7832">
				<stop  offset="0" style="stop-color:#BAC1D1;stop-opacity:0.8431"/>
				<stop  offset="0.2078" style="stop-color:#AFB8C8;stop-opacity:0.5922"/>
				<stop  offset="0.4745" style="stop-color:#A5B0C0;stop-opacity:0.3176"/>
				<stop  offset="0.8039" style="stop-color:#B2BACA;stop-opacity:0.6275"/>
				<stop  offset="0.8784" style="stop-color:#B5BCCC;stop-opacity:0.5922"/>
				<stop  offset="1" style="stop-color:#BAC1D1;stop-opacity:0.8"/>
			</linearGradient>
			<path fill-rule="evenodd" clip-rule="evenodd" fill="url(#SVGID_3_)" d="M526.8,433.75c0-0.33,0.82-0.67,2.45-1
				c0.93-0.17,2.17-0.33,3.7-0.5c4.13-0.43,9.1-0.65,14.9-0.65c5.8,0,10.73,0.22,14.8,0.65c4.13,0.43,6.2,0.88,6.2,1.35
				c0,0.3-0.78,0.6-2.35,0.9c-5.67,0.87-11.45,1.35-17.35,1.45c-3.03,0.03-5.98,0.02-8.85-0.05c-2.7-0.13-5.15-0.32-7.35-0.55
				c-1.53-0.17-2.77-0.33-3.7-0.5C527.62,434.55,526.8,434.18,526.8,433.75z"/>
		</g>
		<g>
			<linearGradient id="SVGID_4_" gradientUnits="userSpaceOnUse" x1="534.1396" y1="423.3555" x2="562.4502" y2="423.3555">
				<stop  offset="0" style="stop-color:#7E0127"/>
				<stop  offset="0.2392" style="stop-color:#98012A"/>
				<stop  offset="0.4941" style="stop-color:#A0002B"/>
				<stop  offset="0.7686" style="stop-color:#810328"/>
				<stop  offset="1" style="stop-color:#4A0218"/>
			</linearGradient>
			<path fill-rule="evenodd" clip-rule="evenodd" fill="url(#SVGID_4_)" d="M562.45,418.6v0.25v10.55c-0.2,0.73-1.2,1.15-3,1.25
				c-7.67,0.7-15.27,0.68-22.8-0.05c-1.93-0.27-2.75-0.77-2.45-1.5v-10.25v-0.05c0.13-2.1,1.65-3.18,4.55-3.25c0.1,0,0.25,0,0.45,0
				h19.1C560.7,415.62,562.08,416.63,562.45,418.6z"/>
		</g>
		<g>
			<linearGradient id="SVGID_5_" gradientUnits="userSpaceOnUse" x1="533.3057" y1="431.6748" x2="563.1556" y2="431.6748">
				<stop  offset="0" style="stop-color:#C6B3B0"/>
				<stop  offset="0.4784" style="stop-color:#DBCFCD"/>
				<stop  offset="1" style="stop-color:#A28380"/>
			</linearGradient>
			<path fill-rule="evenodd" clip-rule="evenodd" fill="url(#SVGID_5_)" d="M562.5,433.6c-9.77,1-19.28,1-28.55,0
				c-0.17-0.3-0.35-0.83-0.55-1.6c-0.23-1-0.03-2,0.6-3c9.37,1.17,18.73,1.17,28.1,0c0.87,0.5,1.25,1.37,1.15,2.6
				C563.12,432.83,562.87,433.5,562.5,433.6z"/>
		</g>
		<g>
			<linearGradient id="SVGID_6_" gradientUnits="userSpaceOnUse" x1="540.9375" y1="415.7617" x2="556.0625" y2="415.7617">
				<stop  offset="0" style="stop-color:#A1002C"/>
				<stop  offset="1" style="stop-color:#4B0117"/>
			</linearGradient>
			<path fill-rule="evenodd" clip-rule="evenodd" fill="url(#SVGID_6_)" d="M556.6,416.3c-2.23,0.17-4.93,0.25-8.1,0.25
				s-5.88-0.08-8.15-0.25c-2.23-0.13-3.35-0.28-3.35-0.45c0-0.03,0.28-0.12,0.85-0.25c7.1-0.83,14.2-0.83,21.3,0
				c0.53,0.13,0.8,0.22,0.8,0.25C559.95,416.02,558.83,416.17,556.6,416.3z"/>
		</g>
		<g>
			
				<radialGradient id="SVGID_7_" cx="535.7002" cy="394.4502" r="29.3" gradientTransform="matrix(1 0 0 0.8622 0 54.3547)" gradientUnits="userSpaceOnUse">
				<stop  offset="0" style="stop-color:#A0002B"/>
				<stop  offset="0.6" style="stop-color:#75021F"/>
				<stop  offset="0.9804" style="stop-color:#980E2F"/>
			</radialGradient>
			<path fill-rule="evenodd" clip-rule="evenodd" fill="url(#SVGID_7_)" d="M467.95,368.45c4.17-6.03,8.23-11.15,12.2-15.35
				c30.4-32.53,54.18-11.73,71.35,62.4v0.25c-2.47,0.3-4.95,0.27-7.45-0.1v-0.15v-0.45c-14.97-70.6-36.27-88.2-63.9-52.8
				c-1.6,2.03-3.22,4.23-4.85,6.6C472.67,370.28,470.22,370.15,467.95,368.45z"/>
			<linearGradient id="SVGID_8_" gradientUnits="userSpaceOnUse" x1="516.2471" y1="494.3252" x2="580.75" y2="494.3252">
				<stop  offset="0" style="stop-color:#BAC1D1;stop-opacity:0.8431"/>
				<stop  offset="0.2078" style="stop-color:#AFB8C8;stop-opacity:0.5922"/>
				<stop  offset="0.4745" style="stop-color:#A5B0C0;stop-opacity:0.3176"/>
				<stop  offset="0.8039" style="stop-color:#B2BACA;stop-opacity:0.6275"/>
				<stop  offset="0.8784" style="stop-color:#B5BCCC;stop-opacity:0.5922"/>
				<stop  offset="1" style="stop-color:#BAC1D1;stop-opacity:0.8"/>
			</linearGradient>
			<path fill-rule="evenodd" clip-rule="evenodd" fill="url(#SVGID_8_)" d="M576.2,437.3c0.3,0.2,0.6,0.45,0.9,0.75
				c2,1.97,3.22,4.05,3.65,6.25v0.55v11.5v86.75c-0.6,5.13-5.07,8.57-13.4,10.3c-12.4,2-24.68,2-36.85,0
				c-9.63-1.83-14.38-5.38-14.25-10.65v-97.9c0.6-2.3,1.77-4.47,3.5-6.5c0.33-0.37,0.67-0.72,1-1.05c1.83-1.9,3.92-3.08,6.25-3.55
				c13.63,1.73,27.27,1.73,40.9,0h0.2C571.23,434.15,573.93,435.33,576.2,437.3z"/>
		</g>
		<g>
			<path fill-rule="evenodd" clip-rule="evenodd" fill="#770021" d="M549.5,417.4c0.03-0.07,0.08-0.1,0.15-0.1
				c0.07,0,0.12,0.03,0.15,0.1c0.03,0,0.05,0.03,0.05,0.1v11.65c0,0.07-0.02,0.12-0.05,0.15s-0.08,0.05-0.15,0.05
				c-0.07,0-0.12-0.02-0.15-0.05s-0.05-0.08-0.05-0.15V417.5C549.45,417.43,549.47,417.4,549.5,417.4z M553.9,417.2
				c0.03-0.03,0.08-0.05,0.15-0.05s0.12,0.02,0.15,0.05s0.05,0.08,0.05,0.15v11.6c0,0.07-0.02,0.12-0.05,0.15
				c-0.03,0.03-0.08,0.05-0.15,0.05s-0.12-0.02-0.15-0.05c-0.07-0.03-0.1-0.08-0.1-0.15v-11.6
				C553.8,417.28,553.83,417.23,553.9,417.2z M558.35,416.7c0.03-0.03,0.08-0.05,0.15-0.05c0.03,0,0.08,0.02,0.15,0.05
				c0.03,0.03,0.05,0.08,0.05,0.15v11.7c0,0.03-0.02,0.08-0.05,0.15c-0.07,0.03-0.12,0.05-0.15,0.05c-0.07,0-0.12-0.02-0.15-0.05
				c-0.07-0.07-0.1-0.12-0.1-0.15v-11.7C558.25,416.78,558.28,416.73,558.35,416.7z M540.2,417.1c0.03-0.03,0.08-0.05,0.15-0.05
				c0.07,0,0.12,0.02,0.15,0.05c0.03,0.03,0.05,0.07,0.05,0.1v11.9c0,0.03-0.02,0.08-0.05,0.15c-0.03,0-0.08,0-0.15,0
				c-0.07,0-0.12,0-0.15,0c-0.03-0.07-0.05-0.12-0.05-0.15v-11.9C540.15,417.17,540.17,417.13,540.2,417.1z M535.85,416.65
				c0.03-0.07,0.08-0.1,0.15-0.1s0.12,0.03,0.15,0.1c0.03,0.03,0.05,0.07,0.05,0.1v11.4c0,0.07-0.02,0.12-0.05,0.15
				c-0.03,0.03-0.08,0.05-0.15,0.05s-0.12-0.02-0.15-0.05c-0.03-0.03-0.05-0.08-0.05-0.15v-11.4
				C535.8,416.72,535.82,416.68,535.85,416.65z M545.2,417.25c0.07,0,0.13,0.03,0.2,0.1c0.03,0.03,0.05,0.07,0.05,0.1v11.8
				c0,0.03-0.02,0.08-0.05,0.15c-0.07,0-0.13,0-0.2,0h-0.1c-0.07-0.07-0.1-0.12-0.1-0.15v-11.8c0-0.03,0.03-0.07,0.1-0.1
				C545.1,417.28,545.13,417.25,545.2,417.25z"/>
			<path fill-rule="evenodd" clip-rule="evenodd" fill="#FF3E73" fill-opacity="0.3294" d="M550.3,417.2c0.07,0,0.12,0.03,0.15,0.1
				c0.03,0.03,0.05,0.07,0.05,0.1v11.7c0,0.03-0.02,0.08-0.05,0.15c-0.03,0-0.08,0-0.15,0s-0.12,0-0.15,0
				c-0.03-0.07-0.05-0.12-0.05-0.15v-11.7c0-0.03,0.02-0.07,0.05-0.1C550.18,417.23,550.23,417.2,550.3,417.2z M554.65,417.05
				c0.03-0.07,0.07-0.1,0.1-0.1c0.07,0,0.13,0.03,0.2,0.1c0.03,0,0.05,0.03,0.05,0.1v11.6c0,0.03-0.02,0.08-0.05,0.15
				c-0.07,0-0.13,0-0.2,0c-0.03,0-0.07,0-0.1,0c-0.07-0.07-0.1-0.12-0.1-0.15v-11.6C554.55,417.08,554.58,417.05,554.65,417.05z
				 M536.45,417.05c0-0.03,0.03-0.07,0.1-0.1c0.03-0.03,0.08-0.05,0.15-0.05c0.03,0,0.08,0.02,0.15,0.05
				c0.03,0.03,0.05,0.07,0.05,0.1v11.6c0,0.07-0.02,0.12-0.05,0.15c-0.07,0.03-0.12,0.05-0.15,0.05c-0.07,0-0.12-0.02-0.15-0.05
				c-0.07-0.03-0.1-0.08-0.1-0.15V417.05z M559.4,417.05c0.03,0.03,0.05,0.08,0.05,0.15v11.1c0,0.07-0.02,0.12-0.05,0.15
				c-0.03,0.03-0.08,0.05-0.15,0.05s-0.12-0.02-0.15-0.05c-0.03-0.03-0.05-0.08-0.05-0.15v-11.1c0-0.07,0.02-0.12,0.05-0.15
				c0.03-0.03,0.08-0.05,0.15-0.05S559.37,417.02,559.4,417.05z M545.75,417.45c0-0.03,0.02-0.07,0.05-0.1
				c0.03-0.07,0.08-0.1,0.15-0.1s0.12,0.03,0.15,0.1c0.03,0.03,0.05,0.07,0.05,0.1v11.75c0,0.03-0.02,0.08-0.05,0.15
				c-0.03,0.03-0.08,0.05-0.15,0.05s-0.12-0.02-0.15-0.05c-0.03-0.07-0.05-0.12-0.05-0.15V417.45z M541.35,417.25
				c0.03,0.03,0.05,0.08,0.05,0.15v11.85c0,0.03-0.02,0.08-0.05,0.15c-0.07,0-0.13,0-0.2,0c-0.03,0-0.07,0-0.1,0
				c-0.07-0.07-0.1-0.12-0.1-0.15V417.4c0-0.07,0.03-0.12,0.1-0.15c0.03-0.03,0.07-0.05,0.1-0.05
				C541.22,417.2,541.28,417.22,541.35,417.25z"/>
		</g>
		<g>
			<path fill-rule="evenodd" clip-rule="evenodd" fill="none" d="M537,416.2c7.03,0.7,14.33,0.7,21.9,0"/>
			<path fill-rule="evenodd" clip-rule="evenodd" fill="none" d="M544.85,415.75c2.57,0.57,5.05,0.57,7.45,0"/>
			<path fill-rule="evenodd" clip-rule="evenodd" fill="none" d="M534.25,433.5c10,1.07,19.32,0.95,27.95-0.35"/>
			<path fill-rule="evenodd" clip-rule="evenodd" fill="none" d="M534.45,429.4c10,1.1,19.35,1,28.05-0.3"/>
			<path fill-rule="evenodd" clip-rule="evenodd" fill="none" d="M534.85,428.75c8.47,1.23,17.47,1.23,27,0"/>
			<path fill-rule="evenodd" clip-rule="evenodd" fill="none" d="M527.95,433.95c9.23,1.1,19.57,1.28,31,0.55"/>
		</g>
		<g>
			
				<radialGradient id="SVGID_9_" cx="481.6016" cy="355.8086" r="18.8169" gradientTransform="matrix(1 0 0 0.8938 0 37.8017)" gradientUnits="userSpaceOnUse">
				<stop  offset="0" style="stop-color:#FFFFFF;stop-opacity:0.5765"/>
				<stop  offset="1" style="stop-color:#FBFBFB;stop-opacity:0"/>
			</radialGradient>
			<path fill-rule="evenodd" clip-rule="evenodd" fill="url(#SVGID_9_)" d="M469.2,368.35c-0.03-0.1,0-0.2,0.1-0.3
				c3.73-5.03,7.23-9.38,10.5-13.05c5.03-5.67,9.55-9.65,13.55-11.95c0.1-0.07,0.2-0.1,0.3-0.1c0.13,0.03,0.23,0.1,0.3,0.2
				s0.08,0.2,0.05,0.3c-0.03,0.1-0.08,0.18-0.15,0.25c-3.93,2.3-8.38,6.23-13.35,11.8c-3.3,3.63-6.8,7.97-10.5,13
				c-0.07,0.07-0.17,0.12-0.3,0.15c-0.1,0.03-0.2,0.02-0.3-0.05C469.3,368.53,469.23,368.45,469.2,368.35z"/>
			
				<radialGradient id="SVGID_10_" cx="508" cy="340.25" r="5.3" gradientTransform="matrix(1 0 0 0.8939 0 36.1115)" gradientUnits="userSpaceOnUse">
				<stop  offset="0" style="stop-color:#FFFFFF;stop-opacity:0.4627"/>
				<stop  offset="1" style="stop-color:#FBFBFB;stop-opacity:0"/>
			</radialGradient>
			<path fill-rule="evenodd" clip-rule="evenodd" fill="url(#SVGID_10_)" d="M502.85,339.45c0.03-0.07,0.12-0.12,0.25-0.15
				c2.6-0.7,5.9-0.32,9.9,1.15c0.1,0.03,0.17,0.1,0.2,0.2c0.07,0.1,0.08,0.2,0.05,0.3c-0.07,0.1-0.15,0.17-0.25,0.2
				c-0.13,0.07-0.25,0.08-0.35,0.05c-3.77-1.4-6.88-1.78-9.35-1.15c-0.1,0.03-0.22,0.02-0.35-0.05c-0.07-0.07-0.12-0.15-0.15-0.25
				C502.73,339.65,502.75,339.55,502.85,339.45z"/>
			
				<radialGradient id="SVGID_11_" cx="519.75" cy="352.0996" r="10.425" gradientTransform="matrix(1 0 0 0.8933 0 37.5742)" gradientUnits="userSpaceOnUse">
				<stop  offset="0" style="stop-color:#FFFFFF;stop-opacity:0.4314"/>
				<stop  offset="1" style="stop-color:#FBFBFB;stop-opacity:0"/>
			</radialGradient>
			<path fill-rule="evenodd" clip-rule="evenodd" fill="url(#SVGID_11_)" d="M513.3,345.1c0.1,0,0.22,0.03,0.35,0.1
				c6.13,3.73,10.93,9.22,14.4,16.45c0.03,0.1,0.03,0.2,0,0.3c-0.03,0.07-0.12,0.13-0.25,0.2c-0.1,0.03-0.2,0.05-0.3,0.05
				c-0.1-0.07-0.18-0.15-0.25-0.25c-3.4-7.1-8.1-12.47-14.1-16.1c-0.1-0.07-0.17-0.15-0.2-0.25s0-0.2,0.1-0.3
				C513.12,345.2,513.2,345.13,513.3,345.1z"/>
			
				<radialGradient id="SVGID_12_" cx="538.3496" cy="383.5" r="35.9125" gradientTransform="matrix(1 0 0 0.8938 0 40.7127)" gradientUnits="userSpaceOnUse">
				<stop  offset="0" style="stop-color:#FFFFFF;stop-opacity:0.498"/>
				<stop  offset="1" style="stop-color:#FBFBFB;stop-opacity:0"/>
			</radialGradient>
			<path fill-rule="evenodd" clip-rule="evenodd" fill="url(#SVGID_12_)" d="M526.8,354.3c0.03-0.1,0.12-0.17,0.25-0.2
				c0.07-0.07,0.17-0.07,0.3,0c0.1,0.03,0.18,0.1,0.25,0.2c7.93,13.1,14.17,28.55,18.7,46.35c1.07,4.23,2.03,8.63,2.9,13.2
				c0.03,0.07,0.02,0.15-0.05,0.25c-0.07,0.07-0.17,0.12-0.3,0.15c-0.1,0.03-0.2,0.02-0.3-0.05c-0.1-0.07-0.17-0.15-0.2-0.25
				c-0.9-4.5-1.87-8.88-2.9-13.15c-4.53-17.73-10.75-33.12-18.65-46.15C526.77,354.55,526.77,354.43,526.8,354.3z"/>
		</g>
		
			<radialGradient id="SVGID_13_" cx="65.8989" cy="17.5752" r="22.9147" gradientTransform="matrix(0.2862 0 0 1.8214 548.7003 461.8497)" gradientUnits="userSpaceOnUse">
			<stop  offset="0" style="stop-color:#FFFFFF;stop-opacity:0.3647"/>
			<stop  offset="0.4078" style="stop-color:#FFFFFF;stop-opacity:0.2706"/>
			<stop  offset="1" style="stop-color:#FFFFFF;stop-opacity:0"/>
		</radialGradient>
		<path fill-rule="evenodd" clip-rule="evenodd" fill="url(#SVGID_13_)" d="M567.56,534.7c-1.56,0-2.91-4.01-4.04-12.02
			c-1.12-7.95-1.67-17.54-1.67-28.78c0-11.23,0.56-20.86,1.67-28.87c1.13-8.01,2.47-12.02,4.04-12.02c1.57,0,2.92,4.01,4.04,12.02
			s1.67,17.64,1.67,28.87c0,11.23-0.56,20.82-1.67,28.78C570.48,530.7,569.13,534.7,567.56,534.7z"/>
		
			<radialGradient id="SVGID_14_" cx="65.9014" cy="17.5747" r="22.9137" gradientTransform="matrix(0.2182 0 0 2.4436 515.1501 457.1506)" gradientUnits="userSpaceOnUse">
			<stop  offset="0" style="stop-color:#FFFFFF;stop-opacity:0.3647"/>
			<stop  offset="0.3412" style="stop-color:#FFFFFF;stop-opacity:0.1569"/>
			<stop  offset="0.7451" style="stop-color:#FFFFFF;stop-opacity:0.0627"/>
			<stop  offset="1" style="stop-color:#FFFFFF;stop-opacity:0"/>
		</radialGradient>
		<path fill-rule="evenodd" clip-rule="evenodd" fill="url(#SVGID_14_)" d="M529.53,554.89c-1.19,0-2.22-5.38-3.08-16.13
			c-0.85-10.67-1.28-23.54-1.28-38.61s0.42-27.98,1.28-38.73c0.86-10.75,1.88-16.13,3.08-16.13c1.2,0,2.23,5.38,3.08,16.13
			c0.85,10.75,1.28,23.66,1.28,38.73s-0.43,27.94-1.28,38.61C531.75,549.52,530.73,554.89,529.53,554.89z"/>
		
			<radialGradient id="SVGID_15_" cx="65.8994" cy="17.5742" r="22.915" gradientTransform="matrix(0 0.1023 -0.7419 0 562.0994 431.2997)" gradientUnits="userSpaceOnUse">
			<stop  offset="0" style="stop-color:#FFFFFF;stop-opacity:0.498"/>
			<stop  offset="0.4078" style="stop-color:#FFFFFF;stop-opacity:0.2706"/>
			<stop  offset="1" style="stop-color:#FFFFFF;stop-opacity:0"/>
		</radialGradient>
		<path fill-rule="evenodd" clip-rule="evenodd" fill="url(#SVGID_15_)" d="M532.42,438.04c0-0.56,1.63-1.04,4.9-1.44
			c3.24-0.4,7.15-0.6,11.72-0.6s8.5,0.2,11.76,0.6c3.26,0.4,4.9,0.88,4.9,1.44c0,0.56-1.63,1.04-4.9,1.44
			c-3.26,0.4-7.18,0.6-11.76,0.6s-8.48-0.2-11.72-0.6C534.05,439.08,532.42,438.6,532.42,438.04z"/>
		
			<radialGradient id="SVGID_16_" cx="65.9004" cy="17.5747" r="22.9142" gradientTransform="matrix(0.2548 0.2095 -0.3153 0.3215 515.1508 423.2004)" gradientUnits="userSpaceOnUse">
			<stop  offset="0" style="stop-color:#FFFFFF;stop-opacity:0.251"/>
			<stop  offset="0.5333" style="stop-color:#FFFFFF;stop-opacity:0.0471"/>
			<stop  offset="0.7451" style="stop-color:#FFFFFF;stop-opacity:0.0275"/>
			<stop  offset="1" style="stop-color:#FFFFFF;stop-opacity:0"/>
		</radialGradient>
		<path fill-rule="evenodd" clip-rule="evenodd" fill="url(#SVGID_16_)" d="M519.33,449.86c-1.39-1.14-1.9-2.84-1.51-5.08
			c0.38-2.22,1.55-4.32,3.49-6.3s4.11-3.27,6.49-3.87c2.39-0.59,4.28-0.31,5.67,0.83c1.4,1.15,1.9,2.84,1.51,5.08
			s-1.56,4.34-3.51,6.32s-4.1,3.27-6.47,3.85C522.62,451.29,520.73,451.01,519.33,449.86z"/>
		
			<radialGradient id="SVGID_17_" cx="65.895" cy="17.5757" r="22.9164" gradientTransform="matrix(-0.2182 0.2402 -0.3785 -0.2614 592.0494 432.1508)" gradientUnits="userSpaceOnUse">
			<stop  offset="0" style="stop-color:#FFFFFF;stop-opacity:0.251"/>
			<stop  offset="0.5333" style="stop-color:#FFFFFF;stop-opacity:0.0471"/>
			<stop  offset="0.7451" style="stop-color:#FFFFFF;stop-opacity:0.0275"/>
			<stop  offset="1" style="stop-color:#FFFFFF;stop-opacity:0"/>
		</radialGradient>
		<path fill-rule="evenodd" clip-rule="evenodd" fill="url(#SVGID_17_)" d="M562.53,437.53c1.19-1.31,3.05-1.87,5.57-1.66
			c2.5,0.2,4.92,1.11,7.26,2.72c2.33,1.61,3.91,3.46,4.72,5.55c0.81,2.09,0.62,3.8-0.58,5.11c-1.2,1.32-3.06,1.88-5.57,1.66
			c-2.52-0.21-4.94-1.13-7.28-2.74c-2.33-1.61-3.9-3.46-4.7-5.53C561.14,440.55,561.33,438.85,562.53,437.53z"/>
		<g>
			<path fill-rule="evenodd" clip-rule="evenodd" fill="#FFFFFF" d="M579.6,476.8v30.35c-20.5,2.57-41.3,2.77-62.4,0.6V476.8
				C536.8,477.87,557.6,477.87,579.6,476.8z"/>
		</g>
		<g>
			<path fill-rule="evenodd" clip-rule="evenodd" d="M571.7,482.3c0.6-0.03,1.07-0.03,1.4,0c0.43,0.1,0.8,0.27,1.1,0.5
				c0.3,0.3,0.55,0.63,0.75,1c0.13,0.43,0.2,0.97,0.2,1.6c0,0.53-0.07,1-0.2,1.4c-0.2,0.5-0.47,0.92-0.8,1.25
				c-0.27,0.23-0.62,0.43-1.05,0.6c-0.33,0.13-0.77,0.23-1.3,0.3l-2.85,0.2v-6.6L571.7,482.3z M573.05,483.7
				c-0.2-0.17-0.43-0.25-0.7-0.25c-0.2-0.03-0.6-0.03-1.2,0l-0.7,0.1v4.4l1.1-0.15c0.4,0,0.7-0.05,0.9-0.15
				c0.23-0.07,0.45-0.18,0.65-0.35c0.13-0.1,0.25-0.3,0.35-0.6c0.13-0.33,0.2-0.75,0.2-1.25c0-0.53-0.07-0.92-0.2-1.15
				C573.35,484.03,573.22,483.83,573.05,483.7z M567.55,483.8l-4,0.25v1.45l3.7-0.2v1.1l-3.7,0.25v1.8l4.15-0.3v1.15l-5.65,0.35
				v-6.6l5.5-0.4V483.8z M525.7,482.8c0.6,0,1.07,0.05,1.4,0.15c0.43,0.17,0.8,0.4,1.1,0.7c0.3,0.33,0.55,0.72,0.75,1.15
				c0.13,0.43,0.2,0.97,0.2,1.6c0,0.53-0.07,1-0.2,1.4c-0.2,0.43-0.47,0.8-0.8,1.1c-0.27,0.17-0.62,0.3-1.05,0.4
				c-0.33,0.1-0.77,0.13-1.3,0.1l-2.85-0.25v-6.6L525.7,482.8z M524.45,488.15l1.1,0.1c0.43,0.03,0.75,0.03,0.95,0
				s0.4-0.12,0.6-0.25c0.13-0.1,0.25-0.28,0.35-0.55c0.13-0.33,0.2-0.75,0.2-1.25s-0.07-0.88-0.2-1.15c-0.1-0.3-0.23-0.53-0.4-0.7
				c-0.17-0.17-0.4-0.28-0.7-0.35c-0.2-0.07-0.6-0.13-1.2-0.2h-0.7V488.15z M534.85,484.55c-0.17,0.1-0.25,0.23-0.25,0.4
				c0,0.17,0.08,0.3,0.25,0.4c0.2,0.17,0.65,0.32,1.35,0.45c0.73,0.17,1.28,0.33,1.65,0.5c0.33,0.17,0.6,0.38,0.8,0.65
				c0.17,0.3,0.25,0.65,0.25,1.05s-0.1,0.77-0.3,1.1c-0.23,0.33-0.57,0.57-1,0.7c-0.43,0.17-0.97,0.25-1.6,0.25
				c-0.97,0-1.68-0.2-2.15-0.6c-0.53-0.37-0.83-0.92-0.9-1.65l1.4-0.15c0.1,0.43,0.28,0.77,0.55,1c0.27,0.2,0.63,0.3,1.1,0.3
				c0.5,0,0.85-0.1,1.05-0.3c0.27-0.17,0.4-0.38,0.4-0.65c0-0.13-0.05-0.25-0.15-0.35c-0.1-0.13-0.28-0.25-0.55-0.35
				c-0.17-0.03-0.57-0.12-1.2-0.25c-0.8-0.17-1.35-0.38-1.65-0.65c-0.47-0.37-0.7-0.82-0.7-1.35c0-0.33,0.1-0.65,0.3-0.95
				c0.23-0.3,0.55-0.52,0.95-0.65c0.4-0.17,0.88-0.25,1.45-0.25c0.93,0,1.63,0.18,2.1,0.55s0.7,0.85,0.7,1.45l-1.45,0.1
				c-0.07-0.33-0.22-0.58-0.45-0.75c-0.2-0.17-0.52-0.25-0.95-0.25C535.42,484.3,535.08,484.38,534.85,484.55z M530.35,483.15
				l1.5,0.1v6.6l-1.5-0.05V483.15z M545.55,484.65h-2.2v5.5h-1.5v-5.5h-2.2v-1.1h5.9V484.65z M546.45,483.55h1.5v6.6h-1.5V483.55z
				 M550.95,483.6v5.4l3.7-0.05v1.1l-5.2,0.1v-6.55H550.95z M555.75,483.45l1.5-0.05v5.4l3.7-0.15v1.15l-5.2,0.2V483.45z M565.7,497
				c0-0.23-0.05-0.4-0.15-0.5c-0.17-0.13-0.35-0.22-0.55-0.25c-0.17,0-0.55,0.02-1.15,0.05l-1.15,0.1v1.7l1.1-0.1
				c0.73-0.03,1.18-0.08,1.35-0.15c0.17-0.07,0.32-0.18,0.45-0.35C565.67,497.37,565.7,497.2,565.7,497z M566.95,495.8
				c0.2,0.27,0.3,0.6,0.3,1c0,0.5-0.15,0.92-0.45,1.25c-0.37,0.37-0.87,0.62-1.5,0.75c0.33,0.13,0.6,0.3,0.8,0.5
				c0.23,0.17,0.52,0.5,0.85,1l0.9,1.2l-1.75,0.15l-1.1-1.35c-0.4-0.5-0.67-0.82-0.8-0.95c-0.13-0.13-0.28-0.2-0.45-0.2
				c-0.17-0.07-0.42-0.08-0.75-0.05l-0.3,0.05v2.75l-1.45,0.1v-6.6l3.15-0.25c0.77-0.07,1.33-0.05,1.7,0.05
				C566.43,495.27,566.72,495.47,566.95,495.8z M559.5,499.05l-3.7,0.15v1.8l4.15-0.15V502l-5.65,0.2v-6.6l5.5-0.25v1.15l-4,0.15
				v1.45l3.7-0.15V499.05z M553.35,496.75l-2.2,0.05v5.5l-1.5,0.05v-5.5h-2.2v-1.1l5.9-0.1V496.75z M542.45,499.7h2.05l-1.05-2.45
				L542.45,499.7z M542,500.8l-0.6,1.5h-1.6l2.85-6.6h1.6l2.95,6.65h-1.6l-0.65-1.5L542,500.8z M539.75,495.65L538,502.2h-1.6
				l-1.5-5.05l-1.5,4.9l-1.6-0.05l-1.75-6.7l1.5,0.05l1.15,4.6l1.35-4.45h1.75l1.3,4.7l1.15-4.55H539.75z"/>
		</g>
	</g>
</g>
</svg>
