<?xml version="1.0" encoding="utf-8"?>
<!-- Generator: Adobe Illustrator 16.0.0, SVG Export Plug-In . SVG Version: 6.00 Build 0)  -->
<!DOCTYPE svg PUBLIC "-//W3C//DTD SVG 1.1//EN" "http://www.w3.org/Graphics/SVG/1.1/DTD/svg11.dtd">
<svg version="1.1" id="Layer_1" xmlns="http://www.w3.org/2000/svg" xmlns:xlink="http://www.w3.org/1999/xlink" x="0px" y="0px"
	 width="700px" height="700px" viewBox="0 0 700 700" enable-background="new 0 0 700 700" xml:space="preserve">
<g>
	<g>
		<path fill-rule="evenodd" clip-rule="evenodd" fill="#CCCCCC" fill-opacity="0.2" d="M366.25,321.9c-0.2,0.17-0.23,0.45-0.1,0.85
			c0.03,0.43,0.02,1.47-0.05,3.1c-0.23-0.47-0.52,0.35-0.85,2.45c-0.3,2.13-0.63,6.2-1,12.2c-0.13,1.8-0.28,4.37-0.45,7.7h0.05
			c-0.27,4.67-0.73,19.78-1.4,45.35c-0.7,25.57-0.65,55.88,0.15,90.95c-0.6,12.53-1.67,16.8-3.2,12.8c-1.43-4.1-2.05-7.67-1.85-10.7
			c-0.67-51.7-0.8-87.7-0.4-108c0.4-15.2,0.83-25.25,1.3-30.15h-0.1c0.53-5.43,1.17-9.75,1.9-12.95c1.43-7.13,2.65-10.98,3.65-11.55
			c1-0.67,1.62-1.25,1.85-1.75L366.25,321.9z"/>
	</g>
	<g>
		<path fill-rule="evenodd" clip-rule="evenodd" fill="#FFFFFF" d="M360.65,345c0.3-3.73,0.73-7.23,1.3-10.5
			c0.29-1.89,0.61-4.04,0.95-6.45c-0.13,1.13-0.28,2.43-0.45,3.9c-1,6.5-1.68,13.35-2.05,20.55
			C360.37,350.37,360.45,347.87,360.65,345z M363.7,333.85c0.03,1.43-0.07,3-0.3,4.7l-0.05,0.1
			C363.22,336.95,363.33,335.35,363.7,333.85z M362,352.5c0.1-2.43,0.25-4.78,0.45-7.05c-0.1,3.2-0.2,6.57-0.3,10.1
			c-0.03,3.07-0.12,6.22-0.25,9.45c0.03,1.27,0.03,1.93,0,2c-0.1-0.53-0.17-1.1-0.2-1.7c-0.07,1.43-0.15,2.98-0.25,4.65
			c-0.07,0.93-0.1,1.87-0.1,2.8c-0.07,1.8-0.12,3.63-0.15,5.5c-0.07-2.13-0.05-4.32,0.05-6.55c0.03-2.17,0.18-4.3,0.45-6.4v-0.05
			c-0.1-2.67-0.08-5.5,0.05-8.5C361.85,355.15,361.93,353.73,362,352.5z M360.6,356.5c0,3.63-0.22,7.7-0.65,12.2
			c-0.03,0.87-0.1,2.57-0.2,5.1c-0.17,5.17-0.25,10.28-0.25,15.35c-0.07-1.03-0.1-2.13-0.1-3.3c-0.07-4.27,0.02-8.65,0.25-13.15
			c-0.03-0.3-0.03-0.65,0-1.05C359.88,366.38,360.2,361.33,360.6,356.5z M362.3,374.1c-0.17,5.33-0.27,10.83-0.3,16.5
			c-0.03,5.33-0.03,10.65,0,15.95c-0.03,1.63-0.07,2.9-0.1,3.8c-0.17-5.53-0.23-11.22-0.2-17.05c0.07-2.3,0.1-4.62,0.1-6.95
			c0.07-3.27,0.12-6.48,0.15-9.65C362.15,375,362.27,374.13,362.3,374.1z M359.2,408.25c0.07-4,0.2-8.03,0.4-12.1
			c-0.03,2-0.1,4.02-0.2,6.05c0,3.13,0,6.23,0,9.3c-0.07,1.93-0.12,3.92-0.15,5.95c-0.03,5.2,0,10.38,0.1,15.55
			c-0.07-1.2-0.12-2.43-0.15-3.7c-0.13-3.33-0.18-6.83-0.15-10.5C359.05,415.27,359.1,411.75,359.2,408.25z M360.6,410.95
			c0.07-3.73,0.27-7.22,0.6-10.45c-0.17,4.9-0.27,9.87-0.3,14.9c-0.13,4.83-0.22,9.67-0.25,14.5c-0.03,1.8-0.07,2.73-0.1,2.8
			c0.03-4.93,0.05-10.08,0.05-15.45C360.57,414.95,360.57,412.85,360.6,410.95z M359.5,444.25c0,4.13-0.07,8.32-0.2,12.55
			c0,0.5,0,1.02,0,1.55c-0.17,3.27-0.25,6.73-0.25,10.4L359,469.6c0-0.28,0-0.57,0-0.85c-0.04,1.85-0.07,3.7-0.1,5.55
			c0,1.63,0.02,3.28,0.05,4.95l0.05-4.5c0.03,2,0.05,4,0.05,6c0.07,0,0.13,0.03,0.2,0.1c0,2.27-0.02,4.5-0.05,6.7
			c-0.13,0.07-0.27-0.02-0.4-0.25c0.03-1.5,0.05-3,0.05-4.5c-0.03-0.03-0.08-0.07-0.15-0.1c0-1.6,0.03-3.17,0.1-4.7
			c0.1-4.13,0.13-8.3,0.1-12.5c-0.03-3.43,0.02-6.65,0.15-9.65c0-3.03,0.08-6,0.25-8.9c0.03-1.03,0.1-2.1,0.2-3.2
			C359.5,443.92,359.5,444.08,359.5,444.25z M358.65,452.7c0-3.6,0.1-7.03,0.3-10.3c-0.07,10.33-0.1,20.75-0.1,31.25
			c-0.1,0.1-0.15,0.17-0.15,0.2c-0.03,2.77-0.05,5.63-0.05,8.6c-0.03,0.67-0.03,1.37,0,2.1c-0.1,0.5-0.22,0.97-0.35,1.4
			c-0.1-3.93-0.08-7.9,0.05-11.9c0.07-1.73,0.12-3.45,0.15-5.15v-0.75c0-1.6,0.02-3.23,0.05-4.9v-3.45c0-0.43,0-0.8,0-1.1
			c0-0.23,0.02-0.45,0.05-0.65c0-0.2,0-0.37,0-0.5c-0.03-0.17-0.03-0.3,0-0.4c0-0.2,0-0.33,0-0.4
			C358.6,455.35,358.62,454,358.65,452.7z M360.6,456.1c0.17,4.77,0.2,9.63,0.1,14.6c-0.03-0.07-0.08-0.15-0.15-0.25
			c-0.03-1.65-0.05-3.31-0.05-4.98c0,0.19-0.04,0.33-0.1,0.43c-0.03,1.13-0.07,2.3-0.1,3.5c-0.03,0.2-0.07,0.3-0.1,0.3
			c-0.03-1.13-0.03-2.3,0-3.5c0.03-2.57,0.07-5.08,0.1-7.55c0.07-2.27,0.13-4.47,0.2-6.6C360.5,453.38,360.53,454.73,360.6,456.1z"
			/>
	</g>
</g>
</svg>
